<svg width="32" height="30" viewBox="0 0 32 30" fill="none" xmlns="http://www.w3.org/2000/svg">
<path fill-rule="evenodd" clip-rule="evenodd" d="M27.0179 28.1088C27.1457 28.0841 27.1459 28.0806 27.1498 28.0222C27.1501 28.017 27.1505 28.0113 27.151 28.0052C27.145 27.9096 27.1423 27.9094 27.0854 27.9047L27.0842 27.9046C27.0695 27.9046 27.0517 27.9064 27.0301 27.909C26.8918 27.9228 26.6794 27.9397 26.4189 27.9397C26.2035 27.9397 25.9547 27.9285 25.6868 27.8955C25.6495 27.8912 25.6196 27.8882 25.5971 27.8882C25.5289 27.8931 25.5283 27.8964 25.5183 27.9548C25.5169 27.9628 25.5154 27.9719 25.5134 27.9822C25.513 27.9874 25.5126 27.9926 25.5126 27.997C25.5113 28.0212 25.5221 28.0412 25.6699 28.0893C26.0379 28.1924 26.1203 28.3398 26.1164 28.628V29.3038C26.1125 29.4147 25.9733 29.5175 25.7705 29.6033C25.5663 29.6882 25.2924 29.7502 25.0076 29.7502C24.4857 29.7502 24.0267 29.5591 23.6995 29.2154C23.3722 28.8708 23.1767 28.3745 23.1767 27.7668C23.1767 27.137 23.3397 26.6572 23.634 26.3347C23.9275 26.0126 24.3505 25.8497 24.8615 25.8497C25.6218 25.8479 26.0353 26.1227 26.2672 26.7716L26.2721 26.7819C26.2987 26.8374 26.3003 26.8408 26.3851 26.8449C26.4003 26.8449 26.4172 26.8444 26.4367 26.8431C26.4423 26.8425 26.4477 26.8418 26.4527 26.8412C26.5033 26.8353 26.5254 26.8328 26.5358 26.8204C26.5438 26.8109 26.545 26.7955 26.5469 26.7683C26.5473 26.7637 26.5476 26.7587 26.5481 26.7534C26.5481 26.5159 26.5416 26.2181 26.5151 26.0278C26.5082 25.9424 26.3786 25.8731 26.1328 25.7881C25.8437 25.6897 25.4493 25.6108 24.8819 25.6108C23.641 25.6108 22.5461 26.5219 22.5461 27.8461C22.5469 29.1308 23.5733 30.0016 24.9014 30.0029C25.4046 30.0029 25.8411 29.8959 26.1506 29.7624C26.4605 29.631 26.6395 29.4624 26.6339 29.3766V28.3632C26.6304 28.1929 26.711 28.1495 27.0179 28.1088ZM4.60545 28.7954C4.61234 28.8049 4.61331 28.8187 4.61498 28.8423L4.61512 28.8443C4.61512 28.8528 4.61478 28.8629 4.6144 28.8742L4.6144 28.8743L4.6144 28.8744L4.61426 28.8785C4.59432 29.0615 4.54794 29.3727 4.47642 29.5673H4.47599C4.41271 29.7571 3.77078 30.0064 2.91473 30.0029C1.58622 30.0016 0.559828 29.1312 0.559828 27.8465C0.559828 26.5219 1.6469 25.6112 2.89479 25.6108C3.46303 25.6108 3.78378 25.6832 4.03951 25.7747C4.32602 25.873 4.44868 25.9428 4.45518 26.0282C4.48162 26.2176 4.48813 26.5887 4.48813 26.8262C4.49116 26.8778 4.42918 26.9025 4.34379 26.9098C4.33209 26.9111 4.32168 26.912 4.31258 26.912C4.2454 26.9107 4.22589 26.8804 4.21462 26.8466C3.98446 26.1123 3.64811 25.847 2.87485 25.8496C2.41583 25.8496 1.99366 26.0126 1.68721 26.3347C1.3799 26.6567 1.19005 27.1365 1.19005 27.7668C1.19005 28.3749 1.38554 28.8759 1.71235 29.2249C2.0396 29.5742 2.49819 29.7706 3.02092 29.7706C3.72266 29.7723 4.07592 29.4754 4.30695 28.8482C4.33339 28.7797 4.35376 28.7507 4.42354 28.7489C4.44695 28.7489 4.47599 28.7528 4.51197 28.7628L4.52264 28.7653C4.5743 28.7771 4.59574 28.782 4.60545 28.7954ZM31.3456 19.1341L31.3448 19.1229C31.3388 19.0346 31.3382 19.0263 31.242 19.0205C31.2129 19.0205 31.1761 19.0231 31.1302 19.0287C30.8532 19.0582 30.5563 19.0699 30.2927 19.0699C30.0522 19.0699 29.8394 19.0599 29.6924 19.0448C29.6721 19.0422 29.6543 19.0409 29.6391 19.0409C29.5598 19.0456 29.5555 19.0586 29.5498 19.1661C29.5511 19.2047 29.5546 19.2121 29.5732 19.2233C29.5936 19.2351 29.6387 19.2446 29.7154 19.2559C30.0422 19.3118 30.2555 19.5246 30.2542 19.8627V22.6887C30.2524 22.7611 30.2507 22.8088 30.1996 22.817C30.1625 22.8138 30.1382 22.7859 30.1029 22.7454L30.0947 22.736C29.7303 22.3227 28.8583 21.4015 27.99 20.4843C27.5816 20.0529 27.174 19.6223 26.8204 19.2459L26.8101 19.2348C26.7272 19.1462 26.6883 19.1045 26.5725 19.1033C26.55 19.1033 26.5248 19.1055 26.4949 19.1085C26.4095 19.1167 26.3146 19.1202 26.2162 19.1202C26.0077 19.1202 25.7849 19.1041 25.6098 19.0768C25.573 19.0721 25.5448 19.0703 25.5236 19.0703L25.5153 19.0711C25.4921 19.0732 25.4807 19.0742 25.4741 19.0805C25.4676 19.0865 25.4657 19.0975 25.4621 19.1193V19.1193C25.4612 19.1246 25.4602 19.1305 25.459 19.1371C25.4587 19.1394 25.4585 19.1417 25.4583 19.1439C25.4582 19.1457 25.4582 19.1474 25.4581 19.1491L25.4581 19.1549C25.4581 19.2056 25.4824 19.2303 25.6298 19.2979C25.9674 19.447 26.0866 19.577 26.0836 19.8952V23.3528C26.0883 23.6987 26.0073 23.8833 25.5621 23.9752C25.4234 24.0107 25.4126 24.0229 25.4109 24.0736L25.4117 24.0853C25.4177 24.1739 25.4182 24.1814 25.5188 24.188C25.5301 24.188 25.5422 24.1876 25.5543 24.1867C25.7251 24.1728 25.9397 24.1676 26.1616 24.1676C26.4646 24.1676 26.7793 24.1776 27.0064 24.1867L27.0192 24.1871C27.0305 24.1875 27.0413 24.1879 27.0515 24.1876C27.2105 24.1815 27.2179 24.1607 27.2227 24.0736C27.2209 23.9982 27.2036 23.9882 27.0259 23.9435C26.6822 23.8889 26.4841 23.6813 26.4867 23.3047V20.1028C26.4867 20.0296 26.5244 19.9858 26.5716 19.9853C26.5959 19.9858 26.6193 19.997 26.6375 20.0148C27.7675 21.1535 30.0461 23.566 30.34 24.1182C30.4197 24.266 30.4679 24.3029 30.5355 24.3029C30.5567 24.3029 30.5814 24.299 30.61 24.2916C30.6824 24.2691 30.6867 24.2626 30.6911 24.1594C30.6911 24.1377 30.6906 24.1122 30.6889 24.0827C30.6729 23.7047 30.6651 23.1209 30.6651 22.6484V19.8388C30.6646 19.473 30.9425 19.3282 31.1536 19.2728H31.1531C31.3365 19.2142 31.3438 19.1787 31.3456 19.1341ZM11.6236 19.1905L11.6228 19.175C11.6173 19.0711 11.6172 19.0689 11.5447 19.0639C11.5257 19.0639 11.5018 19.0656 11.4728 19.0687C11.3094 19.0852 11.0953 19.0912 10.8733 19.0912C10.5465 19.0912 10.2011 19.0782 9.97222 19.0687C9.94057 19.0674 9.9137 19.0669 9.88986 19.0669L9.87594 19.0678C9.80394 19.0721 9.77422 19.0739 9.76129 19.0895C9.7522 19.1005 9.75141 19.1184 9.75006 19.1488C9.74953 19.1606 9.74892 19.1744 9.74769 19.1905L9.74825 19.2004C9.7516 19.2632 9.75226 19.2756 9.94578 19.3123C10.2743 19.3725 10.4871 19.4844 10.4845 19.8706V22.1206C10.4845 22.704 10.3515 23.1639 10.0836 23.479C9.81574 23.7936 9.43951 23.9601 8.91071 23.9601C8.29089 23.9601 7.86611 23.8071 7.57831 23.4829C7.2905 23.1595 7.16264 22.6715 7.16264 22.0083V20.3963V19.7509C7.157 19.4323 7.24932 19.3925 7.68407 19.3045C7.8206 19.2698 7.83361 19.2486 7.83491 19.2065C7.83491 19.1484 7.83231 19.1125 7.82407 19.099C7.81714 19.0865 7.80803 19.0804 7.76642 19.0795C7.75103 19.0795 7.7317 19.0812 7.70863 19.0832L7.70853 19.0832L7.69144 19.0847C7.51372 19.1021 7.25496 19.1094 6.98752 19.1094C6.6477 19.1094 6.29488 19.0986 6.07946 19.0852C6.04435 19.0834 6.01444 19.083 5.98887 19.083L5.97117 19.084C5.9156 19.0873 5.89036 19.0888 5.87821 19.1021C5.86809 19.1133 5.86704 19.1326 5.86512 19.1681C5.86451 19.1793 5.86382 19.192 5.86274 19.2065C5.86317 19.2516 5.86534 19.2672 5.88354 19.2811C5.90435 19.2971 5.95636 19.3123 6.06082 19.3279C6.30398 19.3747 6.51247 19.4978 6.51117 19.7986V22.1444C6.51464 23.6792 7.31607 24.2873 8.77461 24.2908C10.2375 24.2878 10.9483 23.4569 10.9509 22.0564V19.8151C10.9457 19.4831 11.0246 19.3782 11.4654 19.2884L11.4891 19.2812L11.5042 19.2765L11.5045 19.2765C11.6089 19.2447 11.6232 19.2403 11.6236 19.1905ZM3.71421 22.0866C3.49792 22.0948 3.21791 22.103 2.96132 22.103C2.6163 22.103 2.33586 22.0948 2.02248 22.0709L1.99127 22.0683L2.00341 22.0393C2.20322 21.5591 2.56342 20.6865 2.74806 20.2375C2.76713 20.1959 2.79401 20.1595 2.83735 20.1577C2.87463 20.1582 2.90237 20.1876 2.92534 20.2375C3.04276 20.4981 3.1601 20.7666 3.27358 21.0263L3.27358 21.0263L3.27359 21.0263L3.2736 21.0263C3.43911 21.4051 3.5964 21.765 3.73371 22.054L3.74888 22.0857L3.71421 22.0866ZM5.75183 24.2343C5.77827 24.2351 5.7878 24.2213 5.81251 24.1168C5.81381 24.1099 5.81467 24.1038 5.81467 24.0982C5.81641 24.0592 5.77523 24.0275 5.66774 23.9985C5.32618 23.894 5.18228 23.7098 5.08562 23.4983C4.4853 22.1689 3.77272 20.5444 3.19624 19.1508C3.149 19.0269 3.08658 18.9289 3.06448 18.9376C3.06274 18.9376 3.06101 18.9376 3.05624 18.9393C2.92231 18.9853 2.77537 19.0694 2.75847 19.1482C2.44154 20.2615 1.77389 21.71 1.17107 23.018L1.17104 23.018C1.11761 23.134 1.06468 23.2488 1.01255 23.3622C0.828775 23.764 0.69224 23.8615 0.512794 23.9339L0.510461 23.9349C0.325468 24.0152 0.264446 24.0416 0.267899 24.1029C0.267899 24.1099 0.268332 24.1177 0.270066 24.1268C0.285237 24.2247 0.296506 24.2382 0.344185 24.2403C0.364123 24.2403 0.39143 24.236 0.427406 24.2269C0.658431 24.1836 0.977879 24.1554 1.306 24.1554C1.47027 24.1554 1.63628 24.1627 1.79492 24.1788C1.84303 24.1844 1.88248 24.1883 1.91282 24.1883C2.00167 24.1831 2.00687 24.1744 2.01771 24.096L2.01801 24.0914C2.01832 24.0867 2.01858 24.0828 2.01858 24.0795C2.01728 24.054 2.01468 24.044 1.96526 24.0132C1.91628 23.9837 1.82613 23.9447 1.67139 23.878C1.49108 23.8047 1.41306 23.679 1.41436 23.5351C1.41436 23.4541 1.4369 23.3678 1.47504 23.2807C1.56184 23.0606 1.67589 22.7858 1.79006 22.5106L1.79007 22.5106L1.79009 22.5105L1.8595 22.3431L1.86557 22.3284L1.88204 22.3297C2.18545 22.354 2.48886 22.3614 2.86509 22.3614C3.21705 22.3614 3.56077 22.3614 3.84034 22.3458L3.85594 22.3444L3.86245 22.3588C3.95684 22.5677 4.0574 22.8044 4.15834 23.0419L4.15834 23.0419C4.2201 23.1872 4.28199 23.3329 4.3427 23.4727C4.36914 23.539 4.38821 23.5945 4.38821 23.6474C4.38604 23.7774 4.27378 23.8554 3.95347 23.9902C3.84251 24.0327 3.8321 24.0522 3.83167 24.0804C3.83167 24.0927 3.835 24.11 3.83921 24.1319L3.83947 24.1333C3.84171 24.1408 3.84347 24.1473 3.84502 24.1531C3.85573 24.1932 3.85626 24.1951 3.93656 24.2C3.96344 24.2 3.99681 24.1983 4.04016 24.1944C4.31669 24.1749 4.58803 24.1658 4.83336 24.1658C5.19225 24.1658 5.49566 24.1849 5.67901 24.2191C5.67901 24.2191 5.73709 24.2343 5.75183 24.2343ZM13.2141 20.0546C13.2141 20.5167 13.5076 20.7728 14.2834 21.1638C15.4052 21.7251 15.9769 22.1204 15.976 22.8408C15.9747 23.6912 15.3189 24.2889 14.1335 24.2906C13.3346 24.2915 12.9198 24.1368 12.8011 23.8797C12.6979 23.6648 12.6181 23.4337 12.5622 23.2265C12.5453 23.1763 12.5371 23.139 12.5371 23.1121C12.5384 23.0644 12.5566 23.0449 12.622 23.0137C12.6728 22.9912 12.7083 22.979 12.7334 22.979C12.7677 22.979 12.7941 22.9986 12.8418 23.0696C13.2908 23.7371 13.71 23.9768 14.2856 23.9764C14.6649 23.976 14.9427 23.8932 15.1269 23.7397C15.3107 23.5859 15.3974 23.3613 15.397 23.0883C15.3974 22.6115 15.1356 22.3865 14.192 21.8759C13.062 21.2661 12.6433 20.97 12.6429 20.2631C12.6446 19.5657 13.2861 18.9736 14.2375 18.9732C14.6679 18.9732 14.9206 19.0204 15.208 19.1002C15.4221 19.1543 15.576 19.2454 15.6007 19.3329C15.6722 19.5622 15.7116 19.8656 15.7277 20.1123L15.7279 20.1176L15.7279 20.1177C15.7287 20.1333 15.7294 20.1475 15.7294 20.1599C15.7246 20.2462 15.719 20.2544 15.6345 20.2726C15.6124 20.2761 15.5924 20.2783 15.5747 20.2783C15.5192 20.277 15.4849 20.2614 15.4425 20.1807C15.1139 19.5033 14.7229 19.2939 14.1252 19.2961C13.8539 19.2961 13.6263 19.3607 13.466 19.489C13.3047 19.6173 13.2137 19.8093 13.2141 20.0546ZM21.6746 20.3087V20.2814C21.6748 20.2698 21.6749 20.2578 21.675 20.2454C21.6751 20.2337 21.6752 20.2217 21.6754 20.2094C21.6754 19.89 21.6304 19.3343 21.5792 19.0864C21.5654 19.0439 21.5584 19.0266 21.4648 19.0235C21.4379 19.0235 21.4045 19.0257 21.3642 19.0313C20.9126 19.0959 19.6331 19.1115 18.8477 19.1115C18.1429 19.1115 17.7498 19.1115 16.9813 19.0552C16.9518 19.0539 16.9262 19.0539 16.9037 19.0539C16.7736 19.0574 16.7658 19.0686 16.765 19.1055C16.765 19.4366 16.693 20.0907 16.6276 20.3057C16.6193 20.3282 16.6159 20.3455 16.6159 20.3581C16.6159 20.3867 16.631 20.4006 16.7112 20.4214C16.739 20.4335 16.7615 20.44 16.7771 20.44C16.8066 20.44 16.8321 20.421 16.8651 20.3291C17.1113 19.7344 17.3779 19.3508 18.455 19.3543C18.6283 19.3547 18.7202 19.3599 18.777 19.3824C18.8368 19.4045 18.8481 19.4579 18.8464 19.5133V23.2995C18.8498 23.7307 18.6704 23.8621 18.2443 23.97C18.1394 23.9964 18.1182 24.0216 18.1177 24.0636C18.1177 24.0766 18.1199 24.0918 18.1255 24.1126C18.1275 24.1208 18.1292 24.1281 18.1306 24.1348C18.1421 24.1868 18.1444 24.1969 18.2265 24.2015C18.2582 24.2015 18.3007 24.1976 18.3566 24.1893C18.5065 24.1733 18.7787 24.1633 19.0917 24.1633C19.4042 24.1633 19.7566 24.1733 20.0669 24.1976C20.1302 24.2049 20.1762 24.2097 20.2087 24.2097C20.2735 24.2052 20.2738 24.2038 20.2876 24.1391L20.2897 24.1291L20.2899 24.1272C20.2924 24.1047 20.2945 24.0862 20.2945 24.0714C20.2932 24.0101 20.2773 24.0062 20.1149 23.9661L20.099 23.9622C19.6526 23.8629 19.4935 23.7654 19.4974 23.4113V19.5133C19.4952 19.4557 19.5147 19.4032 19.5754 19.3824C19.6348 19.3599 19.7276 19.3547 19.8879 19.3543C21.0522 19.3499 21.242 19.6958 21.4301 20.2983C21.4583 20.3746 21.4765 20.4002 21.5411 20.4019C21.5567 20.4019 21.5753 20.4002 21.597 20.3954C21.6708 20.3735 21.6713 20.3645 21.6735 20.3253L21.6739 20.3179L21.6746 20.3087ZM24.127 23.9441C24.2258 23.9632 24.2791 23.9784 24.3008 23.9948C24.3207 24.01 24.3237 24.0243 24.3246 24.0733L24.3234 24.0897C24.3204 24.1323 24.3188 24.1551 24.3067 24.168C24.2928 24.1827 24.2649 24.1844 24.2052 24.1879L24.1937 24.1886C24.1694 24.1886 24.1413 24.1877 24.1075 24.1864C23.8808 24.1773 23.518 24.1678 23.1743 24.1678C22.9229 24.1678 22.6823 24.173 22.512 24.1864C22.4937 24.1877 22.4768 24.1886 22.4617 24.1886L22.4585 24.1883C22.415 24.185 22.3923 24.1832 22.3796 24.171C22.3657 24.1575 22.3641 24.1312 22.3608 24.076L22.3607 24.0733C22.3607 24.0252 22.3806 24.0104 22.5193 23.9753C22.9541 23.8869 23.0468 23.8475 23.0408 23.5289V19.6946C23.0416 19.399 22.8071 19.3019 22.5809 19.272L22.564 19.2681L22.5405 19.2626C22.4236 19.2355 22.4178 19.2341 22.4166 19.1823C22.4222 19.054 22.4253 19.051 22.489 19.0471C22.5072 19.0471 22.5302 19.0492 22.5592 19.0527C22.7265 19.0701 22.9705 19.0904 23.2744 19.09C23.5258 19.09 23.8179 19.0761 24.1413 19.0371C24.2002 19.0297 24.2453 19.025 24.2769 19.025C24.3495 19.0303 24.3496 19.0318 24.3552 19.1253L24.3563 19.1424C24.356 19.1458 24.3558 19.1491 24.3557 19.1522L24.3554 19.1606C24.3538 19.2101 24.3535 19.2171 24.1642 19.2807C24.1526 19.2843 24.1393 19.2882 24.1247 19.2924C23.9724 19.3367 23.6801 19.4216 23.6757 19.6708V23.473C23.674 23.7811 23.8834 23.9055 24.127 23.9441ZM7.96827 29.7436C7.41346 29.7436 6.94968 29.5559 6.62546 29.2039C6.30081 28.852 6.11747 28.3375 6.1179 27.6873C6.1192 26.6119 6.77587 25.8786 7.677 25.8764C8.21187 25.8764 8.67392 26.0606 9.0016 26.4087C9.32928 26.7563 9.5213 27.266 9.5213 27.9127C9.51956 29.0076 8.87634 29.7418 7.96827 29.7436ZM7.82957 25.6107C6.54874 25.6111 5.50761 26.5552 5.50718 27.8199C5.50805 29.1454 6.5275 30.0015 7.82957 30.0028C9.07659 30.0023 10.1294 29.0453 10.1312 27.8C10.1312 26.5149 9.13684 25.6116 7.82957 25.6107ZM14.0454 29.0077C14.0571 29.0072 14.077 29.0142 14.1057 29.0263C14.1763 29.0454 14.1785 29.0463 14.1798 29.0714C14.1798 29.0814 14.1772 29.0974 14.172 29.1195C14.1122 29.3267 14.0593 29.6908 14.0588 29.8997L14.0586 29.9019C14.0576 29.9128 14.0575 29.9136 14.0432 29.9205C14.0276 29.9274 13.9947 29.9318 13.9431 29.9318C13.9315 29.9318 13.9188 29.9315 13.905 29.9311C13.896 29.9309 13.8867 29.9307 13.8768 29.9305C13.5257 29.9101 13.0684 29.904 12.6116 29.904C12.0871 29.904 11.557 29.9166 11.1795 29.9365C11.1652 29.9374 11.153 29.9378 11.1422 29.9378L11.1308 29.9369C11.0986 29.9341 11.0833 29.9329 11.0757 29.9246C11.0688 29.9172 11.068 29.9042 11.0665 29.8795V29.8795V29.8795V29.8795C11.066 29.8703 11.0653 29.8595 11.0642 29.8468C11.0647 29.841 11.065 29.8358 11.0653 29.8311V29.831V29.831L11.0653 29.831V29.831C11.0662 29.8166 11.0668 29.8071 11.0713 29.8001C11.0802 29.7864 11.1041 29.7825 11.1751 29.7709L11.1825 29.7697C11.3286 29.7606 11.5241 29.7133 11.521 29.4099V26.4226C11.5241 26.1435 11.4677 25.964 11.1613 25.8643C11.0676 25.8262 11.0598 25.8162 11.059 25.785C11.059 25.7742 11.0611 25.7603 11.0637 25.7439C11.0655 25.7362 11.0669 25.7294 11.0681 25.7234C11.0776 25.6772 11.0779 25.6756 11.1335 25.671C11.1604 25.671 11.1981 25.6749 11.2497 25.6832C11.3858 25.6944 11.5587 25.7048 11.7716 25.7048C11.9471 25.7048 12.1495 25.697 12.3819 25.6767C12.4248 25.6728 12.4586 25.6706 12.4837 25.6706L12.4895 25.671C12.5197 25.6733 12.5344 25.6745 12.5432 25.6823C12.5516 25.6897 12.5546 25.7032 12.5604 25.7295L12.5622 25.7373C12.5639 25.7521 12.5652 25.766 12.5652 25.7772C12.5643 25.8279 12.5509 25.8331 12.407 25.8704C12.1023 25.9298 12.039 26.0043 12.0455 26.2896V29.1845C12.0442 29.3731 12.1018 29.504 12.2427 29.579C12.3823 29.6531 12.5968 29.6769 12.9159 29.6774C13.5196 29.68 13.7905 29.5517 13.9765 29.1004C14.0112 29.0194 14.0294 29.0064 14.0454 29.0077ZM17.9504 29.0711C17.9495 29.0464 17.9469 29.0455 17.8771 29.026C17.8485 29.0139 17.8281 29.0074 17.8164 29.0074C17.8008 29.0061 17.7818 29.0195 17.748 29.1006C17.5616 29.5518 17.2907 29.6796 16.6869 29.6775C16.3679 29.677 16.1533 29.6532 16.0137 29.5782C15.8733 29.5041 15.8152 29.3732 15.8165 29.1842V26.2897C15.81 26.004 15.8733 25.9299 16.178 25.8701C16.3219 25.8328 16.3358 25.8285 16.3362 25.7769C16.3362 25.7656 16.3354 25.7522 16.3336 25.7366L16.3316 25.728C16.3257 25.7022 16.3227 25.689 16.3145 25.6817C16.3059 25.6741 16.2915 25.673 16.2621 25.6708L16.2552 25.6703C16.2296 25.6703 16.1958 25.6729 16.1524 25.6763C15.921 25.6972 15.7177 25.7045 15.5426 25.7045C15.3298 25.7045 15.1573 25.6941 15.0207 25.6829C14.9709 25.6755 14.934 25.6711 14.9072 25.6711H14.905C14.849 25.6758 14.8487 25.6773 14.8394 25.7239C14.8382 25.73 14.8369 25.7367 14.8352 25.7444C14.8317 25.7609 14.8304 25.7743 14.8304 25.7847C14.8309 25.8159 14.8387 25.8259 14.9319 25.864C15.2388 25.9633 15.2951 26.1432 15.2921 26.4223V29.4096C15.2955 29.713 15.0992 29.7603 14.9535 29.7698L14.9492 29.7705C14.8758 29.7822 14.8514 29.7861 14.8425 29.8C14.838 29.8069 14.8374 29.8163 14.8365 29.8303C14.8362 29.8352 14.8358 29.8408 14.8352 29.8469C14.8363 29.8596 14.837 29.8703 14.8376 29.8795C14.8391 29.9039 14.8399 29.9169 14.8467 29.9243C14.8543 29.9325 14.8695 29.9338 14.9018 29.9366L14.9132 29.9375C14.9241 29.9375 14.9366 29.9375 14.9505 29.9367C15.3285 29.9167 15.8586 29.9037 16.3826 29.9037C16.8399 29.9037 17.2967 29.9102 17.6478 29.9297C17.6559 29.93 17.6637 29.9303 17.6712 29.9306C17.6869 29.9313 17.7012 29.9319 17.7141 29.9319C17.7657 29.9319 17.7987 29.9271 17.8143 29.9206C17.8286 29.9129 17.8286 29.9124 17.83 29.9019L17.8303 29.8998C17.8303 29.6909 17.8832 29.3268 17.9434 29.1196C17.9478 29.0975 17.9508 29.081 17.9504 29.0711ZM21.7888 29.0845C21.7888 29.0941 21.7871 29.1062 21.7841 29.1201C21.7312 29.3398 21.6844 29.6649 21.6649 29.8977V29.8998C21.6644 29.9185 21.6623 29.9284 21.5548 29.9319C21.5442 29.9319 21.5328 29.9315 21.5206 29.9311C21.5108 29.9307 21.5003 29.9304 21.4893 29.9302C21.1443 29.9102 20.674 29.9037 20.2037 29.9037C19.6598 29.9037 19.1032 29.9172 18.7183 29.9367C18.7062 29.9375 18.6949 29.9375 18.6849 29.9375L18.682 29.9373C18.6467 29.9345 18.6287 29.9331 18.6188 29.9234C18.6084 29.9133 18.607 29.8941 18.604 29.8548V29.8548L18.6035 29.8469C18.6074 29.791 18.6082 29.7884 18.7227 29.7698C18.9667 29.7507 19.0672 29.6983 19.0607 29.4027V26.4227C19.0672 26.0205 19.0131 25.9572 18.6867 25.864C18.6074 25.8346 18.5922 25.8146 18.5918 25.7847C18.5918 25.7717 18.5952 25.7548 18.6022 25.7344C18.6044 25.7278 18.6062 25.7221 18.6078 25.7172L18.6078 25.7171C18.6127 25.7019 18.6152 25.6938 18.6207 25.6892C18.6268 25.684 18.6365 25.683 18.6571 25.6811L18.6611 25.6807C18.6894 25.6807 18.7339 25.6866 18.8008 25.6956L18.8008 25.6956L18.8008 25.6956L18.8028 25.6959C18.9524 25.7236 19.388 25.7297 19.8856 25.7297C20.4226 25.7297 21.019 25.7167 21.384 25.6898C21.407 25.6888 21.4283 25.6876 21.4476 25.6865C21.4778 25.6847 21.5033 25.6833 21.5231 25.6833C21.5703 25.6859 21.5704 25.6872 21.5708 25.6971V25.6972C21.5708 25.7024 21.5695 25.7102 21.5665 25.7206C21.5296 25.8913 21.5045 26.1488 21.5045 26.379C21.5045 26.405 21.5045 26.4305 21.5054 26.4557C21.5002 26.5233 21.495 26.5276 21.4356 26.532C21.3931 26.5307 21.3623 26.5246 21.3303 26.4591C21.2336 26.2095 21.1512 26.0361 20.8569 25.9828C20.6755 25.9559 20.0576 25.9559 19.7728 25.9559H19.7599C19.6849 25.9564 19.6416 25.9646 19.6125 25.9915C19.5852 26.0188 19.5848 26.0531 19.5844 26.0888L19.5843 26.092L19.5844 26.0969C19.5845 26.0985 19.5845 26.1 19.5846 26.1015C19.5847 26.1047 19.5848 26.1078 19.5848 26.1111V27.4621L19.5848 27.469C19.5851 27.5016 19.5854 27.5264 19.6064 27.5462C19.6285 27.5636 19.6524 27.5637 19.6888 27.5639L19.7001 27.564L19.7479 27.5629C19.9995 27.5571 20.3126 27.5498 20.5566 27.525C20.7122 27.5033 20.7512 27.3906 20.7958 27.1418C20.8119 27.0733 20.8331 27.0534 20.8738 27.0521C20.8864 27.0521 20.9016 27.0547 20.9189 27.0599C20.9844 27.0742 20.9974 27.0816 20.9987 27.1115C20.9987 27.1166 20.9977 27.1227 20.9967 27.1297L20.9961 27.1336C20.9532 27.3386 20.9319 27.7981 20.9319 28.0976C20.9319 28.1717 20.9332 28.2363 20.9358 28.2852L20.9357 28.2868C20.9323 28.3292 20.9318 28.3366 20.8491 28.3537C20.847 28.3537 20.8431 28.3542 20.8387 28.3542C20.7928 28.3529 20.7702 28.329 20.7629 28.2683C20.7208 27.9389 20.6671 27.8414 20.4707 27.8236C20.3351 27.8037 19.834 27.7907 19.6667 27.7907C19.642 27.7907 19.6221 27.7933 19.6051 27.8067C19.5887 27.8202 19.5843 27.8405 19.5848 27.86V29.2705C19.583 29.4456 19.6372 29.5587 19.7885 29.6129C19.9376 29.6679 20.1764 29.677 20.5613 29.6775C21.1746 29.6792 21.4559 29.4789 21.5895 29.0993C21.609 29.0468 21.6384 29.0165 21.6774 29.0169C21.6891 29.0169 21.7026 29.0195 21.7182 29.026C21.7832 29.0442 21.7871 29.0568 21.7888 29.0845ZM31.0313 29.0842C31.0313 29.0933 31.0295 29.1055 31.0265 29.1202C30.9732 29.3404 30.9268 29.6646 30.9069 29.8978V29.9C30.9069 29.9186 30.9043 29.9286 30.7972 29.9316C30.7856 29.9316 30.773 29.9313 30.7593 29.9309C30.7506 29.9307 30.7414 29.9305 30.7318 29.9303C30.3867 29.91 29.9164 29.9039 29.4457 29.9039C28.9022 29.9039 28.3456 29.9165 27.9612 29.9368L27.9573 29.937C27.9463 29.9373 27.9363 29.9377 27.9274 29.9377C27.8899 29.9348 27.8711 29.9335 27.861 29.9234C27.85 29.9126 27.8491 29.8915 27.8455 29.8471C27.8498 29.7912 27.8502 29.7877 27.9651 29.7695C28.2087 29.7504 28.3101 29.6989 28.3027 29.4028V26.4225C28.3092 26.0202 28.2551 25.9574 27.9291 25.8638C27.8498 25.8347 27.8346 25.8148 27.8338 25.7849C27.8338 25.7719 27.8377 25.7545 27.8446 25.7342C27.8538 25.7071 27.856 25.6949 27.8633 25.6889C27.8698 25.6835 27.8803 25.6829 27.9031 25.6808C27.9321 25.6808 27.9772 25.6869 28.0448 25.6964C28.1948 25.7238 28.6304 25.7298 29.128 25.7298C29.6646 25.7298 30.261 25.7164 30.6264 25.6899C30.6509 25.6889 30.6735 25.6875 30.6938 25.6862C30.7224 25.6845 30.7466 25.683 30.7656 25.683C30.8124 25.686 30.8124 25.6873 30.8124 25.6973C30.8124 25.7021 30.8115 25.7099 30.8085 25.7203C30.7716 25.8911 30.7469 26.1477 30.7469 26.3765C30.7469 26.4038 30.7469 26.4303 30.7478 26.4563C30.743 26.5235 30.7374 26.5278 30.6776 26.5321C30.6351 26.5304 30.6043 26.5243 30.5727 26.4593C30.4756 26.2096 30.3932 26.0363 30.0994 25.9825C29.9232 25.9569 29.3382 25.9561 29.0424 25.9557L29.0019 25.9556C28.9273 25.9561 28.8836 25.9647 28.8549 25.9912C28.8268 26.0194 28.8268 26.0553 28.8268 26.0922V26.1113V27.4623C28.8268 27.465 28.8269 27.4677 28.8269 27.4704C28.8276 27.5023 28.8281 27.5264 28.8489 27.5464C28.8703 27.5635 28.8938 27.5639 28.9298 27.5644C28.9339 27.5644 28.9381 27.5645 28.9425 27.5646C28.9689 27.5639 28.9961 27.5632 29.024 27.5625C29.2691 27.5561 29.5655 27.5485 29.7994 27.5247C29.9542 27.5026 29.9936 27.3903 30.0378 27.1415C30.0543 27.0735 30.0751 27.0531 30.1158 27.0518C30.1284 27.0518 30.1436 27.0549 30.1609 27.0601C30.2272 27.0739 30.2402 27.0817 30.2411 27.1116C30.2411 27.1177 30.2402 27.1246 30.2385 27.1329C30.1952 27.3388 30.1743 27.7969 30.1739 28.0964C30.1739 28.1714 30.1752 28.236 30.1782 28.2845L30.178 28.2871C30.1743 28.3287 30.1736 28.3373 30.0916 28.3539C30.0894 28.3543 30.0855 28.3543 30.0812 28.3543C30.0356 28.3526 30.0127 28.3292 30.0049 28.2681C29.9628 27.9391 29.9095 27.8416 29.7132 27.8238C29.5779 27.8038 29.076 27.7904 28.9096 27.7904C28.8844 27.7904 28.8645 27.7934 28.848 27.8064C28.8311 27.8199 28.8268 27.8407 28.8268 27.8598V29.2702C28.8246 29.4457 28.8792 29.5589 29.0305 29.613C29.1796 29.6681 29.4184 29.6768 29.8038 29.6772C30.4162 29.6794 30.6979 29.4787 30.8319 29.0994C30.851 29.047 30.8809 29.0171 30.9194 29.0175C30.9316 29.0175 30.9446 29.0197 30.9602 29.0262C31.0252 29.0444 31.0291 29.0565 31.0313 29.0842Z" fill="black"/>
<path d="M20.3117 14.832C20.0685 15.0062 19.8063 15.1767 19.5236 15.3428C16.3858 17.1874 15.8553 17.5482 15.8098 17.5791C15.8083 17.5801 15.8073 17.5807 15.8068 17.5811L15.8058 17.5801V6.4375L15.8078 6.43457L20.3117 14.832ZM15.8068 0.00292969C20.1761 0.00298526 23.343 1.0625 23.343 1.0625V8.47656C23.343 10.1279 23.0997 11.8344 21.8771 13.3701L15.8078 1.87109L15.8058 1.87402V0.00292969H15.8068Z" fill="#B20837"/>
<path d="M15.8058 17.5801H15.8049C15.7731 17.5582 15.2739 17.2144 12.09 15.3428C11.8079 15.177 11.5458 15.0068 11.3029 14.833L15.8058 6.4375V17.5801ZM15.8058 1.87402L9.73749 13.3711C8.51382 11.8351 8.26972 10.1284 8.26971 8.47656V1.06445C8.31331 1.04991 11.4671 0.00303147 15.8058 0.00292969V1.87402Z" fill="#FDB813"/>
</svg>
