<svg width="81" height="30" viewBox="0 0 81 30" fill="none" xmlns="http://www.w3.org/2000/svg">
<path fill-rule="evenodd" clip-rule="evenodd" d="M69.7295 0.311796C70.641 0.60477 71.7166 1.1778 72.0295 2.18505C72.376 3.46052 72.005 4.82343 71.0599 5.74728C70.6859 6.0841 70.2595 6.35798 69.7976 6.5576V6.62835C70.6308 6.94634 71.638 7.59013 71.8048 8.56483C71.931 9.13006 71.9116 9.74887 71.8923 10.3646C71.8552 11.5475 71.8185 12.719 72.8148 13.4779C72.8148 13.5908 72.7233 13.6823 72.6103 13.6823C72.4029 13.6546 72.1784 13.6685 71.9538 13.6824C71.5032 13.7103 71.0521 13.7382 70.7371 13.43C70.2294 12.5991 70.2066 11.5679 70.1839 10.5366C70.159 9.4085 70.1342 8.28021 69.4748 7.41365C69.1146 6.94874 68.5638 6.88388 68.0143 6.81917C67.8626 6.80131 67.711 6.78346 67.5636 6.75722C67.4683 6.69292 67.4229 6.57616 67.4501 6.46424C67.6338 6.40727 67.8337 6.38585 68.0338 6.3644C68.3478 6.33074 68.6625 6.29701 68.9168 6.1258C69.5227 5.78736 70.1134 5.16402 70.1791 4.45701C70.4013 3.20737 70.217 1.85657 69.1691 1.05378C68.5835 0.60181 67.8108 0.51868 67.0282 0.60181L66.8692 0.758386L66.8237 13.4574C66.7581 13.5486 66.6639 13.6151 66.5561 13.6468H65.1447C65.0156 13.5561 64.9333 13.4127 64.9201 13.2556L64.9403 0.29404C64.9814 0.183469 65.0638 0.0928058 65.17 0.0416901C65.635 0.0595269 66.1178 0.0426382 66.6021 0.0257005C67.6954 -0.012543 68.7958 -0.0510367 69.7145 0.309375L69.7295 0.311796ZM39.5897 13.2634V0.405151C39.5897 0.119979 39.842 0.097112 40.0946 0.0769347C40.7234 0.0365802 41.6978 0.016403 42.1422 0.016403C45.5304 0.016403 48.7343 2.1673 48.7343 6.83308C48.7343 10.2514 46.2802 13.6498 42.4858 13.6498H39.8525C39.7516 13.6498 39.6002 13.5489 39.6002 13.261L39.5897 13.2634ZM42.3997 13.0969C45.2398 13.0969 46.8607 10.4763 46.8607 6.83066C46.8607 2.14228 44.793 0.627639 42.7631 0.627639C41.7532 0.627639 41.5665 0.751393 41.5665 1.09979V12.5266C41.5665 12.9758 41.708 13.0996 42.3997 13.0996V13.0972V13.0969ZM56.788 13.6347C60.4059 13.6347 63.3445 10.6051 63.3445 6.81802L63.3518 6.83066C63.3518 3.07635 60.4053 0.0468002 56.7877 0.0468002C53.1701 0.0468002 50.2239 3.06101 50.2239 6.83308C50.2239 10.6051 53.1701 13.6347 56.788 13.6347ZM56.7955 13.1424C53.978 13.1424 52.2309 10.6606 52.2309 6.83066C52.2309 2.99322 53.9578 0.518948 56.7955 0.518948C59.6332 0.518948 61.3803 3.01339 61.3803 6.83066C61.3803 10.6479 59.6131 13.1424 56.7955 13.1424ZM32.7757 23.097C32.7757 26.9245 29.7588 30.0019 26.055 30.0019C24.5963 30.0044 23.1772 29.5282 22.0155 28.6463C20.8644 29.526 19.4555 30.0025 18.0065 30.0019C14.3027 30.0019 11.2858 26.9242 11.2858 23.097C11.2858 19.2698 14.3129 16.2147 18.0167 16.2147C19.4657 16.2142 20.8746 16.6906 22.0258 17.5703C23.1877 16.6885 24.6066 16.2123 26.0652 16.2147C29.769 16.2147 32.7859 19.2924 32.7859 23.097H32.7757ZM21.3075 18.2128C18.6099 20.9749 18.6624 25.4009 21.4244 28.0984C20.5783 29.0217 19.3768 29.5371 18.1248 29.5147C15.1712 29.5147 13.328 26.985 13.328 23.097C13.328 19.209 15.1685 16.6995 18.1248 16.6995C19.3723 16.679 20.5706 17.1862 21.4245 18.0958C21.3849 18.1342 21.3459 18.1732 21.3075 18.2128ZM21.0333 23.097C21.0333 24.7785 21.3766 26.1949 22.0255 27.2678C22.6744 26.1949 23.0354 24.7785 23.0354 23.097C23.0354 21.4156 22.672 20.0193 22.0255 18.9263C21.3766 20.0193 21.0333 21.4358 21.0333 23.097ZM30.7305 23.097C30.7305 19.209 28.9075 16.6995 25.9337 16.6995C24.6913 16.6785 23.4982 17.1859 22.6515 18.0958C25.4137 20.8313 25.4355 25.2877 22.7 28.0501L22.6839 28.0663L22.6644 28.0858L22.6515 28.0986C23.4901 29.0219 24.6865 29.5381 25.9337 29.515C28.9102 29.515 30.7305 26.9904 30.7305 23.0973V23.097ZM79.3384 16.5278V26.4171H79.3381V26.4322C79.3381 26.4954 79.3179 26.5358 79.2776 26.5358C79.2283 26.5196 79.1898 26.4811 79.174 26.4322L73.4835 17.2349C73.0137 16.5028 72.7084 16.3387 72.3624 16.3387H71.282C70.8755 16.3387 70.7316 16.3589 70.7316 16.48C70.7316 16.5203 70.7625 16.5714 70.7934 16.6225C70.8244 16.6737 70.8553 16.7248 70.8553 16.7651V29.6409C70.8553 29.7647 70.8755 29.8655 70.9791 29.8655H71.3654C71.469 29.8655 71.4892 29.762 71.4892 29.6409V17.9768C71.5497 17.8733 71.6533 17.9768 71.6936 18.0172L78.8915 29.6584C78.938 29.7768 79.0497 29.8567 79.1767 29.8629H79.7473C79.7734 29.8685 79.8003 29.8685 79.8264 29.8629C79.9286 29.8411 79.9937 29.7404 79.9719 29.6382V16.5276C79.9738 16.5149 79.9746 16.5023 79.9738 16.4896C79.9684 16.3923 79.885 16.3177 79.7876 16.3231H79.5025C79.4871 16.3228 79.4718 16.3245 79.457 16.3282C79.369 16.3508 79.316 16.4401 79.3384 16.5278ZM57.1234 29.472V16.6266H57.1183V16.6112C57.1143 16.4579 56.9865 16.3371 56.8331 16.3414H55.4067C55.2485 16.3519 55.1121 16.4566 55.0608 16.6064L51.7584 25.6194C51.7509 25.6397 51.7435 25.6604 51.7362 25.681L51.7223 25.7204C51.6566 25.9078 51.5931 26.0889 51.4732 26.0889C51.3478 26.0889 51.2681 25.8808 51.1954 25.6911L51.1852 25.6645L51.1755 25.6396L51.1676 25.6194L47.6608 16.5052C47.6 16.4054 47.4924 16.3438 47.3756 16.3411H45.7243C45.6006 16.3411 45.5199 16.3842 45.5199 16.4649C45.5199 16.5611 45.5658 16.6177 45.6091 16.6711C45.6476 16.7185 45.684 16.7633 45.684 16.831V29.5755C45.684 29.8203 45.7042 29.8809 45.8683 29.8809H46.1739C46.3178 29.8809 46.338 29.8002 46.338 29.5755V18.7699C46.338 18.626 46.3582 18.6058 46.3985 18.6058C46.451 18.6214 46.4948 18.6578 46.5196 18.7067L50.6777 29.4289C50.6827 29.4414 50.6881 29.4556 50.6938 29.4707C50.7343 29.5776 50.7938 29.7345 50.8822 29.7345C50.9704 29.7345 51.0299 29.5779 51.0704 29.4711L51.0777 29.4518C51.0808 29.4437 51.0838 29.4361 51.0866 29.4289L54.8383 19.358C54.8428 19.2725 54.9004 19.199 54.9822 19.1738C54.9949 19.1729 55.0078 19.1735 55.0204 19.1759C55.1054 19.1915 55.1619 19.273 55.1463 19.358V29.4894L55.1458 29.496C55.1454 29.5021 55.145 29.508 55.145 29.5139C55.1401 29.7106 55.2959 29.8736 55.4923 29.8785H56.7976C57.0198 29.8785 57.1234 29.7243 57.1234 29.472ZM34.621 16.6086V29.4668L34.6315 29.4644C34.6315 29.7523 34.783 29.8532 34.8839 29.8532H37.5195C41.3115 29.8532 43.7656 26.4548 43.7656 23.0365C43.7656 18.371 40.5617 16.2198 37.1736 16.2198C36.7291 16.2198 35.7547 16.24 35.126 16.2803C34.8734 16.3005 34.621 16.3234 34.621 16.6086ZM41.8948 23.0341C41.8948 26.6797 40.2712 29.3003 37.431 29.3003L37.4313 29.3V29.2976C36.7421 29.2976 36.6005 29.1739 36.6005 28.7246V17.3005C36.6005 16.9548 36.7872 16.831 37.7972 16.831C39.827 16.831 41.8948 18.3457 41.8948 23.0341ZM34.7601 0.662615C31.4351 0.662615 29.9961 3.27812 29.9961 6.68404C29.9961 10.9608 32.4905 12.9479 34.1921 12.9479C34.8007 12.9479 34.9621 12.847 34.9621 12.6019V6.7244C34.9621 6.60839 34.9088 6.5424 34.8634 6.48621C34.8297 6.44454 34.8004 6.40825 34.8004 6.36094C34.8004 6.32058 34.8408 6.28023 35.0024 6.28023H36.2647C36.5704 6.28023 36.7519 6.38112 36.7697 6.66656V13.0087C36.7697 13.352 36.7697 13.4959 36.5878 13.5136C36.2446 13.554 35.636 13.5742 35.371 13.5742C30.2207 13.5742 27.9915 10.0397 27.9915 6.70207C27.9915 3.70023 30.3243 0.0925406 34.5809 0.0925406C36.2446 0.0925406 36.7495 0.478868 36.7495 0.741441C36.7495 0.903128 36.4972 1.04706 36.2825 1.04706C36.051 1.04706 35.8614 0.96586 35.6561 0.877914C35.4136 0.77403 35.1492 0.660732 34.7676 0.660732L34.7601 0.663153V0.662615ZM2.26482 23.0263C2.26482 19.6255 3.79479 16.8711 7.12485 16.8711H7.13211C7.50188 16.8711 7.76108 16.9823 8.00039 17.085C8.20559 17.173 8.39615 17.2548 8.62926 17.2548C8.87408 17.2548 9.0963 17.1135 9.0963 16.9518C9.0963 16.6893 8.59133 16.3029 6.92254 16.3029C2.67106 16.3029 0.26001 20.0497 0.26001 23.0464C0.26001 26.6921 2.68881 29.911 8.2128 29.9086C8.47538 29.9086 9.08392 29.8884 9.4272 29.8481C9.60907 29.8279 9.60907 29.6864 9.60907 29.3431V23.0061C9.59131 22.7233 9.40945 22.6225 9.1041 22.6225H7.84181C7.68012 22.6225 7.63977 22.6628 7.63977 22.7032C7.63977 22.7505 7.66908 22.7868 7.70275 22.8284C7.74815 22.8846 7.80146 22.9506 7.80146 23.0666V28.9441C7.80146 29.1865 7.64999 29.2874 7.04414 29.2874C4.97879 29.2874 2.26482 27.4394 2.26482 23.0263ZM16.8955 0.266326C16.8385 0.133156 16.701 0.0532543 16.5571 0.0693961H16.5501L11.3693 0.0441073C11.2946 0.0626704 11.2308 0.111096 11.1926 0.177815L11.1748 6.01738C11.0581 6.25718 10.8121 6.26112 10.5641 6.2651C10.4047 6.26766 10.2445 6.27023 10.117 6.33537C10.1347 6.66721 10.3758 6.66717 10.6292 6.66713C10.8462 6.6671 11.0723 6.66706 11.1748 6.87559V13.4146C11.227 13.4972 11.3053 13.5602 11.3971 13.5938H16.7343L16.9867 13.5483C17.1521 13.4371 17.1381 13.2174 17.1242 12.9988V12.9988V12.9988V12.9988V12.9988C17.1173 12.8903 17.1104 12.782 17.1255 12.6874L17.0548 12.6242C16.8637 12.8144 16.6232 12.9473 16.3604 13.0079C15.6021 13.1318 14.7676 13.1088 13.9588 13.0865C13.7281 13.0802 13.4994 13.0739 13.2752 13.0711C13.1581 13.0202 13.0669 12.9234 13.0228 12.8034V6.83765L13.111 6.72412L15.9286 6.69883C15.9832 6.59121 15.9286 6.49691 15.8751 6.40429C15.8544 6.36865 15.834 6.33325 15.8199 6.29744H13.27C13.2448 6.2849 13.2137 6.28154 13.1825 6.27818C13.12 6.27144 13.0572 6.26466 13.0403 6.18391L13.0201 0.882136C13.064 0.765915 13.156 0.673906 13.2725 0.629786C14.4826 0.428551 15.7185 0.443886 16.9232 0.675252C16.9493 0.538853 16.9396 0.398151 16.8955 0.266326ZM25.0022 0.879984C25.9282 1.61928 26.3836 2.80059 26.1937 3.97006C26.0347 5.1164 24.8607 5.96465 23.8938 6.42415V6.54037C24.8179 7.03028 25.8251 7.93664 25.8832 9.03724C25.9508 9.49806 25.9502 9.98688 25.9496 10.4747C25.9481 11.5907 25.9467 12.7015 26.7619 13.4604C26.7619 13.4708 26.7626 13.4823 26.7633 13.4943C26.7669 13.5552 26.7713 13.629 26.6911 13.6395C26.4875 13.605 26.2512 13.6181 26.0131 13.6312C25.4157 13.6642 24.8067 13.6979 24.6713 12.9831C24.2572 12.1169 24.2584 11.0767 24.2596 10.0369C24.2606 9.21896 24.2615 8.40123 24.0603 7.66869C23.8768 7.17663 23.4805 6.79407 22.9823 6.62862C22.8242 6.57669 22.6424 6.58094 22.4606 6.58519C22.2186 6.59086 21.9766 6.59652 21.7908 6.46962C21.7515 6.3916 21.7359 6.3039 21.7453 6.21727L21.8335 6.15405C22.7146 6.16669 23.5174 5.87372 24.0199 5.14411C24.5803 4.21999 24.7773 2.90228 24.2952 1.88212C23.7095 0.740895 22.5279 0.460835 21.3186 0.569254C21.2508 0.596426 21.1946 0.646466 21.1596 0.710495V13.4324L21.0006 13.5914H19.6676C19.5734 13.5553 19.5008 13.4781 19.4706 13.3818V0.311793C19.543 0.176201 19.6748 0.082579 19.8266 0.0594424C20.0372 0.0594424 20.2486 0.0575915 20.46 0.0557409C22.0948 0.0414259 23.7272 0.0271326 25.0148 0.869761L25.0022 0.879984ZM7.0493 6.98455C7.87979 7.60305 8.54887 8.44377 8.51605 9.48895H8.52412C8.56932 10.7841 8.07726 12.0012 6.94357 12.7332C5.48005 13.6352 3.597 13.5958 1.78928 13.558C1.62911 13.5546 1.46953 13.5513 1.31089 13.5486C1.20193 13.5349 1.0997 13.4883 1.01792 13.4149V0.253688C1.0554 0.0896588 1.21203 0.0741176 1.36064 0.0593731C1.4019 0.0552791 1.44254 0.0512465 1.47984 0.0441136C1.68814 0.0425122 1.89929 0.0387269 2.11185 0.0349161L2.11185 0.0349161C4.22046 -0.00288686 6.46908 -0.0431998 7.47598 2.02095C8.01108 2.92489 7.77622 4.23264 7.18301 5.02789C6.80529 5.52183 6.30731 5.91031 5.73643 6.15648C5.7257 6.17038 5.71004 6.18445 5.69379 6.19906C5.64529 6.24265 5.59156 6.29093 5.64819 6.3534C5.84024 6.45472 6.04066 6.5291 6.24061 6.6033C6.51905 6.70664 6.79657 6.80964 7.0493 6.98455ZM2.95413 13.006C4.17095 13.0689 5.46364 13.0566 6.15289 11.9229H6.15262L6.14509 11.928C6.91021 10.6985 6.94787 8.81745 6.19056 7.57534C5.84431 7.04051 5.26832 6.69776 4.63287 6.6488C4.49738 6.60386 4.32682 6.61764 4.15643 6.63142C3.84741 6.65639 3.53897 6.68132 3.44134 6.35583C3.49353 6.30229 3.55406 6.25709 3.62051 6.22212C4.47334 6.28803 5.29092 5.86942 5.73616 5.139C6.40013 4.11131 6.54406 2.45516 5.78674 1.42262C5.19595 0.607193 4.22637 0.516261 3.2393 0.561727C3.18936 0.571103 3.13526 0.575844 3.08051 0.580642C2.91376 0.595257 2.74095 0.610402 2.66115 0.758657V12.8268C2.73594 12.9177 2.83898 12.981 2.95413 13.006ZM69.0529 29.472L65.1799 17.9949L64.771 16.6895C64.7449 16.6516 64.7264 16.6067 64.7079 16.5616L64.7079 16.5616C64.6673 16.4627 64.6263 16.363 64.5033 16.3336H63.082C62.9607 16.4017 62.8703 16.5136 62.8297 16.6468L61.0019 23.0265L60.848 23.2057L59.6514 23.2563C59.5752 23.2913 59.5421 23.3811 59.5771 23.4573C59.5809 23.4656 59.5854 23.4734 59.5908 23.4809C59.7215 23.727 60.0009 23.7055 60.2827 23.6837C60.4256 23.6727 60.5691 23.6616 60.6941 23.6854L60.7649 23.7333C60.1978 25.7397 59.6331 27.7467 59.0708 29.7547L59.1593 29.8429L59.1627 29.8434C59.3342 29.8687 59.5815 29.9052 59.682 29.7547L61.3255 23.9859L61.4391 23.7335L64.9308 23.7083L65.11 23.8925L67.1299 29.6614L67.3343 29.8809H68.9173C69.087 29.8569 69.0757 29.6519 69.0676 29.5058L69.0663 29.4819L69.0529 29.472ZM61.6352 23.2006H64.594V23.1984C64.8036 23.2361 64.753 22.9735 64.7277 22.86L63.5362 19.2346L63.1019 18.1969C63.0461 18.1748 63.034 18.1998 63.0196 18.2296C63.0092 18.2509 62.9977 18.2746 62.9682 18.2852L61.6352 22.976V23.2006ZM80.174 6.9111C80.174 6.62351 79.9897 6.29771 79.8458 6.29771L79.8456 6.29825H76.912V1.01907C76.912 0.774258 77.1367 0.650504 78.2198 0.650504C79.77 0.650504 80.4845 0.731213 80.8732 0.955853C80.9348 0.949127 80.98 0.893976 80.9741 0.832099C80.947 0.645392 80.8853 0.46568 80.7923 0.301841C80.7449 0.175397 80.622 0.0930737 80.4869 0.0973781H75.4375C75.1093 0.0973781 75.0487 0.180508 75.0487 0.506304V6.24713C74.4983 6.26731 74.0894 6.28749 74.0894 6.41124C74.1063 6.53419 74.1731 6.64449 74.2737 6.71686C74.5268 6.78654 74.7886 6.82044 75.0512 6.81775V13.3011C75.0509 13.3183 75.052 13.3353 75.0541 13.3522C75.0791 13.5403 75.2519 13.6721 75.4399 13.6471H76.5206C76.5376 13.6492 76.5548 13.65 76.5717 13.65C76.7611 13.6468 76.9123 13.4908 76.9094 13.3011V6.85057C77.2609 6.85057 77.6496 6.84436 77.9959 6.83884C78.2741 6.83439 78.5249 6.83039 78.707 6.83039C78.9938 6.82394 79.2806 6.83739 79.5655 6.87075C79.6765 6.89113 79.7733 6.93278 79.8575 6.96901C79.9401 7.00453 80.0105 7.03485 80.0705 7.03485C80.131 7.03485 80.174 7.01199 80.174 6.9111Z" fill="black"/>
</svg>
