<svg width="177" height="20" viewBox="0 0 177 20" fill="none" xmlns="http://www.w3.org/2000/svg">
<path fill-rule="evenodd" clip-rule="evenodd" d="M15.413 6.48871C15.0771 4.21481 12.7773 2.56106 9.93492 2.56106C6.13649 2.56106 3.42331 5.17088 3.39748 10.0029C3.39748 14.8349 6.13649 17.419 9.93492 17.419C12.829 17.419 15.1545 15.7651 15.4647 13.4913H18.3845C17.971 17.3155 14.4827 20.0029 9.96077 20.0029C4.94786 20.0029 0.425903 16.6955 0.425903 10.0029C0.425903 3.28457 4.99953 0.00292969 9.96077 0.00292969C14.4052 0.00292969 17.9194 2.69026 18.462 6.48871H15.413ZM20.5275 0.23506H23.2405V19.7699H20.5275V0.23506ZM32.5151 5.48076C28.3031 5.48076 25.2542 8.52984 25.2542 12.7417C25.2542 16.9536 28.3031 20.0027 32.5151 20.0027C36.727 20.0027 39.7502 16.9536 39.7502 12.7417C39.7502 8.52984 36.727 5.48076 32.5151 5.48076ZM32.5151 17.5995C29.8278 17.5995 28.019 15.5841 28.019 12.7159C28.019 9.84767 29.8278 7.83217 32.5151 7.83217C35.1507 7.83217 36.9853 9.84767 36.9853 12.7159C36.9853 15.6099 35.1766 17.5995 32.5151 17.5995ZM48.0226 17.5998C49.7282 17.5998 51.6144 16.4629 51.6144 13.4396V5.68771H54.4052V13.3621C54.4052 17.8324 51.4077 19.9771 48.0226 19.9771C44.6894 19.9771 41.6662 17.8324 41.6662 13.3621V5.68771H44.4568V13.4396C44.4568 16.4629 46.3431 17.5998 48.0226 17.5998ZM63.0376 5.45469C64.9557 5.45469 66.6459 6.36591 67.4821 7.71237V0.23506H70.1953V19.744H67.5078V17.651C66.6552 19.0464 64.9239 19.9766 63.0635 19.9766C58.7482 19.9766 56.3193 16.9017 56.3193 12.7157C56.3193 8.52961 58.7482 5.45469 63.0376 5.45469ZM63.3735 17.5994C60.7896 17.5994 59.0841 15.6356 59.0841 12.7157C59.0841 9.79577 60.7896 7.83195 63.3735 7.83195C66.2417 7.83195 67.6888 10.1317 67.6888 12.7157C67.6888 15.3254 66.2417 17.5994 63.3735 17.5994ZM84.996 0.23506H88.6653L81.2493 8.03866L89.4663 19.7699H85.9264L79.2596 10.1317L76.4431 13.1291V19.7699H73.5232V0.23506H76.4431V9.20144L84.996 0.23506ZM93.6837 0.23506H90.6605V3.25831H93.6837V0.23506ZM90.8462 5.68771H93.5594V19.7445H90.8462V5.68771ZM101.128 1.29454H98.4411V5.68729H95.5729V8.03872H98.4411V15.1446C98.4411 18.0128 100.25 19.7442 103.092 19.7442H105.289V17.3927H103.299C101.929 17.3927 101.128 16.5658 101.128 15.0413V8.03872H105.289V5.68729H101.128V1.29454ZM116.906 10.6229C116.648 9.02079 115.02 7.85801 113.134 7.85801C110.317 7.85801 108.922 10.0285 108.922 12.7417C108.922 15.4549 110.343 17.6254 113.134 17.6254C115.072 17.6254 116.493 16.6436 116.932 15.0415H119.62C119.155 17.9871 116.648 20.0027 113.082 20.0027C108.638 20.0027 106.105 16.6177 106.105 12.7417C106.105 8.86577 108.638 5.48076 113.082 5.48076C116.39 5.48076 119.232 7.44458 119.62 10.6229H116.906ZM128.614 5.48052C126.521 5.48052 124.841 6.43659 124.092 8.1937V0.23506H121.379V19.7699H124.092V12.1472C124.092 9.69241 125.642 7.90945 127.865 7.90945C129.854 7.90945 131.146 9.40817 131.146 11.6562V19.7699H133.859V11.1136C133.859 7.75442 131.792 5.48052 128.614 5.48052ZM138.543 13.2068C138.749 15.8684 140.481 17.6771 142.935 17.6771C145.003 17.6771 146.346 16.7727 146.708 15.1965H149.421C148.93 18.0905 146.398 20.0027 142.935 20.0027C138.594 20.0027 135.881 16.566 135.881 12.6642C135.881 8.71073 138.336 5.48076 142.651 5.48076C146.992 5.48076 149.318 8.58152 149.318 12.1474C149.318 12.5092 149.292 12.9484 149.267 13.2068H138.543ZM146.579 11.2172C146.424 9.07248 144.977 7.6513 142.651 7.6513C140.455 7.6513 139.034 8.86577 138.594 11.2172H146.579ZM157.811 5.48076C154.425 5.48076 151.428 7.62545 151.428 12.0957V19.7701H154.219V12.0182C154.219 8.99496 156.105 7.85801 157.811 7.85801C159.489 7.85801 161.376 8.99496 161.376 12.0182V19.7701H164.167V12.0957C164.167 7.62545 161.143 5.48076 157.811 5.48076ZM171.329 7.62546C169.882 7.62546 168.9 8.34897 168.9 9.43423C168.9 10.9153 170.344 11.1247 172.006 11.3658C174.259 11.6926 176.911 12.0774 176.911 15.7649C176.911 18.349 174.818 19.9768 171.64 19.9768C168.359 19.9768 166.162 18.1164 165.955 15.1706H168.487C168.668 16.7727 169.831 17.7029 171.64 17.7029C173.268 17.7029 174.301 16.8503 174.301 15.8166C174.301 14.1624 172.745 13.9084 171.006 13.6248C168.807 13.266 166.317 12.8598 166.317 9.51175C166.317 7.08282 168.384 5.45492 171.304 5.45492C174.482 5.45492 176.679 7.21202 176.807 9.87352H174.275C174.094 8.27145 172.544 7.62546 171.329 7.62546Z" fill="black"/>
</svg>
