<svg width="103" height="30" viewBox="0 0 103 30" fill="none" xmlns="http://www.w3.org/2000/svg">
<path fill-rule="evenodd" clip-rule="evenodd" d="M10.3569 0.6298C11.2623 0.22589 12.2645 0.000976562 13.3143 0.000976562C14.3771 0.000976562 15.3907 0.232618 16.3085 0.647585C17.1106 1.01121 17.834 1.51862 18.4477 2.13262C18.8099 2.07456 19.1806 2.04332 19.558 2.04116C19.5718 2.04047 19.586 2.03989 19.5999 2.03989C19.7156 2.03989 19.8313 2.04317 19.9467 2.04878C19.9528 2.04907 19.9588 2.04922 19.9648 2.04937C19.9715 2.04953 19.9782 2.0497 19.9849 2.05005C19.9855 2.05008 19.9861 2.05009 19.9868 2.05009L19.9887 2.05005C19.9899 2.05001 19.9912 2.04998 19.9925 2.05005C19.9959 2.05024 19.9993 2.05078 20.0027 2.05132C20.0061 2.05186 20.0094 2.0524 20.0128 2.05259C20.0158 2.05276 20.0188 2.05295 20.0218 2.05314C20.0255 2.05338 20.0293 2.05363 20.0331 2.05386C20.1094 2.05848 20.1857 2.06339 20.2618 2.07038C20.2958 2.07348 20.33 2.07714 20.3639 2.08077L20.3639 2.08078L20.3736 2.08181C20.4681 2.09193 20.5629 2.10372 20.6569 2.11738C20.6632 2.11831 20.6695 2.11919 20.6759 2.12007L20.6759 2.12007C20.6844 2.12125 20.6929 2.12244 20.7013 2.12373C20.8197 2.14159 20.9363 2.16251 21.052 2.18598C21.0541 2.18641 21.0562 2.18682 21.0583 2.18725C21.2732 2.23104 21.4839 2.28399 21.6884 2.34477C21.703 2.3491 21.717 2.35442 21.7309 2.35973L21.731 2.35974L21.7378 2.36233L21.7418 2.36383C21.7608 2.36971 21.7796 2.37589 21.7985 2.38208L21.7986 2.38213L21.8078 2.38515C21.8146 2.38737 21.8214 2.38958 21.8282 2.39177C21.8693 2.40511 21.9102 2.41927 21.951 2.43341L21.9628 2.43751C22.0439 2.46546 22.1244 2.49446 22.2042 2.52516C22.228 2.53435 22.2516 2.54383 22.2753 2.55333L22.2906 2.55946C22.3087 2.5667 22.327 2.57358 22.3452 2.58046C22.3708 2.59007 22.3963 2.59968 22.4214 2.61028C22.4541 2.62404 22.4863 2.6391 22.5185 2.65414L22.5186 2.65415C22.5382 2.66334 22.5579 2.67253 22.5777 2.68141C22.5795 2.68224 22.5813 2.68302 22.5832 2.68378C22.5859 2.68489 22.5886 2.68594 22.5913 2.687L22.5914 2.68701C22.5962 2.68886 22.6009 2.69072 22.6056 2.69285C23.4319 3.06858 24.177 3.59432 24.802 4.23632C25.0518 4.49324 25.0923 4.87279 24.9291 5.17003C24.8608 5.31767 24.8074 5.47674 24.769 5.6426C24.7313 5.80911 24.7106 5.98997 24.7106 6.1825C24.7106 6.70413 24.8737 7.18644 25.1514 7.57734C25.4376 7.9806 25.8447 8.29122 26.3188 8.45642C26.6564 8.57415 26.8653 8.89315 26.8564 9.22992L26.8589 9.29089C26.8589 10.7539 26.4235 12.1167 25.6737 13.2582C25.673 13.2593 25.6724 13.2603 25.6718 13.2614C25.6711 13.2624 25.6705 13.2635 25.6698 13.2646C25.667 13.2688 25.6643 13.2731 25.6615 13.2774C25.6579 13.2829 25.6544 13.2884 25.6508 13.2938C25.6244 13.3335 25.597 13.373 25.5698 13.4122L25.5696 13.4125L25.5682 13.4145L25.5621 13.4232C25.5394 13.4559 25.5165 13.4889 25.4933 13.5212C25.4483 13.5835 25.4017 13.6445 25.3548 13.7054C25.3382 13.7269 25.3213 13.748 25.3043 13.7692L25.3042 13.7693L25.2961 13.7794L25.2855 13.7926L25.2811 13.7981C25.2468 13.8412 25.2122 13.8842 25.1769 13.9264C25.1718 13.9325 25.1669 13.9388 25.162 13.945C25.1565 13.952 25.1509 13.959 25.1452 13.9658C25.1005 14.0186 25.0554 14.0706 25.0093 14.1221C24.9696 14.1663 24.9293 14.2097 24.8886 14.2529L24.8873 14.2542C24.8458 14.2983 24.8041 14.3421 24.7615 14.385C24.7392 14.4076 24.7166 14.4294 24.6939 14.4512C24.6834 14.4613 24.6729 14.4714 24.6624 14.4816L24.651 14.493C24.648 14.496 24.645 14.4989 24.6421 14.5019C24.6404 14.5037 24.6387 14.5054 24.637 14.5071L24.6359 14.5082L24.6332 14.5108L24.623 14.5222C24.6168 14.5282 24.6104 14.5338 24.6039 14.5394C24.5979 14.5446 24.592 14.5498 24.5862 14.5553C24.5581 14.5818 24.5296 14.6079 24.5011 14.634L24.4926 14.6418C24.4526 14.6784 24.4124 14.7152 24.3715 14.7509C24.3712 14.7511 24.3709 14.7513 24.3706 14.7515C24.3703 14.7518 24.3699 14.752 24.3696 14.7522C24.3689 14.7526 24.3683 14.753 24.3677 14.7534L24.3664 14.7547C24.365 14.7559 24.3636 14.7571 24.3622 14.7582L24.3604 14.7597L24.3587 14.7611C24.3565 14.7631 24.3546 14.7655 24.3524 14.7675C24.2968 14.8157 24.2404 14.8633 24.1834 14.9098C24.1519 14.9355 24.1201 14.9608 24.0881 14.986C24.0415 15.0228 23.9941 15.0582 23.9465 15.0938L23.9446 15.0952C23.9335 15.1036 23.9227 15.1124 23.9116 15.1207C23.8768 15.1464 23.8416 15.1714 23.8063 15.1964L23.7985 15.202C23.7493 15.2369 23.7 15.2711 23.6499 15.3048C23.6137 15.3292 23.5773 15.3535 23.5406 15.3773L23.531 15.3835L23.517 15.3926C23.5117 15.3959 23.5065 15.3993 23.5012 15.4027L23.4981 15.4047L23.4919 15.4087L23.4873 15.4116C23.4831 15.4142 23.4787 15.4165 23.4746 15.4192C23.4695 15.4224 23.4646 15.4257 23.4597 15.4291L23.4596 15.4291L23.4596 15.4292C23.4545 15.4327 23.4493 15.4362 23.4441 15.4395C23.4248 15.4516 23.4053 15.4631 23.3857 15.4747L23.3683 15.485C23.3618 15.4889 23.3553 15.4928 23.3488 15.4967C23.3364 15.5041 23.3241 15.5116 23.3117 15.5191C23.2748 15.5416 23.2377 15.5641 23.2002 15.5856C23.1745 15.6003 23.1485 15.6144 23.1224 15.6286C23.1106 15.635 23.0989 15.6414 23.0871 15.6478C23.0836 15.6498 23.0801 15.6517 23.0766 15.6536L23.0678 15.6586L23.0544 15.666L23.0452 15.6711L23.0388 15.6745L23.0372 15.6754C23.0133 15.6883 22.9893 15.7013 22.9652 15.7139L22.9624 15.7153L22.959 15.717L22.9562 15.7184L22.9536 15.7197C22.9523 15.7203 22.9511 15.7209 22.9499 15.7215C22.8332 15.7824 22.7145 15.8397 22.5942 15.8943C22.5918 15.8954 22.5894 15.8965 22.587 15.8977C22.5834 15.8994 22.5799 15.9012 22.5763 15.903L22.576 15.9031C22.5724 15.9049 22.5687 15.9067 22.565 15.9085C22.5625 15.9097 22.5599 15.9109 22.5574 15.9121C22.5383 15.9206 22.5194 15.9291 22.5002 15.9375C22.4951 15.9397 22.4899 15.9419 22.4847 15.9441C22.4785 15.9467 22.4723 15.9492 22.4661 15.9517L22.4553 15.9562C22.4499 15.9584 22.4446 15.9606 22.4392 15.9629L22.438 15.9634L22.4362 15.9641C22.4351 15.9645 22.434 15.9649 22.4329 15.9654C22.4294 15.9669 22.4259 15.9684 22.4225 15.9699L22.414 15.9737L22.4139 15.9737C22.4067 15.977 22.3995 15.9802 22.3922 15.9832C22.3368 16.0063 22.2806 16.0287 22.2245 16.0505C22.1685 16.0723 22.1122 16.0936 22.0556 16.1141C22.0285 16.1238 22.0011 16.1328 21.9737 16.1418L21.9736 16.1419C21.9581 16.1469 21.9427 16.152 21.9273 16.1572L21.912 16.1623C21.9092 16.1633 21.9065 16.1644 21.9038 16.1655C21.9028 16.1659 21.9018 16.1663 21.9008 16.1667C21.8997 16.1672 21.8985 16.1676 21.8972 16.1681L21.8955 16.1687C21.892 16.1699 21.8888 16.1714 21.8853 16.1725L21.8684 16.1782L21.8528 16.1834C21.8252 16.1927 21.7975 16.2019 21.7697 16.2106C21.7322 16.2224 21.6945 16.2338 21.6567 16.2449V23.4732H23.6575C24.1037 23.4732 24.4654 23.83 24.4654 24.271C24.4654 24.7126 24.1037 25.0713 23.6575 25.0713H16.4914C16.1556 25.4299 15.7566 25.7303 15.3113 25.9517C14.7545 26.2275 14.1324 26.3823 13.4794 26.3823C12.8264 26.3823 12.2037 26.2275 11.6476 25.9517C11.2023 25.7303 10.8031 25.4299 10.4674 25.0713H3.30138C2.85584 25.0713 2.49471 24.7126 2.49471 24.271C2.49471 23.83 2.85584 23.4732 3.30138 23.4732H5.30091V16.2437C4.12419 15.8961 3.07172 15.2603 2.22666 14.4156C0.912818 13.1018 0.100098 11.2891 0.100098 9.29104C0.100098 7.29231 0.913468 5.48092 2.22666 4.16772C3.53157 2.86217 5.33048 2.05213 7.31822 2.04116C7.33197 2.04047 7.34495 2.03989 7.35888 2.03989C7.554 2.03989 7.77186 2.05083 8.01057 2.07165C8.07908 2.07778 8.14725 2.08529 8.21509 2.09324C8.83064 1.48658 9.55485 0.987196 10.3569 0.6298ZM15.6403 2.09705C14.9352 1.7777 14.1481 1.59908 13.3143 1.59908C12.4941 1.59908 11.7164 1.7731 11.0185 2.08465C10.29 2.40921 9.6417 2.88516 9.11421 3.47314C8.9098 3.70046 8.60361 3.78438 8.32405 3.71832C8.32269 3.71809 8.32151 3.71728 8.32021 3.71705C8.17031 3.69092 8.01828 3.67081 7.86543 3.65734C7.72234 3.64498 7.55303 3.63829 7.35856 3.63829C5.79886 3.63829 4.38828 4.27051 3.36712 5.29101C2.34596 6.31217 1.71439 7.72579 1.71439 9.29134C1.71439 10.8563 2.34596 12.2712 3.36712 13.2917C4.38828 14.3122 5.79886 14.9444 7.35856 14.9444C7.8041 14.9444 8.16523 15.3018 8.16523 15.7434C8.16523 16.1844 7.8041 16.5425 7.35856 16.5425C7.20956 16.5425 7.06199 16.5361 6.91521 16.5273V18.1635C7.75566 17.9614 8.6373 17.7969 9.55118 17.6744C10.8156 17.5053 12.1334 17.4152 13.4791 17.4152C14.8255 17.4152 16.142 17.5053 17.407 17.6744C18.3209 17.7969 19.2025 17.9627 20.043 18.1647V15.6228V15.6177C20.043 15.6132 20.0433 15.6086 20.0436 15.6042L20.0437 15.6015L20.044 15.5964C20.0441 15.5946 20.0442 15.5928 20.0443 15.591C20.0451 15.5724 20.0461 15.5534 20.0481 15.5351C20.0509 15.5104 20.0546 15.4855 20.0596 15.4614C20.065 15.4354 20.0708 15.409 20.0786 15.3839L20.0799 15.3826C20.0869 15.3608 20.0953 15.339 20.1041 15.3179C20.1049 15.3157 20.1057 15.3136 20.1066 15.3115V15.3102C20.1081 15.3068 20.1101 15.3037 20.1119 15.3005L20.1125 15.2996L20.113 15.2987C20.1134 15.2979 20.1138 15.2971 20.1142 15.2962C20.1439 15.2308 20.1818 15.1692 20.2273 15.1145V15.1132C20.2437 15.0935 20.2611 15.0754 20.2794 15.0574C20.3157 15.0213 20.3557 14.9884 20.3988 14.9595C20.4001 14.9587 20.4017 14.9578 20.4033 14.957L20.405 14.956L20.4057 14.9556C20.4064 14.9552 20.4071 14.9548 20.4077 14.9545C20.4474 14.9286 20.4893 14.9058 20.5334 14.8871C20.5339 14.8869 20.5343 14.8867 20.5347 14.8865L20.5347 14.8865L20.5347 14.8865L20.5353 14.8862C20.5355 14.886 20.5357 14.8859 20.536 14.8858C20.5368 14.8854 20.5377 14.8849 20.5385 14.8845C20.544 14.8823 20.5497 14.8804 20.5554 14.8786C20.5567 14.8781 20.558 14.8777 20.5593 14.8773C20.5608 14.8768 20.5622 14.8763 20.5636 14.8758C20.565 14.8754 20.5664 14.8749 20.5677 14.8744C20.6111 14.8583 20.6559 14.846 20.7024 14.8375C20.8254 14.8133 20.947 14.7833 21.067 14.7511C21.077 14.7485 21.0869 14.7456 21.0969 14.7426L21.097 14.7426L21.108 14.7394C21.1121 14.7382 21.1162 14.737 21.1203 14.7359C21.2356 14.7038 21.3499 14.6695 21.4621 14.6305C21.468 14.6284 21.4739 14.6262 21.4798 14.6241H21.4811C21.5991 14.5825 21.7137 14.536 21.8279 14.4869L21.8291 14.4864C21.8513 14.4769 21.8733 14.4675 21.8953 14.4577C21.9878 14.4165 22.0799 14.3728 22.1697 14.3268C22.1781 14.3225 22.1866 14.3182 22.1952 14.3139L22.1954 14.3138L22.1955 14.3138C22.2103 14.3064 22.225 14.2989 22.2395 14.2913C22.3485 14.2335 22.4551 14.1728 22.5597 14.1083L22.561 14.107H22.5623C22.6677 14.0419 22.7703 13.9717 22.871 13.9H22.8723L22.8742 13.8986L22.8776 13.8963C22.8826 13.8929 22.8877 13.8895 22.8926 13.886C22.9863 13.8185 23.0765 13.748 23.1657 13.6751L23.1743 13.6681L23.183 13.6611L23.1958 13.6507C23.2019 13.6458 23.208 13.6408 23.214 13.6357C23.3071 13.5579 23.398 13.4767 23.4858 13.3931C23.4874 13.3916 23.4891 13.3901 23.4908 13.3887C23.4926 13.3873 23.4944 13.3858 23.496 13.3842C23.4967 13.3835 23.4973 13.3829 23.498 13.3822L23.498 13.3822C23.4986 13.3816 23.4992 13.381 23.4999 13.3804C23.5344 13.3473 23.569 13.314 23.6027 13.28L23.6058 13.277L23.6098 13.273L23.6116 13.2711L23.6129 13.2698L23.6142 13.2685C23.6252 13.2574 23.6359 13.2457 23.6466 13.2341C23.6549 13.2252 23.6631 13.2162 23.6714 13.2075C23.7108 13.1665 23.7501 13.1253 23.7883 13.083C23.7909 13.0802 23.7937 13.0775 23.7965 13.0748C23.7993 13.0721 23.8022 13.0694 23.8048 13.0665C23.8271 13.0416 23.8487 13.0158 23.8703 12.9901L23.8704 12.9899L23.8833 12.9746L23.8887 12.9682C23.8925 12.9637 23.8963 12.9592 23.9001 12.9547C23.9332 12.9158 23.9658 12.8765 23.9979 12.8366C24.0007 12.8332 24.0037 12.8299 24.0067 12.8266L24.0067 12.8266L24.0098 12.8231C24.0118 12.8209 24.0138 12.8186 24.0157 12.8163C24.0448 12.7798 24.0726 12.7428 24.1006 12.7055L24.1109 12.6918C24.1464 12.6446 24.1811 12.5965 24.2151 12.5482C24.2637 12.4794 24.3106 12.4097 24.3561 12.3386C24.3814 12.2992 24.4055 12.2593 24.4298 12.2192C24.4732 12.1475 24.5153 12.0745 24.5556 12.0007C24.5744 11.9662 24.5933 11.9315 24.6115 11.8965C24.6543 11.814 24.6959 11.7299 24.7347 11.645C24.7447 11.6232 24.7542 11.6011 24.7638 11.579L24.7638 11.5789L24.7639 11.5787L24.7706 11.5631L24.7753 11.5523C24.8138 11.4638 24.8506 11.375 24.8846 11.2842C24.8906 11.2682 24.8961 11.2519 24.9016 11.2357C24.9056 11.2239 24.9096 11.2121 24.9138 11.2004C24.9497 11.0999 24.9839 10.9986 25.0142 10.8955C25.0153 10.8917 25.0169 10.8879 25.018 10.8841C25.1269 10.5103 25.1991 10.1209 25.2289 9.71915C24.6734 9.42451 24.1957 9.00254 23.834 8.49327C23.3696 7.83894 23.096 7.0417 23.096 6.1825C23.096 5.88396 23.1325 5.58532 23.1989 5.29198C23.2216 5.19377 23.2477 5.09672 23.2776 4.9998C22.8546 4.63546 22.3762 4.33342 21.8574 4.10675C21.8205 4.09065 21.783 4.0751 21.7456 4.05974C21.6951 4.03892 21.6445 4.01815 21.5931 3.99877C21.5524 3.98345 21.5112 3.96875 21.4699 3.95431C21.4187 3.93635 21.3668 3.91873 21.3149 3.90222C21.2949 3.89585 21.2746 3.88995 21.2543 3.88405C21.2431 3.88082 21.232 3.87758 21.2209 3.87427C21.1654 3.8575 21.1091 3.84225 21.0532 3.82727C21.0065 3.81485 20.9596 3.803 20.9122 3.7917L20.9115 3.79153C20.8674 3.78107 20.8234 3.77063 20.7788 3.76121C20.7586 3.75687 20.7382 3.75262 20.7179 3.74851C20.7089 3.74671 20.6998 3.74515 20.6907 3.74359L20.6907 3.74359L20.6907 3.74359L20.6906 3.74358L20.6906 3.74358C20.6832 3.7423 20.6757 3.74103 20.6683 3.73962C20.6016 3.7269 20.5353 3.7144 20.4676 3.70405C20.4666 3.70389 20.4653 3.70367 20.464 3.70344L20.4639 3.70343C20.4625 3.70319 20.4611 3.70294 20.46 3.70278C20.2845 3.67616 20.1059 3.65833 19.9252 3.64815C19.9198 3.64785 19.9143 3.64739 19.9089 3.64693L19.9089 3.64693C19.9029 3.64642 19.8969 3.64591 19.8909 3.64561C19.8849 3.64531 19.8788 3.6451 19.8727 3.6449L19.8727 3.6449L19.864 3.64459L19.8578 3.64434C19.7722 3.64055 19.6867 3.63799 19.6 3.63799C18.5216 3.63799 17.5169 3.93833 16.6655 4.45736C15.7815 4.99721 15.0563 5.77643 14.5783 6.70588C14.4527 6.94979 14.3477 7.19075 14.2658 7.4249C14.1845 7.6571 14.1165 7.91018 14.0625 8.18076C13.9773 8.61329 13.5545 8.89668 13.1174 8.81212C12.6809 8.72757 12.3945 8.30713 12.4797 7.8746C12.5434 7.5559 12.6326 7.23181 12.7464 6.9066C12.8622 6.57423 12.9952 6.26472 13.1402 5.98178C13.7503 4.79607 14.6818 3.79847 15.8207 3.10317C16.0809 2.94428 16.3513 2.80213 16.6312 2.67633C16.3226 2.4513 15.9916 2.25583 15.6403 2.09705ZM15.7382 19.1003C15.0067 19.0429 14.2524 19.013 13.4794 19.013C12.7065 19.013 11.9519 19.0429 11.22 19.1004C11.2645 19.1323 11.3064 19.1677 11.3453 19.2061L11.3517 19.2112C11.5396 19.3998 11.6565 19.6605 11.6565 19.948C11.6565 20.2355 11.5403 20.4962 11.3517 20.6848C11.163 20.8734 10.9017 20.9897 10.6136 20.9897C10.3261 20.9897 10.0641 20.8728 9.87551 20.6848C9.68689 20.4962 9.57063 20.2348 9.57063 19.948C9.57063 19.6769 9.67405 19.4296 9.84406 19.2441C9.81807 19.2475 9.79211 19.2509 9.76619 19.2544C8.7658 19.3878 7.81283 19.5759 6.91552 19.8083V23.4732H10.8371C11.1156 23.4732 11.3602 23.6126 11.5053 23.8251C11.7359 24.1189 12.0289 24.3613 12.3653 24.5276C12.6957 24.6915 13.0749 24.7842 13.4794 24.7842C13.884 24.7842 14.2612 24.6915 14.5922 24.5276C14.9262 24.3622 15.2197 24.1217 15.4497 23.8302C15.5944 23.6151 15.8413 23.4732 16.1217 23.4732H20.0433V19.8083C19.1456 19.576 18.1928 19.3878 17.1927 19.2544C17.1663 19.2509 17.1399 19.2474 17.1134 19.2439C17.2837 19.4294 17.3883 19.6768 17.3883 19.948C17.3883 20.2348 17.2708 20.4962 17.0821 20.6848C16.8935 20.8728 16.6335 20.9897 16.3453 20.9897C16.0572 20.9897 15.7959 20.8734 15.6073 20.6848C15.4186 20.4962 15.3011 20.2355 15.3011 19.948C15.3011 19.6605 15.4186 19.3998 15.6073 19.2112C15.6477 19.1708 15.6915 19.1336 15.7382 19.1003ZM17.9832 26.6149C18.3052 26.3118 18.8151 26.3248 19.1214 26.6429C19.4278 26.9616 19.4148 27.4669 19.0928 27.77C18.3481 28.4725 17.4694 29.0384 16.4989 29.4234C15.561 29.7961 14.5418 30.001 13.4797 30.001C12.4169 30.001 11.3977 29.7961 10.4598 29.4234C9.48938 29.0384 8.61131 28.4725 7.86593 27.77C7.54398 27.4669 7.53162 26.9616 7.83732 26.6429C8.14431 26.3248 8.65359 26.3118 8.97555 26.6149C9.57524 27.1808 10.2809 27.6354 11.0588 27.9444C11.8036 28.2403 12.6205 28.4029 13.4797 28.4029C14.3383 28.4029 15.1552 28.2403 15.8999 27.9444C16.6778 27.6348 17.3835 27.1808 17.9832 26.6149ZM18.691 6.21334C18.3424 6.48782 18.2839 6.99384 18.5584 7.34117L19.0221 7.9272C19.2966 8.27582 19.8026 8.33501 20.1506 8.05988C20.4986 7.7854 20.5577 7.27938 20.2826 6.93075L19.8189 6.34538C19.5444 5.9974 19.0384 5.93821 18.691 6.21334ZM16.5444 10.9553C16.1652 10.7224 16.0462 10.2249 16.2797 9.84501C16.5125 9.46582 17.0101 9.34679 17.3893 9.58029L18.026 9.97185C18.4052 10.2053 18.5236 10.7023 18.2907 11.0815C18.0572 11.4613 17.5603 11.5797 17.1811 11.3468L16.5444 10.9553ZM21.0495 11.7768C21.4079 12.0389 21.9119 11.9615 22.1747 11.6031L22.6176 11.0008C22.8804 10.6425 22.803 10.1384 22.4446 9.87562C22.0856 9.61285 21.5815 9.6909 21.3194 10.0486L20.8758 10.6509C20.6131 11.01 20.6905 11.5134 21.0495 11.7768Z" fill="#0D0F0F"/>
<path fill-rule="evenodd" clip-rule="evenodd" d="M84.439 2.02544C84.439 1.30478 85.0289 0.720703 85.7567 0.720703C86.4852 0.720703 87.0751 1.30478 87.0751 2.02544V5.45692C87.8523 5.07059 88.7249 4.85301 89.6438 4.85301C91.2387 4.85301 92.6846 5.50083 93.7317 6.548C94.7776 7.59323 95.4248 9.03456 95.4248 10.6216C95.4248 12.2086 94.7776 13.6493 93.7317 14.6945C92.6852 15.7423 91.2387 16.3895 89.6438 16.3895C88.6492 16.3895 87.7088 16.1346 86.885 15.6867C86.654 16.0641 86.2353 16.3165 85.7567 16.3165C85.0289 16.3165 84.439 15.7317 84.439 15.0111V2.02544ZM87.0751 12.4491C87.3369 12.8206 87.6739 13.132 88.062 13.3585C88.5219 13.6265 89.0624 13.78 89.6438 13.78C90.5128 13.78 91.2992 13.4281 91.8676 12.8603C92.4361 12.2912 92.7886 11.499 92.7886 10.6216C92.7886 9.74351 92.4367 8.9513 91.8676 8.38284C91.2998 7.81437 90.5128 7.46314 89.6438 7.46314C89.0617 7.46314 88.5219 7.61664 88.062 7.88526C87.6739 8.11125 87.3369 8.42211 87.0751 8.79382V12.4491ZM43.1729 6.33831C43.7101 6.82222 43.7498 7.64695 43.2607 8.17834C42.7716 8.71038 41.939 8.74941 41.4018 8.2655C41.1163 8.00793 40.7859 7.80305 40.4275 7.66581C40.086 7.53508 39.7068 7.46288 39.3035 7.46288C38.4339 7.46288 37.6476 7.81476 37.0798 8.38322C36.5106 8.95169 36.1581 9.74325 36.1581 10.6213C36.1581 11.4994 36.5106 12.2909 37.0798 12.8601C37.6476 13.4279 38.4339 13.7798 39.3035 13.7798C39.7068 13.7798 40.086 13.7076 40.4275 13.5768C40.7859 13.4396 41.1163 13.2347 41.4018 12.9771C41.939 12.4939 42.7716 12.5316 43.2607 13.0643C43.7498 13.5963 43.7101 14.4204 43.1729 14.9043C42.6539 15.3713 42.0451 15.746 41.3745 16.0035C40.7241 16.2526 40.0255 16.3892 39.3035 16.3892C37.7074 16.3892 36.2622 15.7421 35.2157 14.6949C34.1691 13.649 33.522 12.2077 33.522 10.6213C33.522 9.03429 34.1691 7.59362 35.2157 6.54774C36.2622 5.50057 37.7074 4.85275 39.3035 4.85275C40.0255 4.85275 40.7241 4.98999 41.3745 5.2391C42.0451 5.49601 42.6539 5.87131 43.1729 6.33831ZM97.8579 0.721364C97.1301 0.721364 96.5393 1.3047 96.5393 2.02601V6.3541C96.5393 6.3901 96.5412 6.42554 96.5445 6.4608V11.0722C96.5412 11.1079 96.5406 11.1437 96.5406 11.1802C96.5406 12.5922 97.1171 13.8763 98.0485 14.807C98.9812 15.7391 100.268 16.3162 101.689 16.3162C102.417 16.3162 103.008 15.7322 103.008 15.0115C103.008 14.2909 102.417 13.7069 101.689 13.7069C100.995 13.7069 100.365 13.426 99.9121 12.9726C99.4574 12.5186 99.1766 11.8839 99.1766 11.1802C99.1766 11.1391 99.174 11.0985 99.17 11.0582V6.46462C99.1733 6.42811 99.1766 6.39138 99.1766 6.3541V2.02601C99.1766 1.3047 98.5857 0.721364 97.8579 0.721364ZM47.67 6.22704C48.7163 5.47125 50.0342 5.01894 51.4658 5.01894C52.1937 5.01894 52.7845 5.56157 52.7845 6.23085C52.7845 6.90143 52.1937 7.44404 51.4658 7.44404C50.4948 7.44404 49.6189 7.79961 48.9887 8.37393C48.3597 8.94825 47.9698 9.74312 47.9698 10.6212V15.0115C47.9698 15.7322 47.379 16.3162 46.6512 16.3162C45.9234 16.3162 45.3326 15.7322 45.3326 15.0115V10.6212V7.70954C45.3326 7.58206 45.3242 7.47899 45.3034 7.39703L45.2945 7.35765C45.2717 7.277 45.2378 7.19207 45.1916 7.10231L45.109 6.94987C44.776 6.31116 45.0304 5.5259 45.6756 5.19679C46.3208 4.86703 47.1134 5.1183 47.4465 5.75701L47.5265 5.91581C47.5799 6.01884 47.6264 6.12273 47.67 6.22704ZM55.2287 5.04817C54.5016 5.04817 53.9114 5.63408 53.9114 6.35409V11.1446V11.1497C53.9113 11.1516 53.9113 11.1535 53.9112 11.1555C53.9111 11.158 53.9109 11.1605 53.9108 11.163C53.9104 11.1687 53.9101 11.1744 53.9101 11.1801C53.9101 12.5922 54.4866 13.8762 55.418 14.807C56.35 15.739 57.6389 16.3162 59.0601 16.3162C60.4962 16.3162 61.7804 15.7366 62.7098 14.7994C63.6392 13.8615 64.2088 12.5683 64.2088 11.1458C64.2088 11.1234 64.2071 11.1014 64.2054 11.0793V11.0793L64.2054 11.0792L64.2054 11.0791L64.2054 11.0791L64.2054 11.079L64.2054 11.0789C64.2048 11.0716 64.2042 11.0642 64.2037 11.0569V6.35408C64.2037 5.63602 63.6148 5.05324 62.8902 5.05324C62.165 5.05324 61.5767 5.63602 61.5767 6.35408V11.0569C61.5761 11.0643 61.5756 11.0717 61.575 11.0792L61.575 11.0792L61.575 11.0794V11.0794V11.0795V11.0795V11.0795V11.0796V11.0796C61.5733 11.1015 61.5716 11.1235 61.5716 11.1458C61.5716 11.8665 61.292 12.5127 60.8348 12.9739C60.3866 13.4272 59.7626 13.7056 59.0601 13.7056C59.0575 13.7056 59.0549 13.7059 59.0522 13.7062L59.0502 13.7065L59.0491 13.7066C59.0477 13.7068 59.0463 13.7069 59.0449 13.7069C58.3563 13.7028 57.7329 13.4226 57.2829 12.9726C56.8282 12.5186 56.5461 11.8846 56.5461 11.1802L56.5461 11.1776L56.5461 11.1725C56.5462 11.1684 56.5464 11.1642 56.5467 11.16C56.547 11.1549 56.5474 11.1497 56.5474 11.1446V6.35411C56.5474 5.63409 55.9572 5.04817 55.2287 5.04817ZM68.3333 5.6986C69.1067 5.16518 70.0439 4.85255 71.0531 4.85255C72.3774 4.85255 73.5766 5.38922 74.4462 6.25883C74.4658 6.27844 74.4847 6.29875 74.5035 6.31906C74.5136 6.32993 74.5237 6.3408 74.5339 6.35156C74.541 6.34403 74.5482 6.33648 74.5553 6.32894C74.5771 6.30577 74.599 6.28264 74.6215 6.2601C75.4911 5.39049 76.6904 4.85255 78.0146 4.85255C79.3389 4.85255 80.5381 5.38922 81.4077 6.25883C82.276 7.12714 82.814 8.32281 82.814 9.63796V15.0115C82.814 15.7322 82.2232 16.3162 81.4954 16.3162C80.7676 16.3162 80.1768 15.7322 80.1768 15.0115V9.63796C80.1768 9.63508 80.1771 9.63225 80.1774 9.62942C80.1777 9.62677 80.178 9.62412 80.1781 9.62145C80.1737 9.02124 79.9328 8.48117 79.5454 8.09448C79.1545 7.70423 78.613 7.46312 78.0147 7.46312C77.4169 7.46312 76.8761 7.70488 76.4852 8.09448C76.0943 8.48539 75.8525 9.03177 75.8525 9.63796V15.0115C75.8525 15.7322 75.2617 16.3162 74.5339 16.3162C73.8061 16.3162 73.2166 15.7322 73.2166 15.0115V9.66464C73.2166 9.66321 73.2165 9.66179 73.2165 9.66037C73.2164 9.65907 73.2164 9.65778 73.2163 9.6565C73.2162 9.65477 73.216 9.65305 73.2159 9.65133C73.2156 9.6469 73.2153 9.64247 73.2153 9.63796C73.2153 9.63339 73.2156 9.62886 73.2159 9.62433L73.2161 9.62153C73.2162 9.6203 73.2163 9.61906 73.2163 9.61783C73.2165 9.61565 73.2165 9.61347 73.2166 9.61128C73.2095 9.01516 72.9678 8.47898 72.5826 8.09448C72.1917 7.70423 71.6515 7.46311 71.0531 7.46311C70.4548 7.46311 69.9145 7.70488 69.5236 8.09448C69.1327 8.48538 68.8897 9.03176 68.8897 9.63795V15.0115C68.8897 15.7315 68.3002 16.3162 67.5724 16.3162C66.8439 16.3162 66.2538 15.7315 66.2538 15.0115V7.70956C66.2538 7.56127 66.2404 7.45558 66.2157 7.37038C66.1799 7.25265 66.116 7.11575 66.0302 6.94989C65.6972 6.31118 65.9503 5.52657 66.5955 5.19681C67.2201 4.8782 67.9831 5.10442 68.3333 5.6986ZM41.7775 27.4722C42.6458 27.4722 43.3905 27.1568 43.9317 26.6039L43.345 25.9834C42.9392 26.4458 42.3974 26.6605 41.7886 26.6605C40.5586 26.6605 39.7235 25.7805 39.7235 24.5056C39.7235 23.2191 40.5703 22.3508 41.7775 22.3508C42.4312 22.3508 42.9847 22.5986 43.3118 22.9941L43.8979 22.3736C43.3795 21.8428 42.623 21.5384 41.7775 21.5384C40.1072 21.5384 38.8441 22.7684 38.8441 24.5056C38.8441 26.2429 40.0962 27.4722 41.7775 27.4722ZM47.7566 24.5061C47.7566 22.7571 48.9971 21.5386 50.6784 21.5386C52.3702 21.5386 53.6231 22.7571 53.6231 24.5061C53.6231 26.2544 52.3702 27.4724 50.6784 27.4724C48.9971 27.4724 47.7566 26.2544 47.7566 24.5061ZM52.7313 24.5061C52.7313 23.2196 51.9077 22.3503 50.6784 22.3503C49.4713 22.3503 48.637 23.2196 48.637 24.5061C48.637 25.792 49.4713 26.6606 50.6784 26.6606C51.8967 26.6606 52.7313 25.792 52.7313 24.5061ZM60.6964 21.5386C59.0151 21.5386 57.7746 22.7571 57.7746 24.5061C57.7746 26.2544 59.0151 27.4724 60.6964 27.4724C62.3881 27.4724 63.6411 26.2544 63.6411 24.5061C63.6411 22.7571 62.3881 21.5386 60.6964 21.5386ZM60.6964 22.3503C61.9257 22.3503 62.7493 23.2196 62.7493 24.5061C62.7493 25.792 61.9146 26.6606 60.6964 26.6606C59.4886 26.6606 58.655 25.792 58.655 24.5061C58.655 23.2196 59.4886 22.3503 60.6964 22.3503ZM73.1398 27.3265H72.0907L70.105 24.7313L68.9999 25.8819V27.3265H68.1537V18.8645H68.9999V24.6975L71.8988 21.6854H73.0722L70.6916 24.144L73.1398 27.3265ZM77.9241 20.7033C78.2513 20.7033 78.5218 20.4327 78.5218 20.1055C78.5218 19.7784 78.2513 19.5078 77.9241 19.5078C77.5963 19.5078 77.3257 19.7784 77.3257 20.1055C77.3257 20.4327 77.5963 20.7033 77.9241 20.7033ZM77.4949 21.6854H78.3405V27.3265H77.4949V21.6854ZM85.7985 21.5386C84.095 21.5386 82.9326 22.7456 82.9326 24.4718C82.9326 26.2657 84.1734 27.4724 85.8658 27.4724C86.7458 27.4724 87.5471 27.1446 88.0889 26.6035L87.5808 25.9835C87.1183 26.4349 86.521 26.6835 85.8556 26.6835C84.7271 26.6835 83.9482 25.9604 83.8129 24.8326H88.3595C88.4161 24.5848 88.4382 24.2695 88.4382 24.1225C88.4382 22.8138 87.5585 21.5386 85.7985 21.5386ZM85.787 22.3275C86.9266 22.3275 87.5363 23.1078 87.5363 24.0437V24.0653H83.8129C83.9709 23.0045 84.7041 22.3275 85.787 22.3275ZM97.3164 25.7128C97.3164 26.8524 96.3349 27.4839 94.9248 27.4839C94.1014 27.4839 93.0633 27.2016 92.5105 26.773L92.917 26.0855C93.3118 26.401 94.1801 26.6605 94.9365 26.6605C95.6806 26.6605 96.437 26.4458 96.437 25.7584C96.437 25.1594 95.7405 25.0293 94.9149 24.8752L94.8689 24.8666C93.4809 24.6071 92.7361 24.3138 92.7361 23.2757C92.7361 21.9332 93.9999 21.5384 95.0718 21.5384C95.8952 21.5384 96.6731 21.7758 97.1922 22.1251L96.7863 22.8133C96.3577 22.5427 95.7599 22.3508 95.049 22.3508C94.1241 22.3508 93.6162 22.6669 93.6162 23.2536C93.6162 23.7043 93.8867 23.8624 94.9925 24.066C96.2562 24.3021 97.3164 24.5167 97.3164 25.7128Z" fill="#0D0F0F"/>
</svg>
