<svg width="156" height="20" viewBox="0 0 156 20" fill="none" xmlns="http://www.w3.org/2000/svg">
<path d="M0.714294 19.5906V0.533568C1.66698 0.468315 2.59683 0.373699 3.52994 0.347598C4.66207 0.314972 5.80399 0.269295 6.9296 0.354123C10.1726 0.592295 12.8415 1.84514 14.3782 4.88265C14.9557 6.02783 15.2754 7.26436 15.3537 8.54984C15.4026 9.34918 15.4875 10.1551 15.432 10.9479C15.2852 13.0001 14.923 15 13.6147 16.6934C12.5022 18.1354 10.9981 18.9641 9.27216 19.4405C8.1335 19.7537 6.9818 19.9397 5.79746 19.894C4.31623 19.8353 2.83826 19.7765 1.35703 19.7048C1.14822 19.695 0.945941 19.6297 0.714294 19.5873L0.714294 19.5906ZM3.81053 17.0653C4.18899 17.1044 4.52178 17.1762 4.84804 17.1632C5.72242 17.1273 6.59681 17.0783 7.46467 16.9837C9.52012 16.7651 11.2558 15.2806 11.804 13.2937C12.3162 11.4307 12.3586 9.53189 11.9638 7.65914C11.5332 5.62653 10.3978 4.07678 8.31295 3.46667C6.85782 3.03926 5.35048 2.95117 3.81379 3.17956V17.0653H3.81053Z" fill="#48484A"/>
<path d="M51.4545 13.6033C51.5165 15.6359 52.2963 16.905 54.2701 17.2541C55.7351 17.5151 57.1739 17.3487 58.5768 16.8528C59.138 16.6538 59.1804 16.6473 59.3631 17.228C59.5328 17.7664 59.6241 18.3308 59.7057 18.892C59.722 18.9996 59.5589 19.2052 59.4349 19.2509C57.8199 19.8675 56.1592 20.0567 54.43 19.9164C53.1086 19.8088 51.8786 19.4923 50.7987 18.7386C49.5524 17.8708 48.7791 16.6603 48.4757 15.1628C48.0451 13.0519 48.0809 10.9638 49.0304 8.99316C49.9374 7.10737 51.4675 5.99807 53.5687 5.69791C54.9586 5.49889 56.2995 5.59351 57.5621 6.25582C59.1412 7.08126 59.983 8.4483 60.3615 10.1416C60.616 11.2737 60.5931 12.4124 60.4137 13.6033H51.4512H51.4545ZM57.5165 11.2574C57.5621 10.1286 56.8933 8.80719 55.9798 8.39284C54.9357 7.92302 53.8623 7.97849 52.8868 8.59512C52.0874 9.10083 51.4578 10.4679 51.585 11.2574C53.4121 11.2574 55.2457 11.2574 57.0793 11.2574C57.213 11.2574 57.3501 11.2574 57.5197 11.2574H57.5165Z" fill="#48484A"/>
<path d="M32.3501 10.8935C32.5589 8.96199 31.5769 8.27031 29.988 8.16591C28.8036 8.08761 27.6454 8.28989 26.523 8.64552C26.2555 8.73034 26.1478 8.66183 26.0924 8.43997C25.939 7.82007 25.802 7.19365 25.6617 6.57049C25.5867 6.24096 25.8118 6.14308 26.0598 6.09741C26.8983 5.9408 27.7335 5.7222 28.5818 5.66021C30.2881 5.53623 32.0075 5.48403 33.5181 6.49871C34.4871 7.15123 35.1429 8.06803 35.2082 9.2491C35.3224 11.347 35.3517 13.4481 35.3941 15.5492C35.417 16.6716 35.3909 17.7939 35.4039 18.913C35.4072 19.1968 35.3093 19.3176 35.032 19.3535C33.5149 19.5525 32.001 19.8624 30.4806 19.9342C29.1886 19.9962 27.8575 19.895 26.6633 19.2556C25.2996 18.5247 24.6242 17.3763 24.559 15.8266C24.5035 14.4954 24.8036 13.3143 25.7922 12.3747C26.7808 11.4318 27.9945 10.9685 29.342 10.9033C30.3468 10.8543 31.3517 10.8935 32.3534 10.8935H32.3501ZM32.386 13.3861C31.9716 13.3437 31.6062 13.2556 31.2506 13.2817C30.4578 13.3372 29.6454 13.3567 28.8885 13.5656C27.9325 13.8298 27.4855 14.6814 27.5704 15.7287C27.6291 16.4856 28.1968 17.2001 28.9407 17.3437C30.0924 17.5655 31.2441 17.4513 32.3893 17.2425V13.3861H32.386Z" fill="#48484A"/>
<path d="M37.4081 0.164999C38.3412 0.164999 39.2286 0.151949 40.1128 0.181313C40.2139 0.181313 40.3183 0.403171 40.4064 0.530414C40.4358 0.572828 40.4097 0.647868 40.4097 0.709858C40.4097 6.86317 40.4064 13.0165 40.4195 19.1698C40.4195 19.5744 40.3314 19.744 39.8974 19.7244C39.209 19.6918 38.5173 19.7016 37.8289 19.7244C37.4766 19.7342 37.3983 19.5907 37.4015 19.2644C37.4146 17.7636 37.4081 16.2628 37.4081 14.762C37.4081 10.1258 37.4081 5.48634 37.4081 0.850151C37.4081 0.670706 37.4081 0.487999 37.4081 0.168262V0.164999Z" fill="#48484A"/>
<path d="M20.1335 7.56314C21.3243 6.10149 22.8088 5.58273 24.5869 5.90573C24.8349 6.493 24.8382 6.83232 24.6196 8.58435C23.9246 8.63329 23.2264 8.5974 22.5674 8.75074C21.308 9.04111 20.6881 9.98728 20.4695 11.1847C20.339 11.8894 20.2901 12.617 20.2803 13.338C20.2542 15.2923 20.264 17.2499 20.2803 19.2042C20.2803 19.55 20.2346 19.7393 19.8202 19.7197C19.1025 19.6903 18.3782 19.7066 17.6604 19.7132C17.3733 19.7132 17.2656 19.6088 17.2689 19.3086C17.2754 14.9726 17.2754 10.6365 17.2689 6.30051C17.2689 6.02318 17.3309 5.87637 17.6473 5.88289C18.2901 5.89921 18.9361 5.8731 19.5788 5.90247C19.693 5.90899 19.8692 6.08191 19.8985 6.20915C19.9997 6.62351 20.0486 7.05091 20.1335 7.56314Z" fill="#48484A"/>
<path d="M48.312 6.01532C46.958 8.01205 45.6105 10.0153 44.2435 12.0055C44.0543 12.2796 44.0804 12.4492 44.2631 12.707C45.8683 14.9778 47.4572 17.2583 49.0722 19.5683C48.0412 19.8293 47.0298 19.8456 46.0216 19.6857C45.8389 19.6564 45.6301 19.5063 45.5192 19.3529C43.9564 17.18 42.4066 14.9973 40.8504 12.8212C40.7035 12.6124 40.697 12.4492 40.8471 12.2241C42.1848 10.2111 43.5225 8.19802 44.821 6.16214C45.0298 5.83262 45.3006 5.86851 45.5518 5.85872C46.4621 5.82609 47.3756 5.84567 48.2892 5.84567C48.2989 5.90113 48.3087 5.9566 48.3152 6.0088L48.312 6.01532Z" fill="#48484A"/>
<path d="M105 6.18903H106.846C107.359 8.13681 107.868 10.065 108.37 11.9965C108.869 13.9117 109.362 15.8268 109.884 17.8399C111.026 13.9019 112.135 10.0618 113.264 6.16619C113.806 6.16619 114.367 6.14987 114.921 6.1825C115.023 6.18903 115.163 6.375 115.202 6.50224C116.243 10.0096 117.274 13.5234 118.308 17.034C118.354 17.1873 118.403 17.3374 118.546 17.5005C119.538 13.7355 120.53 9.96715 121.528 6.18576H123.176C121.871 10.7045 120.572 15.1939 119.264 19.7159C118.775 19.7159 118.298 19.6996 117.822 19.7224C117.535 19.7354 117.447 19.618 117.372 19.3537C116.328 15.7453 115.267 12.1433 114.21 8.54138C114.207 8.52833 114.194 8.51854 114.151 8.45655C112.996 12.2184 111.848 15.9475 110.683 19.7354H108.921C107.61 15.2069 106.311 10.7143 105 6.18903Z" fill="#1C75BC"/>
<path d="M73.6957 0.869617C73.5881 1.34922 73.4836 1.82557 73.3727 2.32475C72.6191 2.18445 71.9045 2.02459 71.1835 1.92671C70.0546 1.77336 68.9225 1.75379 67.8132 2.06048C66.4429 2.43894 65.7349 3.40468 65.5816 4.77172C65.4445 5.98215 66.0122 6.90874 67.0334 7.4797C68.0285 8.0376 69.1019 8.45522 70.1362 8.94461C71.1704 9.43401 72.2341 9.85815 73.115 10.6347C74.3026 11.682 74.7724 12.9609 74.7039 14.5368C74.5799 17.4568 72.5212 19.2251 69.947 19.7178C67.7741 20.1354 65.2325 19.9494 63.2129 19.199C63.2129 19.1566 63.1966 19.111 63.2064 19.0685C63.3467 18.6118 63.363 17.9592 63.6729 17.7537C63.9437 17.5743 64.5473 17.894 65.0073 17.9886C66.5865 18.3181 68.1623 18.5041 69.761 18.0898C71.3466 17.6819 72.5962 16.5367 72.6974 14.8043C72.7561 13.8027 72.6843 12.8369 71.9567 12.1094C71.4869 11.6395 70.8899 11.2643 70.2863 10.974C69.177 10.4389 68.0122 10.0148 66.8866 9.50579C65.9046 9.05881 65.0041 8.51068 64.3711 7.57431C63.376 6.09308 63.5587 3.42752 64.7496 2.10289C65.8132 0.918556 67.177 0.497677 68.6909 0.334546C70.3385 0.158364 71.9437 0.36391 73.5293 0.794576C73.5685 0.804364 73.6076 0.827203 73.6957 0.866354V0.869617Z" fill="#1C75BC"/>
<path d="M155.894 13.1582H146.119C146.149 14.4568 146.292 15.6966 147.036 16.7602C147.702 17.7129 148.694 18.199 149.826 18.3458C151.718 18.5905 152.827 18.4567 154.746 17.8303C154.837 18.2479 154.938 18.659 155.004 19.0766C155.017 19.1517 154.909 19.2985 154.827 19.3279C153.268 19.8695 151.669 20.075 150.015 19.9217C148.863 19.814 147.793 19.5138 146.84 18.8515C145.447 17.8825 144.762 16.4829 144.504 14.8646C144.217 13.0538 144.256 11.2561 144.929 9.52041C145.627 7.70966 146.85 6.44376 148.792 6.05224C150.824 5.64115 152.749 5.8467 154.302 7.4095C155.141 8.25125 155.568 9.32466 155.734 10.4731C155.858 11.3344 155.842 12.2186 155.891 13.1648L155.894 13.1582ZM154.178 11.7096C154.077 8.38176 152.093 7.20721 150.041 7.34751C147.363 7.53348 146.328 9.69007 146.24 11.7096H154.181H154.178Z" fill="#1C75BC"/>
<path d="M125.5 6.35087C126.152 6.22689 126.766 6.03766 127.389 6.00829C128.501 5.94957 129.627 5.90063 130.736 6.00177C132.834 6.19426 134.028 7.4308 134.257 9.52867C134.332 10.2171 134.345 10.9153 134.348 11.607C134.358 14.1975 134.351 16.788 134.351 19.4405C133.653 19.5612 132.965 19.7276 132.27 19.7864C131.125 19.8875 129.973 19.9886 128.828 19.9593C127.594 19.9299 126.413 19.6069 125.421 18.7945C124.818 18.2986 124.505 17.6493 124.384 16.8989C124.191 15.7048 124.26 14.5498 124.961 13.5091C125.699 12.4194 126.769 11.8614 128.038 11.62C129.542 11.3329 131.046 11.4014 132.55 11.62C132.831 9.98217 132.485 8.18447 130.903 7.59393C130.025 7.26767 129.115 7.28072 128.214 7.38186C127.5 7.46016 126.798 7.65592 126.087 7.76359C125.976 7.7799 125.761 7.62329 125.725 7.50584C125.62 7.16326 125.581 6.80111 125.5 6.35087ZM132.651 18.3378C132.651 16.5988 132.658 14.9936 132.638 13.3916C132.638 13.2839 132.436 13.098 132.315 13.0882C131.64 13.0229 130.958 12.9838 130.28 12.9642C129.209 12.9348 128.175 13.0686 127.222 13.6102C125.624 14.5172 125.513 17.0914 127.102 18.0017C127.676 18.3312 128.413 18.4911 129.082 18.5107C130.25 18.5433 131.425 18.4063 132.655 18.3378H132.651Z" fill="#1C75BC"/>
<path d="M76.2422 12.9158C76.3238 11.6564 76.5065 10.4362 77.0154 9.29428C77.8441 7.4248 79.2405 6.2633 81.3123 5.97293C82.9926 5.73476 84.5684 5.96314 85.955 6.99739C87.1328 7.87504 87.7821 9.10179 88.1083 10.508C88.6043 12.6483 88.5455 14.7657 87.6157 16.7853C86.8 18.5536 85.3906 19.5944 83.4526 19.9011C81.7789 20.1653 80.2128 19.9174 78.8099 18.8995C77.5929 18.0185 76.9404 16.782 76.6141 15.3693C76.4282 14.5667 76.3662 13.738 76.2454 12.9223L76.2422 12.9158ZM86.663 12.9452C86.6141 12.3905 86.6173 11.8261 86.5129 11.2812C86.1051 9.16378 85.247 7.6956 83.0023 7.38238C81.4363 7.16379 79.6614 7.70538 78.8425 9.43131C78.0399 11.1246 77.9779 12.893 78.2748 14.6907C78.3727 15.2747 78.575 15.8587 78.8262 16.397C79.6679 18.2078 81.2275 18.6678 82.9012 18.5177C84.5097 18.3709 85.5798 17.4704 86.1443 15.9598C86.5097 14.9876 86.663 13.9827 86.663 12.9452Z" fill="#1C75BC"/>
<path d="M91.7512 7.63316H89.4478V6.18781H91.6729C91.7186 5.43089 91.7512 4.70985 91.8034 3.9888C91.9633 1.80611 93.1281 0.233523 95.5 0.0671289C95.9209 0.0377652 96.345 -0.0111742 96.7659 0.00840159C97.1835 0.0279773 97.6011 0.122593 98.1068 0.197634C98.0187 0.641351 97.9567 1.08181 97.8295 1.49616C97.8067 1.56794 97.4934 1.56141 97.314 1.56794C96.5799 1.59404 95.823 1.50921 95.1117 1.65603C94.0579 1.8681 93.6892 2.76532 93.5457 3.70496C93.425 4.49125 93.4413 5.30038 93.3956 6.15519H96.7789V7.60379H93.4445V19.7049H91.748V7.63316H91.7512Z" fill="#1C75BC"/>
<path d="M101.083 1.93359V6.17501H104.741V7.61056H101.086C101.086 7.77043 101.086 7.88789 101.086 8.00534C101.086 10.8699 101.099 13.7345 101.086 16.5991C101.077 18.0249 102.023 18.6219 103.347 18.4784C103.794 18.4294 104.238 18.3642 104.741 18.3022C104.809 18.7133 104.891 19.1374 104.946 19.5681C104.956 19.6366 104.858 19.7769 104.793 19.7867C103.54 19.9922 102.287 20.2043 101.057 19.6496C99.9999 19.1733 99.4942 18.312 99.4746 17.219C99.4159 14.2337 99.4192 11.2484 99.3996 8.26635C99.3996 8.07059 99.3996 7.87483 99.3996 7.63666H97.0831V6.25657H99.3996C99.3996 5.63667 99.442 5.04614 99.3865 4.46539C99.3278 3.86181 99.5236 3.43114 99.9836 3.05267C100.352 2.74925 100.659 2.37405 101.086 1.93686L101.083 1.93359Z" fill="#1C75BC"/>
<path d="M137.575 6.18743H139.056C139.105 6.93783 139.151 7.67192 139.193 8.36034C139.601 7.93293 139.996 7.4468 140.462 7.04223C141.337 6.28531 142.41 6.13522 143.523 6.18416C143.627 6.18743 143.8 6.37013 143.807 6.4778C143.839 6.89542 143.82 7.31956 143.82 7.73717C143.219 7.80243 142.655 7.80895 142.12 7.93293C140.567 8.29508 139.575 9.40437 139.366 11.0194C139.258 11.8383 139.196 12.6703 139.187 13.499C139.161 15.3946 139.177 17.2869 139.177 19.1825V19.7175H137.575V6.18743Z" fill="#1C75BC"/>
</svg>
