<svg width="173" height="26" viewBox="0 0 173 26" fill="none" xmlns="http://www.w3.org/2000/svg">
<path fill-rule="evenodd" clip-rule="evenodd" d="M134.877 21.1156C137.134 21.1156 137.78 19.4713 137.78 17.4988V9.27491H143.258V18.1581C143.258 23.1994 140.032 25.3944 134.877 25.3944C129.719 25.3944 126.173 23.0908 126.173 18.1581V10.0428L125.207 14.5386C124.564 14.3189 124.238 14.2076 123.595 14.2076C121.017 14.2076 119.729 15.8518 119.729 18.3752V24.6265H114.251V18.595C113.282 22.8711 110.059 25.3944 104.901 25.3944C99.4225 25.3944 95.8763 22.323 95.8763 16.9507V16.9507C95.8763 16.0716 95.8763 15.1952 96.1992 14.4274H89.4269V24.6265H82.9856V0.50293H97.488V5.87519H89.4269V9.27491H96.8449V12.5634C98.4539 9.93152 101.354 8.39852 104.901 8.39852C110.059 8.39852 113.282 10.9191 114.251 15.3065V9.27491H119.729L120.049 11.9068C121.017 9.93151 122.632 9.27491 125.207 9.27491H131.976V17.4988C131.976 19.4713 132.619 21.1156 134.877 21.1156ZM101.68 16.9507C101.68 19.0345 102.969 20.8985 104.901 20.8985C107.158 20.8985 108.447 19.0345 108.447 16.9507C108.447 14.8669 107.158 12.8944 104.901 12.8944C102.969 12.8944 101.68 14.8669 101.68 16.9507ZM160.984 11.4672C162.273 9.49471 163.885 8.39855 166.788 8.39855C170.009 8.39855 172.592 10.0428 172.592 13.3313V24.6266H167.111V15.5263C167.111 13.8793 166.142 13.003 164.531 13.003C162.596 13.003 161.307 13.9879 161.307 16.6197V24.6266H155.504V15.5263C155.504 13.8793 154.861 13.003 152.929 13.003C151.314 13.003 150.026 13.9879 150.026 16.6197V24.6266H144.222V9.27493H150.026V10.9192C151.314 9.05516 152.929 8.39855 155.186 8.39855C157.761 8.39855 160.018 9.38346 160.984 11.4672Z" fill="#00A0DE"/>
<path fill-rule="evenodd" clip-rule="evenodd" d="M48.8173 0.50293V24.6265H62.3537L69.4449 24.6265L72.6655 20.8985L75.8916 24.6265H82.9841L76.2118 16.9507L82.9841 9.27489H75.8916L72.6655 12.6746L69.4449 9.27489H62.3524L54.6155 9.27491V5.87519H62.3537V0.50293H48.8173ZM62.3537 9.27636V14.4274H54.6155V19.2516H62.3537V24.6251L69.1247 16.9507L62.3537 9.27636Z" fill="#F47920"/>
<path d="M43.0126 0.50293V10.3711C41.7238 8.94661 40.1122 8.39852 38.1803 8.39852C34.6341 8.39852 31.7309 10.9191 30.7677 14.3189C29.4789 10.5908 26.5784 8.39852 22.3864 8.39852C18.8402 8.39852 16.2626 9.93152 14.6509 12.4548V9.27491H7.23828V5.87519H15.294V0.50293H0.791565V24.6265H7.23828V14.4274H14.0051C13.6823 15.1952 13.6823 15.9631 13.6823 16.8395C13.6823 21.8834 17.5514 25.3944 22.3864 25.3944C26.5784 25.3944 29.1533 23.4191 30.7677 19.9109H25.2896C24.3183 21.007 24.0008 21.3354 22.3864 21.3354C20.7747 21.3354 19.1603 19.8024 19.1603 18.0469H30.4421C31.0878 21.9947 33.9883 25.5029 38.5032 25.5029C40.1122 25.5029 42.0494 24.5153 43.0126 23.0908V24.6265H48.8163V0.50293H43.0126ZM19.4859 14.5386C19.8088 13.0029 20.7747 12.0153 22.3864 12.0153C24.0008 12.0153 25.2896 13.0029 25.6071 14.5386H19.4859ZM39.4664 20.8985C37.5346 20.8985 36.2458 19.0345 36.2458 16.9507C36.2458 14.7584 37.2144 12.7832 39.4664 12.7832C42.0494 12.7832 43.0126 14.7584 43.0126 16.9507C43.0126 19.0345 42.0494 20.8985 39.4664 20.8985Z" fill="#44328C"/>
</svg>
