<svg width="117" height="30" viewBox="0 0 117 30" fill="none" xmlns="http://www.w3.org/2000/svg">
<path fill-rule="evenodd" clip-rule="evenodd" d="M0.881958 0.309893C0.887416 0.341275 0.893422 0.372657 0.899438 0.404087C0.915863 0.489908 0.932359 0.576094 0.937947 0.663643C0.973936 1.23175 1.00798 1.79986 1.04204 2.3683C1.07542 2.92538 1.10882 3.48278 1.14409 4.04081C1.22426 5.31299 1.3051 6.58517 1.38593 7.857C1.46162 9.04801 1.53729 10.2387 1.61236 11.4288C1.67922 12.4881 1.74541 13.548 1.81161 14.6083L1.81162 14.6084C1.87393 15.6064 1.93626 16.6046 1.9992 17.6029C2.03953 18.233 2.08122 18.8631 2.12292 19.4932C2.22069 20.9705 2.31847 22.4482 2.39875 23.9271C2.47765 25.3828 3.28949 26.4288 4.6994 26.8284C8.28016 27.8438 11.8584 28.8643 15.4366 29.8874C15.9583 30.0376 16.4698 30.0427 16.9916 29.8874C17.7567 29.6619 18.5244 29.4427 19.2919 29.2236C19.6068 29.1337 19.9217 29.0438 20.2364 28.9534L20.7902 28.794L20.7902 28.794C23.0898 28.132 25.3911 27.4694 27.688 26.8004C28.9249 26.4415 29.7469 25.4719 29.8487 24.1791C29.9632 22.6964 30.054 21.2121 30.1449 19.7276C30.1732 19.2654 30.2014 18.8032 30.2304 18.3409L30.2523 17.9995C30.3748 16.0852 30.4972 14.173 30.6173 12.2585L30.6175 12.2556C30.7726 9.79305 30.9278 7.33049 31.0779 4.86792C31.1567 3.58181 31.229 2.29411 31.3013 1.00734L31.3013 1.00713L31.3014 1.00453C31.3202 0.670259 31.339 0.336052 31.3579 0.00195312H0.881958V0.307348V0.309893ZM30.5078 0.829065C30.5078 0.86749 30.5084 0.904117 30.509 0.939666V0.939779C30.5101 1.00778 30.5112 1.07185 30.5078 1.13701C30.4714 1.71811 30.4352 2.29921 30.399 2.88031V2.88033C30.3266 4.04252 30.2542 5.20471 30.1795 6.3669C30.128 7.17582 30.0756 7.98514 30.0232 8.79454C29.9438 10.0223 29.8643 11.2503 29.7876 12.4773C29.7075 13.7447 29.6279 15.0115 29.5484 16.2782C29.4689 17.545 29.3893 18.8118 29.3092 20.0791L29.3092 20.0792C29.2277 21.3873 29.1463 22.6954 29.0598 24.0009C28.991 25.0189 28.4312 25.7391 27.4564 26.0242C25.7613 26.519 24.0649 27.0072 22.3681 27.4955L22.3579 27.4984C21.7195 27.6821 21.081 27.8659 20.4425 28.05C20.1908 28.1227 19.939 28.1956 19.6873 28.2685L19.6872 28.2685C18.6435 28.5707 17.5995 28.873 16.5538 29.1621C16.3604 29.2156 16.1237 29.2308 15.9329 29.1774C12.2554 28.139 8.57792 27.0905 4.903 26.0369C3.8392 25.734 3.27168 24.9884 3.20551 23.8864C3.10795 22.2817 3.00647 20.677 2.90499 19.0724L2.90498 19.0722L2.90497 19.072C2.82378 17.7882 2.7426 16.5045 2.66343 15.2208C2.61121 14.3771 2.55981 13.5329 2.50841 12.6887L2.5084 12.6885L2.50839 12.6885C2.43204 11.4345 2.35568 10.1804 2.2766 8.92713C2.1239 6.52469 1.96866 4.12224 1.81341 1.72235C1.80196 1.53581 1.79366 1.34821 1.78514 1.15551L1.78514 1.1555C1.7804 1.04849 1.7756 0.939915 1.77015 0.829065H30.5078ZM20.7725 12.5715H18.0774C18.0774 12.1548 18.0747 11.742 18.0721 11.332L18.0721 11.3314C18.0658 10.3496 18.0596 9.38385 18.0901 8.41812C18.1105 7.75898 18.706 7.27289 19.3346 7.25762C19.9581 7.24235 20.518 7.69026 20.6223 8.32905C20.658 8.54282 20.7521 8.56318 20.9226 8.56064C21.5552 8.55773 22.1878 8.55815 22.8204 8.55856C23.2949 8.55887 23.7694 8.55919 24.2438 8.55809C24.299 8.55809 24.3542 8.55084 24.4194 8.54229C24.4563 8.53743 24.4965 8.53216 24.5416 8.52755C24.5257 8.41129 24.512 8.29832 24.4986 8.18784L24.4986 8.18774C24.4712 7.96211 24.4452 7.74684 24.4042 7.53502C23.9053 4.96207 21.5818 3.23658 18.8765 3.42236C16.4995 3.58524 14.3363 5.80954 14.237 8.25779C14.2 9.16545 14.2045 10.0756 14.2091 10.9856V10.9856V10.9857C14.2111 11.3871 14.2131 11.7886 14.2116 12.1898V12.574H11.5012V16.4017H20.7725V12.5715ZM18.0018 20.8502C17.755 23.2221 15.5892 25.2327 13.2377 25.3548H13.2402C10.7003 25.4846 8.4455 23.8024 7.90342 21.3643C7.84949 21.1155 7.81816 20.862 7.78503 20.5939C7.76969 20.4699 7.75398 20.3427 7.73546 20.2115H11.5987C11.6038 20.2317 11.609 20.252 11.6142 20.2725C11.6301 20.3347 11.6464 20.3983 11.6598 20.4634C11.7947 21.0869 12.3266 21.5145 12.9475 21.4992C13.5711 21.4839 14.1106 21.0335 14.1768 20.4023C14.2149 20.0369 14.2141 19.6664 14.2134 19.2961C14.2131 19.1481 14.2127 19 14.2149 18.8524C14.2166 18.639 14.2161 18.4255 14.2155 18.2039C14.2152 18.09 14.2149 17.974 14.2149 17.8548H18.0273C18.0307 17.8599 18.0352 17.865 18.0397 17.8701C18.0488 17.8803 18.0578 17.8905 18.0578 17.9006C18.0539 18.2037 18.0567 18.5073 18.0596 18.8108C18.0659 19.4934 18.0723 20.1755 18.0018 20.8502Z" fill="#01B1E0"/>
<path fill-rule="evenodd" clip-rule="evenodd" d="M93.8343 20.9001C94.2109 20.4064 94.2109 19.732 94.2109 19.1364V13.6724H96.2647V19.3095C96.2647 20.5158 96.1248 21.3658 95.3816 22.1751C94.3865 23.2211 93.1217 23.3789 92.4575 23.3789C91.7932 23.3789 90.5258 23.2262 89.5333 22.1802C88.7902 21.3709 88.6451 20.5184 88.6451 19.3146V13.675H90.704V19.1415C90.704 19.737 90.704 20.414 91.0806 20.9052C91.2944 21.1724 91.7092 21.4956 92.4575 21.4956C93.2057 21.4956 93.6205 21.1724 93.8343 20.9001ZM111.577 17.9631L116.016 13.6621H113.229L109.47 17.5534V6.90527H107.406V23.1116H109.47V18.4619L113.514 23.1116H116.364L111.577 17.9631ZM103.773 21.3327C104.137 21.1597 104.442 20.923 104.674 20.6278L104.668 20.6252L104.75 20.5285L106.152 21.7985L106.078 21.885C105.681 22.3507 105.177 22.7197 104.579 22.9768C103.986 23.2364 103.274 23.3662 102.551 23.3662C101.828 23.3662 101.151 23.244 100.538 23.0073C99.9221 22.7681 99.3825 22.4296 98.9346 21.9995C98.4842 21.5694 98.1253 21.0426 97.8683 20.4344C97.6087 19.8261 97.4789 19.1237 97.4789 18.3857C97.4789 17.6476 97.6062 16.9656 97.8581 16.3573C98.1075 15.7491 98.4638 15.2197 98.9143 14.782C99.3647 14.3468 99.9043 14.0032 100.518 13.7666C101.131 13.5299 101.8 13.4077 102.513 13.4077C103.172 13.4077 103.836 13.5426 104.49 13.8047C105.149 14.0694 105.679 14.4639 106.066 14.9703L106.134 15.0619L104.623 16.2861L104.551 16.1766C104.371 15.8967 104.088 15.6575 103.722 15.4666C103.35 15.2757 102.948 15.179 102.531 15.179C102.073 15.179 101.66 15.2655 101.309 15.4386C100.958 15.6117 100.652 15.8483 100.406 16.1385C100.159 16.4286 99.9653 16.7722 99.8355 17.159C99.7057 17.5458 99.637 17.9581 99.637 18.3857C99.637 18.8132 99.7057 19.2255 99.8355 19.6123C99.9653 19.9992 100.156 20.3427 100.406 20.6329C100.652 20.923 100.96 21.1571 101.319 21.3327C101.673 21.5032 102.098 21.5923 102.548 21.5923C102.999 21.5923 103.409 21.5058 103.773 21.3327ZM86.423 13.4102C85.7817 13.4102 85.1938 13.5858 84.6772 13.9268C84.2573 14.2068 83.9163 14.5605 83.6618 14.9881L83.649 13.6647H81.7021V23.1141H83.7661V18.1566C83.7661 17.7799 83.817 17.416 83.9163 17.0724C84.013 16.7339 84.1682 16.4285 84.3718 16.1689C84.5729 15.9119 84.8324 15.7032 85.1404 15.5505C85.4483 15.3978 85.8148 15.3215 86.2322 15.3215C86.5172 15.3215 86.7895 15.3546 87.0389 15.4156L87.1789 15.4513L87.268 13.5222L87.1763 13.4993C86.9702 13.4407 86.7183 13.4153 86.4256 13.4153L86.423 13.4102ZM77.795 13.6596V11.018H75.7539V13.6622H73.9877V15.3953H75.7539V20.2714C75.7539 21.2563 75.9982 22.0097 76.4767 22.511C76.9577 23.0124 77.655 23.2669 78.5534 23.2669C78.8435 23.2669 79.1285 23.244 79.4009 23.1981C79.6732 23.1498 79.9277 23.0862 80.1491 23.0073L80.2305 22.9793L80.1618 21.2182L80.0015 21.292C79.8539 21.3581 79.6884 21.4116 79.5027 21.4421C78.8359 21.5643 78.3294 21.4701 78.0775 21.1775C77.8917 20.9611 77.795 20.587 77.795 20.0628V15.3928H80.2432V13.6596H77.795Z" fill="#2D333A"/>
<path fill-rule="evenodd" clip-rule="evenodd" d="M43.6398 6.62988C45.1133 6.62988 46.2102 7.1236 46.8083 8.06015L46.8159 8.05761C47.2765 8.80582 47.3554 9.60749 47.3681 10.2285L47.3758 10.4855H45.322L45.3093 10.2488C45.2838 9.8289 45.1998 9.50569 45.0522 9.28682C44.8003 8.90762 44.3142 8.70657 43.6423 8.70657C42.9705 8.70657 42.4818 8.91017 42.2324 9.28682C41.9881 9.63294 41.9703 10.1216 41.9703 10.5466V13.6616H44.1691V15.5856H37.6286V13.6616H39.914V10.5466C39.914 9.65839 39.9547 8.7931 40.4738 8.05252C40.8352 7.52571 41.726 6.62988 43.6398 6.62988ZM54.2453 20.897C54.6245 20.4033 54.6245 19.7263 54.6245 19.1308V13.6617H56.6783V19.3039C56.6783 20.5102 56.5384 21.3628 55.7952 22.1721C54.8001 23.218 53.5353 23.3758 52.8685 23.3758C52.2017 23.3758 50.9343 23.2231 49.9418 22.1771C49.1987 21.3678 49.0511 20.5127 49.0511 19.309V13.6668H51.1125V19.1359C51.1125 19.7314 51.1125 20.4084 51.4917 20.9021C51.7029 21.1693 52.1203 21.4925 52.8685 21.4925C53.6167 21.4925 54.0316 21.1719 54.2453 20.897ZM47.3706 11.8751H45.3092V23.1086H47.3706V11.8751ZM39.649 20.6629C39.8653 20.3473 39.8984 19.9223 39.906 19.5431L39.8984 19.5406V16.4077H41.9471V19.5966C41.9394 20.5255 41.8376 21.2406 41.3872 21.8845C41.1123 22.2866 40.7229 22.6276 40.2598 22.8643C39.6922 23.1621 39.0051 23.3097 38.2238 23.3097C36.7503 23.3097 35.6534 22.8159 35.0553 21.8794C34.5438 21.0574 34.5031 20.1997 34.5031 19.3981V18.7058H36.5645V19.3981C36.5645 19.6118 36.5645 20.2633 36.8266 20.6629C37.076 21.0421 37.5646 21.2431 38.2365 21.2431C38.9084 21.2431 39.3996 21.0421 39.649 20.6629ZM69.4736 14.5321C68.8755 13.9671 67.9746 13.4479 66.6563 13.4479C65.4118 13.4479 64.2717 13.8933 63.4369 14.7026C62.5233 15.5984 62.0423 16.8632 62.0423 18.38C62.0423 19.8968 62.5309 21.21 63.4522 22.1109C64.2819 22.9279 65.422 23.3758 66.6589 23.3758C67.9568 23.3758 68.8653 22.8464 69.4761 22.2687V23.1188H71.5376V6.89208H69.4736V14.5321ZM66.8294 21.4925C65.1981 21.4925 64.1419 20.2684 64.1419 18.3775C64.1419 16.2703 65.4882 15.3286 66.8294 15.3286C68.1451 15.3286 69.5601 16.2881 69.5601 18.4004C69.5601 20.5127 68.1451 21.4925 66.8294 21.4925ZM58.4893 13.6591H60.5507V23.1111H58.4893V13.6591ZM59.5132 9.17236C58.7675 9.17236 58.1593 9.77806 58.1593 10.5237C58.1593 11.2694 58.7675 11.8751 59.5132 11.8751C60.2588 11.8751 60.8671 11.2694 60.8671 10.5237C60.8671 9.77806 60.2588 9.17236 59.5132 9.17236Z" fill="#01B1E2"/>
</svg>
