<svg width="95" height="30" viewBox="0 0 95 30" fill="none" xmlns="http://www.w3.org/2000/svg">
<path fill-rule="evenodd" clip-rule="evenodd" d="M55.2269 29.0559C56.0373 29.0559 56.8435 28.708 57.4287 28.1023L57.5188 28.0205L58.2186 28.708L58.1286 28.794C57.6702 29.2442 56.6839 30.0013 55.2188 30.0013C53.3034 30.0013 51.8587 28.6139 51.8587 26.7763C51.8587 24.9715 53.3198 23.5596 55.1819 23.5596C56.2214 23.5596 57.2609 23.9525 57.9608 24.6032L58.0549 24.6891L57.3469 25.3849L57.2609 25.303C56.7371 24.8037 55.9472 24.4968 55.1983 24.4968C53.9009 24.4968 52.9228 25.479 52.9228 26.7804C52.9228 28.0778 53.9132 29.0559 55.2269 29.0559ZM5.97829 25.2497C5.48718 24.7913 4.69731 24.4967 3.96883 24.4967C2.68376 24.4967 1.6729 25.4994 1.67699 26.7844C1.67699 27.914 2.48732 29.0599 4.0425 29.0599C4.70549 29.0599 5.39714 28.8594 5.81868 28.5442V27.3287H3.90744V26.3915H6.78043V29.0435L6.73132 29.0804C5.99875 29.6451 4.95105 29.9971 3.99748 29.9971C2.09852 29.9971 0.608826 28.5811 0.608826 26.7722C0.608826 24.9714 2.08215 23.5595 3.96065 23.5636C4.9224 23.5636 5.9128 23.9319 6.68221 24.5826L6.78862 24.6727L6.06014 25.3275L5.97829 25.2497ZM13.6265 24.3454C13.9417 24.6851 14.1095 25.1107 14.1095 25.5854C14.1095 26.3753 13.6102 27.0219 12.808 27.2961L14.2895 29.8458H13.1109L11.7562 27.4476H9.55034V29.8458H8.51901V23.711H11.8872C12.6525 23.711 13.2214 23.9198 13.6265 24.3454ZM9.54624 26.5063H12.0836C12.6484 26.5063 13.0863 26.097 13.0904 25.5773C13.0904 25.3563 13.0045 25.1434 12.8449 24.9756C12.6198 24.7506 12.3333 24.6523 11.8872 24.6523H9.54624V26.5063ZM17.8539 23.711L15.0096 29.8458H16.09L16.884 28.0778H19.6669L20.4691 29.8458H21.5986L18.7543 23.711H17.8539ZM17.2728 27.202L18.2714 24.992L19.27 27.202H17.2728ZM23.5082 23.711L27.081 28.0205V23.711H28.1123V29.8458H27.2161L23.6473 25.5322V29.8458H22.616V23.711H23.5082ZM32.7494 23.711H30.0114V29.8458H32.7494C33.9035 29.8458 34.4764 29.5389 35.033 29.0355C35.606 28.4789 35.9375 27.6563 35.9375 26.7723C35.9375 25.9129 35.6346 25.1271 35.078 24.5664C34.4396 23.9607 33.7643 23.711 32.7494 23.711ZM34.2595 28.3684C33.8871 28.6835 33.5597 28.9086 32.7248 28.9086H31.0428V24.6523H32.7248C33.5147 24.6523 33.883 24.8488 34.28 25.2089C34.6647 25.6018 34.8775 26.1584 34.8775 26.7723C34.8734 27.3944 34.6442 27.9796 34.2595 28.3684ZM42.2127 28.4994L44.3695 23.711H45.4908L42.6342 29.8458H41.7502L38.8936 23.711H40.0477L42.2127 28.4994ZM47.832 23.711L44.9877 29.8458H46.0681L46.8621 28.0778H49.6451L50.4472 29.8458H51.5727L48.7283 23.711H47.832ZM47.255 27.202L48.2536 24.992L49.2563 27.202H47.255ZM61.5038 23.711L58.6595 29.8458H59.744L60.538 28.0778H63.3209L64.1231 29.8458H65.2485L62.4042 23.711H61.5038ZM60.9268 27.202L61.9253 24.992L62.9239 27.202H60.9268ZM66.9294 24.6523H64.6417V23.711H70.2403V24.6523H67.9607V29.8458H66.9294V24.6523ZM72.2914 23.711H71.2601V29.8458H72.2914V23.711ZM73.5846 26.7641C73.5846 24.9674 75.0743 23.5596 76.9732 23.5596C78.8476 23.5596 80.3783 24.9961 80.3783 26.7641C80.3783 28.5484 78.8517 29.9972 76.9732 29.9972C75.0743 29.9972 73.5846 28.5771 73.5846 26.7641ZM74.6527 26.7641C74.6527 28.0532 75.6718 29.06 76.9732 29.06C78.2829 29.06 79.3101 28.0491 79.3142 26.7641C79.3142 25.5117 78.2624 24.4968 76.9732 24.4968C75.6718 24.4968 74.6527 25.4913 74.6527 26.7641ZM86.3361 28.0205L82.7674 23.711H81.8752V29.8458H82.9025V25.5322L86.4753 29.8458H87.3675V23.711H86.3361V28.0205ZM91.7551 26.0765L91.8615 26.0847L91.8622 26.0847C92.8977 26.1584 94.6281 26.2815 94.6322 27.955C94.6322 29.2319 93.6049 29.9972 91.8779 29.9972C90.6542 29.9972 89.6147 29.592 88.702 28.7571L88.612 28.6753L89.2504 27.9509L89.3446 28.0368C89.8316 28.487 90.6255 29.0845 91.8942 29.0845C92.7169 29.0845 93.6009 28.8144 93.6009 28.0532C93.6009 27.3452 92.9706 27.1651 91.8124 27.0833C90.5519 27.0055 88.9844 26.9032 88.9844 25.4299C88.9844 24.0507 90.2613 23.5596 91.4523 23.5596C92.6514 23.5596 93.6336 24.0179 94.1534 24.4436L94.2516 24.5213L93.6172 25.2498L93.5231 25.168C93.343 25.0042 92.6514 24.4681 91.4236 24.4681C90.7401 24.4681 90.0117 24.7014 90.0117 25.3562C90.0117 25.9333 90.7033 26.0192 91.7551 26.0765Z" fill="#03AFB9"/>
<path fill-rule="evenodd" clip-rule="evenodd" d="M34.2172 3.84702C35.2731 3.84702 36.0507 2.99577 36.0507 1.85803C36.0507 0.851256 35.2772 0 34.2172 0C33.1327 0 32.3838 0.851256 32.3838 1.93988C32.3879 3.07353 33.1327 3.84702 34.2172 3.84702ZM39.0438 0.257784H43.2469V16.8573L44.3314 17.0128V17.7904H39.0438V17.0128L40.0997 16.8573V1.1868L39.0438 1.03537V0.257784ZM23.4359 1.6289L24.6759 1.78442V8.18521H17.3175V1.78442L18.4552 1.6289V0.773553H12.8033V1.6289L13.937 1.78442V16.7551L12.8033 16.9106V17.7905H18.4552V16.9106L17.3175 16.7551V9.94093H24.6759V16.7551L23.4359 16.9106V17.7905H29.1859V16.9106L28.0277 16.7551V1.78442L29.1859 1.6289V0.773553H23.4359V1.6289ZM35.6596 5.68465H31.4565V6.45814L32.537 6.61366V16.8574L31.4565 17.0129V17.7905H36.7442V17.0129L35.6596 16.8574V5.68465ZM50.759 6.8183V14.0212C50.759 15.8793 51.1478 16.4727 52.8258 16.4727C53.4438 16.4727 53.984 16.4727 54.4997 16.3417V17.1684C52.9772 17.7087 51.6881 17.9419 50.6035 17.9419C48.1807 17.9419 47.6119 16.8328 47.6119 14.717V6.8183H45.3937V5.68057H47.6896V3.15136L50.759 2.22234V5.68057H53.5993V6.8183H50.759ZM81.3465 16.8573V9.58075C81.3465 6.84281 80.2906 5.44724 77.9128 5.44724C76.1366 5.44724 74.8679 6.2985 73.5542 7.35848V5.68052H69.3225V6.53178L70.4029 6.68729V16.8573L69.3225 17.0129V17.7864H74.6387V17.0129L73.5542 16.8573V8.21383C74.3236 7.66951 75.3877 7.20705 76.0548 7.20705C77.4994 7.20705 78.1993 8.05831 78.1993 9.96954V16.8573L77.1434 17.0129V17.7864H82.431V17.0129L81.3465 16.8573ZM54.9601 11.852C54.9601 7.9559 57.4893 5.34893 61.4632 5.34893C65.3839 5.34893 67.7576 7.69806 67.7576 11.852C67.7576 15.6213 65.2324 18.1505 61.2545 18.1505C57.4156 18.1505 54.9601 16.4971 54.9601 11.852ZM58.4183 11.7784C58.4183 15.6213 59.552 17.2215 61.3322 17.2215C63.2435 17.2215 64.3034 15.6991 64.2993 11.7784C64.2993 7.95999 63.1657 6.28203 61.3322 6.28203C59.552 6.28203 58.4183 7.88223 58.4183 11.7784Z" fill="#175B7E"/>
</svg>
