<svg width="143" height="20" viewBox="0 0 143 20" fill="none" xmlns="http://www.w3.org/2000/svg">
<path fill-rule="evenodd" clip-rule="evenodd" d="M62.4815 10.2945V9.95549H55.35C55.35 10.0566 55.3515 10.1558 55.3529 10.2535V10.2538V10.2541V10.2544V10.2548V10.2551C55.3561 10.4794 55.3592 10.6959 55.3449 10.91C55.3268 11.1708 55.4147 11.2438 55.6733 11.2438C56.9297 11.236 58.1848 11.2369 59.4405 11.2379H59.4408C59.8595 11.2383 60.2783 11.2386 60.6973 11.2386H61.0697C61.072 11.2758 61.0742 11.309 61.0763 11.3394L61.0763 11.3396L61.0763 11.3404C61.0813 11.4139 61.0852 11.471 61.0852 11.5281C61.0852 11.9878 61.085 12.4477 61.0847 12.9076V12.9078V12.908V12.9082V12.9084V12.9086C61.0838 14.5199 61.0829 16.1321 61.093 17.7427C61.093 17.98 61.0025 18.0687 60.8008 18.1339C58.3935 18.9084 55.9551 19.0206 53.5116 18.3764C51.1818 17.7636 49.5942 16.2744 48.8469 13.9691C48.0763 11.5906 48.0065 9.16007 48.715 6.75558C49.3977 4.44497 50.8508 2.76809 53.1056 1.87357C54.926 1.15118 56.8187 1.10424 58.7115 1.49021C59.4141 1.63302 60.1018 1.84726 60.8013 2.06516L60.8014 2.06519C61.111 2.16164 61.4229 2.25881 61.7394 2.35082C61.7559 2.31431 61.7758 2.27079 61.7979 2.22233L61.7983 2.22162L61.7991 2.21973C61.8495 2.10942 61.9114 1.97386 61.9721 1.83706C62.0359 1.69193 62.0983 1.5468 62.1631 1.3962L62.1648 1.39243L62.1655 1.39062L62.1666 1.38822L62.1676 1.38582C62.1934 1.32599 62.2195 1.26527 62.2462 1.20334C62.2055 1.18424 62.1689 1.1662 62.1348 1.14933C62.0756 1.12012 62.0236 1.09444 61.9695 1.07295C59.4407 0.016742 56.8187 -0.277952 54.1451 0.280141C50.9439 0.947766 48.6504 2.80199 47.492 5.91583C46.4887 8.6072 46.5301 11.3638 47.342 14.089C48.1953 16.9577 50.0958 18.8146 52.9763 19.6021C54.4761 20.0116 56.0094 20.0559 57.5557 19.9438C59.1511 19.829 60.6973 19.5004 62.1919 18.9293C62.4195 18.8432 62.4944 18.7259 62.4944 18.4755C62.4858 16.2022 62.4862 13.9289 62.4865 11.6572V11.657V11.6568V11.6566V11.6564C62.4866 11.2024 62.4867 10.7484 62.4867 10.2945H62.4815ZM34.8744 0.718217C33.2221 0.00104145 31.4819 -0.111099 29.7107 0.136653C27.2697 0.478289 25.3899 1.69879 24.0944 3.80859C23.1325 5.37594 22.7447 7.11281 22.6361 8.93574C22.5197 10.863 22.6619 12.7615 23.329 14.5845C24.0789 16.6343 25.3485 18.2486 27.3473 19.1953C29.0642 20.0089 30.8794 20.1445 32.7334 19.8811C35.5699 19.4795 37.561 17.92 38.7814 15.3382C39.5804 13.6508 39.8131 11.8462 39.8209 10.6961C39.8209 8.36461 39.627 6.94851 39.1926 5.67324C38.4272 3.42783 37.0826 1.67793 34.8744 0.718217ZM37.6049 14.5141C36.6249 16.9994 34.8175 18.379 32.1697 18.6424C30.6519 18.7936 29.1754 18.6554 27.7998 17.9487C26.0803 17.0646 25.108 15.5703 24.5754 13.7604C24.0634 12.0235 24.0013 10.2423 24.1668 8.44806C24.2909 7.11281 24.5935 5.8245 25.2528 4.64573C26.3182 2.74195 27.9498 1.69357 30.0959 1.44061C31.3836 1.28674 32.6558 1.34672 33.8866 1.77703C35.844 2.46291 37.0464 3.89204 37.7213 5.81929C38.1971 7.17801 38.3315 8.5915 38.3444 10.0389C38.3263 11.5567 38.1764 13.0719 37.6075 14.5141H37.6049ZM13.2536 2.47431L13.2537 2.46461C13.2539 1.88941 13.2542 1.31422 13.2542 0.739018H13.2567V0.35044H14.6039V19.7116H13.2593V10.2109H2.03721V19.7168H0.6978V0.355655H2.02946V8.91221C2.08212 8.91425 2.13082 8.91709 2.1771 8.91979L2.17712 8.9198L2.17722 8.9198L2.17724 8.9198C2.24907 8.924 2.3151 8.92785 2.38112 8.92785C2.9649 8.92785 3.54876 8.92778 4.13267 8.92771H4.13281H4.13296H4.1331H4.13325C7.05354 8.92735 9.97504 8.92698 12.8947 8.93568C13.2024 8.93568 13.2619 8.83658 13.2619 8.5471C13.2519 6.52284 13.2528 4.49857 13.2536 2.47431ZM97.273 0.259307C97.03 0.225404 96.9369 0.34276 96.8541 0.551392C94.3899 6.76082 91.9231 12.9677 89.4537 19.1745C89.4095 19.286 89.3675 19.3987 89.3204 19.5252L89.3203 19.5254C89.2958 19.591 89.27 19.6604 89.2417 19.7352C89.3751 19.7352 89.5041 19.7337 89.6301 19.7323H89.6301C89.9144 19.729 90.1831 19.7259 90.4518 19.7404C90.6923 19.7534 90.788 19.6543 90.8707 19.4431C91.3501 18.2106 91.8331 16.98 92.3159 15.7495L92.3161 15.7491L92.3163 15.7487L92.3165 15.7482L92.3182 15.7437L92.3185 15.743L92.3187 15.7424C92.6605 14.8715 93.0023 14.0006 93.3427 13.1293C93.4022 12.9755 93.4539 12.8738 93.6607 12.8764C96.112 12.8868 98.5607 12.8842 101.012 12.879C101.17 12.879 101.25 12.9207 101.304 13.0772C101.418 13.3908 101.541 13.701 101.664 14.0115L101.664 14.0116L101.664 14.0117L101.664 14.0118C101.728 14.1738 101.792 14.3358 101.855 14.4985L102.128 15.1977L102.131 15.2062L102.133 15.212C102.684 16.6256 103.236 18.0405 103.792 19.4535C103.833 19.5578 103.921 19.7195 103.993 19.7221C104.349 19.74 104.705 19.7382 105.083 19.7364C105.202 19.7358 105.323 19.7352 105.447 19.7352C103.74 15.3529 102.043 10.9999 100.351 6.65575L100.301 6.52802C99.4866 4.43894 98.6733 2.35187 97.86 0.264522C97.7899 0.264522 97.7233 0.266643 97.659 0.268687C97.5217 0.273054 97.3955 0.277071 97.2704 0.259307H97.273ZM95.5699 7.42151L95.5723 7.41532L95.5757 7.4064C96.1893 5.80766 96.7998 4.21657 97.4075 2.63511C98.1487 4.62456 98.8993 6.63655 99.6578 8.66948L99.6756 8.71709L99.6929 8.76351C100.047 9.71356 100.403 10.6682 100.761 11.6272H93.9555C94.4959 10.2203 95.034 8.81801 95.5699 7.42151ZM77.7419 9.53381C78.7701 9.94793 79.7955 10.3609 80.7053 11.0142L80.7079 11.0168C82.0991 12.0156 82.624 13.3978 82.536 15.0773C82.4016 17.6617 80.5502 19.1978 78.3265 19.7455C77.1629 20.0297 75.976 20.0297 74.7866 19.9671C73.5971 19.9045 72.4206 19.7872 71.2751 19.4403C70.8511 19.3099 70.639 19.0265 70.639 18.5902V17.8834C70.8482 17.941 71.0534 18.002 71.2565 18.0623C71.6886 18.1908 72.1112 18.3164 72.5422 18.3998C74.2979 18.7362 76.0665 18.9005 77.83 18.4989C79.1332 18.2042 80.2141 17.534 80.7777 16.2509C81.3492 14.9521 81.2794 13.0118 79.5573 11.9139C78.4816 11.2306 77.3025 10.7977 76.1157 10.3779C74.9366 9.96059 73.7781 9.49638 72.7361 8.78181C71.3243 7.81428 70.8175 6.42165 70.8718 4.76824C70.9545 2.26725 72.8783 0.809432 74.7219 0.3374C76.8784 -0.215476 79.0039 0.058354 81.0932 0.728587C81.29 0.792242 81.4827 0.869337 81.6753 0.946365L81.6756 0.946472C81.7512 0.976705 81.8268 1.00693 81.9025 1.03632C81.9287 1.04689 81.9502 1.06342 81.9774 1.08429C81.9904 1.09431 82.0047 1.10532 82.0215 1.11717C81.9545 1.27738 81.8875 1.43667 81.8214 1.59373L81.8201 1.59692L81.8185 1.60068C81.7275 1.81703 81.6384 2.02908 81.5535 2.23335C81.3037 2.15852 81.0573 2.08077 80.8126 2.00356C80.29 1.83863 79.7753 1.6762 79.2522 1.55008C77.861 1.21366 76.4518 1.10934 75.0581 1.51878C73.7911 1.89171 72.7645 2.59846 72.4439 3.965C71.9966 5.87921 72.5499 7.21967 74.1014 8.00465C74.9794 8.44842 75.9014 8.80944 76.8221 9.16994L76.8226 9.17012L76.8246 9.17093C77.1043 9.28042 77.3838 9.38988 77.6619 9.50159L77.7419 9.53381ZM128.366 0.353203V1.64412H134.603V19.7091H135.981V1.61543H142.208V0.353203H128.366ZM113.292 0.35044H114.616V18.4415H123.783V19.7116H113.292V0.35044Z" fill="black"/>
</svg>
