<svg width="193" height="26" viewBox="0 0 193 26" fill="none" xmlns="http://www.w3.org/2000/svg">
<path fill-rule="evenodd" clip-rule="evenodd" d="M53.2919 17.946C51.977 17.9156 51.9079 17.0482 51.9272 16.0592C51.9403 15.4521 51.9328 14.8446 51.9253 14.2373V14.2372V14.2371V14.237V14.2369V14.2368V14.2367V14.2365V14.2364V14.2363V14.2362V14.2361V14.236V14.2359V14.2358V14.2357C51.9138 13.2989 51.9023 12.3626 51.9659 11.4294C52.2256 7.61451 49.3499 6.45705 46.3499 7.92666C46.2664 7.96718 46.1817 8.00643 46.097 8.04572L46.0969 8.04576C45.8062 8.18056 45.5145 8.31579 45.2643 8.50401C44.5626 9.03163 44.0599 9.27196 44.1565 8.02611L44.1588 7.99634C44.1783 7.74107 44.2027 7.42228 43.8996 7.31064C43.6196 7.20998 43.5076 7.41265 43.4018 7.60423C43.374 7.65451 43.3466 7.70403 43.3168 7.7471C42.814 8.47638 42.1759 9.03439 41.3333 9.36312C40.8941 9.53439 40.6731 9.87693 41.2892 10.0482C42.4159 10.3592 42.4056 11.1768 42.3945 12.0565L42.3941 12.0896C42.3899 12.4179 42.3833 12.7466 42.3766 13.0754C42.353 14.2463 42.3293 15.4189 42.4135 16.5813C42.5164 18.0069 41.5144 18.0625 40.6514 18.1105C40.6113 18.1127 40.5716 18.1149 40.5322 18.1172C39.5405 18.1725 38.8416 17.783 38.9466 16.5068C39.0958 14.7001 39.1234 12.8769 39.0654 11.0648C38.9798 8.40456 36.8389 7.00401 34.2892 7.85207C33.4963 8.11727 32.8223 8.57859 32.1842 9.10898C32.0918 9.18556 32.0128 9.29776 31.9344 9.40911C31.7669 9.64723 31.602 9.88149 31.314 9.75539C31.1697 9.69222 31.18 9.23662 31.1887 8.85653V8.8565V8.85646V8.85642V8.85638V8.85633V8.85629V8.85625V8.8562V8.85616V8.85612V8.85607V8.85602V8.85597V8.85592V8.85587C31.1906 8.77078 31.1925 8.6895 31.1925 8.61727C31.1908 7.11341 31.1944 5.60956 31.1981 4.10571C31.2003 3.20349 31.2025 2.30127 31.2035 1.39905C31.2035 0.871428 31.2008 0.299607 30.3969 0.575849C29.7325 0.803887 29.0792 1.05711 28.4252 1.31062L28.4249 1.31072C28.16 1.41341 27.8949 1.51615 27.629 1.61728C29.5603 1.7815 29.5302 3.04606 29.5008 4.28034L29.5007 4.28048C29.497 4.43728 29.4933 4.5936 29.4936 4.74711C29.4966 6.10136 29.4894 7.45525 29.4822 8.80891C29.4696 11.1774 29.4569 13.5451 29.4991 15.9128C29.524 17.2968 29.4024 18.3603 27.5074 18.2581C27.5375 18.3141 27.5682 18.3708 27.5989 18.4275L27.599 18.4276L27.599 18.4277L27.5991 18.4278L27.5991 18.4279L27.5992 18.428L27.5992 18.4281L27.5993 18.4282L27.5993 18.4283L27.6 18.4294L27.6009 18.4311L27.601 18.4313C27.6317 18.488 27.6624 18.5447 27.6925 18.6007C28.1106 18.6007 28.5285 18.6016 28.9463 18.6026C30.1158 18.6053 31.2846 18.6079 32.4549 18.5896C32.541 18.5882 32.6428 18.604 32.7473 18.6202C33.042 18.6659 33.3583 18.7149 33.4052 18.3907C33.4632 18.0012 32.9052 17.9515 32.5516 17.9294C31.4522 17.8631 31.1041 17.3051 31.1621 16.2388C31.2067 15.434 31.1953 14.6269 31.1838 13.8199C31.174 13.1283 31.1642 12.4368 31.1897 11.7471C31.2422 10.2692 33.1096 8.79406 34.7836 8.81616C36.4632 8.83826 37.361 9.75262 37.419 11.6338C37.4469 12.5496 37.4348 13.4662 37.4227 14.3831C37.4132 15.101 37.4038 15.8191 37.4135 16.5371C37.4245 17.3521 37.2864 17.9764 36.3057 18.0758C36.1068 18.0951 35.756 18.1697 35.7919 18.4183C35.835 18.7135 36.0764 18.6827 36.2946 18.6548C36.3561 18.647 36.4158 18.6393 36.4687 18.6393C39.4521 18.6421 42.4383 18.6393 45.4217 18.6172C45.4863 18.6172 45.5629 18.6291 45.6426 18.6414C45.9003 18.6813 46.19 18.7262 46.209 18.3907C46.2256 18.1117 45.7422 17.9791 45.4355 17.9653C44.3416 17.9101 44.1096 17.2692 44.1179 16.3217C44.1244 15.4076 44.097 14.4926 44.0695 13.5771L44.0695 13.5766C44.0507 12.9485 44.0318 12.3202 44.0239 11.6918C44.0019 9.91008 45.4797 8.63108 47.5571 8.60069C49.2698 8.57583 50.2422 9.5482 50.3112 11.4681C50.3375 12.1932 50.3319 12.9197 50.3264 13.6463C50.3209 14.3728 50.3154 15.0993 50.3416 15.8244L50.3441 15.8942C50.3853 17.0311 50.4236 18.0876 48.7587 17.9902C48.5378 17.9764 48.2643 18.1393 48.2836 18.3769C48.3034 18.6345 48.5541 18.63 48.763 18.6264L48.7633 18.6264C48.7873 18.6259 48.8108 18.6255 48.8333 18.6255C50.3029 18.6255 51.7725 18.6228 53.2422 18.6145C53.2603 18.6145 53.2789 18.6147 53.298 18.6149C53.5088 18.6173 53.7649 18.6201 53.7725 18.3465C53.7808 18.109 53.546 17.9515 53.2946 17.946H53.2919ZM187.978 8.1835H192.153V8.17798C192.34 8.17798 192.57 8.22494 192.545 8.42383C192.528 8.53986 192.291 8.70008 192.136 8.71941C191.188 8.84096 190.912 9.54538 190.63 10.2912C189.683 12.7987 188.731 15.305 187.778 17.811C187.247 19.2087 186.716 20.6063 186.186 22.0039C185.669 23.3713 185.089 24.7 183.746 25.5039H182.644C182.199 25.1144 181.915 24.6558 182.23 24.0757C182.531 23.5232 183.097 23.573 183.575 23.7166C184.354 23.9514 184.78 23.6144 185.141 23.0011C186.194 21.2166 186.788 19.4846 185.777 17.3686C184.978 15.6982 184.357 13.944 183.737 12.1906L183.736 12.1892L183.736 12.188C183.492 11.4977 183.247 10.8076 182.992 10.1227C182.625 9.13654 182.244 8.42936 180.923 9.04814C180.437 9.27678 179.808 9.23948 179.202 9.20358C179.047 9.19437 178.893 9.18525 178.744 9.18074C177.827 9.15311 177.401 9.47079 177.432 10.4404C177.461 11.3555 177.457 12.2721 177.453 13.1886C177.449 13.9986 177.445 14.8085 177.465 15.6172C177.517 17.852 178.271 18.3465 180.437 17.6559C180.51 17.6321 180.588 17.5801 180.666 17.5277C180.843 17.4095 181.021 17.2899 181.15 17.4929C181.344 17.8014 181.047 17.9636 180.804 18.0966L180.804 18.0967C180.76 18.1209 180.717 18.144 180.68 18.1669C179.559 18.8575 178.316 18.9349 177.1 18.5813C176.164 18.3078 175.807 17.5122 175.813 16.5481C175.818 15.6924 175.816 14.8361 175.815 13.9798C175.813 12.8375 175.811 11.6951 175.824 10.5537C175.832 9.80228 175.818 9.15311 174.758 9.33267C174.559 9.36858 174.249 9.41278 174.235 9.0951C174.23 8.96803 174.423 8.77742 174.57 8.70836C175.716 8.16417 176.412 7.24704 176.849 6.10064C176.864 6.06086 176.878 6.01776 176.892 5.97391C176.962 5.75583 177.037 5.5192 177.329 5.5813C177.436 5.60406 177.5 5.9024 177.546 6.11587L177.548 6.12349L177.553 6.14484L177.559 6.17246C177.613 6.42375 177.583 6.70467 177.554 6.98194C177.502 7.46667 177.452 7.94026 177.854 8.22494C178.223 8.48603 178.701 8.38999 179.187 8.29223C179.463 8.23691 179.741 8.18104 180.003 8.18903C180.713 8.20973 181.424 8.19805 182.145 8.18622C183.54 8.16331 184.972 8.1398 186.498 8.34925L186.488 8.35368C184.459 9.31612 184.441 9.32476 185.139 11.3741C185.523 12.5019 185.93 13.6226 186.337 14.7432C186.55 15.3298 186.763 15.9164 186.973 16.5039C186.989 16.5483 187.003 16.5965 187.017 16.6455C187.084 16.8745 187.157 17.1234 187.412 17.1006C187.575 17.0868 187.752 16.7249 187.838 16.4901C188.395 14.9653 188.937 13.4368 189.479 11.9076L189.48 11.9046C189.605 11.5537 189.729 11.2029 189.854 10.852C190.246 9.75256 190.188 8.87963 188.746 8.6835C188.656 8.67162 188.573 8.60971 188.408 8.4875C188.304 8.41078 188.168 8.31029 187.978 8.1835ZM0.960083 21.6918C1.90759 21.0261 2.77223 20.841 3.72251 21.8051C4.84129 22.9377 6.14239 22.5371 7.41863 21.9073C6.06228 24.0288 3.36615 24.2636 0.960083 22.5095V21.6918ZM127.112 14.2574C127.117 14.6293 127.122 15.0012 127.087 15.3686V15.3741C126.949 16.8299 126.938 18.1862 129.024 18.3934C126.814 18.3217 124.65 18.3917 122.503 18.4611C121.258 18.5014 120.018 18.5415 118.778 18.5536C118.741 18.554 118.7 18.5563 118.656 18.5586C118.386 18.5732 118.032 18.5925 118.051 18.1973C118.063 17.9237 118.363 17.9233 118.613 17.9229C118.658 17.9228 118.702 17.9228 118.742 17.9211C119.573 17.8879 120.007 17.526 119.982 16.6531C119.961 15.8631 119.952 15.0731 119.943 14.2831C119.933 13.3494 119.922 12.4156 119.891 11.4818C119.827 9.55643 119.018 8.7719 117.211 8.794C115.126 8.81887 113.78 9.92936 113.797 11.6504C113.802 12.2505 113.823 12.8512 113.844 13.4519C113.877 14.3939 113.91 15.3362 113.883 16.2774C113.855 17.2719 114.187 17.8216 115.203 17.9211C115.219 17.9227 115.236 17.9244 115.253 17.926C115.517 17.952 115.863 17.9861 115.863 18.2691C115.863 18.5831 115.594 18.5578 115.364 18.5362C115.308 18.531 115.255 18.526 115.209 18.526C113.786 18.5177 112.363 18.4901 110.941 18.4597C110.92 18.4594 110.897 18.4597 110.874 18.46C110.718 18.4623 110.534 18.465 110.51 18.2553C110.482 18.015 110.711 17.9597 110.883 17.968C112.068 18.0316 112.22 17.2664 112.211 16.3713C112.198 14.7387 112.181 13.1034 112.159 11.4708L112.158 11.4234C112.154 11.0676 112.148 10.6442 111.783 10.5067C110.253 9.92594 110.814 9.64552 111.445 9.33049C111.621 9.24244 111.803 9.15168 111.946 9.05091C112.262 8.827 112.524 8.52785 112.787 8.22886C112.887 8.11472 112.987 8.0006 113.09 7.89069C113.139 7.8378 113.18 7.76979 113.222 7.70166C113.328 7.52783 113.435 7.35317 113.667 7.4266C113.968 7.52319 113.935 7.86474 113.91 8.12221L113.908 8.14483C113.793 9.38522 114.31 9.06778 114.944 8.67809L114.994 8.64745L115.021 8.63102C116.164 7.92937 117.372 7.4045 118.772 7.515C120.22 7.63102 121.22 8.54539 121.432 9.97908C121.7 11.7811 121.639 13.5877 121.578 15.3967V15.3968C121.572 15.5844 121.565 15.7721 121.559 15.9597C121.507 17.5979 121.91 17.9791 123.54 17.9791C125.015 17.9791 125.408 17.584 125.435 15.9956C125.451 15.0958 125.456 14.196 125.46 13.2962C125.464 12.5165 125.468 11.7367 125.479 10.957C125.49 10.1227 125.338 9.41831 124.385 9.16417C124.228 9.11997 123.99 9.00395 123.974 8.89621C123.937 8.6517 124.15 8.58866 124.331 8.53508C124.369 8.52389 124.405 8.51312 124.438 8.50119C125.054 8.27743 125.57 7.92108 126.048 7.48738C126.123 7.41942 126.192 7.32669 126.262 7.23325C126.433 7.00386 126.608 6.77016 126.869 6.88793C127.191 7.034 127.159 7.39387 127.129 7.73374C127.12 7.83096 127.112 7.92653 127.112 8.015C127.118 9.4797 127.115 10.9429 127.112 12.4068C127.111 12.8948 127.11 13.383 127.109 13.8713C127.109 13.9999 127.111 14.1287 127.112 14.2574ZM111.126 1.97363C111.298 1.9681 111.53 1.91285 111.447 1.65871C111.422 1.5786 111.234 1.49849 111.121 1.49849C109.797 1.48928 108.471 1.48966 107.147 1.49005H107.147H107.147H107.147H107.146H107.146H107.146H107.146H107.146H107.146H107.146H107.145H107.145H107.145C106.881 1.49013 106.617 1.4902 106.353 1.4902C106.582 1.62847 106.822 1.74417 107.057 1.85754C107.887 2.25831 108.656 2.62988 108.712 3.86589C108.731 4.26707 108.75 4.66821 108.77 5.06933C108.899 7.74778 109.029 10.4252 108.936 13.109C108.798 17.12 106.502 18.2775 102.784 18.1228C99.85 18.0012 98.6705 16.7775 98.4302 13.9322C98.2199 11.4313 98.245 8.92418 98.2701 6.41785V6.41762V6.41738V6.41715V6.41691V6.41668V6.41644V6.41621V6.41597V6.41574V6.4155V6.41526V6.41503V6.41479C98.2787 5.56406 98.2872 4.71342 98.2865 3.86312C98.2865 2.65042 98.6733 1.80788 100.143 1.99849L100.154 2.00001L100.183 2.00402L100.183 2.00403C100.418 2.03665 100.792 2.08855 100.748 1.70015C100.716 1.42026 100.445 1.43915 100.211 1.45542C100.159 1.45907 100.108 1.46258 100.063 1.46258C98.1815 1.4681 96.3003 1.48191 94.4191 1.5123C94.3792 1.51277 94.3338 1.51021 94.2862 1.50751C94.0537 1.49436 93.7668 1.47814 93.792 1.79683C93.8169 2.11175 94.2368 2.07307 94.4744 2.03992C95.9937 1.83274 96.2119 2.66423 96.1898 3.90732C96.1346 6.99295 96.1318 10.0786 96.1843 13.1642C96.2396 16.3824 97.7009 18.1531 100.842 18.7885C101.773 18.9763 102.762 18.9515 103.72 18.9156C107.347 18.7747 109.43 16.7498 109.51 13.1697C109.577 10.2222 109.53 7.27196 109.461 4.32445C109.433 3.07307 109.485 2.00954 111.129 1.9681L111.126 1.97363ZM86.5078 16.2443C86.4995 17.1117 86.5685 17.9211 87.7591 17.9322L87.7619 17.9266C88.0437 17.9294 88.353 18.0344 88.3282 18.3714C88.3094 18.6292 88.078 18.6186 87.8783 18.6094C87.8426 18.6078 87.808 18.6062 87.7757 18.6062C86.3061 18.6172 84.8392 18.6172 83.3696 18.6172C83.3607 18.6172 83.3516 18.6173 83.3424 18.6173L83.3227 18.6175C83.1078 18.6191 82.843 18.6211 82.8558 18.3382C82.8641 18.1089 83.1293 17.9515 83.3669 17.9681C84.8807 18.0703 84.9111 17.1311 84.8669 16.0233C84.8312 15.147 84.8374 14.2688 84.8436 13.3903V13.3902V13.3901V13.39V13.3899V13.3898V13.3897V13.3896V13.3895V13.3894V13.3893V13.3892V13.3891V13.3881C84.8479 12.7692 84.8523 12.1502 84.842 11.5316C84.8089 9.59516 83.8917 8.60069 82.1818 8.58964C80.1127 8.57582 78.6238 9.84654 78.6238 11.6228V13.8023H78.6431C78.6431 13.9839 78.6463 14.1655 78.6494 14.347L78.6494 14.3482C78.6565 14.7572 78.6635 15.1658 78.6348 15.573C78.5492 16.8438 78.6293 17.9653 80.3199 18.062C80.4774 18.0703 80.8282 18.1504 80.7149 18.4625C80.6818 18.5565 80.4111 18.6117 80.2509 18.6117C78.6901 18.62 77.1293 18.6145 75.5686 18.6034C75.5379 18.6029 75.5046 18.6046 75.4703 18.6064C75.3162 18.6142 75.1429 18.623 75.1045 18.4377C75.0409 18.1228 75.3807 18.0592 75.5437 18.0592C76.9719 18.0758 76.9801 17.0869 76.9801 16.1034C76.9774 14.6062 76.9608 13.109 76.9249 11.6117C76.9238 11.5516 76.9243 11.4889 76.9249 11.4248C76.9285 11.0177 76.9326 10.5578 76.5078 10.3907C74.9735 9.78509 75.5976 9.48363 76.2503 9.16835C76.4014 9.09537 76.5541 9.02164 76.6818 8.94323C77.1956 8.62831 77.5741 8.16975 77.9138 7.67804C77.9238 7.66353 77.9338 7.64875 77.9438 7.63386C78.0617 7.45889 78.1892 7.26974 78.4387 7.34102C78.7029 7.41687 78.6725 7.65739 78.6486 7.84574C78.6455 7.87005 78.6426 7.8935 78.6404 7.9156C78.5023 9.3051 79.0658 9.11173 79.8558 8.46533C79.9304 8.40449 80.0189 8.35898 80.1065 8.31396L80.1066 8.31392C80.1423 8.29558 80.1778 8.27733 80.2122 8.25814C83.1542 6.60898 86.6873 6.6808 86.5685 11.7526C86.5409 12.9045 86.5296 14.0563 86.5183 15.2082C86.515 15.5536 86.5116 15.8989 86.5078 16.2443ZM21.3746 7.50672C17.6812 7.49567 15.0763 9.86859 15.0873 13.2332C15.0984 16.4183 17.6923 18.9128 21.0155 18.9376C24.5735 18.9625 27.3801 16.5177 27.3995 13.3824C27.4188 10.0205 24.8553 7.52053 21.3746 7.50948V7.50672ZM25.3304 13.3189C25.3525 14.3796 25.1674 15.399 24.6536 16.3382C23.8332 17.8409 22.5376 18.5868 20.8166 18.4542C19.1315 18.3244 18.0293 17.3437 17.5072 15.7968C16.9243 14.0675 16.9796 12.2968 17.5569 10.5785C18.1453 8.83268 19.463 7.9708 21.3194 7.97633C23.0321 7.98185 24.1481 8.78848 24.8083 10.5233C25.1508 11.4211 25.3608 12.3465 25.3276 13.3161L25.3304 13.3189ZM62.5106 13.1503C62.5438 9.86855 65.1543 7.51221 68.7592 7.50668C72.2482 7.50392 74.8338 9.97905 74.8338 13.3243C74.8338 16.4846 72.0603 18.9459 68.5106 18.9348C65.1294 18.9238 62.4802 16.3685 62.5106 13.1503ZM68.3366 18.4707C70.1653 18.573 71.6901 17.5895 72.3531 15.7719C73.0879 13.7525 72.9277 11.736 71.9332 9.84093C70.6846 7.46248 67.1874 7.27187 65.6018 9.45419C64.7896 10.573 64.5907 11.8603 64.5797 13.1945C64.5824 13.921 64.6073 14.6365 64.8117 15.3492C65.3504 17.2249 66.6239 18.3768 68.3366 18.4707ZM8.70299 1.78018C12.8881 7.83265 12.5234 16.8741 7.62012 22.8547C12.0952 20.2138 14.2472 15.6614 13.8383 10.1973C13.54 6.19729 11.5151 2.87686 8.70299 1.78018ZM144.905 17.0068C146.59 17.9128 148.259 17.6891 149.795 16.5289V16.5316C149.848 16.4913 149.902 16.4291 149.957 16.3651C150.121 16.1747 150.299 15.968 150.532 16.2719C150.716 16.5085 150.485 16.7301 150.279 16.9275C150.234 16.9698 150.191 17.011 150.154 17.0509C148.505 18.8023 145.659 19.3659 143.579 18.3548C141.571 17.3769 140.518 15.0427 140.966 12.5703C141.529 9.45152 143.477 7.6007 146.212 7.58136C148.035 7.57031 149.618 8.59517 150.206 10.167C150.521 11.0068 150.499 11.5454 149.331 11.5123C148.422 11.4877 147.512 11.499 146.602 11.5102C145.675 11.5217 144.748 11.5333 143.822 11.5068C142.833 11.4791 142.538 11.8631 142.599 12.7858C142.715 14.5565 143.259 16.1228 144.905 17.0068ZM147.59 8.52887C146.308 7.75263 144.43 8.21395 143.48 9.55373L143.483 9.55649C143.446 9.60873 143.406 9.66181 143.366 9.71574C143.126 10.0383 142.864 10.3909 143.016 10.772C143.172 11.1703 143.519 11.119 143.859 11.0689C143.988 11.0499 144.115 11.0311 144.231 11.0372C144.511 11.0524 144.794 11.0244 145.077 10.9964C145.205 10.9838 145.333 10.9712 145.46 10.9626V10.9432C145.619 10.9352 145.778 10.9293 145.938 10.9233C146.326 10.9089 146.715 10.8944 147.101 10.8493C147.227 10.834 147.364 10.8368 147.504 10.8397C147.967 10.8492 148.446 10.8591 148.538 10.2029C148.64 9.46809 148.22 8.91285 147.59 8.52887ZM59.2495 12.4625C58.9521 12.3183 58.6489 12.1856 58.3459 12.053C57.8948 11.8556 57.4444 11.6585 57.0147 11.4239C55.8683 10.7996 55.5341 9.77746 56.0921 8.82166C56.5948 7.96254 57.686 7.71945 58.7578 8.22774C59.534 8.59514 60.0589 9.20564 60.4843 9.92663C60.4902 9.93653 60.4962 9.9467 60.5022 9.95704L60.5103 9.97085C60.6362 10.1866 60.796 10.4605 61.0258 10.0371C61.4788 9.20287 60.7992 7.78575 59.8434 7.5758C59.3075 7.45978 58.7578 7.3631 58.2108 7.33824C56.3352 7.24431 54.7357 8.26917 54.3545 9.77193C53.9843 11.236 54.7661 12.4156 56.6915 13.2774C56.959 13.3966 57.23 13.5094 57.501 13.6222L57.5013 13.6223C57.8207 13.7552 58.1401 13.8881 58.4539 14.0316C59.0009 14.2802 59.512 14.5979 59.8738 15.0813C60.3517 15.7194 60.6998 16.4239 60.2992 17.225C59.8766 18.0758 59.139 18.504 58.1887 18.4791C56.8075 18.4404 55.9098 17.6421 55.2606 16.5205C55.1614 16.3507 55.0818 16.1695 55.0023 15.9883L55.0023 15.9883L55.0023 15.9882L55.0022 15.9881L55.0022 15.9881L55.0022 15.988L55.0022 15.988L55.0021 15.9879C54.9356 15.8362 54.869 15.6846 54.791 15.5399C54.7569 15.4756 54.6828 15.4333 54.6084 15.3909C54.5741 15.3713 54.5397 15.3517 54.5092 15.3299C54.4878 15.3657 54.4628 15.4006 54.438 15.4353C54.3861 15.508 54.3345 15.5802 54.3158 15.6587C53.8959 17.5647 54.7357 18.7222 56.6805 18.9294C56.9046 18.9526 57.1287 18.9636 57.3168 18.9728L57.3174 18.9729C57.3981 18.9768 57.4722 18.9805 57.5368 18.9846C59.7523 19.0095 61.2799 18.0343 61.686 16.4045C62.0727 14.8548 61.1805 13.4018 59.2495 12.4653V12.4625ZM164.487 12.1294L164.488 12.1297L164.488 12.1298C164.738 12.2426 164.988 12.3554 165.233 12.4736L165.231 12.4818C167.156 13.41 168.037 14.8244 167.678 16.4183C167.333 17.9487 165.648 18.9818 163.579 18.9266L163.577 18.9265C163.257 18.9155 162.934 18.9044 162.62 18.8492C160.927 18.5481 160.098 17.3244 160.463 15.6614C160.488 15.5426 160.581 15.3548 160.656 15.3492C160.893 15.3309 160.959 15.519 161.019 15.6893C161.032 15.7237 161.044 15.7574 161.057 15.7885C161.551 16.9653 162.255 17.9072 163.568 18.305C164.703 18.6476 165.603 18.2912 166.197 17.3796C166.816 16.4293 166.377 15.5481 165.664 14.8106C165.206 14.3371 164.605 14.0742 164.008 13.813C163.974 13.7984 163.941 13.7838 163.907 13.7691C163.708 13.6808 163.508 13.595 163.308 13.5092C162.92 13.343 162.532 13.1769 162.153 12.9929C161.021 12.4459 160.338 11.5647 160.441 10.294C160.546 8.97909 161.374 8.1918 162.617 7.76362C163.153 7.57854 163.689 7.54815 164.239 7.54539C166.496 7.56473 167.07 7.98738 167.104 9.67798C167.105 9.72961 167.112 9.78611 167.12 9.84395C167.148 10.0616 167.179 10.2982 166.891 10.3658C166.681 10.4145 166.569 10.1994 166.471 10.0134C166.465 10.002 166.459 9.9907 166.453 9.97957L166.444 9.96258L166.44 9.95455L166.432 9.94041C165.949 9.06749 165.255 8.43213 164.275 8.16141C163.358 7.90727 162.626 8.22771 162.178 9.02881C161.717 9.85478 161.883 10.6835 162.667 11.1946C163.234 11.5637 163.861 11.8467 164.487 12.1294ZM141.082 8.15584H136.062C136.054 8.20004 136.046 8.24424 136.039 8.28843L136.038 8.29005C136.031 8.33371 136.023 8.37737 136.015 8.42103C136.067 8.43685 136.118 8.45378 136.17 8.47068L136.17 8.4707C136.279 8.50692 136.388 8.54296 136.501 8.56744C138.093 8.90998 138.25 9.07572 137.736 10.5536C137.215 12.0634 136.604 13.5432 135.993 15.0212L135.993 15.0214L135.993 15.0216L135.993 15.0218L135.993 15.022C135.911 15.2204 135.829 15.4187 135.747 15.6171C135.722 15.6779 135.702 15.7476 135.681 15.8193L135.681 15.8194C135.611 16.0611 135.534 16.3264 135.234 16.352C134.901 16.3814 134.828 16.1182 134.763 15.8812C134.742 15.8066 134.722 15.7346 134.695 15.6752C134.025 14.193 133.39 12.6961 132.755 11.1984L132.64 10.9265C132.078 9.60243 132.492 8.77462 133.883 8.44313C133.902 8.4379 133.909 8.38208 133.92 8.29579C133.926 8.24532 133.934 8.18444 133.946 8.11716H128.297C129.802 8.46583 130.27 9.61557 130.738 10.7667C130.812 10.9472 130.885 11.1276 130.963 11.305C131.966 13.5923 132.982 15.8741 134.018 18.1475C134.048 18.2135 134.074 18.2891 134.099 18.3667L134.099 18.3669C134.192 18.6436 134.292 18.9453 134.659 18.9238C134.935 18.9066 135.02 18.6456 135.101 18.3978L135.102 18.3977C135.125 18.3258 135.148 18.2551 135.175 18.1917C135.476 17.4875 135.783 16.7858 136.091 16.0841L136.091 16.0839L136.091 16.0837C136.841 14.3719 137.592 12.6604 138.236 10.9127C138.753 9.51771 139.361 8.47075 141.021 8.44589C141.031 8.44589 141.041 8.38622 141.053 8.30641L141.053 8.30632L141.054 8.30624C141.061 8.26107 141.069 8.20948 141.079 8.1586L141.082 8.15584ZM156.69 8.38522C157.066 8.07031 157.532 7.8355 157.994 7.65594L157.991 7.65318C158.588 7.42114 159.068 7.70567 159.408 8.19185C159.687 8.58964 159.778 9.02334 159.444 9.45152C159.088 9.90732 158.637 9.95704 158.09 9.82721C156.336 9.40732 155.154 10.1421 155.035 11.888C154.958 13.0545 154.993 14.2295 155.028 15.4049C155.042 15.8662 155.056 16.3276 155.063 16.7885C155.074 17.5095 155.483 17.8161 156.195 17.8797C156.318 17.8908 156.442 17.8944 156.567 17.898C157.064 17.9126 157.574 17.9275 158.035 18.4156H151.223C151.249 18.3686 151.271 18.3212 151.29 18.2799C151.323 18.2071 151.348 18.1532 151.372 18.1532C153.452 18.1255 153.403 16.7388 153.314 15.2637C153.249 14.1913 153.252 13.1167 153.255 12.044V12.0434V12.0432L153.256 11.8247L153.256 11.7222C153.259 10.8769 153.137 10.1697 152.055 10.1117C151.856 10.1034 151.552 9.9598 151.496 9.80511C151.408 9.56479 151.677 9.45539 151.877 9.37412L151.898 9.36574L151.911 9.36036C152.872 8.96809 153.651 8.36865 154.193 7.47638C154.275 7.34103 154.466 7.16423 154.582 7.18081C154.803 7.21299 154.824 7.39846 154.844 7.57806L154.845 7.57842L154.845 7.57877L154.845 7.57909L154.845 7.5794C154.851 7.63059 154.856 7.68128 154.867 7.72777C154.934 8.03449 154.925 8.3488 154.916 8.66323C154.902 9.10773 154.889 9.55248 155.093 9.97638C155.246 9.82142 155.396 9.66346 155.546 9.50551C155.915 9.11718 156.283 8.72887 156.69 8.38522ZM172.243 14.6586C172.243 14.5909 172.245 14.5232 172.248 14.4556C172.25 14.3879 172.252 14.3202 172.252 14.2525C172.271 12.0813 172.29 9.91 172.304 7.73873C172.304 7.70015 172.305 7.65994 172.306 7.61886C172.311 7.32166 172.317 6.97878 172.053 6.87685C171.807 6.78212 171.655 6.98888 171.507 7.19023L171.507 7.19038C171.453 7.26493 171.398 7.33872 171.34 7.39619C170.813 7.91552 170.202 8.29398 169.511 8.56193C169.194 8.68348 168.821 8.94867 169.44 9.10889C170.676 9.42458 170.661 10.3109 170.646 11.2395C170.645 11.2778 170.645 11.3163 170.644 11.3547C170.633 12.1064 170.633 12.8594 170.633 13.6118C170.634 13.9462 170.634 14.2804 170.633 14.6144C170.627 16.351 169.928 17.608 168.533 18.3851C169.003 18.3858 169.471 18.3821 169.941 18.3784C171.338 18.3675 172.75 18.3563 174.257 18.4597C172.018 18.1369 172.113 16.7735 172.206 15.4232C172.224 15.1673 172.242 14.9119 172.243 14.6641V14.6586ZM15.2478 0.544849C15.4851 0.535056 15.7551 0.523912 15.8058 0.805131H15.8113C15.8812 1.18828 15.5459 1.17111 15.2966 1.15835L15.2966 1.15834L15.2966 1.15834C15.2799 1.15749 15.2636 1.15665 15.2478 1.15596C13.6953 1.08966 13.2588 1.96811 13.3445 3.31065C13.3555 3.49021 13.3666 3.67529 13.3417 3.85208C13.3248 3.97428 13.3403 4.11893 13.3558 4.26271C13.3884 4.56424 13.4204 4.86192 13.1511 4.94048C12.871 5.02242 12.7302 4.74289 12.59 4.46458C12.527 4.33941 12.4641 4.21449 12.3887 4.1228C11.1898 2.667 9.76989 1.50402 8.03232 0.545463C8.62201 0.545463 9.21188 0.54529 9.80183 0.545118C11.572 0.5446 13.343 0.544081 15.1124 0.548225C15.1549 0.548683 15.2007 0.546793 15.2478 0.544849ZM171.321 3.28574C171.934 3.24154 172.445 2.8769 172.415 2.15315C172.385 1.43768 171.863 1.19183 171.258 1.06475C170.597 1.19735 170.133 1.52332 170.169 2.22773C170.205 2.91282 170.661 3.3327 171.324 3.28574H171.321ZM127.252 2.22769C127.141 2.94039 126.661 3.30503 126.037 3.28569C125.387 3.26359 124.956 2.82713 124.998 2.12548C125.037 1.42658 125.495 1.04813 126.161 1.10338C126.796 1.15863 127.227 1.55089 127.252 2.22769Z" fill="#002A5C"/>
</svg>
