<svg width="60" height="30" viewBox="0 0 60 30" fill="none" xmlns="http://www.w3.org/2000/svg">
<path fill-rule="evenodd" clip-rule="evenodd" d="M47.7505 30.003C48.5671 30.003 48.825 29.5732 48.825 28.7995V27.3811C48.825 26.7364 48.4812 26.3496 47.7505 26.3496C47.0198 26.3496 46.633 26.7364 46.633 27.3811V28.7995C46.633 29.6161 46.9339 30.003 47.7505 30.003ZM47.7075 26.9943C48.0084 26.9943 48.0084 27.2522 48.0084 27.4671V28.8855C48.0084 29.0574 47.9654 29.3583 47.7075 29.3583C47.4496 29.3583 47.4066 29.1004 47.4066 28.8855V27.4671C47.4066 27.2522 47.4496 26.9943 47.7075 26.9943ZM25.958 28.7566V29.0145C25.958 29.2294 26.0439 29.4013 26.3018 29.4013C26.4737 29.4013 26.5597 29.2294 26.5597 29.0574C26.5597 28.8039 26.3766 28.703 26.1904 28.6003L26.1904 28.6003L26.1904 28.6003L26.1903 28.6003L26.1903 28.6003L26.1903 28.6003L26.1903 28.6003L26.1903 28.6003C26.1556 28.5812 26.1207 28.5619 26.0869 28.5417C25.829 28.4127 25.6141 28.2838 25.4852 28.0689C25.3562 27.897 25.2703 27.6821 25.2703 27.3812C25.2703 26.7365 25.6571 26.3926 26.3018 26.3926C26.9895 26.3926 27.3763 26.8654 27.3333 27.5101H26.6027C26.6027 27.2952 26.6027 27.0373 26.3448 26.9944C26.1729 26.9944 26.0869 27.0803 26.0439 27.2093C26.0027 27.4155 26.1197 27.503 26.2812 27.6236L26.3018 27.6391C26.4497 27.7447 26.5873 27.8192 26.7144 27.8881C26.8459 27.9593 26.9662 28.0245 27.0755 28.1119C27.2474 28.2838 27.3763 28.4987 27.3763 28.9285C27.3763 29.5732 26.9895 29.96 26.3448 29.96C25.6141 29.96 25.2703 29.5302 25.2703 29.1004V28.7136H25.958V28.7566ZM28.6214 29.9171V26.4357H29.438V27.811L30.0398 26.4357H30.8564L30.1257 27.983L30.8994 29.9171H30.0398L29.61 28.7136L29.438 29.0575V29.9171H28.6214ZM32.1908 26.4357V29.9171H33.0075V26.4357H32.1908ZM37.3492 29.9171H36.5325V26.4357H37.736C38.3807 26.4357 38.7246 26.6935 38.7246 27.3812C38.7246 27.7681 38.6386 28.0259 38.2947 28.1549C38.5096 28.1979 38.6816 28.3698 38.6816 28.5847C38.7027 28.7113 38.7134 28.9209 38.724 29.1268V29.1268L38.724 29.1268C38.7349 29.3403 38.7457 29.5498 38.7675 29.6592C38.7675 29.7022 38.8105 29.7452 38.8535 29.7881L38.8535 29.7881V29.8311H37.9509C37.9079 29.7452 37.9079 29.7022 37.9079 29.6162V28.7996C37.8649 28.5847 37.822 28.4557 37.65 28.4557H37.3922V29.9171H37.3492ZM37.3492 27.94H37.6071C37.822 27.94 37.9079 27.7251 37.9079 27.5102C37.9079 27.0804 37.736 27.0804 37.3492 27.0804V27.94ZM41.9468 26.4357H40.0986V29.8741H42.0327V29.1864H40.9152V28.4557H41.9468V27.7681H40.9152V27.1233H41.9468V26.4357ZM43.9662 28.7566V29.0145C43.9662 29.2294 44.0521 29.4013 44.31 29.4013C44.4819 29.4013 44.5679 29.2294 44.5679 29.0574C44.5679 28.8039 44.3848 28.703 44.1986 28.6003C44.1638 28.5812 44.1289 28.562 44.0951 28.5417C43.8372 28.4127 43.6223 28.2838 43.4934 28.0689C43.3645 27.897 43.2785 27.6821 43.2785 27.3812C43.2785 26.7365 43.6653 26.3926 44.31 26.3926C44.9977 26.3926 45.3845 26.8654 45.3416 27.5101H44.6109C44.6109 27.2952 44.6109 27.0373 44.353 26.9944C44.1811 26.9944 44.0951 27.0803 44.0521 27.2093C44.0109 27.4155 44.1279 27.503 44.2894 27.6236L44.31 27.6391C44.4579 27.7447 44.5955 27.8192 44.7226 27.8881C44.8541 27.9593 44.9744 28.0245 45.0837 28.1119C45.2556 28.2838 45.3845 28.4987 45.3845 28.9285C45.3845 29.5732 44.9977 29.96 44.353 29.96C43.6223 29.96 43.2785 29.5302 43.2785 29.1004V28.7136H43.9662V28.7566ZM50.972 29.9171H50.1554V26.4357H51.3588C52.0036 26.4357 52.3474 26.6935 52.3474 27.3812C52.3474 27.7681 52.2614 28.0259 51.9176 28.1549C52.1325 28.1979 52.3044 28.3698 52.3044 28.5847C52.3255 28.7113 52.3363 28.9208 52.3468 29.1268L52.3468 29.1268L52.3468 29.1269C52.3578 29.3403 52.3685 29.5498 52.3904 29.6592C52.3904 29.7022 52.4334 29.7452 52.4763 29.7881V29.8311H51.5737C51.5308 29.7452 51.5308 29.7022 51.5308 29.6162V29.6162V28.7996C51.4878 28.5847 51.4448 28.4557 51.2729 28.4557H51.015V29.9171H50.972ZM50.972 27.94H51.2299C51.4448 27.94 51.5308 27.7251 51.5308 27.5102C51.5308 27.0804 51.3589 27.0804 50.972 27.0804V27.94ZM55.616 26.4357H53.5099V27.1233H54.1546V29.8741H54.9712V27.1233H55.616V26.4357Z" fill="#ED1C24"/>
<path fill-rule="evenodd" clip-rule="evenodd" d="M18.7803 0.00390625H16.4163H16.3733V12.1674H18.7373V7.61148H18.7803L21.8319 12.1245H24.9695L21.1442 7.26764L24.9695 2.36784H21.9608L18.8232 7.05274H18.7803V0.00390625ZM0.0843506 0.519758H2.44829V9.88954H6.44549V12.1675H0.0843506V0.519758ZM12.7207 10.2765C12.2479 11.7808 11.2593 12.4255 9.71202 12.4255C8.12174 12.4255 6.96126 11.265 6.96126 9.7177C6.96126 7.58277 8.86826 7.08241 10.4794 6.65968C11.6577 6.35052 12.6777 6.08288 12.6777 5.24771C12.6777 4.51704 11.947 4.25916 11.0014 4.25916C9.36817 4.25916 8.2077 4.98983 7.43405 6.10733V3.78637C8.50856 2.53993 9.45414 2.11013 11.2593 2.11013C13.3654 2.11013 14.8697 3.01272 14.8697 5.07579V12.1676H12.7207V10.2765ZM12.7207 7.31079C12.4611 7.55505 11.9413 7.72882 11.3789 7.91684C10.3578 8.25818 9.19625 8.64648 9.19625 9.58876C9.19625 10.3624 9.71202 10.7492 10.4857 10.7492C12.076 10.7492 12.7207 9.33088 12.7207 7.91252V7.31079ZM13.0222 13.113H15.3861V22.4828H19.3833V24.7608H13.0222V13.113ZM28.7511 19.7321C28.7511 16.5086 27.4187 14.7034 24.1522 14.7034C20.9286 14.7034 19.5532 16.5086 19.5532 19.7321C19.5532 23.1706 21.1435 25.0617 24.1522 25.0617C27.1608 25.0617 28.7511 23.1706 28.7511 19.7321ZM24.1522 17.0243C25.9574 17.0243 26.6021 18.1848 26.6021 19.7751C26.6021 21.7092 25.9574 23.0416 24.1522 23.0416C22.347 23.0416 21.7023 21.7092 21.7023 19.7751C21.7023 18.1848 22.347 17.0243 24.1522 17.0243ZM32.7483 25.0188C34.5784 25.0188 35.4425 23.8515 35.8859 22.5297V24.7179H38.1639V14.9613H35.7999V20.2049C35.7999 21.4514 35.2842 22.8697 33.7369 22.8697C32.2755 22.8697 32.2325 21.8382 32.2325 20.4628V14.9613H29.8686V21.4514C29.8686 23.2995 30.3844 25.0188 32.7483 25.0188ZM43.4512 21.4489C43.4366 21.4213 43.4223 21.3935 43.4082 21.3653H43.4512V21.4489ZM43.4512 21.4489C43.9712 22.4316 44.8211 23.0416 46.1589 23.0416C46.7177 23.0416 47.6203 22.7837 47.6203 21.8811C47.6203 21.2275 46.8798 21.0023 46.0075 20.7369C44.7573 20.3566 43.2363 19.8939 43.2363 17.9699C43.2363 15.9928 44.7406 14.6604 46.7607 14.6604C47.7922 14.6604 48.7808 15.0472 49.3395 15.7779V18.3567C48.9097 17.3252 47.9212 16.8524 46.8466 16.8524C46.116 16.8524 45.4283 17.2822 45.4283 17.8409C45.4283 18.5226 46.1392 18.721 46.9828 18.9563C48.2134 19.2995 49.7263 19.7216 49.7263 21.8381C49.7263 23.8152 48.1361 25.0187 46.2449 25.0187C45.0844 25.0187 44.3108 24.6319 43.4512 23.9012V21.4489ZM42.0765 14.9612C42.0765 14.9612 41.6466 14.8753 40.959 14.8753C40.4862 14.8753 39.8415 14.9612 39.8415 14.9612V24.7178H42.1194V14.9612H42.0765ZM32.6644 10.9211C31.8477 11.9097 30.6443 12.4254 29.3549 12.4254C26.1313 12.4254 24.4121 10.2764 24.4121 7.1818C24.4121 4.04421 26.0024 2.0671 28.7961 2.0671C31.7618 2.0671 33.0082 4.00123 33.0512 6.83796V8.04142H26.6471C26.6901 9.71766 27.9795 10.5343 29.6557 10.5343C31.289 10.5343 31.9337 9.80362 32.6644 8.68613V10.9211ZM31.203 6.19325C31.16 4.90383 30.0855 4.25912 28.8821 4.25912C27.8075 4.25912 26.776 4.94681 26.6471 6.19325H31.203ZM55.3145 25.0617C56.6039 25.0617 57.8074 24.5459 58.624 23.5574H58.71V21.3224C57.9793 22.4399 57.3346 23.1706 55.7013 23.1706C54.0251 23.1706 52.7357 22.3539 52.6927 20.6777H59.0108V19.4742C58.9678 16.6375 57.7214 14.7034 54.7557 14.7034C51.962 14.7034 50.3717 16.6805 50.3717 19.8181C50.3717 22.9127 52.091 25.0617 55.3145 25.0617ZM54.8417 16.8524C56.0452 16.8524 57.1197 17.4971 57.1627 18.7865H52.6067C52.7357 17.5401 53.7672 16.8524 54.8417 16.8524Z" fill="#004990"/>
<path fill-rule="evenodd" clip-rule="evenodd" d="M39.5829 3.82882L40.9153 1.33594L42.3766 3.82882C42.5056 4.0867 42.8065 4.0867 43.0643 3.91478L44.0099 3.39901L43.2792 7.22429C43.1073 7.91198 43.5801 7.91198 43.838 7.61111L45.5142 5.71996L45.7721 6.66554C45.8151 6.79448 45.944 6.92342 46.1589 6.88044L48.265 6.45064L47.7062 8.47073C47.6946 8.51341 47.6833 8.55364 47.6727 8.5916C47.5653 8.97421 47.5224 9.12708 47.8352 9.24438L48.6088 9.58822L44.9555 12.5539C44.8265 12.6828 44.7406 12.8977 44.7836 13.0697L45.0844 14.1012C44.6335 14.039 44.1939 13.9712 43.7574 13.9038C42.9872 13.785 42.2266 13.6677 41.4311 13.5854H40.5285C40.0776 13.6476 39.6379 13.7154 39.2013 13.7828C38.4312 13.9016 37.6706 14.0189 36.8751 14.1012L37.176 13.0697C37.219 12.8548 37.133 12.6828 37.0041 12.5539L33.3507 9.58822L34.1244 9.24438C34.4372 9.12708 34.3943 8.97421 34.2869 8.59161C34.2762 8.55364 34.2649 8.51341 34.2533 8.47073L33.6946 6.45064L35.8006 6.88044C36.0155 6.92342 36.1445 6.79448 36.1874 6.66554L36.4453 5.71996L38.1216 7.61111C38.3365 7.91198 38.8093 7.91198 38.6803 7.22429L37.9496 3.39901L38.8952 3.91478C39.1531 4.0867 39.411 4.0867 39.5829 3.82882Z" fill="#ED1C24"/>
</svg>
