<svg width="62" height="30" viewBox="0 0 62 30" fill="none" xmlns="http://www.w3.org/2000/svg">
<g clip-path="url(#clip0_19013_68049)">
<path fill-rule="evenodd" clip-rule="evenodd" d="M51.0465 3.53652C50.1002 3.53652 48.2075 4.10872 48.2075 7.23386C48.2075 10.359 49.9901 11.2833 51.2006 11.2833C52.411 11.2833 53.9295 10.1609 53.9295 7.36591C53.9295 4.57089 52.411 3.53652 51.0465 3.53652ZM51.0465 14.6726C48.1414 14.6726 44.29 12.3397 44.29 7.47595C44.29 2.61218 48.4496 0.257324 51.0905 0.257324C53.4234 0.257324 57.847 2.23804 57.847 7.49796C57.825 12.5158 53.9295 14.6726 51.0465 14.6726Z" fill="black"/>
<path d="M41.4292 7.7841C41.4292 7.7841 42.4416 7.93815 42.7497 8.40032C42.9478 8.70843 43.0578 9.03855 43.1018 9.41269V14.4305H39.7786V10.0289C39.7126 9.7208 39.5585 9.4347 39.3605 9.19261C39.0744 8.8845 38.4581 8.81847 38.4581 8.81847H34.3646V5.6053H39.6686C39.6686 5.6053 40.4829 5.51727 40.3948 4.57093C40.3068 3.62458 39.3164 3.55856 39.3164 3.55856H30.9534C30.9534 3.55856 28.1584 4.35085 28.1584 7.45398C28.1584 10.5571 30.7333 11.0413 31.4596 11.0413C32.1858 11.0413 33.5723 11.0193 33.5723 11.0193V14.3865H30.1171C30.1171 14.3865 24.7031 13.4402 24.7031 7.27791C24.7031 1.11567 31.2615 0.235352 31.2615 0.235352H40.7029C40.7029 0.235352 43.9601 0.58748 43.8721 4.10876C43.8941 5.73735 42.9258 7.16787 41.4292 7.7841Z" fill="black"/>
<path d="M19.9712 0.477539H23.8006V14.3866H19.9492L19.9712 0.477539Z" fill="black"/>
<path d="M14.9537 4.46099C14.9317 4.26292 14.8877 4.06484 14.7776 3.88878C14.6676 3.73472 14.4915 3.62468 14.2934 3.60268H8.32928V14.4306H4.87402V0.477539H16.0321C16.7804 0.521555 17.4846 0.873683 17.9688 1.44589C18.3869 1.95208 18.563 2.98645 18.563 2.98645V14.3866H14.9537V4.46099Z" fill="black"/>
<path d="M9.8252 5.64941H13.1924V14.3866H9.8472L9.8252 5.64941Z" fill="black"/>
<path d="M56.8792 23.1235C56.8792 23.1235 57.9136 23.2996 58.3098 23.7617C58.5738 24.1138 58.7279 24.532 58.7279 24.9942V29.7259H55.3827V25.3023C55.3167 25.0602 55.1846 24.8181 55.0086 24.62C54.8105 24.4 54.5464 24.2459 54.2603 24.1579H49.9247V20.9447H55.3387C55.3387 20.9447 56.197 20.7466 56.197 19.8883C56.197 19.03 55.3167 18.8979 55.3167 18.8979H39.9551V15.5527H56.197C56.197 15.5527 59.4322 15.9489 59.4762 19.4702C59.4982 22.2652 56.8792 23.1235 56.8792 23.1235Z" fill="black"/>
<path d="M39.9768 20.9229H48.824V24.202H43.8062V26.3148H48.824V29.704H34.1887C33.5285 29.572 32.9122 29.2639 32.4281 28.8017C31.5478 27.9874 31.3057 26.6009 31.3057 26.6009V20.9229H34.871V24.9943C34.893 25.2804 35.003 25.5445 35.1571 25.7646C35.3992 26.0067 35.5312 25.9627 35.5312 25.9627H39.6907C39.7567 25.9407 39.8228 25.9187 39.8668 25.8747C39.9108 25.8306 39.9548 25.7646 39.9768 25.7206V20.9229Z" fill="black"/>
<path d="M30.9316 15.5747H39.2067V18.8979H30.9316V15.5747Z" fill="black"/>
<path d="M31.4156 29.5498L31.4376 29.7039H27.6962C26.7059 29.1097 26.2877 26.9309 26.2877 26.9309V19.2281C26.2657 19.14 26.2437 19.074 26.1777 19.008C26.0897 18.942 25.9796 18.92 25.8916 18.92H23.5147V29.7039H19.8174V15.5527H27.3881C27.3881 15.5527 28.3345 15.6848 29.1928 16.7852C29.809 17.6215 29.9851 19.3161 29.9851 19.3161V26.1386C29.9631 26.7768 30.0731 27.415 30.3152 27.9873C30.5793 28.5815 30.9534 29.1097 31.4156 29.5498Z" fill="black"/>
<path d="M4.10359 22.6833C4.10359 26.3367 7.44881 26.0946 7.44881 26.0946H9.3415V29.7479H5.75419C5.75419 29.7479 0.40625 29.1317 0.40625 22.5733C0.40625 16.367 6.0403 15.5527 6.0403 15.5527H18.6069V18.92H7.25074C7.25074 18.92 4.10359 19.03 4.10359 22.6833Z" fill="black"/>
<path d="M18.5848 26.1829V29.7041H10.1777V21.165H18.5848V24.2242H13.8311V26.1829H18.5848Z" fill="black"/>
<path d="M58.678 15.6911V15.5467H59.646V15.6911H59.2445V16.8276H59.0812V15.6911H58.678ZM59.885 16.8276V15.5467H60.1171L60.4326 16.3548C60.4447 16.3858 60.4596 16.429 60.4773 16.4846C60.4951 16.5402 60.5117 16.5941 60.5272 16.6462C60.5421 16.5958 60.5584 16.5428 60.5762 16.4872C60.594 16.431 60.6091 16.3869 60.6218 16.3548L60.933 15.5467H61.1659V16.8276H61.0052V16.096C61.0052 16.049 61.0057 15.9914 61.0069 15.9232C61.008 15.855 61.0095 15.7877 61.0112 15.7212C60.9877 15.7946 60.9639 15.8659 60.9398 15.9353C60.9163 16.0046 60.8971 16.0582 60.8822 16.096L60.596 16.8276H60.4541L60.1635 16.096C60.1492 16.0599 60.1303 16.0078 60.1068 15.9396C60.0839 15.8708 60.0598 15.7989 60.0346 15.7238C60.0357 15.7845 60.0369 15.8496 60.038 15.9189C60.0397 15.9877 60.0406 16.0468 60.0406 16.096V16.8276H59.885Z" fill="black"/>
</g>
<defs>
<clipPath id="clip0_19013_68049">
<rect width="61.0942" height="29.4907" fill="white" transform="translate(0.40625 0.257324)"/>
</clipPath>
</defs>
</svg>
