<svg width="91" height="26" viewBox="0 0 91 26" fill="none" xmlns="http://www.w3.org/2000/svg">
<path fill-rule="evenodd" clip-rule="evenodd" d="M43.339 24.8816L37.5515 6.85051C37.4882 6.6214 37.3839 6.42991 37.2386 6.27261C37.0932 6.11702 36.9154 6.03837 36.7068 6.03837C36.2486 6.03837 35.9357 6.32048 35.7682 6.88128L30.0422 24.8798L24.3163 24.8405L30.6047 4.59534C31.0219 3.28396 31.7981 2.2735 32.9351 1.56566C34.0721 0.857825 35.3493 0.503906 36.7684 0.503906C39.3758 0.503906 41.2531 1.65799 42.4003 3.96615L42.6192 4.40385L47.3449 19.4394L47.533 19.7831H59.9868C60.5904 19.7831 61.0965 19.5557 61.5034 19.0992C61.9103 18.6444 62.1138 18.0973 62.1138 17.4612C62.1138 16.9312 61.9633 16.4815 61.6607 16.1105C61.3598 15.7395 60.9785 15.5531 60.522 15.5531H52.7494C50.9183 15.5531 49.3881 14.7718 48.1605 13.2074C47.0166 11.7472 46.4439 10.0255 46.4439 8.04391C46.4439 6.06231 47.0166 4.30981 48.1656 3.03776C49.4171 1.64089 51.2107 0.941603 53.5496 0.941603H66.4104V6.04179H53.7907C53.2077 6.04179 52.7375 6.28458 52.3853 6.77186C52.0314 7.25914 51.8553 7.82336 51.8553 8.46622C51.8553 9.02531 52.0211 9.50746 52.3545 9.91267C52.6862 10.3162 53.1136 10.5196 53.6351 10.5196H60.3784C62.3754 10.5196 64.056 11.1471 65.4187 12.4021C66.7814 13.657 67.4636 15.3292 67.4636 17.4202C67.4636 19.5112 66.8754 21.1526 65.7025 22.5956C64.4647 24.1224 62.9259 24.885 61.0828 24.885H43.3424L43.339 24.8816ZM6.33138 7.15997C6.33138 6.8488 6.40832 6.56327 6.56562 6.30339C6.72121 6.0435 6.93492 5.89305 7.20507 5.85201C7.51795 5.79046 7.79493 5.85714 8.0343 6.05547C8.27366 6.2538 8.44464 6.51882 8.54893 6.85051L8.83104 7.75497L12.7686 21.5732C13.1653 22.9256 14.0082 23.9446 15.299 24.6302C16.4035 25.2115 17.7782 25.5039 19.4247 25.5039C21.2986 25.5039 22.7159 24.9619 23.6734 23.8779C24.6309 22.7939 25.1113 21.25 25.1113 19.2479V1.03906H19.7016V19.436C19.7016 19.8737 19.4606 20.1336 18.9818 20.2174C18.71 20.2789 18.4655 20.2122 18.2466 20.0139C18.0278 19.8173 17.8773 19.5728 17.7936 19.2821L17.2601 17.6288L13.8184 5.49467C13.379 3.9559 12.5549 2.74026 11.3444 1.84606C10.1322 0.951861 8.72504 0.503906 7.11787 0.503906C5.17559 0.503906 3.73598 0.868083 2.79732 1.59644C1.58682 2.55219 0.983276 4.21749 0.983276 6.58891V24.8422H6.33138V7.15997ZM72.6339 4.47737C73.0305 3.16428 73.7709 2.17262 74.8548 1.50582C75.9388 0.839018 77.2109 0.503906 78.6727 0.503906C80.1346 0.503906 81.3587 0.839018 82.4119 1.50582C83.4651 2.17262 84.1901 3.14205 84.5868 4.41582L91 24.8816H85.6177L79.4233 6.50856C79.2968 6.11189 79.0574 5.91356 78.7035 5.91356C78.3684 5.91356 78.141 6.11189 78.0145 6.50856L71.9448 24.8816H66.2821L72.6339 4.47908V4.47737Z" fill="#C90116"/>
</svg>
