<svg width="54" height="30" viewBox="0 0 54 30" fill="none" xmlns="http://www.w3.org/2000/svg">
<path fill-rule="evenodd" clip-rule="evenodd" d="M45.1541 0.000976562L41.9729 29.9727H45.9309L46.4488 23.9122H49.0381L49.556 29.9727H53.4955L50.4068 0.000976562H45.1541ZM47.7435 8.46092L48.7422 20.3958H46.7447L47.7435 8.46092ZM17.0967 0.021667V29.9683H20.3333C20.335 28.3952 20.3437 26.8209 20.3523 25.2465V25.2465C20.3861 19.1025 20.4198 12.9584 20.0421 6.89129L23.7735 29.9683H28.4176V0.021667H25.2127C25.1474 7.96176 25.4294 15.7909 25.9678 23.5381L22.0904 0.021667H17.0967ZM30.9129 29.9521V0.0216569H36.2026C39.3268 0.0148592 40.8819 2.32207 40.8819 4.82045V11.2326C40.8819 13.1332 40.24 15.2247 39.1618 15.2247C40.882 16.3813 40.8819 18.3474 40.8819 18.9835V18.9893V24.9671C40.8819 29.1228 37.6509 29.9521 36.7019 29.9521H30.9129ZM36.2396 3.84828H34.4825V13.6734H36.1101C36.9203 13.6734 37.3123 13.5833 37.3123 12.391V5.4203C37.3123 4.73688 37.0444 3.84828 36.2396 3.84828ZM36.2396 16.9415H34.4825V26.1874L36.1101 26.1668C36.9079 26.1668 37.3123 25.5508 37.3123 24.7396V18.5136C37.3123 17.8301 37.0444 16.9415 36.2396 16.9415Z" fill="#01408D"/>
<path fill-rule="evenodd" clip-rule="evenodd" d="M8.28966 5.14643L8.27937 5.03984C8.10164 4.87234 7.75156 4.69976 7.46203 4.56779C7.37574 4.47643 7.41649 4.27848 7.47225 4.20742C7.67007 4.18204 7.929 3.74552 8.15233 3.28363C8.29221 3.29211 8.35421 3.1767 8.40337 3.0852C8.41308 3.06713 8.42229 3.04999 8.4315 3.03492C8.44703 3.00962 8.46269 2.98459 8.47815 2.95986C8.63951 2.70183 8.78028 2.47672 8.55339 2.31924C9.11693 1.29902 8.75634 0.613791 8.45194 0.588412C8.32498 0.334625 8.10672 0.172201 7.72604 0.0351562H10.1066C11.4822 0.0351562 12.5989 1.15182 12.5989 2.53242V14.5975C12.533 14.4147 12.4365 14.2472 12.3096 14.0797C12.3096 13.8545 12.1466 13.783 12.0106 13.7233C11.9443 13.6942 11.8844 13.6679 11.8528 13.628C11.8317 13.6006 11.8264 13.5763 11.8214 13.5531C11.8058 13.4816 11.7925 13.4206 11.325 13.3133C11.2083 13.2473 11.1168 12.3337 11.1168 12.3337C11.0304 11.7813 10.8349 11.388 10.5517 10.8183C10.5356 10.786 10.5193 10.7531 10.5027 10.7196C10.424 10.5569 10.3656 10.2137 10.3037 9.85001C10.2459 9.5103 10.185 9.15269 10.1017 8.90756C10.1931 6.58794 9.45701 5.91287 8.85807 5.53219C8.75844 5.46796 8.68005 5.41146 8.60478 5.35721C8.50756 5.28714 8.41554 5.22081 8.28966 5.14643ZM10.4774 29.9769L10.5027 29.9718C11.7006 29.7891 12.599 28.7588 12.5988 27.5103L12.6039 16.2268C12.2791 17.0491 11.4668 17.6328 10.5279 17.6328C9.29962 17.6328 8.3047 16.6329 8.3047 15.4046C8.3047 14.364 9.03061 13.4859 10.0001 13.2473C9.82279 12.7877 9.49575 12.1294 9.26559 11.6661C9.17295 11.4797 9.096 11.3248 9.05084 11.2272C8.9118 10.931 8.61001 9.24249 8.48933 8.56732C8.4735 8.47876 8.46079 8.40764 8.45197 8.35938C8.43681 8.26294 7.49773 8.90756 7.49273 8.94309C7.43689 8.99892 6.78219 10.6993 6.75674 10.7856L6.73651 11.0749C6.73651 11.0749 7.06629 11.1104 7.24402 11.6688C7.42681 12.2271 7.98514 14.2675 7.98514 14.2675L7.82787 14.4147C8.23594 15.781 8.32354 16.6941 8.38684 17.3538C8.43218 17.8264 8.46505 18.169 8.5943 18.455C8.80686 18.9679 8.93597 19.1761 9.05957 19.3754C9.17201 19.5566 9.27989 19.7306 9.44188 20.1199C9.58443 20.4673 9.73741 21.4125 9.85812 22.1584C9.94373 22.6873 10.0131 23.116 10.051 23.1602C10.4266 23.6373 10.6347 24.0128 10.6347 24.2871C10.6347 24.3834 10.5946 24.5455 10.5476 24.7354C10.461 25.0858 10.351 25.5305 10.4266 25.8301C10.4502 25.9243 10.4693 26.0553 10.4893 26.1924C10.5296 26.469 10.5736 26.7705 10.6652 26.8452C10.6652 26.8452 10.7819 27.0837 10.726 27.1852L10.6855 27.3122C10.7181 27.4282 10.7621 27.5568 10.8089 27.6939C11.0616 28.4327 11.3979 29.416 10.4774 29.9769Z" fill="#E9062A"/>
<path d="M6.94412 0.0351562C6.132 0.349852 6.02034 0.700079 5.98995 1.82689C5.85291 1.84212 5.56859 1.71015 5.6651 2.39538C5.6651 2.39538 5.71586 2.85219 5.89859 2.77606C5.75647 3.7709 5.8694 4.0199 5.20836 4.09067C5.06624 4.1059 4.89359 4.11605 4.68048 4.1262L4.6145 4.21757C3.71101 4.30386 3.2635 4.24612 2.68057 5.01446C2.45724 5.30885 2.21868 5.72506 1.92428 6.31893C1.92428 6.31893 1.65527 6.98385 1.57399 7.25794C1.31512 7.80104 0.680655 9.00399 0.492852 9.77551C0.432014 10.0394 0.315201 10.1207 0.482701 10.5013C0.731412 11.0495 0.320277 11.1916 1.73133 11.151V11.4759C1.73133 11.4759 1.35573 11.8007 1.27452 11.9936C1.19838 12.1916 0.980124 13.161 0.990346 13.6229C1.01565 14.8259 1.99534 15.8308 2.28459 17.0287L2.93936 17.1202C3.29466 17.9374 4.84784 20.1401 5.20829 20.4955C5.21336 20.5005 5.21844 20.5057 5.22351 20.5108C5.30466 20.7188 5.70571 20.9777 5.93912 21.2366C6.08132 21.3736 6.73616 22.0843 7.60911 22.7594C7.92959 23.0072 8.27418 23.2517 8.63441 23.4599C8.62426 23.4547 8.84759 23.9014 8.95926 24.2668C8.5126 24.6271 9.38055 25.2871 9.64449 26.3784C9.65971 26.5255 9.39063 26.6728 9.79168 27.0331C9.76631 28.6826 9.26388 29.5457 10.1064 30.0023H2.68057C1.33049 29.9719 0.239136 28.8654 0.239136 27.5102V2.53242C0.239136 1.16705 1.33042 0.0656107 2.68057 0.0351562H6.94412Z" fill="#01408D"/>
</svg>
