<svg width="70" height="30" viewBox="0 0 70 30" fill="none" xmlns="http://www.w3.org/2000/svg">
<path d="M31.179 23.8553C30.6465 23.8553 30.1071 23.7447 29.5884 23.5164L18.5231 18.5854C16.5451 17.707 15.653 15.3763 16.5313 13.3984L21.4623 2.33281C22.3406 0.354844 24.6712 -0.537317 26.6491 0.341012L37.7144 5.2721C39.6924 6.15043 40.5845 8.48112 39.7062 10.4591L34.7752 21.5246C34.1182 22.9908 32.6797 23.8553 31.179 23.8553ZM30.5082 21.4417C31.345 21.8151 32.327 21.4347 32.7005 20.6048L37.6315 9.53926C38.0049 8.70243 37.6245 7.72036 36.7946 7.3469L25.7224 2.41581C24.8856 2.04234 23.9036 2.42272 23.5301 3.25264L18.5991 14.3182C18.2257 15.155 18.6061 16.1371 19.436 16.5106L30.5082 21.4417Z" fill="#089949"/>
<path d="M65.8895 23.862H53.773C51.6083 23.862 49.8448 22.0984 49.8448 19.9337V7.81695C49.8448 5.65225 51.6083 3.88867 53.773 3.88867H65.8895C68.0541 3.88867 69.8176 5.65225 69.8176 7.81695V19.9337C69.8176 22.0984 68.0541 23.862 65.8895 23.862ZM53.773 6.15711C52.8601 6.15711 52.1132 6.90404 52.1132 7.81695V19.9337C52.1132 20.8466 52.8601 21.5936 53.773 21.5936H65.8895C66.8024 21.5936 67.5493 20.8466 67.5493 19.9337V7.81695C67.5493 6.90404 66.8024 6.15711 65.8895 6.15711H53.773Z" fill="#F9B21D"/>
<path d="M20.5148 10.0364L18.8827 13.6881C18.8619 13.7295 18.8412 13.7641 18.8204 13.7987L19.4567 17.727C19.6019 18.633 18.9864 19.4836 18.0874 19.6289L6.12302 21.5654C5.68732 21.6345 5.24471 21.5308 4.88509 21.2749C4.52546 21.019 4.29033 20.6317 4.22117 20.196L2.28474 8.23135C2.21558 7.79564 2.31932 7.35302 2.5752 6.99339C2.83109 6.63376 3.21837 6.39861 3.65407 6.32945L15.6184 4.39298C15.7083 4.37915 15.7982 4.37223 15.8812 4.37223C16.6765 4.37223 17.3889 4.95317 17.5203 5.76926L18.1634 9.7252L19.8509 5.94216L19.761 5.40963C19.4152 3.27259 17.3958 1.81332 15.2588 2.15912L3.29445 4.09559C2.26399 4.25466 1.35111 4.81486 0.742514 5.66552C0.127007 6.51619 -0.115047 7.55358 0.0509326 8.59098L1.98736 20.5556C2.15334 21.593 2.71352 22.499 3.56417 23.1145C4.235 23.6056 5.03032 23.8545 5.8533 23.8545C6.06077 23.8545 6.27516 23.8407 6.48955 23.8061L18.4539 21.8697C20.5909 21.5239 22.0501 19.5044 21.7043 17.3674L20.5148 10.0364Z" fill="#E42527"/>
<path d="M34.8651 15.7493L36.6217 11.8141L36.1238 8.15559C36.0616 7.71989 36.1791 7.28418 36.4489 6.93147C36.7186 6.57875 37.1059 6.35052 37.5485 6.2952L49.5543 4.66303C49.6304 4.65611 49.7065 4.64919 49.7825 4.64919C50.1422 4.64919 50.488 4.76676 50.7853 4.98808C50.8407 5.02957 50.8891 5.07798 50.9375 5.11948C51.47 4.55929 52.1685 4.15816 52.95 3.98526C52.7287 3.68096 52.4659 3.41123 52.1547 3.17609C51.3179 2.53982 50.2874 2.2701 49.25 2.40842L37.2303 4.04059C36.193 4.17891 35.2662 4.71835 34.6369 5.55519C34.0007 6.39202 33.7309 7.4225 33.8693 8.4599L34.8651 15.7493Z" fill="#226DB4"/>
<path d="M55.2944 17.7751L53.7176 6.15625C52.8324 6.18391 52.1201 6.91701 52.1201 7.80917V11.2187L53.0537 18.0794C53.116 18.5151 52.9984 18.9508 52.7287 19.3035C52.459 19.6562 52.0717 19.8845 51.6291 19.9398L39.6232 21.572C39.1875 21.6342 38.7518 21.5166 38.3991 21.2469C38.0464 20.9772 37.8182 20.5899 37.7629 20.1473L37.2096 16.0738L35.453 20.0089L35.5152 20.4516C35.6535 21.489 36.193 22.4157 37.0298 23.0451C37.7214 23.5707 38.5443 23.8473 39.4019 23.8473C39.5817 23.8473 39.7615 23.8335 39.9413 23.8127L51.9334 22.1944C52.9707 22.0561 53.8975 21.5166 54.5268 20.6798C55.163 19.843 55.4328 18.8125 55.2944 17.7751Z" fill="#226DB4"/>
<path d="M44.8239 28.1837C44.8239 27.1463 45.5846 26.3994 46.622 26.3994C47.694 26.3994 48.4201 27.1325 48.4201 28.1907C48.4201 29.2626 47.6801 30.0026 46.6082 30.0026C45.5293 30.0026 44.8239 29.2626 44.8239 28.1837ZM47.5902 28.1976C47.5902 27.5682 47.2859 27.0288 46.6013 27.0288C45.9097 27.0288 45.6469 27.589 45.6469 28.2252C45.6469 28.8269 45.9719 29.3802 46.6358 29.3802C47.3205 29.3733 47.5902 28.7854 47.5902 28.1976ZM37.1543 26.4547H37.666C37.7421 26.4547 37.8044 26.517 37.8044 26.5931V27.8794H39.2567V26.5931C39.2567 26.517 39.3189 26.4547 39.395 26.4547H39.9068C39.9828 26.4547 40.0451 26.517 40.0451 26.5931V29.809C40.0451 29.8851 39.9828 29.9473 39.9068 29.9473H39.4019C39.3258 29.9473 39.2636 29.8851 39.2636 29.809V28.5088H37.8113V29.809C37.8113 29.8851 37.749 29.9473 37.6729 29.9473H37.1612C37.0851 29.9473 37.0229 29.8851 37.0229 29.809V26.5931C37.0159 26.517 37.0782 26.4547 37.1543 26.4547ZM28.6409 28.1837C28.6409 27.1463 29.4016 26.3994 30.439 26.3994C31.511 26.3994 32.2371 27.1325 32.2371 28.1907C32.2371 29.2626 31.4971 30.0026 30.4252 30.0026C29.3463 30.0026 28.6409 29.2626 28.6409 28.1837ZM31.4141 28.1976C31.4141 27.5682 31.1098 27.0288 30.4252 27.0288C29.7336 27.0288 29.4708 27.589 29.4708 28.2252C29.4708 28.8269 29.7958 29.3802 30.4598 29.3802C31.1444 29.3733 31.4141 28.7854 31.4141 28.1976ZM21.4208 29.6084L23.1359 27.0772H21.7251C21.649 27.0772 21.5868 27.0149 21.5868 26.9389V26.6C21.5868 26.5239 21.649 26.4617 21.7251 26.4617H24.0419C24.118 26.4617 24.1802 26.5239 24.1802 26.6V26.7314C24.1802 26.759 24.1733 26.7867 24.1595 26.8075L22.4789 29.3387H23.9866C24.0626 29.3387 24.1249 29.4009 24.1249 29.477V29.8159C24.1249 29.892 24.0626 29.9542 23.9866 29.9542H21.5384C21.4623 29.9542 21.4 29.892 21.4 29.8159V29.6914C21.3931 29.6568 21.407 29.6292 21.4208 29.6084Z" fill="black"/>
</svg>
