<svg width="108" height="20" viewBox="0 0 108 20" fill="none" xmlns="http://www.w3.org/2000/svg">
<path fill-rule="evenodd" clip-rule="evenodd" d="M0.715759 10.001C0.715759 4.46764 5.28243 0.000976562 10.9158 0.000976562C16.5491 0.000976562 21.1158 4.46764 21.1158 10.001C21.1158 15.5343 16.5491 20.001 10.9158 20.001C5.28243 20.001 0.715759 15.5343 0.715759 10.001ZM4.89909 9.98431C4.89909 13.251 7.58243 15.8843 10.9158 15.8843C14.2324 15.8843 16.9324 13.2676 16.9324 9.98431C16.9324 6.70098 14.2491 4.08431 10.9158 4.08431C7.58243 4.08431 4.89909 6.71764 4.89909 9.98431ZM22.6158 5.46764H26.7992V6.93431C27.7325 6.16764 28.6492 5.55098 30.8158 5.33431V9.35098H26.7992V19.401H22.6158V5.46764ZM41.899 6.51764C41.2824 5.91764 39.849 5.11764 37.9657 5.11764C35.099 5.11764 31.4824 7.28431 31.4824 12.5343C31.4824 17.7843 35.1157 19.7843 38.149 19.7843C40.2324 19.7843 41.5824 18.9176 42.149 18.101V19.401H45.9657V0.58431H41.9157L41.899 6.51764ZM38.799 16.7676C36.999 16.7676 35.7157 15.2676 35.7157 12.451C35.7157 9.41764 37.0157 8.18431 38.899 8.18431C40.9157 8.18431 41.9824 9.58431 41.9824 12.451C41.999 15.1676 41.049 16.7676 38.799 16.7676ZM67.1657 5.45098V6.91764C68.0824 6.16764 69.0157 5.53431 71.1824 5.33431V9.35098H67.1657V19.3843H62.9824V5.45098H67.1657ZM54.5325 5.05094C49.4158 5.05094 47.2491 8.90094 47.2491 12.7343C47.2491 16.9843 50.7658 19.9176 54.5325 19.9176C60.2325 19.9176 61.4491 15.5343 61.4491 15.5343L58.1991 14.1009C58.1991 14.1009 57.4991 16.7509 54.7991 16.7509C52.6325 16.7509 51.5491 15.1176 51.4658 13.2843H61.7158C61.6991 8.16761 59.0491 5.05094 54.5325 5.05094ZM51.4825 10.7176C51.5325 9.35094 52.8825 7.96761 54.4491 7.96761C55.9825 7.96761 57.3658 9.06761 57.3658 10.7176H51.4825ZM75.4991 18.0009C75.4991 19.0509 74.6324 19.9009 73.5658 19.9009C72.4991 19.9009 71.6324 19.0676 71.6324 18.0009C71.6324 16.9509 72.4991 16.1009 73.5658 16.1009C74.6324 16.1009 75.4991 16.9509 75.4991 18.0009ZM99.9158 5.05094C95.7158 5.05094 92.3325 8.38428 92.3325 12.4843C92.3325 16.6009 95.7325 19.9176 99.9158 19.9176C104.116 19.9176 107.499 16.5843 107.499 12.4843C107.516 8.38428 104.116 5.05094 99.9158 5.05094ZM99.9158 16.4176C97.7491 16.4176 95.9991 14.6843 95.9991 12.5676C95.9991 10.4509 97.7658 8.71761 99.9158 8.71761C102.082 8.71761 103.849 10.4509 103.849 12.5676C103.849 14.6843 102.082 16.4176 99.9158 16.4176ZM91.2658 15.5509L90.9325 15.4009L88.0158 14.1009C88.0158 14.1009 87.6325 15.5509 86.3325 16.3176H86.3158C85.8158 16.5843 85.2325 16.7509 84.5325 16.7509C82.3325 16.7509 81.2825 14.9843 81.2825 12.4509C81.2825 10.0509 82.1825 8.36761 84.2325 8.21761C84.3325 8.20094 84.4492 8.20094 84.5492 8.20094C84.5889 8.20094 84.6249 8.20474 84.6625 8.20871C84.7037 8.21306 84.7469 8.21761 84.7992 8.21761H84.8992C85.2992 8.23428 85.6658 8.33428 85.9825 8.46761C87.5658 9.11761 88.0158 10.8509 88.0158 10.8509L90.9325 9.56761L91.2658 9.41761C91.2658 9.41761 90.1325 5.26761 84.7992 5.05094H84.6325H84.3825H84.2158C80.9492 5.11761 78.9158 6.75094 77.9158 8.93428C77.3992 10.0176 77.1492 11.2509 77.1158 12.4843C77.1658 13.7176 77.4158 14.9343 77.9158 16.0343C79.1492 18.3843 81.6158 19.8676 84.2158 19.9176H84.3825H84.6325H84.7992C90.1158 19.7009 91.2658 15.5509 91.2658 15.5509Z" fill="#377664"/>
</svg>
