<svg width="134" height="20" viewBox="0 0 134 20" fill="none" xmlns="http://www.w3.org/2000/svg">
<path d="M27.0908 10.3623L14.0049 20.0049L0.917969 10.3623V7.95508L14.0049 17.5967L27.0908 7.95508V10.3623ZM64.0527 11.3408L64.4648 11.7754V3.12891H66.1885V15.8379H66.1699L58.1504 7.41699L57.7373 6.9834V15.6299H56.0156V2.9209H56.0342L64.0527 11.3408ZM74.1309 3.33691C78.2646 3.33698 81.0213 5.83706 81.0215 9.58691C81.0215 13.3371 78.3008 15.8379 74.2021 15.8379H70.4258V3.33691H74.1309ZM92.4639 12.3125C92.4639 14.431 90.7907 15.8378 88.2969 15.8379H83.9893V3.33691H87.8428C90.3196 3.33691 91.9578 4.62161 91.958 6.75684C91.958 7.8338 91.3656 8.82383 90.3887 9.27539C91.6268 9.72682 92.4634 10.9414 92.4639 12.3125ZM101.577 2.9209C105.244 2.9209 108.146 5.71589 108.146 9.37988C108.146 13.043 105.298 15.8379 101.577 15.8379C97.8563 15.8379 95.0079 13.043 95.0078 9.37988C95.0078 5.76821 97.8562 2.92091 101.577 2.9209ZM115.343 8.21582L118.758 3.33691H120.735L116.313 9.5L120.861 15.8379H118.866L115.343 10.8027L111.82 15.8379H109.842L114.39 9.5L109.967 3.33691H111.945L115.343 8.21582ZM36.5098 2.91992C37.779 2.91992 38.9594 3.24941 39.6641 3.5625V5.14258C38.9595 4.7772 37.744 4.41312 36.5986 4.41309C35.0293 4.41309 33.9365 5.10718 33.9365 6.21875C33.9365 7.24264 34.5547 7.97257 36.7217 8.71875C39.1533 9.58647 40.334 10.5591 40.334 12.4346C40.3339 14.5699 38.6598 15.8369 35.999 15.8369C34.5369 15.8369 33.1802 15.473 32.334 15.1084V13.458C33.2324 13.8926 34.5366 14.3446 35.9111 14.3447C37.4966 14.3447 38.6777 13.7011 38.6777 12.5557C38.6776 11.3927 37.9899 10.7673 35.8584 10.0381C33.4269 9.20501 32.2813 8.18044 32.2812 6.27051C32.2812 4.1528 34.0782 2.92 36.5098 2.91992ZM53.4727 15.4219H51.6562L50.3887 12.6895H44.6699L43.4219 15.4219H41.6045L47.5205 2.9209H47.5576L53.4727 15.4219ZM85.6104 14.4834H88.3486C89.7956 14.4834 90.7549 13.5801 90.7549 12.2432C90.7547 10.9065 89.9181 10.0566 88.6797 10.0566H85.6104V14.4834ZM72.1436 14.4316H74.1846C77.227 14.4316 79.2666 12.4863 79.2666 9.58691C79.2664 6.6879 77.2093 4.74328 74.1133 4.74316H72.1436V14.4316ZM101.577 4.46582C98.8001 4.46584 96.7344 6.54978 96.7344 9.37988C96.7345 12.2091 98.8002 14.293 101.577 14.293C104.354 14.293 106.402 12.2091 106.402 9.37988C106.402 6.549 104.354 4.46582 101.577 4.46582ZM47.5391 6.25098C46.8267 7.99258 46.1663 9.46131 45.2939 11.3398H49.7656C48.8933 9.46132 48.2337 7.99258 47.5391 6.25098ZM85.6104 8.75391H88.9414L89.085 8.70996C89.7893 8.45831 90.25 7.78797 90.25 6.84375C90.2498 5.55932 89.3947 4.69141 87.9648 4.69141H85.6104V8.75391ZM24.2285 7.05176L22.584 8.21777L15.2881 3.0459C14.6944 2.6253 14.1226 2.41211 13.5889 2.41211C12.2476 2.41226 11.3108 3.77381 10.7607 4.91602C9.97917 6.53993 8.82275 8.2167 6.17188 8.33594L6.12305 8.33691L4.30859 7.05176L14.2539 0.00390625L24.2285 7.05176ZM123.213 2.18066C123.69 3.28455 124.072 4.10753 124.463 5.10449C124.855 4.10753 125.236 3.28455 125.714 2.18066L126.659 0.00390625H127.643L124.474 7.08691H124.454L121.284 0.00390625H122.268L123.213 2.18066ZM131.274 0.00390625C132.875 0.00390625 133.838 0.8112 133.838 2.16895C133.838 3.23096 133.128 3.91904 132.349 4.15527L134 7.08691H132.915L131.406 4.31348H129.887V7.08691H128.914V0.00390625H131.274ZM129.887 3.53613H131.325C132.287 3.53613 132.865 3.02416 132.865 2.16895C132.865 1.31287 132.258 0.800919 131.244 0.800781H129.887V3.53613Z" fill="black"/>
</svg>
