<svg width="49" height="30" viewBox="0 0 49 30" fill="none" xmlns="http://www.w3.org/2000/svg">
<path fill-rule="evenodd" clip-rule="evenodd" d="M6.47354 21.7871C6.04544 22.1837 5.3928 22.4292 4.46105 22.4292C3.90494 22.4292 3.36981 22.3537 3.01726 22.2026C2.28907 21.913 1.91553 21.4408 1.74345 20.7672C1.61544 20.2866 1.57347 19.5689 1.57347 18.1671V15.6195C1.57347 15.2459 1.49792 15.0739 1.16635 15.0739H0.662705C0.597651 15.0739 0.587158 15.0529 0.587158 14.9773V14.7423C0.587158 14.6772 0.597651 14.6562 0.683691 14.6562C0.711796 14.6562 0.768699 14.6584 0.852462 14.6616L0.853114 14.6616L0.853423 14.6617H0.853472H0.853569C1.08907 14.6707 1.53564 14.6877 2.15057 14.6877C2.75795 14.6877 3.19553 14.6711 3.43426 14.662C3.52381 14.6586 3.58538 14.6562 3.61744 14.6562C3.70348 14.6562 3.71397 14.6793 3.71397 14.7213V15.0004C3.71397 15.055 3.70348 15.076 3.62793 15.076H3.09281C2.78222 15.076 2.59965 15.2795 2.57867 15.5146C2.56817 15.6111 2.55768 16.3603 2.55768 16.9059V17.6131C2.55768 18.1718 2.59849 19.5019 2.60969 19.8667L2.60969 19.8668L2.61014 19.8816C2.62064 20.3748 2.70668 20.8763 2.95221 21.2414C3.34883 21.8185 4.03295 22.0116 4.65412 22.0116C5.26479 22.0116 5.88596 21.8102 6.25949 21.424C6.6771 20.9749 6.81561 20.3307 6.81561 19.5395V17.25C6.81561 16.4358 6.79252 15.8146 6.76104 15.5481C6.72957 15.2711 6.55958 15.0781 6.28048 15.0781H5.81041C5.74535 15.0781 5.73486 15.0466 5.73486 14.992V14.736C5.73486 14.6814 5.74745 14.6604 5.81041 14.6604C5.8402 14.6604 5.89976 14.6629 5.98569 14.6664L5.98587 14.6664C6.20862 14.6755 6.60843 14.6919 7.12619 14.6919C7.66869 14.6919 7.99727 14.6749 8.17177 14.6659H8.1718H8.17182C8.23489 14.6627 8.27784 14.6604 8.30347 14.6604C8.4 14.6604 8.41049 14.7045 8.41049 14.736V14.971C8.41049 15.0361 8.3979 15.0781 8.34544 15.0781H7.90684C7.54323 15.0781 7.48622 15.333 7.45487 15.4731C7.45221 15.485 7.44973 15.4961 7.44726 15.5062C7.42628 15.6132 7.42628 17.1346 7.42628 17.2836C7.42628 17.4326 7.40319 19.3045 7.37172 19.7221C7.30876 20.5993 7.07373 21.2729 6.47354 21.7871ZM13.0169 18.4148C13.018 18.5307 13.0189 18.6397 13.0189 18.7379V21.4639C13.0189 21.5667 12.9854 21.6842 12.8448 21.6842C12.7419 21.6842 12.6244 21.6024 12.5782 21.5667C12.5084 21.4987 12.2113 21.1423 11.8298 20.6848C11.7853 20.6314 11.7397 20.5766 11.6931 20.5208C11.6761 20.5005 11.659 20.48 11.6418 20.4594C11.656 20.4933 11.6632 20.5266 11.6632 20.5573C11.6632 20.7861 11.5164 20.8952 11.3695 20.8952C11.1344 20.8952 11.0673 20.763 11.0463 20.6014C11.0379 20.5279 10.9644 20.3873 10.7441 20.3873C10.1571 20.3873 9.96409 21.1026 9.76867 21.8266C9.73633 21.9465 9.70392 22.0666 9.66964 22.1837C9.66964 22.1837 10.6916 22.211 11.5268 22.211C12.2033 22.211 12.644 22.1931 12.8617 22.1843C12.933 22.1814 12.9804 22.1795 13.0042 22.1795C13.1007 22.1795 13.1112 22.211 13.1112 22.255V22.5006C13.1112 22.553 13.1007 22.5971 13.0252 22.5971H12.5111C12.211 22.5971 12.062 22.6936 12.062 22.8741C12.062 22.9601 12.0725 23.0881 12.1039 23.2392C12.1669 23.6233 12.5635 24.8971 12.7566 25.4973C12.8846 25.9044 13.5058 27.7448 13.7513 28.3974C13.9968 27.8938 14.832 25.6903 14.9181 25.4448C14.9946 25.2377 15.2247 24.5495 15.4079 24.0017C15.4808 23.7836 15.5463 23.5877 15.5917 23.4533L15.595 23.4432C15.6793 23.1819 15.7407 22.9918 15.7407 22.8426C15.7407 22.7146 15.6652 22.5971 15.3986 22.5971H15.1195C15.0776 22.5971 15.0671 22.5656 15.0671 22.5006V22.255C15.0671 22.2005 15.0776 22.1795 15.1321 22.1795C15.1586 22.1795 15.2148 22.1819 15.2963 22.1853C15.5119 22.1944 15.9051 22.211 16.3954 22.211C16.973 22.211 17.2703 22.1937 17.425 22.1848C17.4794 22.1816 17.5161 22.1795 17.5412 22.1795C17.6042 22.1795 17.6168 22.2005 17.6168 22.255V22.5215C17.6168 22.5635 17.6063 22.5971 17.5412 22.5971H17.2516C16.8991 22.5971 16.6955 22.7692 16.492 23.0147C16.2418 23.3213 15.5281 25.1164 15.2528 25.8088C15.2209 25.889 15.1949 25.9543 15.1762 26.0009C15.0482 26.3535 13.6674 29.7573 13.6128 29.8643C13.5708 29.9504 13.5163 30.0028 13.4638 30.0028C13.3779 30.0028 13.336 29.8963 13.2816 29.7582L13.2812 29.7573C12.8363 28.4856 12.3872 27.216 11.9319 25.9485L11.8248 25.5833C11.7588 25.3872 11.6762 25.1384 11.5876 24.8716C11.3331 24.1049 11.0294 23.1899 10.9267 22.9517C10.8196 22.7062 10.7126 22.5992 10.4881 22.5992L9.49337 22.5887C9.43909 22.7581 9.37294 22.9811 9.29758 23.2351C9.10779 23.8748 8.85956 24.7116 8.59519 25.386C8.14611 26.5339 7.62357 27.3503 6.83662 27.3503C6.54283 27.3503 6.30779 27.1509 6.30779 26.9159C6.30779 26.7459 6.43371 26.599 6.62467 26.599C6.83872 26.599 6.94785 26.8047 6.97093 26.9306C6.98562 27.004 7.03808 27.0565 7.09684 27.0565C7.4494 27.0565 7.84812 26.4395 8.24474 25.0776L8.98762 22.5887H8.33288C8.2951 22.5887 8.27832 22.553 8.29301 22.5006L8.32239 22.3746C8.33708 22.3222 8.38744 22.2047 8.4462 22.2047H9.08625C9.1582 21.9984 9.22948 21.8045 9.30644 21.6216C9.13286 21.6123 8.92004 21.6024 8.74212 21.6024C8.65013 21.6024 8.44048 21.614 8.25992 21.6239L8.25977 21.6239H8.25972C8.12319 21.6315 8.00332 21.6381 7.96357 21.6381C7.94049 21.6381 7.92789 21.615 7.92789 21.5562V21.254C7.92789 21.2309 7.93839 21.2184 7.97406 21.2184H8.24058C8.35809 21.2184 8.54276 21.1365 8.57844 20.87C8.59103 20.7315 8.61411 19.9047 8.61411 18.591V17.3696C8.61411 16.9499 8.32242 16.7527 7.99715 16.7527H7.89222C7.84605 16.7527 7.82297 16.7296 7.82297 16.6834V16.4043C7.82297 16.3707 7.84605 16.3351 7.89222 16.3351C7.89871 16.3351 7.91348 16.3361 7.93472 16.3375C7.98907 16.3412 8.08577 16.3477 8.19441 16.3477C8.3455 16.3582 8.53227 16.3707 8.66028 16.3707C8.7589 16.3707 8.87428 16.3642 8.9818 16.358L8.98201 16.358L8.9826 16.358C9.07612 16.3526 9.16365 16.3477 9.22898 16.3477C9.39267 16.3477 9.46192 16.3707 9.50809 16.44C9.54167 16.4862 10.8805 18.1713 11.124 18.463C11.2153 18.5701 11.4756 18.8931 11.7505 19.2343L11.7506 19.2345L11.7507 19.2345C12.1007 19.669 12.4743 20.1327 12.5531 20.2174H12.5992V19.4514C12.5992 18.7883 12.5866 18.4273 12.5636 18.0559C12.5636 17.7768 12.53 17.1031 12.4712 16.9625C12.4125 16.8219 12.2383 16.7527 12.041 16.7527H11.8438C11.785 16.7527 11.7619 16.7296 11.7619 16.6708V16.3917C11.7619 16.3561 11.785 16.333 11.8438 16.333C11.869 16.333 11.9365 16.3365 12.0289 16.3414C12.2281 16.352 12.5427 16.3686 12.7965 16.3686C12.9506 16.3686 13.1702 16.3544 13.3315 16.3439C13.425 16.3378 13.4988 16.333 13.5289 16.333C13.5876 16.333 13.6107 16.3561 13.6107 16.4253V16.6687C13.6107 16.717 13.5876 16.7506 13.5415 16.7506H13.4261C13.1365 16.7506 13.0777 16.8303 13.0546 16.994C13.008 17.4189 13.0129 17.968 13.0169 18.4147V18.4148ZM9.49626 21.2205H9.38218C9.26676 21.2205 9.13875 21.0924 9.10307 20.8259C9.07999 20.721 9.03382 19.5584 9.03382 18.8596V17.2668H9.05691C9.14732 17.3684 9.41427 17.7149 9.69732 18.0823C9.99898 18.4738 10.3189 18.8891 10.4629 19.0569C10.5791 19.194 11.001 19.6956 11.478 20.264C11.3659 20.1825 11.2048 20.1229 11.0001 20.1229C10.5216 20.1229 10.1166 20.3873 9.91097 20.6224C9.74577 20.8062 9.61215 21.0047 9.49626 21.2205ZM15.5564 17.9447C15.554 18.2788 15.5519 18.5852 15.5519 18.6225L15.554 19.2038C15.554 19.273 15.554 20.6098 15.5645 20.784C15.5875 21.0505 15.726 21.2142 16.0639 21.2142H16.2381C16.2947 21.2142 16.3073 21.2393 16.3073 21.2729V21.5478C16.3073 21.594 16.2968 21.6297 16.2381 21.6297C16.2099 21.6297 16.1364 21.6265 16.0332 21.622C15.7904 21.6116 15.3834 21.594 15.0167 21.594C14.7387 21.594 14.321 21.6117 14.0743 21.6222C13.971 21.6266 13.8977 21.6297 13.8772 21.6297C13.8311 21.6297 13.808 21.594 13.808 21.5352V21.2792C13.808 21.2456 13.8311 21.21 13.8772 21.21H14.1333C14.4229 21.21 14.6096 21.1995 14.6327 20.9896C14.6453 20.8847 14.6558 19.4073 14.6558 19.0128V18.5008C14.6558 18.4043 14.6496 18.0483 14.6437 17.704L14.6437 17.7036C14.6381 17.3811 14.6327 17.069 14.6327 16.9898C14.6327 16.8639 14.5278 16.7464 14.0388 16.7464H13.829C13.7702 16.7464 13.7597 16.7107 13.7597 16.6645V16.398C13.7597 16.3519 13.7828 16.3288 13.829 16.3288C13.8448 16.3288 13.8944 16.3313 13.9682 16.335C14.2181 16.3476 14.7444 16.3742 15.1657 16.3644C15.3876 16.3644 15.7199 16.3491 15.948 16.3385C16.0673 16.333 16.1581 16.3288 16.1898 16.3288C16.236 16.3288 16.2591 16.354 16.2591 16.3875V16.6666C16.2591 16.7149 16.2486 16.7485 16.1898 16.7485H15.9926C15.6778 16.7485 15.5729 16.7967 15.5624 17.0402C15.5624 17.1042 15.5592 17.5443 15.5564 17.9447ZM27.161 19.9828C27.161 19.6513 27.161 19.3024 27.1672 18.9477H27.1714V17.1073C27.1589 16.8744 27.0539 16.7464 26.7287 16.7464H26.6111C26.5776 16.7464 26.565 16.7107 26.565 16.6645V16.3854C26.565 16.3498 26.5881 16.3267 26.6342 16.3267C26.6545 16.3267 26.7533 16.3309 26.8827 16.3365L26.8837 16.3365L26.8842 16.3365L26.8847 16.3366L26.8849 16.3366C27.1308 16.3471 27.4855 16.3624 27.6226 16.3624C27.6917 16.3624 27.9707 16.3538 28.2547 16.345H28.2548L28.2552 16.345C28.5494 16.3359 28.849 16.3267 28.9258 16.3267C29.6225 16.3267 30.1451 16.5239 30.4368 16.78C30.6928 17.0255 30.8439 17.3634 30.8439 17.6299C30.8439 18.4315 30.3906 18.8974 29.4714 19.2227V19.2457C29.717 19.2999 29.9341 19.6089 30.3395 20.1859C30.374 20.235 30.4099 20.2861 30.4473 20.3391C30.6088 20.572 30.8775 20.9204 31.0978 21.0841C31.2594 21.1995 31.4105 21.2121 31.6203 21.2121C31.6686 21.2121 31.6791 21.2477 31.6791 21.317V21.5499C31.6791 21.5961 31.656 21.6318 31.6098 21.6318C31.5883 21.6318 31.5046 21.6226 31.3998 21.6112L31.3769 21.6087C31.3257 21.6087 31.266 21.6057 31.2048 21.6026C31.1407 21.5994 31.075 21.5961 31.016 21.5961C30.7662 21.5961 30.5186 21.6045 30.271 21.6192C30.0882 21.4851 29.7047 20.8139 29.5194 20.4896L29.5193 20.4894C29.4812 20.4228 29.4515 20.3708 29.4337 20.3412C29.0161 19.6214 28.8419 19.3654 28.3529 19.3654C28.2375 19.3654 28.1326 19.3654 28.0507 19.3884V20.9225C28.0738 21.0862 28.1431 21.2142 28.376 21.2142H28.6782C28.7244 21.2142 28.7474 21.2393 28.7474 21.2729V21.5541C28.7474 21.6129 28.7244 21.636 28.6551 21.636C28.6293 21.636 28.549 21.6324 28.4391 21.6275C28.2012 21.617 27.8245 21.6003 27.5618 21.6003C27.3728 21.6003 27.0542 21.6155 26.8329 21.626L26.8327 21.626L26.8326 21.6261L26.8325 21.6261C26.7149 21.6317 26.6248 21.636 26.5964 21.636C26.5503 21.636 26.5272 21.6003 26.5272 21.5415V21.275C26.5272 21.2393 26.5503 21.2163 26.5964 21.2163H26.7371C27.0162 21.2163 27.1547 21.1701 27.1547 20.9141C27.161 20.6287 27.161 20.3144 27.161 19.9828ZM28.3991 16.7044C28.2249 16.7044 28.0507 16.7506 28.0507 16.9604V18.9939C28.1662 19.0107 28.2816 19.017 28.3991 19.017C29.6897 19.017 29.8869 18.1104 29.8869 17.8082C29.8869 17.4599 29.7128 17.1451 29.5029 17.0066C29.1902 16.8093 28.865 16.7044 28.3991 16.7044ZM35.127 20.1229C35.127 20.9959 34.5688 21.7388 33.5111 21.7388C32.9193 21.7388 32.5122 21.5415 32.2394 21.3275C32.1576 21.2687 32.0883 21.2582 32.0652 21.3506L32.0316 21.4429C32.0086 21.5017 31.9498 21.5247 31.8575 21.5017C31.7882 21.4786 31.7525 21.4324 31.7651 21.3736C31.8008 21.0484 31.8827 20.1187 31.8931 19.932C31.9057 19.8858 31.9288 19.8501 31.975 19.8501L32.1848 19.8732C32.231 19.8858 32.2772 19.9089 32.2772 19.955C32.2772 20.1187 32.2772 20.3622 32.487 20.7462C32.6612 21.0945 33.0452 21.3275 33.4754 21.3275C33.8469 21.3275 34.4051 21.0358 34.4051 20.5363C34.4051 19.8732 33.9518 19.5836 33.3348 19.3507C33.1019 19.2709 32.5437 19.0611 32.1953 18.7463C31.9267 18.4924 31.7882 18.1188 31.7882 17.5501C31.7882 17.1535 32.0317 16.7926 32.2877 16.5722C32.5899 16.3288 32.9634 16.2238 33.381 16.2238C33.8217 16.2238 34.0651 16.3057 34.2057 16.3749C34.3212 16.4442 34.3799 16.4568 34.403 16.398L34.4492 16.3162C34.4722 16.2826 34.5079 16.2826 34.6003 16.2826C34.6947 16.2826 34.7052 16.3288 34.7052 16.3875C34.7052 16.6658 34.7603 17.1389 34.7954 17.4408L34.7954 17.4409C34.8088 17.5556 34.8192 17.6456 34.8227 17.6907C34.8227 17.7264 34.8122 17.7474 34.7765 17.76L34.5667 17.8061C34.531 17.8187 34.5079 17.7956 34.4974 17.76C34.4788 17.7228 34.4584 17.6662 34.4338 17.5979L34.4337 17.5978C34.3667 17.4119 34.2683 17.1393 34.0903 16.9353C33.9161 16.7401 33.6622 16.6226 33.3243 16.6226C32.6864 16.6226 32.4996 17.122 32.4996 17.3319C32.4996 17.5081 32.5584 17.7516 32.6864 17.9027C32.8606 18.123 33.2803 18.2972 33.5006 18.379C33.5649 18.4027 33.6277 18.4255 33.6889 18.4476C34.1367 18.6096 34.4989 18.7406 34.7555 19.0065C34.9864 19.252 35.127 19.5416 35.127 20.1229ZM37.103 17.9447C37.1001 18.2788 37.0975 18.5852 37.0975 18.6225L37.0996 19.2038C37.0996 19.273 37.0996 20.6098 37.1122 20.784C37.1353 21.0505 37.2738 21.2142 37.6116 21.2142H37.7858C37.8446 21.2142 37.8551 21.2393 37.8551 21.2729V21.5478C37.8551 21.594 37.8446 21.6297 37.7858 21.6297C37.7577 21.6297 37.6841 21.6265 37.5809 21.622C37.3381 21.6116 36.9311 21.594 36.5645 21.594C36.2864 21.594 35.8688 21.6117 35.6221 21.6222H35.622H35.622C35.5187 21.6266 35.4454 21.6297 35.425 21.6297C35.3788 21.6297 35.3557 21.594 35.3557 21.5352V21.2792C35.3557 21.2456 35.3788 21.21 35.425 21.21H35.681C35.9706 21.21 36.1574 21.1995 36.1805 20.9896C36.1909 20.8847 36.2035 19.4073 36.2035 19.0128V18.5008C36.2035 18.4044 36.1974 18.0489 36.1914 17.7048L36.1914 17.7036L36.1914 17.7028C36.1858 17.3806 36.1805 17.0689 36.1805 16.9898C36.1805 16.8639 36.0755 16.7464 35.5866 16.7464H35.3767C35.3201 16.7464 35.3075 16.7107 35.3075 16.6645V16.398C35.3075 16.3519 35.3305 16.3288 35.3767 16.3288C35.3925 16.3288 35.4422 16.3313 35.5159 16.335C35.7658 16.3476 36.2922 16.3742 36.7135 16.3644C36.9354 16.3644 37.2676 16.3491 37.4958 16.3385C37.6151 16.333 37.7059 16.3288 37.7376 16.3288C37.7837 16.3288 37.8068 16.354 37.8068 16.3875V16.6666C37.8068 16.7149 37.7963 16.7485 37.7376 16.7485H37.5403C37.2255 16.7485 37.1206 16.7967 37.1101 17.0402C37.1101 17.1042 37.1064 17.5443 37.103 17.9447ZM8.16503 23.0525C8.16503 23.8604 7.52498 25.3252 6.45892 25.3252C6.0539 25.3252 5.70135 24.9349 5.70135 24.3766C5.70135 23.4512 6.40016 22.1921 7.37808 22.1921C7.87123 22.1921 8.16503 22.553 8.16503 23.0525ZM6.01193 24.597C6.01193 24.832 6.17352 24.9726 6.3498 24.9726C7.11366 24.9726 7.87123 23.4281 7.87123 22.9434C7.87963 22.7146 7.74742 22.5299 7.50399 22.5299C7.19551 22.5299 6.80518 22.809 6.43794 23.405C6.18821 23.8017 6.01193 24.2507 6.01193 24.597ZM18.3559 24.8294C18.3535 25.1652 18.3513 25.4745 18.3513 25.512L18.3534 26.0891C18.3534 26.1583 18.3534 27.4951 18.3639 27.6692C18.387 27.9358 18.5255 28.0994 18.8634 28.0994H19.0375C19.0942 28.0994 19.1068 28.1225 19.1068 28.1582V28.4373C19.1068 28.4856 19.0963 28.5192 19.0375 28.5192C19.0094 28.5192 18.9358 28.5162 18.8326 28.512C18.5898 28.5021 18.1828 28.4856 17.8162 28.4856C17.5382 28.4856 17.1205 28.5022 16.8739 28.5121H16.8738H16.8738H16.8737C16.7704 28.5162 16.6971 28.5192 16.6767 28.5192C16.6305 28.5192 16.6074 28.4856 16.6074 28.4268V28.1708C16.6074 28.1372 16.6305 28.1015 16.6767 28.1015H16.9327C17.2223 28.1015 17.4091 28.0911 17.4322 27.8812C17.4426 27.7763 17.4552 26.2989 17.4552 25.9044V25.3923C17.4552 25.2972 17.4491 24.9427 17.4432 24.5988C17.4376 24.275 17.4322 23.9608 17.4322 23.8814C17.4322 23.7555 17.3272 23.638 16.8383 23.638H16.6284C16.5718 23.638 16.5592 23.6023 16.5592 23.5561V23.2896C16.5592 23.2434 16.5822 23.2204 16.6284 23.2204C16.6441 23.2204 16.6933 23.2227 16.7664 23.2262C17.0157 23.2383 17.5432 23.2637 17.9652 23.2539C18.1871 23.2539 18.5193 23.2395 18.7475 23.2295L18.7476 23.2295L18.7493 23.2294C18.8677 23.2243 18.9577 23.2204 18.9893 23.2204C19.0354 23.2204 19.0585 23.2434 19.0585 23.2791V23.5582C19.0585 23.6044 19.048 23.6401 18.9893 23.6401H18.792C18.4772 23.6401 18.3744 23.6883 18.3618 23.9318C18.3618 23.9943 18.3587 24.4291 18.3559 24.8273L18.3559 24.8292V24.8294ZM20.1099 26.8721C20.1099 26.5408 20.1099 26.1919 20.1162 25.8372L20.1204 23.9947C20.1099 23.7618 20.005 23.6338 19.6797 23.6338H19.5622C19.5286 23.6338 19.516 23.5981 19.516 23.5519V23.2728C19.516 23.2371 19.5391 23.2141 19.5852 23.2141C19.6056 23.2141 19.7049 23.2181 19.8348 23.2233L19.8352 23.2233H19.8353C20.0812 23.2333 20.4364 23.2476 20.5737 23.2476C20.6414 23.2476 20.9179 23.2396 21.2004 23.2314L21.2006 23.2314L21.2012 23.2314L21.2017 23.2314C21.4966 23.2228 21.7977 23.2141 21.8747 23.2141C22.5715 23.2141 23.094 23.4113 23.3857 23.6673C23.6417 23.9108 23.7928 24.2486 23.7928 24.5152C23.7928 25.3168 23.3395 25.7827 22.4204 26.1079V26.131C22.6639 26.1847 22.8794 26.4908 23.2782 27.0571C23.3001 27.0881 23.3224 27.1198 23.3453 27.1523C23.362 27.1759 23.3789 27.1999 23.3962 27.2244C23.5578 27.4573 23.8264 27.8057 24.0467 27.9693C24.2083 28.0848 24.3594 28.0973 24.5693 28.0973C24.6175 28.0973 24.628 28.133 24.628 28.2023V28.4352C24.628 28.4835 24.6049 28.5171 24.5588 28.5171C24.5372 28.5171 24.4536 28.5079 24.3487 28.4965L24.3258 28.494C24.2746 28.494 24.215 28.4915 24.1539 28.4889H24.1538H24.1538C24.0897 28.4862 24.024 28.4835 23.9649 28.4835C23.7152 28.4835 23.4675 28.4919 23.2199 28.5066C23.0371 28.3725 22.6536 27.7013 22.4683 27.3769C22.4302 27.3103 22.4005 27.2583 22.3826 27.2286C21.965 26.5088 21.7908 26.2527 21.3018 26.2527C21.1864 26.2527 21.0815 26.2527 20.9997 26.2758V27.8099C21.0227 27.9735 21.092 28.1015 21.3249 28.1015H21.6271C21.6733 28.1015 21.6964 28.1246 21.6964 28.1603V28.4394C21.6964 28.4982 21.6733 28.5213 21.604 28.5213C21.5782 28.5213 21.4981 28.5179 21.3885 28.5133L21.3881 28.5133H21.388C21.15 28.5034 20.7734 28.4877 20.5107 28.4877C20.32 28.4877 20.0011 28.502 19.7802 28.512L19.78 28.512C19.6631 28.5172 19.5737 28.5213 19.5454 28.5213C19.4992 28.5213 19.4761 28.4877 19.4761 28.4289V28.1624C19.4761 28.1267 19.4992 28.1036 19.5454 28.1036H19.686C19.963 28.1036 20.1036 28.0575 20.1036 27.8015C20.1099 27.5171 20.1099 27.2034 20.1099 26.8721ZM21.4152 23.5939C21.241 23.5939 21.0668 23.6401 21.0668 23.8499V25.8834C21.1487 25.8939 21.2641 25.9065 21.4152 25.9065C22.7058 25.9065 22.903 24.9999 22.903 24.6977C22.903 24.3494 22.7289 24.0367 22.519 23.8961C22.2063 23.6988 21.881 23.5939 21.4152 23.5939ZM28.844 26.9075C28.844 26.7102 29.0644 26.6641 29.1819 26.6641H29.3791C29.4127 26.6641 29.4379 26.6284 29.4379 26.5948V26.3157C29.4379 26.28 29.4148 26.2569 29.3686 26.2569C29.3632 26.2569 29.351 26.2573 29.333 26.2578C29.3136 26.2585 29.2874 26.2594 29.2557 26.2605C29.0693 26.2669 28.6917 26.28 28.3676 26.28C27.8967 26.28 27.4576 26.267 27.2386 26.2605C27.1659 26.2584 27.1174 26.2569 27.1001 26.2569C27.054 26.2569 27.0414 26.28 27.0414 26.3157V26.5948C27.0414 26.6305 27.054 26.6536 27.1001 26.6536H27.3792C27.6814 26.6536 27.9479 26.7354 27.9479 27.0019V27.4321C27.9479 27.6651 27.9249 27.8161 27.7738 27.9316C27.5891 28.0827 27.2155 28.1876 26.8084 28.1876C26.4832 28.1876 26.0173 28.0134 25.692 27.6651C25.2387 27.1887 24.9827 26.5255 24.9827 25.6295C24.9827 25.1069 25.2387 24.49 25.5871 24.1059C26.0173 23.6401 26.4706 23.5121 26.8315 23.5121C27.3666 23.5121 27.6919 23.745 28.0067 24.0703C28.2858 24.3494 28.4831 24.7103 28.5649 24.895C28.5985 24.9873 28.6237 24.9999 28.6572 24.9873L28.8776 24.9181C28.9133 24.9055 28.9238 24.8824 28.9238 24.8257C28.9135 24.7325 28.878 24.4673 28.8417 24.1963C28.7962 23.8573 28.7496 23.509 28.7496 23.4764C28.7496 23.3945 28.7265 23.3484 28.6216 23.3484C28.5292 23.3484 28.4936 23.384 28.4705 23.4302L28.4117 23.5351C28.3886 23.5708 28.3425 23.5708 28.248 23.489C28.0277 23.3253 27.4821 23.1175 26.9239 23.1175C26.0991 23.1175 25.3898 23.361 24.8421 23.8268C24.2839 24.3158 23.9817 25.0251 23.9817 25.7344C23.9817 26.641 24.2146 27.2684 24.6805 27.7805C25.2261 28.3848 26.1558 28.6304 26.7623 28.6304C27.5051 28.6304 28.1347 28.4667 28.7496 28.1645C28.8314 28.1288 28.8776 28.0953 28.8776 28.0365C28.8776 28.0113 28.8714 27.9843 28.8644 27.9533C28.855 27.9119 28.844 27.8636 28.844 27.8036V26.9075ZM31.1179 24.8294C31.1151 25.1652 31.1125 25.4745 31.1125 25.512L31.1167 26.0891C31.1167 26.1583 31.1167 27.4951 31.1292 27.6692C31.1523 27.9358 31.2908 28.0994 31.6287 28.0994H31.8029C31.8595 28.0994 31.8721 28.1225 31.8721 28.1582V28.4373C31.8721 28.4856 31.8616 28.5192 31.8029 28.5192C31.7747 28.5192 31.7012 28.5162 31.5979 28.512C31.3552 28.5021 30.9482 28.4856 30.5815 28.4856C30.3035 28.4856 29.8858 28.5023 29.6391 28.5121C29.5358 28.5162 29.4625 28.5192 29.442 28.5192C29.3959 28.5192 29.3728 28.4856 29.3728 28.4268V28.1708C29.3728 28.1372 29.3959 28.1015 29.442 28.1015H29.698C29.9876 28.1015 30.1744 28.0911 30.1975 27.8812C30.2101 27.7763 30.2206 26.2989 30.2206 25.9044V25.3923C30.2206 25.2972 30.2145 24.9427 30.2085 24.5988C30.2029 24.275 30.1975 23.9608 30.1975 23.8814C30.1975 23.7555 30.0926 23.638 29.6036 23.638H29.3938C29.3371 23.638 29.3245 23.6023 29.3245 23.5561V23.2896C29.3245 23.2434 29.3476 23.2204 29.3938 23.2204C29.4095 23.2204 29.4586 23.2227 29.5317 23.2262C29.7811 23.2383 30.3085 23.2637 30.7305 23.2539C30.9508 23.2539 31.2821 23.2395 31.5101 23.2295C31.6296 23.2243 31.7207 23.2204 31.7525 23.2204C31.7987 23.2204 31.8218 23.2434 31.8218 23.2791V23.5582C31.8218 23.6044 31.8113 23.6401 31.7525 23.6401H31.5553C31.2405 23.6401 31.1355 23.6883 31.125 23.9318C31.125 23.9944 31.1213 24.4306 31.1179 24.8294ZM37.3704 25.3063C37.3714 25.4223 37.3724 25.5313 37.3724 25.6295L37.3703 28.3597C37.3703 28.4625 37.3367 28.58 37.1961 28.58C37.0933 28.58 36.9758 28.4982 36.9296 28.4625C36.8609 28.3938 36.5721 28.0474 36.1996 27.6006C36.1281 27.5148 36.0535 27.4254 35.9769 27.3335C35.4417 26.6934 34.9423 26.1016 34.8143 25.9506C34.6703 25.7827 34.3503 25.3675 34.0487 24.9759C33.7656 24.6086 33.4987 24.2621 33.4083 24.1605H33.3852V25.7533C33.3852 26.45 33.4313 27.6126 33.4544 27.7175C33.4901 27.984 33.6181 28.112 33.7335 28.112H33.977C34.0357 28.112 34.0357 28.1351 34.0357 28.1813V28.4604C34.0357 28.5066 34.0357 28.5296 33.977 28.5296C33.95 28.5296 33.8814 28.526 33.7895 28.5211C33.6029 28.5112 33.3199 28.4961 33.0935 28.4961C33.0015 28.4961 32.7917 28.507 32.6111 28.5163C32.4745 28.5234 32.3547 28.5296 32.3149 28.5296C32.2918 28.5296 32.2792 28.5066 32.2792 28.4478V28.1456C32.2792 28.1225 32.2897 28.1099 32.3254 28.1099H32.5919C32.7094 28.1099 32.8962 28.0281 32.9298 27.7616C32.9424 27.621 32.9655 26.7963 32.9655 25.4826V24.2612C32.9655 23.8415 32.6738 23.6443 32.3485 23.6443H32.2436C32.1974 23.6443 32.1743 23.6212 32.1743 23.575V23.2959C32.1743 23.2602 32.1974 23.2267 32.2436 23.2267C32.2501 23.2267 32.2648 23.2276 32.2861 23.2291C32.3404 23.2327 32.4371 23.2392 32.5458 23.2392C32.699 23.2497 32.8836 23.2623 33.0116 23.2623C33.112 23.2623 33.2293 23.2557 33.3379 23.2495C33.4314 23.2442 33.5183 23.2392 33.5824 23.2392C33.744 23.2392 33.8154 23.2623 33.8615 23.3316C33.8972 23.3777 35.234 25.0629 35.4774 25.3546C35.5677 25.4613 35.8235 25.7787 36.0952 26.1159C36.4483 26.5541 36.8282 27.0256 36.9065 27.111H36.9527V26.343C36.9527 25.6798 36.9401 25.3189 36.917 24.9475C36.917 24.6683 36.8834 23.9926 36.8247 23.8541C36.7659 23.7135 36.5917 23.6443 36.3945 23.6443H36.1972C36.1384 23.6443 36.1154 23.6212 36.1154 23.5624V23.2833C36.1154 23.2476 36.1384 23.2246 36.1972 23.2246C36.2225 23.2246 36.29 23.2279 36.3823 23.2325C36.5815 23.2425 36.8961 23.2581 37.1499 23.2581C37.304 23.2581 37.5237 23.2447 37.6849 23.2348C37.7784 23.2291 37.8523 23.2246 37.8823 23.2246C37.9411 23.2246 37.9642 23.2476 37.9642 23.3169V23.5603C37.9642 23.6065 37.9411 23.6422 37.8949 23.6422H37.7795C37.4899 23.6422 37.4311 23.7219 37.4081 23.8856C37.3614 24.3104 37.3663 24.8596 37.3704 25.3063ZM38.0892 16.3064C38.0859 16.3077 38.083 16.3101 38.0775 16.3141C38.0628 16.3246 38.0607 16.3351 38.0649 16.3498C37.9684 16.7023 37.7669 17.4179 37.6998 17.6299C37.6872 17.676 37.6872 17.7222 37.7459 17.7453L37.9558 17.8271C38.0019 17.8502 38.0376 17.8145 38.0607 17.7684C38.2118 17.4662 38.4552 17.0926 38.7469 16.8723C39.1436 16.7639 39.7294 16.7662 39.991 16.7672C40.0132 16.7673 40.0329 16.7674 40.0501 16.7674V19.2667C40.0501 19.9634 40.0501 20.5804 40.0144 21.0211C40.0039 21.1155 39.9221 21.2079 39.7479 21.2079H39.282C39.2359 21.2079 39.2128 21.2309 39.2128 21.2897V21.5226C39.2128 21.5919 39.2359 21.6276 39.3051 21.6276C39.3382 21.6276 39.4523 21.6232 39.6006 21.6175C39.8759 21.607 40.2689 21.5919 40.4803 21.5919C40.7431 21.5919 41.163 21.6086 41.4282 21.6191C41.5507 21.624 41.6401 21.6276 41.666 21.6276C41.7247 21.6276 41.7478 21.594 41.7478 21.5583V21.3149C41.7478 21.2456 41.7247 21.21 41.666 21.21H41.2253C41.0406 21.21 40.9819 21.0924 40.9588 20.9078C40.9462 20.8133 40.9462 19.9424 40.9462 18.7211V16.7674C41.156 16.7674 42.0059 16.78 42.2976 16.8849C42.5411 17.1052 42.7404 17.4893 42.8789 17.781C42.902 17.8397 42.9377 17.8502 43.0069 17.8271L43.2042 17.7684C43.2504 17.7453 43.2756 17.7222 43.263 17.676C43.2353 17.5217 43.1725 17.2391 43.1134 16.9733C43.0962 16.8957 43.0793 16.8196 43.0636 16.7485C43.1685 16.7569 43.3322 16.7884 43.4309 16.887C43.6155 17.0612 45.0341 19.1429 45.1391 19.3528V19.7704C45.1391 20.4566 45.1391 20.8742 45.1265 20.9791C45.116 21.1428 45.0446 21.2121 44.6732 21.2121H44.499C44.4528 21.2121 44.4298 21.2456 44.4298 21.2813V21.5373C44.4298 21.6087 44.4528 21.6318 44.5116 21.6318C44.5363 21.6318 44.6328 21.6275 44.7592 21.6219C44.9986 21.6114 45.345 21.5961 45.5126 21.5961C45.7822 21.5961 46.183 21.6137 46.422 21.6241C46.5235 21.6286 46.5958 21.6318 46.6164 21.6318C46.6857 21.6318 46.7088 21.5961 46.7088 21.5499V21.2708C46.7088 21.2351 46.6857 21.2121 46.6269 21.2121H46.4758C46.266 21.2121 46.0792 21.1995 46.0561 20.956C46.0424 20.8726 46.0413 20.7284 46.04 20.5641C46.0391 20.4516 46.0381 20.3296 46.033 20.2111V19.2352C46.2995 18.8281 47.6489 16.9332 47.8231 16.8408C47.9259 16.7842 48.0539 16.7485 48.2407 16.7485H48.3582C48.4044 16.7485 48.4275 16.7254 48.4275 16.6666V16.4232C48.4275 16.354 48.4044 16.3309 48.3456 16.3309C48.3204 16.3309 48.2501 16.3356 48.1609 16.3417C48.0055 16.3522 47.7927 16.3665 47.6594 16.3665C47.4168 16.3665 47.0635 16.3495 46.8461 16.3389C46.7495 16.3343 46.6797 16.3309 46.6584 16.3309C46.5996 16.3309 46.5765 16.3665 46.5765 16.4127V16.6687C46.5765 16.717 46.5996 16.7506 46.6584 16.7506H46.8431C47.0991 16.7506 47.0865 16.9017 46.9942 17.0884C46.973 17.1308 46.758 17.4502 46.5147 17.8115C46.2283 18.2371 45.9027 18.7207 45.8085 18.8785C45.6872 18.6973 45.2376 17.9816 44.9183 17.4732C44.7459 17.1987 44.6114 16.9846 44.5871 16.9478C44.541 16.8786 44.5515 16.7506 44.7613 16.7506H44.9355C45.0048 16.7506 45.0173 16.7149 45.0173 16.6687V16.4127C45.0173 16.354 44.9817 16.3309 44.9355 16.3309C44.9059 16.3309 44.7838 16.3355 44.6279 16.3415C44.352 16.352 43.97 16.3665 43.8065 16.3665C43.7075 16.3665 43.472 16.3644 43.1992 16.362C42.7025 16.3575 42.0824 16.352 41.9388 16.3561C41.496 16.3749 41.0868 16.3896 40.707 16.3896H40.2411C38.9652 16.3896 38.3041 16.3288 38.1237 16.3078C38.1014 16.3052 38.0947 16.3042 38.0892 16.3064ZM43.9492 26.1058H42.369C42.4257 25.9883 43.135 24.2109 43.1706 24.1164C43.2042 24.0241 43.2273 23.9884 43.263 23.9884C43.2936 23.9884 43.3067 24.0285 43.3263 24.088C43.3282 24.0938 43.3302 24.0998 43.3322 24.1059C43.3439 24.1488 43.4675 24.5469 43.6014 24.9779C43.7561 25.476 43.9244 26.0181 43.9492 26.1058ZM39.9557 26.0932V25.512C39.9557 25.4301 39.9662 24.0472 39.9704 23.9381C39.983 23.6925 40.0879 23.6464 40.4006 23.6464H40.5978C40.6545 23.6464 40.6671 23.6107 40.6671 23.5645V23.2854C40.6671 23.2497 40.644 23.2267 40.5978 23.2267C40.5661 23.2267 40.4756 23.2306 40.3566 23.2358C40.1291 23.2458 39.7977 23.2602 39.5758 23.2602C39.1538 23.27 38.6264 23.2446 38.377 23.2325C38.304 23.229 38.2548 23.2267 38.2391 23.2267C38.1929 23.2267 38.1698 23.2497 38.1698 23.2959V23.5624C38.1698 23.6086 38.1803 23.6443 38.2391 23.6443H38.4489C38.9358 23.6443 39.0407 23.7597 39.0407 23.8877C39.0407 23.9656 39.0461 24.2759 39.0516 24.5975C39.0576 24.9432 39.0638 25.3019 39.0638 25.3986V25.9107C39.0638 26.3073 39.0533 27.7826 39.0407 27.8875C39.0176 28.0953 38.833 28.1078 38.5413 28.1078H38.2852C38.2391 28.1078 38.216 28.1435 38.216 28.1771V28.4331C38.216 28.4919 38.2391 28.5254 38.2852 28.5254C38.3057 28.5254 38.379 28.5225 38.4824 28.5184C38.729 28.5085 39.1467 28.4919 39.4248 28.4919H41.3491C41.4588 28.4919 41.7167 28.5034 41.9297 28.513C42.0795 28.5197 42.2071 28.5254 42.2452 28.5254C42.3018 28.5254 42.3144 28.4898 42.3144 28.4436V28.1876C42.3144 28.1414 42.3018 28.1057 42.2326 28.1057H41.9409C41.6954 28.1057 41.6618 27.9546 41.731 27.7217C41.7548 27.6493 41.8649 27.358 41.9724 27.0736C42.0736 26.8059 42.1724 26.5444 42.1948 26.4773H44.0688C44.1611 26.7438 44.4759 27.6734 44.5221 27.9064C44.5221 27.9987 44.4738 28.1036 44.3353 28.1036H44.1486C44.1024 28.1036 44.0898 28.1393 44.0898 28.1729V28.4163C44.0898 28.4625 44.1003 28.5213 44.1821 28.5213C44.2506 28.5213 44.4288 28.5144 44.6238 28.5068C44.8593 28.4977 45.1193 28.4877 45.2398 28.4877C45.3956 28.4877 45.6681 28.499 45.8968 28.5085C46.0622 28.5153 46.2048 28.5213 46.2639 28.5213C46.3331 28.5213 46.3457 28.452 46.3457 28.4163V28.1729C46.3457 28.1393 46.3331 28.1036 46.287 28.1036H46.0666C45.8693 28.1036 45.6721 27.9987 45.521 27.7889C45.4412 27.6734 44.9397 26.301 44.7655 25.7197C44.6488 25.3614 44.2689 24.2876 44.0267 23.6031C43.9555 23.4017 43.8962 23.2339 43.859 23.128C43.8359 23.0462 43.8128 23 43.7435 23C43.6848 22.9979 43.6302 23.0294 43.6029 23.0819C43.498 23.1763 43.1727 23.3861 42.9524 23.4197C42.8475 23.4428 42.8244 23.4785 42.8349 23.5016C42.8223 23.5351 42.858 23.5939 42.881 23.617C42.9472 23.6466 42.9108 23.7397 42.8833 23.8101C42.8777 23.8246 42.8724 23.8381 42.8685 23.8499C42.7971 24.0472 42.113 25.6274 42.0311 25.7911C41.9153 26.0324 41.7455 26.414 41.5807 26.7845C41.3486 27.3064 41.1263 27.8062 41.0784 27.8602C40.9861 27.9861 40.7993 28.1036 40.602 28.1036H40.4677C40.132 28.1036 39.9914 27.9421 39.9683 27.6734C39.9557 27.4993 39.9557 26.1625 39.9557 26.0932ZM18.687 16.6792V16.4127C18.687 16.3561 18.664 16.333 18.5926 16.3309C18.5696 16.3309 18.4758 16.3348 18.3506 16.3401C18.0992 16.3507 17.7213 16.3665 17.5349 16.3665C17.3236 16.3665 16.9511 16.3493 16.7237 16.3388C16.6238 16.3342 16.5519 16.3309 16.5339 16.3309C16.4878 16.3309 16.4647 16.3561 16.4647 16.3896V16.6813C16.4647 16.717 16.4773 16.7506 16.5235 16.7506H16.6389C16.79 16.7506 16.8844 16.8429 16.9767 16.9709C17.0312 17.0478 17.2039 17.5424 17.3714 18.0224C17.4555 18.2632 17.5383 18.5003 17.6042 18.6791L17.686 18.9352C17.7784 19.1912 18.3953 20.8763 18.6514 21.5625C18.687 21.6549 18.7458 21.7367 18.8381 21.7367C18.9326 21.7367 18.9892 21.7031 19.0249 21.6444C19.0969 21.5266 19.6914 20.1164 19.9999 19.3846C20.0873 19.1774 20.1517 19.0245 20.1749 18.9708C20.2924 18.6686 20.9199 17.1451 21.1402 16.9248C21.2452 16.8198 21.4088 16.7506 21.6292 16.7506H21.9104C22.3742 16.7506 22.4434 16.7988 22.4791 17.0423C22.4896 17.1577 22.5022 17.9132 22.5022 18.5301V21.0064C22.5022 21.1701 22.4665 21.2163 21.9209 21.2163H21.816C21.7572 21.2163 21.7341 21.2393 21.7341 21.2855V21.552C21.7341 21.5982 21.7446 21.6339 21.8034 21.6339C21.8654 21.6339 22.0283 21.6267 22.208 21.6188C22.4292 21.6091 22.676 21.5982 22.7918 21.5982C24.8565 21.5982 25.6153 21.6237 25.8501 21.6316C25.8931 21.633 25.9185 21.6339 25.9312 21.6339C25.9773 21.6339 26.0361 21.5751 26.0592 21.5163L26.4768 20.2845C26.4873 20.2488 26.4642 20.2153 26.4411 20.2027L26.2544 20.0977C26.2208 20.0747 26.162 20.0851 26.1033 20.167C25.9857 20.3538 25.5786 20.8763 25.4863 20.9455C25.0918 21.2603 24.7665 21.2708 24.2545 21.2708C23.755 21.2708 23.4171 21.2351 23.4171 20.6895C23.4171 20.6323 23.4138 20.5002 23.4097 20.3361C23.403 20.0666 23.3941 19.7107 23.3941 19.4577V19.0632C23.5116 19.0632 23.9187 19.0632 24.267 19.145C24.5692 19.2143 24.6385 19.3989 24.6972 19.6906C24.7077 19.7368 24.7308 19.7368 24.7665 19.7368L25.0099 19.7137C25.0456 19.7137 25.0687 19.7011 25.0687 19.655C25.0663 19.6217 25.0627 19.5778 25.0586 19.5269C25.044 19.3499 25.0225 19.0878 25.0225 18.889C25.0225 18.7841 25.0225 18.1692 25.0456 18.0643C25.0582 18.0181 25.0225 17.995 24.9763 17.995L24.7203 17.9824C24.6742 17.9824 24.6616 17.995 24.6616 18.0412C24.6616 18.4021 24.5461 18.5637 24.244 18.6456C24.1516 18.6686 23.4654 18.7043 23.3962 18.7043V16.7275L24.628 16.7506C24.7917 16.7548 24.9491 16.8156 25.0708 16.9248C25.268 17.1094 25.8263 17.76 25.8493 17.7957C25.885 17.8523 25.9312 17.8523 25.9543 17.8418L26.141 17.76C26.1641 17.7474 26.1641 17.7243 26.1515 17.6781C26.1434 17.6493 26.0978 17.5067 26.0411 17.3295C25.9368 17.0035 25.795 16.5604 25.7801 16.4925C25.757 16.3519 25.7339 16.3288 25.7108 16.3288C25.693 16.3288 25.66 16.3322 25.6194 16.3364C25.5545 16.3431 25.4704 16.3519 25.3982 16.3519L22.7939 16.3644H21.0164C20.8383 16.3644 20.5124 16.3488 20.2929 16.3382C20.1815 16.3328 20.0975 16.3288 20.0742 16.3288C20.028 16.3288 20.0049 16.3644 20.0049 16.398V16.6645C20.0049 16.7233 20.028 16.7464 20.0742 16.7464H20.2022C20.3994 16.7464 20.4456 16.8051 20.4456 16.8639C20.4456 16.9251 20.4026 17.0423 20.2965 17.3311C20.2024 17.5872 20.0588 17.9782 19.8517 18.5847C19.8289 18.6558 19.7224 18.9327 19.5989 19.2538C19.4163 19.7289 19.1963 20.3008 19.155 20.4461H19.1193C19.048 20.2593 18.6178 18.9121 18.5255 18.6204C18.4257 18.3105 18.3378 18.0533 18.2642 17.8381C18.1055 17.374 18.0134 17.1047 18.0134 16.9227C18.0134 16.7716 18.1876 16.7485 18.3387 16.7485H18.6052C18.6514 16.7485 18.687 16.7254 18.687 16.6792Z" fill="#202A4A"/>
<path d="M27.1957 12.2122V6.51678H28.3918V12.2122H27.1957ZM20.7385 12.2122V6.51678H21.8969V12.2122H20.7385ZM22.2956 12.2122V6.51678H23.5295V12.2122H22.2956ZM23.9283 12.2122V6.51678H25.1622V12.2122H23.9283ZM26.797 6.51678V12.2122H25.563V6.51678H26.797ZM27.8777 6.11596H21.2254L24.6397 4.01533L27.8777 6.11596ZM20.4594 6.11596H17.6117V3.99224H23.9115L20.4594 6.11596ZM25.3448 3.99224H31.483V6.11386H28.6164L25.3448 3.99224ZM30.6037 3.58932H18.4889C19.6745 1.44882 21.9431 0.00292969 24.5452 0.00292969C27.1495 0.00502822 29.418 1.45092 30.6037 3.58932ZM19.5885 11.8764L19.5192 12.0884L19.6997 11.9562L19.8802 12.0884L19.8109 11.8764L19.9914 11.7442H19.769L19.6997 11.5323L19.6305 11.7442H19.408L19.5885 11.8764ZM18.6001 10.5607L18.5308 10.7726L18.7113 10.6404L18.8918 10.7726L18.8225 10.5607L19.003 10.4284H18.7806L18.7113 10.2165L18.6421 10.4284H18.4196L18.6001 10.5607ZM17.9202 8.95527L17.8509 9.16722L18.0314 9.03502L18.2119 9.16722L18.1447 8.95527L18.3252 8.82307H18.1027L18.0335 8.61111L17.9642 8.82307H17.7418L17.9202 8.95527ZM20.3398 12.2122H17.6117V7.12745L17.7019 7.1946L17.6327 7.40656L17.8131 7.27435L17.9936 7.40656L17.9244 7.1946L18.1048 7.0624H17.8803L17.811 6.85044L17.7418 7.0624H17.6075V6.51888H20.3377L20.3398 12.2122ZM20.3398 12.6151V14.1261H17.6117V12.6151H20.3398ZM28.7906 12.6151H31.483V14.1261H28.7906V12.6151ZM26.3982 13.6917L26.5787 13.5595H26.3542L26.2849 13.3475L26.2157 13.5595H25.9932L26.1737 13.6917L26.1044 13.9036L26.2849 13.7714L26.4654 13.9036L26.3982 13.6917ZM27.9973 13.0474L28.1778 12.9152H27.9533L27.884 12.7033L27.8147 12.9152H27.5923L27.7728 13.0474L27.7035 13.2594L27.884 13.1272L28.0645 13.2594L27.9973 13.0474ZM22.6943 13.6917L22.6251 13.9036L22.8055 13.7714L22.986 13.9036L22.9168 13.6917L23.0972 13.5595H22.8727L22.8035 13.3475L22.7342 13.5595H22.5097L22.6943 13.6917ZM21.0952 13.0474L21.026 13.2594L21.2065 13.1272L21.3869 13.2594L21.3177 13.0474L21.4982 12.9152H21.2757L21.2065 12.7033L21.1372 12.9152H20.9148L21.0952 13.0474ZM28.3918 12.6151V14.1261H24.7299L24.6669 13.9309L24.8474 13.7987H24.625L24.5557 13.5867L24.4865 13.7987H24.264L24.4445 13.9309L24.3815 14.1261H20.7406V12.6151H28.3918ZM24.711 14.1282H24.3983L24.5557 14.0148L24.711 14.1282ZM29.5062 11.8764L29.6866 11.7442H29.4642L29.3949 11.5323L29.3257 11.7442H29.1011L29.2816 11.8764L29.2124 12.0884L29.3928 11.9562L29.5733 12.0884L29.5062 11.8764ZM30.4925 10.5607L30.673 10.4284H30.4505L30.3813 10.2165L30.312 10.4284H30.0875L30.2679 10.5607L30.1987 10.7726L30.3792 10.6404L30.5596 10.7726L30.4925 10.5607ZM31.1724 8.95527L31.3529 8.82307H31.1283L31.0591 8.61111L30.9898 8.82307H30.7674L30.9479 8.95527L30.8786 9.16722L31.0591 9.03502L31.2396 9.16722L31.1724 8.95527ZM31.483 12.2122H28.7906V6.51678H31.483V7.0603H31.3487L31.2794 6.84834L31.2102 7.0603H30.9877L31.1682 7.1925L31.099 7.40446L31.2794 7.27225L31.4599 7.40446L31.3906 7.1925L31.483 7.12535V12.2122Z" fill="#F37C20"/>
</svg>
