<svg width="23" height="30" viewBox="0 0 23 30" fill="none" xmlns="http://www.w3.org/2000/svg">
<path fill-rule="evenodd" clip-rule="evenodd" d="M0.370239 18.9275V0.00195312H22.3437V18.9275C22.3437 20.9405 21.3672 22.8425 19.7292 24.014L11.3592 30.002L2.98624 24.0155C1.34824 22.8425 0.370239 20.942 0.370239 18.9275ZM0.911646 18.9274V0.543433H21.8021V18.9274C21.8021 20.7679 20.9096 22.5049 19.4141 23.5744L11.3591 29.3374L3.30115 23.5744C1.80565 22.5049 0.911646 20.7679 0.911646 18.9274Z" fill="#1F2742"/>
<path d="M3.68687 22.0852L4.22237 22.4782C3.95087 22.1107 3.77537 21.6712 3.71987 21.2077C3.70637 21.0997 3.70037 20.9917 3.70037 20.8822V10.9027L2.31587 10.2637L2.31287 19.2262C2.31287 20.3707 2.78387 21.4222 3.68687 22.0852Z" fill="#BB2533"/>
<path d="M5.09485 23.0524L6.48235 24.0544V12.1849L5.09485 11.5459V23.0524Z" fill="#BB2533"/>
<path d="M9.26677 13.4671L7.87927 12.8281V25.0606L9.26677 26.0626V13.4671Z" fill="#BB2533"/>
<path d="M10.6613 14.1104V27.0704L11.3678 27.5804L12.0488 27.0884V14.1104L11.3528 14.4284L10.6613 14.1104Z" fill="#BB2533"/>
<path d="M13.4457 26.0815L14.8332 25.0795V12.835L13.4457 13.471V26.0815Z" fill="#BB2533"/>
<path d="M16.2301 24.072L17.6161 23.07V11.5605L16.2301 12.1965V24.072Z" fill="#BB2533"/>
<path d="M19.0114 10.9022V20.8802C19.0114 20.9897 19.0039 21.0977 18.9919 21.2057C18.9364 21.6707 18.7609 22.1087 18.4894 22.4777L19.0249 22.0847C19.9279 21.4202 20.3989 20.3702 20.3989 19.2242L20.3959 10.2617L19.0114 10.9022Z" fill="#BB2533"/>
<path d="M17.1151 9.98764L15.4711 10.7376V2.70814C15.4711 2.31364 15.7906 1.99414 16.1851 1.99414H20.4001V7.79314C20.4001 8.21014 20.1571 8.58814 19.7776 8.76214L18.7576 9.23014V7.41514L17.4106 8.03464C17.2306 8.11714 17.1151 8.29714 17.1151 8.49514V9.98764ZM17.1151 6.36514L18.7561 5.61064V3.55564H17.1151V6.36514Z" fill="#1F2742"/>
<path d="M9.51091 11.7656C9.13441 11.5931 8.89441 11.2166 8.89441 10.8026V8.40109L10.5384 9.16309V10.5551L11.3574 10.9331L12.1764 10.5551V8.20309L9.53341 6.98659C9.14491 6.80809 8.89441 6.41959 8.89441 5.99059V2.69059C8.89441 2.30659 9.20491 1.99609 9.58891 1.99609H13.1259C13.5099 1.99609 13.8204 2.30809 13.8204 2.69059V5.51509L12.1764 4.75309V3.55609H10.5369V5.60359L13.1799 6.81709C13.5699 6.99559 13.8189 7.38409 13.8189 7.81309V10.8026C13.8189 11.2166 13.5774 11.5931 13.2009 11.7671L11.3559 12.6146L9.51091 11.7656Z" fill="#1F2742"/>
<path d="M2.95305 8.75464L7.24005 10.7271V1.99414H5.59755V8.16964L4.23405 7.54264C4.06605 7.46614 3.95955 7.29814 3.95955 7.11364V1.99414H2.31555V7.75714C2.31555 8.18614 2.56455 8.57464 2.95305 8.75464Z" fill="#1F2742"/>
</svg>
