<svg width="250" height="16" viewBox="0 0 250 16" fill="none" xmlns="http://www.w3.org/2000/svg">
<path fill-rule="evenodd" clip-rule="evenodd" d="M110.985 7.22128C110.685 11.3571 112.73 14.0787 117.439 15.8064H119.929C124.432 14.4136 126.766 11.2609 125.868 7.79838H117.813C117.842 8.36478 117.863 8.78514 117.899 9.47979H123.759C123.431 12.4151 121.34 14.1393 118.643 13.9505C115.238 13.7118 112.759 11.2609 113.247 7.71644C114.201 0.773501 118.423 0.883933 123.734 3.73378C123.846 3.63796 123.971 3.5295 124.105 3.41463C124.304 3.2434 124.519 3.05792 124.728 2.87883C122.922 0.253404 119.142 -0.455495 116.303 0.481392C113.279 1.47528 111.212 4.07576 110.985 7.22128ZM146.608 15.8064C141.136 14.0644 138.867 10.1316 140.484 5.18715C141.585 1.81008 144.688 -0.167006 148.439 0.107292C151.862 0.360216 154.644 2.87521 155.211 6.2309C156.027 11.0685 153.875 14.2568 148.742 15.81H146.608V15.8064ZM153.291 8.12249C153.376 4.47825 151.171 1.9775 147.826 1.93119C144.435 1.88132 142.194 4.2182 142.105 7.89094C142.023 11.2929 144.378 13.9041 147.584 13.9647C150.829 14.0252 153.209 11.5922 153.291 8.12605V8.12249ZM62.2059 8.76026C62.2094 13.0208 63.2247 14.4208 67.2822 15.8065L67.2786 15.8101L67.3366 15.8205C67.9549 15.9314 68.293 15.9921 68.6109 16.0024C68.9858 16.0129 69.3332 15.9511 70.0869 15.8168L70.1249 15.8101C72.6434 14.9587 74.6205 13.5124 74.7559 10.7231V0.460081V0.449394H72.8465V2.7649C72.8433 3.47158 72.8446 4.17859 72.8458 4.88562C72.8487 6.55226 72.8516 8.21908 72.7966 9.88239C72.7289 11.92 71.7386 13.206 70.0536 13.7119C66.7051 14.72 64.2257 12.6432 64.2506 9.26967C64.272 6.66563 64.3148 0.449394 64.3148 0.449394H64.2506L62.2522 0.452957C62.2522 0.449394 62.2059 8.76026 62.2059 8.76026ZM0.649231 0.495572H3.01104C3.93753 2.7927 4.91958 5.21455 5.89513 7.62039L5.89569 7.62178L5.89697 7.62493L5.89753 7.62629C6.65036 9.48288 7.3993 11.3299 8.11583 13.1026C8.97489 10.969 9.88509 8.73211 10.7963 6.49274L10.7969 6.49132C11.6198 4.46884 12.4436 2.44433 13.2313 0.49201H15.4863C14.3726 3.20978 13.2812 5.86915 12.2011 8.50063L12.2004 8.50229L12.1952 8.51512C11.2458 10.8283 10.3052 13.12 9.3662 15.411H6.97589C5.94931 13.0027 4.89843 10.519 3.84895 8.03854L3.84851 8.0375L3.84806 8.03642C2.77117 5.49123 1.69541 2.94868 0.649231 0.495572ZM168.338 7.35306C168.573 7.7768 168.827 8.17797 169.074 8.56837C169.606 9.40873 170.107 10.1993 170.318 11.0579C170.824 13.0919 169.075 15.2151 166.745 15.3932C165.009 15.526 163.259 15.4958 161.438 15.4644C160.621 15.4503 159.791 15.4359 158.94 15.4359V0.470678C159.769 0.470678 160.587 0.458524 161.398 0.446484C163.293 0.41834 165.146 0.390815 166.988 0.52055C168.583 0.634544 169.606 1.79229 169.962 3.35259C170.375 5.15868 169.57 6.48742 168.334 7.3495L168.338 7.35306ZM160.989 13.6085C161.556 13.6085 162.108 13.6189 162.651 13.629C163.878 13.6521 165.051 13.6741 166.215 13.5729C167.454 13.4624 168.174 12.6075 168.227 11.3215C168.284 9.97492 167.639 8.94897 166.329 8.7958C165.131 8.65692 163.912 8.68723 162.656 8.71847C162.108 8.73211 161.553 8.74592 160.989 8.74592V13.6049V13.6085ZM160.978 6.70828C161.551 6.70828 162.103 6.717 162.64 6.72549C163.855 6.74466 164.995 6.76265 166.126 6.67622C167.258 6.58716 167.857 5.79277 167.914 4.6457C167.967 3.52714 167.536 2.51901 166.421 2.39433C165.179 2.25691 163.918 2.28596 162.633 2.31557C162.086 2.32818 161.534 2.34089 160.978 2.34089V6.70828ZM42.6096 15.3719H44.3978V0.420868H42.3923V11.7668L33.7145 0.420868H31.7801V15.3719H33.661V3.63763L42.6096 15.3719ZM80.9224 15.3789H79.0594V0.531234C79.2165 0.517816 79.3735 0.504194 79.5306 0.490575L79.5317 0.49048C82.0845 0.269103 84.6303 0.0483353 87.1066 0.709349C89.0196 1.21876 89.9101 2.80755 90.017 4.68132C90.1203 6.48742 89.3722 7.95509 87.6908 8.85991C87.4164 9.00786 87.126 9.12704 86.7779 9.26991C86.6063 9.34031 86.4206 9.4165 86.216 9.50469L86.5376 9.99203C87.6906 11.7394 88.8273 13.4622 90.0954 15.3789H87.8333L86.8349 13.8959C85.9134 12.5272 84.9617 11.1137 83.9967 9.67924H80.9224V15.3789ZM81.0543 2.29814V7.65585C81.5512 7.65585 82.0361 7.66725 82.5117 7.67843C83.5633 7.70316 84.5696 7.72682 85.5606 7.62379C87.0247 7.47061 87.844 6.40548 87.8761 5.00193C87.9046 3.61263 87.2634 2.52969 85.8741 2.34445C84.8106 2.20167 83.7234 2.23411 82.5946 2.26778C82.09 2.28284 81.5771 2.29814 81.0543 2.29814ZM28.0362 15.3577V13.605V13.6014H20.1955V8.56077H28.0362V6.74755H20.192V2.0738H28.0362V0.531321H18.0938V15.3577H28.0362ZM95.6277 8.58204V13.637H103.479C103.496 13.9596 103.51 14.2344 103.523 14.4986L103.523 14.5001L103.523 14.5016C103.538 14.7905 103.551 15.0668 103.568 15.3789H93.6934V0.520536H103.451C103.468 0.67876 103.486 0.844296 103.507 1.02914L103.508 1.04241C103.541 1.33738 103.579 1.68176 103.629 2.12358H95.6776V6.79733H103.269C103.304 7.07376 103.333 7.30895 103.362 7.54415L103.363 7.54591L103.363 7.54812C103.402 7.86019 103.441 8.1727 103.493 8.58204H95.6277ZM187.133 15.3932H184.771C183.871 13.1094 182.976 10.8351 182.054 8.49286L182.052 8.48937L182.032 8.43706C181.276 6.51527 180.501 4.54736 179.691 2.49054C177.846 7.02892 176.157 11.179 174.465 15.3362H172.321C174.419 10.2457 176.417 5.39382 178.441 0.4814H180.956C182.052 3.12765 183.147 5.76865 184.261 8.4579C185.201 10.7247 186.155 13.0258 187.136 15.3932H187.133ZM52.3741 15.3896H54.483V15.386V2.25177H59.146V0.470615H47.6077V2.25177H52.3741V15.3896ZM131.24 13.6655H138.24V15.3826H129.377V0.517057H131.237V13.6655H131.24ZM198.368 13.6691H191.439V0.399473C190.552 0.452908 190.004 0.484969 189.437 0.51703V15.5037H198.368V13.6691Z" fill="#005568"/>
<path fill-rule="evenodd" clip-rule="evenodd" d="M240.418 15.6877C240.571 15.7266 240.723 15.7656 240.874 15.8067V15.796H243.007C243.182 15.7455 243.357 15.6966 243.532 15.6478C243.924 15.5383 244.316 15.429 244.703 15.3009C248.037 14.1859 250.285 10.4063 249.501 7.161H241.376V9.94673H245.95C244.664 12.6363 242.06 13.4378 239.73 12.1447C237.443 10.8765 236.677 7.5956 238.116 5.25873C239.727 2.64399 242.555 2.46588 245.996 4.85263C246.407 4.63136 246.836 4.39934 247.315 4.13999L247.33 4.13179L247.359 4.11584L247.369 4.11046C247.746 3.90614 248.155 3.68476 248.611 3.43839C248.361 3.18716 248.136 2.94101 247.922 2.70679C247.491 2.23379 247.103 1.809 246.641 1.48981C243.766 -0.490838 240.717 -0.398218 237.76 1.21551C234.579 2.95392 233.589 5.83582 234.041 9.22002C234.454 12.3406 236.364 14.3319 239.345 15.3793C239.694 15.5021 240.057 15.595 240.418 15.6877ZM220.811 0.481722H217.473V15.3722H220.725V6.47353C220.791 6.46462 220.858 6.45661 220.925 6.44859C220.992 6.44058 221.058 6.43256 221.124 6.42365C223.393 9.44449 225.666 12.4653 227.868 15.39H231.024V0.513783H227.725V8.99564L227.358 9.06689C226.048 7.34951 224.738 5.63214 223.448 3.94057L223.384 3.85602L223.354 3.81667C222.496 2.69075 221.646 1.57656 220.811 0.481722ZM204.919 0.531643V15.3366H214.505V12.5081H208.118V0.531643H204.919Z" fill="#EE3424"/>
</svg>
