<svg width="35" height="30" viewBox="0 0 35 30" fill="none" xmlns="http://www.w3.org/2000/svg">
<path d="M21.3913 14.2902V13.8162H21.2593C21.2353 13.8162 21.2173 13.7982 21.2173 13.7742V13.6662C21.2173 13.6422 21.2353 13.6242 21.2593 13.6242H21.7213C21.7453 13.6242 21.7633 13.6422 21.7633 13.6662V13.7742C21.7633 13.7982 21.7453 13.8162 21.7213 13.8162H21.5893V14.2902C21.5893 14.3142 21.5713 14.3322 21.5473 14.3322H21.4333C21.4093 14.3322 21.3913 14.3142 21.3913 14.2902ZM21.8113 14.2842L21.9253 13.6482C21.9253 13.6302 21.9433 13.6182 21.9673 13.6182H21.9733C21.9913 13.6182 22.0033 13.6242 22.0093 13.6422L22.2073 14.0202L22.4113 13.6422C22.4173 13.6242 22.4293 13.6182 22.4473 13.6182H22.4533C22.4713 13.6182 22.4953 13.6362 22.4953 13.6482L22.6093 14.2842C22.6153 14.3082 22.5913 14.3322 22.5673 14.3322H22.4533C22.4353 14.3322 22.4113 14.3142 22.4113 14.2962L22.3753 14.0682L22.2493 14.3202C22.2433 14.3322 22.2313 14.3382 22.2133 14.3382H22.2073C22.1893 14.3382 22.1773 14.3322 22.1713 14.3142L22.0453 14.0622L22.0033 14.2962C22.0033 14.3142 21.9793 14.3322 21.9613 14.3322H21.8533C21.8233 14.3322 21.8053 14.3082 21.8113 14.2842Z" fill="#231815"/>
<path d="M13.0453 15.6403H11.8513V16.4923H13.0453V15.6403ZM26.3413 21.7363C26.5753 21.8143 26.8333 21.8503 27.0733 21.9043H27.9073C27.9613 21.8923 28.0093 21.8743 28.0633 21.8683C28.5013 21.8143 28.9093 21.6883 29.2753 21.4363C29.6653 21.1663 29.9113 20.8063 29.9833 20.3143C29.6173 20.3143 29.2633 20.3143 28.9153 20.3203C28.8793 20.3203 28.8253 20.3623 28.8133 20.3923C28.6873 20.7163 28.4413 20.9263 28.1173 20.9923C27.8113 21.0583 27.4813 21.0823 27.1693 21.0643C26.3893 21.0103 25.8673 20.4703 25.8613 19.7323H30.0073C30.0193 19.6903 30.0373 19.6603 30.0373 19.6363C30.1033 18.5563 29.6413 17.5783 28.5193 17.1943C27.7993 16.9483 27.0673 16.9483 26.3473 17.1763C25.7053 17.3743 25.2313 17.7883 24.9673 18.4183C24.7753 18.8743 24.7453 19.3543 24.7993 19.8403C24.9073 20.7883 25.4293 21.4303 26.3413 21.7363ZM26.5513 18.0283C27.1273 17.7163 28.0333 17.7883 28.5193 18.1963C28.7413 18.3823 28.8613 18.6223 28.9333 18.9223H25.9033C25.9813 18.5203 26.1913 18.2203 26.5513 18.0283ZM5.86928 17.2123C6.30728 18.6703 6.74528 20.1283 7.18328 21.5923C7.21928 21.7123 7.26728 21.7663 7.40528 21.7603C7.69928 21.7483 7.99928 21.7483 8.29328 21.7603C8.42528 21.7663 8.46728 21.7123 8.50328 21.5983C8.82728 20.5723 9.16328 19.5463 9.49328 18.5203C9.70928 17.8483 9.92528 17.1823 10.1473 16.4923H11.2993V15.6583H7.87328V16.4983H9.04928C8.65928 17.8183 8.27528 19.1203 7.87328 20.4703C7.84328 20.3863 7.83128 20.3623 7.82528 20.3323C7.36328 18.8203 6.90128 17.3143 6.44528 15.8023C6.40928 15.6763 6.34928 15.6283 6.21728 15.6343C5.93528 15.6463 5.64728 15.6403 5.36528 15.6343C5.24528 15.6283 5.20328 15.6763 5.16728 15.7843C4.77128 17.0923 4.37528 18.4003 3.97328 19.7083C3.90128 19.9423 3.82328 20.1763 3.75128 20.4163H3.71528C3.32528 19.1143 2.94128 17.8123 2.54528 16.4863H3.70928V15.6523C3.64928 15.6463 3.59528 15.6403 3.54128 15.6403C2.49728 15.6403 1.45328 15.6403 0.409284 15.6403C0.355284 15.6403 0.301284 15.6523 0.247284 15.6583V16.4923H1.43528C1.99928 18.2443 2.55728 19.9903 3.12128 21.7363H4.33328C4.81328 20.1583 5.29328 18.5863 5.77328 17.0143C5.83328 17.0923 5.85128 17.1523 5.86928 17.2123ZM15.1753 20.9263H14.2993H12.9673V17.1643H10.8253V17.9983H11.9173V20.9203H10.8313V21.7423H14.0953H17.2813V20.9203H16.2433C16.2433 20.3023 16.2193 19.7023 16.2493 19.1083C16.2793 18.5323 16.6093 18.1543 17.1553 17.9923C17.3893 17.9263 17.6413 17.9023 17.8873 17.9143C18.6493 17.9443 18.9913 18.3103 18.9913 19.0663C18.9913 19.6303 18.9913 20.1883 18.9913 20.7523C18.9913 20.8063 18.9853 20.8543 18.9793 20.9263H17.9473V21.7423H21.1333V20.9203H20.0353C20.0353 20.8243 20.0353 20.7523 20.0353 20.6803C20.0353 19.9783 20.0413 19.2823 20.0293 18.5803C20.0173 17.9023 19.6813 17.4403 19.0453 17.2063C18.8353 17.1283 18.6013 17.0803 18.3793 17.0623C17.6833 17.0023 17.0173 17.1103 16.4473 17.5543C16.3753 17.6083 16.3093 17.6743 16.2073 17.7643V17.1643H14.0953V17.9923H15.1753V20.9263ZM11.6473 24.2083C11.5333 23.5843 11.1553 23.2123 10.5493 23.0863C10.2493 23.0263 9.93728 22.9963 9.63128 22.9963C7.96928 22.9903 6.55928 22.9903 4.89728 22.9903H4.69928V23.8483H5.87528V28.7683H4.70528V29.6143H8.14328V28.7623H6.96128V26.9623C7.77128 26.9623 8.31128 26.9683 9.10328 26.9623C9.49328 26.9623 9.88928 26.9563 10.2793 26.9203C10.9993 26.8543 11.4733 26.4703 11.6233 25.8523C11.6653 25.6783 11.6893 25.5103 11.6953 25.3363C11.6953 25.2883 11.6953 24.7423 11.6953 24.6943C11.6953 24.5263 11.6773 24.3643 11.6473 24.2083ZM10.5433 25.2703C10.5133 25.7803 10.2973 26.0443 9.76928 26.0623C8.75528 26.0923 7.99328 26.0683 6.96728 26.0683V23.8903C7.02728 23.8843 7.07528 23.8783 7.12928 23.8783C8.01128 23.8783 8.64128 23.8723 9.52328 23.8783C9.70328 23.8783 9.88928 23.9023 10.0573 23.9503C10.3873 24.0463 10.5553 24.3343 10.5433 24.7303C10.5433 24.7483 10.5433 25.2583 10.5433 25.2703ZM30.8053 28.5403C30.5233 28.5343 30.2053 28.6063 29.9653 28.5043C29.7373 28.4083 29.5873 28.1263 29.4013 27.9283C29.3953 27.9223 29.3953 27.9223 29.3893 27.9163C28.9873 27.4663 27.1213 25.3483 26.7073 24.8863C27.1093 24.6163 27.4993 24.3643 27.8833 24.0943C28.0453 23.9803 28.2133 23.9203 28.4173 23.9323C28.7053 23.9443 28.9933 23.9383 29.2813 23.9383V23.1163H26.0113V23.9443H26.7613C26.0653 24.4183 25.4113 24.8563 24.7213 25.3243V20.8423H23.0473C22.6993 20.8063 22.5853 20.6443 22.5853 20.2483C22.5853 19.5583 22.5853 18.8683 22.5853 18.1843C22.5853 18.1243 22.5913 18.0643 22.5913 17.9863H24.0553V17.1523H22.5793V15.8983H21.5353V17.1643H20.6353V17.9923H21.5413C21.5413 18.3043 21.5413 18.5983 21.5413 18.8923C21.5473 19.5283 21.5413 20.1583 21.5593 20.7943C21.5773 21.3163 21.8413 21.6523 22.3453 21.7363C22.7773 21.8083 23.2273 21.7963 23.6653 21.8083V26.8663H22.5793V27.6883H25.7653V26.8603H24.7273C24.7273 26.6623 24.7273 26.4763 24.7273 26.2903C24.7273 26.2543 24.7513 26.2063 24.7813 26.1883C25.1473 25.9363 25.5193 25.6903 25.8973 25.4383C26.3293 25.9123 28.2073 28.0483 28.6573 28.5403H27.8953V29.3683H31.0873V28.5403C30.9853 28.5403 30.8953 28.5463 30.8053 28.5403ZM34.8733 17.1883C34.8733 17.1523 34.8073 17.0923 34.7593 17.0863C33.9193 16.9783 33.1333 17.0683 32.4853 17.6923C32.4553 17.7163 32.4253 17.7403 32.3653 17.7823V17.1703H30.2533V18.0043H31.3393V20.9263H30.2533V21.7483H33.4993V20.9143H32.4073C32.4073 20.3563 32.3953 19.8223 32.4133 19.2823C32.4313 18.8383 32.6413 18.4903 33.0613 18.3163C33.3013 18.2143 33.5593 18.1303 33.8173 18.1003C34.1593 18.0643 34.5073 18.0943 34.8793 18.0943C34.8793 17.8123 34.8793 17.5003 34.8733 17.1883ZM22.6213 23.1463C22.6213 23.1043 22.5613 23.0383 22.5193 23.0323C22.3273 23.0083 22.1353 22.9903 21.9433 22.9903C21.2773 22.9903 20.6833 23.1763 20.2033 23.6623C20.1853 23.6803 20.1553 23.6863 20.1133 23.7103V23.1163H18.0073V23.9443H19.0933V26.8723H17.5453C16.9693 26.8723 16.9273 26.8003 16.9273 26.3443C16.9273 25.6543 16.9333 25.0303 16.9273 24.3403C16.9213 23.7343 16.6933 23.3983 16.1293 23.1823C15.5233 22.9483 14.8933 22.9303 14.2573 22.9783C13.7893 23.0143 13.3393 23.1223 12.9373 23.3803C12.5413 23.6263 12.3613 23.9923 12.3493 24.4663H13.4233C13.4953 24.1603 13.6153 24.0163 13.9093 23.9083C14.3293 23.7523 14.7613 23.7583 15.1933 23.8183C15.3253 23.8363 15.4633 23.8843 15.5893 23.9383C15.7693 24.0223 15.8653 24.1663 15.8473 24.3703C15.8293 24.5803 15.6913 24.6943 15.4993 24.7303C15.2233 24.7783 14.9413 24.8083 14.6593 24.8383C14.1733 24.8983 13.6873 24.9343 13.2073 25.0183C12.8173 25.0843 12.4753 25.2763 12.2653 25.6303C11.8393 26.3443 12.1213 27.2743 12.8653 27.6283C13.0813 27.7303 13.3213 27.7783 13.5493 27.8503H14.2753C14.2933 27.8443 14.3713 27.8383 14.3833 27.8383C15.0193 27.7663 15.5053 27.5323 15.9253 27.0043C15.9433 27.0403 15.9613 27.0583 15.9673 27.0823C16.0453 27.4183 16.2373 27.5503 16.5613 27.6403C16.6633 27.6703 16.7593 27.6883 16.8553 27.7003H17.8033C17.8513 27.7003 17.9053 27.6943 17.9593 27.6943C17.9953 27.6883 18.1213 27.6883 18.1513 27.6883H21.2593V26.8723H20.1673C20.1673 26.2843 20.1493 25.7263 20.1733 25.1683C20.1973 24.7363 20.4373 24.4303 20.8333 24.2503C21.2593 24.0523 21.7093 23.9923 22.1713 24.0283C22.3213 24.0403 22.4653 24.0583 22.6333 24.0763C22.6273 23.7583 22.6273 23.4523 22.6213 23.1463ZM14.4193 27.0403C14.1433 27.0703 13.8553 27.0343 13.5793 26.9743C13.2973 26.9143 13.1533 26.6683 13.1533 26.3743C13.1533 26.0683 13.2793 25.8523 13.5793 25.7803C13.9093 25.6963 14.2513 25.6603 14.5933 25.6063C15.0193 25.5463 15.4513 25.4923 15.8833 25.4323C15.9673 26.5183 15.2533 26.9563 14.4193 27.0403Z" fill="#231815"/>
<path d="M26.1973 1.80991C26.1973 1.59991 26.0713 1.41991 25.8913 1.33591C25.8913 1.33591 22.7353 0.00390625 17.6653 0.00390625H17.6413C12.5773 0.00390625 9.41528 1.33591 9.41528 1.33591C9.23528 1.41391 9.10928 1.59991 9.10928 1.80991C9.10928 1.85791 9.10928 1.86991 9.11528 1.91791C9.11528 1.92991 9.12128 1.94791 9.12128 1.95991C11.3653 11.8539 14.9833 14.7279 17.6053 14.7759H17.6893C20.3113 14.7219 23.9353 11.8539 26.1733 1.95991C26.1733 1.94791 26.1793 1.93591 26.1793 1.91791C26.1973 1.86991 26.1973 1.85791 26.1973 1.80991ZM22.6333 8.78191C22.1533 9.7779 21.6373 10.6359 21.0913 11.3499C19.7053 13.1439 18.4753 13.5459 17.6773 13.5639H17.6173C16.8253 13.5459 15.5893 13.1439 14.2033 11.3499C13.6933 10.6899 13.2133 9.9039 12.7633 8.9979C12.7213 8.90191 12.6373 8.63191 12.8953 8.46991L13.0393 8.38591L15.2653 7.08991C15.2773 7.08391 15.2833 7.08391 15.2953 7.08391C15.3373 7.08391 15.3673 7.11391 15.3673 7.15591V8.9979C15.3673 9.03991 15.3973 9.06991 15.4393 9.06991C15.4513 9.06991 15.4633 9.06991 15.4693 9.06391L17.5273 7.89991L17.5393 7.89391C17.5513 7.88791 17.5573 7.88791 17.5693 7.88791C17.6113 7.88791 17.6413 7.91791 17.6413 7.95991V7.9719V9.8679C17.6413 9.90991 17.6713 9.93991 17.7133 9.93991C17.7253 9.93991 17.7373 9.93991 17.7433 9.93391L20.2753 8.49991C20.9593 8.09191 21.8413 8.08591 22.5553 8.5479C22.6093 8.58391 22.6453 8.64391 22.6453 8.70991C22.6513 8.72791 22.6453 8.75791 22.6333 8.78191ZM24.7093 2.50591C24.3313 4.09591 23.8993 5.57791 23.4253 6.84391C23.3953 6.90991 23.3113 7.01791 23.1613 6.93391L17.6953 3.78391C17.6473 3.75391 17.5873 3.75391 17.5453 3.78391L12.6973 6.59791L12.6133 6.64591L12.6073 6.65191C12.5953 6.65791 12.5353 6.69991 12.2353 6.87991C12.1573 6.92791 12.0613 6.96391 11.9713 6.92791C11.8513 6.87991 11.8153 6.74791 11.7793 6.63991C11.7373 6.51991 11.6893 6.39391 11.6473 6.26791C11.5573 6.01591 11.4733 5.75791 11.3893 5.49991C11.3053 5.23591 11.2213 4.96591 11.1433 4.70191C11.0593 4.42591 10.9813 4.14391 10.9093 3.86791C10.8313 3.57991 10.7533 3.29191 10.6813 2.99791C10.6453 2.84791 10.6093 2.65591 10.5733 2.51191C10.5553 2.43391 10.5973 2.35591 10.6753 2.33191C11.7313 1.98991 14.1973 1.32991 17.6293 1.32991H17.6413H17.6533C20.7613 1.32991 23.2873 1.89391 24.5953 2.32591C24.6553 2.34391 24.6913 2.37391 24.7033 2.40991C24.7213 2.43991 24.7213 2.47591 24.7093 2.50591Z" fill="white"/>
<path d="M24.7093 2.50608C24.3313 4.09608 23.8993 5.57808 23.4253 6.84408C23.3953 6.91008 23.3113 7.01808 23.1613 6.93408L17.6953 3.78408C17.6473 3.75408 17.5873 3.75408 17.5453 3.78408L12.6973 6.59808L12.6133 6.64608L12.6073 6.65208C12.5953 6.65808 12.5353 6.70008 12.2353 6.88008C12.1573 6.92808 12.0613 6.96408 11.9713 6.92808C11.8513 6.88008 11.8153 6.74808 11.7793 6.64008C11.7373 6.52008 11.6893 6.39408 11.6473 6.26808C11.5573 6.01608 11.4733 5.75808 11.3893 5.50008C11.3053 5.23608 11.2213 4.96608 11.1433 4.70208C11.0593 4.42608 10.9813 4.14408 10.9093 3.86808C10.8313 3.58008 10.7533 3.29208 10.6813 2.99808C10.6453 2.84808 10.6093 2.65608 10.5733 2.51208C10.5553 2.43408 10.5973 2.35608 10.6753 2.33208C11.7313 1.99008 14.1973 1.33008 17.6293 1.33008H17.6413H17.6533C20.7613 1.33008 23.2873 1.89408 24.5953 2.32608C24.6553 2.34408 24.6913 2.37408 24.7033 2.41008C24.7213 2.44008 24.7213 2.47608 24.7093 2.50608Z" fill="#CA0F23"/>
<path d="M22.6333 8.78198C22.1533 9.77798 21.6373 10.636 21.0913 11.35C19.7053 13.144 18.4753 13.546 17.6773 13.564H17.6173C16.8253 13.546 15.5893 13.144 14.2033 11.35C13.6933 10.69 13.2133 9.90398 12.7633 8.99798C12.7213 8.90198 12.6373 8.63198 12.8953 8.46998L13.0393 8.38599L15.2653 7.08998C15.2773 7.08398 15.2833 7.08398 15.2953 7.08398C15.3373 7.08398 15.3673 7.11399 15.3673 7.15599V8.99798C15.3673 9.03998 15.3973 9.06998 15.4393 9.06998C15.4513 9.06998 15.4633 9.06998 15.4693 9.06398L17.5273 7.89998L17.5393 7.89398C17.5513 7.88798 17.5573 7.88798 17.5693 7.88798C17.6113 7.88798 17.6413 7.91798 17.6413 7.95998V7.97198V9.86798C17.6413 9.90998 17.6713 9.93998 17.7133 9.93998C17.7253 9.93998 17.7373 9.93398 17.7433 9.93398L20.2753 8.49998C20.9593 8.09198 21.8413 8.08598 22.5553 8.54798C22.6093 8.58398 22.6453 8.64398 22.6453 8.70998C22.6513 8.72798 22.6453 8.75798 22.6333 8.78198Z" fill="#231815"/>
<path d="M25.9333 1.8643C25.9333 1.6603 25.8133 1.4863 25.6393 1.40831C25.6393 1.40831 22.5733 0.112305 17.6533 0.112305H17.6293C12.7093 0.112305 9.64327 1.40831 9.64327 1.40831C9.46927 1.4863 9.34927 1.6603 9.34927 1.8643C9.34927 1.9123 9.34927 1.9243 9.35527 1.9723C9.35527 1.9843 9.36127 1.9963 9.36127 2.0083C11.5393 11.6143 15.0553 14.3983 17.5993 14.4523H17.6833C20.2333 14.4043 23.7433 11.6143 25.9213 2.0083C25.9213 1.9963 25.9273 1.9843 25.9273 1.9723C25.9333 1.9243 25.9333 1.9123 25.9333 1.8643ZM24.4933 2.5423C24.1213 4.0903 23.7073 5.5243 23.2453 6.7543C23.2153 6.8143 22.4833 8.6083 22.4713 8.6323C22.0093 9.5983 21.5053 10.4323 20.9713 11.1283C19.6273 12.8683 18.4333 13.2583 17.6593 13.2763H17.6053C16.8373 13.2583 15.6373 12.8683 14.2933 11.1283C13.7953 10.4863 13.3333 9.7243 12.8953 8.8423C12.8773 8.8063 11.9713 6.65831 11.9353 6.5563C11.8933 6.43631 11.8513 6.31631 11.8093 6.19631C11.7253 5.9503 11.6413 5.7043 11.5633 5.4523C11.4793 5.1943 11.4013 4.93631 11.3233 4.67831C11.2453 4.40831 11.1673 4.13831 11.0953 3.8683C11.0173 3.5863 10.9453 3.3043 10.8733 3.0223C10.8373 2.8783 10.8013 2.69231 10.7653 2.54831C10.7473 2.4703 10.7893 2.3983 10.8613 2.37431C11.8873 2.0383 14.2813 1.4023 17.6113 1.4023H17.6233H17.6353C20.6533 1.4023 23.1073 1.95431 24.3733 2.3683C24.4333 2.38631 24.4633 2.4163 24.4813 2.4463C24.4993 2.4763 24.4993 2.5063 24.4933 2.5423Z" fill="#231815"/>
<path d="M26.1973 1.80991C26.1973 1.59991 26.0713 1.41991 25.8913 1.33591C25.8913 1.33591 22.7353 0.00390625 17.6653 0.00390625H17.6413C12.5773 0.00390625 9.41528 1.33591 9.41528 1.33591C9.23528 1.41391 9.10928 1.59991 9.10928 1.80991C9.10928 1.85791 9.10928 1.86991 9.11528 1.91791C9.11528 1.92991 9.12128 1.94791 9.12128 1.95991C11.3653 11.8539 14.9833 14.7279 17.6053 14.7759H17.6893C20.3113 14.7219 23.9353 11.8539 26.1733 1.95991C26.1733 1.94791 26.1793 1.93591 26.1793 1.91791C26.1973 1.86991 26.1973 1.85791 26.1973 1.80991ZM24.7093 2.50591C24.3313 4.09591 23.8993 5.57791 23.4253 6.84391C23.3953 6.90391 22.6393 8.75791 22.6273 8.78191C22.1473 9.7779 21.6313 10.6359 21.0853 11.3499C19.6993 13.1439 18.4693 13.5459 17.6713 13.5639H17.6113C16.8193 13.5459 15.5833 13.1439 14.1973 11.3499C13.6873 10.6899 13.2073 9.9039 12.7573 8.9979C12.7393 8.96191 11.8033 6.74791 11.7673 6.63991C11.7253 6.51991 11.6773 6.39391 11.6353 6.26791C11.5453 6.01591 11.4613 5.75791 11.3773 5.50591C11.2933 5.24191 11.2093 4.97191 11.1313 4.70791C11.0473 4.43191 10.9693 4.14991 10.8973 3.87391C10.8193 3.58591 10.7413 3.29791 10.6693 3.00391C10.6333 2.85391 10.5973 2.66191 10.5613 2.51791C10.5433 2.43991 10.5853 2.36191 10.6633 2.33791C11.7193 1.99591 14.1853 1.33591 17.6173 1.33591H17.6293H17.6413C20.7493 1.33591 23.2753 1.89991 24.5833 2.33191C24.6433 2.34991 24.6793 2.37991 24.6913 2.41591C24.7213 2.43991 24.7213 2.47591 24.7093 2.50591Z" fill="#231815"/>
<path d="M10.5133 28.8034C10.5133 28.7854 10.5253 28.7734 10.5433 28.7734H11.0593C11.2693 28.7734 11.4373 28.9414 11.4373 29.1454C11.4373 29.3074 11.3293 29.4334 11.1793 29.4934L11.4193 29.9314C11.4313 29.9554 11.4193 29.9794 11.3893 29.9794H11.1613C11.1493 29.9794 11.1373 29.9734 11.1313 29.9614L10.9033 29.4994H10.7833V29.9434C10.7833 29.9614 10.7653 29.9734 10.7533 29.9734H10.5493C10.5313 29.9734 10.5193 29.9554 10.5193 29.9434V28.8034H10.5133ZM11.0413 29.2894C11.1133 29.2894 11.1733 29.2234 11.1733 29.1514C11.1733 29.0794 11.1133 29.0194 11.0413 29.0194H10.7833V29.2894H11.0413Z" fill="#231815"/>
<path d="M13.2313 28.8034C13.2313 28.7854 13.2433 28.7734 13.2613 28.7734H13.9813C13.9993 28.7734 14.0173 28.7914 14.0173 28.8034V28.9954C14.0173 29.0134 14.0053 29.0254 13.9813 29.0254H13.5013V29.2414H13.8973C13.9153 29.2414 13.9273 29.2594 13.9273 29.2774V29.4634C13.9273 29.4814 13.9093 29.4934 13.8973 29.4934H13.5013V29.7274H13.9813C13.9993 29.7274 14.0173 29.7454 14.0173 29.7634V29.9494C14.0173 29.9674 14.0053 29.9794 13.9813 29.9794H13.2613C13.2433 29.9794 13.2313 29.9614 13.2313 29.9494V28.8034Z" fill="#231815"/>
<path d="M15.7393 29.818L15.8233 29.674C15.8353 29.65 15.8713 29.656 15.8833 29.662C15.8893 29.668 16.0153 29.758 16.1293 29.758C16.2013 29.758 16.2493 29.716 16.2493 29.656C16.2493 29.584 16.1893 29.53 16.0693 29.482C15.9193 29.422 15.7333 29.308 15.7333 29.098C15.7333 28.924 15.8653 28.75 16.1353 28.75C16.3153 28.75 16.4533 28.84 16.5073 28.882C16.5313 28.894 16.5253 28.924 16.5193 28.936L16.4293 29.068C16.4173 29.086 16.3873 29.104 16.3693 29.092C16.3513 29.086 16.2253 28.99 16.1233 28.99C16.0633 28.99 16.0153 29.032 16.0153 29.08C16.0153 29.146 16.0693 29.194 16.2013 29.248C16.3393 29.302 16.5493 29.41 16.5493 29.644C16.5493 29.824 16.3933 30.004 16.1413 30.004C15.9133 30.004 15.7933 29.908 15.7513 29.872C15.7273 29.854 15.7213 29.842 15.7393 29.818Z" fill="#231815"/>
<path d="M18.8473 28.7559C19.1953 28.7559 19.4713 29.0379 19.4713 29.3799C19.4713 29.7219 19.1953 30.0039 18.8473 30.0039C18.4993 30.0039 18.2233 29.7279 18.2233 29.3799C18.2233 29.0319 18.4993 28.7559 18.8473 28.7559ZM18.8473 29.7219C19.0393 29.7219 19.1953 29.5659 19.1953 29.3799C19.1953 29.1879 19.0393 29.0319 18.8473 29.0319C18.6613 29.0319 18.5053 29.1879 18.5053 29.3799C18.5053 29.5659 18.6613 29.7219 18.8473 29.7219Z" fill="#231815"/>
<path d="M21.2413 28.8034C21.2413 28.7854 21.2533 28.7734 21.2713 28.7734H21.7873C21.9973 28.7734 22.1653 28.9414 22.1653 29.1454C22.1653 29.3074 22.0573 29.4334 21.9073 29.4934L22.1473 29.9314C22.1593 29.9554 22.1473 29.9794 22.1173 29.9794H21.8893C21.8773 29.9794 21.8653 29.9734 21.8593 29.9614L21.6313 29.4994H21.5113V29.9434C21.5113 29.9614 21.4933 29.9734 21.4813 29.9734H21.2773C21.2593 29.9734 21.2473 29.9554 21.2473 29.9434V28.8034H21.2413ZM21.7693 29.2894C21.8413 29.2894 21.9013 29.2234 21.9013 29.1514C21.9013 29.0794 21.8413 29.0194 21.7693 29.0194H21.5113V29.2894H21.7693Z" fill="#231815"/>
<path d="M24.1153 29.0254H23.8693C23.8513 29.0254 23.8393 29.0074 23.8393 28.9954V28.8034C23.8393 28.7854 23.8513 28.7734 23.8693 28.7734H24.6373C24.6553 28.7734 24.6673 28.7914 24.6673 28.8034V28.9954C24.6673 29.0134 24.6553 29.0254 24.6373 29.0254H24.3913V29.9494C24.3913 29.9674 24.3733 29.9854 24.3613 29.9854H24.1513C24.1333 29.9854 24.1213 29.9674 24.1213 29.9494V29.0254H24.1153Z" fill="#231815"/>
</svg>
