<svg width="25" height="30" viewBox="0 0 25 30" fill="none" xmlns="http://www.w3.org/2000/svg">
<path fill-rule="evenodd" clip-rule="evenodd" d="M18.3027 0.00292969H18.0893C16.4926 0.213706 14.8262 1.16088 13.9172 2.2253C12.9371 3.36744 12.1283 4.83102 12.2705 6.91638C14.4033 7.08368 15.722 5.98106 16.685 4.84419C17.6664 3.69941 18.4739 2.11859 18.3027 0.00292969ZM24.5457 22.083V22.0237C22.4591 21.0331 20.7887 19.3522 20.5568 16.479C20.296 13.3161 21.8228 11.4639 23.754 10.2348C22.7528 8.66977 21.1325 7.65541 18.8495 7.31027C17.0957 7.04635 15.7327 7.54484 14.3769 8.0407C14.2641 8.08194 14.1514 8.12315 14.0386 8.16391C13.9165 8.20843 13.7949 8.25747 13.6735 8.30641C13.2956 8.45874 12.9202 8.61006 12.5434 8.62103C11.9675 8.63857 11.3665 8.38283 10.8349 8.15658C10.6879 8.09404 10.5463 8.03375 10.4119 7.98212C9.75717 7.73445 9.01024 7.48416 8.27911 7.37087C6.57314 7.11003 5.04106 7.69362 3.92659 8.37864C1.81487 9.66701 0.226151 12.3254 0.0878296 15.5951V16.9375C0.414532 21.506 2.17056 25.076 4.44299 27.8398C5.21364 28.7752 6.27147 29.8132 7.58223 30.0029H8.19085C8.95365 29.8954 9.58655 29.6512 10.2136 29.4093C11.0539 29.0851 11.8838 28.765 13.0018 28.7831C13.9199 28.7988 14.6772 29.0932 15.4283 29.3852C16.1871 29.6802 16.9394 29.9726 17.8444 29.9726C19.8265 29.9726 20.9793 28.377 21.9067 27.0932C21.9544 27.0272 22.0015 26.962 22.048 26.8979C23.0914 25.4541 23.9463 23.8983 24.5457 22.083Z" fill="black"/>
</svg>
