<svg width="99" height="30" viewBox="0 0 99 30" fill="none" xmlns="http://www.w3.org/2000/svg">
<path d="M64.8984 7.78125L63.6719 10.0391L62.4609 13.3281L62.3281 14.2109L62.5859 14.2344L77.3438 4.38281L79.7891 6.66406L85.3359 3.4375L95.9219 14.1562L96.3281 14.1719L96.2188 13.4141L95.9297 12.4297L95.3125 10.7812L94.4844 8.85156L94.1641 8.29688L92.875 6.46094L91.5234 4.89844L89.9062 3.57031L88.3203 2.47656L86.3906 1.47656L84.5234 0.84375L82.2578 0.328125L80.1562 0.15625L77.1016 0.289062L73.8672 0.953125L72.6172 1.49219L69.75 2.90625L66.9688 5.10156L64.8984 7.78125Z" fill="#FCF343"/>
<path fill-rule="evenodd" clip-rule="evenodd" d="M85.5515 1.06582C89.0801 2.26556 92.2559 4.94733 94.2319 8.19368C95.3611 10.0991 96.0668 12.1458 96.4903 14.3335H95.8551L85.2692 3.67702C84.1639 4.16825 83.1536 4.8257 82.1419 5.48409C81.4094 5.96074 80.6762 6.43788 79.9056 6.8528L77.4356 4.52389L74.8244 6.14707L62.7564 14.3335H62.2624C62.6153 10.7343 64.4502 7.84082 66.7791 5.08848C71.578 0.28952 79.0588 -1.26308 85.5515 1.06582ZM94.5848 9.39342L94.3731 9.04056L94.3025 8.68769L94.0908 8.33483L93.8791 8.05254L93.6673 7.77024L93.4556 7.48795L93.2439 7.20566L93.0322 6.92337L92.8205 6.64108L92.6088 6.35879L92.397 6.07649L92.1853 5.7942L91.9736 5.51191L91.7619 5.22962L91.4796 4.94733L91.1973 4.73561L90.915 4.52389L90.6327 4.31217L90.3504 4.10045L90.0681 3.88874L89.7858 3.67702L89.5035 3.4653L89.2213 3.25358L88.939 3.04186L88.6567 2.83014L88.3744 2.61842L88.0921 2.47728L87.8098 2.33613L87.5275 2.19499L87.2452 2.05384L86.9629 1.91269L86.6806 1.77155L86.3983 1.6304L86.1161 1.48926L85.7632 1.34811L85.128 1.13639L84.4929 0.924674L83.8577 0.783529L83.2226 0.642383L82.5874 0.501238L81.9522 0.430665L81.3171 0.360091L80.6819 0.289518H80.0468H79.4116H78.7765L78.1413 0.360091L77.5062 0.430665L76.871 0.501238L76.2359 0.571809L75.6007 0.712956L74.9655 0.854102L74.401 0.995247L73.8364 1.20697L73.2718 1.41868L72.7072 1.6304L72.1426 1.84212L71.578 2.12441L71.0135 2.40671L70.4489 2.689L69.9549 2.97129L69.4609 3.32415L68.9668 3.67702L68.4728 4.02988L67.9788 4.45332L67.4848 4.87676L67.0614 5.30019L66.8497 5.51191L66.6379 5.7942L66.4262 6.07649L66.2145 6.35879L66.0028 6.64108L65.7911 6.92337L65.5793 7.20566L65.3676 7.48795L65.1559 7.77024L64.9442 8.05254L64.803 8.33483L64.6619 8.61712L64.5208 8.89941L64.3796 9.1817L64.2385 9.46399L64.0973 9.74628L63.9562 10.0286L63.815 10.3109L63.6739 10.5932L63.5327 10.8755L63.3916 11.1577L63.2504 11.44L63.1799 11.7223L63.1093 12.0046L63.0387 12.2869L62.9681 12.5692L62.8976 12.8515L62.827 13.1338L62.7564 13.4161L62.4741 13.8395L62.4036 14.1218H62.4741L74.4715 6.00592L77.2944 4.2416L79.7645 6.5705L79.9056 6.49993L80.2585 6.28821L80.6114 6.07649L80.9642 5.86478L81.3171 5.65306L81.67 5.44134L82.0228 5.22962L82.3757 5.0179L82.7286 4.80618L83.0814 4.59446L83.4343 4.38275L83.7871 4.17103L84.14 3.95931L84.4929 3.74759L84.8457 3.53587L85.4103 3.25358L96.0668 13.9807H96.208L96.1374 13.5572L96.0668 13.1338L95.9257 12.7103L95.7845 12.2869L95.6434 11.8635L95.5022 11.5106L95.3611 11.1577L95.2199 10.8049L95.0788 10.452L94.9377 10.0991L94.7965 9.74628L94.5848 9.39342ZM94.8682 14.2629H86.964L80.683 7.69961L82.7297 6.28815C82.8708 6.49987 82.9237 6.76452 82.9767 7.02917L82.9767 7.02926C83.0296 7.29387 83.0825 7.55849 83.2237 7.77018C83.9294 6.78216 84.5645 5.653 85.1291 4.52383C87.2387 6.53967 89.3795 8.71121 91.5514 10.9143L91.5527 10.9158C92.65 12.0287 93.7551 13.1498 94.8682 14.2629ZM73.6996 9.53464C73.8659 9.1743 74.0867 8.80307 74.3063 8.43378C74.6458 7.86285 74.9825 7.29655 75.1111 6.7823C71.3002 9.25235 67.6304 11.793 63.9606 14.3336L85.8382 14.263L79.5572 7.5586C79.1755 7.77671 78.9202 8.16332 78.6611 8.5557C78.5848 8.67118 78.5083 8.78716 78.428 8.89949C78.1598 8.69833 77.9394 8.43346 77.7289 8.18054C77.4963 7.90108 77.2759 7.63622 77.0166 7.48803C76.4995 7.77886 76.0121 8.12887 75.5271 8.47709C74.953 8.88937 74.3824 9.29915 73.7702 9.60522L73.6996 9.53464Z" fill="#2753A0"/>
<path fill-rule="evenodd" clip-rule="evenodd" d="M5.8761 18.6381C6.08781 18.4264 6.44068 18.3558 6.86411 18.3558C7.56984 18.3558 8.13443 18.5676 8.55786 18.9204C9.05187 19.2733 9.33416 19.8379 9.54588 20.473H12.7217L13.4274 16.2387H10.3222L10.181 17.2973C9.68703 16.8738 9.19302 16.521 8.55786 16.3092C7.92271 16.0975 7.21698 15.9564 6.44068 15.9564C5.02922 15.9564 3.90006 16.3092 3.05318 17.015C2.20631 17.7207 1.78287 18.6381 1.78287 19.6967C1.78287 20.6142 2.06516 21.3905 2.55917 22.0256C3.05318 22.6608 3.90005 23.2254 5.09979 23.6488C5.38208 23.79 5.73495 23.9311 6.22896 24.0722C7.99328 24.778 8.84015 25.4131 8.84015 26.0483C8.84015 26.4012 8.69901 26.6129 8.41672 26.8952C8.13443 27.1069 7.78156 27.248 7.35813 27.248C6.72297 27.248 6.15839 27.0363 5.66438 26.6129C5.17037 26.1894 4.88807 25.6954 4.74693 24.9897H1.57115L0.58313 29.6475H3.68834L3.90005 28.6595C4.46464 29.0829 5.09979 29.4358 5.66438 29.6475C6.22896 29.8592 6.93469 29.9298 7.64042 29.9298C9.05188 29.9298 10.181 29.5064 11.0985 28.6595C12.0159 27.8126 12.5099 26.754 12.5099 25.4837C12.5099 24.4957 12.1571 23.7194 11.5219 23.0137C10.8868 22.3079 9.68703 21.6728 8.06385 21.0376C7.85214 20.967 7.64042 20.8965 7.28755 20.7553C6.15839 20.3319 5.5938 19.8379 5.5938 19.3439C5.45266 19.0616 5.5938 18.7793 5.8761 18.6381ZM26.9774 18.8499L27.4008 16.2387H21.4021L20.9081 18.8499H22.1784L21.261 23.9311C21.1198 24.8486 20.8375 25.4837 20.4141 25.9777C19.9907 26.4717 19.4967 26.6834 18.9321 26.6834C18.3675 26.6834 17.9441 26.5423 17.6618 26.26C17.3795 25.9777 17.2383 25.5543 17.2383 24.9897C17.2383 24.8486 17.2383 24.6368 17.3089 24.3545C17.3089 24.0723 17.3795 23.79 17.45 23.5077L18.2263 18.8499H19.4261L19.8495 16.2387H13.8508L13.4274 18.8499H14.7683L13.8508 24.2134C13.7803 24.5663 13.7097 24.9191 13.7097 25.272C13.7097 25.5543 13.6391 25.8366 13.6391 26.1189C13.6391 27.248 14.0625 28.236 14.98 28.9418C15.8269 29.6475 17.0266 30.0004 18.4381 30.0004C20.3435 30.0004 21.755 29.5769 22.6724 28.8006C23.5899 27.9538 24.225 26.5423 24.5779 24.5663L25.5659 18.9204H26.9774V18.8499ZM63.1107 27.0363L64.5221 18.8499H65.863L66.357 16.2387H60.2878L59.7938 18.8499H61.0641L60.6406 21.3199H56.6886L57.112 18.8499H58.3823L58.8057 16.2387H52.7365L52.313 18.8499H53.6539L52.2425 27.0363H51.0427C51.2544 26.5423 51.325 26.0483 51.325 25.4837C51.325 24.4957 50.9722 23.7194 50.337 23.0137C49.7018 22.3079 48.5021 21.6728 46.8789 21.0376C46.6672 20.967 46.4555 20.8965 46.1026 20.7553C44.9735 20.3319 44.4089 19.8379 44.4089 19.3439C44.4089 19.0616 44.55 18.7793 44.7617 18.6381C44.9735 18.4264 45.3263 18.3558 45.7498 18.3558C46.4555 18.3558 47.0201 18.5676 47.4435 18.9204C47.9375 19.2733 48.2198 19.8379 48.4315 20.473H51.6073L52.313 16.2387H49.2078L49.0667 17.2973C48.5727 16.8738 48.0787 16.521 47.4435 16.3092C46.8084 16.0975 46.1026 15.9564 45.3263 15.9564C43.9149 15.9564 42.7857 16.3092 41.9388 17.015C41.6565 17.2973 41.3742 17.5795 41.1625 17.8618L41.4448 16.2387H35.6578L35.2344 18.8499H36.3636L35.5873 24.0722L32.6938 16.1681H28.1065L27.4714 18.8499H28.8123L27.4008 27.0363H26.0599L25.5659 29.6475H31.4235L31.9175 27.0363H30.7883L31.7058 21.1082L34.7404 29.6475H37.6339L39.5393 18.7793H40.5979C40.5274 19.0616 40.5274 19.3439 40.5274 19.6262C40.5274 20.5436 40.8097 21.3199 41.3037 21.9551C41.7977 22.5902 42.6446 23.1548 43.8443 23.5782C44.1266 23.7194 44.4795 23.8605 44.9735 24.0017C46.7378 24.7074 47.5847 25.3426 47.5847 25.9777C47.5847 26.3306 47.4435 26.5423 47.1612 26.8246C46.8789 27.0363 46.5261 27.1775 46.1026 27.1775C45.4675 27.1775 44.9029 26.9657 44.4089 26.5423C43.9149 26.1189 43.6326 25.6249 43.4914 24.9191H40.3157L39.3982 29.6475H42.5034L42.7151 28.6595C43.2797 29.0829 43.9149 29.4358 44.4795 29.6475C45.044 29.8592 45.7498 29.9298 46.4555 29.9298C47.867 29.9298 48.9961 29.5064 49.9136 28.6595C50.337 28.3066 50.6193 27.8832 50.831 27.4597L50.4781 29.7181H56.5474L56.9709 27.1069H55.7005L56.2651 24.0722H60.2172L59.7232 27.1069H58.5235L58.1 29.7181H64.0987L64.5927 27.1069H63.1107V27.0363ZM69.674 27.0363L71.0854 18.8499H72.3557L72.7792 16.2387H66.7099L66.2865 18.8499H67.6273L66.2159 27.0363H64.875L64.4516 29.6475H70.5208L70.9443 27.0363H69.674ZM86.188 18.8499L86.6115 16.2387H80.8245L80.401 18.8499H81.5302L80.7539 24.0722L77.8604 16.1681H73.2732L72.8497 18.7793H74.1906L72.7792 26.9657H71.4383L71.0148 29.5769H76.8724L77.3664 26.9657H76.2372L77.1547 21.0376L80.3305 29.6475H83.224L85.1294 18.7793H86.188V18.8499ZM94.7273 18.8499L94.9391 21.2493H97.4091L98.1148 16.2387H87.1055L86.682 18.8499H87.9523L86.6115 27.0363H85.2706L84.8471 29.6475H96.1388L97.268 24.284H94.7979L93.8099 26.9657H90.1401L90.6341 24.0017H93.0336L93.5276 21.3199H91.1281L91.5516 18.7793H94.7273V18.8499ZM27.1891 11.722L26.6951 14.3332H20.767L21.1904 11.722H22.743L22.5313 9.74596H19.2144L18.4381 11.6514H19.7084L19.2144 14.2626H13.1451L13.498 12.3572C13.2862 12.71 13.0745 12.9923 12.7217 13.2746C11.9454 13.9098 10.8162 14.2626 9.40474 14.2626H1.7123L2.13573 11.6514H3.47662L4.88807 3.46497H3.54719L3.97063 0.853776H9.82818C11.3808 0.853776 12.5099 1.13607 13.3568 1.77122C14.2037 2.40638 14.5566 3.18268 14.5566 4.31185C14.5566 5.22929 14.2743 5.93502 13.7097 6.49961C13.1451 7.06419 12.2982 7.41705 11.1691 7.69934C12.0865 8.05221 12.7217 8.40507 13.2157 8.89908C13.6391 9.39309 13.8508 9.95767 13.8508 10.6634C13.8508 11.0163 13.7803 11.3691 13.7097 11.722H14.8388L18.5792 3.53554H17.2383L17.6618 0.924348H26.7657L26.3422 3.53554H25.0013L26.1305 11.722H27.1891ZM10.2516 9.95767C10.2516 9.46366 10.1105 9.1108 9.7576 8.82851C9.47531 8.54622 8.9813 8.40507 8.41672 8.40507H7.49927L6.93469 11.6514H7.99328C8.76958 11.6514 9.33416 11.5103 9.68703 11.228C10.0399 11.0163 10.2516 10.5223 10.2516 9.95767ZM10.8868 4.66471C10.8868 4.24127 10.7456 3.95898 10.4633 3.74726C10.181 3.53554 9.7576 3.46497 9.26359 3.46497H8.41672L7.92271 6.21731H8.76958C9.54588 6.21731 10.0399 6.07617 10.3928 5.86445C10.675 5.65273 10.8868 5.22929 10.8868 4.66471ZM22.3196 7.48762L21.8961 3.25325L20.1318 7.48762H22.3196ZM42.4328 3.46497L42.8563 0.853776H37.0693L36.6459 3.46497H37.775L36.9987 8.68736L34.1052 0.783203H29.518L29.0946 3.3944H30.4354L29.024 11.5809H27.6831L27.2597 14.192H33.1172L33.6112 11.5809H32.4821L33.3995 5.65273L36.5753 14.2626H39.4688L41.3742 3.3944H42.4328V3.46497ZM53.8656 0.853776H43.3503L42.8563 3.46497H44.1266L42.7857 11.6514H41.4448L40.9508 14.2626H47.2318L47.6552 11.6514H46.2438L46.7378 8.68736H48.9961L49.4196 6.00559H47.1612L47.5847 3.46497H50.4076L50.6193 5.86445H53.0893L53.8656 0.853776ZM54.3596 0.853776L53.8656 3.46497H55.136L53.7951 11.6514H52.4542L51.9602 14.2626H58.2412L58.6646 11.6514H57.2531L57.7472 8.68736H60.0055L60.4289 6.00559H58.1706L58.594 3.46497H61.4169L61.6287 5.86445H64.0987L64.6633 0.853776H54.3596Z" fill="#2753A0"/>
</svg>
