<svg width="60" height="30" viewBox="0 0 60 30" fill="none" xmlns="http://www.w3.org/2000/svg">
<path d="M11.0172 27.8073H8.51283C8.49146 21.5638 10.624 18.1065 13.1539 17.4185C13.5 17.3544 13.3333 15.6491 12.8933 15.1277C12.8933 15.1277 11.6668 15.1449 11.4059 15.1108C11.0855 15.0209 11.3078 14.6704 11.3078 14.6704L12.4914 12.1407L12.329 11.4482H7.9743L11.5726 8.93538C11.7393 2.30286 18.5427 1.78593 22.6453 4.52951C25.0813 6.14063 25.2694 9.33728 25.0813 11.5466C25.0513 11.6876 24.4489 11.5935 24.4489 11.5935C24.4489 11.5935 24.0343 14.0167 25.1154 14.0167H29.9018C31.8547 13.9399 33.7351 15.2604 33.7351 15.2604L34.1966 13.5894L23.7181 0.00390625H4.29499C3.39306 0.00390625 2.53433 0.345709 1.88453 0.982364C1.24787 1.61925 0.91452 2.48667 0.91452 3.3886V26.6065C0.91452 27.5167 1.24365 28.3714 1.88453 29.0039C2.53409 29.6492 3.39306 30.0039 4.29499 30.0039H12.3034C11.7865 29.1151 11.1965 28.1066 11.017 27.8115" fill="#041E42"/>
<path d="M56.3391 0.00390625C57.2279 0.00395465 58.0828 0.341907 58.7239 0.978516C59.3246 1.57562 59.6626 2.37546 59.7024 3.21582L59.6975 3.38379V26.6025C59.6974 28.4783 58.1935 30 56.3304 30H36.7532V27.7861H41.9202C43.2276 27.675 44.6293 25.3719 45.0013 24C45.1637 23.4873 44.4024 23.1194 43.847 22.2051C43.4026 21.5682 43.3257 20.4016 42.5862 20.1152C41.5437 19.7048 40.3645 18.623 40.3645 18.623V17.3115L39.8177 16.7129L39.2708 16.6191V16.0469L38.7913 15.3848L38.2659 15.2734V14.6787L37.8001 14.042L37.0315 13.9443L28.6848 0.00390625H56.3391ZM52.9671 23.7461H50.2835L52.4534 25.3193L51.6253 27.8701L53.7952 26.2939L55.9622 27.8701L55.1331 25.3193L57.304 23.7461H54.6204L53.7952 21.1953L52.9671 23.7461ZM48.385 17.0752H45.7063L47.8772 18.6484L47.0481 21.1953L49.2151 19.6221L51.386 21.1953L50.5569 18.6484L52.7229 17.0752H50.0442L49.2151 14.5244L48.385 17.0752ZM43.5139 10.4004H40.8294L43.0003 11.9775L42.1712 14.5244L44.3421 12.9512L46.5091 14.5244L45.68 11.9775L47.8509 10.4004H45.1673L44.3421 7.85352L43.5139 10.4004ZM38.7405 3.72949H36.0608L38.2278 5.30176L37.3987 7.85352L39.5696 6.27637L41.7356 7.85352L40.9065 5.30176L43.0774 3.72949H40.3977L39.5696 1.17773L38.7405 3.72949Z" fill="#BF0D3E"/>
</svg>
