<svg width="29" height="30" viewBox="0 0 29 30" fill="none" xmlns="http://www.w3.org/2000/svg">
<path fill-rule="evenodd" clip-rule="evenodd" d="M27.3971 23.2126H1.08087V23.2139C0.48827 23.2139 0.008176 22.7338 0.008176 22.1412V16.2087C1.53611 16.7477 3.77698 17.1087 6.4247 16.2218C8.141 15.6462 9.35628 15.0876 10.3217 14.5238V22.0654C10.6127 22.0899 11.0034 22.0879 11.4916 22.0854C11.653 22.0846 11.8252 22.0837 12.0079 22.0837C13.3527 22.0837 14.2723 21.9816 14.8532 21.4675C15.328 21.0476 15.519 20.5557 15.5164 19.8546C15.5125 18.57 14.5798 17.9734 13.668 17.8936V17.8609C14.7184 17.6412 15.2901 16.8942 15.3019 16.1002C15.3136 15.2302 15.1174 14.7292 14.6923 14.4074C14.1834 13.9927 13.3226 13.8069 12.2578 13.8069C11.9569 13.8069 11.6586 13.8187 11.3774 13.841C11.9529 13.4334 12.454 13.0193 12.9722 12.591C13.5601 12.1051 14.1701 11.601 14.9356 11.0677C17.7023 9.14074 20.2794 8.08898 23.3928 8.07721C25.8626 8.06805 27.7817 9.06618 28.4698 9.47956V13.8187H28.1833L26.7077 16.1616C26.3427 16.7634 26.1949 17.0041 25.8757 17.5169H25.8509L25.748 17.3553C25.4659 16.9126 25.3159 16.6772 24.9875 16.1446L23.4779 13.8187H22.1331L25.2556 18.6118V22.0941L26.416 22.0837V18.5857L28.4698 15.4565V22.1399C28.4698 22.7325 27.9897 23.2126 27.3971 23.2126ZM20.3213 13.8187H19.106L15.7048 22.0837H16.8926L17.7207 20.0024H21.6373L22.4614 22.0837H23.7042L20.3213 13.8187ZM4.23108 27.2404C4.23108 25.5149 5.29854 24.3821 6.7519 24.3821L6.75059 24.3834C8.23666 24.3834 9.20208 25.5215 9.20208 27.1384C9.20208 29.0064 8.12024 30.0032 6.67734 30.0032C5.23444 30.0032 4.23108 28.9659 4.23108 27.2404ZM4.97542 27.2234C4.97542 28.3876 5.60857 29.4302 6.71658 29.4302C7.83375 29.4302 8.46036 28.4047 8.46036 27.1684C8.46036 26.0853 7.89392 24.9537 6.72574 24.9537C5.55755 24.9537 4.97542 26.0591 4.97542 27.2234ZM3.9598 25.1971C3.69555 25.0715 3.31749 24.9734 2.86487 24.9734L2.86618 24.9747C1.58811 24.9747 0.743034 25.7923 0.743034 27.2208C0.743034 28.5525 1.50962 29.4028 2.82824 29.4028C3.25993 29.4028 3.69555 29.3152 3.98073 29.1791L4.12201 29.739C3.86823 29.8659 3.34627 29.998 2.68303 29.998C1.14987 29.998 0 28.9502 0 27.2417C0 25.5333 1.15249 24.386 2.84132 24.386C3.51372 24.386 3.94672 24.5286 4.13248 24.6254L3.9598 25.1971ZM10.536 24.471H9.82959V29.913H12.8632V29.3191H10.536V24.471ZM13.3586 24.471H14.065V29.3191H16.3922V29.913H13.3586V24.471ZM17.5939 27.3621H19.704V26.7799H17.5939V25.0558H19.8296V24.471H16.8875V29.913H19.9538V29.3269H17.5939V27.3621ZM24.0344 27.6185H22.933V27.056H24.7252V29.6684C24.4099 29.7874 23.7846 29.9679 23.052 29.9679C22.2266 29.9679 21.5463 29.7586 21.0165 29.2484C20.5469 28.7971 20.2591 28.0737 20.2591 27.2273C20.2617 25.6039 21.3776 24.4161 23.2011 24.4161C23.8304 24.4161 24.3288 24.5548 24.5629 24.666L24.3876 25.2389C24.0972 25.1068 23.7349 25.0061 23.1854 25.0061C21.8655 25.0061 20.9995 25.8119 20.9995 27.1907C20.9995 28.5695 21.8276 29.3858 23.1004 29.3858C23.5596 29.3858 23.8722 29.3217 24.0344 29.2393V27.6185ZM26.2186 29.3269V27.3621H28.3286V26.7799H26.2186V25.0558H28.4542V24.471H25.5122V29.913H28.5785V29.3269H26.2186ZM19.9516 15.6504C19.8636 15.4234 19.779 15.2052 19.689 14.9489H19.6602C19.6044 15.0971 19.5525 15.2347 19.5017 15.369L19.5011 15.3705L19.497 15.3813L19.4966 15.3826C19.3861 15.6748 19.2807 15.9536 19.1539 16.295L18.0904 19.0317H21.2771L20.2018 16.3094H20.2005C20.1107 16.0609 20.0297 15.852 19.9516 15.6504ZM12.0231 21.1175C12.0917 21.1172 12.1691 21.1169 12.2585 21.1169C13.3599 21.1169 14.3084 20.9142 14.3084 19.7198C14.3084 18.604 13.4201 18.3096 12.2624 18.3083H11.4801V21.1078C11.6635 21.1188 11.7979 21.1183 12.0231 21.1175ZM12.3704 14.7907C13.4444 14.7907 14.16 15.0942 14.16 16.0465V16.0478C14.16 16.8432 13.7518 17.3272 12.3534 17.3481H11.4822V14.7946C11.6331 14.789 11.7702 14.7894 12.0143 14.7901C12.1129 14.7904 12.2289 14.7907 12.3704 14.7907Z" fill="#006FBA"/>
<path fill-rule="evenodd" clip-rule="evenodd" d="M13.3664 10.3949C10.164 13.7111 6.1087 15.9062 3.11824 16.0854L3.11955 16.0841C1.08798 16.2058 0.303084 16.0697 0.00744029 15.969V13.8812C0.603961 13.9819 1.30383 14.0499 2.1332 14.0683C9.40264 14.0905 13.7039 8.71396 13.7039 8.71396C10.355 11.8274 7.06104 12.2748 4.66449 12.2865C2.52565 12.297 0.432592 11.3447 0.00613213 11.1393V1.07562C0.00613213 0.483024 0.487535 0.00292969 1.08013 0.00292969H27.3951C27.9877 0.00292969 28.4678 0.483024 28.4678 1.07562V3.43554C27.6907 2.89135 25.2327 2.22418 21.9793 3.69717C18.4185 5.31013 16.57 7.08007 13.3664 10.3949Z" fill="#007E44"/>
</svg>
