<svg width="31" height="30" viewBox="0 0 31 30" fill="none" xmlns="http://www.w3.org/2000/svg">
<path d="M29.9435 10.4713C30.0379 10.4007 30.1298 10.3295 30.2191 10.2576C30.9236 12.3511 31.1599 14.5738 30.9114 16.7686C30.6629 18.9635 29.9356 21.077 28.7809 22.9601C27.6262 24.8431 26.0723 26.4497 24.2287 27.6665C22.3852 28.8833 20.297 29.6805 18.1116 30.002C20.7604 27.4726 22.741 23.1176 22.9885 18.6276C23.2423 14.0295 21.231 11.0607 17.4298 10.6563C11.6798 10.0451 5.70913 15.7663 3.15913 23.1032C1.72599 20.8213 0.930446 18.1971 0.855241 15.5035C0.780036 12.8099 1.42792 10.1454 2.7315 7.78702C4.03508 5.42869 5.94675 3.46272 8.26764 2.0936C10.5885 0.724476 13.2339 0.00221837 15.9285 0.00195332C16.7858 0.00181625 17.6416 0.0743678 18.4866 0.218828C17.9356 0.594199 17.4683 1.07957 17.1141 1.64439C16.7599 2.20921 16.5265 2.84124 16.4285 3.5007C15.8641 6.10945 16.656 8.84883 18.2898 9.20195C19.9235 9.55508 21.781 7.38945 22.3448 4.7807C22.6555 3.6186 22.5482 2.38427 22.0416 1.2932C23.5266 1.95296 24.8953 2.84824 26.0948 3.94445C25.8647 4.08699 25.6407 4.23921 25.4235 4.4007C22.6991 6.42883 21.1466 9.69383 22.3948 11.3695C23.6429 13.0451 27.2191 12.4995 29.9435 10.4713ZM10.4954 11.1457C11.1273 10.4045 10.5641 8.88508 9.41976 7.91008C8.27538 6.93508 7.05351 6.9332 6.42163 7.67383C5.78976 8.41445 5.98788 9.6182 7.13226 10.5938C8.27663 11.5695 9.86476 11.8863 10.4954 11.1457ZM14.1629 9.39383C15.391 8.83008 15.5373 6.51758 14.6316 4.5457C13.726 2.57383 12.1679 1.81133 10.9398 2.37508C9.71163 2.93883 9.27726 4.61695 10.1835 6.58758C11.0898 8.5582 12.9341 9.95758 14.1629 9.39383ZM23.3516 22.4245C26.7391 20.0782 28.396 20.7201 28.3954 19.857C28.3941 18.9063 25.7804 17.1057 23.9348 16.9382C23.9568 17.4507 23.9529 17.9813 23.9229 18.5301C23.8481 19.8423 23.6569 21.146 23.3516 22.4245ZM8.89726 26.652C8.85065 27.2584 8.87941 27.8682 8.98288 28.4676C7.58666 27.7412 6.31237 26.8013 5.20601 25.682C7.00663 18.9282 12.1623 12.3632 17.121 12.8457C19.196 13.0482 20.6285 14.8707 20.4098 18.8313C20.1573 23.4163 16.8466 30.1076 13.346 29.9145C11.7291 29.8257 11.2235 28.1751 11.3448 26.717C11.6091 23.5563 13.2179 22.687 13.3235 21.407C13.3285 21.2518 13.2949 21.0979 13.2257 20.959C13.1565 20.8201 13.0538 20.7006 12.9269 20.6112C12.8001 20.5218 12.653 20.4654 12.4989 20.447C12.3448 20.4286 12.1885 20.4487 12.0441 20.5057C11.0698 20.8163 9.13163 23.227 8.89726 26.652ZM18.1348 16.0976C17.1285 16.1301 16.0429 17.912 16.476 18.892C17.2716 20.1701 18.931 18.5063 18.9585 17.1451C18.9654 16.8232 18.9441 16.097 18.1348 16.0976ZM27.9704 27.807H28.2829L28.596 28.5588L28.9085 27.807H29.2216V29.0976H28.9091V28.4751L28.6991 28.9782H28.4929L28.2835 28.4751V29.0976H27.9704V27.807ZM26.7929 27.807H27.7766V28.0976H27.441V29.0976H27.1285V28.0976H26.7929V27.807Z" fill="#DD0031"/>
</svg>
