<svg width="36" height="30" viewBox="0 0 36 30" fill="none" xmlns="http://www.w3.org/2000/svg">
<path d="M18.1098 25.9993C18.1098 25.9988 4.98075 25.9988 4.98075 25.9988C5.04745 24.8142 4.67722 23.4374 4.25622 22.4132C2.92208 19.1673 0.174984 16.2286 0.832179 12.4053C1.19731 10.2812 2.91273 8.80195 5.01176 8.63372C8.76398 8.33189 12.0013 10.3387 15.6405 10.9815C15.9315 11.0327 16.3234 10.4127 16.6769 10.0588C14.9891 8.78665 15.2187 6.29296 17.1724 5.21605C17.3071 5.06141 17.2578 3.62531 17.1809 3.56074C17.0218 3.42798 15.7754 3.66673 15.5985 3.51295C15.422 3.35895 15.4566 1.86337 15.57 1.72C15.6834 1.57704 17.0883 1.7304 17.1673 1.63439C17.2463 1.53775 17.1276 0.192345 17.2604 0.0863529C17.3931 -0.0196395 18.1098 0.00691171 18.1098 0.00691171H17.8145C17.8145 0.00691171 18.5299 -0.0198519 18.6629 0.0863529C18.7952 0.192558 18.6769 1.53775 18.7566 1.63439C18.8358 1.7304 20.2405 1.57704 20.3537 1.72C20.4669 1.86358 20.5024 3.35916 20.3254 3.51295C20.1487 3.66652 18.9023 3.42798 18.7432 3.56074C18.6657 3.62531 18.6168 5.06141 18.7513 5.21605C20.7057 6.29275 20.9351 8.78665 19.2468 10.0588C19.6003 10.4127 19.9915 11.0325 20.2832 10.9815C23.9228 10.3387 27.1597 8.33167 30.9113 8.63372C33.011 8.80195 34.7266 10.2812 35.0915 12.4053C35.7487 16.2286 33.0018 19.1671 31.6683 22.4132C31.2469 23.4374 30.8765 24.8142 30.9432 25.9988C30.9432 25.9988 17.8145 25.9988 17.8145 25.9993M25.0909 18.0815C25.0909 18.0815 26.5934 17.8561 26.703 18.0711C26.8131 18.286 26.1956 19.5543 26.3009 19.7704C26.4065 19.9868 28.3966 19.5809 28.4314 19.8048C28.4667 20.0289 28.3169 21.1457 28.1266 21.3108C27.9357 21.4762 26.0781 21.4877 26.0781 21.4877C25.6911 21.7821 25.5904 22.3807 25.5881 22.9937C25.5853 23.7709 26.1901 24.1725 27.155 23.903C28.9539 23.4002 31.1832 19.4978 32.5063 16.7966C33.4791 14.8104 34.0658 11.5614 31.5131 10.5881C29.9563 9.99484 28.3233 10.3311 26.6493 10.8277C24.895 11.3485 22.5808 12.0533 21.2171 12.9C20.8826 13.1075 21.6154 12.942 20.4053 15.6239C19.8431 16.8716 19.2783 19.5286 19.514 20.8704C19.8509 22.7898 20.9172 24.009 21.8047 24.0145C22.3867 24.0171 22.8538 23.7972 23.2779 23.4259C23.8621 22.9144 24.3391 22.0735 24.186 21.5763C24.0564 21.4093 22.482 21.6491 22.3701 21.4926C22.2586 21.336 22.5615 20.1104 22.7403 19.9515C22.9177 19.7933 24.3389 20.0046 24.5292 19.8489C24.7196 19.6945 24.8956 18.1745 25.0909 18.0815ZM10.8331 18.0815C11.0278 18.1745 11.2039 19.6945 11.3947 19.8492C11.585 20.0046 13.0056 19.7935 13.1838 19.9518C13.362 20.1106 13.6653 21.3365 13.5536 21.4928C13.4415 21.6491 11.8673 21.4095 11.7375 21.5765C11.5848 22.0737 12.0612 22.9149 12.6456 23.4261C13.0702 23.7974 13.5366 24.0173 14.119 24.0147C15.0063 24.0092 16.0726 22.7898 16.4099 20.8706C16.6452 19.5288 16.0809 16.8718 15.518 15.6241C14.3085 12.9422 15.0411 13.1075 14.7068 12.9002C13.3427 12.0533 11.0289 11.3487 9.27461 10.8279C7.6004 10.3313 5.9674 9.99505 4.41107 10.5883C1.85791 11.5616 2.44501 14.8104 3.41699 16.7968C4.74052 19.4978 6.97018 23.4002 8.76908 23.9032C9.73384 24.1728 10.3386 23.7711 10.3356 22.9939C10.3337 22.3809 10.2326 21.7823 9.846 21.4879C9.846 21.4879 7.98805 21.4762 7.7973 21.311C7.60677 21.1459 7.45745 20.0291 7.49207 19.805C7.52712 19.5811 9.51782 19.987 9.62275 19.7706C9.72853 19.5543 9.11106 18.2863 9.22109 18.0713C9.33005 17.8563 10.8331 18.0815 10.8331 18.0815Z" fill="#245DAD"/>
<path d="M31.1525 27.8789H4.60132V30.003H31.1525" fill="#245DAD"/>
</svg>
