<svg width="118" height="30" viewBox="0 0 118 30" fill="none" xmlns="http://www.w3.org/2000/svg">
<path fill-rule="evenodd" clip-rule="evenodd" d="M21.4957 22.6037C27.9853 22.6986 32.9238 17.3381 32.8394 11.3232C32.9133 5.19762 28.0645 0.348828 22.4243 0.0217066C15.5336 -0.379281 10.7217 5.10265 10.5054 10.7745C10.2574 17.4277 15.407 22.514 21.4957 22.6037ZM16.4306 11.3285C16.4042 8.24723 18.8418 5.96794 21.7225 5.98904V5.98376C24.5822 5.98904 26.9776 8.39497 26.9407 11.2916C26.9037 14.2673 24.6877 16.6047 21.675 16.6047C18.731 16.6099 16.4569 14.3148 16.4306 11.3285Z" fill="#F1B73B"/>
<path d="M22.1814 3.64688C26.0088 3.86886 29.2997 7.15901 29.2497 11.3158C29.307 15.3975 25.9553 19.0354 21.5515 18.9711C17.4196 18.9102 13.9252 15.4587 14.0935 10.9438C14.2403 7.09475 17.5053 3.37478 22.1814 3.64688ZM21.7224 5.98868C18.8417 5.96765 16.404 8.2473 16.4304 11.3285C16.4569 14.3147 18.7315 16.6102 21.6755 16.6049C24.688 16.6046 26.9042 14.267 26.9411 11.2914C26.9781 8.3948 24.5821 5.98907 21.7224 5.98379V5.98868Z" fill="#EC782E"/>
<path fill-rule="evenodd" clip-rule="evenodd" d="M18.0902 11.255C18.0532 13.281 19.6414 14.9008 21.6674 14.9061L21.6621 14.9008C23.6301 14.9747 25.2921 13.3285 25.2816 11.2919C25.271 9.25004 23.7515 7.65137 21.6727 7.65137C19.71 7.65137 18.1271 9.15507 18.0902 11.255Z" fill="#080808"/>
<path fill-rule="evenodd" clip-rule="evenodd" d="M0.337679 10.2261C0.527621 9.37132 0.98137 8.56407 1.49843 7.87817C2.97048 5.93654 6.05176 5.47752 8.07253 6.82294C8.20971 6.91791 8.36271 7.10785 8.36799 7.26613C8.3914 7.73434 8.38884 8.20544 8.38592 8.74343C8.38489 8.93272 8.38382 9.13102 8.38382 9.33966C7.44994 8.18946 6.39998 7.49828 5.00708 7.65129C4.15762 7.74099 3.39785 8.11559 2.84385 8.79622C1.55647 10.3896 1.74641 12.8061 3.2976 14.0829C4.46891 15.0485 6.63741 15.2648 8.48407 13.0277C8.48407 13.1972 8.48429 13.3612 8.4845 13.5209V13.5219C8.48534 14.1415 8.48609 14.6955 8.47351 15.249C8.47351 15.3281 8.33633 15.4231 8.24664 15.4811C5.42389 17.3647 1.16604 16.0879 0.390441 12.3893C0.384476 12.3634 0.374017 12.3271 0.362732 12.2879C0.34407 12.2231 0.323151 12.1504 0.316575 12.1044C0.22688 11.3974 0.179394 10.912 0.332403 10.2261H0.337679ZM56.4665 6.37445H58.0599V7.47717C58.2792 7.34495 58.4926 7.19946 58.7052 7.0545C59.1629 6.74249 59.6169 6.43297 60.1176 6.26365C62.4497 5.46695 64.8715 6.8071 65.6998 9.24996C66.4543 11.4712 65.9214 13.8877 64.3702 15.2489C62.6027 16.8001 60.0174 16.7104 58.3712 15.0379C58.3302 14.9969 58.2948 14.9521 58.2369 14.8786C58.198 14.8294 58.1486 14.7667 58.081 14.6844V21.5276H56.4613V6.37445H56.4665ZM58.052 11.5313C58.0368 11.3929 58.0217 11.2548 58.002 11.1183C58.0356 9.12095 59.3329 7.61437 61.099 7.64073C63.0037 7.66711 64.0959 8.89645 64.2805 10.6956C64.4124 11.9566 64.1381 13.1596 63.1409 14.0354C61.4208 15.5444 58.8566 14.7002 58.2024 12.4368C58.1189 12.1428 58.0854 11.8364 58.052 11.5313ZM94.0375 13.564C95.1444 11.1478 96.2375 8.76174 97.3483 6.3428L97.3431 6.33225C97.1682 6.33225 97.0028 6.33503 96.844 6.33771C96.514 6.34327 96.2124 6.34834 95.9132 6.32697C95.5492 6.30059 95.3645 6.42194 95.2168 6.77017C94.6214 8.19474 94.0021 9.60903 93.3836 11.0213L93.381 11.0274C93.233 11.3654 93.085 11.7032 92.9375 12.0411C92.8795 12.1763 92.8157 12.3056 92.7399 12.4591C92.6915 12.557 92.6383 12.6648 92.5787 12.7903C92.2526 11.9988 91.932 11.22 91.6132 10.4454L91.6095 10.4365L91.6079 10.4327C90.938 8.80531 90.2758 7.19675 89.5871 5.53027C88.8059 7.4427 88.056 9.27355 87.294 11.1341L86.6114 12.8008C86.5704 12.7126 86.5351 12.6371 86.5039 12.5703C86.4307 12.4139 86.3798 12.3049 86.3317 12.1941C86.0892 11.6349 85.8478 11.0746 85.6062 10.5142L85.6058 10.5132L85.6054 10.5122C85.0746 9.2807 84.5434 8.04808 83.9997 6.82293C83.9152 6.62771 83.6989 6.38501 83.5195 6.36391C83.1544 6.31919 82.7839 6.32711 82.3859 6.33562C82.2203 6.33916 82.05 6.3428 81.8734 6.3428C82.3294 7.34586 82.7829 8.34282 83.2357 9.33844C84.3598 11.8097 85.4801 14.2728 86.6272 16.8001C87.1531 15.5264 87.6634 14.2854 88.172 13.0484L88.1754 13.0401L88.1761 13.0386L88.181 13.0266C88.6491 11.8881 89.1159 10.7528 89.5924 9.59819C90.5896 12.0358 91.5446 14.3573 92.5523 16.8054C93.0519 15.7153 93.5461 14.6367 94.0375 13.564ZM45.2534 11.6084C45.2903 13.1069 46.1556 14.2993 47.3902 14.6422C48.9519 15.0749 50.1338 14.5103 51.2365 12.7587C51.4657 12.8904 51.6949 13.0234 51.924 13.1564C52.1536 13.2897 52.384 13.4234 52.6136 13.5554C51.896 15.3123 49.9122 16.4256 47.9495 16.3412C45.1214 16.2198 43.5122 13.8614 43.4858 11.6032C43.47 10.052 43.7496 8.62214 44.8154 7.44556C46.0026 6.13707 47.5538 5.83633 49.1999 6.16346C50.9938 6.52223 52.0385 7.75686 52.5239 9.46633C52.627 9.82916 52.6721 10.2058 52.7171 10.5823C52.7343 10.7259 52.7515 10.8695 52.7719 11.0122C52.8352 11.4502 52.6875 11.6243 52.1968 11.619C50.6735 11.5998 49.1502 11.603 47.6269 11.6061C47.0556 11.6073 46.4841 11.6084 45.9129 11.6084H45.2534ZM45.3378 10.0678H50.8725C50.7986 8.78043 49.5692 7.70937 48.3188 7.63023C46.9259 7.54053 45.5752 8.63797 45.3378 10.0678ZM101.353 11.6084H108.893L108.887 11.6032C108.862 11.3641 108.845 11.1323 108.83 10.9069C108.797 10.4358 108.766 9.99293 108.655 9.57185C108.228 7.93624 107.289 6.67524 105.579 6.23732C103.833 5.78885 102.202 6.05265 100.926 7.45611C99.7701 8.73294 99.4852 10.2736 99.6276 11.9461C99.8967 15.0538 102.53 17.006 105.795 16.1301C107.151 15.7661 108.106 14.8586 108.75 13.5712C108.466 13.4052 108.198 13.2496 107.938 13.0984C107.743 12.9853 107.552 12.8745 107.362 12.7639C106.117 14.7689 104.751 15.0221 103.411 14.6C102.155 14.2043 101.332 13.0066 101.353 11.6084ZM104.218 7.62495C105.558 7.59329 106.761 8.63269 107.014 10.0573H101.458C101.627 8.74877 102.862 7.65661 104.218 7.62495ZM74.8826 16.3201C72.176 16.5575 69.6487 14.3784 69.4693 11.5874C69.2899 8.77517 71.2526 6.48532 73.7588 6.12126C77.0617 5.64641 79.4254 8.03651 79.6576 10.7854C79.9055 13.74 77.5946 16.2357 74.8826 16.3201ZM74.5661 14.6581C76.4444 14.6581 78.0061 13.0805 78.0008 11.1916C77.9903 9.31861 76.4497 7.75159 74.6083 7.74632C72.7089 7.74104 71.1788 9.26058 71.1471 11.1811C71.1207 13.0541 72.693 14.6581 74.5661 14.6581ZM35.3195 16.0352H37.0448H37.0501C37.0501 15.4885 37.0492 14.9474 37.0484 14.4105C37.0462 13.0818 37.0441 11.778 37.0554 10.4741C37.0607 10.052 37.0976 9.6194 37.1978 9.20786C37.5461 7.74109 38.5063 7.319 39.8729 8.04183C40.1208 7.55115 40.3688 7.06046 40.6273 6.55923C40.0206 6.1002 39.3558 5.92081 38.7174 6.13186C38.2926 6.26974 37.902 6.5129 37.5214 6.7498C37.3632 6.84831 37.2066 6.94575 37.0501 7.03408C37.0459 6.96621 37.0416 6.8864 37.037 6.80014C37.0302 6.67182 37.0226 6.52922 37.0132 6.39039H35.3195V16.0352ZM112.489 6.36928H114.071C114.08 6.52472 114.087 6.67387 114.095 6.84417L114.095 6.84575C114.102 6.98718 114.109 7.14322 114.119 7.32954C115.148 5.98412 116.324 5.68865 117.759 6.53811C117.504 7.0283 117.259 7.49873 117.014 7.96851L117.003 7.98985L116.989 8.01544C115.886 7.53003 115.158 7.56169 114.768 8.22121C114.483 8.70661 114.24 9.28699 114.224 9.83571C114.178 11.3253 114.185 12.815 114.193 14.323V14.3254C114.195 14.8837 114.198 15.4445 114.198 16.0088H112.483V6.36928H112.489Z" fill="#080808"/>
<path fill-rule="evenodd" clip-rule="evenodd" d="M93.1615 28.5393C93.7788 29.3149 94.6388 29.6684 95.5305 29.9955L95.541 30.0008H97.5354C97.5627 29.988 97.5901 29.9728 97.6176 29.9574C97.6698 29.9282 97.7229 29.8985 97.7781 29.8847C100.031 29.3149 100.997 26.9406 100.617 25.0992H97.9944C96.9462 25.0957 96.445 25.6233 96.4907 26.6821C96.4907 26.7045 96.5024 26.7249 96.521 26.7576C96.533 26.7788 96.548 26.8051 96.5646 26.8404H98.2002C98.1844 28.1383 96.4485 28.6448 95.4408 27.8587C94.3275 26.9934 94.1112 24.999 95.0028 23.9121C95.5727 23.2104 96.3799 22.8991 97.1186 23.2526C97.4388 23.4056 97.7087 23.6642 98.0026 23.9459C98.1443 24.0817 98.2922 24.2233 98.4534 24.3606C98.7131 24.2489 99.0008 24.1258 99.3022 23.9968C99.6133 23.8637 99.9389 23.7243 100.263 23.585C99.7619 22.0496 97.8414 20.91 95.7837 21.3057C94.1903 21.617 93.0137 22.3979 92.5072 23.9227C91.9691 25.5319 92.0429 27.12 93.1615 28.5393ZM80.7726 29.7437C80.9574 29.8258 81.1422 29.9078 81.3225 29.9956L81.3331 30.0009H83.3275C83.3367 29.9927 83.3458 29.9836 83.3547 29.9742L83.366 29.9621C83.3938 29.9323 83.4215 29.9026 83.4541 29.8953C86.013 29.3888 87.3426 26.7507 86.7042 24.3501C86.1713 22.3451 83.8129 20.8203 81.465 21.3268C79.6975 21.712 78.4681 22.7039 77.9616 24.4398C77.4657 26.1387 78.1516 28.1384 79.5445 29.1039C79.9198 29.3652 80.3465 29.5546 80.7726 29.7437ZM84.599 25.5267C84.6412 26.851 83.5913 27.8851 82.3144 27.8851C81.0587 27.8798 80.0246 26.7982 80.0826 25.4845C80.1407 24.2024 81.1009 23.3529 82.3356 23.3529C83.6335 23.3582 84.5621 24.2393 84.599 25.5267ZM113.69 29.762C113.874 29.7601 114.061 29.7582 114.254 29.7582V29.7529C114.231 29.6747 114.209 29.6009 114.189 29.5307C114.136 29.3501 114.09 29.1926 114.033 29.0407C113.305 27.0832 112.576 25.131 111.848 23.1789C111.195 21.4217 111.194 21.4217 109.345 21.463L109.295 21.4641C108.952 21.4747 108.82 21.6118 108.714 21.8967C108.496 22.4949 108.268 23.0909 108.04 23.6875L108.038 23.6917C107.915 24.0146 107.792 24.3377 107.67 24.6615C107.385 25.4122 107.101 26.1641 106.815 26.9222C106.463 27.8531 106.107 28.7934 105.744 29.7529H107.026L107.059 29.7529C108.039 29.7531 108.059 29.7531 108.403 28.8138C108.53 28.4761 108.683 28.3126 109.063 28.3442C109.371 28.366 109.682 28.3603 109.992 28.3546C110.133 28.3521 110.273 28.3495 110.413 28.3495C111.445 28.3495 111.447 28.3546 111.824 29.2706L111.838 29.3045C111.912 29.4839 112.102 29.7266 112.255 29.7371C112.721 29.7718 113.191 29.7671 113.69 29.762ZM110.57 25.7446L110.575 25.7608L110.577 25.7673C110.667 26.0342 110.758 26.3033 110.851 26.582H110.846H109.231C109.315 26.3283 109.397 26.0788 109.48 25.8285L109.494 25.7868L109.496 25.7807C109.669 25.2555 109.844 24.7255 110.033 24.1444C110.22 24.7053 110.394 25.2208 110.57 25.7446ZM64.7918 21.4797H64.7955C65.0048 21.7775 65.201 22.0681 65.3917 22.3507C65.8148 22.9775 66.2111 23.5647 66.6648 24.102C67.5723 25.1888 68.0103 26.3654 67.8309 27.7847C67.7723 28.2312 67.7874 28.6852 67.8021 29.1293C67.8086 29.3255 67.8151 29.5197 67.8151 29.7105H69.9835C69.9835 29.4001 69.982 29.0926 69.9805 28.7876C69.9764 27.9573 69.9724 27.1439 69.9994 26.3338C70.0099 26.0067 70.1207 25.6426 70.3001 25.3735C70.8014 24.6234 71.3248 23.8882 71.8485 23.1525L71.8492 23.1515C72.0915 22.8111 72.3339 22.4707 72.5741 22.1287C72.6568 22.0101 72.7296 21.8818 72.8192 21.7238L72.8198 21.7229C72.8617 21.649 72.9073 21.5686 72.9593 21.4797C72.7404 21.4797 72.5302 21.4787 72.3265 21.4776C71.74 21.4747 71.2073 21.472 70.6747 21.4955C70.5217 21.5008 70.337 21.6485 70.2368 21.7857C69.9055 22.2378 69.5887 22.6985 69.2586 23.1785C69.1419 23.3482 69.0232 23.5207 68.9019 23.6957C68.7582 23.4871 68.6186 23.2797 68.4801 23.074C68.2018 22.6607 67.928 22.2541 67.6357 21.8596C67.5143 21.6908 67.2874 21.5061 67.0975 21.4955C66.5905 21.4655 66.0782 21.4702 65.511 21.4754C65.2825 21.4775 65.0451 21.4797 64.7955 21.4797L64.7918 21.4744V21.4797Z" fill="#EC782E"/>
</svg>
