<svg width="57" height="28" viewBox="0 0 57 28" fill="none" xmlns="http://www.w3.org/2000/svg">
<path d="M29.0641 18.7397C29.5782 18.9379 30.5371 19.0089 31.8606 19.9062C33.0214 20.6931 33.1766 20.809 33.1803 20.8165C33.2121 20.8296 33.2869 20.8408 33.3654 20.7529L33.4514 20.6296C33.5243 20.4875 33.4308 20.4202 33.4308 20.4202C33.4308 20.4202 33.7093 20.6071 32.1372 19.5398C30.5353 18.4556 30.2661 17.6443 29.967 17.2836C30.5185 17.2817 32.4195 17.2275 33.9785 17.5826C35.8309 18.0051 37.1507 18.336 37.1507 18.336C37.1507 18.336 37.2628 18.3621 37.3189 18.2126L37.3544 18.0649C37.3712 17.906 37.2591 17.878 37.2591 17.878C37.2591 17.878 35.9524 17.5639 34.1 17.1415C32.2045 16.7116 30.6736 15.833 30.2717 15.6087C30.7764 15.4105 32.5335 14.6572 34.1243 14.4198C36.0029 14.1413 41.6332 13.3543 41.6332 13.3543C41.6332 13.3543 41.7472 13.3356 41.7453 13.1767L41.7248 13.0253C41.6818 12.8721 41.5678 12.887 41.5678 12.887C41.5678 12.887 35.9581 13.6871 34.0776 13.9656C32.1503 14.2516 30.3988 13.9824 29.9465 13.9207C30.3409 13.5543 31.7129 12.2215 33.1111 11.4215L33.8719 10.9916L33.8701 10.9803L37.704 8.86058C37.7114 8.82693 37.7339 8.73533 37.7114 8.67926L37.6385 8.54654C37.575 8.46242 37.5114 8.45681 37.474 8.46429L33.6738 10.5784L32.9055 11.014C31.2045 11.9879 29.4679 12.3748 29.0342 12.4758C29.2642 12.001 30.0623 10.2551 31.0792 8.99517L31.5578 8.40634L31.6643 8.26428L34.2869 5.09584V5.07154L35.5412 3.54621C35.5412 3.54621 35.6122 3.45462 35.502 3.34059L35.3842 3.24152C35.2496 3.1574 35.1748 3.24526 35.1748 3.24526L34.4626 4.11821C33.4354 5.51629 32.338 6.86141 31.1746 8.14838L30.7353 8.69047C29.4997 10.2195 28.0174 11.214 27.6585 11.4626C27.6996 10.943 27.8117 9.0176 28.3034 7.47357L28.5819 6.59875C28.5819 6.59875 28.4286 6.53706 28.1538 6.47164C28.0491 6.79689 27.9445 7.09411 27.8753 7.31468C27.279 9.19331 26.2565 10.6607 26.0135 11.0159C25.8658 10.5224 25.2695 8.68486 25.1648 7.06233L25.1106 6.1576C24.9555 6.16694 24.8022 6.17442 24.6545 6.19685L24.7087 7.07167C24.834 9.0419 24.4152 10.7803 24.3199 11.199C24.0021 10.7934 22.7796 9.29612 22.0936 7.82126L21.7123 6.99877C21.7104 6.9969 21.3066 7.19318 21.2992 7.19692L21.6693 7.9951C22.4226 9.61577 22.7946 11.2757 22.8937 11.8701C22.4263 11.571 20.8374 10.5691 19.7252 9.42323C18.4018 8.06052 14.1174 3.58173 14.1174 3.58173C14.1174 3.58173 14.0333 3.49761 13.9062 3.59294L13.794 3.69762C13.6949 3.821 13.7734 3.90511 13.7734 3.90511C13.7734 3.90511 18.056 8.36148 19.3813 9.72418C20.7533 11.1374 21.5646 12.7337 21.7646 13.1132V13.1151C21.258 13.0122 19.357 12.6702 17.8784 11.9935C16.1493 11.2047 15.3791 10.8084 15.3791 10.8084C15.3791 10.8084 15.2745 10.7616 15.1885 10.8962L15.1249 11.0327C15.0763 11.186 15.181 11.2346 15.181 11.2346C15.181 11.2346 15.9399 11.6103 17.669 12.3991C19.4579 13.216 20.7888 14.403 21.1197 14.6909C20.6057 14.7806 18.7158 15.1526 17.0951 15.061C15.196 14.9544 14.9118 14.9656 14.9118 14.9656C14.9118 14.9656 14.7959 14.9619 14.7679 15.1171L14.7567 15.2685C14.766 15.4274 14.8819 15.4367 14.8819 15.4367C14.8819 15.4367 15.1492 15.4087 17.0465 15.5152C18.9999 15.6255 20.6673 16.248 21.0879 16.3975C20.6356 16.6723 19.0149 17.7023 17.4765 18.2032C15.6708 18.7921 12.1584 19.9099 12.1584 19.9099C12.1584 19.9099 12.0481 19.9473 12.078 20.1043L12.1229 20.2501C12.1902 20.394 12.3023 20.3604 12.3023 20.3604C12.3023 20.3604 15.7904 19.2351 17.598 18.6463C19.4523 18.0406 21.2263 18.0144 21.6805 18.0014C21.3534 18.4276 20.2225 19.9716 18.9756 20.9941L18.2167 21.6147C18.2317 21.639 18.3177 21.7661 18.5008 21.9736L19.2486 21.3605C20.7515 20.1267 22.3889 19.4613 22.8151 19.2818C22.6619 19.8052 22.1702 21.6483 21.3851 23.0484L20.8617 23.9718C20.0262 25.4411 19.1289 26.987 19.1289 26.987C19.1289 26.987 19.0728 27.0879 19.2 27.1833L19.3327 27.258C19.4803 27.3197 19.5383 27.2188 19.5383 27.2188C19.5383 27.2188 20.4281 25.6673 21.2618 24.1924L21.7721 23.2896C22.7179 21.6035 23.9984 20.3903 24.3367 20.0594C24.3853 20.609 24.5984 22.4988 24.376 24.0821C24.2535 24.9417 24.1332 25.8016 24.0152 26.6617C24.0152 26.6617 24.0003 26.7758 24.1535 26.8188L24.305 26.8431C24.4639 26.8449 24.4825 26.7309 24.4825 26.7309C24.4825 26.7309 24.5293 26.3141 24.6769 25.2336L24.8246 24.1681C25.0957 22.2558 25.8471 20.6632 26.0415 20.2314C26.2864 20.7305 27.1706 22.4091 27.5369 23.9644C27.6042 24.2448 27.6921 24.6261 27.793 25.0635L28.3949 27.6842H28.8697L28.2379 24.9551L27.9874 23.8802C27.5444 22.0035 27.6678 20.2501 27.6902 19.7716C28.0996 20.1454 29.5333 21.3885 30.4399 22.7045C30.7152 23.1056 30.9857 23.51 31.2512 23.9176C31.4568 24.2354 32.0868 25.2673 32.0868 25.2673C32.1204 25.2841 32.1877 25.3495 32.2831 25.2747L32.4083 25.1906C32.436 25.1658 32.4564 25.1339 32.4673 25.0983C32.4782 25.0627 32.4791 25.0248 32.47 24.9887L31.0998 22.8596L30.8306 22.4652C29.7371 20.8726 29.2118 19.1902 29.0641 18.7397Z" fill="#FFF22D"/>
<path d="M30.4923 24.0211C30.4137 24.0656 30.3345 24.1093 30.2549 24.1519L30.4923 24.0211Z" fill="#CA0088"/>
<path d="M25.72 25.292C25.3686 25.292 25.019 25.2714 24.6769 25.2359C24.5293 26.3163 24.4825 26.7332 24.4825 26.7332C24.4825 26.7332 24.4638 26.8472 24.305 26.8453L24.1535 26.821C24.0003 26.7781 24.0152 26.664 24.0152 26.664L24.2227 25.1761C23.189 25.0144 22.1891 24.6828 21.2636 24.1947C20.4299 25.6696 19.5402 27.2211 19.5402 27.2211C19.5402 27.2211 19.4803 27.3201 19.3345 27.2603L19.2018 27.1856C19.0747 27.0884 19.1308 26.9893 19.1308 26.9893C19.1308 26.9893 20.9253 23.9386 20.8954 23.9199H0.965118V27.6884H28.3987L27.7968 25.0677C27.1276 25.2116 26.4341 25.292 25.72 25.292ZM32.412 25.191L32.2868 25.2751C32.2064 25.32 32.1821 25.3069 32.1485 25.2976C32.1208 25.2911 32.096 25.276 32.0774 25.2546C32.0774 25.2546 31.969 25.0639 31.7559 24.7181C31.5918 24.4499 31.4241 24.1838 31.2531 23.9199H30.668C30.6269 23.9461 30.5857 23.9667 30.5427 23.9928C30.5255 24.0021 30.5087 24.0121 30.4923 24.0227L30.2549 24.1536C29.6163 24.4971 28.9409 24.7674 28.2417 24.9592C28.4249 25.7406 28.651 26.7201 28.8735 27.6884H54.7518V23.9199H31.7896C32.2288 24.6022 32.47 24.9891 32.47 24.9891C32.47 24.9891 32.4775 25.0004 32.4812 25.0191C32.4905 25.0527 32.4924 25.12 32.412 25.191Z" fill="#3B4095"/>
<path d="M21.3851 23.0469C22.1702 21.6468 22.6619 19.8055 22.8151 19.2803C22.389 19.4616 20.7515 20.1252 19.2486 21.3589L18.5008 21.972L18.4952 21.9776C19.0635 22.6244 19.7196 23.1908 20.443 23.6656C20.5739 23.7516 20.7589 23.8357 20.8954 23.9161L21.3851 23.0469ZM24.376 24.0843C24.6003 22.4992 24.3853 20.6112 24.3367 20.0616C23.9984 20.3925 22.7179 21.6038 21.7721 23.2917L21.2618 24.1946C22.1721 24.675 23.1684 25.0134 24.2208 25.176L24.376 24.0843ZM27.7968 25.0638L27.5407 23.9647C27.1743 22.4094 26.2901 20.7308 26.0453 20.2317C25.8509 20.6635 25.0975 22.2562 24.8284 24.1684L24.6807 25.2339C25.7217 25.3477 26.7743 25.2902 27.7968 25.0638ZM30.2549 24.1516C30.3522 24.1006 30.4482 24.047 30.5428 23.9909C30.7764 23.8525 30.9409 23.7404 31.0325 23.6787L31.0493 23.6675L31.0755 23.6488C30.8678 23.3328 30.6572 23.0187 30.4437 22.7067C29.5371 21.3907 28.1033 20.1476 27.694 19.7738C27.6697 20.2523 27.5482 22.0057 27.9912 23.8824L28.2417 24.9573C28.9143 24.7693 29.5658 24.5125 30.1857 24.1909L30.2549 24.1516Z" fill="#CF4037"/>
<path d="M39.5172 10.562C40.1904 9.11553 41.2645 7.89258 42.6121 7.03838C43.9597 6.18418 45.5241 5.7346 47.1195 5.743C52.4227 5.74301 55.9332 9.46475 55.578 15.7418H43.6352C43.6371 17.312 45.454 18.5046 47.2691 18.5195C48.1701 18.527 49.458 18.2205 50.0636 17.7457H55.2303C53.3106 21.6562 49.9365 22.5834 47.0298 22.6114C44.6932 22.632 41.1435 21.1795 39.5172 18.1139V19.9009C39.5172 22.0394 37.375 22.157 37.3712 22.1572H34.2869V19.7682C33.6271 21.1659 32.6395 22.3837 31.4082 23.318L31.1017 22.86L30.8325 22.4656C29.7352 20.8749 29.2118 19.1906 29.0623 18.742C29.5763 18.9401 30.5353 19.0112 31.8587 19.9084C33.0196 20.6954 33.1766 20.8113 33.1784 20.8188C33.2102 20.8318 33.285 20.843 33.3635 20.7552L33.4495 20.6318C33.5224 20.4898 33.4289 20.4225 33.4289 20.4225C33.4289 20.4225 33.7074 20.6075 32.1354 19.542C30.5334 18.4579 30.2642 17.6466 29.9651 17.2858C30.5166 17.284 32.4176 17.2297 33.9766 17.5849C35.8291 18.0055 37.1488 18.3382 37.1488 18.3382C37.1501 18.3385 37.2613 18.3635 37.317 18.2149L37.3525 18.0672C37.3694 17.9083 37.2572 17.8803 37.2572 17.8803C37.2551 17.8797 35.951 17.564 34.1 17.1419C32.2045 16.7119 30.6755 15.8334 30.2736 15.6053C30.7764 15.4053 32.5354 14.6539 34.1262 14.4165C36.0048 14.138 41.6351 13.351 41.6351 13.351C41.6355 13.3509 41.7491 13.332 41.7472 13.1734L41.7267 13.022C41.6837 12.8687 41.5696 12.8837 41.5696 12.8837C41.5654 12.8843 35.9592 13.6838 34.0794 13.9622C32.1522 14.2501 30.4007 13.9791 29.9483 13.9174C30.3427 13.551 31.7148 12.2182 33.113 11.4181L33.8738 10.9882L33.9504 10.9471C34.0723 11.1581 34.1858 11.3739 34.2907 11.5939V10.7564C35.8665 9.87413 37.6759 8.88527 37.6759 8.88527C37.6765 8.88486 37.7134 8.86053 37.7283 8.80864C37.7372 8.76515 37.732 8.71994 37.7133 8.67966L37.6404 8.54694C37.5769 8.46282 37.5133 8.4572 37.4759 8.46468C37.4556 8.46838 37.4426 8.4739 37.4423 8.47402C37.4423 8.47402 35.8029 9.38063 34.2888 10.2312V5.07194L35.5431 3.5466C35.5437 3.54579 35.6136 3.45636 35.5038 3.34099L35.386 3.24191C35.2519 3.15805 35.1771 3.24513 35.1767 3.24565L34.4626 4.12048L34.2869 4.33357V3.12041C34.2869 3.12041 34.1486 0.677261 36.5394 0.318359H39.5172V10.562ZM9.53951 1.04925C9.85545 1.04925 17.6316 0.858602 19.1532 8.66657C19.1548 8.67796 19.1573 8.68921 19.1607 8.70021C19.8008 8.10336 20.5197 7.59705 21.2973 7.19543C21.4195 7.46203 21.5429 7.72811 21.6674 7.99363C22.2323 9.23044 22.6435 10.5318 22.8918 11.8686C22.4263 11.5677 20.8356 10.5657 19.7233 9.42175C18.4008 8.05997 14.1214 3.58639 14.1155 3.58026C14.1155 3.58026 14.0333 3.49801 13.9061 3.59334L13.794 3.69801C13.6952 3.82099 13.7711 3.90497 13.7716 3.9055C13.7716 3.9055 18.0541 8.36188 19.3794 9.72458C20.7515 11.1378 21.5627 12.7341 21.7627 13.1136V13.1173C21.258 13.0145 19.357 12.6706 17.8765 11.9958C16.1493 11.2069 15.3791 10.8106 15.3791 10.8106C15.3787 10.8105 15.2724 10.7642 15.1885 10.8985L15.123 11.035C15.0745 11.188 15.1789 11.2367 15.1791 11.2368C15.1791 11.2368 15.9399 11.6125 17.669 12.4014C19.4579 13.2164 20.7888 14.4053 21.1178 14.6913C20.6038 14.781 18.7139 15.153 17.0933 15.0614C15.196 14.9548 14.9118 14.966 14.9118 14.966C14.9106 14.966 14.7976 14.9631 14.7679 15.1175L14.7567 15.2689C14.766 15.4278 14.8819 15.4371 14.8819 15.4371C14.8834 15.4369 15.1545 15.4094 17.0465 15.5156C18.9999 15.6259 20.6673 16.2484 21.0879 16.3979C20.6337 16.6727 19.0149 17.7008 17.4765 18.2036C15.6689 18.7925 12.1584 19.9103 12.1584 19.9103C12.1571 19.9107 12.0483 19.9486 12.078 20.1047L12.1228 20.2505C12.1901 20.3944 12.3023 20.3608 12.3023 20.3608C12.3056 20.3597 15.7912 19.2352 17.598 18.6467C19.4542 18.0391 21.2262 18.0149 21.6805 18.0018C21.3533 18.428 20.2224 19.972 18.9756 20.9945L18.2167 21.6151C18.2126 21.6204 18.2076 21.6248 18.2018 21.6282C17.6092 20.8861 17.1232 20.0505 16.7718 19.1495C13.9194 22.1251 9.77916 22.0787 9.77318 22.0786H0.965118V1.04925H9.53951ZM6.09255 6.21782V16.8783H9.59746C9.59746 16.8783 14.5043 16.6447 14.5043 11.4462C14.5043 6.42157 9.42174 6.21782 9.42174 6.21782H6.09255ZM31.668 8.26841C32.467 8.9162 33.1569 9.68806 33.7112 10.5545L33.6719 10.577L32.9037 11.0125C31.2026 11.9845 29.466 12.3715 29.0324 12.4743C29.2604 11.9995 30.0605 10.2536 31.0774 8.9937L31.5559 8.40487L31.668 8.26841ZM47.1438 10.0872C45.5662 10.076 43.8689 10.977 43.6352 12.1322H50.516C50.2823 10.9845 48.8337 10.1003 47.1438 10.0872ZM28.5819 6.59541C29.559 6.90947 30.4787 7.37978 31.3054 7.98803L31.1746 8.14878L30.7353 8.69086C29.5016 10.2199 28.0174 11.2125 27.6585 11.4611C27.7014 10.9415 27.8117 9.01612 28.3015 7.4721L28.5819 6.59541ZM24.6508 6.20285L24.705 7.0702C24.8302 9.04042 24.4115 10.7789 24.3162 11.1976C23.9984 10.792 22.7759 9.29465 22.0899 7.81979L21.7085 6.99731C22.6391 6.57144 23.6329 6.29995 24.6508 6.19351V6.20285ZM25.2901 6.15051C26.2521 6.11274 27.2143 6.21987 28.1445 6.46829L27.8734 7.31509C27.2771 9.19184 26.2546 10.6611 26.0116 11.0163L25.9789 10.9084C25.7913 10.2939 25.2611 8.58386 25.163 7.06274L25.1088 6.15799H25.1144L25.2901 6.15051Z" fill="#CF4037"/>
<path d="M55.4528 21.2861C55.9411 21.2861 56.337 21.682 56.337 22.1703C56.337 22.6586 55.9411 23.0545 55.4528 23.0545C54.9645 23.0545 54.5686 22.6586 54.5686 22.1703C54.5686 21.682 54.9645 21.2861 55.4528 21.2861ZM55.4528 21.4974C55.0677 21.4974 54.8004 21.7759 54.8004 22.1703C54.8004 22.5666 55.0677 22.8451 55.4528 22.8451C55.8322 22.847 56.1052 22.5666 56.1052 22.1703C56.1052 21.7759 55.8322 21.4974 55.4528 21.4974ZM55.5519 21.6974C55.8023 21.6974 55.9238 21.7647 55.9238 21.989C55.9238 22.1666 55.8304 22.2357 55.6621 22.2488L55.8921 22.6526H55.6603L55.449 22.2488H55.2901V22.6526H55.0901V21.6974H55.5519ZM55.507 21.8451H55.2902V22.1068H55.5537C55.6603 22.1086 55.735 22.0843 55.735 21.9647C55.735 21.8357 55.5986 21.8451 55.507 21.8451Z" fill="#3B4095"/>
</svg>
