<svg width="70" height="26" viewBox="0 0 70 26" fill="none" xmlns="http://www.w3.org/2000/svg">
<path fill-rule="evenodd" clip-rule="evenodd" d="M59.2653 0.633132C62.1229 1.08065 64.7305 2.50375 66.611 4.63841C68.5383 6.82677 69.5979 9.66851 69.6001 12.6378C69.6001 14.5285 69.27 16.3097 68.6186 17.9364C67.9985 19.4848 67.104 20.8542 65.9619 22.0043C63.72 24.2598 60.867 25.5039 57.4808 25.5039C54.0946 25.5039 51.0117 24.2799 48.7967 22.058C46.4544 19.7108 45.2186 16.4551 45.2186 12.6378C45.2186 9.72668 46.1979 6.93194 47.9802 4.76595C48.8747 3.67849 49.941 2.7745 51.1567 2.07414C52.4149 1.34916 53.7979 0.865841 55.2679 0.633132L55.2858 0.630895C56.5283 0.463076 57.7819 0.460838 59.2341 0.628657L59.2653 0.633132ZM65.5269 21.5747C66.611 20.4805 67.4609 19.1805 68.0498 17.7104C68.6722 16.1575 68.9889 14.4502 68.9889 12.64C68.9889 9.81843 67.9829 7.1199 66.1559 5.04565C64.3692 3.01616 61.8886 1.66466 59.1716 1.23952H59.1649C57.7462 1.07617 56.5729 1.07617 55.3638 1.23952C52.5866 1.67809 50.1975 3.03182 48.4509 5.15529C46.76 7.21164 45.8298 9.86989 45.8298 12.64C45.8298 16.2895 47.0054 19.3975 49.2272 21.6284C51.3263 23.7362 54.2574 24.8953 57.4785 24.8953C60.5435 24.8953 63.401 23.7161 65.5269 21.5747ZM41.8898 1.90186C42.3047 0.885991 43.4223 0.418336 44.5042 0.809913C45.4455 1.15226 46.1817 2.14575 45.769 3.38314L45.7534 3.43236L35.5033 24.2442C35.1152 24.9669 34.4058 25.4099 33.6451 25.4099H33.605C32.8265 25.3943 32.155 24.9221 31.7624 24.1144L21.3986 3.46817L21.3897 3.45027C20.9302 2.40755 21.3719 1.29994 22.4359 0.816626C23.3839 0.38701 24.6956 0.586155 25.2689 1.80564L33.5448 18.3436C33.6028 18.46 33.7656 18.46 33.8236 18.3436L41.8898 1.90186ZM45.1801 3.21084L45.189 3.19071C45.4924 2.28225 44.9392 1.61992 44.2967 1.38274C43.623 1.13884 42.7709 1.32232 42.4452 2.14799L33.8258 19.7153C33.7701 19.8294 33.605 19.8316 33.547 19.7153L24.7179 2.07415C24.5283 1.66467 24.2093 1.38721 23.8011 1.27309C23.4486 1.17464 23.0426 1.21044 22.6857 1.37379C22.3489 1.52818 22.0812 1.78103 21.9384 2.0831C21.7734 2.42993 21.7778 2.81703 21.9474 3.20413L21.9496 3.20861L32.3023 23.8436C32.5923 24.4411 33.0696 24.7901 33.6139 24.8013H33.6429C34.1783 24.8013 34.6824 24.4791 34.9635 23.9555L45.1801 3.21084ZM17.764 21.2234H4.73453C4.61853 21.2234 4.52262 21.1294 4.52262 21.0108V15.249C4.52262 15.1371 4.61184 15.0476 4.72338 15.0476H17.0881C17.6503 15.0476 18.1477 14.8306 18.489 14.4345C18.7835 14.0922 18.9463 13.6402 18.9463 13.1591C18.9463 12.2238 18.2949 11.2281 17.0859 11.2281H4.72561C4.61407 11.2281 4.52485 11.1386 4.52485 11.0267V4.97848C4.52485 4.86212 4.61853 4.76591 4.73676 4.76591H17.7663C19.011 4.76591 19.6847 3.76571 19.6847 2.82592C19.6847 2.3426 19.5174 1.89061 19.214 1.54826C18.8682 1.16116 18.3663 0.946348 17.8042 0.946348H2.83175C2.16031 0.946348 1.5491 1.18801 1.10519 1.62657C0.670205 2.05395 0.431519 2.63125 0.431519 3.24882V22.7785C0.431519 24.1098 1.4621 25.1145 2.83175 25.1145H17.7618C18.5158 25.1145 18.9753 24.7968 19.2274 24.5283C19.5508 24.1859 19.7293 23.725 19.7293 23.226C19.7315 22.2437 18.9954 21.2234 17.764 21.2234ZM18.7879 24.1076C18.5425 24.3672 18.1901 24.5014 17.764 24.5014H2.83175C1.79447 24.5014 1.0405 23.7764 1.0405 22.7762V3.24882C1.0405 2.28666 1.81009 1.55945 2.83175 1.55945H17.7975C18.1901 1.55945 18.5225 1.69594 18.7522 1.95774C18.9575 2.18597 19.069 2.49476 19.069 2.82816C19.069 3.48825 18.6206 4.15728 17.7618 4.15728H4.12555C4.00955 4.15728 3.91364 4.25126 3.91364 4.36986V11.6554C3.91364 11.7584 3.99617 11.8412 4.10102 11.8412H17.0904C17.4718 11.8412 17.7953 11.9866 18.0273 12.2618C18.2302 12.5035 18.3395 12.8212 18.3395 13.1613C18.3395 13.7767 17.9492 14.4368 17.0904 14.4368H4.09878C3.99617 14.4368 3.91141 14.5195 3.91141 14.6225V21.6239C3.91141 21.7402 4.00509 21.8365 4.12332 21.8365H17.7618C18.1611 21.8365 18.518 21.9931 18.7701 22.2795C18.9931 22.5346 19.1203 22.8792 19.1203 23.2282C19.1203 23.5773 19.0021 23.8794 18.7879 24.1076ZM17.9729 23.2283C17.9729 23.282 17.9573 23.3111 17.9528 23.3156C17.9439 23.3245 17.8882 23.3514 17.7632 23.3514H2.83096C2.35805 23.3514 2.18852 23.056 2.18852 22.7786V3.24892C2.18852 2.98265 2.38705 2.7119 2.83096 2.7119H17.7967C17.9038 2.7119 17.9216 2.72085 17.9216 2.82826C17.9216 3.00502 17.8279 3.00502 17.761 3.00502H2.98488C2.86442 3.00502 2.76627 3.10348 2.76627 3.22655V12.7743C2.76627 12.8974 2.86442 12.9958 2.98488 12.9958H17.0896C17.132 12.9958 17.19 12.9958 17.19 13.1637C17.19 13.289 17.1676 13.289 17.0896 13.289H2.98488C2.86442 13.289 2.76627 13.3874 2.76627 13.5083V22.7719C2.76627 22.8927 2.86442 22.9911 2.98488 22.9911H17.7632C17.9439 22.9867 17.9707 23.1388 17.9729 23.2283ZM3.75588 22.2168H17.7647C18.4004 22.2168 18.7439 22.7382 18.7417 23.226C18.7417 23.4677 18.6592 23.6892 18.5097 23.8458C18.3402 24.0248 18.0814 24.121 17.7624 24.121H2.83237C2.01371 24.121 1.42034 23.5549 1.42034 22.7762V3.24658C1.42034 2.50147 2.02709 1.9376 2.83237 1.9376H17.8003C18.0836 1.9376 18.3179 2.03158 18.474 2.20834C18.6168 2.36721 18.6949 2.5865 18.6949 2.82592C18.6949 3.28462 18.4026 3.77465 17.7647 3.77465H3.75588C3.63319 3.77465 3.53504 3.87311 3.53504 3.99618V11.9978C3.53504 12.1209 3.63319 12.2193 3.75588 12.2193H17.091C17.5104 12.2193 17.961 12.5147 17.961 13.1591C17.961 13.6044 17.6933 14.0541 17.091 14.0541H3.75588C3.63319 14.0541 3.53504 14.1548 3.53504 14.2756V21.9953C3.53504 22.1184 3.63319 22.2168 3.75588 22.2168ZM18.2554 23.6377L18.2733 23.6198C18.3625 23.5236 18.4138 23.3849 18.4138 23.226C18.4138 22.9888 18.2777 22.5435 17.7647 22.5435H3.35659C3.27405 22.5435 3.20713 22.4764 3.20713 22.3936V13.8237C3.20713 13.7677 3.24951 13.723 3.30528 13.723H17.091C17.5907 13.723 17.6308 13.2889 17.6308 13.1569C17.6308 12.7944 17.4144 12.5482 17.091 12.5482H3.30528C3.25174 12.5482 3.20713 12.5057 3.20713 12.4498V3.59341C3.20713 3.51062 3.27405 3.44349 3.35659 3.44349H17.7647C18.1216 3.44349 18.3625 3.19512 18.3625 2.82592C18.3625 2.69614 18.3223 2.26876 17.7981 2.26876H2.83237C2.29477 2.26876 1.75048 2.60663 1.75048 3.24882V22.7762C1.75048 23.4744 2.31039 23.7921 2.83237 23.7921H17.7647C17.981 23.7921 18.1439 23.7406 18.2532 23.6377H18.2554ZM44.1162 2.77003C44.1154 2.77176 44.1149 2.77382 44.1143 2.77608C44.1134 2.77969 44.1123 2.78381 44.1096 2.78793L33.9487 23.423C33.8729 23.5594 33.748 23.6534 33.6409 23.6534C33.4981 23.6489 33.3732 23.414 33.3375 23.3402L22.9916 2.72751C22.9536 2.6313 22.9336 2.53284 23.1611 2.42768C23.2057 2.40754 23.2949 2.37174 23.3908 2.37174C23.5247 2.37174 23.6184 2.43663 23.6808 2.56865L33.5182 22.2303C33.5517 22.2974 33.6208 22.34 33.6967 22.34C33.7725 22.34 33.8417 22.2974 33.8751 22.2281L43.4961 2.62011L43.514 2.57536C43.5497 2.47914 43.621 2.43439 43.7281 2.43439C43.7973 2.43439 43.8619 2.45229 43.9066 2.46795C44.1319 2.55075 44.1408 2.66262 44.1162 2.77003ZM44.1682 1.743C44.0143 1.68706 43.8626 1.65798 43.7198 1.65798C43.2202 1.65798 42.9146 1.9869 42.7963 2.29345L42.7896 2.30911L33.8847 20.4604C33.849 20.5365 33.7732 20.5835 33.6906 20.5835C33.6081 20.5835 33.5345 20.5365 33.4966 20.4649L24.3797 2.24422C24.1945 1.84593 23.8153 1.59756 23.387 1.59756C23.2086 1.59756 23.0257 1.64008 22.845 1.72287C22.3743 1.93544 22.0241 2.42994 22.294 3.04752L32.6489 23.6736C32.8787 24.1457 33.2244 24.412 33.6259 24.4187L33.6482 24.4209C34.0364 24.4209 34.4223 24.1681 34.632 23.7765L44.8352 3.05647C44.9869 2.57986 44.8419 1.9869 44.1682 1.743ZM44.534 2.91326L44.5296 2.92893L44.5273 2.9334L44.5251 2.93788L44.5184 2.9513L34.3375 23.6266V23.6288L34.3331 23.6333C34.1791 23.9108 33.907 24.092 33.6393 24.092H33.6304C33.3582 24.0853 33.1129 23.8884 32.9411 23.5349L22.5884 2.90879V2.90655L22.5862 2.8976C22.4368 2.53735 22.5862 2.20171 22.9788 2.02494C23.0547 1.99138 23.2086 1.9332 23.396 1.9332C23.6123 1.9332 23.9046 2.00928 24.0763 2.37848L33.6081 21.4271C33.6259 21.4606 33.6572 21.4785 33.6929 21.4785C33.7285 21.4785 33.762 21.4584 33.7776 21.4248L43.0952 2.43666L43.1019 2.41652C43.209 2.14353 43.4276 1.99361 43.7221 1.99361C43.8314 1.99361 43.9451 2.01375 44.0522 2.05403C44.4604 2.20171 44.6389 2.52168 44.534 2.91326ZM59.0123 2.3784C61.4594 2.7655 63.6901 3.98275 65.2939 5.80639C66.9603 7.69938 67.8391 10.0623 67.8436 12.64C67.8436 14.3025 67.5558 15.8643 66.9893 17.2807C66.4583 18.6099 65.6932 19.7801 64.7162 20.7624C62.8067 22.6845 60.2392 23.7429 57.482 23.7429C54.5665 23.7429 51.9231 22.7024 50.0404 20.8139C48.0373 18.8045 46.9777 15.9785 46.9777 12.64C46.9777 10.1384 47.8142 7.73966 49.3355 5.88694C50.8992 3.98499 53.0407 2.76998 55.5279 2.37616C56.0811 2.30232 56.6187 2.26652 57.1876 2.26652C57.7564 2.26652 58.3542 2.30456 59.0123 2.3784ZM57.4798 23.273C60.1432 23.273 62.5836 22.2683 64.3459 20.4447C66.2085 18.5204 67.1922 15.8576 67.1945 12.7451C67.1945 10.2614 66.407 7.98803 64.9147 6.17782C63.438 4.38328 61.3322 3.18393 58.9855 2.80131L58.9565 2.79683C58.3855 2.72075 57.8189 2.68271 57.2567 2.68271C56.6946 2.68271 56.1391 2.72299 55.6015 2.79907L55.5882 2.80131C50.7721 3.55985 47.6603 7.46444 47.6603 12.7474C47.6603 15.8218 48.6328 18.4644 50.4754 20.3887C52.2555 22.2482 54.8163 23.273 57.4798 23.273ZM64.0054 6.92966C62.6937 5.33426 60.8913 4.30944 58.7967 3.96709C58.2836 3.89773 57.7661 3.86417 57.2597 3.86417C56.7534 3.86417 56.2515 3.89773 55.7674 3.96709C53.704 4.29378 51.9618 5.28056 50.735 6.82225C49.4947 8.37738 48.8389 10.427 48.8389 12.7474C48.8389 15.5108 49.6977 17.8692 51.3239 19.5698C52.8809 21.1965 55.0647 22.0915 57.4784 22.0915C59.892 22.0915 61.9598 21.2144 63.499 19.6235C65.143 17.9229 66.013 15.5466 66.013 12.7474C66.0152 10.5389 65.3193 8.5273 64.0054 6.92966ZM63.1064 19.2386C61.6698 20.7221 59.6734 21.5389 57.4784 21.5389C55.2833 21.5389 53.1709 20.7042 51.7209 19.1872C50.1951 17.5918 49.3876 15.3631 49.3876 12.7451C49.3876 10.5523 50.0011 8.62127 51.1633 7.1646C52.3031 5.73479 53.9226 4.81738 55.8499 4.51307C56.3072 4.44818 56.7779 4.41461 57.2553 4.41461C57.7326 4.41461 58.2256 4.44818 58.7164 4.51307C60.6749 4.83528 62.3547 5.79296 63.5815 7.28096C64.8129 8.7779 65.4642 10.6687 65.4642 12.7451C65.4665 15.3967 64.65 17.641 63.1064 19.2386ZM65.8958 5.27607C64.1625 3.30924 61.7578 1.99801 59.1212 1.58629C58.4207 1.50574 57.7894 1.4677 57.1872 1.4677C56.5849 1.4677 56.0071 1.50798 55.4137 1.58629C52.7258 2.0092 50.4125 3.32266 48.7217 5.379C47.0821 7.37269 46.1809 9.95263 46.1809 12.64C46.1809 16.1955 47.3208 19.2185 49.4779 21.38C51.51 23.4207 54.3542 24.5439 57.4838 24.5439C60.6135 24.5439 63.2256 23.4028 65.2846 21.3263C66.3375 20.2657 67.1606 19.0037 67.7294 17.5783C68.3362 16.068 68.6418 14.4054 68.6418 12.6377C68.6418 9.9034 67.6647 7.28766 65.8958 5.27607ZM67.368 17.4351C66.8148 18.8135 66.0207 20.0307 65.0057 21.0533C63.0204 23.0537 60.348 24.1546 57.4816 24.1546C54.4568 24.1546 51.713 23.0716 49.7522 21.1048C47.671 19.0171 46.569 16.0881 46.569 12.64C46.569 10.0421 47.439 7.5517 49.0206 5.62738C50.649 3.64711 52.8774 2.38287 55.4695 1.9734C56.045 1.89508 56.6072 1.85928 57.1894 1.85928C57.7716 1.85928 58.3828 1.89508 59.0632 1.9734L59.0721 1.97563C61.6129 2.3784 63.9328 3.64264 65.6013 5.53787C67.3346 7.50471 68.2492 9.95934 68.2492 12.64C68.2492 14.3562 67.9525 15.9695 67.368 17.4351ZM58.921 3.2064C61.1673 3.57337 63.1838 4.72349 64.5981 6.43971C66.028 8.17832 66.782 10.3577 66.782 12.7452C66.782 15.7481 65.8384 18.3101 64.0516 20.1584C62.3652 21.9014 60.101 22.8614 57.4777 22.8614C54.8544 22.8614 52.4698 21.8813 50.77 20.1024C49.0033 18.2564 48.0686 15.7123 48.0686 12.7452C48.0686 7.6771 51.0444 3.93138 55.6508 3.2064L55.6597 3.20417C56.1795 3.13033 56.7193 3.09229 57.2591 3.09229C57.7989 3.09229 58.3522 3.13033 58.9009 3.20193L58.921 3.2064ZM57.48 22.4698C59.927 22.4698 62.1622 21.5546 63.7727 19.8876C65.4859 18.1132 66.3938 15.6451 66.3916 12.7452C66.3916 10.4495 65.6688 8.35509 64.297 6.68809C62.9251 5.01885 61.0424 3.94704 58.8518 3.59127C58.3165 3.51743 57.7833 3.48163 57.2591 3.48163C56.7349 3.48163 56.2151 3.51967 55.711 3.59127C53.5495 3.93362 51.727 4.96738 50.4376 6.58292C49.1438 8.20741 48.459 10.3376 48.459 12.7452C48.459 15.6093 49.358 18.0595 51.0533 19.8317C52.6795 21.5322 55.0329 22.4698 57.48 22.4698Z" fill="#231F20"/>
<path d="M67.4758 24.3041C67.4758 24.1542 67.5048 24.0155 67.5606 23.8857C67.6163 23.7559 67.6944 23.6418 67.7925 23.5433C67.8907 23.4449 68.0045 23.3688 68.1338 23.3106C68.2632 23.2524 68.4038 23.2256 68.551 23.2256C68.6982 23.2256 68.8387 23.2547 68.9681 23.3106C69.0975 23.3666 69.2113 23.4449 69.3094 23.5433C69.4076 23.6418 69.4834 23.7559 69.5414 23.8857C69.5994 24.0155 69.6262 24.1564 69.6262 24.3041C69.6262 24.4518 69.5972 24.5928 69.5414 24.7225C69.4834 24.8523 69.4076 24.9664 69.3094 25.0649C69.2113 25.1633 69.0975 25.2394 68.9681 25.2976C68.8387 25.3558 68.6982 25.3826 68.551 25.3826C68.4038 25.3826 68.2632 25.3535 68.1338 25.2976C68.0045 25.2394 67.8907 25.1633 67.7925 25.0649C67.6944 24.9664 67.6185 24.8523 67.5606 24.7225C67.5048 24.5928 67.4758 24.454 67.4758 24.3041ZM67.7725 24.3041C67.7725 24.416 67.7925 24.5234 67.8327 24.6218C67.8728 24.7203 67.9286 24.8076 68 24.8814C68.0714 24.9552 68.1539 25.0134 68.2476 25.0559C68.3413 25.0984 68.4439 25.1208 68.551 25.1208C68.6581 25.1208 68.7607 25.0984 68.8544 25.0559C68.948 25.0134 69.0306 24.953 69.102 24.8814C69.1733 24.8076 69.2291 24.7203 69.2693 24.6218C69.3094 24.5234 69.3295 24.416 69.3295 24.3041C69.3295 24.1922 69.3094 24.0871 69.2693 23.9864C69.2291 23.8879 69.1733 23.8006 69.102 23.7268C69.0306 23.653 68.948 23.5948 68.8544 23.5523C68.7607 23.5098 68.6581 23.4874 68.551 23.4874C68.4439 23.4874 68.3413 23.5098 68.2476 23.5523C68.1539 23.5948 68.0714 23.6552 68 23.7268C67.9286 23.8006 67.8728 23.8879 67.8327 23.9864C67.7925 24.0848 67.7725 24.1922 67.7725 24.3041ZM68.1383 23.7268H68.5376C68.5688 23.7268 68.6112 23.729 68.6647 23.7335C68.7183 23.738 68.7718 23.7514 68.8231 23.7738C68.8744 23.7962 68.9213 23.8342 68.9592 23.8834C68.9971 23.9327 69.0172 24.002 69.0172 24.0938C69.0172 24.1519 69.0083 24.1989 68.9949 24.237C68.9793 24.275 68.9592 24.3063 68.9347 24.331C68.9101 24.3556 68.8834 24.3735 68.8499 24.3869C68.8187 24.4003 68.7852 24.407 68.754 24.4115L69.044 24.8613H68.7406L68.4841 24.4272H68.435V24.8613H68.1405L68.1383 23.7268ZM68.4305 24.1967H68.5488C68.5666 24.1967 68.5844 24.1967 68.6045 24.1945C68.6246 24.1922 68.6447 24.1877 68.6603 24.1788C68.6781 24.1721 68.6915 24.1587 68.7027 24.143C68.7138 24.1273 68.7205 24.1027 68.7205 24.0736C68.7205 24.0445 68.7138 24.0222 68.7027 24.0043C68.6915 23.9886 68.6759 23.9752 68.6603 23.9685C68.6424 23.9618 68.6246 23.955 68.6045 23.9528C68.5844 23.9506 68.5644 23.9506 68.5488 23.9506H68.4305V24.1967Z" fill="#231F20"/>
<path d="M57.942 10.7168L54.9641 12.442L57.942 14.1672V10.7168Z" fill="#3EA6C3"/>
<path d="M59.2632 9.95215L57.9426 10.7174V14.1678L59.2632 14.933L63.5773 12.4426L59.2632 9.95215Z" fill="#E47B4B"/>
<path d="M53.6262 6.68359V11.6756L54.9646 12.4409L57.9426 10.7157V9.18298L53.6262 6.68359Z" fill="#AECB57"/>
<path d="M57.9426 9.18359V10.7163L59.2632 9.95109L57.9426 9.18359Z" fill="#CEC53A"/>
<path d="M54.9646 12.4424L53.6262 13.2188V18.1997L57.9426 15.7093V14.1676L54.9646 12.4424Z" fill="#009BBA"/>
<path d="M57.9426 14.167V15.7087L59.2632 14.9322L57.9426 14.167Z" fill="#3A7186"/>
<path d="M53.6262 11.6768V13.2185L54.9646 12.442L53.6262 11.6768Z" fill="#69A98F"/>
</svg>
