<svg fill="none" height="35" viewBox="0 0 231 35" width="231" xmlns="http://www.w3.org/2000/svg"><path clip-rule="evenodd" d="m180.207 28.2118c3.019 0 3.882-2.1986 3.882-4.8361v-10.9962h7.325v11.8778c0 6.7407-4.314 9.6757-11.207 9.6757-6.896 0-11.638-3.0801-11.638-9.6757v-10.8511l-1.292 6.0115c-.859-.2939-1.295-.4426-2.155-.4426-3.446 0-5.169 2.1985-5.169 5.5725v8.3587h-7.325v-8.0649c-1.295 5.7176-5.605 9.0916-12.502 9.0916-7.325 0-12.066-4.1068-12.066-11.2901v-.0001c0-1.1754 0-2.3472.431-3.3739h-9.055v13.6374h-8.613v-32.255909h19.392v7.183299h-10.779v4.54581h9.919v4.397c2.151-3.5191 6.029-5.5688 10.771-5.5688 6.897 0 11.207 3.3703 12.502 9.2367v-8.0649h7.325l.428 3.5191c1.295-2.6412 3.454-3.5191 6.896-3.5191h9.052v10.9962c0 2.6375.86 4.8361 3.878 4.8361zm-44.387-5.5689c0 2.7862 1.723 5.2786 4.306 5.2786 3.018 0 4.742-2.4924 4.742-5.2786 0-2.7863-1.724-5.4238-4.742-5.4238-2.583 0-4.306 2.6375-4.306 5.4238zm79.296-7.332c1.723-2.6375 3.878-4.1032 7.76-4.1032 4.307 0 7.76 2.1985 7.76 6.5956v15.103h-7.328v-12.168c0-2.2022-1.295-3.374-3.45-3.374-2.587 0-4.31 1.3169-4.31 4.836v10.706h-7.76v-12.168c0-2.2022-.86-3.374-3.443-3.374-2.159 0-3.882 1.3169-3.882 4.836v10.706h-7.76v-20.5268h7.76v2.1985c1.723-2.4923 3.882-3.3703 6.9-3.3703 3.443 0 6.462 1.3169 7.753 4.1032z" fill="#00a0de" fill-rule="evenodd"/><path clip-rule="evenodd" d="m65.1387.650391v32.255909h18.0997 9.4817l4.3063-4.9848 4.3136 4.9848h9.483l-9.055-10.2634 9.055-10.2634h-9.483l-4.3136 4.5458-4.3063-4.5458h-9.4834-10.3451v-4.54581h10.3468v-7.183299zm18.0997 11.731009v6.8875h-10.3468v6.4505h10.3468v7.1849l9.0536-10.2614z" fill="#f47920" fill-rule="evenodd"/><path d="m57.3761.650391v13.194809c-1.7233-1.9047-3.8783-2.6375-6.4614-2.6375-4.7417 0-8.6236 3.3703-9.9115 7.9161-1.7232-4.9848-5.6015-7.9161-11.2067-7.9161-4.7417 0-8.1882 2.0497-10.3432 5.4237v-4.2519h-9.91147v-4.54581h10.77137v-7.183299h-19.391325v32.255909h8.619955v-13.6374h9.04807c-.4318 1.0267-.4317 2.0534-.4317 3.2253 0 6.7443 5.1734 11.4388 11.6383 11.4388 5.6052 0 9.0481-2.6411 11.2067-7.332h-7.3248c-1.2988 1.4656-1.7232 1.9046-3.8819 1.9046-2.1549 0-4.3136-2.0498-4.3136-4.397h15.085c.8634 5.2786 4.7417 9.9695 10.7785 9.9695 2.1514 0 4.7418-1.3206 6.0297-3.2252v2.0534h7.7601v-32.255909zm-31.4578 18.767309c.4317-2.0534 1.7233-3.374 3.8782-3.374 2.1587 0 3.8819 1.3206 4.3064 3.374zm26.7161 8.5038c-2.5831 0-4.3064-2.4924-4.3064-5.2786 0-2.9314 1.2952-5.5725 4.3064-5.5725 3.4537 0 4.7417 2.6411 4.7417 5.5725 0 2.7862-1.288 5.2786-4.7417 5.2786z" fill="#44328c"/></svg>