<svg fill="none" height="57" viewBox="0 0 64 57" width="64" xmlns="http://www.w3.org/2000/svg"><path d="m57.1989 13.1743c.7162-1.3581 1.062-2.7168 1.062-4.0258 0-2.96387-1.6548-5.60602-3.9762-7.18668-3.2355-2.198102-8.0758-2.494296-11.5087 1.60522-5.0137-.6916-9.2119.69161-10.8171 1.35816-1.6053-.66704-5.804-2.02519-10.8172-1.35816-3.4334-4.099034-8.2987-3.80284-11.50915-1.60474-2.32139 1.58066-3.97622 4.22329-3.97622 7.18668 0 1.30902.3458 2.66722 1.06196 4.02582-2.59302 3.7292-4.37115 8.1745-4.37115 12.6945 0 5.4331 2.32139 8.224 3.18589 9.4344l.6916-.6916c2.46973 6.2484 6.66797 9.6318 11.75577 12.6944 0 0 .1233-.6174.2225-1.1607 5.4827 4.742 8.0758 3.5808 13.7564 10.0022 5.6557-6.3963 8.3474-5.3098 13.7564-10.0022.0988.5433.2226 1.1607.2226 1.1607 2.2722-1.3582 8.644-4.7911 11.7557-12.6944.3213.3212.6916.6916.6916.6916.5433-.7408 3.1859-3.7046 3.1859-9.4344.0246-4.5195-1.7781-8.9403-4.3711-12.6945" fill="#707271"/><path d="m55.6417 13.2735c5.2111-8.00162-6.6188-16.34948-12.3486-8.27374-5.804-1.0374-10.6693 1.08653-11.3358 1.38321-.642-.2962-5.5323-2.42013-11.3358-1.38321-5.7298-8.07574-17.55976.27163-12.34867 8.27374-5.95182 8.1744-5.33439 16.2256-2.59302 20.0044l1.13613-1.1362s1.62979 7.8783 10.17516 13.0398l.2961-1.7039c5.2603 5.631 10.0764 5.5072 14.6455 10.6442 4.5441-5.137 9.3602-5.0137 14.6455-10.6442l.2962 1.7039c8.5699-5.1615 10.1751-13.0398 10.1751-13.0398l1.1361 1.1362c2.8156-3.8033 3.4084-11.8545-2.5439-20.0044z" fill="#12173f"/><g fill="#5d76a9"><path d="m32.0073 43.2056s-4.1245.0742-4.7169.4445c0 0-.7162 1.2349 4.7169 1.2103 5.1615-.0245 4.3962-.9632 4.4454-1.1115 0 0-1.7536-.5433-4.4454-.5433z"/><path d="m28.451 38.4386s.642-1.8523 1.3336-1.2595c.9387.8149 2.1981 2.4698 2.1981 2.6427v2.2226l-1.5065.0742c-.8645.0246-3.6304.6916-3.6304.6916-3.8279-9.4589-1.704-16.6456-.6916-19.1895-3.7788.8149-4.3962-3.7292-4.3962-3.7292.3949-.0742.9632.0987 1.6298.3949 1.0123.4942 2.1981 1.3091 3.1613 2.0498.2716.2225.5433.42.7658.6174 2.5685 2.1736 4.6678 1.729 4.6678 1.729v9.2615c-.0245 0-7.5325-.5928-3.5317 4.495"/><path d="m35.4899 38.4394c4.7911-4.8653-3.013-4.5691-3.5071-4.4949.8149.0496 6.8659.0742 3.5071 4.4949z"/><path d="m38.6754 23.7447c4.2974 11.6075-1.1607 19.0663-1.1853 19.1154 3.3833-8.8661 1.2103-16.2507-.2716-18.9921-.7658.0742-1.6794.0246-1.6794.0246s1.1361-.7162 1.8768-1.3832c.0496-.0496.0988-.0988.1729-.1484.6175-.5432 1.8027-1.5065 3.2105-2.0743.5187-.1975 1.0865-.3458 1.6548-.42.0246 0-.3949 3.8279-3.7787 3.8775"/><path d="m45.4911 8.72722s1.7536-4.3962 7.1376-3.33423c0 0-4.9395-3.26007-8.3724 2.61806 0 0-4.9395-2.32139-12.2991.86451 0 0-6.915-2.42013-12.1757-1.06197 0 0-3.0626-5.30982-7.3842-3.13629-4.32199 2.1981-2.0743 7.2609-1.309 8.5699 0 0-7.16211 7.2854-4.47036 16.2998l1.43233-1.8027s2.04973 9.8048 7.35963 12.9165l.3212-2.4201s5.5323 6.668 12.052 9.5085c.6174.2962 4.0749 2.0007 4.1737 2.8401v-4.6678s-4.5195.3704-5.7048-1.704c-.8149-1.4077-6.0014-10.6692-3.433-20.3747 0 0-2.4943-.3704-2.9638-4.5937 0 0-1.8523-.9136-4.1737-.7162 0 0 4.1491-1.309 8.0266.1975s4.9149 5.3344 7.5571 3.6304l.7161-10.768.7903 10.768c2.6181 1.6794 3.6801-2.1239 7.5571-3.6304 3.8775-1.5065 8.0266-.1975 8.0266-.1975s-1.6548-1.1607-4.322-1.7039c-2.2227-.4446-5.4827.9878-5.4827.9878s.4445-3.0626 1.9264-4.6924c1.2595-1.3336 4.1246-1.6549 5.0137-4.39622zm-33.4641 3.72918c-.1484-1.4569 1.7039-2.91429 1.7039-2.91429-.7657-.79033-2.0993-.09873-2.0993-.09873 1.2103-2.371 3.9266-1.2103 3.9266-1.2103-1.0374-1.25943-3.2105-1.18526-3.2105-1.18526 2.6918-2.66719 5.9519 1.40777 5.9519 1.40777-2.9143.64199-6.2731 4.00081-6.2731 4.00081z"/></g><path d="m26.5242 22.3111c-.4199-.1233-1.1115.2962-1.4819 1.0374-1.2845-.3704-1.729-1.7536-1.6794-3.0872 1.0124.4942 2.2227 1.3091 3.1613 2.0498z" fill="#fb2"/><path d="m39.1699 23.3735c-.3949-.7904-1.1361-1.2103-1.5561-1.0124.6174-.5433 1.8027-1.5065 3.2105-2.0743.0741 1.3336-.395 2.7168-1.6549 3.0871" fill="#fb2"/></svg>