<svg width="43" height="30" viewBox="0 0 43 30" fill="none" xmlns="http://www.w3.org/2000/svg">
<path d="M37.9325 11.1387C38.1032 11.8791 38.2151 12.6416 38.2665 13.4209L37.1805 13.0039L36.3407 13.5078L35.4843 14.5322L35.2157 14.7334L34.5106 14.0615L33.8553 14.0791L33.1161 14.5654L32.8143 14.9854L32.2762 14.5996L31.37 14.667L30.8661 15.1367L30.58 15.4893L30.244 15.0029L29.7235 14.9854L29.1024 15.3379L28.6493 15.624L28.0946 15.5566L27.5067 15.708L27.1884 16.0771L26.6844 16.3125L26.0126 16.0439L25.5927 16.2285L25.1385 16.7656L25.0546 17.4043L24.4335 16.8838L23.6942 16.7998L22.452 17.2695L22.0155 17.79L20.9569 18.9658L20.537 20.7627L20.4706 22.1064L20.9071 22.8457L21.7635 23.1641L22.6532 22.6943L23.1073 22.0225L23.829 22.1396L25.038 21.9219L26.2469 21.502L26.6005 20.041L27.2216 18.0586L28.3973 18.4121L28.5819 18.6807L28.4979 20.0244L28.9677 20.6113L29.993 20.2764L30.6639 19.3018L31.202 19.8564L31.9237 19.9736L32.9149 19.5703L33.3007 20.1924L34.2753 20.8301L35.5175 20.7793L37.2635 19.748C35.1368 25.0302 29.965 28.7588 23.9218 28.7588C21.184 28.7587 18.6252 27.9933 16.4471 26.665L16.7753 24.5078L17.2626 23.0303L18.5389 22.4258L19.8153 21.6533L20.4872 20.4434L20.4032 19.6377L19.2606 20.1416L18.3202 20.6289L17.7323 20.7129L18.2196 19.1172L18.287 18.4121L19.6307 17.5723L21.9149 16.7656L23.913 16.4463L23.1571 15.3379L22.2001 15.0859L20.3192 15.5566L16.8759 17.085L15.1132 17.8574L14.0214 17.9922L13.8026 18.4287L14.5751 19.5029L15.5331 19.9229L15.1132 21.6699L14.5419 22.0732L13.4667 22.8291L13.538 24.3252C11.4493 22.1446 10.0409 19.3074 9.6532 16.1543L9.92371 15.6572L10.5282 16.8164L11.3339 19.957L13.0975 20.3936V18.4453L13.6014 14.8516L14.1385 15.3213L14.9784 16.2285L15.952 16.1777L16.8593 15.4219H17.5145L19.8485 14.9688L20.369 14.5654L20.9403 13.793L22.368 14.3809L23.0399 13.457L23.5438 12.7686L25.3241 13.3906L25.3739 14.0449L24.786 15.0859L24.3163 15.6738L25.3905 15.7578L26.6844 14.8682L27.4735 12.7354L28.5819 12.5674L29.8417 11.6602L30.6141 11.2402L31.7225 12.0469L32.7635 11.6768L33.6366 11.375L35.0145 11.543L37.4159 11.3408L37.9325 11.1387ZM14.5145 25.2529C14.2426 25.0174 13.979 24.7726 13.7255 24.5176L14.5253 24.2559L14.5145 25.2529ZM38.2489 15.584C38.1305 17.014 37.8031 18.3845 37.2968 19.665L37.6337 18.1768L37.6005 16.0771L38.2489 15.584ZM23.9218 0.00390625C27.5187 0.00390625 30.8076 1.32467 33.329 3.50781L32.4276 3.46484L31.4872 4.12012L30.4296 4.75879L28.9178 5.2793L27.9608 5.88379L27.1884 6.97559L26.5497 8.0166L26.3143 8.6377L26.0458 8.41992L25.4745 7.88184L24.618 7.86523L23.6278 8.78906L22.9393 8.57031L22.1493 8.58789L21.8309 8.95703L21.1083 9.24219L20.537 9.1084L19.5126 9.54492L19.2782 10.1494L18.6727 9.86426L17.33 9.69629L16.9266 9.29297L16.0536 9.27637L14.8778 9.57812L15.8182 6.28711L15.5995 5.19531L14.1552 4.69141L12.2909 7.78125L11.452 10.6523L10.5419 9.10645C12.6452 3.77561 17.8435 0.00407393 23.9218 0.00390625ZM35.1425 5.39258C35.2387 5.51252 35.3333 5.63379 35.4257 5.75684L34.9969 5.63086L35.1425 5.39258ZM33.4921 3.65234C33.8052 3.9318 34.1059 4.22473 34.3934 4.53027L34.2421 4.53906L33.704 4.37207L33.4921 3.65234Z" fill="#FFE300"/>
<path d="M2.63906 22.6622C2.74918 22.5424 2.7836 22.4791 2.83728 22.4516C4.11609 21.7578 4.82639 20.5836 5.42794 19.3365C5.88357 18.3908 6.269 17.4121 6.68059 16.4457C6.70399 16.392 6.68334 16.3191 6.68334 16.2571C6.23459 16.381 5.81061 16.5145 5.377 16.6137C4.44371 16.827 3.58887 16.5834 2.86206 16.0121C1.58738 15.01 0.753196 13.7367 0.692628 12.0559C0.688499 11.9252 0.720159 11.793 0.738054 11.643C0.831659 11.665 0.910122 11.6622 0.956924 11.6994C1.59013 12.1798 2.30043 12.1826 3.05065 12.1C3.61227 12.038 4.18905 12.0174 4.7493 12.0793C5.48713 12.1605 6.03637 12.6423 6.56083 13.1296C6.83339 13.3843 7.09906 13.6362 7.58085 13.4669C8.14936 11.1515 8.48661 8.78664 8.44807 6.39696C9.44193 5.74585 10.5982 6.45753 11.1186 7.91941C11.2108 7.7969 11.2934 7.71018 11.3526 7.60832C12.831 5.01353 14.8573 2.98176 17.5415 1.64238C20.4047 0.212153 23.4207 -0.171902 26.5661 0.404869C28.7658 0.808196 30.7632 1.66854 32.5362 3.03957C32.6601 3.13593 32.8129 3.25707 32.9533 3.25982C33.6154 3.27221 33.8907 3.64663 33.943 4.29911C34.6877 4.48907 35.3843 4.13117 36.2005 4.14769C35.9665 4.60608 35.7463 5.03693 35.4971 5.52423C36.162 5.51872 36.7278 5.74035 37.1146 6.28959C38.0465 5.35905 38.8669 5.21588 39.7685 5.82845C39.9957 5.73071 40.2379 5.6082 40.4912 5.52148C41.5195 5.16908 42.5615 5.91379 42.4831 6.99438C42.4363 7.62621 42.2518 8.24841 42.1155 8.87198C42.0233 9.29458 41.876 9.70754 41.8168 10.1343C41.7769 10.4233 41.8457 10.7289 41.9187 11.0373C41.6062 11.6774 41.1712 12.239 40.3315 12.1619C39.4877 12.0848 39.2881 11.3828 39.028 10.5734C38.8435 11.2479 38.6054 11.7242 37.8951 11.6223C37.9529 12.0848 37.9845 12.4689 38.0575 12.8461C38.0795 12.9589 38.2103 13.058 38.3053 13.1489C38.4374 13.2755 38.5957 13.3747 38.7182 13.5096C39.5992 14.4841 39.3432 15.5097 38.0878 15.986C37.9254 16.6439 37.8372 17.295 37.9873 17.9998C38.2213 19.0942 37.7079 19.949 36.9287 20.68C36.6837 20.9098 36.4346 21.1576 36.268 21.4439C34.3987 24.6554 31.6924 26.8634 28.1602 27.955C24.5096 29.0838 20.9182 28.7782 17.4699 27.0768C17.2497 26.968 17.0281 26.862 16.7431 26.7244C16.6399 27.6466 16.549 28.5015 16.4472 29.3549C16.3756 29.9606 16.1168 30.1175 15.5221 29.9276C14.8462 29.7128 14.4759 29.198 14.2791 28.5634C14.0231 27.7389 14.0589 26.8923 14.1772 26.0457C14.2295 25.6672 14.2571 25.2859 14.3066 24.7848C13.9446 24.9844 13.6872 25.1276 13.3224 25.3285C13.2921 24.8839 13.288 24.5288 13.2371 24.1805C13.2068 23.9685 13.1572 23.7221 13.0265 23.5666C11.4283 21.6725 10.4207 19.4975 9.89069 16.9661C9.60712 17.6612 9.37448 18.2641 9.11569 18.856C8.50588 20.2546 7.75154 21.5568 6.54018 22.53C5.67296 23.2252 4.69974 23.5583 3.59851 23.188C3.26676 23.0765 2.97218 22.8494 2.63355 22.6594L2.63906 22.6622ZM23.8351 15.774C24.1255 16.1346 24.416 16.4953 24.7532 16.9151C24.8289 16.6811 24.8454 16.5545 24.9088 16.4581C24.9693 16.3645 25.0767 16.3026 25.151 16.2365C24.683 16.0823 24.2508 15.9391 23.8172 15.7946C24.0016 15.6253 24.1902 15.4587 24.3705 15.2839C24.7216 14.9439 24.9762 14.5571 24.9693 14.1331C24.4724 13.7518 24.0415 13.4215 23.6134 13.0925C23.4772 13.6128 23.6878 14.2873 22.9596 14.5392C22.2851 14.7718 21.6298 14.8765 21.0558 14.129C20.9897 14.5144 20.9457 14.7773 20.8934 15.0816C22.018 14.8916 23.1124 14.5943 23.8364 15.774H23.8351ZM5.94964 15.4422C4.75343 15.0678 3.58199 14.6741 2.70238 13.7064C4.20969 14.6782 5.88632 14.9783 7.68409 14.9246C7.18716 16.5173 6.62553 17.9861 5.91385 19.3984C5.42793 20.3647 4.91448 21.3049 4.1271 22.0661C4.02386 22.1666 3.94127 22.2864 3.81876 22.4323C4.58549 22.4351 5.26 22.1818 5.83539 21.7193C6.72739 21.0021 7.35509 20.0784 7.88919 19.0846C8.59536 17.77 9.09091 16.3741 9.47635 14.9357C9.52866 14.7388 9.67457 14.5075 9.84388 14.4112C10.4909 14.0464 11.1667 13.7312 11.8192 13.4022C11.7077 14.2997 11.5535 15.222 11.4875 16.1511C11.4214 17.0844 11.3471 18.0329 11.7063 18.9373C11.8729 19.3585 12.1207 19.6944 12.6341 19.7219C12.7883 18.2751 12.9026 16.8422 13.1049 15.4229C13.2784 14.2033 13.544 12.9947 13.7946 11.7875C13.8372 11.5824 13.9694 11.3443 14.1346 11.2245C14.8559 10.7014 15.6033 10.2155 16.3425 9.71718C16.4609 9.63734 16.5834 9.56576 16.7885 9.43912C15.8153 9.29458 15.1243 9.78325 14.3108 10.1398C14.3507 9.94156 14.3631 9.83556 14.3947 9.73507C14.732 8.69166 15.072 7.64824 15.412 6.60619C15.5841 6.07622 15.4877 5.79403 15.0018 5.53387C14.7912 5.42099 14.5517 5.35905 14.3149 5.27095C14.2254 5.43338 14.1593 5.52836 14.118 5.6316C13.4449 7.33301 12.8406 9.05644 12.4125 10.8377C12.3533 11.0813 12.3354 11.3732 12.1868 11.548C11.5522 12.2941 10.7648 12.8488 9.86453 13.3017C10.0614 11.7792 10.2458 10.3297 10.4385 8.88162C10.5225 8.25116 10.4826 7.64824 10.1219 7.10037C9.85352 6.69154 9.49424 6.53874 9.00144 6.67915C8.82662 9.11563 8.6105 11.5149 7.98142 13.8014C7.10043 14.012 6.47411 13.7628 5.91661 13.1792C5.31368 12.546 4.54832 12.3505 3.66183 12.4235C2.79874 12.495 1.90949 12.6533 1.06429 12.2266C1.32171 13.4903 1.95905 14.5722 2.85242 15.2302C3.81738 15.9405 4.84566 16.0493 5.9524 15.445L5.94964 15.4422ZM26.2096 7.68815C26.5111 7.39082 26.8015 7.21049 26.9392 6.95033C27.4265 6.0308 28.1588 5.42237 29.1155 5.05483C29.4183 4.93782 29.7198 4.81531 30.0543 4.68179C25.436 1.62724 19.3861 2.65965 16.1361 5.98813C16.348 6.4768 16.1939 6.94895 16.008 7.42799C15.8057 7.95107 15.646 8.49068 15.4767 8.99862C15.5441 9.05644 15.5634 9.08397 15.5799 9.08397C15.6474 9.07984 15.7135 9.06745 15.7795 9.05506C16.4141 8.93668 17.0088 9 17.547 9.3992C17.6682 9.48867 17.8347 9.52722 17.9861 9.56163C18.3537 9.64422 18.7253 9.71167 19.0984 9.78601C19.2594 9.16518 20.1982 8.8183 21.1976 9.00413C21.5858 8.777 21.9175 8.48104 22.2988 8.39157C22.6719 8.30209 23.0959 8.42185 23.5694 8.45627C24.3127 7.66475 25.1813 7.17058 26.306 8.21675C26.2564 7.94144 26.2289 7.79002 26.211 7.69091L26.2096 7.68815ZM18.4665 14.4373C18.3729 14.1634 18.2312 13.9638 18.2573 13.7904C18.3963 12.8708 18.5189 11.9403 18.7639 11.0455C18.9511 10.3614 18.6937 9.892 17.9792 9.97184C17.4575 10.0297 16.9634 10.1948 16.5146 10.5004C15.4354 11.2341 14.8049 12.2693 14.487 13.5013C14.3397 14.0712 14.1772 14.6535 14.4154 15.2564C14.6797 15.9268 15.1477 16.1511 15.763 15.7698C16.1416 15.5358 16.4403 15.1697 16.7638 14.8531C16.8863 14.7333 16.9799 14.5846 17.0983 14.4332C17.536 15.1201 17.9627 15.2798 18.5354 14.9191C18.8189 14.7402 19.1025 14.7099 19.4067 14.6411C20.0344 14.4965 20.2024 14.5819 20.3263 13.7766C20.457 12.9259 20.7489 12.0945 21.0255 11.2727C21.1425 10.923 21.2995 10.539 21.8129 10.3545C21.9754 11.5521 21.55 12.6712 21.5624 13.917C21.9726 13.8358 22.336 13.7628 22.6898 13.6926C22.7614 13.3788 22.8109 13.1324 22.8756 12.8901C23.1014 12.0532 23.323 11.2149 23.5653 10.382C23.663 10.0475 23.8433 9.7571 24.2205 9.59467C24.4132 10.0558 24.2508 10.4977 24.2109 10.9395C24.1654 11.4392 24.0718 11.9444 24.1131 12.4386C24.1613 13.0291 24.5977 13.2425 25.1483 13.025C25.3864 12.93 25.6136 12.8061 25.8806 12.6781C25.7333 13.6913 25.3286 14.5406 24.7642 15.4243C25.4456 15.3266 25.9687 15.1174 26.2881 14.6039C26.5262 14.2198 26.7148 13.7959 26.8607 13.3664C27.0121 12.9231 27.0837 12.4524 27.2035 11.943C27.7499 12.418 28.2593 12.334 28.759 11.9926C28.9283 11.877 29.0852 11.7421 29.2325 11.5975C29.8464 10.996 30.1135 10.2169 30.3103 9.41021C30.4301 8.92154 30.5278 8.42873 30.3778 7.91941C30.1341 7.09211 29.4651 6.82506 28.7273 7.29033C28.5181 7.42248 28.3309 7.58904 28.134 7.73909C28.0858 7.78176 28.039 7.82581 27.9908 7.86848C27.9647 7.7735 27.9674 7.62621 27.9069 7.5918C27.4292 7.32337 26.8084 7.57803 26.7244 8.06257C26.5358 9.16656 26.3569 10.2719 26.1642 11.3745C26.0871 11.8178 25.8765 12.1605 25.3451 12.3257C25.3451 11.9706 25.308 11.676 25.352 11.3952C25.4676 10.6739 25.6218 9.95807 25.7581 9.23814C25.8379 8.8183 25.8517 8.40258 25.4649 8.11351C25.1951 7.91116 24.6803 8.0433 24.2811 8.4012C24.0939 8.56914 23.9259 8.75911 23.7594 8.94769C23.6423 9.07984 23.5432 9.22575 23.4249 9.37855C22.9706 8.59667 22.5549 8.5306 21.89 9.10462C21.7689 9.20923 21.6519 9.32211 21.5528 9.446C21.327 9.72819 21.1123 10.02 20.8342 10.3834C20.8824 10.0338 20.9182 9.77224 20.9567 9.49143C20.4515 9.18583 20.0771 9.4873 19.7302 9.64285C19.5306 10.985 19.3434 12.2693 19.1493 13.5522C19.0942 13.9143 18.8809 14.1703 18.4721 14.4346L18.4665 14.4373ZM17.2731 23.7276C22.9596 27.9798 30.5622 25.5281 33.336 20.8768C33.1281 20.6277 32.9244 20.384 32.722 20.1417C31.9828 20.3689 31.267 20.7185 30.7136 19.8678C30.4232 20.7681 29.8079 21.1728 28.9764 20.9126C27.9729 20.5974 28.2538 19.7549 28.4121 19.0143C28.0666 18.8808 27.7761 18.7679 27.4567 18.6441C27.4072 18.75 27.3563 18.8244 27.3356 18.907C27.1401 19.704 26.9213 20.4969 26.7712 21.3022C26.6886 21.7468 26.4849 22.0069 26.0568 22.1088C25.7925 22.1721 25.4759 22.1639 25.2736 22.3112C24.6803 22.742 24.047 22.7076 23.3712 22.5493C22.899 23.1756 22.3319 23.6739 21.5225 23.5735C20.6676 23.4675 20.3593 22.7324 20.0895 22.0772C19.6738 22.3043 19.3049 22.5287 18.9181 22.7131C18.5478 22.8893 18.1596 23.0297 17.7741 23.1729C17.503 23.2734 17.2703 23.3931 17.2731 23.729V23.7276ZM41.2442 10.9919C40.9083 10.2926 41.0942 9.62082 41.2483 8.9532C41.4135 8.24152 41.6324 7.54086 41.7742 6.82506C41.9146 6.11339 41.3874 5.66877 40.7005 5.9193C40.366 6.04043 40.059 6.25655 39.7658 6.46579C39.54 6.62684 39.357 6.84709 39.1243 7.07146C39.1904 6.69567 39.2482 6.3708 39.3102 6.02254C38.6563 5.83395 38.1401 5.85185 37.7092 6.38182C37.5028 6.6351 37.266 6.89802 36.8902 6.94345C36.714 6.40384 36.4098 6.02392 35.8399 5.96335C35.1186 5.88626 34.4757 6.07622 33.9719 6.62133C33.0331 7.63447 32.7647 8.83344 32.996 10.2265C32.7716 10.4399 32.5142 10.6876 32.2471 10.9409C31.9677 10.528 31.936 10.3986 32.0558 9.81629C32.2402 8.92291 32.4453 8.03367 32.6436 7.14304C32.7564 6.63648 32.8734 6.13129 32.9794 5.66051C34.2449 5.40722 35.0007 5.0897 35.2466 4.70794H33.2148C33.2699 4.51935 33.3194 4.39271 33.3442 4.26056C33.4296 3.8008 33.3181 3.66177 32.8514 3.70857C32.5692 3.73748 32.2925 3.83246 32.0489 3.89027C31.9181 4.7809 32.1797 4.8924 31.0481 4.99701C30.481 5.04932 29.9139 5.15669 29.3591 5.29022C28.7383 5.43888 28.2015 5.74723 27.7568 6.3887C29.0811 5.91517 30.3392 5.80229 31.6566 5.78853C31.4597 6.6585 31.2574 7.47066 31.0936 8.29108C30.9449 9.02891 30.8073 9.77224 30.7233 10.5197C30.6765 10.9409 30.8086 11.3732 31.2354 11.5659C31.6332 11.7462 32.0489 11.6691 32.4013 11.3952C32.6835 11.1749 32.9505 10.934 33.2217 10.7042C34.0793 11.3814 34.718 11.3924 35.5632 10.6863C36.3134 10.0599 36.7278 9.23676 36.842 8.2608C36.864 8.06808 36.8819 7.82856 37.0003 7.70192C37.2206 7.46791 37.5124 7.30135 37.8565 7.04531C37.5248 8.33926 37.2219 9.51896 36.9095 10.7413C37.1531 10.7661 37.3087 10.7936 37.4642 10.7936C38.0547 10.7936 38.0671 10.7647 38.2626 10.1797C38.4223 9.70341 38.5902 9.22575 38.8077 8.77425C39.0335 8.30209 39.3129 7.85334 39.5882 7.40734C39.7204 7.19398 39.9048 7.01778 40.2586 7.10588C40.2462 7.38119 40.271 7.65787 40.2145 7.91804C40.0604 8.63246 39.8773 9.34001 39.6956 10.0475C39.5772 10.5114 39.4987 11.0001 39.9406 11.3043C40.3949 11.6168 40.8078 11.3374 41.2428 10.9932L41.2442 10.9919ZM16.0617 19.0983C15.8263 19.9903 15.5868 20.8424 15.3803 21.7014C15.306 22.0125 15.1656 22.2189 14.8889 22.391C14.3617 22.72 13.9653 23.1688 13.7753 23.8928C14.213 23.6698 14.564 23.4909 15.0266 23.2541C14.9096 24.1131 14.7623 24.8481 14.7224 25.5887C14.6742 26.4738 14.6783 27.3658 14.7347 28.2509C14.7664 28.741 15.1023 29.0576 15.668 29.1457C15.7135 28.9186 15.7658 28.7245 15.7905 28.5249C15.9158 27.5269 16.0191 26.5275 16.1595 25.5323C16.2751 24.7174 16.4224 23.9052 16.5738 23.0958C16.6385 22.7475 16.8051 22.5121 17.2029 22.3883C17.832 22.1914 18.439 21.9092 19.0296 21.6105C19.7013 21.2719 19.9505 20.6414 20.1253 19.8953C19.554 20.1927 19.0819 20.4804 18.5767 20.6896C18.0949 20.8892 17.6668 21.2554 17.0404 21.2829C17.3653 20.2353 17.6571 19.2525 17.9806 18.2806C18.0384 18.1058 18.1954 17.9172 18.3564 17.8319C19.671 17.1367 21.0118 16.5022 22.4792 16.1924C22.7806 16.1291 23.0862 16.0933 23.4345 16.0369C23.0339 15.3514 22.4571 15.1325 21.8198 15.3307C20.7117 15.6735 19.6311 16.1085 18.5436 16.5159C17.0542 17.0748 15.7396 18.0563 14.1359 18.3219C14.2419 19.3213 14.7898 19.5498 16.059 19.1011L16.0617 19.0983ZM24.2948 21.1521C24.1792 20.0123 24.2742 18.9909 24.5729 18.004C24.7931 17.2744 24.5082 16.849 23.7662 17.0129C23.3546 17.1037 22.9362 17.2895 22.5907 17.5318C21.5294 18.2779 20.9416 19.3557 20.6938 20.6043C20.6016 21.0654 20.6126 21.5665 20.6828 22.0345C20.7778 22.6663 21.2857 22.9058 21.8528 22.6181C22.1103 22.4874 22.3415 22.2809 22.5411 22.0689C22.7641 21.8321 22.9389 21.5486 23.1427 21.276C23.6313 21.934 23.9259 21.9822 24.6018 21.605C24.7904 21.499 25.0189 21.4522 25.2364 21.4109C25.8531 21.2925 25.9164 21.2127 26.0761 20.6125C26.339 19.6214 26.6157 18.6344 26.9282 17.6585C27.0424 17.3019 27.2337 16.9495 27.6811 16.7486V17.9117C27.9523 18.1292 28.218 18.1058 28.4258 17.8085C28.7562 17.3336 28.8305 16.7885 28.7273 16.2351C28.6461 15.8015 28.1547 15.5923 27.7596 15.8166C27.527 15.9488 27.3218 16.1429 27.1401 16.3411C26.9323 16.5669 26.7616 16.827 26.4766 17.2042C26.5166 16.8876 26.5854 16.7169 26.5386 16.5903C26.4973 16.4774 26.3252 16.337 26.2124 16.3383C25.6893 16.348 25.425 16.6742 25.374 17.1904C25.2694 18.2586 25.1235 19.3227 25.0037 20.3909C24.9597 20.7805 24.7436 20.9924 24.2934 21.1576L24.2948 21.1521ZM29.2958 15.467C29.1045 16.995 28.9159 18.5037 28.7273 20.0041C29.6358 20.1899 29.7859 20.0495 29.9469 19.2745C30.1176 18.4513 30.3709 17.6447 30.6297 16.8435C30.7123 16.5875 30.8141 16.2447 31.2822 16.3232C31.4226 17.3928 30.9504 18.4651 31.1941 19.5374C32.1218 19.481 32.0971 19.4755 32.2733 18.6248C32.4247 17.8883 32.6298 17.1629 32.8349 16.4388C32.9285 16.1112 33.0882 15.807 33.4571 15.6446C33.6512 16.0685 33.5259 16.4677 33.4791 16.8697C33.4268 17.3226 33.358 17.781 33.3828 18.2325C33.4186 18.8781 33.9953 19.1685 34.568 18.8698C34.8667 18.7143 35.1186 18.5064 35.27 18.1595C34.6203 18.143 34.5817 18.1196 34.5859 17.558C34.5872 17.24 34.6327 16.9206 34.6712 16.6026C34.7359 16.0809 34.8584 15.5634 34.8708 15.0416C34.8887 14.3217 34.3284 14.0161 33.7104 14.3864C33.4805 14.5241 33.2919 14.7361 33.0992 14.9301C32.9588 15.0706 32.8432 15.2344 32.7083 15.3995C32.2554 14.6135 31.8397 14.5461 31.1844 15.1339C31.0151 15.2853 30.8747 15.4697 30.7288 15.6446C30.6173 15.7795 30.5182 15.924 30.4163 16.0603C30.3778 15.785 30.4315 15.4174 30.2883 15.3087C29.9579 15.0582 29.6014 15.2825 29.2986 15.4684L29.2958 15.467ZM35.3829 14.3809C35.5302 13.5591 35.3017 12.8075 35.2218 12.0876C34.5748 11.9981 34.016 11.921 33.38 11.8343C32.9808 12.1275 32.5252 12.4882 31.8686 12.495C31.1803 12.5019 30.8334 12.0133 30.4191 11.6072C29.5092 12.8309 29.2311 12.9961 27.8078 13.1627C27.6357 13.6555 27.5146 14.1744 27.275 14.6328C27.041 15.0802 26.6873 15.4642 26.3872 15.8758C26.7891 15.9598 26.7933 15.9639 27.0479 15.7685C27.4526 15.4587 27.8615 15.1944 28.4162 15.3266C28.5249 15.3527 28.6667 15.2619 28.7879 15.2096C29.3481 14.9646 29.8836 14.6163 30.5443 14.8944C30.6255 14.9288 30.7866 14.8833 30.8582 14.8173C31.4322 14.2804 32.0806 14.2694 32.7454 14.5378C33.9719 13.61 34.2872 13.5908 35.3829 14.3823V14.3809ZM37.9487 15.1394C38.1525 14.8654 38.3521 14.692 38.4292 14.4745C38.6563 13.8303 38.0382 13.2549 37.2866 13.387C36.1592 13.5839 35.4834 14.6714 35.6857 15.8621C35.7876 16.4622 35.8454 17.0858 35.8013 17.6915C35.7311 18.6523 35.2204 19.3585 34.3037 19.7219C34.0215 19.8334 33.7159 19.8871 33.4075 19.971C34.1165 20.5272 35.0208 20.596 35.8358 20.0977C37.087 19.3323 37.4408 18.4004 37.1256 16.9454C36.9907 16.3246 36.8558 15.6914 36.8365 15.0609C36.8159 14.4098 37.1779 14.224 37.8634 14.4428C37.8868 14.6287 37.9102 14.8242 37.9487 15.1421V15.1394ZM13.8524 17.6846C14.5324 18.015 15.0775 17.6543 15.6309 17.4093C16.527 17.0115 17.4107 16.5875 18.2986 16.1704C18.4032 16.1209 18.4968 16.0493 18.6235 15.9708C18.1376 15.8979 17.7163 15.8345 17.2731 15.7685C16.7927 16.2874 16.2531 16.7403 15.4877 16.7899C14.6274 16.8449 14.3204 16.1346 13.8524 15.5138C13.745 16.3741 13.6486 17.134 13.5592 17.8952C13.5537 17.942 13.6129 17.9957 13.6817 18.1127C13.7464 17.9489 13.7849 17.8525 13.851 17.6846H13.8524ZM21.996 17.2964C21.9258 17.2992 21.8308 17.2785 21.7579 17.3102C20.8397 17.7094 19.9243 18.1127 19.0117 18.5229C18.9125 18.567 18.7887 18.6413 18.7529 18.7322C18.5491 19.2497 18.3082 19.7591 18.2257 20.4033C18.8134 20.0798 19.331 19.8059 19.8376 19.5099C20.1693 19.3158 20.5382 19.1437 20.7901 18.8684C21.2306 18.3866 21.5927 17.8333 21.9974 17.2964H21.996ZM15.2468 20.3069C14.403 19.9834 13.8262 19.4191 13.5151 18.4224C13.4587 19.4301 14.0864 20.6855 14.9591 21.4715C15.0555 21.0805 15.1463 20.7158 15.2468 20.3083V20.3069Z" fill="#009748"/>
<path d="M27.2901 11.5217C27.3933 10.5113 27.6631 9.58214 28.1738 8.72868C28.2083 8.66949 28.244 8.60892 28.2881 8.55799C28.4505 8.37491 28.613 8.08171 28.8828 8.23175C29.019 8.30746 29.0769 8.61443 29.081 8.81816C29.1003 9.74595 28.7079 10.5388 28.189 11.2725C28.0018 11.5382 27.7237 11.713 27.2887 11.5217H27.2901Z" fill="#009748"/>
<path d="M18.2218 11.0814C17.4867 11.314 17.3325 11.8715 17.1797 12.5336C17.0132 13.2522 16.6718 13.9542 16.1129 14.4897C16.0042 14.5943 15.8073 14.6081 15.6518 14.6645C15.5967 14.5021 15.4673 14.3259 15.4962 14.18C15.7454 12.9604 16.274 11.8894 17.3243 11.1585C17.5473 11.0029 17.8584 10.9754 18.1282 10.8887C18.1598 10.952 18.1915 11.0167 18.2218 11.08V11.0814Z" fill="#009748"/>
<path d="M34.4735 10.6109C33.8815 9.68863 34.417 7.21636 35.2774 6.67676C35.8321 7.70504 35.5719 8.71129 35.1975 9.71616C35.0612 10.0823 34.9126 10.4333 34.4721 10.6109H34.4735Z" fill="#009748"/>
<path d="M24.2453 18.0541C23.407 18.2606 23.3382 18.8291 23.1771 19.4141C22.9982 20.0597 22.6444 20.6627 22.3237 21.2601C22.2535 21.3895 21.9974 21.4184 21.8267 21.4927C21.7744 21.3303 21.6574 21.1582 21.6795 21.0054C21.8405 19.856 22.3223 18.8718 23.268 18.1574C23.5047 17.9784 23.769 17.8642 24.2467 18.0541H24.2453Z" fill="#009748"/>
</svg>
