<svg width="44" height="30" viewBox="0 0 44 30" fill="none" xmlns="http://www.w3.org/2000/svg">
<path fill-rule="evenodd" clip-rule="evenodd" d="M12.2038 1.32422H1.93341V5.49451H3.66274V15.6654H1.93341V19.7829H12.2038V15.6654H10.434V12.7055H20.6391V15.6654H18.6689V19.7829H28.787V15.6654H27.0111V5.49451H28.787V1.32422H18.6689V5.49451H20.6391V8.28816H10.434V5.49451H12.2038V1.32422ZM32.4321 14.3183V10.218H42.53V14.3183H40.754V26.0228L36.2963 28.6828H24.3432L19.713 25.9358V23.2493H26.0865V24.4986H34.1676V14.3183H32.4321Z" fill="#002E48"/>
<path fill-rule="evenodd" clip-rule="evenodd" d="M17.3483 21.1039H30.1077V14.3451H28.3318V6.81558H30.1077V0.00390625H17.3483V6.81558H19.3169V6.96785H11.7547V6.81558H13.5245V0.00390625H0.612732V6.81558H2.34206V14.3451H0.612732V21.1039H13.5245V14.3451H11.7547V14.0266H19.3169V14.3451H17.3483V21.1039ZM29.4862 20.4824H17.9698V14.9666H19.9384V13.4051H11.1332V14.9666H12.903V20.4824H1.23424V14.9666H2.96357V6.19408H1.23424V0.62541H12.903V6.19408H11.1332V7.58935H19.9384V6.19408H17.9698V0.62541H29.4862V6.19408H27.7103V14.9666H29.4862V20.4824ZM23.9809 30.0039H36.6611H36.6626L42.0759 26.7721V15.6394H43.8519V8.89765H31.1126V15.6394H32.8482V23.1782H27.4069V21.9275H18.3936V26.6882L23.9809 30.0039ZM36.4902 29.3824H24.1518H24.1502L19.0135 26.3339V22.549H26.7838V23.7997H33.4681V15.0179H31.7326V9.51916H43.2288V15.0179H41.4529V26.4194L36.4902 29.3824Z" fill="#9C172C"/>
</svg>
