<svg width="146" height="30" viewBox="0 0 146 30" fill="none" xmlns="http://www.w3.org/2000/svg">
<path fill-rule="evenodd" clip-rule="evenodd" d="M21.7773 1.51536C21.838 1.382 21.933 1.26709 22.0525 1.18229C19.9798 0.327553 17.7474 -0.0708546 15.5071 0.0141615C15.4855 0.0313978 15.5447 0.0832547 15.5886 0.121656L15.6036 0.134836C15.9382 0.105762 16.2753 0.146863 16.5931 0.255511C16.8141 0.347977 17.0138 0.484782 17.1799 0.657471C17.3459 0.830161 17.4748 1.03507 17.5585 1.25953C17.9435 1.37079 18.295 1.57522 18.5821 1.85475C18.8692 2.13427 19.083 2.48026 19.2045 2.86209C19.2851 3.16061 19.2779 3.47605 19.1837 3.77057C19.0895 4.06509 18.9124 4.32619 18.6736 4.52257C18.7482 4.99587 18.6469 5.48012 18.3888 5.88379C18.8285 6.53906 19.0186 7.33033 18.9246 8.11386C19.3805 8.56593 19.7357 9.10924 19.9669 9.70817C20.1982 10.3071 20.3003 10.9482 20.2665 11.5893C21.3405 12.4355 22.1042 13.6134 22.4386 14.9392L22.8151 14.8186C23.7178 14.4614 24.6301 13.5346 24.6301 12.4871C24.5721 10.6673 22.8344 9.28682 21.2946 8.77033C20.4595 8.78964 19.6148 8.5145 19.3156 7.7277C19.2663 7.55984 19.2655 7.38147 19.3133 7.21319C19.3612 7.04491 19.4557 6.89361 19.5859 6.77678C19.3194 6.50252 19.1167 6.1729 18.9921 5.81138C18.9516 5.65121 18.9564 5.48293 19.0058 5.32527C19.0552 5.16762 19.1474 5.02677 19.2721 4.91839C19.4198 4.83996 19.5833 4.79577 19.7504 4.78909C19.9175 4.7824 20.084 4.8134 20.2375 4.87977C19.9895 4.71597 19.8161 4.46102 19.7548 4.1702C19.7117 3.98924 19.7306 3.79904 19.8085 3.63011C19.8864 3.46117 20.0188 3.3233 20.1844 3.23859L19.9672 2.84761C19.9119 2.68362 19.9111 2.50612 19.9651 2.34167C20.019 2.17722 20.1247 2.03465 20.2665 1.93531C20.5192 1.83974 20.7932 1.81441 21.0592 1.862C21.3252 1.90959 21.5734 2.02833 21.7773 2.20562C21.7169 1.9795 21.7169 1.74148 21.7773 1.51536ZM14.9924 0.588645C15.0681 0.525761 15.1347 0.452657 15.1903 0.37143L15.1082 0.255582C14.7476 -0.113521 14.2602 0.028235 13.7968 0.163017L13.7968 0.163027C13.7329 0.18159 13.6696 0.200021 13.607 0.216966C13.5756 0.262118 13.5542 0.31347 13.5442 0.367582C13.5342 0.421694 13.5359 0.477316 13.5491 0.530721C13.6338 0.840334 13.8334 0.752269 14.0399 0.661175C14.1746 0.601728 14.3123 0.540992 14.4228 0.588645L14.1621 0.429354C14.1859 0.354198 14.22 0.282717 14.2635 0.216966C14.3615 0.266825 14.4448 0.31056 14.5248 0.352534C14.6693 0.428405 14.8028 0.498521 14.9924 0.588645ZM13.1151 0.549973L13.2358 0.805804C13.0009 0.630686 12.7308 0.508797 12.4441 0.448607C12.6506 0.384121 12.8621 0.337292 13.0765 0.308624L13.1151 0.549973ZM16.931 1.22105C16.9264 1.14687 16.8956 1.07674 16.8441 1.02314L16.8537 1.01349C16.7194 0.802598 16.5085 0.652047 16.2654 0.593525C16.0223 0.535004 15.766 0.573078 15.5505 0.699733C15.4825 0.757962 15.432 0.83394 15.4048 0.91918C15.3775 1.00442 15.3745 1.09556 15.396 1.18243C15.4217 1.25169 15.461 1.31512 15.5116 1.369C15.5621 1.42288 15.6229 1.46612 15.6904 1.49619C15.8232 1.5432 15.966 1.55501 16.1047 1.53048C16.2434 1.50595 16.3734 1.44591 16.4821 1.3562C16.2481 1.27949 16.1482 1.23935 15.9887 1.17524C15.9475 1.15867 15.9023 1.1405 15.8497 1.11968C15.8704 1.09212 15.8845 1.06019 15.8999 1.02545C15.9168 0.98717 15.9352 0.945482 15.9656 0.902467L16.931 1.22105ZM11.2599 0.78166C11.2374 0.811045 11.2254 0.852809 11.2138 0.893432C11.193 0.966252 11.1732 1.0354 11.0957 1.02301L10.864 0.902335C10.9939 0.855509 11.126 0.815233 11.2599 0.78166ZM13.4952 2.0127C13.3865 1.83128 13.3174 1.62896 13.2924 1.41898V1.42381C12.9014 0.926629 12.2064 0.593566 11.6706 1.028C11.5073 1.21983 11.6201 1.43928 11.7202 1.63381C11.7384 1.66933 11.7563 1.70402 11.7719 1.73756C11.8847 2.1367 12.1224 2.06465 12.3808 1.98636C12.5317 1.94062 12.6897 1.89275 12.8339 1.93547C12.659 1.79783 12.4752 1.67205 12.2836 1.55897C12.2794 1.50987 12.2906 1.46069 12.3157 1.41829C12.3408 1.37588 12.3785 1.34237 12.4236 1.32244L13.4952 2.0127ZM14.9313 1.25956C14.9309 1.32026 14.9446 1.38022 14.9714 1.43467C14.9983 1.48913 15.0374 1.5366 15.0857 1.57332L14.4775 1.32232C14.4318 1.39153 14.3914 1.46415 14.3568 1.53953C14.4186 1.58898 14.4944 1.62323 14.5724 1.6585C14.6467 1.69209 14.723 1.72661 14.7913 1.77605C14.671 1.75939 14.5528 1.82649 14.4381 1.89161C14.2537 1.9963 14.0783 2.09587 13.9176 1.83398C13.8432 1.76994 13.789 1.68567 13.7616 1.59141C13.7341 1.49716 13.7347 1.39696 13.7631 1.30301C13.8777 1.17605 14.0281 1.08685 14.1944 1.04721C14.3608 1.00756 14.5352 1.01933 14.6947 1.08097C14.7117 1.08943 14.7316 1.09719 14.7526 1.10538C14.8275 1.13456 14.9162 1.1691 14.9313 1.25956ZM11.5282 2.13323C11.3848 1.93288 11.2603 1.71956 11.1565 1.49607L11.1421 1.47676C10.8283 1.25954 10.1718 1.04233 9.92084 1.47676C9.87669 1.58188 9.86788 1.6985 9.89573 1.80906C9.92359 1.91962 9.98661 2.01814 10.0753 2.08979C10.229 2.30385 10.4045 2.24954 10.593 2.19121C10.7361 2.14695 10.8866 2.10038 11.0407 2.16702C10.8458 2.0561 10.6587 1.93192 10.4808 1.79534C10.5154 1.7632 10.5323 1.73233 10.5502 1.69948C10.5673 1.66819 10.5854 1.63511 10.6208 1.59743C10.7148 1.65356 10.8027 1.70921 10.8904 1.76483L10.8905 1.76484L10.8905 1.76484L10.8905 1.76485L10.8905 1.76485L10.8905 1.76486L10.8905 1.76487L10.8905 1.76487L10.8905 1.76488L10.8905 1.76488L10.8905 1.76489L10.8905 1.76489L10.8905 1.7649L10.8906 1.7649L10.8906 1.76491L10.8906 1.76491L10.8906 1.76492L10.8906 1.76492L10.8906 1.76493L10.8906 1.76493L10.8906 1.76494L10.8906 1.76494L10.8906 1.76495L10.8906 1.76495L10.8906 1.76496L10.8907 1.76496L10.8907 1.76497L10.8907 1.76497L10.8907 1.76498L10.8907 1.76498L10.8907 1.76499L10.8907 1.76499L10.8907 1.765L10.8907 1.765L10.8907 1.76501L10.8907 1.76502L10.8907 1.76502L10.8908 1.76503L10.8908 1.76503L10.8908 1.76504L10.8908 1.76504L10.8908 1.76505L10.8908 1.76505L10.8908 1.76506L10.8908 1.76506L10.8908 1.76507L10.8908 1.76507L10.8908 1.76508L10.8908 1.76508L10.8909 1.76509L10.8909 1.76509L10.8909 1.7651L10.8909 1.7651L10.8909 1.76511L10.8909 1.76511L10.8909 1.76512L10.8909 1.76512L10.8909 1.76513L10.8909 1.76513L10.8909 1.76514L10.8909 1.76514L10.891 1.76515L10.891 1.76516L10.891 1.76516L10.891 1.76517L10.891 1.76517L10.891 1.76518L10.891 1.76518L10.891 1.76519L10.891 1.76519L10.891 1.7652C11.0824 1.88645 11.2736 2.00757 11.5282 2.13323ZM23.2461 1.8534L23.1495 2.26852C23.0303 2.14367 22.9191 2.01147 22.8165 1.87271C22.7962 1.89972 22.7644 1.92253 22.7323 1.94555C22.6956 1.97189 22.6585 1.99851 22.6379 2.032L22.913 2.46643C22.8323 2.40149 22.7155 2.3895 22.6016 2.3778C22.436 2.3608 22.2764 2.34442 22.242 2.16715C22.1841 1.86788 22.2034 1.61688 22.4593 1.4962C22.8411 1.37317 23.0104 1.57454 23.1769 1.77259L23.1769 1.77261C23.1998 1.79989 23.2227 1.8271 23.2461 1.8534ZM9.3423 1.56885L9.34278 1.55898V1.56863L9.3423 1.56885ZM6.71207 3.1905C7.52224 2.54875 8.40504 2.00446 9.3423 1.56885C9.33508 1.73424 9.3705 1.89877 9.44525 2.0466C9.52148 2.19737 9.63595 2.3255 9.77721 2.41818C9.55021 2.3382 9.30837 2.30927 9.06891 2.33347C8.82945 2.35767 8.59828 2.43439 8.39187 2.55816C8.26493 2.64892 8.17119 2.77875 8.125 2.9278C8.0788 3.07686 8.08268 3.23694 8.13603 3.38358L8.23257 3.68285C8.07278 3.73177 7.90858 3.5868 7.76081 3.45634C7.68985 3.3937 7.62269 3.3344 7.56162 3.30152C7.29508 3.18331 7.00004 3.14476 6.71207 3.1905ZM18.3687 2.307C18.6188 2.72267 18.7032 3.21725 18.6053 3.69235C18.5739 3.74132 18.5259 3.77731 18.4701 3.79371C18.0402 3.08849 17.4147 2.52335 16.6696 2.16702C16.549 2.08978 16.549 2.01255 16.5924 1.93049C16.6573 1.83987 16.7428 1.76593 16.8418 1.71474C16.9408 1.66356 17.0505 1.63659 17.162 1.63605C17.4021 1.64355 17.6369 1.70836 17.8468 1.82508C18.0567 1.9418 18.2357 2.10704 18.3687 2.307ZM24.1583 2.41818C24.3793 2.61347 24.5889 2.82138 24.7859 3.04086V3.03121C24.9148 2.63112 24.3682 2.34567 23.9039 2.10321C23.8641 2.0824 23.8248 2.0619 23.7867 2.04168C23.5839 2.15752 23.5839 2.33612 23.5839 2.57747C23.6076 2.8674 23.7509 2.82913 23.9039 2.78829C24.0006 2.7625 24.101 2.73567 24.1777 2.78986L24.0811 2.69332C23.9988 2.59927 24.0629 2.52749 24.1209 2.46248L24.1209 2.46246C24.1343 2.4474 24.1474 2.43271 24.1583 2.41818ZM21.6848 2.65942C21.6016 2.7811 21.5411 2.91683 21.5062 3.06007C21.441 2.99484 21.3871 2.93285 21.3323 2.86979L21.3323 2.86978C21.2532 2.77884 21.1722 2.68568 21.0525 2.57737L20.8401 2.77045L21.1925 3.19039C21.1201 3.16789 21.028 3.1684 20.9321 3.16894C20.74 3.17001 20.5328 3.17117 20.4394 2.98766C20.4305 2.96372 20.4204 2.93908 20.4102 2.914L20.4102 2.91397C20.3546 2.77724 20.2936 2.62732 20.367 2.50496C20.4201 2.26844 20.8739 1.96916 21.6848 2.65942ZM17.9376 4.22186C17.8705 3.89833 17.7177 3.59877 17.4952 3.35451L17.4856 3.34486C17.4856 3.34486 15.4341 1.31269 14.3287 2.41807C14.2748 2.49622 14.2412 2.58661 14.2311 2.68103C14.221 2.77545 14.2346 2.8709 14.2708 2.9587C14.626 3.6022 15.3273 3.8786 16.0461 4.16193C16.5189 4.34828 16.9993 4.53763 17.3939 4.8364C17.5608 4.94714 17.7219 5.06636 17.8766 5.19359C17.9836 4.881 18.0047 4.54539 17.9376 4.22186ZM13.7275 2.79938C13.7417 2.82044 13.7553 2.84016 13.7681 2.85885C13.8642 2.99861 13.9206 3.08053 13.9206 3.23381L12.9938 2.81869C12.9495 2.87917 12.9183 2.94821 12.9021 3.02142L13.5682 3.33517C13.3813 3.25105 13.1436 3.27698 12.9125 3.30219C12.5469 3.34209 12.1976 3.3802 12.0911 2.97798C12.0619 2.86946 12.0715 2.75415 12.1182 2.65194C12.1649 2.54972 12.2458 2.467 12.347 2.41805C12.5893 2.32897 12.8537 2.31932 13.1019 2.39047C13.3501 2.46163 13.5692 2.60991 13.7275 2.81386V2.79938ZM11.6715 3.23387C11.6223 3.09463 11.6026 2.9467 11.6135 2.79944L11.6328 2.79461C11.4724 2.66794 11.2792 2.58936 11.0759 2.568C10.8726 2.54664 10.6673 2.58338 10.484 2.67394C10.4208 2.73565 10.3737 2.81192 10.3467 2.89607C10.3198 2.98022 10.3139 3.06968 10.3296 3.15664C10.4134 3.34632 10.5478 3.50927 10.7181 3.62762C10.8884 3.74597 11.088 3.81515 11.295 3.82759C11.4692 3.90826 11.5356 3.80341 11.6081 3.68898C11.644 3.63224 11.6814 3.57314 11.7342 3.53314L10.904 3.23387C10.9091 3.15718 10.9359 3.08353 10.9812 3.02148C11.1099 3.0425 11.2329 3.08781 11.3564 3.13331C11.4599 3.17142 11.5637 3.20967 11.6715 3.23387ZM9.874 2.81876V3.30146C9.79763 3.30146 9.69917 3.26446 9.60276 3.22823C9.42499 3.16142 9.25418 3.09724 9.24167 3.2725C9.18782 3.38356 9.54695 3.51574 9.8479 3.6265C9.97858 3.6746 10.0983 3.71866 10.1684 3.7552C9.874 4.1124 8.59002 3.95311 8.62864 3.11804C8.64344 3.04121 8.67431 2.96839 8.71923 2.90433C8.76416 2.84028 8.82211 2.78644 8.88929 2.74636C9.0484 2.6723 9.22339 2.63883 9.39859 2.64893C9.5738 2.65904 9.74378 2.71242 9.89331 2.80428L9.874 2.81876ZM23.1491 3.7262L23.1926 3.29177C23.0965 3.09927 22.9389 2.94439 22.7447 2.85169C22.5506 2.75899 22.3311 2.7338 22.121 2.78011C21.981 2.88147 21.7686 3.15661 22.121 3.60552C22.2561 3.56548 22.3954 3.54118 22.5361 3.53312L22.3189 3.29177C22.395 3.22482 22.4675 3.15393 22.5361 3.07938L23.1491 3.7262ZM25.8168 3.45111C25.638 3.48927 25.4719 3.57233 25.3341 3.69246C25.3143 3.59107 25.3237 3.48334 25.3329 3.37641C25.3418 3.27464 25.3506 3.17359 25.3341 3.07943C25.4762 3.18277 25.5686 3.25587 25.6648 3.33196L25.6648 3.33197C25.7124 3.36961 25.7609 3.40798 25.8168 3.45111ZM25.1277 4.61913C25.1866 4.30957 25.1225 3.98925 24.9491 3.72614H24.9346C24.8364 3.57414 24.6974 3.45281 24.5336 3.37599C24.3697 3.29918 24.1875 3.26997 24.0079 3.29171C23.9341 3.292 23.8622 3.31544 23.8025 3.35875C23.7427 3.40205 23.698 3.46302 23.6748 3.53306C23.6084 3.72389 23.609 3.93168 23.6765 4.12211C23.7441 4.31255 23.8746 4.47425 24.0465 4.58052C24.2214 4.53574 24.4018 4.51624 24.5823 4.52259C24.394 4.26676 24.2927 4.12678 24.0996 3.84681C24.117 3.83518 24.1367 3.82134 24.1581 3.80624L24.1583 3.8061L24.1584 3.80604C24.2081 3.77109 24.2673 3.72937 24.3313 3.69235L25.1277 4.61913ZM21.6651 4.08345C21.6363 4.22844 21.6363 4.37771 21.6651 4.5227L21.0859 4.00621C20.9851 4.05661 20.8924 4.12168 20.8108 4.19929L21.2452 4.61924C21.0704 4.64745 20.8979 4.68777 20.7287 4.73992C20.6075 4.69639 20.4995 4.62251 20.4149 4.52532C20.3304 4.42813 20.2723 4.31089 20.246 4.18481C20.106 3.70211 20.637 3.09874 21.6651 4.08345ZM7.63019 3.93741L7.63881 3.92888V3.94819L7.63019 3.93741ZM7.32506 3.72615C7.4447 3.76651 7.55043 3.83978 7.63019 3.93741C7.53253 4.03485 7.44928 4.14575 7.38298 4.26677L7.03061 3.9675C6.95629 3.98966 6.88841 4.02939 6.8327 4.08335C6.90474 4.17774 6.96399 4.23761 7.02098 4.29521C7.07474 4.34954 7.1265 4.40184 7.18507 4.47916H6.76995C6.67543 4.411 6.60306 4.31652 6.56186 4.20751C6.52066 4.0985 6.51245 3.97978 6.53826 3.86613C6.69272 3.6103 7.02096 3.6103 7.32506 3.72615ZM15.3495 4.53707C14.3938 4.37586 13.4118 4.49316 12.5209 4.87496C12.3755 4.83613 12.243 4.75935 12.137 4.65248C12.0309 4.54562 11.9552 4.4125 11.9175 4.26676C11.8933 4.12885 11.9189 3.98681 11.9899 3.86612C12.5644 3.55236 13.3946 3.68752 14.0028 3.8275C14.4865 3.98215 14.9415 4.21536 15.3495 4.51776V4.53707ZM5.41105 4.31996C5.68599 4.36868 5.95257 4.45645 6.20267 4.58062C6.04011 4.35118 5.95705 4.07486 5.96615 3.79382L5.41105 4.31996ZM26.5457 5.31421C26.5015 5.21179 26.4632 5.11323 26.4245 5.01383C26.3575 4.84154 26.2895 4.66669 26.1885 4.46466L25.9133 4.5612C25.9697 4.69647 26.0129 4.8268 26.0545 4.95219C26.0841 5.04158 26.1129 5.12847 26.145 5.21285C25.6334 4.99563 25.1796 4.24745 25.7733 3.92887C26.3236 3.74544 26.7387 4.59982 26.5408 5.29008L26.5457 5.31421ZM23.4489 5.11163C23.4559 4.88398 23.4008 4.65872 23.2896 4.45998C22.8745 3.70697 22.2421 3.88557 22.1456 4.12692C21.964 4.45666 22.1183 4.74855 22.2947 5.08222L22.3001 5.09232C22.406 5.29269 22.6087 5.31144 22.8175 5.33075C22.9608 5.344 23.107 5.35752 23.2269 5.43021C23.1266 5.29113 23.0334 5.17372 22.9459 5.06366L22.9458 5.06356L22.9458 5.06351C22.8269 4.91387 22.7188 4.77779 22.6187 4.61928C22.6931 4.54034 22.7794 4.47356 22.8745 4.42137C23.0865 4.63358 23.2787 4.86462 23.4489 5.11163ZM9.40134 4.34889L9.39915 4.35597C7.72674 3.74333 7.86161 4.69177 7.92428 4.81228C8.11736 5.20809 8.73521 5.24671 9.26618 5.20809L8.53731 4.83159C8.56591 4.74599 8.60311 4.66351 8.64833 4.58541L9.43996 4.98123C9.35081 4.78461 9.33637 4.56234 9.39915 4.35597L9.40617 4.35854L9.40134 4.34889ZM11.6714 4.79289C11.5638 4.63192 11.4839 4.45409 11.4349 4.26675C11.2191 4.25618 11.0061 4.21389 10.8026 4.14125C10.6405 4.12217 10.4763 4.14449 10.3252 4.20611C10.1741 4.26773 10.0411 4.36665 9.93855 4.49362C9.89487 4.56925 9.87647 4.65685 9.88602 4.74367C9.89557 4.83048 9.93257 4.91199 9.99165 4.97632C10.2173 5.25979 10.4637 5.15326 10.7184 5.04311C10.8888 4.96946 11.0629 4.89419 11.237 4.93288C10.985 4.84276 10.7412 4.73134 10.5081 4.59981L10.5854 4.44052C10.7651 4.48661 10.9449 4.55251 11.1199 4.61667L11.1199 4.61668C11.3115 4.68691 11.4974 4.75506 11.6714 4.79289ZM31.4106 16.3771V16.3771C31.4249 17.0366 31.4395 17.7088 31.4284 18.3473C30.5016 16.9474 28.9377 16.4165 27.3399 16.513C25.8623 16.6017 24.724 17.5158 23.5787 18.4354C23.2274 18.7175 22.8755 19.0001 22.5129 19.2596C22.6094 18.5199 22.6626 17.7753 22.6722 17.0295C23.1425 16.75 23.5853 16.4268 23.9948 16.0641C24.9766 15.3314 25.6359 14.2465 25.8339 13.0376C26.2341 12.6602 26.5231 12.1803 26.6695 11.65C26.8159 11.1198 26.814 10.5596 26.6642 10.0303C27.0351 9.65825 27.2948 9.19006 27.4142 8.67842C27.5336 8.16677 27.5079 7.63197 27.3399 7.13415C27.2267 6.75277 27.0644 6.3877 26.8572 6.04807C26.8572 6.02549 26.8697 5.99352 26.8894 5.94339C26.9242 5.85425 26.9816 5.70769 27.031 5.45435C27.0817 5.16047 27.0817 4.86007 27.031 4.56618C29.7951 7.3256 31.3611 11.0627 31.3898 14.9684C31.3898 15.419 31.4001 15.8946 31.4106 16.377V16.377V16.377V16.3771ZM5.97912 5.58937C5.92335 5.38883 5.92335 5.17688 5.97912 4.97634H5.9936C5.85496 4.85474 5.68173 4.77958 5.49821 4.7614C5.31469 4.74322 5.13009 4.78293 4.97028 4.87497C4.88758 4.98396 4.83889 5.11494 4.8303 5.25148C4.85381 5.40489 4.91509 5.55005 5.00861 5.67391C5.10214 5.79777 5.22498 5.89644 5.36609 5.96105C5.66814 5.95466 5.96693 6.02438 6.23495 6.16378C5.95319 5.92033 5.65656 5.69463 5.34679 5.488V5.43008C5.45973 5.19791 5.60123 5.31853 5.74609 5.44202C5.8241 5.50852 5.90309 5.57585 5.97912 5.58937ZM7.93902 5.44938C7.96677 5.491 7.91228 5.54508 7.86508 5.59192C7.84659 5.61027 7.82922 5.62751 7.81835 5.64246L7.13291 5.31422C7.07597 5.38373 7.0228 5.45624 6.97362 5.53144C7.0729 5.6177 7.20126 5.66609 7.32096 5.71122C7.55628 5.79994 7.75813 5.87604 7.63975 6.20239C6.3799 6.20239 6.3799 5.47352 6.47162 5.15493C6.5403 5.04322 6.64632 4.95943 6.77089 4.91841C6.99596 4.89254 7.22382 4.9288 7.42975 5.02325C7.63567 5.11771 7.8118 5.26675 7.93902 5.45421V5.44938ZM17.7662 7.20638C17.7961 7.00194 17.7762 6.7933 17.7082 6.59818H17.6889C16.9938 5.16939 15.5168 4.72048 13.977 4.93287C13.6438 4.95366 13.3225 5.06426 13.0472 5.25293C12.7718 5.4416 12.5527 5.7013 12.413 6.00446C12.371 6.14271 12.3691 6.29007 12.4075 6.42936C12.446 6.56866 12.5232 6.69416 12.6302 6.79126C14.0649 6.44967 15.5648 6.498 16.9745 6.93124C17.1181 6.96094 17.2616 7.02109 17.3987 7.07852C17.5289 7.1331 17.6533 7.18521 17.7662 7.20638ZM26.4275 6.47757C26.6523 6.88666 26.7678 7.34684 26.7627 7.81362C26.7576 8.28039 26.6322 8.73796 26.3985 9.14207C25.8191 8.23963 25.1336 7.40991 24.3567 6.67065C24.0236 6.25553 23.7437 5.66663 24.0429 5.15014C24.1448 5.05061 24.2725 4.98158 24.4115 4.95087C24.5506 4.92016 24.6955 4.92899 24.8297 4.97637C25.1897 5.09984 25.52 5.29715 25.7992 5.55566C26.0785 5.81417 26.3007 6.12818 26.4516 6.47757H26.4275ZM22.0194 5.49301L22.0228 5.48799V5.49764L22.0194 5.49301ZM21.6149 5.14983C21.7737 5.23255 21.9119 5.34983 22.0194 5.49301C21.9054 5.65939 21.8583 5.86272 21.8877 6.0624C21.7117 5.89136 21.5264 5.73022 21.3326 5.5797C21.2766 5.59835 21.2516 5.63759 21.2273 5.6755C21.2077 5.70628 21.1886 5.73617 21.154 5.75347L21.7043 6.27962C21.6192 6.25552 21.5262 6.25057 21.4325 6.24558C21.2069 6.23357 20.9766 6.22131 20.8402 5.94173C20.7717 5.85422 20.7251 5.75167 20.7041 5.64255C20.6831 5.53343 20.6884 5.42088 20.7195 5.31422C20.7575 5.24046 20.8106 5.17563 20.8756 5.12403C20.9405 5.07243 21.0156 5.03524 21.0961 5.01494C21.277 5.02011 21.4544 5.06622 21.6149 5.14983ZM20.2277 5.35283C20.2339 5.55091 20.2581 5.74802 20.3001 5.94172L19.9091 5.66658C19.8795 5.706 19.8499 5.74039 19.8197 5.77553L19.8197 5.77555C19.7908 5.80924 19.7612 5.84363 19.7305 5.88379C19.8665 5.98654 20.0058 6.10205 20.1427 6.21565L20.1428 6.21569L20.143 6.21583L20.1431 6.21592C20.2441 6.2997 20.3438 6.38243 20.44 6.45821L19.9573 6.53544C19.6556 6.3166 19.4499 5.98983 19.3829 5.62314C19.3829 4.93288 20.0587 5.21284 20.2373 5.35283H20.2277ZM11.9506 5.92257L12.0279 5.58951V5.58468C11.4728 5.28541 10.7246 5.32402 10.5074 5.66191C10.4494 5.8212 10.2901 6.56456 12.0279 6.59352C12.1065 6.17808 11.8302 6.15048 11.5521 6.12271C11.4037 6.10789 11.2547 6.09302 11.159 6.01911C11.1758 5.98333 11.1707 5.9448 11.1659 5.90911C11.1596 5.86296 11.1541 5.82157 11.1976 5.79707C11.4462 5.85254 11.6975 5.89444 11.9506 5.92257ZM4.77599 6.07684C4.64514 6.48217 4.36023 6.44856 4.05662 6.41275C3.90105 6.3944 3.74057 6.37548 3.59338 6.41473L4.34156 5.44933C4.4525 5.67424 4.59922 5.87964 4.77599 6.05753V6.07684ZM9.98625 5.84045L9.9866 5.826L9.99626 5.84531L9.98625 5.84045ZM8.35508 5.84531C8.64754 5.49052 9.49241 5.60242 9.98625 5.84045C9.98351 6.00182 10.0227 6.16124 10.1002 6.30301C10.18 6.44901 10.2975 6.57098 10.4403 6.65624C10.7912 6.83319 11.1733 6.93978 11.565 6.97C10.5996 7.18321 9.59285 7.10938 8.66884 6.75761C8.0365 6.45834 8.25371 5.94185 8.35508 5.84531ZM24.2909 7.44303C24.1841 7.39538 24.0746 7.34993 23.9645 7.30424C23.3829 7.06291 22.7844 6.81455 22.476 6.19766C22.4374 6.06251 22.4132 5.8646 22.5967 5.84529C23.1913 5.84529 23.47 6.29235 23.754 6.74794C23.9126 7.00246 24.0729 7.25964 24.2909 7.44303ZM6.22198 7.1871L6.2799 6.67061L6.27025 6.68026C6.09958 6.55288 5.9033 6.46403 5.69496 6.41987C5.48662 6.3757 5.27118 6.37726 5.0635 6.42443C4.99318 6.46131 4.93304 6.51496 4.88842 6.58064C4.84379 6.64631 4.81606 6.72198 4.80767 6.80094C4.85111 7.25468 5.34347 7.57326 5.73928 7.69393L6.22198 7.55395L5.39174 7.07125C5.44113 7.00238 5.50146 6.94205 5.57034 6.89265C5.5933 6.89265 5.65117 6.92376 5.73221 6.96733L5.73223 6.96734L5.73223 6.96734C5.85559 7.03366 6.03263 7.12884 6.22198 7.1871ZM8.21215 7.18723L7.50258 7.11C7.47202 7.18565 7.45251 7.2653 7.44466 7.34652H7.50258C7.81538 7.39016 8.09528 7.43655 8.41665 7.48981L8.41672 7.48982L8.41677 7.48983C8.52186 7.50724 8.63139 7.52539 8.74795 7.54442L8.69505 7.55447C8.0615 7.67504 7.19208 7.84048 6.79301 7.21136C6.79301 7.20018 6.78967 7.18279 6.78546 7.16088L6.78546 7.16087C6.75147 6.98412 6.66107 6.514 7.81634 6.65143C7.84256 6.74784 7.89043 6.83699 7.95632 6.91209C8.03079 7.00753 8.11671 7.09345 8.21215 7.16792V7.18723ZM23.2112 8.84753C23.2242 8.49306 23.1336 8.14248 22.9505 7.83869C22.5982 7.24497 21.6279 6.27957 21.1163 6.82985C21.0553 6.92225 21.0328 7.03483 21.0535 7.1436C21.1298 7.74311 21.8762 8.13203 22.57 8.49358C22.798 8.61235 23.0202 8.72817 23.2112 8.84753ZM4.34163 6.83001C4.39114 7.05527 4.49375 7.26544 4.6409 7.44303C4.59209 7.42957 4.54754 7.41713 4.50611 7.40557L4.5061 7.40556C4.30992 7.3508 4.18392 7.31563 4.00857 7.28374C3.97463 7.35349 3.94717 7.4262 3.92651 7.50096C4.15989 7.60408 4.38108 7.66601 4.6175 7.73221C4.8016 7.78376 4.99494 7.83789 5.21049 7.91608C4.63366 8.01557 4.04078 7.96062 3.49208 7.75679C3.39642 7.68278 3.32862 7.57858 3.2997 7.46114C3.27077 7.34371 3.28244 7.21994 3.33279 7.10997C3.51138 6.72864 3.98443 6.77208 4.34163 6.83001ZM20.7017 7.50092C20.6138 7.37121 20.5531 7.22508 20.5231 7.07132H20.5134V6.96995C20.1949 6.93134 19.7218 6.98926 19.7846 7.52023C19.8521 7.72296 20.1466 8.39392 21.2327 8.15739C21.1436 8.11234 21.0594 8.07029 20.9784 8.02987L20.9781 8.02974L20.9779 8.02961L20.9776 8.02949L20.9776 8.02948C20.7032 7.89252 20.4663 7.7743 20.2093 7.6216L20.2177 7.59622C20.2385 7.5332 20.2716 7.43301 20.301 7.36577C20.375 7.3915 20.4222 7.40866 20.4596 7.42225L20.4596 7.42226C20.5344 7.44943 20.5697 7.46231 20.7017 7.50092ZM3.71143 8.25399C3.58545 8.36066 3.49131 8.49999 3.43936 8.65668C3.38741 8.81337 3.37967 8.98135 3.41699 9.14216C3.45624 9.29572 3.53269 9.43727 3.63961 9.55428C3.74652 9.6713 3.8806 9.76019 4.03001 9.81311C3.8909 9.85957 3.76555 9.93994 3.66527 10.047C3.56499 10.154 3.49293 10.2843 3.4556 10.4261C3.42412 10.6203 3.45034 10.8193 3.53101 10.9987C3.61167 11.178 3.74322 11.3297 3.90934 11.435C3.68822 11.3457 3.45046 11.3051 3.21224 11.3159C2.97402 11.3267 2.74093 11.3888 2.52882 11.4977C2.39564 11.5802 2.29151 11.7022 2.23094 11.8467C2.17038 11.9912 2.15639 12.151 2.19093 12.3038C2.32643 12.7243 2.61618 13.0779 3.00186 13.2934C2.72655 13.2645 2.44859 13.3118 2.19832 13.4301C1.94805 13.5484 1.73511 13.7332 1.58273 13.9643C1.52401 14.1122 1.51149 14.2744 1.54682 14.4295C1.58215 14.5846 1.66368 14.7253 1.78063 14.8332C1.99914 15.0212 2.25467 15.1614 2.53072 15.2445C2.80676 15.3277 3.09717 15.352 3.3832 15.3159C3.22913 15.3844 3.09211 15.4862 2.98196 15.6138C2.87181 15.7415 2.79124 15.892 2.74603 16.0544C2.72317 16.2179 2.74789 16.3845 2.81723 16.5343C2.88657 16.6841 2.99759 16.8108 3.13702 16.8991C3.4203 17.0643 3.7402 17.1566 4.06795 17.1675C4.3957 17.1785 4.72104 17.1078 5.01472 16.9619L5.37192 16.7254C6.71382 17.7535 8.39362 16.8605 9.57623 16.1316C10.1646 15.7864 10.7156 15.3464 11.2673 14.9058C12.0734 14.262 12.881 13.6169 13.8095 13.2644C14.3634 12.9551 14.9754 12.7641 15.6068 12.7035C16.2383 12.6428 16.8754 12.7138 17.478 12.912C17.9949 13.059 18.4653 13.3364 18.8441 13.7176C19.2228 14.0989 19.497 14.5711 19.6405 15.089C19.9929 16.3151 19.7805 17.7149 19.5005 18.8975C19.2023 18.3796 18.7639 17.9563 18.2359 17.6763C18.0493 17.1992 17.7382 16.7809 17.3349 16.4651C16.9316 16.1492 16.4509 15.9474 15.943 15.8806C15.7878 15.5429 15.5481 15.2508 15.2471 15.0327C14.9461 14.8145 14.5939 14.6777 14.2246 14.6353C14.0172 14.6005 13.8044 14.6205 13.6071 14.6933C13.4098 14.7661 13.235 14.8892 13.0999 15.0504C13.0586 15.1122 13.0246 15.1787 12.9986 15.2483C12.9583 15.241 12.9193 15.228 12.8827 15.2097C12.6398 15.1162 12.3792 15.0776 12.1197 15.0968C11.8601 15.116 11.608 15.1925 11.3815 15.3207C11.2685 15.4076 11.1761 15.5185 11.111 15.6453C11.0459 15.7722 11.0097 15.9119 11.005 16.0544C11.0347 16.3112 11.1627 16.5465 11.3622 16.7109C10.7106 16.7109 10.0348 16.7881 9.72104 17.4205C9.67736 17.5399 9.65135 17.6651 9.64381 17.7921C9.36593 17.8016 9.09762 17.896 8.87498 18.0626C8.65233 18.2291 8.48603 18.4599 8.39845 18.7237C8.3687 18.8634 8.3729 19.0083 8.4107 19.146C8.44849 19.2837 8.51878 19.4104 8.61566 19.5154C8.76842 19.6571 8.94903 19.7656 9.14599 19.8337C9.34295 19.9018 9.55194 19.9282 9.75966 19.9112C9.75966 20.3022 10.1941 20.6208 10.532 20.7414C10.9169 20.8239 11.3179 20.7867 11.6811 20.6348C12.0443 20.483 12.3524 20.2238 12.5641 19.8919L12.7041 19.6891H13.3365C14.161 19.6891 14.8159 19.2189 15.4636 18.7538C15.6691 18.6063 15.8738 18.4593 16.083 18.3279C16.3426 18.2053 16.6286 18.1495 16.9153 18.1655C17.2019 18.1815 17.4799 18.2689 17.7242 18.4196C18.1406 18.6805 18.465 19.0651 18.6519 19.5195C18.8389 19.9739 18.8791 20.4754 18.7668 20.9538C18.7056 21.2649 18.5789 21.5595 18.3952 21.8178C13.7516 23.9948 7.05654 24.0527 2.65432 21.3641C1.80036 20.8225 1.15278 20.01 0.815236 19.0568C0.835644 18.3439 0.828442 17.6314 0.821299 16.9247C0.8031 15.1243 0.785288 13.3621 1.22553 11.7294C1.549 10.2636 2.10121 8.85782 2.86188 7.56373C2.93873 7.73782 3.05582 7.89118 3.20352 8.01119C3.35121 8.13119 3.52529 8.21441 3.71143 8.25399ZM18.6721 10.8799C18.6573 10.5648 18.6005 10.2531 18.5032 9.95309C17.9095 8.35053 16.2345 7.56373 14.5789 7.56373C13.5652 7.64096 12.3777 7.89679 12.0254 8.98769C12.0004 9.16349 12.0175 9.34271 12.0755 9.51057C12.1334 9.67842 12.2304 9.83011 12.3584 9.95309C13.4252 10.904 14.9892 10.764 16.389 10.624C17.1569 10.6292 17.9221 10.7149 18.6721 10.8799ZM12.0267 7.68439C11.6015 8.09819 11.0553 8.36539 10.4676 8.44706C10.2626 8.41238 10.0522 8.43301 9.85784 8.50683C9.66353 8.58066 9.49244 8.70499 9.36221 8.86701C8.29545 9.21938 6.94872 9.44142 5.92539 8.86701C5.85778 8.82837 5.80051 8.77395 5.75848 8.70839C5.71646 8.64283 5.69092 8.56807 5.68404 8.4905C5.67679 8.40741 5.69631 8.32418 5.73973 8.25297C5.78315 8.18175 5.84821 8.12629 5.92539 8.09469C6.24225 7.89401 6.61046 7.96552 6.9626 8.03391C7.09327 8.05929 7.22173 8.08424 7.34453 8.09469C8.21542 8.16811 9.02125 8.03173 9.824 7.89588C10.5518 7.77271 11.2771 7.64996 12.046 7.68439H12.0267ZM25.6185 11.5314C25.7633 11.2297 25.8423 10.9006 25.8502 10.566V10.5564C25.8309 9.29172 24.7496 8.16703 23.6443 7.72777C23.9579 8.20982 24.0786 8.79232 23.9822 9.3593C24.7002 9.93561 25.2627 10.6823 25.6185 11.5314ZM5.25046 8.86684H4.57951C4.56913 8.94534 4.56913 9.02486 4.57951 9.10336H4.61812C4.95602 9.11236 5.29299 9.14299 5.62696 9.19507C5.49593 9.31464 5.39503 9.4635 5.33252 9.6295C5.30209 9.6295 5.27161 9.62961 5.24112 9.62972C4.69608 9.63166 4.14955 9.6336 3.88442 9.01647C3.85876 8.94222 3.8542 8.8623 3.87124 8.7856C3.88829 8.70891 3.92627 8.63845 3.98096 8.58204C4.13676 8.4486 4.32413 8.35724 4.52522 8.31669C4.72631 8.27613 4.93444 8.28772 5.12978 8.35035C5.14891 8.42641 5.16182 8.50389 5.1684 8.58204C5.18784 8.67313 5.22035 8.76093 5.26494 8.8427L5.25046 8.86684ZM10.7387 9.54678L10.7387 9.54679C10.9432 9.61167 11.1476 9.67654 11.4348 9.77453C11.2798 9.48106 11.0563 9.22936 10.7831 9.04082C9.75499 8.63053 9.364 9.51387 10.0494 9.93382C10.2333 10.0517 10.4426 10.1242 10.66 10.1452C10.8774 10.1661 11.0966 10.1351 11.2996 10.0545C11.1556 9.98658 11.0299 9.93621 10.907 9.88694L10.907 9.88693L10.907 9.88692C10.7416 9.82063 10.5811 9.7563 10.3873 9.65385C10.4085 9.58702 10.4359 9.52237 10.4694 9.46077C10.5635 9.49118 10.6511 9.51898 10.7387 9.54678ZM7.20677 9.85156V10.3343C7.09861 10.2833 6.99045 10.2227 6.88229 10.1622L6.88228 10.1622L6.88227 10.1622L6.88226 10.1622L6.88225 10.1622L6.88224 10.1622L6.88224 10.1622L6.88223 10.1622L6.88222 10.1622L6.88221 10.1622L6.8822 10.1622L6.88219 10.1622L6.88219 10.1622L6.88218 10.1622L6.88217 10.1622L6.88216 10.1622L6.88215 10.1622L6.88214 10.1621L6.88214 10.1621L6.88213 10.1621L6.88212 10.1621L6.88211 10.1621L6.8821 10.1621L6.88209 10.1621L6.88209 10.1621L6.88208 10.1621L6.88207 10.1621L6.88206 10.1621C6.73447 10.0795 6.58687 9.99693 6.43928 9.93845C6.39803 10.015 6.36564 10.0959 6.34274 10.1798L6.79647 10.4115C6.56483 10.3718 6.32721 10.385 6.10139 10.4501C5.96623 10.4501 5.84556 10.2956 5.78763 10.1943C5.75075 10.1064 5.73845 10.0101 5.75205 9.91569C5.76566 9.82131 5.80465 9.73241 5.86486 9.65848C5.97196 9.55933 6.10452 9.49192 6.24773 9.46379C6.39094 9.43566 6.53916 9.44792 6.6758 9.49919C6.87033 9.58155 7.04977 9.69574 7.20677 9.83708V9.85156ZM9.12776 10.4213C9.30515 10.4804 9.49703 10.5444 9.75286 10.624C9.42032 10.1918 8.97649 9.85805 8.46888 9.65863C8.333 9.60874 8.18505 9.60189 8.04514 9.63902C7.90523 9.67616 7.78015 9.75548 7.6869 9.86619C7.6509 9.94156 7.63222 10.024 7.63222 10.1075C7.63222 10.1911 7.6509 10.2735 7.6869 10.3489C8.11168 10.9571 8.94192 10.9233 9.6177 10.8606C9.23633 10.751 8.86622 10.6056 8.51232 10.4261C8.53425 10.365 8.56004 10.3054 8.58955 10.2475C8.78746 10.3079 8.95037 10.3622 9.12776 10.4213ZM5.21215 10.0931C5.22355 10.2315 5.27158 10.3643 5.35132 10.478C5.43107 10.5917 5.53964 10.6821 5.66589 10.7399C5.45646 10.7012 5.27283 10.6432 5.07338 10.5802C4.97403 10.5488 4.87076 10.5162 4.75842 10.4841C4.72588 10.5627 4.71162 10.6109 4.69853 10.6551L4.69852 10.6551L4.69852 10.6551C4.6883 10.6896 4.6788 10.7217 4.66188 10.764C4.78589 10.8213 4.92168 10.8644 5.05877 10.9079C5.19917 10.9524 5.34093 10.9974 5.47281 11.0585C5.13051 11.017 4.78326 11.0567 4.45914 11.1743C4.25582 11.1184 4.08253 10.9849 3.97644 10.8027C3.9447 10.7195 3.93925 10.6287 3.96083 10.5423C3.98242 10.456 4.02999 10.3784 4.09712 10.32C4.24625 10.1902 4.42682 10.1018 4.6208 10.0637C4.81477 10.0256 5.01536 10.0391 5.2025 10.1027L5.21215 10.0931ZM11.2599 11.7922C12.0902 12.0673 13.2149 12.1059 13.8858 11.5315L13.8665 11.5074C13.3703 11.3619 12.8861 11.1779 12.4184 10.9571C12.3439 10.9309 12.2646 10.8989 12.1821 10.8656L12.1821 10.8656C11.7619 10.696 11.2579 10.4926 10.8786 10.8557C10.82 10.9137 10.7792 10.9872 10.7612 11.0677C10.7433 11.1482 10.7488 11.2321 10.7772 11.3095C10.8768 11.5218 11.0476 11.6926 11.2599 11.7922ZM7.84362 11.5895L7.92085 11.8115C7.71155 11.7117 7.51697 11.6119 7.32722 11.5146C7.14062 11.4189 6.9587 11.3256 6.77202 11.2371C6.72944 11.3139 6.69077 11.3929 6.65618 11.4736L7.2692 11.8115C7.06815 11.8428 6.8739 11.9081 6.69479 12.0046C6.55353 11.9473 6.42521 11.8622 6.31742 11.7544C6.20963 11.6466 6.12457 11.5183 6.06728 11.3771C6.03319 11.2892 6.032 11.1919 6.06393 11.1032C6.09586 11.0145 6.15876 10.9404 6.24105 10.8944C6.54735 10.8263 6.86733 10.8569 7.15518 10.9817C7.44304 11.1066 7.68402 11.3193 7.84362 11.5895ZM6.15923 12.2409C5.93208 12.0647 5.74458 11.8427 5.60895 11.5893C5.38499 11.4748 5.12521 11.4523 4.8849 11.5265C4.72561 11.5844 4.56632 11.7437 4.56632 11.9223C4.58976 12.0699 4.65424 12.2079 4.7524 12.3206C4.85056 12.4333 4.97844 12.5161 5.12143 12.5595C5.47042 12.4755 5.83437 12.4755 6.18336 12.5595L5.16004 12.1202H5.13591C5.17904 12.042 5.21772 11.9614 5.25175 11.8789C5.39456 11.933 5.52476 11.9871 5.65496 12.0412L5.65497 12.0412C5.81522 12.1077 5.97547 12.1743 6.15923 12.2409ZM11.9879 12.5547C10.9598 12.9843 9.51651 13.0374 8.67178 12.212C8.57409 12.1175 8.50972 11.9939 8.48836 11.8596C8.48664 11.7928 8.50698 11.7273 8.54625 11.6732C8.58551 11.6191 8.64151 11.5794 8.70557 11.5604C9.39941 11.4164 9.93986 11.7211 10.4879 12.0302C10.9503 12.2909 11.4181 12.5547 11.9879 12.5547ZM4.24427 12.5645C4.13571 12.4316 4.06116 12.2742 4.02706 12.1059C3.87841 11.9667 3.69633 11.8682 3.49844 11.82C3.30055 11.7718 3.09357 11.7755 2.89754 11.8308C2.83875 11.8694 2.79009 11.9216 2.75565 11.9829C2.72121 12.0442 2.702 12.1129 2.69963 12.1832C2.69963 12.5549 3.00856 12.8638 3.32714 12.9989C3.49191 13.0688 3.66055 13.0238 3.8344 12.9774C3.9967 12.9341 4.16353 12.8896 4.33598 12.9362L3.37058 12.4776C3.39075 12.444 3.40155 12.4167 3.41313 12.3873C3.4265 12.3535 3.44091 12.317 3.47195 12.2652C3.66678 12.3302 3.83102 12.3973 3.99701 12.4651L3.99705 12.4652L3.99709 12.4652C4.07783 12.4982 4.15898 12.5313 4.24427 12.5645ZM9.40008 13.1534C9.03749 13.3645 8.62257 13.4689 8.20321 13.4544C7.78386 13.4398 7.37715 13.307 7.03003 13.0713C6.85143 12.9361 6.67283 12.7576 6.76937 12.521C6.8961 12.3866 7.05642 12.2884 7.23376 12.2367C7.41111 12.1849 7.59907 12.1814 7.77821 12.2266C8.05509 12.3313 8.30393 12.5033 8.55393 12.6761C8.82257 12.8618 9.09255 13.0484 9.40008 13.1534ZM5.49145 13.2112C5.84767 13.2389 6.20216 13.2856 6.55339 13.3512L6.55821 13.3609C6.55821 13.3609 6.55821 13.163 6.07551 12.9457C5.3225 12.6368 4.74809 12.9457 4.92186 13.4284C5.0129 13.6469 5.17429 13.8287 5.38043 13.9449C5.52864 13.7495 5.73741 13.6086 5.97415 13.5443L5.49145 13.4478C5.46588 13.435 5.47417 13.3714 5.48269 13.3061C5.48704 13.2727 5.49145 13.2389 5.49145 13.2112ZM4.48344 13.4913C4.49513 13.6686 4.56273 13.8376 4.67652 13.974C4.58074 13.9887 4.46108 13.9437 4.34728 13.9009C4.16284 13.8316 3.99382 13.768 3.96695 13.974C3.96695 14.09 4.03498 14.0998 4.11791 14.1118C4.14544 14.1158 4.1746 14.12 4.20347 14.1285H4.19382L4.63307 14.2684L4.61088 14.2808C4.39792 14.3995 4.14189 14.5422 3.89937 14.365C3.72077 14.2684 3.48425 14.0754 3.48425 13.8533C3.4816 13.7772 3.50179 13.7021 3.54222 13.6376C3.58266 13.573 3.64148 13.5221 3.71112 13.4913C3.82474 13.4228 3.95492 13.3865 4.08762 13.3865C4.22032 13.3865 4.35051 13.4228 4.46413 13.4913H4.48344ZM7.54476 15.1082C8.84503 14.946 10.068 14.4017 11.0588 13.5442C10.7874 13.6039 10.545 13.6707 10.3083 13.7358C9.66508 13.9129 9.06388 14.0783 8.03711 14.0607C7.7825 14.0607 7.52006 14.0149 7.26311 13.97C6.76501 13.883 6.28754 13.7996 5.92771 14.0607C5.8566 14.105 5.80231 14.1719 5.77346 14.2506C5.7446 14.3292 5.74283 14.4153 5.76842 14.4951C5.90841 15.0502 6.87381 15.1468 7.54476 15.1082ZM3.0213 13.747C3.02206 13.9113 3.04978 14.0743 3.10336 14.2297C3.04376 14.2297 2.98291 14.218 2.92509 14.2069C2.78626 14.1802 2.66497 14.1569 2.62066 14.3069C2.58697 14.4209 2.7704 14.4584 2.9998 14.5053C3.19762 14.5458 3.42961 14.5932 3.58606 14.7027L3.8081 14.8234C3.19508 14.9971 2.36001 15.0165 2.03177 14.4276C2.01448 14.3553 2.01241 14.2802 2.02571 14.2071C2.039 14.1339 2.06737 14.0644 2.109 14.0028C2.36892 13.8034 2.69562 13.7118 3.0213 13.747ZM4.77542 15.1082C5.04908 15.0573 5.32845 15.0443 5.60566 15.0696L5.59367 15.0556L5.59364 15.0556L5.59362 15.0556L5.59362 15.0556C5.48148 14.9248 5.36563 14.7896 5.26777 14.6545C5.04581 14.6168 4.81762 14.6506 4.61613 14.751C4.43753 14.8476 4.22031 15.0503 4.34099 15.2868C4.46031 15.4843 4.65292 15.6266 4.87678 15.6826C5.09648 15.7806 5.23097 15.6562 5.37307 15.5247C5.43391 15.4684 5.49614 15.4108 5.56704 15.3689L4.77542 15.2868V15.1082ZM15.2656 15.7793C15.0977 15.7425 14.9144 15.6827 14.7262 15.6212C14.5195 15.5537 14.3069 15.4844 14.1023 15.4414C14.0641 15.5245 14.0365 15.6121 14.0202 15.7021C14.131 15.7486 14.1909 15.7687 14.2499 15.7885L14.2499 15.7885L14.25 15.7885C14.3195 15.8118 14.3879 15.8347 14.5367 15.9C14.443 15.9 14.3564 15.9323 14.2705 15.9645C14.1573 16.0068 14.0451 16.0487 13.9189 16.0158C13.7515 15.9177 13.6158 15.7736 13.5279 15.6007C13.5037 15.5053 13.5141 15.4043 13.5575 15.3159C13.6008 15.2275 13.6741 15.1573 13.7644 15.118C14.0515 15.0441 14.355 15.0681 14.6269 15.1861C14.8987 15.3042 15.1235 15.5095 15.2656 15.7696V15.7793ZM5.66447 16.1171C5.64516 16.4116 5.99753 16.5274 6.20027 16.5709V16.5612C7.50356 16.7784 8.65238 16.064 9.57916 15.2579C9.06254 15.449 8.52427 15.5755 7.9766 15.6344C7.65896 15.7098 7.35862 15.6641 7.05971 15.6186C6.72725 15.5679 6.39657 15.5175 6.0458 15.6344C5.93963 15.6647 5.84568 15.7276 5.77724 15.8143C5.70881 15.9009 5.66935 16.0068 5.66447 16.1171ZM13.0747 15.8034C13.1348 15.9862 13.2536 16.144 13.4125 16.2524C12.9502 16.1325 12.4943 15.9891 12.0465 15.8228L11.95 16.0544C12.01 16.097 12.0765 16.1175 12.1435 16.1381C12.2057 16.1573 12.2683 16.1765 12.3265 16.2137C12.2228 16.2137 12.1323 16.2643 12.0424 16.3146C11.944 16.3696 11.8463 16.4243 11.7327 16.4116C11.5155 16.3875 11.4335 16.2524 11.4335 15.9338C11.4335 15.6152 12.2444 15.287 13.0553 15.8034H13.0747ZM3.83165 16.0544C4.00727 16.0211 4.1845 15.9969 4.36262 15.982L4.38675 15.9916C4.29861 15.9268 4.20674 15.8671 4.11161 15.813C4.05416 15.749 4.00095 15.6813 3.95232 15.6103C3.8126 15.6198 3.67714 15.6624 3.55712 15.7346C3.43711 15.8068 3.33597 15.9065 3.26206 16.0254C3.2353 16.1125 3.23626 16.2057 3.26479 16.2921C3.29333 16.3786 3.34804 16.4541 3.42135 16.5081C3.81234 16.8267 4.54604 16.6915 4.96116 16.4743C5.0577 16.4357 5.2363 16.315 5.15907 16.1751C4.72011 16.2505 4.27669 16.2973 3.83165 16.315C3.82208 16.2284 3.82208 16.141 3.83165 16.0544ZM17.1057 17.3046C17.0951 17.3036 17.0846 17.3027 17.0741 17.3019C16.9065 17.0057 16.6558 16.7649 16.3526 16.6095C16.0508 16.4668 15.7211 16.3928 15.3872 16.3928C15.0534 16.3928 14.7237 16.4668 14.4218 16.6095C14.1419 16.7108 13.6688 17.3625 14.4798 17.5218C14.9567 17.5928 15.4122 17.5065 15.8661 17.4206C16.2656 17.3449 16.6638 17.2695 17.0741 17.3019L17.0813 17.3147L17.0863 17.3239L17.1057 17.3046ZM13.5286 17.0247V16.9281V16.9185C13.4147 16.7946 13.2731 16.6993 13.1154 16.6406C12.9577 16.5819 12.7883 16.5613 12.6211 16.5806C12.5075 16.5733 12.3943 16.5996 12.2956 16.6562C12.1968 16.7129 12.117 16.7974 12.066 16.8992C12.0315 17.0171 12.0385 17.1433 12.0859 17.2567C12.1334 17.3701 12.2184 17.4637 12.3267 17.5218C12.5333 17.6371 12.764 17.7023 13.0004 17.7124C13.2368 17.7224 13.4722 17.677 13.6879 17.5798C13.6788 17.5615 13.6704 17.5419 13.662 17.5221L13.662 17.522C13.6349 17.4581 13.6069 17.392 13.5479 17.3625L12.679 17.2033H12.5825C12.5894 17.1895 12.5914 17.1602 12.5937 17.1258C12.5979 17.0637 12.6032 16.9846 12.6404 16.9474L12.6932 16.9544L12.7422 16.961C12.993 16.9946 13.2176 17.0247 13.5286 17.0247ZM31.2226 19.1195C31.4052 19.4857 31.4868 19.8939 31.4592 20.3021C30.8453 19.6807 30.079 19.2315 29.237 18.9994C28.3949 18.7673 27.5067 18.7604 26.6611 18.9795C25.412 19.2477 24.3778 20.0385 23.3409 20.8315C22.8471 21.2091 22.3527 21.5872 21.8341 21.9095L22.3168 20.1863C23.4152 19.2582 24.5712 18.4005 25.7778 17.6183C26.4307 17.2932 27.153 17.1321 27.8822 17.1489C28.6114 17.1657 29.3256 17.36 29.9628 17.7149C30.5025 18.06 30.938 18.5456 31.2226 19.1195ZM11.6467 17.4474C11.6263 17.4066 11.6116 17.377 11.6116 17.3382H11.5923C10.6848 16.8024 9.69527 17.8113 10.5496 18.2505C10.8066 18.3421 11.0834 18.3626 11.351 18.3099C11.6186 18.2572 11.8671 18.1333 12.0702 17.9513C12.0066 17.9039 11.9525 17.845 11.9109 17.7775L10.8007 17.9126V17.6375L11.6888 17.541C11.6741 17.5023 11.6593 17.4727 11.6467 17.4475L11.6467 17.4474ZM14.9922 18.2507C14.6966 18.5875 14.3193 18.8425 13.8966 18.9913C13.4739 19.1401 13.0201 19.1776 12.5787 19.1002C12.376 18.9989 12.2794 18.9265 12.2215 18.7575C12.168 18.468 12.316 18.3963 12.4605 18.3263C12.4726 18.3204 12.4847 18.3146 12.4966 18.3086C12.8897 18.1941 13.3061 18.1858 13.7034 18.2845C14.1311 18.3264 14.5624 18.315 14.9874 18.2507H14.9922ZM9.97052 18.6815L9.97064 18.6815C10.069 18.6706 10.1685 18.6596 10.2697 18.6463C10.1663 18.6138 10.0849 18.5319 10.0048 18.4512C9.88294 18.3285 9.76392 18.2087 9.57462 18.2698C9.42087 18.2906 9.27513 18.3509 9.15162 18.4448C9.02811 18.5387 8.93104 18.663 8.86988 18.8056C8.80713 18.9891 8.78782 19.4718 9.57462 19.4718C9.85275 19.5119 9.96864 19.3483 10.0844 19.1849C10.1495 19.093 10.2145 19.0012 10.3083 18.9456L9.45877 18.9987C9.45461 18.9167 9.44001 18.8356 9.41533 18.7574C9.59898 18.7225 9.78263 18.7023 9.97037 18.6815L9.9704 18.6815L9.97044 18.6815L9.97048 18.6815L9.97052 18.6815ZM11.7335 19.1773C11.4907 19.3358 11.2393 19.4808 10.9805 19.6117C10.9424 19.6625 10.9816 19.7071 11.0225 19.7536C11.0437 19.7778 11.0655 19.8025 11.0771 19.829C11.4215 19.6934 11.5629 19.6274 11.7588 19.5358L11.7588 19.5358L11.7591 19.5357L11.7597 19.5354C11.8216 19.5065 11.889 19.475 11.9701 19.438C12.0471 19.4672 12.1201 19.5061 12.1873 19.5538C12.0875 19.7628 11.9382 19.9442 11.7522 20.0822C11.5663 20.2201 11.3494 20.3105 11.1205 20.3454C10.7247 20.3454 10.464 20.3454 10.3289 20.0076C10.2973 19.909 10.2936 19.8035 10.3183 19.703C10.343 19.6024 10.3952 19.5107 10.4689 19.438C10.6234 19.2863 10.8113 19.1729 11.0174 19.1067C11.2236 19.0405 11.4424 19.0233 11.6563 19.0566L11.7384 19.1773H11.7335ZM31.4261 26.553V21.2144V21.2095C31.1041 20.6742 30.6569 20.225 30.123 19.9004C29.5892 19.5759 28.9845 19.3858 28.361 19.3463C26.3847 19.0937 24.9514 20.2459 23.5202 21.3964L23.5202 21.3964C22.9275 21.8729 22.3351 22.3492 21.7046 22.7252C21.6659 23.2276 21.7401 23.7323 21.9218 24.2023C22.1839 24.7409 22.5631 25.2142 23.0316 25.5875C23.5001 25.9608 24.0461 26.2247 24.6297 26.3599C26.8708 26.7825 29.1647 26.8477 31.4261 26.553ZM6.79489 23.5652C10.5489 24.3092 14.4376 23.959 17.9983 22.5564C17.71 23.0979 17.3331 23.5873 16.8833 24.0045C12.1094 26.0705 5.25025 26.0318 0.848027 23.208V20.5049C2.34528 22.4307 4.60601 23.0071 6.77775 23.5609L6.77777 23.5609L6.79489 23.5652ZM15.8986 24.8249C15.0167 25.1351 14.1132 25.3803 13.1955 25.5586C9.01739 26.4843 4.64686 25.9119 0.848027 23.9416V26.4082C2.3033 26.8416 3.81386 27.0611 5.3323 27.0598C5.54195 27.052 5.75179 27.0446 5.96166 27.0372C9.52577 26.9113 13.0996 26.7851 15.8986 24.8249Z" fill="#C23E45"/>
<path fill-rule="evenodd" clip-rule="evenodd" d="M73.2194 7.07489C72.9931 7.24677 72.811 7.47017 72.6884 7.72653C72.6049 7.87325 72.5648 8.04062 72.5726 8.20923V8.32991C73.1518 8.55195 73.34 8.77882 73.34 9.1698C73.3439 9.43061 73.2447 9.68241 73.0639 9.87043C72.8831 10.0585 72.6354 10.1675 72.3746 10.1738C71.8195 10.1738 71.4768 9.72491 71.4768 9.04913C71.4795 8.65043 71.5987 8.2612 71.8195 7.92927C71.931 7.75785 72.0569 7.59635 72.1961 7.44657C72.4122 7.20289 72.6551 6.98431 72.9201 6.79492L73.2194 7.07489ZM36.6848 15.4497C36.869 15.3445 37.0225 15.1929 37.13 15.01C37.2376 14.8271 37.2954 14.6192 37.2978 14.4071V7.98235C37.3085 7.77253 37.2653 7.56346 37.1724 7.37504C37.0794 7.18662 36.9398 7.02513 36.7668 6.90593H39.3686C39.2118 7.03878 39.0851 7.20347 38.9969 7.38906C38.9086 7.57466 38.8609 7.7769 38.8569 7.98235V10.2752H42.984V7.98235C42.9834 7.77532 42.9362 7.57109 42.8459 7.38476C42.7557 7.19843 42.6247 7.03478 42.4627 6.90593H45.0741C44.6252 7.34519 44.5334 7.53344 44.5334 7.98235V14.3878C44.5299 14.6037 44.585 14.8166 44.693 15.0036C44.801 15.1906 44.9577 15.3448 45.1465 15.4497H42.3903C42.5874 15.3194 42.7524 15.1461 42.873 14.9429C42.9661 14.7805 43.0082 14.5938 42.9936 14.4071V11.3661H38.8472V14.3878C38.8428 14.6005 38.8944 14.8106 38.997 14.997C39.0995 15.1834 39.2493 15.3396 39.4313 15.4497H36.6848ZM47.3928 9.40165C47.7672 9.30094 48.154 9.25381 48.5417 9.26166C49.1895 9.20538 49.8359 9.3854 50.3614 9.7685C50.7621 10.1016 50.82 10.2898 50.82 11.1056V13.5963C50.82 14.1176 50.8924 14.2962 51.1531 14.4362C51.335 14.5273 51.5404 14.561 51.742 14.5327H52.0026L51.2351 15.4981C51.1086 15.5382 50.9768 15.5594 50.8441 15.5609C50.0911 15.5609 49.396 14.9672 49.396 14.3638V12.3799L49.0533 12.4861L48.4982 12.6068C48.1309 12.6752 47.7761 12.7989 47.4459 12.9736C47.3218 13.0469 47.2198 13.1525 47.151 13.2792C47.0821 13.4058 47.0489 13.5488 47.0549 13.6928C47.0549 14.2721 47.5376 14.6245 48.2858 14.6245C48.6229 14.6208 48.9572 14.5621 49.2754 14.4507L48.5513 15.4499C48.2386 15.5495 47.9139 15.6063 47.5859 15.6188C47.0561 15.6167 46.5476 15.4103 46.1663 15.0425C45.785 14.6747 45.5604 14.1739 45.5393 13.6446C45.5393 12.7564 46.2151 12.1965 47.5859 11.931L48.281 11.7862C49.063 11.6317 49.3333 11.4676 49.3333 11.067C49.3333 10.6663 48.9471 10.3477 48.3438 10.3477C48.1411 10.3451 47.9388 10.3645 47.7404 10.4057C47.2766 10.4951 46.8248 10.6376 46.3936 10.8304L47.3928 9.40165ZM52.212 9.39193C52.0253 9.42245 51.8364 9.43698 51.6472 9.43537L51.1356 9.39193C51.3091 9.45966 51.4633 9.56907 51.5845 9.71051C51.766 9.94942 51.9063 10.217 51.9996 10.5021L53.4477 14.1658L53.6118 14.5761C53.7325 14.8757 53.9215 15.1429 54.1637 15.3566C54.4059 15.5703 54.6946 15.7245 55.0068 15.807L56.7445 11.4627L57.7099 13.9921C57.7581 14.1159 57.821 14.2472 57.8916 14.3945L57.8917 14.3947L57.8917 14.3948C57.9201 14.454 57.9498 14.5159 57.9802 14.5809C58.0635 14.7581 58.162 14.9277 58.2747 15.0878C58.3729 15.2253 58.4977 15.3418 58.6415 15.4305C58.852 15.5921 59.0888 15.7162 59.3415 15.7974L62.1411 9.38228H60.2103C60.2424 9.41372 60.278 9.44126 60.3165 9.46433C60.5048 9.62845 60.5627 9.74913 60.5627 9.88911C60.5627 10.0291 60.553 10.0677 60.3503 10.5504L59.076 13.659L57.5844 9.38228H55.6536L55.7598 9.44985C55.9626 9.65259 56.0301 9.77809 56.0301 9.93255C55.998 10.142 55.9345 10.3454 55.8419 10.5359L54.6351 13.5818L52.994 9.17472C52.7413 9.27337 52.4793 9.34615 52.212 9.39193ZM63.6339 9.40159C64.0066 9.30089 64.3918 9.25376 64.7779 9.26161C65.4259 9.20399 66.0727 9.38415 66.5976 9.76845C67.0031 10.1015 67.0803 10.2898 67.0803 11.1055V13.5963C67.0803 14.1176 67.1528 14.2962 67.4086 14.4361C67.5923 14.5271 67.7992 14.5607 68.0023 14.5327H68.263L67.4955 15.4981C67.3689 15.5378 67.2372 15.559 67.1045 15.5608C66.3466 15.5608 65.6564 14.9671 65.6564 14.3637V12.3799L65.3137 12.486L64.7586 12.6067C64.3915 12.676 64.0368 12.7996 63.7063 12.9736C63.5828 13.0476 63.4814 13.1534 63.4127 13.2799C63.3439 13.4063 63.3103 13.5489 63.3153 13.6928C63.3153 14.272 63.798 14.6244 64.5462 14.6244C64.8849 14.6208 65.2207 14.5621 65.5405 14.4506L64.7923 15.4498C64.4796 15.5491 64.1549 15.6059 63.8269 15.6188C63.298 15.6155 62.7907 15.4085 62.4104 15.0408C62.0302 14.6731 61.8062 14.173 61.7851 13.6445C61.7851 12.7564 62.4561 12.1964 63.8269 11.9309L64.5269 11.7861C65.304 11.6317 65.5791 11.4675 65.5791 11.0669C65.5791 10.6663 65.1882 10.3477 64.5848 10.3477C64.3822 10.3452 64.1799 10.3646 63.9814 10.4056C63.5177 10.495 63.0658 10.6376 62.6347 10.8304L63.6339 9.40159ZM68.7927 15.025C68.7037 15.2028 68.5644 15.3505 68.3921 15.4498L70.8249 15.4305C70.4146 15.0974 70.3422 14.9236 70.3422 14.2816V9.13123C70.0613 9.25482 69.7604 9.32676 69.454 9.34361C69.2796 9.38064 69.101 9.39363 68.923 9.38223H68.4017C68.5601 9.48641 68.6881 9.63054 68.7728 9.80006C68.8576 9.96957 68.8961 10.1585 68.8844 10.3476V10.7145V14.3009C68.9162 14.5462 68.8846 14.7954 68.7927 15.025ZM70.2596 7.25715C70.0915 7.0818 69.861 6.97989 69.6181 6.97356L69.594 6.95425C69.4731 6.9586 69.3543 6.98681 69.2443 7.03728C69.1344 7.08774 69.0355 7.15946 68.9534 7.24829C68.8713 7.33713 68.8076 7.44133 68.7659 7.55489C68.7243 7.66846 68.7055 7.78914 68.7107 7.91C68.7144 8.1422 68.809 8.36369 68.9741 8.527C69.1393 8.69031 69.3618 8.78245 69.594 8.78368C69.8318 8.78889 70.062 8.70004 70.2346 8.53644C70.4073 8.37284 70.5084 8.14772 70.5159 7.91C70.5198 7.66711 70.4277 7.43249 70.2596 7.25715ZM74.458 15.025C74.3667 15.2028 74.2259 15.3504 74.0525 15.4498L76.4901 15.4305C76.0798 15.0974 76.0074 14.9236 76.0074 14.2816V9.13123C75.7265 9.25482 75.4257 9.32676 75.1193 9.34361C74.9449 9.38064 74.7662 9.39363 74.5883 9.38223H74.067C74.2253 9.48641 74.3533 9.63054 74.4381 9.80006C74.5228 9.96957 74.5613 10.1585 74.5497 10.3476V10.7145V14.3009C74.5814 14.5462 74.5498 14.7954 74.458 15.025ZM75.9249 7.25715C75.7567 7.0818 75.5262 6.97989 75.2834 6.97356V6.95425C75.1604 6.95544 75.039 6.98133 74.9262 7.03039C74.8135 7.07945 74.7118 7.15068 74.6271 7.23984C74.5425 7.329 74.4766 7.43427 74.4334 7.5494C74.3903 7.66453 74.3707 7.78715 74.3759 7.91C74.3797 8.1422 74.4743 8.36369 74.6394 8.527C74.8045 8.69031 75.027 8.78245 75.2592 8.78368C75.4967 8.78763 75.7262 8.69836 75.8985 8.53503C76.0709 8.37169 76.1724 8.14729 76.1812 7.91C76.1851 7.66711 76.093 7.43249 75.9249 7.25715ZM80.7235 15.4497C80.9048 15.3117 81.0573 15.1395 81.1724 14.9429C81.2437 14.7733 81.2798 14.591 81.2786 14.4071V8.00168C81.2981 7.82056 81.2699 7.63749 81.1966 7.47071C81.0919 7.26933 80.9568 7.08534 80.7959 6.92526H83.7163C85.7581 6.92526 86.9166 7.73137 86.9166 9.13602C86.9166 10.5407 85.6857 11.4675 83.9383 11.4675C83.6501 11.4828 83.3623 11.4298 83.0984 11.313C84.4693 11.1923 85.3237 10.4634 85.3237 9.3822C85.3237 8.46024 84.6141 7.84722 83.5473 7.84722H83.1129H82.8522V14.3878C82.8532 14.5725 82.8926 14.755 82.9681 14.9236C83.0851 15.1295 83.2509 15.3035 83.4508 15.4304L80.7235 15.4497ZM87.855 14.9043C87.788 15.1308 87.6403 15.3249 87.4398 15.4498L89.8485 15.4353C89.472 15.1167 89.3996 14.9285 89.3996 14.2865V11.8295C89.3996 10.8641 89.8051 10.3814 90.5967 10.3814C90.7599 10.3789 90.922 10.4088 91.0736 10.4692C91.2252 10.5297 91.3634 10.6196 91.48 10.7338V9.28572C91.3634 9.26831 91.2456 9.26024 91.1277 9.26158C90.5731 9.26358 90.0367 9.46001 89.612 9.81669C89.5883 9.84828 89.5517 9.88706 89.5061 9.93537L89.5059 9.9355C89.4679 9.97573 89.4237 10.0226 89.3755 10.0773V9.15539C88.9327 9.34966 88.4544 9.44992 87.9708 9.44984C87.9216 9.44984 87.8654 9.44548 87.8008 9.44047C87.7133 9.43369 87.6103 9.4257 87.4881 9.4257C87.8743 9.81669 87.9129 9.92288 87.9129 10.7483V14.301C87.9236 14.5038 87.904 14.7072 87.855 14.9043ZM93.2932 12.5005C93.2916 12.8874 93.3986 13.2671 93.6022 13.5962C93.8158 13.9367 94.1174 14.2132 94.475 14.3967C94.8326 14.5802 95.2331 14.6639 95.6343 14.6388C96.0209 14.6328 96.404 14.5644 96.7687 14.4361C97.1369 14.3164 97.49 14.1545 97.821 13.9534L96.899 15.4498C96.4328 15.607 95.9428 15.6821 95.4509 15.6718C93.1919 15.6718 91.6907 14.383 91.6907 12.4329C91.6809 12.0072 91.7589 11.584 91.9197 11.1897C92.0806 10.7954 92.3208 10.4384 92.6255 10.141C92.9302 9.84351 93.2929 9.61193 93.6909 9.46064C94.089 9.30935 94.5139 9.24159 94.9392 9.26157C96.7832 9.26157 97.7727 10.3718 97.7968 12.5005H93.2932ZM93.3994 11.4965H96.2232C96.2314 11.317 96.2022 11.1378 96.1375 10.9702C96.0728 10.8026 95.9741 10.6502 95.8475 10.5227C95.721 10.3952 95.5693 10.2954 95.4021 10.2295C95.235 10.1637 95.056 10.1332 94.8765 10.1401C94.5028 10.1319 94.1405 10.2684 93.8652 10.5212C93.5899 10.774 93.423 11.1235 93.3994 11.4965ZM100.352 9.16505C99.9128 9.34388 99.4448 9.44042 98.9711 9.44984C98.9208 9.44984 98.8613 9.44733 98.7919 9.4444C98.6947 9.44029 98.5781 9.43536 98.4401 9.43536C98.6108 9.56401 98.751 9.72885 98.8504 9.91806C98.9143 10.2356 98.9386 10.5599 98.9228 10.8835V17.2744V17.4433C98.9386 17.6331 98.902 17.8235 98.8168 17.9937C98.7317 18.164 98.6014 18.3076 98.4401 18.4087H100.854C100.443 18.0902 100.371 17.8874 100.371 17.2599V11.9792C100.371 10.8062 100.897 10.1932 101.862 10.1932C102.953 10.1932 103.793 11.1152 103.793 12.4281C103.793 13.741 103.002 14.6244 101.819 14.6244C101.412 14.6289 101.011 14.5328 100.651 14.3444L101.486 15.4401C101.758 15.5239 102.041 15.5647 102.326 15.5608C103.158 15.5219 103.942 15.1566 104.506 14.544C105.071 13.9313 105.372 13.1208 105.343 12.2881C105.35 11.7493 105.213 11.2183 104.945 10.7508C104.677 10.2832 104.288 9.89622 103.82 9.6303C103.351 9.36438 102.82 9.22928 102.281 9.23914C101.742 9.24901 101.216 9.40347 100.757 9.68637C100.692 9.72545 100.618 9.78652 100.517 9.86956L100.517 9.86964L100.517 9.86974L100.517 9.86981L100.517 9.87006C100.469 9.90996 100.414 9.95492 100.352 10.0049V9.16505ZM107.784 9.40165C108.159 9.30094 108.545 9.25381 108.933 9.26166C109.581 9.20538 110.227 9.3854 110.753 9.7685C111.153 10.1016 111.235 10.2898 111.235 11.1056V13.5963C111.235 14.1176 111.308 14.2962 111.568 14.4362C111.75 14.5273 111.956 14.561 112.157 14.5327H112.418L111.651 15.4981C111.524 15.5382 111.392 15.5594 111.26 15.5609C110.507 15.5609 109.811 14.9672 109.811 14.3638V12.3799L109.469 12.4861L108.914 12.6068C108.546 12.6752 108.192 12.7989 107.861 12.9736C107.737 13.0469 107.635 13.1525 107.566 13.2792C107.498 13.4058 107.464 13.5488 107.47 13.6928C107.47 14.2721 107.953 14.6245 108.696 14.6245C109.035 14.6213 109.371 14.5626 109.691 14.4507L108.938 15.4499C108.625 15.5495 108.3 15.6063 107.972 15.6188C107.443 15.6167 106.934 15.4103 106.553 15.0425C106.171 14.6747 105.947 14.1739 105.926 13.6446C105.926 12.7564 106.602 12.1965 107.972 11.931L108.667 11.7862C109.449 11.6317 109.72 11.4676 109.72 11.067C109.72 10.6663 109.329 10.3477 108.73 10.3477C108.528 10.3451 108.325 10.3645 108.127 10.4057C107.663 10.4951 107.211 10.6376 106.78 10.8304L107.784 9.40165ZM112.963 14.9044C112.9 15.1328 112.751 15.3281 112.548 15.4498L114.952 15.4353C114.575 15.1167 114.503 14.9285 114.503 14.2865V11.8296C114.503 10.8642 114.903 10.3815 115.695 10.3815C115.862 10.3801 116.027 10.4123 116.182 10.4761C116.336 10.54 116.476 10.6342 116.593 10.7531V9.30504C116.475 9.28746 116.355 9.27939 116.236 9.28091C115.682 9.2828 115.148 9.47932 114.725 9.83601L114.488 10.0967V9.17472C114.043 9.36301 113.563 9.4567 113.079 9.44985C113.03 9.44985 112.973 9.4455 112.909 9.44049C112.821 9.4337 112.718 9.42572 112.596 9.42572C112.987 9.81671 113.021 9.9229 113.021 10.7483V14.301C113.034 14.5039 113.014 14.7076 112.963 14.9044ZM118.394 9.40165C118.768 9.30094 119.155 9.25381 119.543 9.26166C120.191 9.20538 120.837 9.3854 121.362 9.7685C121.763 10.1016 121.821 10.2898 121.821 11.1056V13.5963C121.821 14.1176 121.893 14.2962 122.154 14.4362C122.338 14.5277 122.545 14.5614 122.748 14.5327H123.004L122.236 15.4981C122.11 15.5386 121.978 15.5597 121.845 15.5609C121.092 15.5609 120.397 14.9672 120.397 14.3638V12.3799L120.054 12.4861L119.499 12.6068C119.132 12.6752 118.777 12.7989 118.447 12.9736C118.323 13.0469 118.221 13.1525 118.152 13.2792C118.083 13.4058 118.05 13.5488 118.056 13.6928C118.056 14.2721 118.539 14.6245 119.287 14.6245C119.624 14.6208 119.958 14.5621 120.276 14.4507L119.557 15.4499C119.244 15.5495 118.92 15.6063 118.592 15.6188C118.062 15.6167 117.553 15.4103 117.172 15.0425C116.791 14.6747 116.566 14.1739 116.545 13.6446C116.545 12.7564 117.221 12.1965 118.592 11.931L119.287 11.7862C120.069 11.6317 120.339 11.4676 120.339 11.067C120.339 10.6663 119.953 10.3477 119.374 10.3477C119.171 10.3451 118.969 10.3645 118.77 10.4057C118.307 10.4951 117.855 10.6376 117.424 10.8304L118.394 9.40165ZM122.801 9.73473V10.2512L123.579 10.2802V13.6591C123.546 13.8854 123.562 14.116 123.625 14.3357C123.688 14.5554 123.797 14.7592 123.945 14.9334C124.312 15.3485 124.761 15.5271 125.649 15.6188L126.489 14.5569H126.238C126.032 14.5676 125.826 14.5319 125.636 14.4526C125.445 14.3732 125.275 14.2522 125.138 14.0983C125.045 13.9204 125.008 13.7185 125.031 13.5191V10.2416H125.707C125.842 10.2434 125.976 10.2595 126.108 10.2898C126.265 10.3488 126.407 10.4429 126.523 10.565L126.629 10.6567V9.38236H125.012V7.45156H124.312V7.59155C124.312 8.98655 123.863 9.61406 122.801 9.73473ZM130.447 9.11673C132.455 9.11673 133.826 10.4442 133.826 12.3943C133.826 14.272 132.315 15.6525 130.268 15.6525C128.222 15.6525 126.889 14.3444 126.889 12.3701C126.88 10.5021 128.4 9.11673 130.447 9.11673ZM128.376 12.3943C128.358 12.6842 128.399 12.9747 128.497 13.2485C128.594 13.5222 128.745 13.7736 128.941 13.9876C129.138 14.2016 129.375 14.3738 129.64 14.494C129.904 14.6142 130.19 14.6798 130.481 14.6871C131.571 14.6871 132.324 13.7651 132.324 12.4281C132.324 11.091 131.475 10.1014 130.292 10.1014C129.11 10.1014 128.361 10.9993 128.361 12.2881L128.376 12.3943ZM134.869 14.9043C134.802 15.1308 134.654 15.3249 134.454 15.4498L136.843 15.4546C136.462 15.136 136.394 14.9478 136.394 14.3058V11.8489C136.394 10.8835 136.795 10.4008 137.587 10.4008C137.753 10.3924 137.918 10.4176 138.074 10.4749C138.23 10.5321 138.373 10.6202 138.494 10.7338V9.28572C138.378 9.26803 138.26 9.25996 138.142 9.26158C137.589 9.26265 137.053 9.45926 136.631 9.81669L136.394 10.0773V9.15539C135.95 9.34924 135.47 9.44947 134.985 9.44984C134.936 9.44984 134.88 9.44548 134.815 9.44047C134.727 9.43369 134.624 9.4257 134.502 9.4257C134.893 9.81669 134.927 9.92288 134.927 10.7483V14.301C134.94 14.5039 134.921 14.7076 134.869 14.9043ZM139.567 17.144C139.756 17.3208 140.004 17.4221 140.263 17.4288C140.488 17.4324 140.707 17.3514 140.876 17.2019C141.087 16.9415 141.25 16.6457 141.358 16.3282L141.677 15.4787L139.703 10.9606C139.244 9.89865 139.172 9.80211 138.583 9.42561C138.647 9.43138 138.709 9.43716 138.767 9.44261C138.951 9.45991 139.099 9.47388 139.205 9.47388C139.393 9.46916 139.58 9.45304 139.765 9.42561C140.038 9.3736 140.303 9.29102 140.557 9.17943L142.444 13.6685L143.699 10.5599C143.792 10.3584 143.853 10.1433 143.878 9.92279C143.878 9.74419 143.815 9.62834 143.559 9.39182H145.698L142.459 16.6806C142.346 16.9481 142.212 17.2063 142.058 17.4529C141.576 18.2059 140.794 18.5486 139.645 18.5486C139.238 18.5473 138.835 18.4838 138.448 18.3604L139.567 17.144ZM36.727 26.3974C36.5321 26.5971 36.3033 26.7605 36.0512 26.8801L38.6916 26.8415C38.373 26.5809 38.2909 26.4312 38.2909 26.1706C38.2918 26.0461 38.3113 25.9224 38.3489 25.8037L39.1163 23.815H42.1525L42.9104 25.8037C42.9483 25.914 42.9679 26.0298 42.9683 26.1464C42.9683 26.4167 42.8766 26.5809 42.5435 26.8415H45.628C45.3782 26.7204 45.1512 26.5571 44.957 26.3588C44.8155 26.2029 44.7027 26.0231 44.624 25.8278L41.6457 18.346H39.517C39.6861 18.5241 39.7854 18.7571 39.797 19.0025C39.7999 19.1671 39.7721 19.3308 39.7149 19.4852L37.0697 25.8665C36.9854 26.0611 36.8696 26.2405 36.727 26.3974ZM39.5073 22.8448L40.6755 19.7941L41.8002 22.8448H39.5073ZM50.3234 22.2608C50.2557 22.1976 50.1849 22.138 50.111 22.0822C49.7105 21.8297 49.2474 21.6943 48.774 21.6912C47.6396 21.6912 46.8432 22.5552 46.8432 23.8199C46.8432 25.0846 47.8568 26.0886 49.2904 26.0886C50.062 26.071 50.809 25.8147 51.4288 25.3549L50.4634 26.8802C49.9789 27.0405 49.4725 27.1252 48.9622 27.1312C46.8818 27.1312 45.313 25.77 45.313 23.9502C45.313 22.1305 46.8721 20.7017 48.9526 20.7017C49.417 20.6956 49.8796 20.7624 50.3234 20.8996V22.2608ZM54.7834 20.7112C54.397 20.7027 54.0115 20.7515 53.6394 20.856L52.6451 22.2896C53.077 22.099 53.5286 21.9566 53.9918 21.8649C54.1903 21.8241 54.3925 21.8047 54.5952 21.8069C55.1985 21.8069 55.5895 22.1207 55.5895 22.5262C55.5895 22.9316 55.3192 23.0957 54.5372 23.2502L53.8422 23.3902C52.4713 23.6557 51.7955 24.2156 51.7955 25.1038C51.8216 25.6322 52.0503 26.1303 52.4342 26.4944C52.8181 26.8585 53.3276 27.0606 53.8566 27.0587C54.1841 27.0456 54.5086 26.9904 54.822 26.8946L55.5316 25.9002C55.2119 26.0128 54.8761 26.0731 54.5372 26.0788C53.7891 26.0788 53.3064 25.7216 53.3064 25.1424C53.3019 24.9986 53.3357 24.8562 53.4044 24.7298C53.4731 24.6034 53.5742 24.4976 53.6973 24.4232C54.0288 24.2513 54.3832 24.1278 54.7496 24.0563L55.3047 23.9405L55.6474 23.8343V25.8664C55.6474 26.4698 56.3377 27.0587 57.0955 27.0587C57.228 27.0589 57.3598 27.0394 57.4865 27.0008L58.254 26.0064H58.0127C57.8116 26.0338 57.607 26.0019 57.4238 25.9147C57.1631 25.7699 57.0907 25.5961 57.0907 25.0748V22.5793C57.0907 21.7635 57.0087 21.5752 56.608 21.2422C56.0841 20.8502 55.4358 20.6615 54.7834 20.7112ZM63.3365 19.6976C63.3365 18.906 63.2979 18.7757 62.9455 18.4185C63.0676 18.4185 63.1707 18.4265 63.2582 18.4333C63.3228 18.4383 63.379 18.4426 63.4282 18.4426C63.5897 18.4419 63.7509 18.4307 63.9109 18.4088C64.2025 18.3692 64.4879 18.293 64.7604 18.182V25.7362C64.7242 25.9571 64.7544 26.1838 64.8472 26.3874C64.94 26.5911 65.0913 26.7626 65.2818 26.8802H63.2979V23.7716C63.2979 22.507 62.6221 21.6912 61.5939 21.6912C60.5658 21.6912 59.8321 22.589 59.8321 23.7282C59.8321 25.0508 60.7106 26.0065 61.927 26.0065C62.359 26.0041 62.7824 25.8857 63.153 25.6638L62.2311 26.9285C61.9841 26.9846 61.7314 27.0121 61.4781 27.0105C61.0527 27.0409 60.6257 26.9843 60.2229 26.8444C59.8201 26.7044 59.45 26.4839 59.1352 26.1963C58.8204 25.9087 58.5673 25.5601 58.3915 25.1716C58.2157 24.7831 58.1209 24.3629 58.1127 23.9365C58.1045 23.5102 58.1831 23.0867 58.3438 22.6917C58.5046 22.2967 58.744 21.9386 59.0476 21.6391C59.3511 21.3397 59.7124 21.1051 60.1095 20.9498C60.5066 20.7944 60.9312 20.7215 61.3574 20.7354C62.067 20.7092 62.7629 20.935 63.322 21.3726L63.3365 19.6976ZM67.7353 25.0507C67.5326 24.7195 67.4256 24.3385 67.4264 23.9502L71.9445 23.9453C71.9203 21.8166 70.926 20.7064 69.0821 20.7064C68.6591 20.6893 68.2371 20.7586 67.8418 20.9102C67.4465 21.0617 67.0863 21.2922 66.7831 21.5877C66.48 21.8832 66.2403 22.2374 66.0787 22.6286C65.917 23.0199 65.8369 23.44 65.8432 23.8633C65.8432 25.8134 67.3444 27.1022 69.6034 27.1022C70.0958 27.1137 70.5862 27.0368 71.0515 26.8753L71.9734 25.3886C71.6415 25.5877 71.2886 25.7496 70.9212 25.8713C70.5562 25.9981 70.1731 26.0649 69.7868 26.0692C69.3849 26.0998 68.9821 26.0213 68.621 25.842C68.26 25.6628 67.954 25.3894 67.7353 25.0507ZM70.3564 22.9461H67.5519C67.5801 22.58 67.7463 22.2382 68.0169 21.9899C68.2876 21.7417 68.6424 21.6055 69.0097 21.6091C69.1873 21.6031 69.3643 21.6335 69.5298 21.6985C69.6952 21.7634 69.8457 21.8615 69.9718 21.9867C70.0979 22.112 70.1971 22.2617 70.2633 22.4267C70.3294 22.5917 70.3611 22.7685 70.3564 22.9461ZM72.6195 26.8802C72.8312 26.7556 72.9855 26.5528 73.0491 26.3154C73.0946 26.126 73.1093 25.9304 73.0925 25.7362V22.2463C73.0925 21.3243 73.0684 21.2423 72.6533 20.8658C72.7854 20.8658 72.9122 20.8725 73.0323 20.8788L73.0324 20.8788L73.0324 20.8788C73.1403 20.8845 73.2428 20.8899 73.3387 20.8899C73.7554 20.8754 74.1667 20.7906 74.5551 20.6389V21.1988C74.6871 21.0957 74.7839 21.0278 74.8604 20.9741L74.8978 20.9478C75.3106 20.7441 75.7649 20.6384 76.2252 20.6389C76.5146 20.6346 76.8028 20.6754 77.0796 20.7596C77.5042 20.8844 77.8779 21.1415 78.1464 21.4933C78.2718 21.3624 78.4056 21.2398 78.547 21.1264C79.0135 20.8085 79.5658 20.6402 80.1303 20.6437C80.5122 20.6499 80.8892 20.7303 81.2405 20.8802C81.5125 20.9949 81.7612 21.1585 81.9742 21.3629C82.3652 21.7781 82.4231 22.0146 82.4231 22.9124V25.9969C82.4337 26.1006 82.4498 26.2037 82.4714 26.3058C82.5271 26.5297 82.6563 26.7286 82.8382 26.8705H80.4971C80.6959 26.7383 80.8387 26.5371 80.8978 26.3058C80.9515 26.1177 80.9727 25.9218 80.9605 25.7265V22.9703C80.99 22.7952 80.976 22.6156 80.9196 22.4472C80.8632 22.2788 80.7661 22.1269 80.6371 22.0049C80.3795 21.7831 80.0446 21.6721 79.7055 21.696C78.8415 21.696 78.4891 22.0773 78.4891 22.9607V25.7169C78.4891 26.3541 78.547 26.5327 78.9235 26.8609H76.539C76.7505 26.7349 76.9059 26.5329 76.9734 26.2961C77.0289 26.1084 77.0502 25.9122 77.0362 25.7169V23.062C77.0362 22.5214 76.9734 22.309 76.7514 22.0966C76.6216 21.9732 76.4686 21.8767 76.3012 21.8129C76.1338 21.7491 75.9554 21.7192 75.7763 21.725C75.592 21.7182 75.4082 21.7485 75.2357 21.814C75.0633 21.8795 74.9057 21.9789 74.7723 22.1063C74.5945 22.3643 74.5189 22.6791 74.5599 22.9896V25.7459C74.5622 25.9398 74.5783 26.1334 74.6082 26.3251C74.6731 26.5537 74.8146 26.753 75.0088 26.8899L72.6195 26.8802ZM84.3638 28.8785C84.1033 28.8735 83.8539 28.772 83.6639 28.5937L82.5827 29.8149C82.9703 29.936 83.3737 29.9995 83.7798 30.0032C84.9286 30.0032 85.7106 29.6605 86.1933 28.9026C86.346 28.6573 86.4799 28.4007 86.5939 28.1351L89.8328 20.8416H87.6945C87.9503 21.0781 88.0131 21.1988 88.0131 21.3725C87.9874 21.5945 87.9272 21.8112 87.8345 22.0145L86.5794 25.1183L84.6921 20.6292C84.4378 20.7438 84.1703 20.8265 83.8956 20.8753C83.7118 20.903 83.5264 20.9191 83.3405 20.9236C83.282 20.9236 83.2107 20.9152 83.1278 20.9053C83.0126 20.8917 82.875 20.8753 82.7178 20.8753C83.3067 21.2567 83.355 21.3484 83.8377 22.4152L85.7782 26.9284L85.4596 27.7779C85.351 28.0966 85.1876 28.3939 84.9769 28.6565C84.8073 28.8043 84.5887 28.8834 84.3638 28.8785Z" fill="#C23E45"/>
</svg>
