<svg width="55" height="30" viewBox="0 0 55 30" fill="none" xmlns="http://www.w3.org/2000/svg">
<path fill-rule="evenodd" clip-rule="evenodd" d="M2.16017 24.1004C2.55076 23.6447 3.07285 23.4172 3.72642 23.4172V23.4152C4.12926 23.4152 4.49472 23.5119 4.82215 23.7104C5.14894 23.9083 5.40418 24.1938 5.58981 24.5677C5.77415 24.9402 5.86696 25.3862 5.86696 25.9006V29.8323H6.7487V25.9006C6.7487 25.247 6.62688 24.6727 6.38325 24.1732C6.15416 23.6925 5.78881 23.2897 5.33263 23.015C4.87629 22.7397 4.33616 22.6031 3.71482 22.6031C3.27008 22.6031 2.86208 22.6985 2.48889 22.8867C2.12582 23.0676 1.8188 23.3439 1.6007 23.6859H1.57556V20.2988H0.693176V29.8362H1.57621V25.8413C1.57621 25.1362 1.77086 24.5561 2.16017 24.1004ZM13.5429 28.7405C13.3595 29.1331 13.0585 29.459 12.6818 29.6731C12.3002 29.891 11.8567 30.0019 11.3521 30.0019C10.8242 30.0019 10.335 29.8968 9.88572 29.6873C9.43711 29.4772 9.07165 29.1362 8.79063 28.6631C8.51025 28.19 8.3691 27.5777 8.3691 26.8217V22.7887H9.25148V26.7179C9.25148 28.3679 9.95146 29.191 11.3527 29.191C11.7549 29.191 12.1204 29.0943 12.4472 28.9023C12.7746 28.7102 13.0337 28.4208 13.2271 28.0386C13.4204 27.6563 13.5171 27.1948 13.5171 26.6528V22.7868H14.3995V29.8349H13.568V28.7392H13.5435L13.5429 28.7405ZM25.4412 23.4165C24.8457 23.4165 24.3835 23.6247 24.0587 24.0424C23.73 24.4607 23.5669 25.0208 23.5669 25.724V29.8356H22.6852V25.7117C22.6852 25.0073 22.5201 24.4484 22.1953 24.0366C21.8666 23.6241 21.4064 23.4184 20.8102 23.4184C20.2146 23.4184 19.7518 23.6247 19.425 24.0366C19.0982 24.4491 18.9339 25.0073 18.9339 25.7124V29.8356H18.0509V22.7848H18.9339V23.597C19.1249 23.2793 19.402 23.0223 19.7331 22.8557C20.0663 22.6874 20.4349 22.6012 20.8082 22.6044C21.3032 22.6044 21.7525 22.7217 22.1553 22.9531C22.5569 23.1851 22.8804 23.5203 23.1241 23.9592C23.6868 23.0581 24.4589 22.607 25.44 22.607C26.0104 22.607 26.5035 22.7391 26.9198 23.0066C27.3321 23.2712 27.6614 23.6467 27.8699 24.0901C28.089 24.5458 28.1967 25.0524 28.1967 25.6112V29.8375H27.3143V25.7001C27.3143 25.0053 27.1538 24.4504 26.8309 24.0385C26.508 23.6266 26.0432 23.4204 25.44 23.4204L25.4412 23.4165ZM35.9383 28.6006C35.6568 29.0359 35.267 29.3906 34.8072 29.6299C34.3373 29.8794 33.821 30.0044 33.2577 30.0044C32.6021 30.011 31.9568 29.8421 31.3885 29.5152C30.831 29.1981 30.3682 28.7379 30.0478 28.1823C29.721 27.6202 29.5567 26.9899 29.5567 26.2951C29.5567 25.5996 29.7249 24.9821 30.0594 24.4194C30.3857 23.8658 30.8524 23.4082 31.4123 23.0929C31.9795 22.77 32.5944 22.6095 33.2557 22.6095C33.8268 22.6095 34.347 22.7339 34.8168 22.9821C35.2874 23.2315 35.6612 23.5796 35.9377 24.0256H35.9622V22.7894H36.8426V29.8381H35.9622V28.6006H35.9383ZM35.6489 24.8732C35.8916 25.3156 36.0176 25.8124 36.015 26.317C36.0199 26.8225 35.8916 27.3205 35.6431 27.7608C35.3956 28.1984 35.063 28.5471 34.6428 28.8043C34.2239 29.0621 33.7856 29.191 33.2577 29.191C32.7524 29.1969 32.2548 29.0674 31.8165 28.8159C31.3895 28.5736 31.0384 28.2172 30.8026 27.7865C30.559 27.3482 30.4371 26.881 30.4371 26.3305C30.4371 25.7801 30.5609 25.2831 30.8084 24.8416C31.0469 24.4091 31.397 24.0486 31.8223 23.7974C32.2541 23.5445 32.7463 23.413 33.2467 23.4172C33.7572 23.4172 34.2251 23.548 34.6486 23.8097C35.0699 24.0699 35.415 24.4367 35.6489 24.8732ZM43.4551 23.4172C42.7989 23.4172 42.2768 23.6447 41.8875 24.1004C41.4989 24.5554 41.3036 25.1362 41.3036 25.8407V29.8356H40.4212V22.7855H41.3036V23.6866H41.3287C41.5466 23.3446 41.8534 23.0684 42.2162 22.8873C42.5971 22.6969 43.0177 22.5997 43.4435 22.6037C44.0642 22.6037 44.6017 22.7404 45.0606 23.0156C45.5168 23.2903 45.8822 23.6931 46.1112 24.1739C46.3549 24.6734 46.4767 25.2477 46.4767 25.9012V29.8323H45.5943V25.9006C45.5943 25.3862 45.5041 24.9402 45.3178 24.5683C45.1507 24.2138 44.8837 23.9158 44.5495 23.7111C44.2193 23.5126 43.8403 23.4102 43.4551 23.4152V23.4172ZM52.9712 28.7379C52.5142 29.0389 51.88 29.1891 51.334 29.1891L51.336 29.1917C50.8989 29.1917 50.4787 29.0743 50.0765 28.843C49.6778 28.6155 49.3396 28.2957 49.0903 27.9103C48.8386 27.5324 48.6928 27.0939 48.6682 26.6405H54.9364L54.948 26.3698C54.948 25.7253 54.7875 25.1136 54.4704 24.5329C54.161 23.9642 53.7124 23.4834 53.1665 23.1355C52.6203 22.7843 51.9833 22.6006 51.334 22.607C50.7056 22.607 50.1158 22.7745 49.566 23.1097C49.0196 23.4412 48.5668 23.9066 48.2505 24.462C47.923 25.0254 47.7531 25.6666 47.7587 26.3183C47.7587 26.9873 47.9198 27.6074 48.2421 28.1733C48.5536 28.727 49.0056 29.1888 49.5525 29.512C50.1016 29.8388 50.6998 30.0019 51.3456 30.0019C52.0927 30.0019 52.9112 29.7756 53.5358 29.3244C54.1629 28.8726 54.6038 28.2745 54.8648 27.5261H53.9348C53.7567 28.0257 53.4178 28.4519 52.9712 28.7379ZM50.1287 23.7214C50.4995 23.5211 50.9145 23.4169 51.336 23.4184V23.4204C52.0153 23.4204 52.6057 23.6421 53.1046 24.0901C53.6054 24.5348 53.9167 25.1155 54.0431 25.8284H48.6682C48.7358 25.3765 48.9079 24.9465 49.1709 24.5728C49.4326 24.2067 49.7517 23.9225 50.1287 23.7214ZM16.8359 29.2709C16.8359 29.6093 16.569 29.8826 16.2384 29.8826C16.1589 29.8819 16.0803 29.8654 16.0071 29.8342C15.9339 29.803 15.8677 29.7576 15.8121 29.7007C15.7565 29.6438 15.7127 29.5765 15.6832 29.5026C15.6537 29.4288 15.6391 29.3498 15.6402 29.2703C15.6402 28.9319 15.9071 28.658 16.2384 28.658C16.569 28.658 16.8359 28.9319 16.8359 29.2703V29.2709ZM38.6474 29.8826C38.7269 29.8818 38.8054 29.8653 38.8785 29.834C38.9515 29.8027 39.0177 29.7574 39.0732 29.7005C39.1288 29.6436 39.1725 29.5763 39.2019 29.5025C39.2314 29.4287 39.246 29.3498 39.2449 29.2703C39.246 29.1908 39.2314 29.1119 39.2019 29.0381C39.1725 28.9643 39.1288 28.897 39.0732 28.8401C39.0177 28.7832 38.9515 28.7378 38.8785 28.7066C38.8054 28.6753 38.7269 28.6588 38.6474 28.658C38.5678 28.6587 38.4893 28.6752 38.4161 28.7064C38.3429 28.7376 38.2767 28.783 38.2211 28.8399C38.1655 28.8968 38.1217 28.9641 38.0922 29.0379C38.0627 29.1118 38.0481 29.1908 38.0492 29.2703C38.0492 29.6093 38.3167 29.8826 38.6474 29.8826Z" fill="black"/>
<path fill-rule="evenodd" clip-rule="evenodd" d="M17.2852 8.63868C17.2852 8.67153 17.2822 8.70154 17.2822 8.73448C17.2822 13.5562 21.1908 17.465 26.0128 17.465C30.8348 17.465 34.7434 13.5562 34.7434 8.73448C34.7434 3.91274 30.8348 0.00390625 26.0128 0.00390625C26.004 0.00390625 25.9967 0.00683401 25.9879 0.00683401C25.9352 4.77368 22.0618 8.62359 17.2852 8.63868Z" fill="black"/>
</svg>
