<svg width="139" height="30" viewBox="0 0 139 30" fill="none" xmlns="http://www.w3.org/2000/svg">
<path fill-rule="evenodd" clip-rule="evenodd" d="M31.6625 17.7325H31.6662L31.6625 17.7288C31.6625 18.3554 31.6618 18.9819 31.6611 19.6084C31.6591 21.4879 31.657 23.3675 31.6735 25.247C31.6808 25.7665 31.5345 25.9787 30.993 25.9384C30.4223 25.8982 29.8479 25.9128 29.2735 25.9384C28.8711 25.9567 28.7065 25.8287 28.7065 25.4006C28.7211 20.2605 28.7211 15.1204 28.7138 9.98023C28.7138 9.5961 28.8345 9.4461 29.226 9.45707C29.8626 9.47903 30.5028 9.47903 31.1394 9.45342C31.5711 9.43512 31.6698 9.61439 31.6698 10.0205C31.6589 11.9492 31.6602 13.8759 31.6616 15.8036V15.8036V15.8036L31.6616 15.8048C31.6621 16.4472 31.6625 17.0897 31.6625 17.7325ZM51.8524 23.4068C50.4256 23.3666 49.844 22.7995 49.822 21.3691C49.8077 20.4656 49.8094 19.5622 49.8111 18.6582V18.658V18.6578V18.6576C49.8125 17.9474 49.8138 17.2367 49.8074 16.5253C49.8037 16.1045 49.9574 15.9655 50.3671 15.9728C50.7255 15.9821 51.0844 15.979 51.4435 15.9759H51.4436C51.935 15.9716 52.4266 15.9673 52.9171 15.9948C53.4988 16.0277 53.6744 15.8082 53.6195 15.2631C53.5829 14.9046 53.5792 14.5387 53.6231 14.1802C53.6963 13.5692 53.4256 13.4119 52.8622 13.4375C52.4866 13.4546 52.1094 13.4494 51.7322 13.4441C51.3009 13.4381 50.8696 13.4322 50.4403 13.4595C49.8952 13.4961 49.7927 13.2729 49.8037 12.8046C49.8158 12.3817 49.8132 11.9588 49.8105 11.5363C49.8076 11.067 49.8047 10.5981 49.822 10.1303C49.8403 9.64737 49.7122 9.4242 49.1854 9.46444C48.6367 9.50469 48.0806 9.50103 47.5281 9.46444C47.005 9.42786 46.8294 9.61444 46.833 10.1449C46.8482 11.4377 46.8467 12.7305 46.8452 14.0232C46.8442 14.9182 46.8432 15.8132 46.8477 16.7082C46.8502 17.1295 46.851 17.551 46.8518 17.9726V17.9726C46.8544 19.3777 46.857 20.7835 46.9245 22.1849C47.0233 24.2592 48.1976 25.6385 50.0598 25.858C50.9293 25.961 51.8138 25.9436 52.6947 25.9262C52.8776 25.9226 53.0603 25.919 53.2427 25.9165C53.378 25.9165 53.6122 25.6531 53.6231 25.4995C53.6548 25.0265 53.6503 24.5517 53.6453 24.0323C53.6434 23.8324 53.6414 23.626 53.6414 23.4105C53.4179 23.4105 53.2038 23.4122 52.9962 23.4139C52.5988 23.4171 52.2249 23.4201 51.8524 23.4105V23.4068ZM99.4368 15.3801C98.5515 12.746 96.1552 11.9777 94.026 12.2265L94.0187 12.2301C91.5931 12.5155 89.7419 14.2789 89.3322 16.6788C89.1346 17.8349 89.2114 18.969 89.5992 20.0702C90.7041 23.1945 94.7101 24.5847 97.5308 22.8323C98.4344 22.2689 99.0381 21.4641 99.3673 20.4653C99.4881 20.0958 99.6819 19.9751 100.059 19.9861C100.607 20.004 101.155 20.0004 101.73 19.9966L101.73 19.9966C101.976 19.995 102.227 19.9934 102.484 19.9934C102.386 21.1238 101.987 22.0641 101.409 22.9275C99.5137 25.7701 95.665 26.992 92.1711 25.8798C88.348 24.6652 85.9079 20.9812 86.3176 17.0447C86.7383 13.013 89.8151 9.94726 93.854 9.53751C97.6698 9.14971 100.926 11.0338 102.177 14.3667C102.277 14.633 102.344 14.9102 102.42 15.2233L102.42 15.2234L102.421 15.2235L102.421 15.2238L102.421 15.225C102.462 15.3931 102.505 15.5715 102.557 15.7642C102.298 15.7642 102.05 15.7654 101.809 15.7666H101.809H101.809H101.809H101.808H101.808H101.808H101.808H101.808C101.114 15.77 100.485 15.7731 99.8576 15.7459C99.7076 15.7386 99.488 15.5374 99.4368 15.3801ZM117.202 13.6775L117.202 13.6776C117.218 13.8259 117.234 13.9765 117.234 14.1252C117.234 14.9773 117.233 15.8297 117.233 16.6821V16.6825V16.6828V16.6831V16.6834V16.6837V16.684V16.6843V16.6847V16.6865C117.231 19.529 117.229 22.3725 117.249 25.214C117.256 25.8213 117.051 26.0078 116.48 25.942C116.188 25.9091 115.884 25.9237 115.588 25.9383C115.028 25.9676 114.494 25.9822 114.775 24.9396C112.884 26.2164 111.047 26.5932 109.061 26.0883C107.583 25.7115 106.405 24.8737 105.483 23.6737C103.694 21.3433 103.734 17.9044 105.604 15.552C106.694 14.1801 108.121 13.3386 109.869 13.1228C111.578 12.9106 113.155 13.313 114.636 14.3483C114.661 14.1856 114.682 14.0496 114.703 13.9165L114.703 13.9156L114.703 13.9149L114.704 13.9141L114.704 13.9134L114.704 13.9126L114.704 13.9119L114.704 13.9112L114.704 13.9104C114.724 13.7853 114.743 13.6623 114.764 13.5215H117.186C117.191 13.5731 117.197 13.6251 117.202 13.6775ZM106.884 19.5397C106.888 21.7787 108.615 23.5311 110.81 23.5238C112.924 23.5164 114.688 21.7421 114.695 19.6092C114.702 17.3922 112.957 15.6325 110.751 15.6325C108.622 15.6325 106.88 17.3922 106.884 19.5397ZM130.229 13.3241C126.834 14.3411 124.957 17.7984 125.828 21.4312C126.625 24.7604 129.87 26.8494 133.331 26.1909C135.647 25.7519 137.198 24.3763 138.065 21.9983C137.818 21.9983 137.578 21.9979 137.344 21.9975H137.344C136.548 21.9963 135.816 21.9951 135.084 22.0093C134.967 22.0093 134.806 22.1263 134.74 22.2361C133.917 23.6482 132.621 23.8421 131.195 23.5641C129.764 23.2861 128.579 21.7934 128.714 20.4581H129.457C132.201 20.4581 134.945 20.4581 137.688 20.4507C137.721 20.4507 137.753 20.4515 137.785 20.4522C138.061 20.4583 138.312 20.4638 138.354 20.0117C138.79 15.4899 134.582 12.018 130.225 13.3241H130.229ZM128.809 18.1569C129.022 16.6569 130.434 15.6362 132.171 15.6435C133.609 15.6472 135.296 16.785 135.303 18.1569H128.809ZM58.2034 13.6387C60.3436 12.6912 62.5021 12.7973 64.4484 14.1802V14.1838C66.4349 15.5924 67.1959 17.6155 67.0825 20.0081C67.0618 20.4655 66.7858 20.4638 66.4793 20.462L66.4531 20.4618L66.4203 20.4618C65.0484 20.4618 63.6773 20.4627 62.3063 20.4636C60.9353 20.4645 59.5643 20.4654 58.1924 20.4654H57.4607C57.5266 21.8995 58.5326 23.1763 59.8021 23.5422C60.9838 23.8788 62.7472 23.6739 63.4496 22.3312C63.5228 22.1886 63.7203 22.0203 63.8667 22.0166C64.5602 21.9948 65.2537 21.9974 65.9791 22.0001H65.9792H65.9792H65.9792H65.9793H65.9793H65.9794C66.2259 22.001 66.4761 22.002 66.7312 22.002C66.4971 23.1032 65.9483 23.9263 65.2166 24.5995C63.2191 26.4324 60.8704 26.8019 58.4046 25.8177C55.9717 24.8446 54.6949 22.8727 54.4864 20.3044C54.2413 17.2643 55.6278 14.7765 58.2034 13.6387ZM57.629 18.1496H64.0093C64.1776 17.0777 62.6594 15.7277 61.174 15.6545C59.3558 15.5667 57.7863 16.6314 57.629 18.1496ZM45.213 18.7276C45.1691 16.3569 43.6692 14.257 41.4412 13.4521C39.5571 12.7716 37.7205 12.9436 35.9754 13.9789L35.9645 13.7814C35.8854 13.7475 35.8069 13.7073 35.7285 13.6671C35.5529 13.5771 35.3771 13.487 35.1925 13.4667C34.9119 13.4356 34.6258 13.4424 34.3401 13.4491H34.3401C34.1565 13.4535 33.9731 13.4578 33.7913 13.4521C33.4145 13.4375 33.2645 13.5692 33.2682 13.9643C33.2792 17.791 33.2792 21.6178 33.2682 25.4445C33.2682 25.7994 33.3889 25.9457 33.7474 25.9384C34.3657 25.9238 34.984 25.9092 35.5986 25.9421C36.0742 25.9677 36.2352 25.8067 36.2242 25.3311C36.1986 24.036 36.2059 22.7373 36.2169 21.4422C36.2187 21.1958 36.2174 20.9491 36.2162 20.7023V20.7023V20.7023V20.7022V20.7022V20.7022C36.2124 19.9265 36.2086 19.1506 36.2974 18.3874C36.4803 16.8398 37.4535 16.0313 39.012 15.9655C41.0863 15.8777 42.2058 16.9203 42.257 18.9947C42.2619 19.1652 42.2603 19.3342 42.2586 19.5037V19.5037C42.2578 19.5887 42.257 19.6738 42.257 19.7593C42.257 20.2582 42.2586 20.7572 42.2603 21.2561C42.2646 22.5862 42.269 23.9157 42.2424 25.2433C42.2314 25.8214 42.4253 25.9933 42.9741 25.9494C43.5228 25.9055 44.0826 25.9165 44.6313 25.9494C45.0777 25.975 45.224 25.8104 45.2204 25.3677C45.2127 24.4375 45.2153 23.5066 45.218 22.5756V22.5755V22.5754V22.5753V22.5753V22.5752C45.2217 21.2948 45.2254 20.0143 45.2021 18.7349L45.213 18.7276ZM82.2565 13.8802C82.4797 13.2509 82.7797 13.0058 83.4492 13.0717V13.0644C83.9087 13.1096 84.3717 13.0996 84.8688 13.0889C85.096 13.084 85.3303 13.079 85.5747 13.079C85.5404 13.1857 85.511 13.2809 85.484 13.3682L85.484 13.3683L85.4838 13.3688L85.4837 13.3692L85.4836 13.3695C85.4303 13.5419 85.3866 13.6834 85.3333 13.8217C85.1069 14.4003 84.8806 14.9789 84.6543 15.5574C83.3483 18.8969 82.0426 22.2356 80.7236 25.569C80.5215 26.0776 80.2699 26.5659 80.0182 27.0546C79.9874 27.1142 79.9567 27.1739 79.9261 27.2336C79.1212 28.7994 77.8188 29.575 76.07 29.6116C75.7325 29.6182 75.3942 29.6173 75.0559 29.6164H75.0558H75.0558H75.0558H75.0558H75.0555C74.6495 29.6153 74.2434 29.6142 73.8384 29.6262C73.4469 29.6372 73.3079 29.4835 73.3262 29.103L73.3313 29.0053C73.3522 28.6125 73.3732 28.215 73.3225 27.8299C73.2384 27.1787 73.5274 27.025 74.1164 27.0653C74.7091 27.1055 75.3091 27.0909 75.9018 27.058C77.2371 26.9811 78.1956 25.4848 77.709 24.2483C76.886 22.1501 76.0591 20.052 75.2321 17.9538C74.6805 16.5545 74.129 15.1551 73.5786 13.7558C73.5335 13.6441 73.493 13.5293 73.44 13.3793L73.44 13.3792L73.4399 13.379C73.4114 13.2982 73.3792 13.2072 73.3408 13.1009C73.5992 13.1009 73.852 13.0992 74.1007 13.0974C74.7954 13.0925 75.4575 13.0879 76.1176 13.1229C76.2603 13.1302 76.4432 13.4265 76.5164 13.6241C77.2095 15.4636 77.8929 17.305 78.5765 19.1469L78.5837 19.1662C78.8358 19.8456 79.088 20.525 79.3407 21.2044C79.3524 21.2396 79.3746 21.2717 79.4054 21.3162L79.4055 21.3163L79.4055 21.3164L79.4056 21.3164C79.4228 21.3414 79.4428 21.3702 79.4651 21.4056C79.7053 20.7633 79.945 20.126 80.1835 19.4921L80.1842 19.4903L80.1844 19.4896L80.1846 19.4892C80.8937 17.6042 81.5915 15.7494 82.2565 13.8802ZM71.6917 14.5022V14.5021C71.6929 13.0166 71.6942 11.5306 71.68 10.0424C71.68 9.8522 71.53 9.5083 71.4349 9.50465C70.7393 9.4729 70.0437 9.4753 69.341 9.47773C69.1529 9.47839 68.9644 9.47904 68.7752 9.47904V25.9348C69.0191 25.9348 69.2554 25.9321 69.4862 25.9295H69.4862C70.0167 25.9234 70.5181 25.9177 71.0178 25.9458C71.5519 25.975 71.7019 25.7884 71.6983 25.2616C71.6818 22.8884 71.6838 20.5173 71.6859 18.1451V18.1448C71.6866 17.3539 71.6873 16.5628 71.6873 15.7716L71.6909 15.7752C71.6909 15.3509 71.6913 14.9266 71.6917 14.5022ZM121.409 14.1087C121.418 14.199 121.429 14.2951 121.441 14.3996C122.45 13.6533 123.438 13.0058 124.795 13.1119C124.795 13.2865 124.796 13.4592 124.797 13.6304C124.799 14.1942 124.8 14.7414 124.781 15.2886C124.773 15.4057 124.612 15.5777 124.488 15.6216C122.352 16.3606 121.404 17.663 121.389 19.9349C121.378 21.6983 121.367 23.4616 121.397 25.2214C121.404 25.7555 121.291 26.0152 120.698 25.9494C120.489 25.9259 120.253 25.9396 120.021 25.9531C119.601 25.9774 119.194 26.0009 118.989 25.803C118.755 25.5772 118.787 25.0611 118.816 24.57C118.826 24.4088 118.836 24.2502 118.836 24.1055C118.83 21.6381 118.831 19.1686 118.832 16.7001C118.832 15.8782 118.832 15.0565 118.832 14.235V13.4997H121.342C121.363 13.6931 121.384 13.8827 121.409 14.1087Z" fill="#0199EC"/>
<path d="M8.26056 9.45898H17.3884V22.0111C17.3884 24.3343 15.4933 26.2147 13.1556 26.2147H0.252197V17.4198C0.252197 13.0223 3.84114 9.46264 8.26056 9.46264V9.45898Z" fill="#E50A8C"/>
<path d="M17.3879 22.0107C17.3879 24.3339 15.4933 26.2148 13.1555 26.2148H9.78638V15.0693C9.78644 12.3325 12.1955 11.4702 13.4006 11.3809H17.3879V22.0107Z" fill="#450D8A"/>
<path fill-rule="evenodd" clip-rule="evenodd" d="M9.77484 27.1162V30.0026H13.1882H13.1918H13.1955C17.6149 30.0026 21.2039 26.4429 21.2039 22.0455V11.3555H18.2886V22.0126C18.2886 24.8389 15.9845 27.1162 13.1558 27.1162H9.77484Z" fill="#019AEA"/>
<path d="M17.9955 7.56764H13.5834V3.18481C13.5834 1.42875 15.0176 0.00195312 16.7882 0.00195312H21.2003V4.38478C21.2003 6.14084 19.7662 7.56764 17.9955 7.56764Z" fill="#019AEA"/>
</svg>
