<svg width="31" height="30" viewBox="0 0 31 30" fill="none" xmlns="http://www.w3.org/2000/svg">
<path fill-rule="evenodd" clip-rule="evenodd" d="M0.578125 24.2624H3.78506V26.3633L6.31847 24.2624H10.0064L6.31847 26.6038L10.0064 29.7463H5.96578L3.78506 27.5178V29.7463H0.578125V24.2624ZM17.5582 29.7463L20.4928 24.1344H24.8218L28.1571 29.7463H24.4371L23.9609 28.6881H23.9719L23.5073 27.662H23.4992L22.7053 25.8981L21.9196 27.662H23.4992L23.9609 28.6881H21.4547L20.9739 29.7463H17.5582ZM29.8727 23.9014C30.0029 23.9014 30.1318 23.9271 30.252 23.9769C30.3722 24.0268 30.4815 24.0998 30.5735 24.1918C30.6655 24.2839 30.7385 24.3931 30.7883 24.5134C30.8381 24.6336 30.8637 24.7625 30.8637 24.8927C30.8637 25.4459 30.4199 25.8896 29.8727 25.8896C29.7419 25.8898 29.6123 25.8641 29.4915 25.814C29.3706 25.7639 29.2609 25.6904 29.1685 25.5978C29.0761 25.5051 29.003 25.3952 28.9532 25.2741C28.9035 25.1531 28.8782 25.0235 28.8787 24.8927C28.8788 24.7623 28.9045 24.6332 28.9545 24.5128C29.0045 24.3923 29.0778 24.2829 29.1701 24.1909C29.2625 24.0988 29.372 24.0258 29.4926 23.9762C29.6132 23.9265 29.7423 23.9011 29.8727 23.9014ZM29.8727 23.7652C29.2456 23.7652 28.7395 24.2714 28.7395 24.8927C28.7393 25.0415 28.7685 25.189 28.8254 25.3265C28.8823 25.4641 28.9658 25.589 29.071 25.6943C29.1763 25.7995 29.3013 25.883 29.4389 25.9398C29.5764 25.9967 29.7239 26.0258 29.8727 26.0256C30.4968 26.0256 30.9999 25.5197 30.9999 24.8927C30.9999 24.7446 30.9708 24.598 30.9142 24.4612C30.8575 24.3245 30.7745 24.2002 30.6698 24.0955C30.5652 23.9908 30.4409 23.9077 30.3041 23.851C30.1674 23.7944 30.0208 23.7652 29.8727 23.7652ZM12.6093 1.84689C12.6093 0.920189 13.3607 0.168945 14.2874 0.168945C15.2142 0.168945 15.9655 0.920352 15.9655 1.84689C15.9655 2.77358 15.2141 3.52483 14.2874 3.52483C13.3605 3.52483 12.6093 2.77358 12.6093 1.84689ZM10.0544 22.8196H18.6649L14.3516 15.5563L10.0544 22.8196ZM13.7101 30.0029C16.1154 30.0029 18.0894 28.6164 18.0894 26.9241C18.0894 25.2174 16.1359 23.8336 13.7262 23.8336C11.3164 23.8336 9.36299 25.2174 9.36299 26.9241C9.36299 28.6125 11.3211 30.0029 13.7101 30.0029ZM13.7101 28.4635C13.0849 28.4635 12.599 27.7315 12.599 26.9241C12.599 26.0808 13.1036 25.3971 13.7262 25.3971C14.3487 25.3971 14.8532 26.0808 14.8532 26.9241C14.8532 27.7464 14.3355 28.4635 13.7101 28.4635ZM29.9675 24.3746H29.6064V25.5255H29.4527V24.2624H30.0031C30.1096 24.2624 30.216 24.2681 30.3106 24.3244C30.4052 24.3777 30.4526 24.4902 30.4526 24.5966C30.4526 24.8452 30.2783 24.9367 30.0534 24.9428L30.4352 25.5255H30.2516L29.8904 24.9428H29.6065V24.8215H29.8434C29.8595 24.8215 29.8764 24.8217 29.8938 24.8219C30.0686 24.8245 30.296 24.8277 30.296 24.5938C30.296 24.3983 30.1244 24.3746 29.9675 24.3746Z" fill="#272526"/>
<path fill-rule="evenodd" clip-rule="evenodd" d="M26.8424 22.8196L18.4405 8.64532L23.5553 0.00292969H19.4666L14.3516 8.64532L9.23681 0.00292969H5.1479L10.263 8.64532L1.86096 22.8196H5.96581L14.3516 8.64532L22.7374 22.8196H26.8424Z" fill="#CF3E45"/>
</svg>
