<svg width="91" height="20" viewBox="0 0 91 20" fill="none" xmlns="http://www.w3.org/2000/svg">
<path d="M14.5398 11.2928C13.4146 12.2474 12.3494 13.2757 11.2057 14.3226C10.5232 13.5939 9.84996 12.8792 9.18129 12.1552C7.85779 10.7256 6.5343 9.30065 5.2108 7.87109C4.38996 6.98107 4.44068 5.82359 5.3307 4.9843C6.21149 4.15423 7.41048 4.16807 8.22671 5.03041C9.37036 6.24323 10.4956 7.46989 11.6761 8.73344C13.3547 7.33154 14.775 5.7083 16.4951 4.43092C16.5366 4.4632 16.5781 4.49548 16.615 4.52776L17.4266 0.335922C17.3206 0.335922 17.2191 0.335922 17.113 0.340533C15.5498 0.377425 14.217 1.02303 13.0688 2.06984C12.7414 2.36959 12.4139 2.67394 12.1649 2.89991C11.653 2.44337 11.1919 2.00989 10.7031 1.60408C8.49418 -0.235902 5.22925 -0.116004 2.85894 1.88999C0.207341 4.13117 -0.355261 8.24923 2.21795 10.7855C2.73905 11.2974 3.21403 11.8554 3.70746 12.3903C6.05009 14.9174 8.39273 17.4445 10.7676 20.0039C11.8006 19.0539 12.8105 18.104 13.8481 17.1909C13.945 17.1079 14.0649 17.0387 14.194 16.9834L15.6097 9.68801C15.4206 10.329 15.0748 10.8363 14.5352 11.2928H14.5398Z" fill="#EB1C2D"/>
<path d="M16.2331 6.50684C16.1178 7.07866 16.0025 7.65048 15.9011 8.22231L16.2331 6.50684Z" fill="black"/>
<path d="M74.4573 14.2076C74.2959 15.01 74.1668 15.7478 73.9869 16.4718C73.95 16.624 73.7241 16.8361 73.5811 16.8361C69.7305 16.8546 65.8846 16.85 62.034 16.8454C61.9786 16.8454 61.9279 16.8177 61.8311 16.7946C62.1031 15.3835 62.3752 13.977 62.6519 12.5705C63.4266 8.65075 64.2106 4.7356 64.9807 0.811229C65.0499 0.460756 65.1652 0.308577 65.5525 0.308577C69.2878 0.322412 73.0231 0.3178 76.763 0.3178C76.8737 0.3178 76.9844 0.336246 77.1412 0.350081C76.906 1.41072 76.6939 2.44831 76.4264 3.46744C76.3895 3.60579 76.0667 3.74875 75.873 3.74875C73.7886 3.76719 71.7042 3.77641 69.6199 3.74875C69.1403 3.74413 68.9742 3.8917 68.9051 4.35285C68.7898 5.14141 68.6007 5.91614 68.4347 6.75543H74.6049C74.3835 7.89908 74.1852 8.992 73.9454 10.0757C73.927 10.1587 73.6365 10.2279 73.4704 10.2325C71.7411 10.2417 70.0164 10.2509 68.2871 10.2325C67.8859 10.2325 67.6969 10.3017 67.6323 10.7536C67.5124 11.6021 67.3049 12.4368 67.1204 13.3406H74.5126C74.5403 13.5297 74.5587 13.6634 74.5864 13.8479C75.873 13.1931 77.132 12.5521 78.3909 11.9157C79.4285 13.5758 81.8034 14.2445 83.5327 13.3314C83.897 13.1423 84.229 12.7458 84.395 12.363C84.7132 11.6298 84.4366 11.0672 83.6618 10.8182C82.8087 10.5461 81.9095 10.4031 81.0609 10.1218C80.2309 9.84513 79.4008 9.53616 78.6445 9.10729C77.4732 8.44324 76.9659 7.34109 76.9383 6.0176C76.8829 3.25993 78.4508 1.18937 81.2731 0.414641C83.3805 -0.161794 85.5064 -0.124902 87.6046 0.483814C88.9743 0.880401 90.0257 1.69663 90.6482 3.06625C89.3201 3.72108 88.0151 4.36668 86.6916 5.02151C86.6039 4.92929 86.5163 4.86011 86.461 4.76788C85.6171 3.41672 83.9985 3.30143 82.924 3.66574C82.5089 3.80869 82.0801 4.18222 81.8587 4.56959C81.4299 5.30282 81.6881 5.98993 82.4859 6.29429C83.339 6.61709 84.2383 6.82922 85.1144 7.10129C85.6863 7.27653 86.2627 7.44254 86.8161 7.6639C89.1956 8.62309 89.5691 10.0019 89.2463 12.1094C88.8036 14.9915 87.3095 16.3658 84.0676 16.933C81.9371 17.3065 79.802 17.2143 77.713 16.6194C76.1866 16.1859 75.5502 15.7017 74.4527 14.2076H74.4573Z" fill="#231F20"/>
<path d="M60.0267 16.8544C59.5886 16.8544 59.2105 16.8268 58.8415 16.8637C58.4173 16.9052 58.1729 16.753 57.9377 16.3887C55.9594 13.3267 53.958 10.2831 51.9658 7.23489C51.8782 7.10116 51.7814 6.97665 51.6384 6.76913C50.9605 10.1632 50.3011 13.465 49.637 16.8083H45.4221C45.6112 15.8215 45.7956 14.8438 45.9939 13.8662C46.7641 9.98795 47.5434 6.10969 48.2951 2.22221C48.3458 1.95474 48.2305 1.62271 48.1106 1.35525C47.9584 1.02322 47.7186 0.728084 47.5065 0.396057C48.8116 0.396057 50.0797 0.317662 51.334 0.423726C52.0995 0.488287 52.6437 1.07395 53.0726 1.73339C54.4007 3.79011 55.7518 5.833 57.0938 7.8805C57.1999 8.0419 57.3105 8.2033 57.4811 8.46616C57.8639 6.45094 58.219 4.57406 58.5741 2.69258C58.694 2.07003 58.7954 1.44286 58.9338 0.824925C58.9614 0.700415 59.1228 0.511344 59.2243 0.511344C60.5524 0.488287 61.8805 0.49751 63.2778 0.49751C62.1941 5.97134 61.1242 11.3806 60.0405 16.8544H60.0267Z" fill="#231F20"/>
<path d="M46.848 0.320812C46.041 4.37431 45.2339 8.32635 44.4731 12.283C43.9104 15.2251 41.8307 16.5117 39.6725 16.876C37.5697 17.2357 35.4484 17.2911 33.364 16.7469C31.0398 16.1428 29.8316 14.3259 30.242 11.9648C30.8599 8.41858 31.5793 4.88618 32.2572 1.34917C32.3218 1.02176 32.391 0.698953 32.4647 0.348481H37.2192C36.9886 1.51519 36.7673 2.65422 36.5413 3.79787C36.0433 6.32496 35.5314 8.84745 35.0564 11.3792C34.729 13.1038 35.1809 13.6203 36.9148 13.6296C37.0439 13.6296 37.1777 13.6296 37.3068 13.6296C38.7594 13.6111 39.3912 13.2007 39.7232 11.7942C40.2351 9.61757 40.6455 7.41328 41.0928 5.21821C41.3972 3.71948 41.6877 2.21613 42.0059 0.717399C42.0382 0.569832 42.2273 0.339258 42.3472 0.339258C43.8274 0.311589 45.3031 0.320812 46.8434 0.320812H46.848Z" fill="#231F20"/>
<path d="M21.1573 5.15515C21.1573 5.15515 21.1573 5.15515 21.1527 5.15515C21.4755 3.50885 21.7798 1.94556 22.098 0.331537C20.484 0.331537 18.9576 0.308479 17.4312 0.331537L16.6196 4.52338C16.6196 4.52338 16.6288 4.5326 16.6334 4.53721C16.5043 5.19204 16.3706 5.84687 16.2368 6.49709L15.9048 8.21256C15.8448 8.55381 15.7849 8.89506 15.7296 9.23631C15.7065 9.3931 15.6604 9.53606 15.6189 9.68363L14.2032 16.979C14.3646 16.9098 14.5352 16.8683 14.692 16.8637C15.9279 16.8268 17.1683 16.8407 18.4088 16.8545C18.7224 16.8545 18.8654 16.7807 18.9299 16.4395C19.1605 15.1528 19.5248 13.8847 19.6632 12.5935C19.6678 12.5474 19.6816 12.5059 19.6908 12.4597C19.6908 12.469 19.6862 12.4782 19.6816 12.4874L21.1665 5.15054L21.1573 5.15515Z" fill="#231F20"/>
<path d="M21.61 10.9158C22.9427 12.7696 24.2708 14.6234 25.6081 16.468C25.7188 16.6202 25.9033 16.8323 26.0555 16.8323C27.7156 16.86 29.3803 16.8507 31.165 16.8507C28.8777 13.6688 26.6596 10.5837 24.4276 7.47559L21.2318 10.4177C21.384 10.6206 21.4993 10.7682 21.6054 10.9158H21.61Z" fill="#231F20"/>
<path d="M19.6772 12.4625C19.8293 11.6648 20.9038 10.724 20.9038 10.724L21.2358 10.4197C21.2358 10.4197 21.2358 10.4197 21.2358 10.415C20.6041 11.0422 19.8524 11.4711 19.6864 12.4672L19.6772 12.4625Z" fill="black"/>
<path d="M32.2034 0.322961C30.9168 0.322961 29.7731 0.346018 28.6341 0.318349C27.1861 0.281457 25.964 0.770275 24.9172 1.75713C23.7828 2.82239 22.6299 3.86458 21.4817 4.916C21.3986 4.98978 21.3018 5.04973 21.1542 5.1558L19.6693 12.4927C19.6693 12.4927 19.674 12.4742 19.6786 12.465C19.8446 11.4735 20.5963 11.0401 21.228 10.4129C21.228 10.4129 21.228 10.4129 21.228 10.4175L24.4238 7.47537C24.4238 7.47537 24.4238 7.47537 24.4192 7.47076C26.9878 5.10968 29.5425 2.76244 32.1987 0.322961H32.2034Z" fill="#EB1C2D"/>
</svg>
