<svg width="135" height="30" viewBox="0 0 135 30" fill="none" xmlns="http://www.w3.org/2000/svg">
<path d="M41.9777 7.70102H40.1498V22.0715H49.2626V20.2841H41.9777V7.70102ZM118.947 12.8916L115.332 17.051L118.978 21.2444L117.758 22.3022L117.729 22.2682L114.262 18.2806L110.764 22.3022L109.548 21.2444L109.577 21.2086L113.192 17.051L109.548 12.8567L110.764 11.798L110.796 11.832L114.262 15.8195L117.758 11.798L118.978 12.8567L118.947 12.8916ZM95.0898 18.0316L85.2886 7.70102H84.9265V22.0715H86.7544V11.741L96.5556 22.0715H96.9168V7.70102H95.0898V18.0316ZM120.806 12.0295H122.534V22.0715H120.806V12.0295ZM120.725 9.31755H122.614V7.7001H120.725V9.31755ZM109.005 17.4719C108.965 13.897 106.917 11.8687 104.104 11.8687C101.293 11.8687 99.0627 14.1377 99.0627 17.051C99.0627 19.9422 101.253 22.2324 104.226 22.2324C105.973 22.2324 107.399 21.5091 108.263 20.6057L108.254 20.5956L107.024 19.5268C106.378 20.1159 105.407 20.6057 104.226 20.6057C102.398 20.6057 101.012 19.2603 100.85 17.4719L109.005 17.4719ZM107.058 15.9656H100.932C101.293 14.4392 102.537 13.4558 104.003 13.4558C105.531 13.4347 106.815 14.3179 107.058 15.9656ZM128.89 16.347L128.034 16.0456C126.823 15.6238 126.51 15.1422 126.51 14.5201C126.51 13.817 127.2 13.4154 127.992 13.4154C128.725 13.4154 129.243 13.7141 129.686 14.1984L130.856 13.1811C130.124 12.3034 129.146 11.8687 127.992 11.8687C126.093 11.8687 124.735 13.0331 124.735 14.5403C124.735 15.7451 125.383 16.8497 127.22 17.5123L128.034 17.8138C129.265 18.2347 129.809 18.6565 129.809 19.4202C129.809 20.1839 128.974 20.6857 127.951 20.6857C126.848 20.6857 126.141 20.1756 125.487 19.4202L124.254 20.4927C125.155 21.5881 126.439 22.2324 127.909 22.2324C130.185 22.2324 131.605 20.9669 131.605 19.3595C131.605 17.8735 130.665 16.9701 128.89 16.347ZM69.8842 12.8567L68.6665 11.798L65.1697 15.8195L61.7032 11.832L61.6729 11.798L60.4534 12.8567L64.1 17.051L60.4846 21.2086L60.4534 21.2444L61.6729 22.3022L65.1698 18.2807L68.6353 22.2682L68.6665 22.3022L69.8842 21.2444L66.2395 17.051L69.8548 12.8916L69.8842 12.8567ZM71.7131 12.0295H73.4408V22.0715H71.7131V12.0295ZM71.6331 9.31755H73.5235V7.7001H71.6331V9.31755ZM59.913 17.4719C59.8725 13.897 57.825 11.8687 55.0119 11.8687C52.1998 11.8687 49.9712 14.1377 49.9712 17.051C49.9712 19.9422 52.1603 22.2324 55.1323 22.2324C56.8803 22.2324 58.3066 21.5091 59.1704 20.6057L59.1613 20.5956L57.9316 19.5268C57.2847 20.1159 56.3142 20.6057 55.1324 20.6057C53.3054 20.6057 51.9195 19.2603 51.7587 17.4719L59.913 17.4719ZM57.9647 15.9656H51.8386C52.1998 14.4392 53.446 13.4558 54.9118 13.4558C56.4382 13.4347 57.7239 14.3179 57.9647 15.9656ZM79.7976 16.347L78.942 16.0456C77.7307 15.6238 77.4173 15.1422 77.4173 14.5201C77.4173 13.817 78.1075 13.4154 78.9006 13.4154C79.6331 13.4154 80.1514 13.7141 80.5934 14.1984L81.7633 13.1811C81.0318 12.3034 80.0549 11.8687 78.9006 11.8687C77.0001 11.8687 75.6427 13.0331 75.6427 14.5403C75.6427 15.7451 76.2906 16.8497 78.1268 17.5123L78.942 17.8138C80.1734 18.2347 80.7166 18.6565 80.7166 19.4202C80.7166 20.1839 79.8812 20.6857 78.8583 20.6857C77.7555 20.6857 77.0488 20.1756 76.3945 19.4202L75.1612 20.4927C76.0627 21.5881 77.3466 22.2324 78.817 22.2324C81.0924 22.2324 82.5123 20.9669 82.5123 19.3595C82.5123 17.8735 81.5722 16.9701 79.7976 16.347ZM134.365 10.6575C134.365 9.9048 133.782 9.31571 133.035 9.31571C132.298 9.31571 131.698 9.91674 131.698 10.6575C131.698 11.4101 132.286 12.0001 133.035 12.0001C133.782 12.0001 134.365 11.4101 134.365 10.6575ZM134.144 10.6575C134.144 11.2879 133.658 11.7842 133.035 11.7842C132.413 11.7842 131.925 11.2879 131.925 10.6575C131.925 10.0362 132.423 9.52984 133.035 9.52984C133.648 9.52984 134.144 10.0362 134.144 10.6575ZM133.29 10.7236L133.651 11.389H133.383L133.037 10.7604H132.775V11.389H132.526V9.88183H133.058C133.4 9.88183 133.596 10.039 133.596 10.3119C133.596 10.5334 133.493 10.6722 133.29 10.7236ZM133.04 10.1079H132.775V10.5435H133.046C133.261 10.5435 133.351 10.4755 133.351 10.3174C133.351 10.1731 133.255 10.1079 133.04 10.1079ZM32.7968 6.35835C32.7968 5.60569 32.2123 5.0166 31.4661 5.0166C30.729 5.0166 30.1289 5.61763 30.1289 6.35835C30.1289 7.11102 30.7171 7.70102 31.4661 7.70102C32.2123 7.70102 32.7968 7.11102 32.7968 6.35835ZM32.5753 6.35835C32.5753 6.98971 32.0882 7.48505 31.4661 7.48505C30.8439 7.48505 30.3568 6.98971 30.3568 6.35835C30.3568 5.7371 30.854 5.23073 31.4661 5.23073C32.0781 5.23073 32.5753 5.7371 32.5753 6.35835ZM31.7215 6.42542L32.0827 7.08986H31.8144L31.4688 6.46126H31.206V7.08986H30.9569V5.58269H31.4881C31.8309 5.58269 32.0276 5.73984 32.0276 6.01278C32.0276 6.23427 31.9247 6.37304 31.7215 6.42542ZM31.4716 5.80876H31.206V6.2453H31.4771C31.6921 6.2453 31.7822 6.17727 31.7822 6.0183C31.7822 5.87401 31.6866 5.80876 31.4716 5.80876Z" fill="black"/>
<path d="M5.63576 13.4328C7.22841 10.2576 9.84849 7.70553 12.9364 6.22133C13.2975 6.04948 13.6651 5.89049 14.0364 5.7462C14.0695 5.73242 14.0557 5.68369 14.0199 5.69017C3.02671 7.54013 -1.69056 21.2039 5.65047 27.0516C5.67894 27.0745 5.71575 27.0396 5.69459 27.0111C4.62854 25.549 2.11319 20.5091 5.63576 13.4328ZM8.16122 22.5429C7.87265 20.7398 7.87725 18.9073 8.16329 17.1382C8.73859 13.5936 10.4507 10.3449 12.9136 7.93712C13.3713 7.48588 13.8575 7.06957 14.362 6.68175C14.3896 6.66059 14.3641 6.61744 14.3317 6.63123C8.58509 9.19985 5.26932 15.6099 5.6939 21.4493C5.92733 24.1181 6.97683 29.0329 12.0939 30.0034C12.126 30.0089 12.1435 29.9667 12.1168 29.9483C10.0114 28.5018 8.53066 25.117 8.16122 22.5429ZM1.05841 9.37814C3.62795 5.74898 8.90213 3.29983 14.0541 3.9367C14.0908 3.94153 14.1009 3.88894 14.066 3.8797C10.1336 2.73002 6.04307 3.50107 3.54338 5.52013C2.4709 6.38583 1.63828 7.88014 1.00692 9.34871C0.992238 9.38269 1.03725 9.40751 1.05841 9.37814ZM30.0779 13.9079C29.3987 5.60194 21.9134 -0.692336 13.6139 0.0658443C10.73 0.328678 7.64493 1.52063 5.34466 3.46617C5.31619 3.49008 5.34673 3.5342 5.37864 3.5149C7.34623 2.38912 10.0573 2.41669 11.6564 2.60324C12.4991 2.70158 13.3317 2.87803 14.1377 3.12707C14.9437 3.37796 15.7257 3.70329 16.4701 4.09479C16.8561 4.29698 17.232 4.51937 17.5959 4.75831C18.9533 4.15453 20.3851 3.75292 21.827 3.55074H21.8318C21.9339 3.53606 22.0386 3.5912 22.0735 3.68859C22.1186 3.81633 22.0396 3.94591 21.9155 3.97165C21.1398 4.13614 20.3761 4.35946 19.6345 4.63885C19.6023 4.65173 19.6106 4.7004 19.6464 4.7004C20.6978 4.70384 21.7436 4.81711 22.7609 5.0294L22.7658 5.03009C22.8567 5.05028 22.9293 5.12107 22.9404 5.21205C22.9569 5.36277 22.8301 5.47213 22.6959 5.45375C21.8026 5.31866 20.8965 5.26443 19.9922 5.29384C19.9573 5.29453 19.9508 5.34533 19.9848 5.3554C20.4076 5.48498 20.823 5.63294 21.2319 5.79744C22.0002 6.11082 22.7391 6.48945 23.4412 6.92047L23.4486 6.92667C23.5157 6.96713 23.5598 7.04246 23.5506 7.1215C23.5304 7.2906 23.3594 7.3632 23.2326 7.29335C22.5333 6.90737 21.8036 6.57653 21.0509 6.30818C20.7338 6.1979 20.4131 6.09681 20.0905 6.00858C20.0547 5.99941 20.0345 6.04628 20.0648 6.06558C20.5933 6.39918 21.0978 6.76403 21.5748 7.16471C22.2098 7.69682 22.798 8.28223 23.331 8.91175L23.3358 8.91726C23.3873 8.97881 23.4047 9.0643 23.3716 9.13598C23.299 9.29037 23.1125 9.306 23.0142 9.1985C22.4765 8.60758 21.8884 8.0626 21.2589 7.57094C20.8867 7.28053 20.497 7.0131 20.0954 6.76313C20.0642 6.74383 20.0301 6.78519 20.0559 6.81276C20.1708 6.93222 20.2829 7.05537 20.3932 7.17944C20.9427 7.80528 21.4353 8.47891 21.8608 9.19115C22.2863 9.90154 22.6457 10.6514 22.9342 11.4243L22.937 11.4298C22.9637 11.5052 22.9517 11.5925 22.8956 11.6495C22.7734 11.7708 22.5914 11.7212 22.5363 11.5833C22.2385 10.8426 21.8737 10.1276 21.4463 9.45307C21.019 8.7776 20.5292 8.14256 19.987 7.55531C19.4438 6.96991 18.8474 6.4332 18.2078 5.95441C18.0276 5.81839 17.7547 5.62999 17.6463 5.56015C5.15419 12.5262 9.48915 30.8163 18.5046 29.866C25.6655 28.1668 30.6952 21.4507 30.0786 13.9075M2.9531 11.6256C5.83419 7.05907 10.8547 5.09332 13.9306 4.79832C13.9656 4.79556 13.9656 4.74132 13.9306 4.73952C12.6596 4.62924 11.4833 4.71285 9.94306 5.03361C8.38535 5.39018 6.88553 6.005 5.54378 6.87346C4.19836 7.73549 3.01191 8.8429 2.04971 10.1176C2.04055 10.1295 2.03131 10.1442 2.02125 10.1562C0.165773 12.6421 -0.429744 15.8356 0.307298 18.849C0.390932 19.1937 0.625279 19.9077 0.784262 20.3617C0.79529 20.3948 0.845813 20.3838 0.841264 20.3479C0.458955 16.7813 1.49555 13.9351 2.9531 11.6256Z" fill="#E8171F"/>
</svg>
