<svg width="135" height="30" viewBox="0 0 135 30" fill="none" xmlns="http://www.w3.org/2000/svg">
<path fill-rule="evenodd" clip-rule="evenodd" d="M41.0719 21.6093V8.39355H44.5886L49.0445 18.2695L53.4344 8.39355H56.8033V21.6093H53.9034V13.9211L50.5576 21.6093H47.4664L44.0776 13.963V21.6093H41.0719Z" fill="#121311"/>
<path fill-rule="evenodd" clip-rule="evenodd" d="M68.471 16.4924L66.0446 10.8905L63.6739 16.4924H68.471ZM61.5048 21.6093H58.0945L63.9566 8.39355H68.1552L74.0591 21.6093H70.6929L69.531 18.9767H62.631L61.5048 21.6093Z" fill="#121311"/>
<path fill-rule="evenodd" clip-rule="evenodd" d="M75.4219 21.6093V8.39355H88.0401V11.036H78.4695V13.6609H86.6753V16.24H78.4695V18.9657H88.0633V21.6093H75.4219Z" fill="#121311"/>
<path fill-rule="evenodd" clip-rule="evenodd" d="M93.6039 14.4618H100.234V11.036H93.6039V14.4618ZM90.5133 21.6093V8.39355H101.072C102.483 8.39355 103.302 9.20989 103.302 10.61V15.0499C103.302 16.0713 102.397 16.9946 100.644 16.9946C100.545 16.9996 100.443 16.9946 100.339 16.9946L103.413 21.6093H100.021L97.1063 17.0905H93.6039V21.6093H90.5133Z" fill="#121311"/>
<path fill-rule="evenodd" clip-rule="evenodd" d="M108.862 21.6166H107.816C106.45 21.6166 105.792 20.8272 105.792 19.678V17.9516H108.862V18.9741H115.384V16.2687C115.384 16.2687 109.097 16.2687 107.903 16.2687C106.708 16.2687 105.848 15.4656 105.848 14.3511V10.4276C105.848 9.2403 106.784 8.40137 107.924 8.40137C109.063 8.40137 116.476 8.40137 116.476 8.40137C117.632 8.40137 118.432 9.26401 118.432 10.5114C118.432 11.7571 118.432 12.0884 118.432 12.0884H115.384V11.0439H108.862V13.6467H116.322C117.423 13.6467 118.432 14.3753 118.432 15.7782V19.5501C118.432 20.8349 117.719 21.6166 116.386 21.6166C115.054 21.6166 108.862 21.6166 108.862 21.6166Z" fill="#121311"/>
<path fill-rule="evenodd" clip-rule="evenodd" d="M121.383 21.6182V8.40137H124.516V13.6874L130.484 8.40137H134.726L127.607 14.5407L134.982 21.6182H130.59L124.516 15.6067V21.6182H121.383Z" fill="#121311"/>
<path fill-rule="evenodd" clip-rule="evenodd" d="M25.0083 30.001C26.8973 30.001 28.428 28.4697 28.428 26.5807V3.42177C28.428 1.53278 26.8973 0.000976562 25.0083 0.000976562H3.42079C1.53125 0.000976562 0 1.53278 0 3.42177V26.5807C0 28.4697 1.53125 30.001 3.42079 30.001H25.0083ZM24.3529 7.18751L18.7433 14.2226L26.8505 18.1268L26.8439 18.1543H17.8459L19.8474 26.9268L19.822 26.9395L14.2118 19.9044L8.60055 26.9395L8.57519 26.9279L10.5777 18.1543H1.57982L1.57266 18.1268L9.68036 14.2226L4.07018 7.18751L4.08782 7.16491L12.195 11.0691L14.1975 2.29609H14.2256L16.2282 11.0691L24.3353 7.16491L24.3529 7.18751Z" fill="#6AB0D3"/>
</svg>
