<svg width="141" height="30" viewBox="0 0 141 30" fill="none" xmlns="http://www.w3.org/2000/svg">
<path d="M140.521 13.5747V11.1034H137.453V7.26154L137.349 7.29335L134.467 8.17528L134.41 8.19254V11.1035H129.86V9.48187C129.86 8.72676 130.029 8.14891 130.362 7.76354C130.693 7.38279 131.165 7.18922 131.768 7.18922C132.201 7.18922 132.65 7.29131 133.102 7.49262L133.215 7.54319V4.94062L133.162 4.92105C132.74 4.76962 132.167 4.69336 131.457 4.69336C130.562 4.69336 129.749 4.88815 129.039 5.2742C128.33 5.66079 127.771 6.21268 127.38 6.91437C126.991 7.61524 126.793 8.42472 126.793 9.32051V11.1034H124.656V13.5747H126.793V23.9856H129.86V13.5747H134.41V20.1907C134.41 22.9154 135.695 24.2962 138.23 24.2962C138.646 24.2962 139.085 24.2474 139.533 24.1519C139.988 24.0537 140.298 23.9557 140.481 23.8511L140.522 23.8271V21.333L140.397 21.4155C140.23 21.5265 140.023 21.6171 139.78 21.6846C139.536 21.7532 139.332 21.7876 139.174 21.7876C138.58 21.7876 138.141 21.6276 137.868 21.3118C137.593 20.9932 137.453 20.436 137.453 19.6566V13.5747H140.521ZM117.806 21.788C116.692 21.788 115.814 21.4188 115.196 20.6916C114.573 19.9607 114.258 18.9186 114.258 17.5946C114.258 16.2286 114.573 15.1595 115.196 14.4157C115.815 13.6768 116.684 13.3017 117.781 13.3017C118.844 13.3017 119.691 13.6599 120.297 14.3669C120.907 15.0775 121.216 16.1381 121.216 17.52C121.216 18.9189 120.925 19.9934 120.352 20.7122C119.782 21.4256 118.925 21.788 117.806 21.788ZM117.942 10.7931C115.818 10.7931 114.13 11.4155 112.927 12.6431C111.725 13.8709 111.116 15.5699 111.116 17.6934C111.116 19.7104 111.711 21.3328 112.884 22.5147C114.058 23.697 115.655 24.296 117.631 24.296C119.69 24.296 121.344 23.6648 122.546 22.4202C123.749 21.177 124.358 19.494 124.358 17.4201C124.358 15.3716 123.786 13.7371 122.658 12.5631C121.53 11.3885 119.943 10.7931 117.942 10.7931ZM106.17 10.7931C104.725 10.7931 103.53 11.1627 102.617 11.8914C101.698 12.6245 101.232 13.586 101.232 14.7494C101.232 15.3542 101.333 15.8914 101.53 16.347C101.73 16.8042 102.038 17.2067 102.447 17.5445C102.853 17.8795 103.481 18.2305 104.312 18.5876C105.01 18.8751 105.531 19.1183 105.862 19.3099C106.186 19.4978 106.416 19.6866 106.545 19.8705C106.671 20.0505 106.735 20.2968 106.735 20.6008C106.735 21.4662 106.087 21.8874 104.753 21.8874C104.259 21.8874 103.694 21.7841 103.076 21.5804C102.463 21.3799 101.883 21.0862 101.359 20.7096L101.232 20.6183V23.5717L101.278 23.5935C101.712 23.7938 102.26 23.9628 102.905 24.0957C103.549 24.2288 104.133 24.2965 104.642 24.2965C106.21 24.2965 107.472 23.9251 108.394 23.1921C109.321 22.4539 109.791 21.4698 109.791 20.2661C109.791 19.3978 109.538 18.6531 109.039 18.0526C108.544 17.4569 107.684 16.9101 106.486 16.4267C105.531 16.0433 104.919 15.7251 104.666 15.4809C104.423 15.2449 104.299 14.9112 104.299 14.4885C104.299 14.1139 104.452 13.8138 104.765 13.5707C105.08 13.3265 105.52 13.2022 106.07 13.2022C106.582 13.2022 107.104 13.283 107.625 13.4412C108.144 13.5994 108.601 13.8113 108.982 14.0706L109.107 14.1562V11.3546L109.059 11.334C108.707 11.1832 108.244 11.0542 107.681 10.9495C107.12 10.8455 106.612 10.7931 106.17 10.7931ZM93.2349 21.788C92.1217 21.788 91.2436 21.4188 90.6251 20.6916C90.0025 19.9607 89.6877 18.9189 89.6877 17.5946C89.6877 16.2286 90.0029 15.1595 90.6258 14.4157C91.2443 13.6768 92.1136 13.3017 93.2103 13.3017C94.2735 13.3017 95.1203 13.6599 95.7269 14.3669C96.3366 15.0775 96.6458 16.1381 96.6458 17.52C96.6458 18.9189 96.3548 19.9934 95.7812 20.7122C95.2115 21.4256 94.3552 21.788 93.2349 21.788ZM93.3716 10.7931C91.2468 10.7931 89.5595 11.4155 88.3572 12.6431C87.155 13.8709 86.5451 15.5699 86.5451 17.6934C86.5451 19.7112 87.1405 21.3328 88.3141 22.5147C89.4877 23.697 91.0848 24.296 93.0609 24.296C95.1197 24.296 96.7737 23.6648 97.9762 22.4202C99.1783 21.177 99.7876 19.494 99.7876 17.4201C99.7876 15.3716 99.2159 13.7371 98.0878 12.5631C96.9592 11.3885 95.3723 10.7931 93.3716 10.7931ZM81.8886 13.3343V11.1034H78.8583V23.9854H81.8886V17.3957C81.8886 16.2752 82.1426 15.3547 82.6439 14.6594C83.1389 13.9724 83.7984 13.6243 84.6037 13.6243C84.8766 13.6243 85.183 13.6693 85.5148 13.7583C85.8432 13.8468 86.0811 13.9429 86.2214 14.044L86.3488 14.1363V11.0814L86.2997 11.0603C86.0175 10.9404 85.6183 10.8799 85.1131 10.8799C84.3517 10.8799 83.6702 11.1246 83.0865 11.6064C82.5742 12.0298 82.2039 12.6104 81.9208 13.3343H81.8886ZM73.4318 10.7931C72.0416 10.7931 70.8016 11.0912 69.7469 11.6788C68.69 12.2678 67.8727 13.1087 67.3166 14.1779C66.7629 15.2446 66.4818 16.4906 66.4818 17.8801C66.4818 19.0972 66.7543 20.2142 67.293 21.1986C67.832 22.1847 68.5949 22.9561 69.5605 23.4911C70.5248 24.0255 71.6394 24.2964 72.8734 24.2964C74.3134 24.2964 75.5429 24.0085 76.5287 23.4407L76.5685 23.4178V20.6417L76.4412 20.7347C75.9946 21.0599 75.4956 21.3196 74.9587 21.5066C74.4231 21.6935 73.9349 21.788 73.5067 21.788C72.3177 21.788 71.3631 21.416 70.6703 20.6825C69.9759 19.948 69.6239 18.9167 69.6239 17.6189C69.6239 16.313 69.991 15.2552 70.7146 14.4747C71.436 13.6965 72.3923 13.3017 73.5567 13.3017C74.5527 13.3017 75.5232 13.639 76.4414 14.305L76.5685 14.3973V11.4722L76.5275 11.4491C76.182 11.2557 75.7107 11.0959 75.1256 10.9748C74.543 10.854 73.9732 10.7931 73.4318 10.7931ZM64.3948 11.1035H61.3646V23.9854H64.3948V11.1035ZM62.9107 5.6158C62.412 5.6158 61.977 5.78558 61.6196 6.12201C61.2607 6.4594 61.0787 6.88419 61.0787 7.38551C61.0787 7.87895 61.2586 8.29599 61.614 8.6244C61.9672 8.95186 62.4035 9.11784 62.9108 9.11784C63.418 9.11784 63.856 8.95186 64.2133 8.62495C64.573 8.29599 64.7554 7.87908 64.7554 7.38551C64.7554 6.90172 64.5779 6.48128 64.2282 6.13561C63.8787 5.79061 63.4353 5.6158 62.9107 5.6158ZM55.3501 10.1531V23.9854H58.4426V6.01014H54.1625L48.7222 19.3616L43.4427 6.01014H38.9883V23.9852H41.8944V10.1517H41.9942L47.5692 23.9854H49.7623L55.2503 10.1531H55.3501Z" fill="#737373"/>
<path d="M14.255 14.2589H0V0.00390625H14.255V14.2589Z" fill="#F25022"/>
<path d="M29.9954 14.2589H15.7406V0.00390625H29.9954V14.2589Z" fill="#7FBA00"/>
<path d="M14.2546 30.0039H0V15.749H14.2546V30.0039Z" fill="#01A4EF"/>
<path d="M29.9954 30.0039H15.7406V15.749H29.9954V30.0039Z" fill="#FFB901"/>
</svg>
