<svg width="42" height="30" viewBox="0 0 42 30" fill="none" xmlns="http://www.w3.org/2000/svg">
<path d="M0.337529 4.66122V3.21588C1.18021 3.21588 1.98934 3.21588 2.79717 3.21588C4.298 3.21588 5.79882 3.22621 7.29964 3.20685C7.59774 3.20298 8.02876 3.40816 8.12554 2.86746C8.22362 2.32546 8.19265 1.8054 7.62355 1.54859C7.30222 1.40277 6.92411 1.38341 6.52019 1.29566V0.00389287C7.98617 0.00389287 9.43537 -0.00514046 10.8846 0.0193786C11.0265 0.0219595 11.2059 0.200045 11.2988 0.341997C11.8034 1.11112 12.3067 1.88282 12.7674 2.67776C12.9971 3.07522 13.2616 3.23653 13.7339 3.22879C15.3625 3.19782 16.9924 3.22234 18.6223 3.21201C18.972 3.20943 19.4185 3.38236 19.5037 2.77067C19.5798 2.21964 19.4495 1.77055 18.9397 1.5344C18.6403 1.39631 18.2842 1.38083 17.9073 1.30082V0.0387357H25.174V1.32792C24.9637 1.35115 24.7352 1.36405 24.512 1.40535C23.9119 1.51891 23.517 1.96025 23.5454 2.50483C23.5687 2.94101 23.6732 3.24427 24.2616 3.23008C25.9547 3.1862 27.6491 3.23266 29.3422 3.19524C29.6016 3.19007 29.9449 2.9965 30.0959 2.78228C30.6495 1.99639 31.1321 1.16016 31.6586 0.353611C31.7528 0.209078 31.9258 0.020669 32.0651 0.0180881C33.5169 -0.00643093 34.9687 0.00260239 36.454 0.00260239V1.32405C36.1443 1.36663 35.8643 1.37567 35.601 1.44535C34.9197 1.62473 34.5622 2.33707 34.8848 2.95134C34.9648 3.1049 35.2952 3.19524 35.512 3.19653C37.0941 3.2133 38.4646 3.69981 39.4738 4.9619C41.3307 7.28217 41.3708 9.96249 39.6093 12.3615C39.4467 12.5834 39.2776 12.7989 39.1111 13.0183C39.5576 13.4003 40.0183 13.7229 40.3913 14.1256C41.6921 15.5335 42.1425 17.255 41.9618 19.1068C41.8482 20.2643 41.6469 21.4529 41.2365 22.533C40.3552 24.8507 38.5588 26.1192 36.1043 26.4457C34.9506 26.5993 34.4422 27.4355 35.1171 28.215C35.3984 28.5402 35.9469 28.6344 36.4786 28.8821V30.001H30.4237V28.7157C30.6405 28.695 30.8702 28.6821 31.096 28.6511C31.6586 28.5724 31.9722 28.2421 32.0458 27.6833C32.1593 26.8058 31.9232 26.5361 31.0482 26.5348C30.212 26.5348 29.3745 26.5554 28.5396 26.527C28.0892 26.5115 27.9421 26.7103 27.8943 27.1181C27.7769 28.1272 28.084 28.5634 29.0932 28.6628C29.4635 28.6989 29.5758 28.8447 29.5513 29.1867C29.5332 29.4396 29.5474 29.6938 29.5474 29.9932H23.4448V28.7582C23.5635 28.7299 23.6809 28.6886 23.8035 28.6744C24.8527 28.5556 25.3108 27.8485 24.9327 26.8638C24.8759 26.7167 24.632 26.5515 24.4733 26.549C22.5014 26.5283 20.5283 26.5257 18.5552 26.5528C18.4003 26.5554 18.1629 26.7761 18.1099 26.9426C17.7886 27.9427 18.2145 28.566 19.2494 28.6718C19.3733 28.6847 19.4959 28.7079 19.6443 28.7299V29.9958H13.5713V28.717C13.7778 28.6963 14.0049 28.6782 14.2308 28.6486C14.7947 28.5724 15.1083 28.2382 15.1831 27.6833C15.3019 26.8135 15.058 26.5348 14.1908 26.5335C13.4617 26.5335 12.7312 26.5077 12.0047 26.5451C11.7002 26.5606 11.2098 26.6328 11.1401 26.8109C10.9401 27.3207 10.8665 27.9169 11.3466 28.3608C11.5066 28.5092 11.766 28.6473 11.9699 28.6344C12.6435 28.5931 12.7751 28.9363 12.6938 29.4951C12.6732 29.6409 12.6745 29.7893 12.6616 29.9868H6.4789C6.4789 29.7416 6.49825 29.4912 6.47503 29.2448C6.43502 28.8421 6.5731 28.6834 7.00154 28.6511C8.00295 28.5763 8.49591 27.7143 8.05199 26.8109C7.97456 26.6535 7.64549 26.5451 7.43127 26.5438C5.3949 26.5244 3.35724 26.5386 1.32087 26.5296C0.209772 26.5244 0.310429 26.7128 0.305267 25.4933C0.305267 25.3682 0.323333 25.2417 0.332367 25.1256C1.70156 24.7784 1.82287 24.6158 1.82287 23.1718C1.82287 17.5814 1.82287 11.9911 1.82287 6.40207C1.82287 5.13611 1.588 4.85608 0.338819 4.65605L0.337529 4.66122ZM27.4065 23.9874C28.8209 23.9874 30.1875 23.999 31.5528 23.9654C31.669 23.9628 31.8716 23.6493 31.8729 23.4789C31.8935 20.6747 31.8806 17.8705 31.8935 15.0676C31.8948 14.6443 31.7361 14.5114 31.3257 14.5153C29.6545 14.5308 27.9834 14.5204 26.3122 14.5256C26.1728 14.5256 26.0347 14.5772 25.8515 14.6121C26.3664 17.7234 26.8748 20.7934 27.4039 23.9874H27.4065ZM17.155 14.5682H11.2007V23.9964C12.4912 23.9964 13.7288 23.9706 14.9638 24.008C15.4954 24.0235 15.649 23.8144 15.7213 23.3253C15.9742 21.6168 16.2762 19.9146 16.5575 18.2099C16.7549 17.0162 16.9485 15.8225 17.1537 14.5682H17.155ZM34.8848 19.2591C34.8848 20.627 34.9055 21.9949 34.8745 23.3628C34.8616 23.9435 35.0861 24.0493 35.6088 23.959C37.2309 23.6764 38.2504 22.7253 38.7291 21.1883C39.1047 19.9817 39.1124 18.7442 38.8453 17.5156C38.4646 15.7709 37.2916 14.7127 35.6062 14.5217C35.1068 14.465 34.8564 14.5708 34.8719 15.1554C34.9081 16.522 34.8835 17.8912 34.8835 19.2591H34.8848ZM8.08683 24.0196C8.08683 23.2363 8.08683 22.5575 8.08683 21.8774C8.08683 19.6333 8.09457 17.3892 8.07392 15.145C8.07263 14.9398 7.901 14.5669 7.79389 14.5604C6.8854 14.5127 5.97303 14.5333 5.01034 14.5333C5.01034 17.6447 5.00647 20.6554 5.02453 23.666C5.02453 23.7848 5.23488 23.999 5.35231 24.0028C6.22596 24.0312 7.10091 24.0183 8.08683 24.0183V24.0196ZM18.5539 23.9112H24.5326C24.2255 22.0878 23.9339 20.3547 23.6099 18.428C22.8653 19.5817 22.2201 20.5831 21.54 21.6374C20.8509 20.5676 20.2121 19.5727 19.474 18.4267C19.1488 20.3663 18.8558 22.1175 18.5552 23.9125L18.5539 23.9112ZM5.00776 8.80493C5.00776 9.72375 5.02195 10.6426 5.0013 11.5601C4.99227 11.9498 5.12519 12.0905 5.51749 12.0776C6.20145 12.0543 6.8854 12.0608 7.56935 12.075C7.901 12.0814 8.0907 12.0066 8.08812 11.6207C8.0778 9.74181 8.09457 7.86159 8.0636 5.98266C8.06102 5.8291 7.78873 5.55939 7.62742 5.54777C6.9254 5.49873 6.21693 5.54003 5.51233 5.52067C5.11874 5.50906 4.99227 5.6665 5.00001 6.04977C5.02066 6.96729 5.00647 7.88611 5.00647 8.80493H5.00776ZM34.8848 8.81267C34.8848 9.71084 34.9016 10.6103 34.8784 11.5072C34.8668 11.9653 35.0565 12.1008 35.4901 12.0879C36.4269 12.0595 37.2451 11.4943 37.5755 10.5535C37.9639 9.4463 37.9652 8.31842 37.5522 7.22539C37.1948 6.27689 36.4992 5.69231 35.4462 5.59165C35.0358 5.55293 34.8655 5.68456 34.8771 6.11816C34.9016 7.01633 34.8848 7.9145 34.8848 8.81267ZM31.8651 12.0401V5.36452C30.3991 7.65512 29.0235 9.80505 27.5936 12.0401H31.8651ZM11.3117 5.52841C11.2756 5.54648 11.2407 5.56584 11.2046 5.58391V12.0079H15.4632C14.0411 9.78827 12.677 7.6577 11.3117 5.52712V5.52841ZM17.7964 10.5677L17.968 10.5432C18.2867 8.90172 18.6055 7.26023 18.9333 5.56971H14.6566C15.7432 7.29895 16.7691 8.93269 17.7964 10.5677ZM24.0526 5.57358C24.3881 7.28088 24.7107 8.92623 25.0333 10.5703C25.0863 10.5703 25.1392 10.569 25.1921 10.5677C26.2193 8.93398 27.2452 7.29895 28.3305 5.57229H24.0526V5.57358ZM22.4408 11.9343C22.2395 10.9032 22.0575 9.92506 21.8484 8.95333C21.8265 8.85268 21.6523 8.7275 21.5413 8.71847C21.4368 8.71072 21.2432 8.82687 21.2239 8.9172C21.0161 9.9057 20.8367 10.8994 20.6406 11.933H22.4395L22.4408 11.9343ZM20.438 14.6146C20.8341 15.2999 21.1619 15.869 21.5452 16.531C21.9427 15.8341 22.2679 15.2612 22.6356 14.6146H20.438Z" fill="#872141"/>
</svg>
