<svg width="25" height="30" viewBox="0 0 25 30" fill="none" xmlns="http://www.w3.org/2000/svg">
<path fill-rule="evenodd" clip-rule="evenodd" d="M7.69982 0.538588V0.00362132C7.59124 -0.00480335 7.58141 0.0654022 7.58515 0.123439C7.58688 0.152685 7.58477 0.182927 7.58262 0.2139C7.57542 0.317254 7.56766 0.428752 7.69982 0.538588ZM5.09239 18.4196L5.09231 18.4194C5.07596 18.3892 5.06087 18.3613 5.04732 18.3329C4.94581 18.1222 4.84436 17.9115 4.74291 17.7007C4.47157 17.137 4.20018 16.5733 3.92731 16.0105C3.88912 15.9313 3.84498 15.855 3.79832 15.7745L3.79829 15.7744L3.79828 15.7744C3.77575 15.7355 3.75264 15.6956 3.72933 15.6538C3.71154 15.6707 3.69781 15.6822 3.68767 15.6907L3.68764 15.6907C3.67272 15.7032 3.66558 15.7091 3.66474 15.7161C3.65204 15.7978 3.63904 15.8795 3.62604 15.9612C3.58685 16.2075 3.54765 16.4539 3.51637 16.7013C3.49275 16.8884 3.47485 17.0763 3.45695 17.2641C3.44328 17.4075 3.42962 17.5509 3.4134 17.694C3.39163 17.8851 3.36749 18.0757 3.34335 18.2664L3.34335 18.2665C3.32184 18.4364 3.30033 18.6063 3.28048 18.7766C3.25193 19.0237 3.19998 19.2535 2.93835 19.3644C2.93308 19.3668 2.93175 19.3788 2.93044 19.3906C2.92989 19.3956 2.92935 19.4005 2.92852 19.4047C3.11761 19.4454 3.7663 19.4445 3.97037 19.3981C3.90637 19.366 3.84768 19.3364 3.79319 19.309L3.79064 19.3077C3.75322 19.2889 3.71777 19.271 3.68393 19.254C3.60731 19.0134 3.60997 18.9854 3.62907 18.7851L3.62917 18.7841C3.64916 18.5757 3.66364 18.3669 3.6781 18.1581L3.67812 18.1579C3.68295 18.0881 3.68778 18.0184 3.69282 17.9486C3.69889 17.8637 3.70449 17.7787 3.71009 17.6938L3.7101 17.6937L3.7101 17.6937L3.7101 17.6937L3.7101 17.6937L3.7101 17.6937L3.7101 17.6936L3.71011 17.6936L3.71011 17.6936L3.71011 17.6936L3.71011 17.6936L3.71011 17.6936L3.71011 17.6935L3.71011 17.6935L3.71011 17.6935L3.71011 17.6935L3.71012 17.6935L3.71012 17.6935L3.71012 17.6934L3.71012 17.6934L3.71012 17.6934L3.71012 17.6934L3.71012 17.6934L3.71012 17.6933L3.71012 17.6933L3.71012 17.6933L3.71013 17.6933L3.71013 17.6933L3.71013 17.6933L3.71013 17.6932L3.71013 17.6932L3.71013 17.6932L3.71013 17.6932L3.71013 17.6932L3.71013 17.6932C3.72137 17.5228 3.7326 17.3525 3.74758 17.1825C3.75189 17.1344 3.76592 17.0872 3.78247 17.0315C3.79109 17.0025 3.80039 16.9712 3.80936 16.9363C3.8255 16.9652 3.84032 16.991 3.85399 17.0148C3.88117 17.0621 3.90379 17.1014 3.9231 17.1422C4.03871 17.3875 4.15375 17.6331 4.26877 17.8786C4.4066 18.1728 4.54441 18.467 4.68319 18.7607C4.7562 18.9147 4.83343 19.0668 4.91768 19.2151C4.93272 19.2415 4.96226 19.2596 4.99334 19.2787L4.99337 19.2787C5.00869 19.2881 5.02438 19.2978 5.0389 19.3088C5.17901 19.1648 5.25133 18.9985 5.32225 18.8354C5.33733 18.8008 5.35234 18.7663 5.36793 18.7321C5.49479 18.4545 5.61906 18.1756 5.74334 17.8967C5.85518 17.6456 5.96702 17.3946 6.08075 17.1445C6.08661 17.1315 6.09148 17.1173 6.09647 17.1026C6.115 17.0483 6.13524 16.989 6.21414 16.9709C6.22527 17.0624 6.2366 17.1529 6.24785 17.2429L6.2479 17.2433L6.24797 17.2438L6.24798 17.2439L6.248 17.244L6.24801 17.2441L6.24802 17.2442L6.24803 17.2443L6.24804 17.2444L6.24805 17.2445L6.24807 17.2446L6.24808 17.2447L6.24809 17.2448L6.2481 17.2449L6.24811 17.245L6.24813 17.2451L6.24814 17.2451L6.24815 17.2452L6.24816 17.2453L6.24817 17.2454L6.24818 17.2455L6.2482 17.2456L6.24821 17.2457L6.24822 17.2458C6.27185 17.4347 6.29517 17.621 6.3157 17.8078C6.31973 17.8444 6.32381 17.8811 6.32788 17.9178C6.3546 18.1582 6.38134 18.3988 6.39433 18.6404C6.40276 18.8014 6.38919 18.9657 6.36157 19.1248C6.35141 19.1833 6.29335 19.2371 6.24287 19.2839C6.23755 19.2888 6.23232 19.2937 6.22724 19.2985C6.20369 19.3207 6.17101 19.3332 6.13826 19.3457C6.12351 19.3513 6.10875 19.357 6.09479 19.3635C6.49075 19.4482 6.88062 19.4581 7.31449 19.3715C7.04771 19.2961 6.96066 19.1351 6.95738 18.9072C6.95605 18.8144 6.9415 18.7217 6.92698 18.6291L6.92697 18.6291L6.92697 18.6291L6.92697 18.629L6.92696 18.629L6.92696 18.629L6.92695 18.629L6.92695 18.6289L6.92694 18.6289L6.92694 18.6289L6.92694 18.6289L6.92693 18.6288L6.92693 18.6288L6.92692 18.6288L6.92692 18.6288L6.92691 18.6287L6.92691 18.6287L6.92691 18.6287L6.9269 18.6287L6.9269 18.6286L6.92689 18.6286L6.92689 18.6286L6.92688 18.6286L6.92688 18.6285L6.92688 18.6285L6.92687 18.6285L6.92687 18.6285L6.92686 18.6284L6.92686 18.6284L6.92686 18.6284L6.92685 18.6284C6.92097 18.5908 6.91509 18.5533 6.91011 18.5159C6.89125 18.3738 6.87195 18.2317 6.85265 18.0896C6.81162 17.7875 6.77059 17.4853 6.73366 17.1829C6.70524 16.9501 6.68014 16.7168 6.65503 16.4835L6.65503 16.4835L6.65502 16.4834L6.65502 16.4834L6.65501 16.4834L6.65501 16.4833L6.655 16.4833L6.655 16.4833L6.655 16.4833L6.65499 16.4832L6.65499 16.4832L6.65498 16.4832L6.65498 16.4831L6.65497 16.4831L6.65497 16.4831L6.65497 16.483L6.65496 16.483L6.65496 16.483L6.65495 16.483L6.65495 16.4829L6.65494 16.4829L6.65494 16.4829L6.65494 16.4828L6.65493 16.4828L6.65493 16.4828L6.65492 16.4827L6.65492 16.4827L6.65491 16.4827L6.65491 16.4827L6.65491 16.4826L6.6549 16.4826L6.6549 16.4826L6.65489 16.4825L6.65489 16.4825C6.63291 16.2782 6.61093 16.0738 6.5867 15.8696C6.58111 15.8215 6.56418 15.7746 6.54564 15.7232C6.53623 15.6971 6.5264 15.6699 6.51743 15.6407C6.41666 15.7071 6.37782 15.7986 6.34079 15.8859C6.33345 15.9032 6.32618 15.9203 6.31851 15.937C6.06053 16.4974 5.80423 17.0587 5.5479 17.6201L5.54698 17.6221C5.44693 17.8413 5.34688 18.0604 5.24671 18.2795C5.24052 18.2931 5.23516 18.3073 5.22973 18.3217L5.22973 18.3217C5.20887 18.3771 5.18714 18.4348 5.11472 18.463L5.11519 18.4621C5.10736 18.4473 5.09975 18.4332 5.09239 18.4196ZM22.4145 20.6071H2.78504C2.78347 20.5783 2.78213 20.5519 2.78074 20.5246L2.78073 20.5246L2.78073 20.5245L2.78073 20.5244C2.7792 20.4946 2.77763 20.4638 2.77568 20.4278H22.4145V20.6071ZM2.78409 25.6703C3.11077 25.7143 22.371 25.7054 22.4243 25.6591V25.4878H2.78409V25.6703ZM2.78504 30.0029H22.4145V29.8302H2.77568C2.77788 29.8722 2.77988 29.9086 2.78195 29.9464C2.78295 29.9647 2.78397 29.9833 2.78504 30.0029ZM15.2774 19.3693C15.3408 19.3413 15.4042 19.3133 15.4657 19.2858V19.2853C15.5916 19.115 15.5982 18.9193 15.5996 18.7256C15.6038 18.2 15.6067 17.6743 15.6096 17.1485C15.6118 16.7397 15.6141 16.3309 15.6169 15.922C15.6171 15.9071 15.6164 15.8919 15.6156 15.8765C15.6123 15.8071 15.6088 15.7333 15.6857 15.6632C15.9365 15.8869 16.1686 16.128 16.4004 16.3687L16.4004 16.3687L16.4004 16.3687L16.4004 16.3687L16.4004 16.3687L16.4004 16.3687L16.4004 16.3687L16.4004 16.3687L16.4004 16.3687L16.4004 16.3687L16.4004 16.3688L16.4005 16.3688L16.4005 16.3688L16.4005 16.3688L16.4005 16.3688L16.4005 16.3688L16.4005 16.3688L16.4005 16.3688L16.4005 16.3688L16.4005 16.3688L16.4005 16.3688L16.4005 16.3689L16.4006 16.3689L16.4006 16.3689L16.4006 16.3689L16.4006 16.3689L16.4006 16.3689L16.4006 16.3689L16.4006 16.3689L16.4006 16.3689L16.4006 16.3689L16.4006 16.3689L16.4006 16.3689C16.4737 16.4449 16.5468 16.5207 16.6204 16.596C16.7996 16.7793 16.9756 16.9657 17.1515 17.1521L17.1517 17.1523C17.2803 17.2885 17.4088 17.4247 17.5387 17.5597C17.7476 17.7769 17.9582 17.9926 18.1752 18.2148L18.1753 18.2148C18.2762 18.3182 18.3785 18.4229 18.4827 18.5299C18.5274 18.395 18.5212 18.2708 18.5152 18.1512C18.5124 18.0954 18.5097 18.0405 18.5122 17.9861C18.518 17.8558 18.5163 17.7252 18.5146 17.5946V17.5946V17.5945V17.5945V17.5944V17.5944V17.5943V17.5943V17.5942V17.5942V17.5942V17.5941V17.5941V17.594V17.594V17.5939V17.5939V17.5938V17.5938V17.5937V17.5937V17.5936V17.5936V17.5935V17.5935V17.5934V17.5934V17.5933V17.5933V17.5933V17.5932V17.5932V17.5931L18.5146 17.5926C18.514 17.5447 18.5134 17.4967 18.5131 17.4488C18.5122 17.2775 18.5108 17.1062 18.508 16.9349C18.507 16.8831 18.5076 16.831 18.5082 16.779C18.5096 16.6508 18.511 16.5226 18.4897 16.3985C18.4806 16.3451 18.48 16.2898 18.4794 16.234C18.4781 16.1098 18.4767 15.9833 18.3811 15.8696C18.3533 15.8579 18.323 15.8452 18.2915 15.832C18.25 15.8146 18.2062 15.7962 18.1626 15.7779L18.1668 15.7512H19.1801L19.1116 15.7836L19.1102 15.7842L19.1072 15.7856L19.1072 15.7857C19.0275 15.8233 18.969 15.851 18.9091 15.8794C18.8553 16.0372 18.8309 16.1949 18.8319 16.3601C18.8351 17.0378 18.8375 17.7151 18.8309 18.3928C18.8284 18.6395 18.8173 18.8864 18.8057 19.1433C18.8002 19.2662 18.7946 19.3913 18.7897 19.5198C18.7666 19.5021 18.7455 19.487 18.7263 19.4732C18.6892 19.4465 18.659 19.4248 18.6334 19.3986L18.5043 19.2667C18.0736 18.8268 17.643 18.3868 17.2162 17.943C16.9948 17.713 16.7761 17.4805 16.5575 17.248L16.5572 17.2477L16.5571 17.2476C16.4187 17.1004 16.2803 16.9532 16.1411 16.8066C16.115 16.779 16.0848 16.7555 16.0473 16.7264L16.0473 16.7264C16.0269 16.7106 16.0044 16.693 15.9792 16.6723C15.9751 16.7038 15.9706 16.7314 15.9665 16.7564C15.9591 16.8026 15.953 16.8402 15.953 16.8778C15.9511 17.4932 15.9502 18.1082 15.9534 18.7237C15.9539 18.8314 15.9698 18.9404 15.9885 19.0471C16.0232 19.2437 16.1664 19.3261 16.3971 19.3663C16.2321 19.4499 16.0853 19.4413 15.9467 19.4331C15.9006 19.4304 15.8553 19.4277 15.8107 19.4286C15.6338 19.4318 15.4564 19.4117 15.2767 19.3696L15.277 19.3694L15.2774 19.3693ZM7.48558 17.8433C7.50617 18.3989 7.74861 18.8374 8.19652 19.1613C8.57844 19.4375 9.01372 19.5053 9.47427 19.4847C10.0776 19.4576 10.5236 19.1796 10.7965 18.6483C11.0305 18.1925 11.1189 17.7104 11.0403 17.1899C10.9575 16.6428 10.6626 16.2515 10.2381 15.9384C10.0228 15.7793 9.77709 15.6889 9.50328 15.6964C9.42546 15.6986 9.34707 15.6978 9.26868 15.697C9.08964 15.6953 8.91056 15.6935 8.73804 15.7264C8.30277 15.8088 8.00369 16.1032 7.76312 16.4607C7.538 16.7949 7.44673 17.1633 7.48558 17.5283C7.48558 17.5717 7.48526 17.6111 7.48496 17.6478C7.48437 17.7199 7.48387 17.7816 7.48604 17.8433H7.48558ZM8.087 16.772C8.17406 16.4654 8.32664 16.1972 8.60606 16.0236C9.06005 15.7418 9.69097 15.857 10.0387 16.2796C10.2718 16.5628 10.3977 16.8955 10.4717 17.2475C10.4999 17.3822 10.5128 17.5202 10.5256 17.6583C10.5315 17.7213 10.5373 17.7843 10.5447 17.8471C10.5414 18.1003 10.51 18.3441 10.4202 18.5809C10.1136 19.3878 9.16068 19.4707 8.62291 19.0181C8.42773 18.8543 8.28405 18.6502 8.19325 18.4162C7.98544 17.8812 7.92881 17.3318 8.08747 16.7725L8.087 16.772ZM11.3368 15.7535H12.4727L12.4718 15.7545L12.4008 15.8169L12.3996 15.818C12.3304 15.8788 12.2668 15.9348 12.213 15.9819C12.1352 16.4422 12.1426 16.8889 12.15 17.3307V17.3307V17.3307V17.3308V17.3308V17.3308V17.3308V17.3308V17.3308V17.3308V17.3309V17.3309V17.3309V17.3309V17.3309V17.3309V17.3309V17.3309V17.331V17.331V17.331V17.331V17.331V17.331V17.331V17.331V17.3311V17.3311V17.3311V17.3311V17.3311C12.153 17.5137 12.1561 17.6955 12.1531 17.877C12.1493 18.0928 12.1648 18.3114 12.1947 18.5253C12.2528 18.9437 12.5954 19.1908 13.0002 19.2479C13.2436 19.2825 13.4949 19.2755 13.7402 19.2095C14.116 19.1084 14.3645 18.8426 14.401 18.4588C14.4563 17.877 14.445 17.2938 14.4095 16.7111C14.3982 16.525 14.3872 16.3391 14.3778 16.1803L14.3702 16.0507C14.2951 15.9015 14.1917 15.866 14.0919 15.8319C14.0704 15.8245 14.0489 15.8172 14.028 15.8088C14.1497 15.7311 14.8125 15.7198 15.0455 15.7891C15.039 15.795 15.0332 15.8014 15.0278 15.8073L15.0278 15.8073C15.0174 15.8187 15.0084 15.8286 14.9973 15.8317C14.7881 15.8879 14.7217 16.0414 14.7212 16.2375C14.7207 16.377 14.7213 16.5166 14.7219 16.6562V16.6563V16.6564V16.6564V16.6565V16.6565V16.6566V16.6566V16.6567V16.6567V16.6568V16.6568V16.6569V16.6569V16.657V16.657V16.6571V16.6571V16.6572V16.6572V16.6573V16.6573V16.6574V16.6574V16.6575V16.6575V16.6576V16.6576V16.6577V16.6577V16.6578C14.7229 16.907 14.7239 17.1563 14.7188 17.4052C14.7118 17.7549 14.7006 18.105 14.6706 18.4532C14.6309 18.9128 14.2527 19.305 13.8328 19.4098C13.3466 19.5311 12.8486 19.5376 12.366 19.3822C12.0239 19.2722 11.7637 19.0513 11.6977 18.6769C11.6598 18.4639 11.6527 18.2435 11.6499 18.0263C11.6459 17.7204 11.6457 17.4143 11.6454 17.1082C11.6452 16.8458 11.645 16.5835 11.6424 16.3213C11.6418 16.2325 11.6301 16.1438 11.6182 16.0542L11.6182 16.0542L11.6182 16.0542L11.6182 16.0541L11.6182 16.0541L11.6182 16.0541L11.6182 16.0541L11.6182 16.0541L11.6182 16.054L11.6182 16.054L11.6182 16.054L11.6182 16.054L11.6182 16.0539L11.6182 16.0539L11.6182 16.0539L11.6182 16.0539L11.6182 16.0539C11.6127 16.0122 11.6071 15.9703 11.6027 15.9281C11.5499 15.9 11.5043 15.8758 11.4627 15.8537L11.4626 15.8537L11.4622 15.8535C11.4146 15.8282 11.3721 15.8057 11.3298 15.783L11.3368 15.7535ZM21.1958 16.0241C21.2703 16.0241 21.3436 16.0232 21.4161 16.0224C21.5834 16.0204 21.746 16.0185 21.9077 16.0273C22.057 16.0358 22.1955 16.091 22.2933 16.2464C22.3095 16.159 22.3255 16.0716 22.3418 15.9823L22.3422 15.9803C22.3555 15.9072 22.3691 15.8328 22.3832 15.7564C21.5249 15.7472 20.6852 15.738 19.8456 15.7288L19.5432 15.7255C19.4341 15.9684 19.4229 16.0531 19.4744 16.2216C19.5502 16.1518 19.6283 16.0802 19.6883 16.0255H20.6206C20.6257 16.0534 20.6318 16.08 20.6376 16.1058L20.6376 16.1058C20.6499 16.1598 20.6613 16.2097 20.6613 16.2595C20.6634 17.0617 20.6625 17.8643 20.6616 18.6666V18.6675L20.6613 18.9685C20.6613 19.0789 20.644 19.1847 20.5742 19.2811C20.5012 19.3097 20.4254 19.3392 20.3253 19.3785C20.596 19.4459 20.8557 19.4221 21.1116 19.3987C21.2644 19.3847 21.4158 19.3708 21.5674 19.3766C21.2215 19.2671 21.1804 19.2123 21.1705 18.8463V18.8229C21.1705 17.9435 21.1705 17.0636 21.1719 16.1841C21.1719 16.1494 21.1789 16.1147 21.1863 16.0777L21.1863 16.0777C21.1897 16.0604 21.1933 16.0426 21.1963 16.0241H21.1958ZM14.003 26.6859C14.3522 26.6747 14.6704 26.8034 14.7088 27.1821H14.7083C14.7088 27.4877 14.5576 27.6431 14.3919 27.7835C14.4977 28.1125 14.9779 28.6217 15.3126 28.7378C15.2849 28.7462 15.2616 28.7542 15.2408 28.7614L15.2408 28.7614C15.2047 28.7739 15.1765 28.7836 15.1473 28.7874C14.8675 28.8258 14.6255 28.7636 14.4444 28.5277C14.3456 28.3985 14.2436 28.272 14.138 28.1409C14.0875 28.0781 14.0361 28.0143 13.9838 27.9487C13.9539 27.9459 13.9094 27.9422 13.8626 27.9384C13.859 27.9471 13.855 27.9551 13.8511 27.9627L13.8511 27.9628C13.8432 27.9783 13.8362 27.9922 13.8359 28.0063C13.8326 28.1233 13.8326 28.2398 13.8326 28.3564C13.8333 28.5202 13.8899 28.6533 14.0025 28.7556C13.7549 28.8455 13.7053 28.8464 13.2551 28.7682C13.2815 28.7456 13.3069 28.7237 13.3322 28.7019C13.3597 28.6782 13.3871 28.6546 13.4156 28.6302V26.8568C13.3831 26.8403 13.3526 26.8247 13.3229 26.8094L13.3227 26.8093C13.3094 26.8025 13.2963 26.7958 13.2832 26.7891C13.2757 26.7852 13.2682 26.7814 13.2606 26.7776L13.2462 26.7702C13.2476 26.7669 13.2489 26.7637 13.2501 26.7604C13.2514 26.7569 13.2525 26.7535 13.2536 26.7503L13.2536 26.7503L13.2536 26.7503C13.2572 26.7396 13.26 26.7313 13.2644 26.7304C13.2728 26.7286 13.2812 26.7267 13.2896 26.7247C13.2984 26.7227 13.3071 26.7206 13.3159 26.7185L13.3163 26.7184L13.3167 26.7183L13.3171 26.7182C13.3745 26.7046 13.432 26.6909 13.49 26.6888C13.5768 26.6857 13.6637 26.6864 13.7506 26.6872C13.8348 26.688 13.9189 26.6887 14.003 26.6859ZM14.098 27.7259C14.2019 27.7105 14.2791 27.6403 14.2894 27.5462H14.2904C14.3058 27.403 14.3138 27.2495 14.2777 27.1123C14.2277 26.9223 14.0812 26.8605 13.8336 26.8938C13.8336 26.9236 13.8335 26.9529 13.8334 26.9819L13.8333 27.0158L13.8333 27.0444L13.8332 27.0454V27.0455V27.0456V27.0457V27.0459C13.8329 27.1417 13.8326 27.2338 13.8336 27.3258C13.8346 27.4284 13.8373 27.5311 13.8401 27.6413C13.8411 27.6772 13.842 27.7139 13.8429 27.7517C13.8784 27.7481 13.9106 27.7453 13.9408 27.7427L13.941 27.7427L13.941 27.7427C13.9987 27.7376 14.0486 27.7333 14.098 27.7259ZM5.19265 28.7668L5.19343 28.7671L5.19312 28.7673L5.19265 28.7668ZM5.19343 28.7671C5.25741 28.7176 5.3107 28.6764 5.37752 28.625C5.39141 28.3846 5.39051 28.1422 5.3896 27.8971C5.38808 27.4897 5.38654 27.0746 5.45288 26.6476C5.48332 26.6716 5.51195 26.693 5.53892 26.7132L5.53923 26.7135L5.53951 26.7137L5.53959 26.7137C5.59444 26.7548 5.64245 26.7908 5.68502 26.8324C5.93899 27.0816 6.19122 27.3323 6.44349 27.5831L6.4473 27.5869L6.44888 27.5884C6.56488 27.7037 6.68089 27.819 6.79708 27.9342C6.83746 27.974 6.87888 28.0129 6.92597 28.0571C6.9493 28.079 6.97401 28.1022 7.00068 28.1275C7.00332 28.1036 7.00617 28.0821 7.00879 28.0623C7.01408 28.0225 7.01846 27.9895 7.01846 27.9567C7.01901 27.8422 7.01871 27.7276 7.01841 27.613C7.01794 27.4316 7.01747 27.2501 7.02033 27.0688C7.02267 26.9237 6.99506 26.8039 6.78257 26.7445C7.03063 26.6654 7.22206 26.671 7.44063 26.7365C7.40661 26.7597 7.37896 26.7787 7.35132 26.7977L7.34774 26.8002C7.32979 26.8125 7.31172 26.8249 7.2918 26.8385C7.28876 26.8682 7.28507 26.8985 7.28132 26.9292L7.28132 26.9292L7.28132 26.9292C7.27238 27.0025 7.26316 27.0781 7.26184 27.154C7.25533 27.543 7.25164 27.9316 7.24795 28.3202L7.2479 28.3258C7.2471 28.4104 7.24629 28.495 7.24546 28.5796C7.24516 28.6283 7.24524 28.6772 7.24534 28.7357C7.2454 28.7689 7.24546 28.8053 7.24546 28.8464C7.04501 28.7388 6.90639 28.5981 6.77181 28.4615L6.77179 28.4614L6.77171 28.4613C6.74072 28.4299 6.70994 28.3986 6.67867 28.3681C6.54702 28.2394 6.41915 28.1069 6.29139 27.9745L6.29136 27.9745L6.29126 27.9744L6.29117 27.9743C6.25685 27.9388 6.22254 27.9032 6.18816 27.8677C6.07161 27.7473 5.95551 27.6261 5.82785 27.4929L5.79924 27.463C5.75325 27.415 5.70568 27.3654 5.65601 27.3136V27.9426C5.65601 27.9836 5.65659 28.0247 5.65717 28.0657C5.65847 28.1573 5.65977 28.2489 5.6546 28.34C5.64384 28.5235 5.66162 28.6863 5.9284 28.7486C5.65303 28.8472 5.43276 28.8361 5.19343 28.7671ZM2.78482 26.7435C3.02258 26.6607 3.25566 26.6771 3.54912 26.722L3.54959 26.7229C3.50126 26.7558 3.46478 26.7806 3.43494 26.8008L3.43274 26.8023L3.42875 26.805C3.40367 26.822 3.3833 26.8359 3.36425 26.8488C3.36425 26.991 3.36316 27.1311 3.36209 27.2696L3.36209 27.2696V27.2696V27.2697C3.35964 27.5861 3.35725 27.8945 3.36799 28.2024C3.37829 28.5029 3.58142 28.6484 3.80514 28.6559C3.81286 28.6562 3.82058 28.6573 3.82831 28.6585C3.83603 28.6597 3.84375 28.6608 3.85147 28.6611C4.22918 28.6761 4.52311 28.5988 4.50251 28.0695C4.49512 27.8785 4.49542 27.6871 4.49572 27.4956C4.49593 27.36 4.49614 27.2244 4.49362 27.0889C4.49265 27.0315 4.48089 26.9746 4.46987 26.9212C4.46498 26.8975 4.46024 26.8746 4.45665 26.8526C4.38316 26.8123 4.32934 26.7828 4.26662 26.7482C4.47724 26.67 4.67943 26.663 4.8966 26.7309C4.87948 26.7487 4.8617 26.7652 4.84447 26.7811C4.80563 26.8169 4.76956 26.8503 4.7501 26.8914C4.72694 26.9405 4.72511 27.0006 4.72334 27.0588L4.72334 27.0588L4.72334 27.0589L4.72334 27.0589C4.72297 27.0712 4.7226 27.0835 4.72202 27.0955C4.7184 27.1745 4.71454 27.2535 4.71069 27.3326L4.71068 27.3327C4.69712 27.6109 4.68354 27.8893 4.6799 28.1678C4.67522 28.5043 4.51843 28.7233 4.17957 28.7982C3.91419 28.8567 3.64039 28.8656 3.37688 28.7814C3.09466 28.691 3.00994 28.5707 2.99684 28.2689C2.98602 28.0216 2.97704 27.7742 2.96805 27.5268C2.96264 27.378 2.95724 27.2292 2.95144 27.0805C2.94946 27.0317 2.94493 26.9832 2.94029 26.9335C2.93835 26.9127 2.93639 26.8917 2.93459 26.8704C2.88582 26.8292 2.84133 26.7915 2.79172 26.7494L2.78482 26.7435ZM9.42574 26.6883C9.22234 26.6851 9.21802 26.6877 9.08715 26.7672L9.07845 26.7725C9.24835 26.8142 9.32137 26.9396 9.38221 27.0777C9.39852 27.1146 9.41483 27.1516 9.43114 27.1885L9.43242 27.1914C9.56262 27.4865 9.693 27.7819 9.82778 28.0751C9.92794 28.2932 10.0351 28.5075 10.1428 28.7219C10.157 28.7501 10.1793 28.774 10.2058 28.8025C10.2194 28.8171 10.2341 28.8329 10.2495 28.8511C10.2714 28.809 10.2924 28.7698 10.3124 28.7325L10.3125 28.7322L10.3128 28.7318L10.3128 28.7317C10.3534 28.656 10.39 28.5877 10.4222 28.5174C10.5477 28.2413 10.6718 27.9645 10.7958 27.6876L10.7959 27.6875L10.7959 27.6874L10.796 27.6873L10.796 27.6872L10.7961 27.6871L10.7961 27.687L10.7962 27.6869L10.7962 27.6868L10.7963 27.6867L10.7963 27.6866L10.7964 27.6865L10.7964 27.6864L10.7965 27.6863L10.7965 27.6862L10.7966 27.6861L10.7966 27.686L10.7966 27.6859L10.7967 27.6858L10.7967 27.6856L10.7968 27.6855L10.7968 27.6854L10.7969 27.6853L10.7969 27.6852L10.797 27.6851L10.797 27.685C10.872 27.5178 10.9469 27.3506 11.0222 27.1835C11.0257 27.1758 11.0291 27.168 11.0325 27.1603C11.0344 27.1561 11.0362 27.1519 11.038 27.1477L11.0408 27.1414L11.0441 27.1337L11.048 27.1247C11.0767 27.0584 11.1055 26.9916 11.1462 26.9335C11.1815 26.8831 11.227 26.8397 11.2766 26.7923C11.3008 26.7693 11.3258 26.7453 11.3512 26.7192C11.1612 26.6808 10.9913 26.6494 10.8228 26.7463C10.8504 26.7884 10.8715 26.8207 10.9043 26.8713C10.7935 27.1247 10.6819 27.3804 10.5653 27.6476L10.5649 27.6485L10.5645 27.6496L10.5477 27.6881C10.4747 27.8553 10.3996 28.0273 10.3216 28.2061L10.282 28.1166L10.2193 27.9743L10.1519 27.8214L10.1516 27.8208L10.1478 27.8121L10.1451 27.8061C10.0303 27.5457 9.92351 27.3036 9.81655 27.0618C9.77021 26.9569 9.73324 26.8512 9.81983 26.7136C9.7711 26.7102 9.72544 26.7066 9.68184 26.7032L9.68167 26.7032L9.6813 26.7031C9.58983 26.6959 9.50743 26.6894 9.4248 26.6878L9.42574 26.6883ZM20.236 26.8029C20.2056 26.7842 20.1723 26.7638 20.137 26.7388L20.1366 26.7384C20.3921 26.6607 20.6266 26.6752 20.877 26.722C20.8705 26.7542 20.8649 26.782 20.859 26.812C20.8552 26.8314 20.8512 26.8516 20.8466 26.8746L20.9408 27.0071C21.0667 27.1841 21.1984 27.3693 21.3408 27.5696C21.5477 27.352 21.705 27.1208 21.8346 26.8685C21.8192 26.8217 21.8056 26.78 21.7934 26.7421C21.8519 26.6635 22.1416 26.6658 22.3242 26.7407C22.0841 26.9167 21.9582 27.0697 21.4494 27.8032V28.6297C21.5224 28.669 21.5875 28.7041 21.6572 28.7416C21.3961 28.8455 21.251 28.8506 20.8555 28.7668C20.8939 28.7381 20.9275 28.7127 20.9626 28.6861L20.9629 28.686L20.9651 28.6843L20.9653 28.6841C20.9854 28.6689 21.0062 28.6532 21.0286 28.6363V27.8018C20.9752 27.7285 20.9209 27.6535 20.8656 27.5773L20.8655 27.5771L20.8654 27.5769C20.7077 27.3593 20.5429 27.1319 20.3725 26.9087C20.3409 26.8674 20.2935 26.8383 20.236 26.8029ZM19.7667 26.9218C19.791 26.9456 19.8162 26.9699 19.8453 26.9981C19.8673 27.0193 19.8915 27.0428 19.9193 27.0697C19.9247 27.0449 19.9298 27.0236 19.9344 27.0047C19.9439 26.965 19.9509 26.9357 19.9535 26.9059C19.9567 26.8698 19.9559 26.8334 19.9551 26.7946C19.9548 26.7766 19.9544 26.7581 19.9544 26.7388C19.8355 26.6708 19.7098 26.678 19.5851 26.6852C19.5331 26.6882 19.4813 26.6912 19.4302 26.6888C19.3012 26.6823 19.1721 26.6839 19.0428 26.6855C18.9854 26.6862 18.9279 26.6869 18.8704 26.6869H18.3467C18.3445 26.6954 18.3424 26.7036 18.3404 26.7115C18.339 26.7168 18.3376 26.7219 18.3363 26.727C18.3343 26.7345 18.3323 26.7418 18.3305 26.7488C18.3208 26.7851 18.313 26.8144 18.3074 26.8441C18.2975 26.8966 18.2891 26.9499 18.2882 27.0028C18.2882 27.0127 18.2981 27.0229 18.3156 27.041C18.3263 27.0521 18.34 27.0663 18.356 27.0852C18.3944 27.014 18.4281 26.9518 18.4454 26.92H18.9266V28.6583C18.9014 28.6717 18.8779 28.6842 18.8548 28.6966L18.8511 28.6985C18.8167 28.7169 18.7827 28.7351 18.7441 28.7556C19.1559 28.8511 19.2945 28.8492 19.5617 28.7453C19.492 28.7055 19.4274 28.6686 19.3572 28.6278V26.9204H19.7672L19.7667 26.9218ZM11.5623 28.7251L11.5632 28.7246C11.6115 28.6966 11.6488 28.6749 11.6935 28.6489L11.6921 28.6484C11.6962 28.6224 11.7016 28.5953 11.7071 28.5673C11.7199 28.5027 11.7336 28.4337 11.7342 28.3648C11.7367 28.1355 11.7366 27.906 11.7364 27.6765C11.7363 27.47 11.7362 27.2635 11.738 27.0571C11.7394 26.9214 11.7146 26.8081 11.5241 26.7515C11.7993 26.6797 12.0555 26.683 12.3062 26.6861C12.435 26.6878 12.5623 26.6894 12.69 26.6808C12.6963 26.7038 12.7038 26.7262 12.7112 26.7482L12.7112 26.7483C12.7435 26.8446 12.7733 26.9337 12.6937 27.0407C12.6679 27.0071 12.6431 26.9745 12.6187 26.9423L12.6176 26.9409C12.5998 26.9176 12.5823 26.8945 12.5645 26.8713H12.1321V27.5743C12.2407 27.6251 12.3396 27.6041 12.4403 27.5828C12.4629 27.578 12.4855 27.5732 12.5084 27.5691C12.5138 27.5592 12.5191 27.5494 12.5245 27.5396C12.5324 27.5251 12.5404 27.5106 12.5485 27.4958L12.55 27.4931L12.5517 27.49L12.5526 27.4884L12.5545 27.4849L12.5549 27.4841L12.5556 27.4829L12.5565 27.4813L12.5573 27.4798C12.5707 27.4554 12.5847 27.43 12.5996 27.4025C12.7012 27.5883 12.6619 27.7582 12.5996 27.9468L12.5761 27.9181L12.576 27.918L12.5759 27.9179L12.5747 27.9163C12.5432 27.8779 12.5154 27.8441 12.4826 27.8046H12.1213C12.1236 27.8868 12.1216 27.9682 12.1196 28.0491C12.1151 28.2326 12.1106 28.4138 12.1564 28.5969C12.3998 28.714 12.5912 28.6358 12.7756 28.4289C12.7995 28.5852 12.7504 28.6789 12.6745 28.7818C12.5763 28.783 12.4777 28.786 12.3781 28.789C12.0932 28.7975 11.7991 28.8062 11.475 28.7757C11.5088 28.7561 11.537 28.7397 11.5623 28.7251ZM16.1638 28.6311C15.9756 28.72 15.6489 28.7074 15.5661 28.421C15.56 28.3998 15.5526 28.3789 15.5453 28.3579L15.5453 28.3579L15.5453 28.3579C15.5414 28.3468 15.5375 28.3357 15.5338 28.3245C15.5247 28.3459 15.5149 28.367 15.5052 28.388C15.4488 28.5098 15.3946 28.627 15.4776 28.75C16.0814 28.9756 16.6028 28.7729 16.629 28.2272C16.6075 27.9075 16.4315 27.74 16.2148 27.6014C16.1755 27.5763 16.1365 27.5506 16.0974 27.5249C16.0522 27.4952 16.007 27.4656 15.9616 27.4367C15.795 27.3309 15.7037 27.1924 15.7697 26.9654C15.7962 26.9407 15.8285 26.9108 15.8613 26.8806C15.8801 26.8633 15.8991 26.8459 15.9171 26.8292L15.92 26.8289C16.0727 26.8121 16.1985 26.7984 16.2845 26.8891C16.3383 26.9457 16.3785 27.0151 16.42 27.0864C16.4384 27.1182 16.4571 27.1504 16.4774 27.1821C16.5611 27.0183 16.5527 26.8596 16.5307 26.6986C16.4955 26.6946 16.4616 26.6901 16.4286 26.6857L16.4283 26.6856C16.3559 26.6759 16.2879 26.6668 16.2195 26.6658C16.1614 26.6648 16.1033 26.67 16.045 26.6751L16.045 26.6751C15.9957 26.6795 15.9463 26.6839 15.897 26.6845C15.5638 26.6892 15.4023 26.9729 15.4519 27.3028C15.4861 27.5298 15.6209 27.6787 15.794 27.8055C15.8331 27.8341 15.8733 27.8613 15.9136 27.8886L15.9136 27.8886C15.9827 27.9354 16.0518 27.9822 16.1151 28.0358C16.1839 28.0947 16.2476 28.1682 16.2897 28.2478C16.3571 28.3756 16.2911 28.5712 16.1638 28.6316V28.6311ZM7.9888 28.7447L7.98885 28.7446L7.98897 28.7445L7.98908 28.7444C8.01051 28.7263 8.02907 28.7106 8.0486 28.6962L8.04906 28.6952C8.06509 28.6835 8.08194 28.673 8.10133 28.6609L8.10153 28.6608C8.10618 28.6579 8.11097 28.6549 8.11593 28.6518C8.12164 28.6482 8.12758 28.6445 8.13378 28.6405V26.8404C8.10262 26.8235 8.07163 26.8065 8.03893 26.7886L8.01746 26.7769C8.00082 26.7678 7.98366 26.7584 7.96575 26.7487C8.12926 26.6758 8.2932 26.6806 8.4705 26.6857H8.47058C8.55513 26.6882 8.64271 26.6907 8.73474 26.685L8.7265 26.6949C8.67671 26.7547 8.65492 26.7809 8.63271 26.8067C8.61726 26.8245 8.60126 26.8421 8.58461 26.8604C8.5801 26.8654 8.57554 26.8704 8.57094 26.8755C8.56524 26.8818 8.55946 26.8881 8.55361 26.8947C8.55361 27.0257 8.55349 27.1566 8.55337 27.2874V27.2875V27.2876V27.2877V27.2879V27.288V27.2881V27.2883V27.2884V27.2885V27.2886V27.2888V27.2889V27.289V27.2892V27.2893V27.2894V27.2895V27.2897V27.2898V27.2899C8.55302 27.6808 8.55267 28.0706 8.55548 28.4603C8.5558 28.5067 8.56944 28.5529 8.58233 28.5965C8.58816 28.6163 8.59384 28.6355 8.59807 28.654C8.64891 28.6807 8.69232 28.7037 8.74303 28.7306L8.74331 28.7307L8.74528 28.7318L8.74726 28.7328L8.78763 28.7542C8.50306 28.8501 8.24143 28.8356 7.96248 28.7668C7.97183 28.759 7.98053 28.7517 7.9888 28.7447ZM17.1039 28.7617L17.1041 28.7617L17.1035 28.7621L17.1039 28.7617ZM17.1041 28.7617L17.1243 28.748L17.1378 28.7388L17.1532 28.7283L17.1652 28.7201L17.1834 28.7078C17.2126 28.6878 17.237 28.6712 17.2584 28.6568C17.3103 28.5637 17.3248 27.5967 17.2907 26.8605C17.242 26.8285 17.1856 26.792 17.129 26.7554L17.1284 26.7549L17.1273 26.7543C17.1282 26.7523 17.1289 26.75 17.1296 26.7476C17.1302 26.7455 17.1308 26.7434 17.1314 26.7412C17.1341 26.7312 17.1369 26.7208 17.1423 26.7192C17.2874 26.6738 17.6698 26.6742 17.8626 26.7224C17.8547 26.7293 17.847 26.736 17.8393 26.7426C17.8247 26.7553 17.8105 26.7676 17.7964 26.7798L17.7957 26.7804L17.7943 26.7816C17.7687 26.8038 17.7434 26.8257 17.7161 26.8493V28.6503C17.7381 28.6624 17.76 28.6745 17.7832 28.6874L17.7841 28.6879L17.7853 28.6885C17.8233 28.7096 17.8649 28.7326 17.916 28.7607C17.6333 28.8398 17.3825 28.8487 17.1041 28.7617ZM11.6043 24.4347C11.4223 24.5044 10.9893 24.503 10.7249 24.4197H10.7258C10.9069 24.3729 10.9542 24.2465 10.9435 24.0893C10.9416 24.0622 10.9398 24.0351 10.938 24.008C10.926 23.8263 10.914 23.6444 10.8924 23.464C10.8719 23.2931 10.8425 23.1231 10.8131 22.9533L10.8131 22.9533L10.8131 22.9532L10.8131 22.9531L10.813 22.953C10.8069 22.9174 10.8007 22.8818 10.7946 22.8462C10.7906 22.8219 10.7798 22.7988 10.7655 22.7685L10.7655 22.7685C10.758 22.7526 10.7496 22.7348 10.7408 22.7137C10.634 22.936 10.5381 23.1596 10.4419 23.3836C10.2861 23.7468 10.1297 24.1112 9.92594 24.4731C9.62452 23.8595 9.3423 23.2847 9.05492 22.6992C9.04506 22.7114 9.03593 22.7213 9.02804 22.7298C9.01423 22.7447 9.0042 22.7555 9.00063 22.768C8.98799 22.8125 8.9791 22.8588 8.97582 22.9047C8.96562 23.0555 8.94834 23.2059 8.93104 23.3564C8.89438 23.6755 8.85762 23.9955 8.88783 24.3224L8.92782 24.3497C8.97061 24.3789 9.01595 24.4099 9.07973 24.4534C8.89886 24.4857 8.73414 24.4835 8.56471 24.4812C8.48598 24.4802 8.40623 24.4791 8.32338 24.4815C8.33907 24.4652 8.35208 24.4505 8.36368 24.4374L8.3638 24.4372L8.36381 24.4372C8.38605 24.4121 8.40311 24.3928 8.42401 24.379C8.53634 24.3041 8.58735 24.1922 8.60514 24.0668C8.644 23.7925 8.68086 23.5179 8.71771 23.2434L8.71771 23.2434C8.74255 23.0583 8.76738 22.8733 8.79282 22.6884C8.84103 22.3365 8.89111 21.985 8.94212 21.6335C8.94301 21.6264 8.95054 21.6203 8.96323 21.61C8.97073 21.6039 8.98002 21.5963 8.9908 21.5862C9.12244 21.8054 9.23195 22.034 9.34113 22.2618C9.3977 22.3799 9.45417 22.4977 9.5136 22.614C9.63381 22.8496 9.75038 23.0869 9.87269 23.336C9.92562 23.4437 9.97962 23.5537 10.0355 23.6666C10.0515 23.6391 10.0665 23.6148 10.0803 23.5924L10.0803 23.5924C10.1071 23.5488 10.1295 23.5124 10.1469 23.4738C10.2561 23.2316 10.3647 22.9893 10.4733 22.747L10.4733 22.747L10.4733 22.7469L10.4733 22.7469L10.4734 22.7469L10.4734 22.7469L10.4734 22.7469L10.4734 22.7469L10.4734 22.7468L10.4734 22.7468L10.4734 22.7468L10.4734 22.7468L10.4734 22.7468L10.4734 22.7468L10.4734 22.7467L10.4735 22.7467L10.4735 22.7467L10.4735 22.7467L10.4735 22.7467C10.602 22.4598 10.7305 22.1731 10.8601 21.8867C10.8916 21.8171 10.9294 21.75 10.9671 21.6831L10.9671 21.6831L10.9671 21.683L10.9671 21.683L10.9671 21.683L10.9671 21.683L10.9671 21.683L10.9671 21.683L10.9671 21.683L10.9671 21.6829L10.9671 21.6829L10.9671 21.6829L10.9672 21.6829L10.9672 21.6829L10.9672 21.6829L10.9672 21.6829L10.9672 21.6829L10.9672 21.6828L10.9672 21.6828C10.9849 21.6513 11.0027 21.6198 11.0197 21.5881C11.0347 21.59 11.0502 21.5918 11.0651 21.5937C11.076 21.6475 11.0878 21.7012 11.0997 21.7549C11.1251 21.8703 11.1506 21.9859 11.1662 22.1025C11.2031 22.3773 11.237 22.6526 11.2709 22.9279C11.3003 23.1665 11.3296 23.4051 11.3609 23.6432C11.3839 23.8192 11.4106 23.9966 11.4574 24.167C11.4754 24.2334 11.5148 24.2939 11.5538 24.3537C11.5714 24.3806 11.5889 24.4075 11.6043 24.4347ZM15.9416 23.2749C15.9592 23.2962 15.9768 23.3171 15.9944 23.3379C16.0323 23.3829 16.0697 23.4273 16.1049 23.4733C16.1385 23.5173 16.1722 23.5613 16.2059 23.6052L16.2059 23.6052L16.206 23.6053L16.206 23.6053L16.2061 23.6054L16.2061 23.6054L16.2061 23.6055L16.2062 23.6056L16.2062 23.6056L16.2063 23.6057L16.2063 23.6057L16.2064 23.6058L16.2064 23.6058L16.2064 23.6059L16.2065 23.6059L16.2065 23.606L16.2066 23.6061L16.2066 23.6061C16.3379 23.7773 16.4692 23.9484 16.5945 24.1239C16.8351 24.4609 17.3288 24.5554 17.692 24.4178C17.5296 24.4024 17.4042 24.3158 17.2984 24.1965C17.1075 23.9816 16.9174 23.7663 16.7307 23.5482C16.6492 23.4534 16.571 23.3558 16.4938 23.2594L16.4938 23.2594C16.4623 23.2201 16.4311 23.181 16.3998 23.1424C16.4359 23.1079 16.4711 23.0758 16.5051 23.0449L16.5051 23.0449C16.5761 22.9803 16.6417 22.9206 16.6984 22.8532C16.8411 22.6824 16.9132 22.4853 16.8875 22.255C16.8449 21.8717 16.4639 21.6569 16.1456 21.6419C15.8822 21.6294 15.6179 21.6338 15.3536 21.6381H15.3536H15.3536H15.3536H15.3536H15.3536H15.3535H15.3535H15.3535H15.3535H15.3535H15.3535H15.3535H15.3534H15.3534H15.3534H15.3534H15.3534H15.3533C15.3216 21.6386 15.29 21.6392 15.2583 21.6397C15.2275 21.6401 15.1968 21.6406 15.166 21.641C15.1255 21.6416 15.0851 21.6531 15.038 21.6665C15.0139 21.6733 14.9881 21.6807 14.9596 21.6873C15.0598 21.7374 15.1277 21.7716 15.1899 21.8029V24.2896C15.1367 24.3363 15.0884 24.3792 15.0386 24.4234L15.0158 24.4436C15.2685 24.5072 15.7104 24.4946 15.8817 24.4197C15.7567 24.3729 15.7038 24.2798 15.6991 24.152C15.6982 24.1283 15.6944 24.1048 15.6906 24.0812L15.6906 24.0812C15.687 24.0586 15.6834 24.0361 15.6823 24.0135C15.6815 23.9952 15.6806 23.977 15.6797 23.9587C15.6747 23.8528 15.6697 23.7467 15.6725 23.6409C15.6734 23.6066 15.6717 23.5719 15.67 23.5371V23.5371C15.6658 23.4494 15.6615 23.3608 15.6987 23.2744H15.9411L15.9416 23.2749ZM15.6743 22.4511C15.6755 22.3939 15.6725 22.336 15.6695 22.2782C15.6618 22.1291 15.6541 21.9802 15.7179 21.8413C16.0576 21.7351 16.3052 21.9466 16.3928 22.1905C16.5271 22.5654 16.4288 22.8986 16.1157 23.0816C16.0971 23.0826 16.0777 23.0839 16.0577 23.0853L16.0575 23.0853C16.0123 23.0883 15.9642 23.0916 15.9158 23.0919C15.8696 23.0919 15.8234 23.0894 15.7724 23.0866H15.7724H15.7724H15.7724H15.7723C15.7474 23.0852 15.7213 23.0838 15.6935 23.0825C15.659 22.9077 15.6647 22.7372 15.6704 22.5691V22.569V22.569C15.6717 22.5296 15.6731 22.4903 15.6739 22.4511H15.6743ZM14.7586 24.4057C14.4623 24.5054 14.0303 24.5039 13.7682 24.4202L13.7692 24.4197C13.7818 24.4126 13.7942 24.4056 13.8068 24.3986L13.8421 24.3789C13.8564 24.3709 13.8709 24.3627 13.8862 24.3542C13.9154 24.136 13.8332 23.953 13.7501 23.7676C13.7119 23.6826 13.6735 23.5971 13.6456 23.5075H12.6861C12.6673 23.5526 12.6475 23.5977 12.6275 23.6431L12.6275 23.6431C12.5337 23.8562 12.4369 24.0762 12.4273 24.3401C12.4715 24.3559 12.5132 24.3708 12.5587 24.3872C12.5932 24.3996 12.6299 24.4127 12.6716 24.4277C12.402 24.5063 12.1563 24.4993 11.905 24.4258C12.0828 24.3991 12.1582 24.276 12.2176 24.129C12.4764 23.4921 12.7381 22.8555 12.9997 22.2195C13.0664 22.0568 13.1349 21.8951 13.2058 21.7279L13.2059 21.7275C13.2314 21.6673 13.2572 21.6064 13.2833 21.5445C13.3702 21.5956 13.3974 21.6729 13.4226 21.7445C13.429 21.7628 13.4353 21.7807 13.4425 21.7978C13.6047 22.184 13.7629 22.5716 13.9211 22.9593L13.9211 22.9594L13.9214 22.96L13.9216 22.9606L13.9218 22.9612L13.9221 22.9618L13.9223 22.9623C13.9855 23.1172 14.0487 23.2722 14.1122 23.427C14.1455 23.5082 14.1791 23.5892 14.2128 23.6702L14.2129 23.6706C14.2683 23.8039 14.3236 23.9372 14.3771 24.071C14.4398 24.2283 14.5161 24.3692 14.7586 24.4057ZM12.7883 23.2609C12.9798 23.3165 13.2895 23.3198 13.5314 23.2665C13.42 22.9557 13.3058 22.6678 13.1607 22.3524L13.0608 22.596C12.9658 22.8276 12.8772 23.0437 12.7883 23.2609ZM19.8593 21.9504C19.9412 21.8422 20.0334 21.7416 20.1677 21.6803C19.9641 21.6255 19.7638 21.6204 19.5508 21.6831C19.5701 21.7085 19.5844 21.7271 19.6012 21.7491L19.6112 21.7621L19.6267 21.7823C19.5113 22.11 19.3 22.3792 19.0865 22.6514C19.0298 22.7237 18.9729 22.7962 18.9176 22.87C18.6073 22.5555 18.2057 21.9649 18.15 21.75C18.1687 21.7327 18.1874 21.7154 18.2094 21.6948C17.9539 21.611 17.5448 21.6176 17.3492 21.6962C17.372 21.7123 17.3981 21.7275 17.4249 21.7433C17.4856 21.7788 17.5504 21.8167 17.5916 21.8722C17.8281 22.1913 18.0576 22.5152 18.2791 22.828L18.2792 22.8281L18.2795 22.8286L18.2796 22.8287L18.2796 22.8287C18.3566 22.9374 18.4326 23.0447 18.5076 23.1499V24.2812C18.4552 24.3312 18.4078 24.3769 18.3556 24.4272L18.3255 24.4562C18.7294 24.511 19.0608 24.4927 19.2181 24.415C19.2057 24.4097 19.1931 24.4043 19.1801 24.3987L19.1624 24.391C19.146 24.3839 19.129 24.3764 19.1108 24.3686C19.0977 24.3628 19.0841 24.3569 19.0697 24.3506L19.0135 24.3261C18.977 23.9077 18.9709 23.4911 19.0187 23.0755C19.0975 22.9697 19.176 22.8642 19.2542 22.7589C19.456 22.4874 19.6566 22.2177 19.8593 21.9499V21.9504ZM6.5157 21.8642H6.08932C6.08765 21.8894 6.08588 21.9119 6.08426 21.9327C6.08087 21.9759 6.07809 22.0113 6.07809 22.0468C6.07809 22.178 6.078 22.3093 6.07792 22.4405C6.07761 22.9325 6.0773 23.4244 6.08136 23.9166C6.082 24.0101 6.09423 24.1037 6.10672 24.1991C6.11266 24.2445 6.11866 24.2904 6.12349 24.3369C6.16346 24.3537 6.2002 24.3689 6.23553 24.3835L6.23575 24.3836C6.27025 24.3979 6.30341 24.4117 6.33691 24.4258C6.13706 24.5054 5.66107 24.5035 5.44764 24.422C5.48228 24.4052 5.5127 24.3902 5.56652 24.3635C5.57086 24.344 5.57687 24.3229 5.58316 24.3009C5.59793 24.2493 5.61426 24.1922 5.61426 24.1351C5.6173 23.5465 5.61633 22.9579 5.61536 22.3693V22.3692C5.61513 22.2333 5.61491 22.0974 5.61473 21.9616C5.61473 21.9473 5.611 21.9331 5.60558 21.9124L5.60558 21.9124C5.60262 21.9011 5.59917 21.8879 5.59554 21.8717H4.88132C4.86445 21.9002 4.83956 21.9414 4.81202 21.9869C4.80379 22.0005 4.79533 22.0145 4.78677 22.0287C4.78025 22.0395 4.77368 22.0504 4.76711 22.0613C4.76349 22.0591 4.75988 22.0568 4.75626 22.0546L4.74934 22.0503L4.74184 22.0456C4.73342 22.0403 4.72499 22.0351 4.71657 22.0299C4.72987 21.9486 4.74338 21.867 4.75771 21.7805C4.76555 21.7331 4.77365 21.6842 4.78209 21.633C5.07609 21.6411 5.36787 21.6395 5.65759 21.6379H5.6577H5.65774C6.08471 21.6354 6.5072 21.633 6.9257 21.662C6.97731 21.7565 6.9559 21.8343 6.93457 21.9117C6.92166 21.9586 6.90878 22.0054 6.91213 22.0557C6.81322 21.928 6.68108 21.8642 6.5157 21.8642ZM21.8485 24.3046C21.5574 24.4862 21.0631 24.3659 20.9761 24.0219C20.9684 23.992 20.9546 23.9638 20.9366 23.9271L20.9366 23.9271C20.927 23.9075 20.9162 23.8855 20.9044 23.8595C20.8319 24.0692 20.8277 24.2386 20.8825 24.4057C21.1169 24.4988 21.3421 24.5381 21.5784 24.5297C21.9898 24.5157 22.3114 24.2461 22.3905 23.8403C22.3985 23.799 22.4105 23.7587 22.4172 23.7362C22.4191 23.7299 22.4205 23.725 22.4214 23.7219C22.4045 23.3283 22.1925 23.1031 21.9135 22.9229C21.8772 22.8994 21.8411 22.8755 21.805 22.8517C21.7182 22.7942 21.6314 22.7368 21.5414 22.6842C21.277 22.5293 21.1478 22.3154 21.2335 21.9859C21.3435 21.7884 21.5274 21.6868 21.767 21.7313C22.031 21.7805 22.1892 21.9466 22.2173 22.234C22.2966 22.0929 22.2933 21.9514 22.2901 21.8091V21.8091V21.8091V21.809V21.809V21.809V21.8089V21.8089V21.8089V21.8088V21.8088V21.8088V21.8087V21.8087C22.2889 21.758 22.2877 21.7073 22.2903 21.6564C22.2374 21.6501 22.1879 21.643 22.1408 21.6363L22.1408 21.6363C22.0418 21.6221 21.9532 21.6095 21.8644 21.6082C21.7025 21.6059 21.5377 21.6082 21.379 21.6368C21.079 21.6897 20.9433 21.8507 20.8895 22.1451C20.8263 22.4895 20.9199 22.7708 21.1928 22.9913C21.2648 23.0498 21.3388 23.1064 21.4141 23.1607C21.4614 23.1948 21.5095 23.2278 21.5575 23.2608L21.5575 23.2608L21.5576 23.2608L21.5576 23.2609L21.5576 23.2609L21.5576 23.2609L21.5577 23.2609L21.5577 23.2609L21.5577 23.2609L21.5577 23.261L21.5578 23.261L21.5578 23.261L21.5578 23.261C21.6506 23.3247 21.7433 23.3883 21.8293 23.4598C21.9046 23.5225 21.9664 23.6077 22.0156 23.6933C22.1199 23.8763 22.0806 24.1595 21.8471 24.3055L21.8485 24.3046ZM2.97783 23.9901C3.10841 24.3299 3.3883 24.4632 3.7426 24.3537C4.03278 24.2639 4.17039 23.9451 4.02389 23.6812C3.97615 23.595 3.90548 23.5169 3.83106 23.4518C3.76033 23.3901 3.6824 23.3364 3.60449 23.2826L3.60448 23.2826C3.57361 23.2613 3.54274 23.24 3.51233 23.2183C3.48978 23.2022 3.46735 23.1859 3.4449 23.1695L3.44485 23.1695C3.38576 23.1265 3.32659 23.0835 3.2652 23.0442C2.89311 22.805 2.85754 22.4409 2.91324 22.0561C2.94507 21.8362 3.1159 21.7103 3.31622 21.6447C3.42434 21.6092 3.54556 21.5984 3.66023 21.6021C3.80567 21.6067 3.95066 21.6205 4.10097 21.6347L4.10099 21.6347L4.10102 21.6347L4.10108 21.6348L4.10115 21.6348C4.16554 21.6409 4.2309 21.6471 4.29769 21.6527C4.29717 21.6966 4.29873 21.7404 4.30028 21.784C4.30568 21.9354 4.31102 22.0854 4.22889 22.2373C4.20034 21.9508 4.04636 21.7809 3.78145 21.7322C3.54322 21.6887 3.356 21.7837 3.24133 21.9906C3.16224 22.3084 3.28018 22.527 3.54743 22.6824C3.6425 22.7374 3.73404 22.798 3.82556 22.8586L3.82558 22.8586L3.8256 22.8586L3.82562 22.8586L3.82564 22.8586L3.82567 22.8586L3.82569 22.8587L3.82571 22.8587L3.82573 22.8587L3.82575 22.8587L3.82577 22.8587L3.82579 22.8587L3.82582 22.8587C3.86353 22.8837 3.90123 22.9087 3.93918 22.9332C4.21064 23.1092 4.41845 23.3292 4.43436 23.7022C4.43168 23.7167 4.42884 23.7332 4.42576 23.751L4.42575 23.7511L4.42574 23.7511C4.417 23.8017 4.4063 23.8636 4.39177 23.9245C4.31922 24.2288 4.00517 24.496 3.66725 24.5255C3.40327 24.5484 3.14305 24.5208 2.88609 24.3944C2.84959 24.2264 2.82946 24.0561 2.9212 23.8679C2.92947 23.8855 2.93695 23.901 2.94374 23.915C2.95767 23.9437 2.9687 23.9665 2.97783 23.9901ZM20.5881 21.3236C20.5361 21.355 20.4809 21.3882 20.4112 21.4303C20.4425 21.5684 20.4711 21.6939 20.5029 21.8333C20.4902 21.8763 20.4765 21.9237 20.461 21.9771C20.4501 22.0144 20.4384 22.0547 20.4257 22.0982C20.7402 21.8291 20.8025 21.5268 20.5881 21.3232V21.3236ZM7.01183 24.1206C7.22292 24.056 7.36286 24.365 7.17377 24.481V24.4815C6.92712 24.6149 6.75488 24.2316 7.00388 24.1234L7.01183 24.1206ZM23.5393 13.586C23.9736 13.8898 24.3808 14.2259 24.7646 14.5909L24.7637 14.5891C24.7861 14.6105 24.8145 14.6257 24.8428 14.6407L24.8428 14.6407C24.8558 14.6477 24.8688 14.6546 24.8811 14.6621C24.872 14.6734 24.8626 14.685 24.8533 14.6965C24.8488 14.702 24.8444 14.7076 24.8399 14.7131C24.8238 14.7033 24.8076 14.6938 24.7912 14.6843C24.7521 14.6614 24.7128 14.6384 24.6761 14.612C23.4971 13.7639 22.2091 13.1241 20.8574 12.6046C19.7655 12.1847 18.6417 11.8726 17.4978 11.6362C16.9987 11.533 16.4917 11.4647 15.9857 11.3966L15.9857 11.3966L15.9857 11.3965L15.9856 11.3965L15.9856 11.3965L15.9856 11.3965L15.9856 11.3965L15.9855 11.3965L15.9855 11.3965L15.9407 11.3905C15.6642 11.3533 15.3867 11.3258 15.109 11.2983L15.1089 11.2983C14.9396 11.2816 14.7703 11.2648 14.6012 11.2459C13.6169 11.1354 12.6293 11.1471 11.6422 11.1672C11.3744 11.1727 11.1067 11.1964 10.839 11.2201C10.7199 11.2306 10.6007 11.2411 10.4815 11.2501C10.432 11.2539 10.3825 11.2575 10.333 11.2612C10.1741 11.273 10.015 11.2848 9.8562 11.3002C9.81069 11.3046 9.76583 11.3166 9.71632 11.3299L9.71631 11.3299L9.71629 11.3299C9.693 11.3362 9.66868 11.3427 9.64278 11.3488V13.0614C8.59999 13.0487 7.87828 13.5921 7.25438 14.3915C7.25115 14.225 7.2515 14.0769 7.25184 13.9331C7.25194 13.8894 7.25204 13.8461 7.25204 13.8027V13.242V12.6579V12.0738V11.5131V10.929V10.3449V9.78418C7.25182 9.69221 7.25149 9.60024 7.25115 9.50704C7.25078 9.40577 7.25041 9.30304 7.25017 9.19726C7.12664 9.21717 7.0055 9.23636 6.8861 9.25528L6.88565 9.25535L6.88561 9.25535L6.88551 9.25537L6.88549 9.25537C6.59521 9.30136 6.31517 9.34572 6.03608 9.39478C5.91486 9.41631 5.79691 9.45702 5.7019 9.54689C5.66844 9.57847 5.62976 9.60462 5.58404 9.63553C5.56133 9.65088 5.53688 9.66741 5.51048 9.68636C5.42729 9.66159 5.33971 9.63562 5.24016 9.6061C5.18736 9.59044 5.13119 9.57379 5.07052 9.55578C5.17059 9.46247 5.26129 9.37775 5.3511 9.29386L5.35186 9.29315C5.4172 9.23212 5.48209 9.17151 5.54979 9.10834C5.63054 9.09378 5.71301 9.0785 5.79669 9.06299L5.79676 9.06297L5.79678 9.06297L5.79693 9.06294L5.79782 9.06278L5.79819 9.06271L5.79822 9.0627L5.79829 9.06269L5.79831 9.06269L5.79833 9.06268L5.79838 9.06267L5.79839 9.06267L5.7984 9.06267L5.79841 9.06266C5.96446 9.03189 6.13522 9.00023 6.30661 8.97167C6.54251 8.93222 6.7791 8.89692 7.01579 8.86161C7.05429 8.85587 7.09279 8.85013 7.13129 8.84436C7.18511 8.83641 7.2394 8.83126 7.2937 8.83126C7.35079 8.83134 7.40789 8.83138 7.46498 8.83141C7.75049 8.83161 8.036 8.8318 8.32151 8.83687C8.5471 8.84062 8.76661 8.879 8.97816 8.96746C9.15847 9.04317 9.34154 9.11236 9.52469 9.18158L9.52474 9.1816C9.62349 9.21892 9.72226 9.25625 9.82063 9.29461C9.85187 9.30656 9.88151 9.32251 9.91689 9.34156L9.9169 9.34156C9.93558 9.35162 9.95586 9.36254 9.97883 9.37418C9.87733 9.46637 9.78883 9.5471 9.69018 9.63708L9.68894 9.63822L9.68882 9.63833L9.65822 9.66624C9.63558 9.89197 9.63929 10.1236 9.6431 10.3615C9.64457 10.4532 9.64605 10.5457 9.64605 10.6393C9.66623 10.6411 9.68471 10.6437 9.70197 10.646C9.73675 10.6508 9.76658 10.6549 9.79535 10.6515C9.95645 10.6329 10.1176 10.6115 10.2784 10.5902L10.2784 10.5902L10.2785 10.5902L10.2785 10.5902L10.2785 10.5902L10.2785 10.5902L10.2785 10.5902L10.2786 10.5902L10.2786 10.5902L10.3392 10.5821C10.3651 10.5787 10.391 10.5753 10.4169 10.5719C10.4223 10.5711 10.4277 10.5703 10.4331 10.5695L10.4331 10.5695C10.4509 10.5668 10.4687 10.5642 10.4866 10.5635C10.5951 10.5582 10.7035 10.552 10.8119 10.5457L10.812 10.5457C11.0527 10.5318 11.2935 10.5178 11.5346 10.5153C12.2507 10.5078 12.9672 10.5078 13.6838 10.5153C14.0175 10.5185 14.3522 10.5316 14.684 10.5663C14.9761 10.5969 15.2669 10.6391 15.5577 10.6813C15.7031 10.7024 15.8485 10.7235 15.994 10.7432C17.1052 10.8939 18.1915 11.1523 19.2577 11.4944C20.7853 11.9849 22.2217 12.664 23.5393 13.586ZM5.45551 5.17542C5.51002 5.3124 5.43898 5.37738 5.37074 5.43979C5.34876 5.4599 5.32706 5.47974 5.30995 5.50164C5.27773 5.54282 5.23961 5.57926 5.20125 5.61593C5.14543 5.66929 5.08911 5.72313 5.04972 5.79276L5.14366 5.85754L5.22381 5.91281L5.22485 5.91353L5.22535 5.91387C5.38456 6.02366 5.53863 6.1299 5.69421 6.23739V6.50979C5.69444 6.61102 5.69462 6.71228 5.69479 6.81355C5.69532 7.1173 5.69585 7.42119 5.69795 7.72482C5.69795 7.73775 5.70603 7.75069 5.71474 7.76463C5.71895 7.77136 5.72331 7.77834 5.72697 7.78566C5.74542 7.77988 5.7633 7.77425 5.78117 7.76862C5.81681 7.7574 5.85245 7.74618 5.89266 7.73371V7.58721C5.89371 7.4585 5.89471 7.32976 5.8957 7.201C5.89869 6.81568 5.90167 6.43022 5.90623 6.04503C5.90717 5.9678 5.91044 5.88871 5.92963 5.81476C5.95022 5.73519 5.99843 5.67435 6.11919 5.71413C6.1203 5.73513 6.1217 5.75654 6.12312 5.77825L6.12312 5.77827C6.12648 5.8296 6.12995 5.88256 6.12995 5.93551C6.13089 6.1728 6.13147 6.41009 6.13206 6.64738L6.13206 6.6481L6.13206 6.64882C6.13264 6.88611 6.13323 7.12339 6.13416 7.36068C6.13416 7.47629 6.13463 7.59283 6.19969 7.70001L6.21724 7.69828L6.21737 7.69827L6.2178 7.69823L6.21815 7.69819L6.21902 7.69811C6.24468 7.69558 6.26907 7.69318 6.29798 7.69018C6.30302 7.62451 6.30843 7.5596 6.31381 7.49518L6.31382 7.495L6.31383 7.49489L6.31383 7.49486L6.31384 7.49483L6.31384 7.4948C6.32542 7.35595 6.33682 7.21942 6.34384 7.08267C6.35153 6.94072 6.35506 6.79876 6.35862 6.65531C6.36026 6.58923 6.3619 6.52283 6.36397 6.45597C6.42481 6.47413 6.48591 6.47943 6.54546 6.4846C6.64854 6.49355 6.74699 6.50209 6.83154 6.57625C6.83154 6.62717 6.83099 6.67831 6.83043 6.72958V6.72959V6.7296V6.72961V6.72962V6.72963V6.72964V6.72965C6.82915 6.84848 6.82785 6.96803 6.83341 7.08735C6.83538 7.13297 6.83347 7.17924 6.83155 7.22566C6.82618 7.3559 6.82075 7.48728 6.90081 7.60874C6.93778 7.60266 6.96633 7.59798 7.01127 7.59096C7.01613 7.51137 7.02183 7.43235 7.0275 7.35372L7.0275 7.35365L7.02751 7.35359L7.02751 7.35353L7.02752 7.35346L7.02752 7.35344L7.02752 7.35342L7.02753 7.35325C7.03986 7.18232 7.05206 7.01327 7.05526 6.84444C7.06038 6.56795 7.05938 6.29125 7.05838 6.01463V6.01457V6.01453V6.01449V6.01445V6.01442V6.01437V6.01434V6.0143C7.05792 5.88598 7.05745 5.75767 7.0576 5.62941C7.0576 5.61859 7.05754 5.60774 7.05749 5.59689V5.59686V5.59682V5.5968C7.05726 5.55325 7.05704 5.50951 7.06041 5.46607C7.0693 5.36076 7.12359 5.29757 7.22469 5.28634C7.23072 5.29007 7.23622 5.29292 7.24071 5.29525C7.24808 5.29908 7.25277 5.30151 7.25277 5.30413C7.26822 6.04784 7.28319 6.79202 7.29817 7.5479H7.49334C7.49334 7.49694 7.4929 7.44704 7.49246 7.39789C7.49148 7.28724 7.49053 7.1804 7.49475 7.07378C7.49651 7.02979 7.4949 6.98546 7.49327 6.94041V6.9404V6.94039V6.94038V6.94037V6.94036V6.94035V6.94035C7.48925 6.82961 7.48508 6.71457 7.53032 6.58983C7.68296 6.59736 7.83452 6.60471 7.99155 6.61232L7.99414 6.61245C8.09004 6.6171 8.18799 6.62185 8.28947 6.6268V7.6064C8.37207 7.60179 8.43326 7.5983 8.49828 7.5946L8.52115 7.5933V7.31669C8.52115 7.19415 8.52107 7.07158 8.52098 6.949V6.94895V6.94891V6.94887V6.94882V6.94878V6.94849C8.52071 6.58056 8.52045 6.21251 8.52256 5.84471C8.52256 5.78183 8.53019 5.71895 8.53799 5.65467L8.53799 5.65466V5.65465V5.65464C8.54146 5.62611 8.54495 5.59731 8.54783 5.5681C8.58892 5.55627 8.6217 5.54697 8.65525 5.53746L8.65546 5.5374L8.65584 5.53729L8.6559 5.53728L8.67139 5.53288L8.69901 5.52504C8.742 5.65013 8.73699 5.77054 8.73209 5.88841C8.7299 5.94122 8.72773 5.99351 8.7299 6.0455C8.73476 6.16409 8.73356 6.28269 8.73237 6.40128L8.73236 6.40149C8.73183 6.45413 8.7313 6.50676 8.7313 6.5594C8.7313 6.6083 8.7312 6.65719 8.73109 6.70608V6.70611V6.70614V6.70616V6.70619V6.70622V6.70625V6.70627C8.73081 6.83655 8.73054 6.96675 8.73224 7.09671C8.73388 7.21555 8.73734 7.3344 8.74088 7.45564C8.7424 7.50773 8.74394 7.56026 8.74534 7.61342C8.77237 7.62003 8.7964 7.626 8.82027 7.63192C8.85386 7.64025 8.88711 7.6485 8.92788 7.65835C8.92953 7.5921 8.9308 7.52802 8.93203 7.46541L8.93204 7.46506L8.93204 7.46496V7.46495V7.46493V7.46492V7.46489V7.46486C8.93466 7.33262 8.93714 7.20694 8.94285 7.08127C8.94578 7.01801 8.94379 6.95446 8.94179 6.89042V6.89041V6.8904V6.89039V6.89038V6.89038V6.89037V6.89036C8.93771 6.75965 8.93356 6.62692 8.97094 6.4906C9.08982 6.44286 9.2087 6.39512 9.34583 6.34036C9.36371 6.54357 9.36161 6.74459 9.35953 6.94447V6.94448V6.9445V6.94451V6.94452V6.94453V6.94454V6.94455C9.35643 7.24185 9.35335 7.53666 9.41604 7.83246L9.42713 7.83701L9.44058 7.84251C9.44999 7.84635 9.45984 7.85037 9.47036 7.85465C9.50072 7.86701 9.53656 7.88161 9.58313 7.9008C9.58649 7.60435 9.58986 7.31307 9.59317 7.02627L9.59323 7.02062C9.59681 6.71075 9.60033 6.40612 9.60372 6.10587C9.6319 6.07915 9.65758 6.05453 9.68173 6.03138L9.68174 6.03136L9.68178 6.03133L9.6818 6.03131L9.68189 6.03123C9.72786 5.98715 9.76826 5.94843 9.80966 5.9107C9.86477 5.86064 9.92025 5.81095 9.97574 5.76125C10.0593 5.68642 10.1429 5.61155 10.2253 5.53534L10.229 5.53196C10.2906 5.47545 10.3547 5.41664 10.3222 5.28494C10.1963 5.19929 10.0498 5.10006 9.94258 5.02752C9.89159 4.95141 9.84451 4.87815 9.79916 4.80757L9.79904 4.80737L9.79902 4.80735C9.70331 4.6584 9.61528 4.5214 9.51433 4.39473C9.18109 3.97631 8.74815 3.69736 8.23331 3.55273C8.11396 3.51903 8.02316 3.45819 7.94687 3.36599C7.92186 3.33591 7.89577 3.30647 7.86949 3.2768L7.86946 3.27677C7.8569 3.2626 7.84429 3.24837 7.83173 3.234C8.12051 3.06551 8.17059 2.74724 7.96419 2.4931C7.91064 2.42721 7.86496 2.35457 7.82279 2.28751C7.80415 2.25787 7.7862 2.22931 7.76855 2.20291V0.83484C7.87538 0.786724 7.98897 0.772956 8.10103 0.759373C8.2266 0.744153 8.35025 0.729166 8.46031 0.666347C8.45996 0.639314 8.4622 0.612942 8.46436 0.587488C8.47093 0.510261 8.47677 0.441487 8.40742 0.388333C8.39815 0.381229 8.38359 0.381259 8.36642 0.381294C8.35756 0.381312 8.34802 0.381331 8.33815 0.380376C8.33295 0.423604 8.32791 0.464433 8.32285 0.50548L8.32284 0.505555C8.31924 0.534703 8.31563 0.563962 8.31194 0.594269C8.18718 0.616795 8.06517 0.638928 7.94342 0.661014L7.94302 0.661088L7.94275 0.661137L7.94224 0.661228L7.94149 0.661365C7.83368 0.680922 7.72606 0.700444 7.61691 0.720171C7.61691 0.804041 7.6166 0.886989 7.61629 0.969284L7.61629 0.969623C7.6156 1.15587 7.61492 1.33877 7.61784 1.52145C7.61899 1.59421 7.61899 1.667 7.61899 1.73978C7.61899 1.93387 7.61899 2.12786 7.64078 2.32086C7.59896 2.33588 7.55413 2.33494 7.5087 2.33399C7.43667 2.33248 7.36314 2.33094 7.2977 2.39294C7.34252 2.40676 7.38355 2.41933 7.42647 2.43248C7.462 2.44336 7.49882 2.45464 7.54015 2.46735C7.5356 2.49371 7.53277 2.51993 7.53001 2.54553C7.52424 2.59904 7.51875 2.64989 7.49849 2.69388C7.42782 2.84834 7.28413 2.92556 7.12734 2.97985C7.20502 3.16985 7.36739 3.21105 7.52228 3.25036L7.52236 3.25038C7.52926 3.25214 7.53615 3.25388 7.54302 3.25562C7.64385 3.28108 7.74146 3.30573 7.82471 3.38986C7.54623 3.35007 7.40723 3.37113 7.1704 3.49048C7.26447 3.49984 7.35059 3.50827 7.46245 3.51903C7.24622 3.85321 7.2406 4.20237 7.25137 4.57727C6.92756 4.64032 6.60354 4.69015 6.29191 4.73808L6.2919 4.73808L6.29189 4.73808C5.95581 4.78977 5.63414 4.83924 5.34271 4.90068L5.21259 5.02559C5.03097 5.19996 4.88439 5.34067 4.73192 5.48666C4.81851 5.52785 4.90603 5.5695 4.99215 5.61069C5.15316 5.45952 5.29919 5.32238 5.45457 5.17589L5.45551 5.17542ZM0.397461 14.6551C1.83387 13.2392 3.57918 12.3429 5.44571 11.647L5.44618 11.6474C5.52153 11.8599 5.52574 11.9067 5.49111 12.2053C3.67887 12.7647 1.97241 13.5697 0.397461 14.6551ZM6.43184 10.9033C6.78334 10.8958 7.04123 10.4366 6.92609 10.1137C6.803 9.74394 6.36211 9.78934 6.17021 10.0762C5.94508 10.3589 6.01295 10.892 6.42342 10.9033H6.43184ZM7.29662 7.71686H8.51024H8.51071C8.52571 7.92662 8.52407 8.13214 8.52241 8.34025V8.34032C8.52143 8.46327 8.52045 8.58713 8.52288 8.71331C8.4824 8.7166 8.44451 8.71961 8.40353 8.72288L8.40139 8.72305L8.39953 8.72319L8.39947 8.7232L8.39928 8.72321C8.36569 8.72588 8.32991 8.72873 8.28886 8.73203V7.80672C8.24788 7.80476 8.21598 7.80313 8.18278 7.80143L8.18247 7.80142C8.16041 7.80029 8.13776 7.79914 8.11147 7.79783C8.10394 8.08719 8.09641 8.36859 8.08887 8.64995L8.08886 8.65051L8.0876 8.6974C8.00032 8.52106 8.00139 8.33795 8.00248 8.1516V8.1516V8.15159C8.00313 8.04019 8.00378 7.92763 7.98557 7.81468C7.96182 7.81129 7.93693 7.80764 7.91124 7.80387L7.91032 7.80374L7.90845 7.80347L7.90834 7.80345C7.88534 7.80008 7.86171 7.79661 7.83767 7.79315C7.83347 7.80264 7.82886 7.8112 7.82456 7.81916C7.81595 7.83513 7.80865 7.84867 7.80865 7.86242C7.80756 7.92902 7.80746 7.99562 7.80736 8.06219V8.0622V8.06221V8.06222V8.06223V8.06228C7.8072 8.16691 7.80704 8.27147 7.80304 8.37586C7.79929 8.47414 7.77917 8.57149 7.75015 8.66838C7.6741 8.49662 7.67666 8.31754 7.67923 8.13687V8.13686C7.68083 8.0251 7.68243 7.91272 7.66543 7.80111H7.49881V8.66885H7.29662V7.71686ZM7.01735 7.75244C6.75997 7.74552 6.52282 7.79204 6.28357 7.83897C6.23176 7.84914 6.17984 7.85932 6.12761 7.86899C6.11029 8.20457 6.10702 8.52798 6.12761 8.85327C6.14244 8.85543 6.15484 8.85784 6.16562 8.85993C6.18514 8.86371 6.19939 8.86648 6.21326 8.86497C6.23384 8.86268 6.25397 8.85675 6.27459 8.85067C6.28351 8.84803 6.29253 8.84537 6.30172 8.84297C6.35961 8.67435 6.3551 8.50163 6.35058 8.32872C6.34674 8.18152 6.34289 8.03418 6.37754 7.88911C6.43464 7.89473 6.4777 7.89894 6.52825 7.90362C6.53529 8.00975 6.53579 8.1142 6.53627 8.21737C6.53715 8.40222 6.53801 8.58298 6.57646 8.762C6.63772 8.60368 6.63613 8.43928 6.63451 8.27283C6.63319 8.13666 6.63185 7.99912 6.66492 7.86243C6.7178 7.85728 6.76554 7.8526 6.83528 7.84558C6.83528 7.8963 6.83509 7.94491 6.83491 7.99207C6.83452 8.09374 6.83415 8.1887 6.83575 8.28367C6.83627 8.31096 6.83605 8.33836 6.83582 8.36582C6.83483 8.48524 6.83383 8.6055 6.89472 8.72081H7.0122C7.00354 8.58648 7.01735 8.4557 7.031 8.32641C7.05131 8.13406 7.07127 7.94501 7.01641 7.75244H7.01735ZM9.48503 9.01215C9.46346 9.0077 9.44281 9.00345 9.42217 8.99928L9.4217 8.99881C9.35761 8.79625 9.35874 8.59017 9.35988 8.38284C9.36051 8.26921 9.36114 8.15521 9.35103 8.04121L9.32514 8.03955L9.32497 8.03954L9.32474 8.03952C9.29418 8.03756 9.26878 8.03593 9.23121 8.03372C9.22461 8.30825 9.21801 8.57533 9.21141 8.84236L9.21141 8.84243L9.21138 8.84372L9.21015 8.89351C9.12002 8.7215 9.12168 8.54046 9.12337 8.3572C9.12455 8.2283 9.12574 8.09831 9.09501 7.9696C9.05616 7.95837 9.01591 7.94666 8.94384 7.9256V8.77884C8.86521 8.76386 8.81793 8.75497 8.75288 8.7428C8.72386 8.41845 8.72667 8.10299 8.74726 7.76366C9.04259 7.83902 9.30937 7.94245 9.58037 8.05151V9.03158C9.54533 9.02457 9.51432 9.01818 9.48503 9.01215ZM5.71334 7.93685L5.71331 7.9372L5.71287 7.93731L5.71334 7.93685ZM5.71331 7.9372C5.74296 7.92909 5.77043 7.9218 5.80072 7.91376L5.80074 7.91376L5.80107 7.91367C5.82644 7.90694 5.85379 7.89968 5.88605 7.89098C5.90272 8.12596 5.89853 8.35172 5.89423 8.58315L5.89423 8.58319C5.89226 8.68963 5.89026 8.79727 5.89026 8.90756C5.84899 8.91044 5.81643 8.91279 5.78064 8.91538L5.78058 8.91539L5.77812 8.91556C5.75661 8.91712 5.73384 8.91876 5.70726 8.92066C5.69228 8.59128 5.68573 8.27031 5.71331 7.9372ZM7.14814 0.867596C7.2163 0.848815 7.28823 0.828994 7.35703 0.92565L7.35656 0.926118C7.32736 0.93502 7.29865 0.944648 7.27027 0.954164C7.11215 1.00719 6.96435 1.05675 6.80006 0.957945C6.86871 0.879126 6.95769 0.880493 7.04304 0.881805C7.05196 0.881942 7.06084 0.882078 7.06965 0.882123C7.09495 0.882255 7.12125 0.875006 7.14814 0.867596Z" fill="#0D2754"/>
</svg>
