<svg width="100" height="26" viewBox="0 0 100 26" fill="none" xmlns="http://www.w3.org/2000/svg">
<path fill-rule="evenodd" clip-rule="evenodd" d="M23.417 6.35974C24.0711 7.40456 24.5841 8.51903 24.8764 9.72185H24.8713C24.8893 9.79657 24.9077 9.87134 24.926 9.94618C25.0491 10.4481 25.1729 10.9532 25.2246 11.4632C25.296 12.1632 25.2943 12.8716 25.2773 13.5749C25.2662 14.0679 25.1985 14.5623 25.1313 15.0527L25.1176 15.1532C25.0089 15.9534 24.7744 16.7247 24.489 17.479C24.0864 18.5408 23.5342 19.5228 22.8632 20.4351C22.3671 21.1078 21.7929 21.716 21.1694 22.2784C20.3539 23.0123 19.4603 23.629 18.4868 24.1268C17.4097 24.6789 16.2732 25.0663 15.0856 25.2905C14.6184 25.3789 14.1427 25.423 13.6687 25.4587C13.2168 25.491 12.7632 25.5148 12.3113 25.4944C11.8356 25.474 11.3617 25.4162 10.8928 25.3381C10.3746 25.2531 9.85303 25.1614 9.35356 25.0085C8.71308 24.8131 8.08109 24.5787 7.46439 24.3153C6.56228 23.9297 5.73831 23.3962 4.9823 22.7812C3.77269 21.7976 2.74826 20.644 1.96167 19.2832C1.4537 18.4049 1.05616 17.4841 0.76565 16.5208C0.622351 16.0449 0.539075 15.5497 0.455991 15.0556C0.431709 14.9112 0.407442 14.7669 0.3817 14.6232C0.340721 14.3937 0.31588 14.161 0.291051 13.9284C0.279853 13.8235 0.268654 13.7186 0.255981 13.614V12.4333C0.259225 12.4249 0.262847 12.4166 0.26647 12.4083C0.276129 12.386 0.285789 12.3638 0.28826 12.3415C0.314415 12.1402 0.338392 11.9384 0.362375 11.7366C0.405377 11.3748 0.448398 11.0128 0.50402 10.6528C0.65692 9.66069 0.983108 8.7195 1.39424 7.8072C1.88692 6.71651 2.5291 5.71926 3.30719 4.81205C3.88822 4.13419 4.5304 3.51069 5.25922 2.99933C5.9082 2.54402 6.58606 2.1227 7.28431 1.75064C7.75766 1.49767 8.27072 1.317 8.78073 1.1374C8.82896 1.12042 8.87729 1.1034 8.92544 1.08637C9.32468 0.945364 9.74091 0.841732 10.1554 0.753389C10.4515 0.690799 10.751 0.646971 11.0503 0.603173C11.1735 0.585154 11.2966 0.567136 11.4194 0.547823C11.4851 0.537711 11.5515 0.529404 11.6177 0.521112C11.6627 0.515475 11.7077 0.509839 11.7524 0.503652H12.0378C12.0311 0.515525 12.0244 0.527583 12.0176 0.539718C11.9953 0.579672 11.9725 0.620461 11.9478 0.658251C11.809 0.870662 11.67 1.08288 11.5311 1.29511C11.2534 1.71919 10.9753 2.14391 10.6991 2.56951C10.271 3.22954 9.84359 3.89023 9.41601 4.55117L9.41536 4.55217L9.41419 4.55398L9.41283 4.55609C9.15251 4.95848 8.89214 5.36095 8.63153 5.76343C8.40885 6.10633 8.18618 6.44965 7.9635 6.79298L7.96295 6.79383L7.96138 6.79626L7.96036 6.79783C7.73727 7.14179 7.51419 7.48575 7.2911 7.82928C6.9904 8.29308 6.68799 8.75858 6.38559 9.22237C5.92009 9.93931 5.4546 10.6545 4.9874 11.3698C4.92108 11.4714 4.85073 11.5703 4.77294 11.6797C4.72717 11.744 4.67884 11.812 4.62724 11.8862C4.59496 10.8686 4.74276 9.93251 4.98061 9.00832C3.25113 12.1309 3.6113 17.1273 7.57652 20.0766C10.8282 22.4941 15.6242 22.4737 18.8725 19.3733C22.1836 16.2133 22.1819 11.6858 20.5493 8.84692C20.8228 9.83737 20.9978 10.8023 20.9604 11.8506C20.9392 11.8219 20.9218 11.7988 20.9072 11.7794C20.8787 11.7416 20.86 11.7166 20.8432 11.6909C20.5811 11.2868 20.3192 10.8823 20.0573 10.4777C19.5671 9.72063 19.0763 8.96251 18.5836 8.20644C18.1069 7.47566 17.6273 6.74601 17.1478 6.01651L17.1473 6.01562L17.1467 6.01473C16.7928 5.47627 16.4389 4.9379 16.0863 4.39922C15.8454 4.03102 15.6071 3.66181 15.3688 3.2927C15.1684 2.98227 14.968 2.6719 14.7662 2.36224C14.4967 1.94771 14.2256 1.53469 13.9545 1.12168C13.819 0.915164 13.6835 0.708653 13.5481 0.501953H13.8743C13.9112 0.509829 13.948 0.51799 13.9848 0.526147C14.0748 0.546139 14.1649 0.566118 14.2566 0.581801C14.4203 0.609645 14.5849 0.63402 14.7496 0.658398C15.0872 0.70839 15.425 0.758394 15.755 0.838334C16.7234 1.07278 17.6561 1.41766 18.5412 1.88145C19.3804 2.32147 20.1602 2.84643 20.889 3.45463C21.888 4.28879 22.7306 5.26056 23.417 6.35974ZM8.07565 8.55992C8.29963 8.11948 8.52367 7.67893 8.74505 7.23803C9.23808 6.25738 9.72904 5.27604 10.2201 4.29445C10.5007 3.7337 10.7813 3.17277 11.0623 2.61194C11.239 2.26026 11.4153 1.90901 11.5916 1.55775C11.7678 1.20651 11.9441 0.855275 12.1208 0.503612H12.2023C10.5136 6.41916 8.8232 12.3347 7.1328 18.2503C7.11921 18.2537 7.10519 18.2566 7.09118 18.2596C7.07716 18.2626 7.06315 18.2655 7.04955 18.2689C6.946 18.1265 6.84065 17.9853 6.73533 17.8441C6.48649 17.5104 6.23759 17.1768 6.01323 16.8283C5.60719 16.198 5.31159 15.5116 5.09413 14.793C5.06525 14.6979 5.07204 14.5688 5.11451 14.4804C5.42736 13.843 5.7459 13.2088 6.06451 12.5745C6.20613 12.2925 6.34777 12.0105 6.48892 11.7282C6.62351 11.4584 6.75732 11.1883 6.89116 10.9181L6.89163 10.9172C7.1023 10.492 7.31303 10.0667 7.52694 9.64196C7.70891 9.28109 7.89233 8.92042 8.07565 8.55992ZM14.6865 5.07397L14.6873 5.07683C14.8512 5.63641 15.0151 6.196 15.1772 6.75558C15.3148 7.23127 15.4507 7.70781 15.5866 8.18435C15.7226 8.66089 15.8585 9.13743 15.9961 9.61312C16.2061 10.342 16.4179 11.0708 16.6297 11.7997L16.631 11.8042C16.7718 12.2885 16.9126 12.7729 17.0528 13.2572C17.1881 13.7237 17.3215 14.1905 17.455 14.6576L17.4553 14.6586C17.5799 15.0944 17.7047 15.531 17.8309 15.967C17.9898 16.5163 18.1524 17.0638 18.3187 17.6237L18.3206 17.6302C18.3795 17.8283 18.4388 18.028 18.4985 18.2299C18.5517 18.1712 18.604 18.1151 18.6551 18.0603C18.774 17.9328 18.8863 17.8124 18.9861 17.6829C19.6606 16.7977 20.1754 15.8277 20.51 14.7659C20.5355 14.6843 20.5202 14.5705 20.4812 14.4923C20.1272 13.7844 19.7707 13.0775 19.4142 12.3706C19.117 11.7813 18.8198 11.1919 18.524 10.6019C17.3193 8.19841 16.1162 5.79407 14.9131 3.38949L14.9124 3.38817L14.9117 3.38685C14.4306 2.42524 13.9494 1.4636 13.4681 0.501953H13.3866C13.3878 0.518734 13.3877 0.535727 13.3876 0.552632C13.3875 0.583636 13.3874 0.614384 13.3951 0.642961C13.6434 1.49691 13.8927 2.35087 14.1422 3.20561L14.143 3.20806L14.3617 3.9575H14.36C14.4685 4.32953 14.5775 4.70195 14.6865 5.07397Z" fill="url(#paint0_linear_14586_104395)"/>
<path fill-rule="evenodd" clip-rule="evenodd" d="M72.7384 11.968C73.7459 12.9023 74.3626 14.0627 74.7057 15.3742H74.704C74.7715 15.6287 74.796 15.8945 74.8205 16.1597C74.8287 16.2486 74.8369 16.3375 74.8467 16.4259C74.8688 16.6263 74.8858 16.8285 74.8858 17.0307C74.8892 18.2963 74.4696 19.4142 73.6932 20.4047C73.2481 20.9738 72.7503 21.4971 72.1506 21.8997C71.4574 22.3635 70.676 22.6387 69.8605 22.8103C69.6974 22.8443 69.5275 22.8545 69.3593 22.8545C66.2764 22.8647 63.1935 22.8733 60.1105 22.882C58.5691 22.8864 57.0276 22.8907 55.4861 22.8952C55.3902 22.8952 55.2943 22.8945 55.1983 22.8938C54.9681 22.892 54.7378 22.8902 54.5076 22.8986C54.3275 22.9054 54.2595 22.863 54.2578 22.6659C54.2426 21.4937 54.6333 20.493 55.5201 19.7149C56.1334 19.1781 56.8504 18.8247 57.6539 18.6684C57.8646 18.6276 58.0838 18.6242 58.2995 18.6242C59.7819 18.6228 61.2639 18.6232 62.7458 18.6236C64.7217 18.6242 66.6974 18.6247 68.673 18.6208C69.8435 18.6191 70.5893 17.7782 70.6233 16.7147C70.6539 15.7871 70.2224 15.0973 69.1775 14.8425C68.8361 14.7592 68.4742 14.7202 68.1225 14.7202C66.8456 14.7148 65.5681 14.7146 64.2907 14.7144C63.1294 14.7142 61.968 14.714 60.8071 14.71C60.1292 14.7083 59.4616 14.6097 58.8007 14.4398C58.0838 14.2547 57.411 13.9777 56.8028 13.5581C56.0757 13.0552 55.4912 12.4148 55.0376 11.652C54.6724 11.0387 54.4209 10.3931 54.2952 9.68464C54.1865 9.07814 54.1338 8.47333 54.144 7.86003C54.1542 7.20935 54.3122 6.59435 54.5704 5.99974C54.9391 5.15369 55.5252 4.46904 56.1742 3.83025C56.8402 3.17448 57.6522 2.79563 58.5357 2.5323C59.0946 2.36581 59.6586 2.29445 60.238 2.29445C61.8871 2.29809 63.5371 2.2974 65.1867 2.29671C65.8464 2.29643 66.5066 2.29615 67.166 2.29615C67.5746 2.29615 67.9831 2.2962 68.3917 2.29625C70.4351 2.29648 72.4793 2.29672 74.5223 2.29106C74.7227 2.28936 74.772 2.35222 74.7703 2.54419C74.7584 3.71473 74.3575 4.71538 73.4621 5.48328C72.8607 5.99804 72.1795 6.38199 71.3759 6.48393C71.0956 6.5196 70.8102 6.5281 70.5282 6.5281C69.412 6.52923 68.2958 6.52866 67.1797 6.5281C64.9473 6.52696 62.715 6.52583 60.4826 6.53829C59.273 6.54508 58.5357 7.20426 58.4032 8.40877C58.3148 9.20895 58.7208 9.96666 59.6637 10.2827C60.0766 10.4203 60.4894 10.439 60.9141 10.439C61.4188 10.4382 61.9236 10.4372 62.4284 10.4361C64.3482 10.432 66.2695 10.4279 68.1888 10.444C69.0926 10.4525 69.9981 10.5222 70.8611 10.8416C71.5577 11.0998 72.1897 11.46 72.7384 11.968ZM99.2184 10.9282C99.0858 9.92412 98.7902 8.95575 98.3231 8.06383C97.6673 6.81514 96.8246 5.68878 95.7339 4.77987C95.2158 4.34835 94.6704 3.93552 94.0911 3.59404C92.5621 2.69193 90.8734 2.31817 89.1167 2.30458C86.6236 2.28474 84.1306 2.28933 81.6375 2.29392C80.7141 2.29562 79.7907 2.29732 78.8673 2.29778C78.5819 2.29778 78.5598 2.32327 78.5598 2.60698V12.5812C78.5598 15.9263 78.5598 19.2714 78.5564 22.6166C78.5564 22.7966 78.5955 22.8646 78.7926 22.8646C80.9698 22.8617 83.1471 22.861 85.3243 22.8603C86.9577 22.8598 88.5911 22.8593 90.2244 22.8578C90.4181 22.8578 90.6152 22.8374 90.802 22.7915C91.0401 22.732 91.2764 22.666 91.5128 22.6C91.7891 22.5228 92.0654 22.4456 92.3446 22.3787C93.1567 22.185 93.894 21.83 94.5685 21.3509C95.0442 21.0145 95.4995 20.6475 95.9378 20.2619C95.972 20.2317 96.0063 20.2016 96.0406 20.1714C96.4395 19.8206 96.8437 19.4651 97.1644 19.0506C97.5772 18.5137 97.9255 17.9191 98.2415 17.3177C98.673 16.4971 99.0043 15.629 99.1504 14.7065C99.1628 14.6277 99.1754 14.5489 99.1881 14.47C99.2759 13.9211 99.3645 13.3679 99.3764 12.8156C99.3883 12.1887 99.3067 11.5568 99.2235 10.9316L99.2184 10.9282ZM95.4859 12.9397C95.457 13.4374 95.4111 13.925 95.2718 14.4058C95.0357 15.2162 94.6619 15.9637 94.1404 16.6195C93.6001 17.3024 92.9393 17.863 92.1833 18.3099C91.4425 18.7482 90.6491 19.0268 89.7912 19.1117C89.7597 19.1148 89.7281 19.1181 89.6965 19.1213C89.5543 19.136 89.411 19.1508 89.2679 19.1508C87.5722 19.1534 85.8755 19.153 84.1785 19.1527C83.6127 19.1526 83.0467 19.1525 82.4809 19.1525H82.2362V6.12199H82.4809H89.4905C90.2057 6.12199 90.8768 6.31567 91.5275 6.59598C92.2631 6.91368 92.9104 7.36219 93.4812 7.91942C94.3901 8.80455 95.102 9.81199 95.3619 11.0811C95.4876 11.6927 95.5216 12.3111 95.4859 12.9397ZM49.9581 9.62357C50.0428 9.91632 50.1275 10.209 50.1966 10.5051L50.2 10.5068C50.2663 10.7838 50.3104 11.0743 50.3104 11.3597C50.3181 12.7651 50.3171 14.1696 50.3162 15.5738C50.3159 16.0419 50.3155 16.5099 50.3155 16.9779V22.5962C50.3155 22.8748 50.2646 22.9308 49.9995 22.8969C49.9498 22.8904 49.8999 22.884 49.8501 22.8777C49.3913 22.8194 48.9316 22.761 48.4994 22.5741C47.7791 22.2632 47.2117 21.7739 46.8005 21.113C46.6154 20.814 46.4404 20.498 46.3282 20.1667C46.2144 19.8304 46.1295 19.4668 46.1261 19.1134C46.1168 17.9348 46.1171 16.7562 46.1174 15.5776C46.1177 14.585 46.1179 13.5924 46.1125 12.5999C46.1074 11.6417 45.9545 10.7073 45.506 9.84426C45.0965 9.05428 44.5512 8.37472 43.8682 7.80049C43.1445 7.19229 42.3239 6.78455 41.4082 6.5671C41.1432 6.50424 40.8663 6.45327 40.5962 6.45497C40.0304 6.45837 39.463 6.47536 38.9007 6.53312C38.1905 6.60617 37.5602 6.90857 36.969 7.29932C35.8834 8.01795 35.0629 8.96084 34.5447 10.1552C34.3069 10.7022 34.1353 11.273 34.1353 11.8761C34.1341 12.6837 34.135 13.4916 34.136 14.2994C34.1377 15.7536 34.1394 17.2079 34.1285 18.6615C34.12 19.6129 33.9144 20.5184 33.3215 21.2999C32.924 21.8232 32.4092 22.1918 31.8316 22.4942C31.3846 22.7269 30.9027 22.7989 30.4189 22.8711C30.3693 22.8785 30.3198 22.8859 30.2703 22.8935C30.0206 22.9308 29.8897 22.8544 29.8897 22.5503C29.8922 21.3008 29.8916 20.0514 29.8909 18.8022C29.8898 16.5712 29.8887 14.3404 29.905 12.1089C29.9097 11.496 30.02 10.8816 30.1291 10.2738C30.1383 10.2229 30.1474 10.172 30.1565 10.1212C30.2992 9.3261 30.5812 8.57179 30.9499 7.85316C31.2743 7.22287 31.6583 6.63165 32.1102 6.08121C32.9087 5.10775 33.8719 4.33135 34.9185 3.6433C35.5742 3.21348 36.2827 2.90428 37.0387 2.70381C37.1467 2.67531 37.2546 2.64601 37.3625 2.6167C37.8015 2.49753 38.2411 2.37818 38.6883 2.31137C39.2269 2.22982 39.779 2.22302 40.3244 2.21793C41.0973 2.21283 41.8585 2.33515 42.6094 2.51863C44.0381 2.8686 45.331 3.51079 46.4998 4.39081C46.9025 4.69322 47.2473 5.08226 47.5837 5.46281C47.983 5.91302 48.355 6.38871 48.7169 6.8712C49.2283 7.55585 49.5952 8.31526 49.8212 9.14092C49.8651 9.30224 49.9116 9.46292 49.9581 9.62357Z" fill="url(#paint1_linear_14586_104395)"/>
<defs>
<linearGradient id="paint0_linear_14586_104395" x1="0.255981" y1="13.002" x2="25.287" y2="13.002" gradientUnits="userSpaceOnUse">
<stop stop-color="#17A7DC"/>
<stop offset="1" stop-color="#A73795"/>
</linearGradient>
<linearGradient id="paint1_linear_14586_104395" x1="29.8897" y1="12.5618" x2="99.3775" y2="12.5618" gradientUnits="userSpaceOnUse">
<stop stop-color="#17A7DC"/>
<stop offset="1" stop-color="#A73795"/>
</linearGradient>
</defs>
</svg>
