<svg width="47" height="30" viewBox="0 0 47 30" fill="none" xmlns="http://www.w3.org/2000/svg">
<path fill-rule="evenodd" clip-rule="evenodd" d="M18.0088 0.320816C20.3305 -0.222595 22.8158 -0.0667847 25.0443 0.785361C27.0592 1.54902 28.851 2.88302 30.1716 4.58443C31.8989 3.70439 33.9283 3.43894 35.8221 3.84866C37.6216 4.23049 39.2855 5.20863 40.5031 6.58591C41.3437 7.53135 41.9679 8.66626 42.3228 9.88004C43.8549 10.6841 45.113 11.9969 45.8468 13.5656C46.674 15.3103 46.8394 17.356 46.3085 19.2123C45.8497 20.8416 44.8552 22.3121 43.5183 23.3499C42.4296 24.2049 41.1158 24.7589 39.75 24.9753C39.2172 25.4601 38.6497 25.916 38.015 26.2632C36.0529 27.3759 33.6196 27.602 31.4834 26.8797C28.3317 29.339 24.1604 30.4489 20.2065 29.8401C17.8145 29.4813 15.5091 28.5378 13.5624 27.1009C11.3359 27.5318 8.97373 27.2471 6.9232 26.2718C4.46679 25.1196 2.48069 23.0056 1.48909 20.4799C0.692727 18.4765 0.527299 16.2336 1.00338 14.1331C1.441 12.1749 2.45184 10.3523 3.87048 8.93364C5.38722 7.40151 7.3762 6.34546 9.49502 5.94632C9.6951 5.90261 9.89844 5.87718 10.1016 5.85178C10.2471 5.83358 10.3926 5.81539 10.5366 5.79051C11.2051 4.69984 12.0284 3.70054 13.0007 2.86571C14.4328 1.62981 16.167 0.748813 18.0097 0.319855L18.0088 0.320816ZM16.6527 3.64572C15.1301 4.3988 13.8279 5.58565 12.9305 7.02641C12.708 7.37789 12.5198 7.74889 12.3316 8.11993C12.2799 8.22194 12.228 8.3242 12.1755 8.42581C11.3753 8.43062 10.5693 8.44024 9.78644 8.62394C8.08023 8.99615 6.51059 9.94736 5.37568 11.2737C4.31963 12.498 3.63869 14.0427 3.46557 15.6517C3.27898 17.3233 3.63484 19.0517 4.4716 20.5126C5.26892 21.9178 6.4952 23.0758 7.94558 23.7875C9.40077 24.5108 11.0781 24.7676 12.6843 24.531C13.0987 24.4753 13.5032 24.3693 13.9072 24.2634C14.0056 24.2376 14.1045 24.2117 14.203 24.1867C14.9772 24.8349 15.7909 25.4447 16.6882 25.9131C18.7301 27.0076 21.0923 27.476 23.3977 27.2788C25.4665 27.1076 27.4853 26.392 29.2011 25.2254C29.8001 24.8275 30.3407 24.3531 30.8799 23.8797L30.8807 23.879C30.9239 23.8411 30.9671 23.8032 31.0102 23.7654C31.1369 23.8214 31.263 23.8796 31.3891 23.9378C31.8477 24.1495 32.3075 24.3618 32.803 24.4704C34.1409 24.7935 35.597 24.5723 36.7829 23.877C37.436 23.5076 37.9813 22.9806 38.4583 22.4073C38.5877 22.3918 38.7178 22.3814 38.8479 22.371C38.9344 22.3641 39.0211 22.3571 39.1076 22.3487C40.0713 22.2535 41.0052 21.8812 41.7775 21.2974C43.023 20.3674 43.8405 18.8805 43.9271 17.3233C43.9925 16.2673 43.7347 15.1939 43.198 14.2822C42.7268 13.4762 42.041 12.7991 41.2302 12.3384C40.9458 12.1723 40.6425 12.0461 40.3392 11.9199C40.2262 11.8728 40.1131 11.8258 40.0011 11.7767C39.9733 11.6503 39.9481 11.5232 39.9229 11.396C39.8634 11.0958 39.8038 10.7951 39.7106 10.5033C39.5327 9.93101 39.2653 9.38664 38.9219 8.89421C38.0265 7.59868 36.5992 6.68498 35.0459 6.42433C33.9081 6.2262 32.7145 6.37528 31.6604 6.84656C31.0431 7.11501 30.504 7.51632 29.9664 7.91655C29.7836 8.0526 29.601 8.18852 29.4156 8.31906C29.2521 8.06756 29.0957 7.81184 28.9392 7.55617C28.8068 7.33966 28.6742 7.12292 28.5375 6.90907C27.8767 5.88765 27.0169 4.99415 26.0147 4.30455C24.7452 3.4274 23.2486 2.8811 21.7126 2.72914C19.9843 2.55121 18.2079 2.87052 16.6527 3.64572ZM16.2073 13.8513C15.5869 13.1607 14.6088 12.8058 13.6912 12.9655C13.1699 13.0588 12.7064 13.3646 12.3572 13.757C12.3509 13.6926 12.3479 13.6274 12.3449 13.5622C12.3388 13.4278 12.3326 13.2931 12.2976 13.1636C12.2559 13.0638 12.1438 13.0635 12.0485 13.0633C12.0318 13.0632 12.0156 13.0632 12.0004 13.0626C11.8182 13.0656 11.636 13.0646 11.4538 13.0637C11.2196 13.0625 10.9853 13.0613 10.751 13.0684C10.627 13.0636 10.5635 13.1934 10.5779 13.3031C10.5779 14.1675 10.5781 15.032 10.5784 15.8966C10.5788 17.6264 10.5792 19.3568 10.5779 21.0868C10.5796 21.1254 10.5785 21.1647 10.5774 21.2043C10.5747 21.2999 10.572 21.3968 10.6087 21.486C10.659 21.5645 10.751 21.5644 10.8364 21.5644C10.8587 21.5644 10.8806 21.5644 10.9011 21.5658C11.1197 21.5635 11.3387 21.5641 11.5577 21.5646C11.7936 21.5653 12.0295 21.5659 12.2649 21.5629C12.3851 21.5773 12.4746 21.4638 12.4582 21.3503C12.4582 21.1273 12.4583 20.9042 12.4583 20.6811C12.4585 20.0119 12.4587 19.3419 12.4573 18.6727C12.8728 19.0901 13.446 19.3469 14.0365 19.3518C14.8444 19.3816 15.6552 19.0401 16.1977 18.4409C17.3393 17.2041 17.3431 15.0949 16.2073 13.8513ZM12.7131 15.3199C12.8843 15.0266 13.1603 14.79 13.4873 14.69C13.9019 14.562 14.378 14.6524 14.7136 14.9285C15.2609 15.3719 15.3869 16.198 15.1051 16.8242C14.9204 17.2493 14.5107 17.5734 14.0461 17.6244C13.6403 17.684 13.2142 17.5311 12.9333 17.232C12.4467 16.7376 12.3601 15.9134 12.7131 15.3199ZM18.1836 14.0638C18.878 13.1165 20.2293 12.6442 21.3344 13.1069C21.672 13.2521 21.9663 13.4858 22.2106 13.759C22.2162 13.6962 22.2193 13.633 22.2224 13.5699C22.2288 13.4385 22.2353 13.3069 22.2645 13.179C22.2924 13.0761 22.4087 13.0607 22.4992 13.0636C22.6393 13.0636 22.7793 13.0635 22.9193 13.0634H22.9209C23.2002 13.0632 23.4794 13.0629 23.7591 13.0636C23.8457 13.0607 23.9553 13.0876 23.9774 13.1867C23.9928 13.265 23.9919 13.3454 23.991 13.4256C23.9907 13.4557 23.9904 13.4857 23.9909 13.5156C23.9896 14.3274 23.9898 15.1389 23.9901 15.9504V15.952C23.9904 16.9659 23.9907 17.9798 23.988 18.994C23.9967 19.093 23.9197 19.1979 23.813 19.1873C23.6751 19.1873 23.537 19.1882 23.3989 19.1892C23.0534 19.1915 22.7075 19.1939 22.3626 19.1815C22.2268 19.0971 22.2262 18.9359 22.2256 18.7791C22.2253 18.7037 22.225 18.6293 22.2097 18.565C21.873 18.9343 21.4306 19.2162 20.9353 19.3104C20.0139 19.4845 19.0194 19.1508 18.3865 18.4602C17.292 17.2926 17.2218 15.3334 18.1836 14.0638ZM20.3698 14.6736C20.0331 14.7544 19.7359 14.9756 19.5551 15.2699C19.181 15.8749 19.2483 16.7395 19.7552 17.2493C20.1014 17.6042 20.6573 17.7302 21.1238 17.5638C21.5374 17.4186 21.8538 17.0589 21.9865 16.6472C22.1846 16.0711 22.0308 15.3786 21.571 14.9699C21.2536 14.6755 20.7872 14.5659 20.3698 14.6736ZM24.7969 13.0636C24.7104 13.0597 24.5776 13.0828 24.5892 13.1982H24.5921C24.617 13.281 24.668 13.3511 24.7185 13.4207C24.7361 13.4448 24.7536 13.469 24.77 13.4935C25.3615 14.3466 25.953 15.1997 26.5426 16.0538C26.2914 16.4185 26.0393 16.7825 25.7872 17.1466C25.3645 17.7569 24.9419 18.3672 24.5238 18.9805C24.4459 19.069 24.5247 19.2056 24.6392 19.1863C25.134 19.1896 25.6287 19.1887 26.1235 19.1878C26.2058 19.1876 26.2881 19.1874 26.3704 19.1873C26.4801 19.1988 26.5599 19.1161 26.6118 19.0305C26.7054 18.8868 26.799 18.743 26.8927 18.5992C27.1398 18.2197 27.387 17.8401 27.6332 17.4599C27.7236 17.6005 27.814 17.741 27.9044 17.8816C28.1432 18.2527 28.3821 18.6241 28.62 18.9959L28.6254 19.004C28.6821 19.0893 28.7517 19.1938 28.8682 19.1863C29.1399 19.1887 29.4116 19.1883 29.6833 19.1878C29.955 19.1873 30.2267 19.1868 30.4984 19.1892C30.5168 19.1879 30.5367 19.1879 30.5572 19.1879C30.6374 19.188 30.7259 19.1881 30.7619 19.1046C30.7719 19.0351 30.7327 18.9771 30.6954 18.922C30.6857 18.9077 30.6762 18.8936 30.6677 18.8795C30.2481 18.2752 29.8301 17.6696 29.4121 17.0641C29.1796 16.7273 28.9471 16.3904 28.7143 16.0538C29.3019 15.2007 29.8915 14.3505 30.4821 13.4993C30.4996 13.4722 30.5187 13.4458 30.5378 13.4193C30.5865 13.3515 30.6356 13.2832 30.6619 13.203C30.6754 13.0771 30.533 13.0597 30.4426 13.0636C30.2621 13.0636 30.0816 13.0634 29.9011 13.0632C29.5401 13.0627 29.1792 13.0623 28.8182 13.0636C28.7133 13.0549 28.6143 13.1059 28.5623 13.1973C28.3638 13.5002 28.1677 13.8047 27.9716 14.109C27.8589 14.2839 27.7463 14.4588 27.6332 14.6332C27.3303 14.1735 27.0283 13.7128 26.7282 13.2511C26.6695 13.1627 26.5945 13.0597 26.4762 13.0665C26.1264 13.0617 25.7765 13.0625 25.4267 13.0633C25.2167 13.0638 25.0068 13.0643 24.7969 13.0636Z" fill="#252E67"/>
<path fill-rule="evenodd" clip-rule="evenodd" d="M31.8491 11.0552C32.2867 10.6118 32.9061 10.381 33.5207 10.3492C34.2094 10.305 34.9355 10.4868 35.4626 10.9475C36.0348 11.436 36.3243 12.2391 36.1743 12.9797C36.0714 13.4731 35.7636 13.904 35.375 14.2156C35.9935 14.5195 36.4849 15.0793 36.6715 15.7458C36.8822 16.4854 36.7754 17.3193 36.3532 17.9666C35.8973 18.6716 35.1269 19.14 34.3094 19.2948C33.4072 19.4699 32.4377 19.2323 31.7116 18.6706C31.2317 18.3023 30.8681 17.7771 30.7209 17.1885C30.5565 16.5249 30.6286 15.792 30.9758 15.1976C31.2201 14.7715 31.601 14.433 32.0386 14.2156C31.6173 13.8723 31.2971 13.3837 31.2259 12.8374C31.1461 12.1891 31.3817 11.5111 31.8472 11.0532L31.8491 11.0552ZM33.4947 11.8765C33.0821 11.9718 32.7907 12.4113 32.8811 12.8297C32.935 13.275 33.388 13.6087 33.8294 13.5337C34.3584 13.4866 34.7037 12.8614 34.5017 12.3805C34.3575 11.9881 33.8948 11.7611 33.4947 11.8765ZM33.3332 15.3707C33.0052 15.4794 32.7263 15.7439 32.6234 16.0757C32.506 16.4498 32.5724 16.8865 32.8244 17.1933C33.2062 17.6867 34.0045 17.7511 34.4633 17.3289C34.8345 17.0058 34.9461 16.4373 34.7585 15.9882C34.5421 15.4496 33.8727 15.1716 33.3332 15.3707Z" fill="#44D62D"/>
</svg>
