<svg width="62" height="30" viewBox="0 0 62 30" fill="none" xmlns="http://www.w3.org/2000/svg">
<path d="M15.7164 10.416C18.6581 10.416 20.2086 12.7801 20.2086 15.0977C20.2086 17.2898 18.5637 19.5429 15.8268 19.543C14.0106 19.543 13.1024 18.6197 12.775 18.0723H12.7389V22.5664C12.2851 22.5663 11.8498 22.3863 11.5289 22.0654C11.2081 21.7445 11.028 21.3092 11.028 20.8555V10.4473H11.066C11.4731 10.4473 11.8641 10.6087 12.152 10.8965C12.4397 11.1843 12.6012 11.5754 12.6012 11.9824H12.6315C12.9771 11.4877 13.44 11.0856 13.9781 10.8125C14.5162 10.5395 15.1132 10.4029 15.7164 10.416ZM29.8903 10.4102L29.899 10.4082C31.0359 10.4553 32.0718 10.9613 32.6656 11.8594H32.6969V10.6416H34.3239V19.3135H32.6969V17.9678H32.6656C32.0694 18.98 31.0079 19.4828 29.8951 19.5293L29.8942 19.5303C29.2794 19.5666 28.919 19.5034 28.7848 19.458C28.7855 19.456 28.787 19.4542 28.7877 19.4521C26.4427 19.031 25.1198 17.0383 25.1198 15.0078C25.1198 13.1246 26.3007 10.9407 28.7653 10.4883C28.7646 10.4863 28.764 10.4844 28.7633 10.4824C29.2303 10.3807 29.7057 10.3912 29.8903 10.4102ZM50.1227 10.4766C51.2977 10.462 52.4309 10.9148 53.2721 11.7354C54.113 12.5558 54.5933 13.6768 54.608 14.8516C54.608 15.1329 54.5779 15.5736 54.5524 15.6836H47.3795C47.7019 17.254 49.1239 18.0595 50.4489 18.0596C50.9205 18.0641 51.3879 17.9684 51.8199 17.7793C52.252 17.5901 52.6391 17.3115 52.9557 16.9619L54.235 17.7148C53.7833 18.2818 53.2082 18.739 52.5543 19.0518C51.9005 19.3644 51.1843 19.5247 50.4596 19.5205C49.3075 19.5336 48.1908 19.1204 47.3248 18.3604C46.4589 17.6002 45.9045 16.5464 45.7682 15.4023C45.7545 15.2574 45.7477 15.1103 45.7477 14.9619C45.7331 13.7869 46.186 12.6546 47.0065 11.8135C47.827 10.9723 48.9477 10.4912 50.1227 10.4766ZM23.4752 19.3135H21.8483V7.73047H23.4752V19.3135ZM40.483 10.4062C41.8284 10.4062 42.9256 10.9842 43.5524 11.9561C43.9358 12.6326 44.1256 13.4025 44.1002 14.1797V19.3135H42.4781V14.6016C42.4781 13.9288 42.4779 11.8926 40.319 11.8926C38.9583 11.8928 38.0348 12.8467 38.0348 14.5859V19.3135H36.4078V10.6416H37.9254V11.5654H37.9557C38.256 11.187 38.6415 10.884 39.0807 10.6826C39.5198 10.4813 40.0004 10.3869 40.483 10.4062ZM56.568 7.73047C56.9993 7.73056 57.4134 7.90201 57.7184 8.20703C58.0234 8.51211 58.1949 8.92603 58.1949 9.35742V10.6367H59.6198V12.1279H58.1949V19.3135C57.7636 19.3135 57.3496 19.1418 57.0446 18.8369C56.7395 18.5319 56.5681 18.1179 56.568 17.6865V12.1279H55.3932V10.6416H56.568V7.73047ZM15.6012 11.8926C13.8953 11.8928 12.7057 13.3633 12.7057 14.9619C12.7057 16.7141 14.0058 18.0469 15.6481 18.0469C16.0424 18.044 16.4324 17.9617 16.7946 17.8057C17.1567 17.6496 17.4845 17.4233 17.7574 17.1387C18.0305 16.854 18.2436 16.5169 18.3844 16.1484C18.5251 15.7801 18.5904 15.3872 18.5768 14.9932C18.5768 13.443 17.3713 11.8926 15.6012 11.8926ZM29.7213 11.8945C27.7187 11.8947 26.7468 13.6318 26.7467 14.9951C26.7467 16.5606 27.9826 18.0469 29.7067 18.0469C30.1058 18.0458 30.5007 17.9657 30.8688 17.8115C31.237 17.6573 31.5714 17.4322 31.8522 17.1484C32.1328 16.8647 32.3543 16.5279 32.5045 16.1582C32.6547 15.7884 32.7305 15.3922 32.7272 14.9932C32.7272 13.1463 31.3968 11.8926 29.7213 11.8926V11.8945ZM50.192 11.8701C49.4899 11.8701 48.813 12.133 48.2946 12.6064C47.7761 13.08 47.4528 13.7304 47.3893 14.4297H52.9938C52.9303 13.7304 52.6079 13.08 52.0895 12.6064C51.571 12.1329 50.8942 11.8701 50.192 11.8701Z" fill="#47525A"/>
<path d="M10.1326 1.02873C12.7292 0.015892 15.5566 -0.253869 18.2977 0.25041C21.0387 0.754684 23.5851 2.01267 25.6512 3.88322C27.6044 5.65164 29.0551 7.90184 29.8611 10.4047C29.7798 10.4006 29.6975 10.3988 29.615 10.3988C29.3231 10.3989 29.0376 10.4264 28.7606 10.477C27.7481 7.53148 25.7751 5.00283 23.1473 3.30607C20.3238 1.48314 16.9356 0.74287 13.6092 1.22209C10.2829 1.70137 7.24261 3.3679 5.04864 5.9135C2.85458 8.45927 1.65469 11.7129 1.67168 15.0737C1.68875 18.4342 2.92089 21.6753 5.14043 24.1987C7.36009 26.7221 10.4178 28.3576 13.7488 28.8031C17.0799 29.2487 20.4596 28.4739 23.2645 26.6225C25.855 24.9126 27.7931 22.3908 28.783 19.4643C29.0531 19.5122 29.3309 19.5394 29.615 19.5395C29.7087 19.5395 29.802 19.5351 29.8943 19.5297C28.9552 22.4761 27.1289 25.0666 24.659 26.9418C22.0467 28.925 18.8578 30.0003 15.5779 30.0033C12.7908 30.0023 10.0592 29.2241 7.68926 27.7572C5.31944 26.2904 3.40501 24.1926 2.16094 21.6987C0.916865 19.2046 0.392577 16.4127 0.646294 13.6371C0.900081 10.8617 1.92191 8.21183 3.59747 5.98479C5.2731 3.7577 7.53611 2.04157 10.1326 1.02873ZM61.1248 17.6049C61.2386 17.6036 61.3522 17.6241 61.4578 17.6664C61.5631 17.7087 61.6589 17.7716 61.74 17.851C61.8213 17.9306 61.8869 18.0256 61.9314 18.1303C61.976 18.235 61.9988 18.3476 61.9998 18.4613C62.0034 18.6351 61.9551 18.8064 61.8611 18.9526C61.7672 19.0986 61.6318 19.2137 61.4725 19.2826C61.313 19.3515 61.1364 19.371 60.9656 19.3393C60.7948 19.3076 60.6376 19.2255 60.5135 19.1039C60.3893 18.9823 60.3036 18.8268 60.2684 18.6567C60.2331 18.4865 60.2496 18.3097 60.3152 18.1488C60.3809 17.9879 60.4933 17.8503 60.6375 17.7533C60.7816 17.6565 60.9512 17.605 61.1248 17.6049Z" fill="#00AEB3"/>
</svg>
