<svg width="27" height="30" viewBox="0 0 27 30" fill="none" xmlns="http://www.w3.org/2000/svg">
<path d="M0.669678 0.310292V4.46968H2.39608V19.0279H0.669678V23.1173H11.757V19.0279H9.97074V13.3132H12.9566L16.662 19.0279H14.5646V23.1173H26.3925V19.0279H24.2359L20.0152 12.5185C20.7896 12.0977 21.4002 11.5637 21.8794 10.9971C22.643 10.0877 23.0855 9.0816 23.2876 8.06394C23.507 6.9236 23.4326 5.75943 23.0386 4.63712C22.7145 3.72629 22.1782 2.83783 21.3511 2.05907C20.7499 1.49755 19.9856 0.990893 19.0358 0.662501C18.3906 0.43804 17.6594 0.308127 16.9197 0.310292C16.9088 0.310292 16.898 0.310292 16.8872 0.310292L16.8814 0.30957L0.669678 0.310292ZM9.97002 4.46968H14.4975C15.7851 4.46968 16.8049 5.45774 16.8049 6.90266C16.8049 8.34759 15.5058 9.34792 14.351 9.34792H9.97074L9.97002 4.46968Z" fill="#CC0033"/>
<path d="M24.4058 18.719L20.4543 12.6254C21.1299 12.214 21.6777 11.7189 22.1172 11.1985L22.1179 11.1978C22.9162 10.2473 23.3824 9.18919 23.5924 8.12535V8.12463V8.1239C23.6769 7.68653 23.7195 7.2441 23.7195 6.80168C23.7195 6.04024 23.5924 5.27808 23.3312 4.53541V4.53469V4.53397C22.9919 3.582 22.4283 2.64734 21.5643 1.83394L21.5636 1.83322C20.935 1.24644 20.1331 0.713801 19.1386 0.370252C18.4652 0.136409 17.7081 0.00144336 16.9373 0.000721619H16.9192C16.9149 0.000721619 16.9113 0.000721619 16.9077 0.000721619L16.9026 0H0.98177H0.976718H0.6707H0.360352V0.309626V4.77936H2.08675V18.7169H0.360352V23.427H12.0684V18.7169H10.2821V13.6236H12.7887L16.0914 18.7169H14.2553V23.427H26.7039V18.7169H24.4058V18.719ZM14.876 22.8077V19.3397H17.2339L13.1258 13.0043H9.66069V19.3397H11.447V22.8077H0.98177V19.3397H2.70817V4.16011H0.98177V0.621418H16.8622L16.8694 0.62214H16.8918C16.9026 0.62214 16.9127 0.62214 16.9221 0.62214H16.9387C17.6359 0.62214 18.3288 0.746279 18.9358 0.957027H18.9365C19.8408 1.27026 20.5669 1.75166 21.1407 2.28647C21.9296 3.02914 22.4377 3.87213 22.7473 4.74111C22.9847 5.4181 23.1002 6.10881 23.1002 6.80168C23.1002 7.20369 23.0612 7.60569 22.9847 8.00554C22.792 8.97628 22.372 9.93042 21.6445 10.798C21.1869 11.3385 20.6066 11.8459 19.869 12.2465L19.5745 12.4067L24.0695 19.339H26.0846V22.807H14.876V22.8077Z" fill="#292828"/>
<path d="M14.4985 4.16016H10.2813H9.97099H9.66064V4.47051V9.65909H14.352C14.6854 9.65909 15.0217 9.58764 15.34 9.45701C15.8171 9.26142 16.2566 8.93375 16.5829 8.49781C16.9084 8.06333 17.1169 7.51625 17.1162 6.90349C17.1169 6.10813 16.8326 5.41599 16.3577 4.92881C15.8835 4.44091 15.2217 4.15944 14.4985 4.16016ZM16.3043 7.76308C16.1224 8.14921 15.8221 8.47111 15.4699 8.69413C15.1184 8.91714 14.7179 9.03912 14.352 9.0384H10.2821V4.78085H14.4992C15.0636 4.78158 15.5551 4.99449 15.9131 5.36185C16.2696 5.72994 16.4955 6.25465 16.4962 6.90421C16.4955 7.21889 16.4255 7.50542 16.3043 7.76308Z" fill="#292828"/>
<path d="M1.79307 25.0967C2.23044 25.0967 2.59131 25.1494 2.87568 25.2555C3.16004 25.3608 3.37151 25.5203 3.51009 25.7333C3.64866 25.9462 3.71795 26.2154 3.71795 26.5409C3.71795 26.7603 3.67609 26.9523 3.59309 27.1176C3.50936 27.2821 3.39966 27.4221 3.26325 27.5362C3.12684 27.6502 2.97961 27.744 2.82155 27.8162L4.23832 29.9157H3.10447L1.95474 28.0674H1.41054V29.9157H0.389282V25.0974H1.79307V25.0967ZM1.72017 25.9339H1.41054V27.2352H1.74038C2.07888 27.2352 2.32066 27.1789 2.46717 27.0656C2.61368 26.9523 2.68658 26.7863 2.68658 26.5661C2.68658 26.3381 2.60791 26.175 2.45129 26.0782C2.29323 25.9823 2.05001 25.9339 1.72017 25.9339Z" fill="#292828"/>
<path d="M7.94683 25.1086V28.2265C7.94683 28.5585 7.87394 28.858 7.72742 29.1243C7.58163 29.3914 7.36078 29.6028 7.06486 29.7587C6.76967 29.9146 6.50912 30.0005 6.06092 30.0005C5.42435 30.0005 5.08225 29.8251 4.74808 29.4996C4.41391 29.1741 4.24719 28.744 4.24719 28.2077V25.1035H5.26557V28.0533C5.26557 28.4509 5.34712 28.7295 5.50951 28.8905C5.67263 29.0507 5.76862 29.1438 6.08763 29.1438C6.31137 29.1438 6.3821 29.0976 6.52139 29.0211C6.66141 28.9439 6.7639 28.8255 6.82958 28.6653C6.89526 28.5051 6.92918 28.3008 6.92918 28.0525V25.1093H7.94683V25.1086Z" fill="#292828"/>
<path d="M10.6231 29.9143H9.6018V25.9469L8.14966 25.9599V25.1097L11.9316 25.0967V25.9469H10.6231V29.9143Z" fill="#292828"/>
<path d="M13.8907 27.2082H15.8018V29.7061C15.5492 29.7899 15.2865 29.8563 15.0144 29.9053C14.7423 29.9551 14.4334 29.9797 14.0884 29.9797C13.6092 29.9797 13.2029 29.8851 12.8694 29.696C12.5352 29.5069 12.2812 29.2283 12.108 28.8588C11.9348 28.4893 11.8481 28.036 11.8481 27.4976C11.8481 26.9924 11.9456 26.555 12.1397 26.1862C12.3346 25.8167 12.6182 25.5316 12.9935 25.3295C13.3681 25.1274 13.8257 25.0264 14.3663 25.0264C14.6211 25.0264 14.8722 25.0538 15.1212 25.1086C15.3695 25.1635 15.5947 25.2349 15.7968 25.323L15.4576 26.14C15.3103 26.0657 15.1422 26.0029 14.9531 25.9524C14.764 25.9018 14.5662 25.8766 14.3598 25.8766C14.0632 25.8766 13.8055 25.9451 13.5868 26.0808C13.3681 26.2172 13.1992 26.4078 13.0794 26.6524C12.9596 26.8971 12.8997 27.1858 12.8997 27.5178C12.8997 27.8318 12.9423 28.1104 13.0282 28.3529C13.1141 28.5954 13.249 28.7859 13.4338 28.923C13.6186 29.0602 13.8589 29.1295 14.1555 29.1295C14.3006 29.1295 14.4226 29.1222 14.5229 29.1078C14.6232 29.0934 14.7163 29.0782 14.8051 29.0631V28.0577H13.8921V27.2082H13.8907Z" fill="#292828"/>
<path d="M19.114 29.915H16.3389V25.0967H19.114V25.9339H17.3609V26.992H18.992V27.8292H17.3609V29.0713H19.114V29.915Z" fill="#292828"/>
<path d="M21.0158 25.0967C21.4532 25.0967 21.8141 25.1494 22.0985 25.2555C22.3828 25.3608 22.5943 25.5203 22.7329 25.7333C22.8714 25.9462 22.9407 26.2154 22.9407 26.5409C22.9407 26.7603 22.8989 26.9523 22.8159 27.1176C22.7321 27.2821 22.6224 27.4221 22.486 27.5362C22.3496 27.6502 22.2024 27.744 22.0443 27.8162L23.4611 29.9157H22.3272L21.1775 28.0674H20.6333V29.9157H19.6121V25.0974H21.0158V25.0967ZM20.9429 25.9339H20.6333V27.2352H20.9632C21.3017 27.2352 21.5434 27.1789 21.69 27.0656C21.8357 26.9523 21.9094 26.7863 21.9094 26.5661C21.9094 26.3381 21.8307 26.175 21.6741 26.0782C21.516 25.9823 21.2728 25.9339 20.9429 25.9339Z" fill="#292828"/>
<path d="M26.6797 28.5752C26.6797 28.861 26.6104 29.1093 26.4718 29.32C26.334 29.5307 26.1319 29.6939 25.867 29.8079C25.6021 29.9219 25.281 29.9797 24.9028 29.9797C24.7361 29.9797 24.5729 29.9688 24.4134 29.9465C24.2539 29.9248 24.1016 29.8923 23.9551 29.849C23.8086 29.8057 23.67 29.753 23.538 29.6895V28.7404C23.7668 28.8415 24.0035 28.9324 24.2496 29.014C24.4957 29.0955 24.7397 29.136 24.9814 29.136C25.1482 29.136 25.2831 29.1143 25.3849 29.0703C25.4874 29.0263 25.561 28.9656 25.6079 28.8891C25.6541 28.8119 25.6772 28.7246 25.6772 28.6257C25.6772 28.5044 25.6361 28.4012 25.5552 28.3153C25.4737 28.2302 25.3625 28.1501 25.2203 28.075C25.0782 27.9999 24.9187 27.9198 24.7411 27.8347C24.6292 27.782 24.5065 27.7177 24.3752 27.642C24.2431 27.5662 24.1182 27.4738 23.9999 27.3634C23.8815 27.2537 23.7841 27.1201 23.7083 26.9628C23.6325 26.8062 23.5943 26.6171 23.5943 26.3977C23.5943 26.1097 23.6599 25.8636 23.792 25.6593C23.9241 25.4551 24.1125 25.2985 24.3571 25.1895C24.6018 25.0805 24.8912 25.0264 25.2254 25.0264C25.4758 25.0264 25.7147 25.056 25.9421 25.1137C26.1694 25.1722 26.4076 25.2559 26.6559 25.3656L26.326 26.1595C26.1037 26.0693 25.9053 26 25.7299 25.9502C25.5538 25.9011 25.3748 25.8759 25.1929 25.8759C25.0652 25.8759 24.9569 25.8968 24.8667 25.9372C24.7765 25.9783 24.7086 26.0346 24.6624 26.109C24.6162 26.1826 24.5931 26.2678 24.5931 26.3645C24.5931 26.4785 24.6263 26.5752 24.6935 26.6524C24.7606 26.7304 24.8616 26.8055 24.9966 26.8784C25.1316 26.9505 25.3005 27.035 25.5025 27.1324C25.7487 27.2486 25.9594 27.3706 26.1333 27.4962C26.308 27.6225 26.443 27.7711 26.5368 27.9408C26.6328 28.1111 26.6797 28.3226 26.6797 28.5752Z" fill="#292828"/>
</svg>
