<svg width="167" height="30" viewBox="0 0 167 30" fill="none" xmlns="http://www.w3.org/2000/svg">
<path fill-rule="evenodd" clip-rule="evenodd" d="M23.681 2.83297C23.7742 3.08355 23.8674 3.33416 23.9593 3.58524C24.3762 4.72438 24.7939 5.86428 25.2117 7.00465C25.8712 8.80461 26.5311 10.6057 27.1892 12.4069C27.2009 12.4391 27.2092 12.473 27.224 12.5332C27.2347 12.5768 27.2488 12.6342 27.2699 12.7147C26.195 12.0637 25.1402 11.6852 24.0249 11.4783C23.4799 11.3773 22.9247 11.3168 22.3746 11.2764C22.2931 11.271 22.2115 11.2654 22.1298 11.2599C21.4534 11.2138 20.7735 11.1676 20.0935 11.1856C19.4804 11.2027 18.8697 11.2593 18.2581 11.3161C17.9685 11.3429 17.6788 11.3698 17.3885 11.3925C17.1865 11.4097 16.984 11.4258 16.781 11.4419C16.3907 11.4729 15.9988 11.504 15.607 11.5439C15.2902 11.5775 14.9734 11.619 14.6566 11.6604C14.4031 11.6935 14.1497 11.7267 13.8962 11.7558C13.8272 11.7636 13.7582 11.7715 13.689 11.7793C13.3077 11.8228 12.9239 11.8665 12.5437 11.8921C11.7867 11.9476 11.0246 11.988 10.2626 12.0284C10.0567 12.0385 9.85078 12.049 9.64488 12.0595C8.82125 12.1014 7.99763 12.1434 7.174 12.1596C6.57849 12.1697 5.97793 12.1394 5.38747 12.0586C3.94411 11.8669 2.95496 11.0089 2.2888 9.76745C1.7589 8.77829 1.41572 7.73363 1.47628 6.58803L1.47641 6.58431C1.48142 6.44415 1.4866 6.29913 1.51161 6.15906C1.64619 5.48617 2.03983 5.03028 2.69253 4.7914C4.00655 4.31274 5.32152 3.83549 6.63656 3.35821C9.6196 2.27555 12.603 1.19275 15.5767 0.0929317C16.0511 -0.0837026 16.3438 0.00713795 16.6618 0.299846C17.1816 0.779282 17.5803 1.34956 17.9285 1.96021C17.9553 2.00581 17.9779 2.05425 18.0007 2.10328C18.0208 2.1465 18.0411 2.19017 18.0648 2.23273C18.2364 2.54563 18.2364 2.54563 18.5846 2.41946C19.2003 2.19488 19.8172 1.9703 20.4342 1.74572C21.0511 1.52115 21.6681 1.29657 22.2838 1.07199C22.3519 1.04928 22.4188 1.02405 22.4857 0.998813C22.5525 0.97358 22.6194 0.948346 22.6875 0.925636C22.8692 0.865076 22.9802 0.880216 23.0559 1.10227C23.2528 1.68236 23.4669 2.25756 23.681 2.83297ZM20.7394 16.7167C22.2635 16.8681 23.611 17.3627 24.6758 18.5184V18.5134C25.4833 19.3915 25.9022 20.4462 26.1343 21.5868C26.2857 22.3337 26.3059 23.0857 26.1494 23.8477C26.0737 24.2111 25.9324 24.418 25.5741 24.5442C24.3742 24.9696 23.1821 25.4081 21.9904 25.8465C21.5281 26.0166 21.0658 26.1867 20.6031 26.3559C19.7191 26.678 18.8351 26.9994 17.9511 27.3207C15.5803 28.1825 13.2102 29.044 10.8428 29.9189C10.4138 30.0804 10.1312 30.0097 9.81834 29.7019C8.95031 28.854 8.33966 27.8447 7.84004 26.7496C7.58265 26.1793 7.57761 26.1742 7.00733 26.3761C6.86378 26.4271 6.72022 26.4776 6.57676 26.5281C6.02421 26.7227 5.47297 26.9168 4.92809 27.1331C4.49038 27.3082 4.47027 27.2479 4.38044 26.9786C4.3667 26.9374 4.35133 26.8913 4.33258 26.8404C3.88848 25.6359 3.44886 24.4315 3.00925 23.227C2.78943 22.6248 2.56961 22.0225 2.34923 21.4202C1.73858 19.7498 1.12793 18.0793 0.471863 16.2878C1.4812 16.8177 2.41484 17.181 3.40399 17.3778C3.81855 17.4585 4.23475 17.5194 4.65072 17.5802C4.96395 17.6261 5.27704 17.6719 5.58921 17.7261C6.52937 17.8914 7.47394 17.8622 8.4188 17.8329C8.48326 17.8309 8.54772 17.8289 8.61218 17.827C9.36941 17.8069 10.1202 17.7353 10.8723 17.6636C11.0625 17.6455 11.2528 17.6273 11.4434 17.61C12.2609 17.5343 13.0785 17.4485 13.891 17.3425C14.2569 17.2946 14.6215 17.2365 14.9862 17.1785C15.3508 17.1205 15.7154 17.0624 16.0813 17.0145C16.5077 16.959 16.9367 16.9123 17.3657 16.8656C17.7946 16.8189 18.2236 16.7722 18.6501 16.7167C19.3465 16.6208 20.0379 16.6461 20.7394 16.7167Z" fill="#BEA36D"/>
<path fill-rule="evenodd" clip-rule="evenodd" d="M166.347 8.28847C166.564 8.95463 166.695 9.63594 166.695 10.3374L166.69 10.3324C166.691 10.5572 166.693 10.7818 166.695 11.0064C166.704 12.35 166.714 13.6904 166.68 15.0309C166.665 15.6819 166.559 16.343 166.382 16.9688C165.943 18.5181 164.833 19.3458 163.273 19.5628C162.582 19.6587 161.875 19.689 161.179 19.689C159.544 19.6957 157.907 19.6934 156.269 19.6912L156.265 19.6912C155.447 19.6901 154.629 19.689 153.811 19.689C153.129 19.689 152.458 19.583 151.807 19.3861C150.424 18.9673 149.647 17.9882 149.359 16.6307C149.203 15.8737 149.147 15.0864 149.122 14.3092C149.082 13.1535 149.087 11.9978 149.122 10.8471C149.147 10.0296 149.213 9.21706 149.45 8.41968C149.904 6.91577 150.954 6.11334 152.448 5.85092C152.988 5.75503 153.548 5.7298 154.103 5.7197C154.958 5.70961 155.81 5.71297 156.663 5.71634C157.089 5.71802 157.516 5.7197 157.944 5.7197C158.345 5.7197 158.746 5.71776 159.147 5.71581C160.191 5.71075 161.236 5.70568 162.279 5.73484C162.869 5.74998 163.47 5.85092 164.035 6.01241C165.206 6.34549 165.963 7.12773 166.347 8.28847ZM164.353 16.348C164.444 15.9544 164.494 15.5406 164.494 15.1368V15.1318C164.501 14.0482 164.499 12.9625 164.497 11.8774V11.8763V11.8752C164.496 11.3337 164.494 10.7924 164.494 10.2516C164.494 10.0043 164.489 9.75706 164.464 9.50977C164.378 8.71239 163.98 8.10679 163.223 7.81913C162.844 7.67782 162.425 7.58698 162.027 7.57689C161.009 7.55418 159.988 7.55701 158.966 7.55985C158.625 7.5608 158.284 7.56175 157.944 7.56175C157.496 7.56175 157.049 7.56287 156.602 7.56399C155.709 7.56623 154.816 7.56847 153.922 7.56175C153.483 7.56175 153.069 7.65259 152.66 7.79894C152.024 8.02604 151.641 8.48024 151.464 9.10603C151.378 9.41893 151.338 9.75201 151.333 10.075C151.322 10.735 151.324 11.3924 151.326 12.0509V12.052V12.053V12.0541V12.0551V12.0562V12.0573V12.0583V12.0594V12.0604C151.327 12.3253 151.328 12.5903 151.328 12.8557C151.328 13.1467 151.326 13.4383 151.324 13.7301V13.7312V13.7323V13.7335V13.7346V13.7357V13.7368V13.738V13.7391C151.321 14.3295 151.318 14.9213 151.328 15.5103C151.348 16.6307 151.903 17.4028 152.897 17.6804C153.25 17.7763 153.629 17.8318 153.992 17.8318C156.617 17.8469 159.236 17.852 161.855 17.8318C162.299 17.8267 162.753 17.7157 163.177 17.5845C163.778 17.3978 164.207 16.9738 164.353 16.348ZM51.2101 12.0331C51.9217 12.2653 52.5828 12.5933 52.9966 13.2696H52.9915C53.2186 13.643 53.3751 14.0367 53.4104 14.4757C53.4659 15.152 53.4861 15.8232 53.4407 16.5045C53.3297 18.1497 52.2749 19.1136 50.8316 19.4417C50.014 19.6284 49.1712 19.7091 48.3234 19.7041C47.1947 19.6983 46.0644 19.6991 44.9335 19.7H44.9324H44.9313H44.9303H44.9292H44.9281C44.0785 19.7006 43.2284 19.7012 42.3784 19.699C41.5507 19.699 40.7382 19.583 39.9509 19.3306C38.6791 18.9168 37.7707 17.8974 37.7909 16.3733C37.7972 16.0949 37.8135 15.8146 37.8297 15.5348C37.8393 15.3682 37.849 15.2016 37.8565 15.0359C37.9089 15.034 37.9613 15.0321 38.0138 15.0302L38.1078 15.0267L38.1088 15.0266C38.455 15.0136 38.8036 15.0006 39.1485 15.0006C39.2237 15.0006 39.2903 14.9998 39.3494 14.999C39.5839 14.9962 39.6985 14.9948 39.7544 15.0513C39.8076 15.1052 39.8076 15.2116 39.8077 15.4194C39.8077 15.4871 39.8077 15.5656 39.8096 15.6566C39.8121 15.7803 39.826 15.9027 39.8399 16.0251C39.8537 16.1474 39.8676 16.2698 39.8701 16.3935C39.8903 17.2262 40.506 17.5794 41.1116 17.7106C41.5507 17.8065 42.0099 17.8469 42.4591 17.8469C44.4828 17.862 46.5065 17.862 48.5303 17.8469C48.9996 17.8469 49.4841 17.8217 49.9383 17.7106C51.0738 17.4331 51.2908 16.9335 51.4069 15.9292C51.4352 15.6776 51.3989 15.4186 51.3625 15.1592C51.3471 15.049 51.3316 14.9388 51.3211 14.829C51.2555 14.1881 50.8013 13.9105 50.2562 13.7894C49.8374 13.6985 49.3983 13.6582 48.9693 13.6582C47.2736 13.643 45.578 13.6329 43.8873 13.6481C42.777 13.6582 41.6668 13.5774 40.5716 13.3907C40.0215 13.2948 39.4916 13.1232 39.0223 12.8154C38.2754 12.3309 37.912 11.589 37.8262 10.7513C37.7404 9.91855 37.695 9.07071 37.912 8.238C38.1745 7.2438 38.7851 6.58773 39.7288 6.21428C40.5414 5.89129 41.3942 5.75503 42.2572 5.73989C44.3415 5.70456 46.4308 5.70456 48.5151 5.73989C49.3933 5.75503 50.2714 5.89129 51.1091 6.20418C52.2295 6.62306 52.936 7.35483 53.0572 8.57613C53.0841 8.84869 53.1065 9.12125 53.1289 9.3938C53.1402 9.53003 53.1514 9.66625 53.1631 9.80248C53.1783 9.9892 53.0925 10.0548 52.9108 10.0548C52.3759 10.0498 51.8359 10.0498 51.3009 10.0548C51.1041 10.0548 51.0738 9.94378 51.0637 9.78229C51.0334 9.39874 50.9981 9.01015 50.9426 8.6266C50.8921 8.29351 50.66 8.0866 50.3622 7.96043L50.3542 7.95703C50.1295 7.86217 49.8951 7.76319 49.6607 7.72828C49.1712 7.65763 48.6766 7.58698 48.1871 7.58698C46.3501 7.56679 44.5131 7.5567 42.6761 7.58698C42.126 7.59707 41.5759 7.7081 41.0359 7.82922C40.3698 7.98062 39.9963 8.3995 39.8752 9.10099C39.7894 9.58042 39.8096 10.0346 39.8903 10.504C39.961 10.938 40.1931 11.2256 40.5868 11.372C41.0864 11.5587 41.6113 11.6647 42.1512 11.6647C42.7188 11.6672 43.2864 11.6672 43.8539 11.6672C44.4217 11.6672 44.99 11.6672 45.5578 11.6698C45.9228 11.6698 46.2879 11.6675 46.6529 11.6653C47.3829 11.6608 48.1131 11.6563 48.8432 11.6698C49.6456 11.6849 50.443 11.7858 51.2101 12.0331ZM139.824 11.6647C140.798 11.6748 141.747 11.8111 142.67 12.1341L142.66 12.129C143.75 12.5075 144.603 13.4664 144.628 14.8997C144.638 15.3741 144.648 15.8484 144.628 16.3228C144.603 16.9183 144.462 17.4886 144.154 18.0185C143.68 18.826 142.912 19.2196 142.06 19.4165C141.383 19.578 140.677 19.6688 139.985 19.6789C137.8 19.7092 135.61 19.7092 133.42 19.6839C132.557 19.6738 131.704 19.5376 130.886 19.2247C129.801 18.8109 129.17 18.0438 129.019 16.9083C128.967 16.536 128.951 16.1591 128.934 15.7806L128.934 15.7796C128.927 15.6042 128.919 15.4286 128.908 15.2529C128.898 15.0713 128.979 14.9956 129.16 14.9956H130.77C130.922 14.9956 130.997 15.0561 130.997 15.2126C130.997 15.3137 130.997 15.4154 130.996 15.5173V15.5184V15.5195V15.5206C130.995 15.7275 130.994 15.9357 130.997 16.1412C131.012 16.9991 131.396 17.5088 132.208 17.6955C132.587 17.7813 132.981 17.8419 133.369 17.8419C135.554 17.857 137.745 17.8621 139.935 17.8368C140.368 17.8323 140.806 17.739 141.236 17.6471L141.313 17.6307L141.388 17.6148C142.019 17.4836 142.438 17.0344 142.524 16.1815C142.556 15.8643 142.546 15.5428 142.537 15.2248L142.534 15.1318C142.504 14.3748 142.1 13.8954 141.358 13.7743C140.914 13.7036 140.46 13.6531 140.011 13.6531C138.28 13.638 136.544 13.638 134.807 13.643C133.798 13.6481 132.794 13.5724 131.8 13.3857C131.401 13.31 131.007 13.1838 130.629 13.0324C129.624 12.6337 129.175 11.8262 129.014 10.8068C128.903 10.0902 128.893 9.38868 128.999 8.66195C129.201 7.32962 129.953 6.51206 131.189 6.10328C131.931 5.85599 132.708 5.74496 133.49 5.73487C135.534 5.70964 137.578 5.70459 139.622 5.73487C140.546 5.74496 141.459 5.89636 142.337 6.2143C143.377 6.58776 144.25 7.52645 144.27 8.88401C144.271 8.95592 144.272 9.02784 144.273 9.09975C144.276 9.3155 144.279 9.53124 144.29 9.74699C144.3 9.94886 144.24 10.0498 144.018 10.0498C143.518 10.0397 143.023 10.0447 142.529 10.0498C142.352 10.0498 142.272 9.98923 142.261 9.80251C142.25 9.63492 142.23 9.46883 142.21 9.3026L142.21 9.30136L142.21 9.3002L142.21 9.29905C142.193 9.1613 142.177 9.02289 142.166 8.88401C142.12 8.30868 141.767 7.97055 141.257 7.84439C140.702 7.70308 140.127 7.5971 139.556 7.58701C137.598 7.55673 135.635 7.56177 133.672 7.58701C133.167 7.5971 132.647 7.69803 132.158 7.83429C131.396 8.04625 131.048 8.53074 131.002 9.31802C130.996 9.46942 130.998 9.62082 131 9.77222C131.001 9.84793 131.002 9.92363 131.002 9.99933C131.012 10.8875 131.366 11.3518 132.218 11.5184C132.658 11.6042 133.117 11.6445 133.566 11.6546C134.357 11.6698 135.145 11.6679 135.934 11.666C136.198 11.6654 136.461 11.6647 136.725 11.6647C137.07 11.6647 137.415 11.6636 137.759 11.6625C138.447 11.6602 139.134 11.658 139.824 11.6647ZM124.158 8.58118C123.84 7.32455 123.068 6.42624 121.806 6.02755C121.2 5.83578 120.575 5.71971 119.929 5.71971C119.252 5.71971 118.576 5.71939 117.9 5.71907C115.871 5.71813 113.842 5.71718 111.814 5.72475C111.258 5.72475 110.698 5.76008 110.158 5.85597C108.508 6.14867 107.494 7.05203 107.095 8.66698C106.933 9.318 106.868 10.0043 106.848 10.6756C106.822 11.4736 106.827 12.2717 106.831 13.0697C106.834 13.5485 106.836 14.0272 106.832 14.506C106.827 15.2731 106.908 16.0301 107.1 16.7619C107.418 18.0084 108.14 18.9269 109.416 19.3458C110.088 19.5628 110.774 19.6789 111.47 19.689C112.392 19.699 113.314 19.6957 114.236 19.6923C114.697 19.6906 115.158 19.689 115.619 19.689H118.47L118.64 19.6891C119.406 19.6897 120.172 19.6903 120.938 19.5729C122.608 19.3155 123.749 18.4424 124.168 16.7871C124.334 16.1361 124.405 15.4497 124.42 14.7785C124.456 13.3806 124.461 11.9776 124.42 10.5746C124.4 9.90341 124.324 9.21706 124.158 8.57109V8.58118ZM120.393 17.7308C120.319 17.7413 120.244 17.7528 120.169 17.7644C119.919 17.803 119.668 17.8419 119.419 17.8419C116.88 17.852 114.342 17.852 111.809 17.8419C111.42 17.8419 111.021 17.8015 110.653 17.6955C109.755 17.4432 109.22 16.9335 109.068 15.7323C109.057 15.6457 109.059 15.5564 109.061 15.4682L109.062 15.4273C109.063 15.4061 109.063 15.3849 109.063 15.3639C109.063 14.8325 109.064 14.3011 109.066 13.7696C109.069 12.5297 109.072 11.2897 109.058 10.0498C109.043 8.52062 109.921 7.59708 111.556 7.57689C112.465 7.56679 113.374 7.57016 114.281 7.57353C114.734 7.57521 115.187 7.57689 115.639 7.57689C115.98 7.57689 116.32 7.57626 116.661 7.57563C117.683 7.57373 118.704 7.57184 119.722 7.58698C120.065 7.58698 120.423 7.64754 120.751 7.74343C121.619 8.00081 122.164 8.75277 122.21 9.67631C122.21 9.68792 122.21 9.69953 122.21 9.71117C122.211 9.7293 122.211 9.7475 122.212 9.76593C122.213 9.79734 122.215 9.82969 122.215 9.86304V15.5456C122.215 16.6206 121.614 17.5744 120.398 17.7409L120.393 17.7308ZM99.5721 19.5679C99.9729 19.5621 100.374 19.563 100.775 19.5638C101.075 19.5644 101.376 19.565 101.677 19.5628C102.111 19.5628 102.116 19.5578 102.121 19.1288V18.8815V6.5121V6.20425C102.111 5.85653 102.11 5.85098 101.793 5.84593C101.298 5.84089 100.803 5.84089 100.304 5.84593C99.9253 5.84593 99.9203 5.85603 99.9152 6.21434V6.5878V16.7266C99.9152 16.823 99.905 16.9195 99.8937 17.0264C99.8872 17.0871 99.8804 17.1517 99.8749 17.2212C99.5775 16.9413 99.2857 16.6676 98.9976 16.3973C98.4543 15.8878 97.9246 15.3909 97.3969 14.8896C95.8362 13.3961 94.2799 11.9026 92.7236 10.4091C91.945 9.66189 91.1663 8.91465 90.3871 8.16741C89.6553 7.46592 88.9286 6.76948 88.1867 6.08313C88.0757 5.97715 87.9142 5.86107 87.7729 5.86107C87.1372 5.84594 86.5043 5.84782 85.87 5.84972C85.6583 5.85035 85.4465 5.85098 85.2344 5.85098C85.0729 5.85098 85.0174 5.93173 85.0174 6.07808V6.5121V18.9421C85.0174 18.9843 85.018 19.026 85.0185 19.0675C85.0197 19.1499 85.0208 19.2316 85.0174 19.3156C85.0073 19.4972 85.0881 19.578 85.2748 19.5729C85.4527 19.5729 85.6312 19.5724 85.8099 19.5718C86.1681 19.5707 86.528 19.5696 86.8847 19.5729C87.1118 19.5729 87.2379 19.4922 87.2329 19.25V18.8159V8.85881V8.14218C87.7042 8.59019 88.1689 9.03155 88.6285 9.46806L88.6313 9.47079C89.9619 10.7346 91.2497 11.9578 92.5319 13.1838C93.4584 14.0712 94.3803 14.9616 95.3018 15.8517L95.305 15.8547C96.0438 16.5684 96.7825 17.2819 97.5231 17.9933C97.736 18.1995 97.953 18.4005 98.17 18.6015L98.1707 18.6021L98.1714 18.6028C98.4372 18.849 98.7034 19.0956 98.9614 19.3509C99.1431 19.5326 99.3298 19.578 99.5721 19.5729V19.5679ZM69.8373 5.856C70.4026 5.86105 70.9829 5.96198 71.533 6.10833L71.5381 6.11338C72.5828 6.3859 73.1581 7.14795 73.3599 8.16234C73.6123 9.42401 73.5769 10.7008 73.3549 11.9625C73.153 13.1283 72.3859 13.8348 71.2403 14.1023C70.8215 14.2032 70.3874 14.2537 69.9585 14.2537C68.1259 14.2663 66.2933 14.2691 64.4608 14.2718L64.4593 14.2718C63.3602 14.2735 62.2612 14.2751 61.1621 14.2789C61.0762 14.2789 61.0012 14.2776 60.9358 14.2765C60.7152 14.2727 60.6026 14.2708 60.5457 14.3261C60.4864 14.3838 60.4876 14.5035 60.4898 14.748C60.4903 14.8009 60.4909 14.8597 60.4909 14.9249V19.1894C60.4909 19.5477 60.4808 19.5578 60.1073 19.5578H58.6185C58.4369 19.5578 58.3511 19.4821 58.3561 19.3004V18.932V12.6892V6.50702V6.07301C58.3511 5.92665 58.4116 5.84086 58.5681 5.84086H58.8759C59.4849 5.84086 60.0939 5.84072 60.7029 5.84058C63.7477 5.83988 66.7925 5.83918 69.8373 5.856ZM69.0922 12.4269C69.3667 12.4274 69.6444 12.4279 69.9181 12.3965L69.9131 12.3915C70.7104 12.3006 71.3009 11.7505 71.2757 10.9935C71.2689 10.7109 71.2702 10.4273 71.2714 10.1436C71.273 9.78894 71.2745 9.43411 71.2605 9.08084C71.2302 8.39953 70.8719 7.97056 70.2058 7.82421C69.8676 7.74851 69.5194 7.69804 69.1712 7.69804C66.4712 7.693 63.7662 7.693 61.0611 7.693C61.0277 7.693 60.9937 7.69411 60.9595 7.69522C60.8905 7.69747 60.8208 7.69974 60.7533 7.693C60.5312 7.67281 60.4757 7.78384 60.4757 7.9857V11.0137V12.1896C60.4757 12.341 60.5413 12.4268 60.6927 12.4268H61.1268H65.2751H68.9895L69.0922 12.4269ZM79.6899 5.84591C79.5697 5.84591 79.4496 5.84571 79.3297 5.84551C78.8507 5.8447 78.3736 5.8439 77.8933 5.856C77.8277 5.856 77.7267 5.96703 77.7116 6.03769C77.69 6.15293 77.6941 6.27074 77.6982 6.38928C77.6999 6.43686 77.7015 6.48456 77.7015 6.53226V12.6489V18.8866V19.3206C77.7015 19.5073 77.7924 19.5679 77.969 19.5679C78.2718 19.5645 78.5746 19.5656 78.8774 19.5668C79.0288 19.5673 79.1802 19.5679 79.3316 19.5679C79.6184 19.5679 79.7622 19.5679 79.835 19.496C79.9082 19.4236 79.9094 19.2786 79.912 18.9876V18.8664V6.45152V6.08311C79.912 5.92666 79.8363 5.86105 79.6849 5.86105L79.6899 5.84591Z" fill="#1B2B49"/>
<path fill-rule="evenodd" clip-rule="evenodd" d="M144.773 26.3611C144.803 25.1398 145.677 24.2415 146.989 24.2364C148.21 24.2263 149.204 25.2508 149.113 26.4317C149.164 27.6732 148.18 28.6119 146.953 28.6018C145.495 28.5917 144.748 27.436 144.773 26.3611ZM146.166 27.9205C146.716 28.2334 147.317 28.2284 147.857 27.8599C148.407 27.4814 148.654 26.9263 148.594 26.2652C148.533 25.6142 148.22 25.0843 147.589 24.8319C147.337 24.731 147.024 24.6805 146.757 24.7209C145.823 24.8622 145.348 25.4729 145.354 26.5226C145.303 27.1029 145.616 27.6076 146.166 27.9205ZM139.328 26.4116C139.767 26.129 139.928 25.7404 139.817 25.1953C139.727 24.7361 139.454 24.4737 138.929 24.403C138.546 24.3475 138.152 24.3172 137.763 24.3071C137.107 24.292 137.107 24.3071 137.102 24.9326V27.9609C137.102 27.9875 137.103 28.0146 137.103 28.0419C137.104 28.0974 137.106 28.1542 137.102 28.2082C137.082 28.4303 137.198 28.4858 137.4 28.4908C137.627 28.4908 137.678 28.3849 137.673 28.183C137.662 27.7692 137.662 27.3604 137.673 26.9465C137.678 26.6488 137.708 26.6387 137.985 26.6236C138.197 26.6135 138.324 26.6892 138.43 26.8759C138.641 27.251 138.865 27.6184 139.09 27.9882L139.187 28.1477C139.409 28.511 139.409 28.511 139.959 28.4101C139.691 27.9609 139.429 27.5269 139.161 27.0879C138.996 26.812 139.052 26.5866 139.328 26.4116ZM138.732 26.1239C138.622 26.1307 138.513 26.1284 138.404 26.1262C138.349 26.1251 138.293 26.1239 138.238 26.1239C138.197 26.1246 138.159 26.1254 138.123 26.1261C137.887 26.131 137.774 26.1333 137.721 26.078C137.671 26.0272 137.672 25.9278 137.673 25.737L137.673 25.7001L137.673 25.6466L137.673 25.6036L137.673 25.5738V25.5133C137.673 24.721 137.713 24.6806 138.505 24.7866C138.647 24.8067 138.788 24.8471 138.919 24.8925C139.197 24.9985 139.308 25.16 139.313 25.4477C139.318 25.7757 139.212 25.9423 138.909 26.0634C138.853 26.0886 138.793 26.1138 138.737 26.1189L138.732 26.1239ZM131.752 26.1736L131.78 26.1744V26.1794C131.811 26.5428 131.836 26.9011 131.861 27.2645C131.865 27.3451 131.863 27.428 131.862 27.5101V27.5116C131.862 27.5523 131.861 27.5929 131.861 27.6329C131.861 28.2334 131.801 28.3192 131.215 28.4706C130.7 28.6069 130.181 28.6775 129.641 28.516C128.652 28.2233 128.041 27.4714 128.036 26.4469C128.026 25.4931 128.525 24.6048 129.585 24.3323C130.322 24.1405 131.094 24.1456 131.755 24.7764C131.53 25.0086 131.311 25.0624 131.099 24.9379C130.519 24.5998 129.938 24.5948 129.358 24.948C128.757 25.3063 128.571 25.8817 128.601 26.5226C128.672 27.8902 129.964 28.4151 131.129 27.9609C131.23 27.9205 131.326 27.754 131.341 27.6329C131.363 27.4462 131.359 27.2543 131.355 27.0628V27.0618V27.0604C131.354 27.0179 131.353 26.9745 131.352 26.932C131.352 26.9109 131.352 26.8898 131.352 26.8687L131.351 26.8304C131.351 26.6689 131.256 26.6235 131.114 26.6235H130.62C130.478 26.6235 130.383 26.5831 130.383 26.4166C130.383 26.2602 130.403 26.1289 130.61 26.139C130.989 26.1538 131.372 26.1638 131.752 26.1736ZM41.2748 26.9112C41.1032 26.6336 41.1083 26.6286 41.406 26.4923C41.4413 26.4772 41.4817 26.457 41.517 26.4368C41.9309 26.2248 42.2034 25.7606 42.1075 25.3215C42.0015 24.8219 41.835 24.4787 41.189 24.403C40.8959 24.3697 40.601 24.3528 40.3065 24.3359C40.1093 24.3246 39.9116 24.3132 39.7154 24.297C39.4731 24.2768 39.3873 24.3778 39.3873 24.615C39.3924 25.811 39.3924 27.002 39.3873 28.1981C39.3873 28.4101 39.4529 28.4959 39.6699 28.4858C39.8819 28.4757 39.887 28.3495 39.887 28.1981C39.887 28.0532 39.8881 27.909 39.8892 27.7648C39.8914 27.4772 39.8937 27.1903 39.887 26.9011C39.8819 26.674 39.9778 26.6235 40.1797 26.6235C40.3815 26.6235 40.5279 26.6639 40.6389 26.8557C40.7367 27.028 40.8427 27.1966 40.9487 27.3655L40.9492 27.3664C41.0946 27.598 41.2403 27.8299 41.3656 28.0719C41.5574 28.4454 41.8047 28.5817 42.2034 28.4403C42.1965 28.4265 42.1902 28.4127 42.184 28.3993C42.1723 28.3736 42.1611 28.3492 42.1479 28.3293C41.8552 27.86 41.5625 27.3906 41.2748 26.9162V26.9112ZM40.3232 26.1337C40.1008 26.1349 39.9924 26.1356 39.94 26.0817C39.8901 26.0304 39.891 25.9298 39.8927 25.7335C39.8933 25.656 39.8942 25.5627 39.892 25.4527C39.8933 25.3533 39.8925 25.2684 39.8918 25.1959C39.8899 24.9871 39.8889 24.8809 39.9415 24.8279C39.9959 24.773 40.1076 24.775 40.3348 24.7789C40.4045 24.7801 40.4852 24.7815 40.5783 24.7815C40.755 24.7815 40.9417 24.8219 41.1133 24.8824C41.4514 25.0086 41.5473 25.1751 41.5271 25.5385C41.512 25.8514 41.3858 26.0078 41.0578 26.0936C40.9013 26.134 40.7348 26.134 40.5733 26.129V26.134C40.477 26.1328 40.3943 26.1333 40.3232 26.1337ZM100.637 24.297C100.854 24.2919 100.919 24.4383 100.985 24.5846V24.5745C101.404 25.5485 101.823 26.5276 102.237 27.5067C102.31 27.6809 102.383 27.8568 102.455 28.0334L102.455 28.0345C102.487 28.1107 102.518 28.187 102.549 28.2633C102.569 28.3122 102.59 28.3611 102.61 28.41L102.606 28.4109C102.302 28.4728 102.168 28.4998 102.085 28.4476C102.02 28.4071 101.985 28.3185 101.922 28.1612L101.922 28.1599C101.909 28.1269 101.894 28.0909 101.878 28.0517C101.867 28.0233 101.853 27.9949 101.84 27.9665C101.818 27.9193 101.795 27.8719 101.782 27.8246C101.712 27.5672 101.565 27.4562 101.288 27.4764C101.101 27.4905 100.913 27.4873 100.726 27.4842C100.646 27.4828 100.566 27.4814 100.485 27.4814C100.397 27.483 100.303 27.4755 100.21 27.4681C99.9972 27.4512 99.7846 27.4343 99.6376 27.5218C99.4857 27.6145 99.4072 27.8268 99.3302 28.0351C99.3024 28.1104 99.2748 28.1852 99.244 28.2536C99.1319 28.5057 98.95 28.4912 98.7386 28.4745C98.6834 28.4701 98.6262 28.4655 98.5677 28.4655C98.7544 28.0429 98.9364 27.6275 99.1164 27.2164L99.118 27.2128L99.1189 27.2107C99.3079 26.7793 99.4948 26.3525 99.683 25.927C99.7572 25.762 99.83 25.597 99.9027 25.4322C100.028 25.1485 100.153 24.8655 100.284 24.5846C100.354 24.4383 100.425 24.297 100.637 24.297ZM99.776 26.9717C99.8942 26.6937 100.011 26.4232 100.125 26.1562C100.275 25.8095 100.421 25.4687 100.566 25.1246C100.599 25.1432 100.628 25.1558 100.651 25.166C100.685 25.1808 100.707 25.1904 100.713 25.2054C100.875 25.5982 101.033 25.9935 101.202 26.4157L101.203 26.4181L101.203 26.4195L101.206 26.4259L101.209 26.434C101.279 26.608 101.35 26.7867 101.424 26.9717H99.776ZM56.5833 24.297C56.3814 24.3171 56.3209 24.4484 56.2553 24.6099C56.0125 25.1691 55.7668 25.7254 55.5213 26.2811L55.5205 26.2828L55.52 26.2839C55.3117 26.7553 55.1037 27.2264 54.8977 27.6984C54.8278 27.8541 54.7619 28.0098 54.695 28.168L54.6943 28.1695L54.6937 28.1709L54.6933 28.1719C54.6545 28.2637 54.6153 28.3564 54.5747 28.4504C55.0819 28.5388 55.1 28.4985 55.2382 28.1911C55.2499 28.1651 55.2624 28.1371 55.2762 28.1072C55.3368 27.976 55.3923 27.8448 55.4478 27.7136C55.5083 27.5774 55.5891 27.4814 55.7657 27.4865C56.3007 27.4966 56.8356 27.4966 57.3756 27.4865C57.5472 27.4865 57.6482 27.5521 57.7138 27.6984C57.7493 27.7766 57.7798 27.8573 57.8106 27.9387L57.8113 27.9405L57.8221 27.969C57.828 27.9846 57.834 28.0002 57.84 28.0158L57.85 28.0416C57.9779 28.3377 58.2285 28.4706 58.602 28.4403C58.0519 27.1383 57.5018 25.8413 56.9517 24.5493C56.8811 24.3878 56.7902 24.2717 56.5833 24.297ZM55.7557 26.9667L55.7846 26.8982C56.0514 26.2676 56.3062 25.6654 56.5934 24.9985C56.871 25.6697 57.1283 26.2904 57.4059 26.9515C56.8407 27.0323 56.3158 27.0121 55.7607 26.9667H55.7557ZM49.34 28.0035C49.4498 28.0024 49.5593 28.0013 49.6683 28.0013L49.6784 28.0113C49.8399 28.0113 49.9559 28.0416 49.966 28.2385C49.9711 28.4201 49.8954 28.4958 49.7137 28.4958H47.4831C47.3014 28.4958 47.2257 28.4302 47.2257 28.2435V26.4519C47.2257 26.2536 47.2262 26.0547 47.2268 25.8557V25.8543V25.8529C47.2279 25.4554 47.229 25.0563 47.2257 24.6603C47.2206 24.4282 47.3115 24.3172 47.5487 24.3172H49.5926C49.6531 24.3172 49.7389 24.3172 49.7692 24.3525C49.8298 24.4231 49.9055 24.5241 49.8954 24.6048C49.8903 24.6704 49.7793 24.7815 49.7086 24.7815C49.4513 24.7865 49.1926 24.7865 48.934 24.7865C48.6753 24.7865 48.4167 24.7865 48.1593 24.7916C47.7606 24.7966 47.7455 24.8168 47.7354 25.2155C47.732 25.3499 47.7331 25.4865 47.7343 25.6239L47.735 25.7222C47.7352 25.7585 47.7354 25.7948 47.7354 25.8312C47.7354 26.0381 47.8515 26.1239 48.0483 26.1239H49.2242C49.2525 26.1239 49.2813 26.1224 49.3099 26.121C49.3882 26.1171 49.4655 26.1132 49.532 26.139C49.6027 26.1643 49.6986 26.2652 49.6986 26.3308C49.6986 26.3964 49.5926 26.5226 49.532 26.5226C49.2427 26.5327 48.9533 26.5338 48.664 26.5349C48.5193 26.5355 48.3746 26.536 48.23 26.5377C47.7455 26.5478 47.7303 26.5579 47.7303 27.0172C47.7303 27.2346 47.7434 27.4546 47.7563 27.6735C47.7614 27.7595 47.7664 27.8452 47.7707 27.9306C47.8572 27.9378 47.9438 27.9458 48.0303 27.9539C48.2466 27.974 48.4628 27.994 48.6791 28.0013C48.898 28.008 49.1197 28.0057 49.34 28.0035ZM79.0803 28.0012C78.7522 28.0063 78.4191 28.0113 78.0911 28.0012C77.8575 27.9939 77.6238 27.9734 77.3921 27.9531C77.3035 27.9453 77.2151 27.9376 77.1272 27.9306C77.1241 27.8641 77.1208 27.7978 77.1176 27.7316L77.1175 27.73L77.1174 27.7286C77.1046 27.4696 77.0919 27.2119 77.0919 26.9515C77.0919 26.5629 77.1171 26.5427 77.5208 26.5327C77.7831 26.5259 78.0431 26.5282 78.3038 26.5304C78.4343 26.5315 78.5655 26.5327 78.6967 26.5327C78.7218 26.5327 78.7487 26.5347 78.7762 26.5369C78.9085 26.5471 79.0526 26.5582 79.0651 26.3409C79.0782 26.1097 78.9292 26.116 78.7876 26.122C78.7653 26.1229 78.7432 26.1239 78.7219 26.1239C78.6462 26.1239 78.5705 26.1244 78.4948 26.125C78.3434 26.1261 78.192 26.1272 78.0406 26.1239C77.8388 26.1138 77.637 26.0992 77.4351 26.0846C77.3342 26.0773 77.2332 26.07 77.1322 26.0633C77.1272 25.9634 77.1206 25.863 77.1139 25.7623L77.1139 25.7613C77.1004 25.5575 77.0868 25.3521 77.0868 25.1499C77.0868 24.8016 77.0969 24.7966 77.4805 24.7915C77.8102 24.7882 78.1399 24.7893 78.4696 24.7904C78.6345 24.791 78.7993 24.7915 78.9642 24.7915C79.1105 24.7915 79.1963 24.736 79.1963 24.5796C79.1963 24.408 79.1358 24.3121 78.949 24.3121C78.7218 24.3121 78.4945 24.3132 78.2674 24.3143C77.8137 24.3166 77.3608 24.3188 76.9102 24.3121C76.6679 24.3071 76.5821 24.3828 76.5872 24.625C76.5939 25.0214 76.5917 25.4178 76.5894 25.8157C76.5883 26.0154 76.5872 26.216 76.5872 26.4166V28.2687C76.5872 28.41 76.6276 28.5009 76.7941 28.5009H79.0853C79.2317 28.5009 79.3175 28.4554 79.3175 28.2889C79.3175 28.1224 79.2821 28.0113 79.0803 28.0164V28.0012ZM115.508 28.0012H116.931L116.936 28.0164C116.945 28.0169 116.955 28.0171 116.964 28.0171C116.98 28.017 116.997 28.0162 117.013 28.0155C117.075 28.0126 117.138 28.0098 117.173 28.0416C117.254 28.1123 117.325 28.2233 117.34 28.3242C117.345 28.3696 117.219 28.4908 117.148 28.4908C116.386 28.5009 115.624 28.5009 114.862 28.5009C114.67 28.5009 114.615 28.41 114.615 28.2384V26.4468C114.615 26.2463 114.615 26.0463 114.616 25.8467V25.8456V25.8444V25.8433V25.8422V25.8411V25.84C114.617 25.4441 114.618 25.0497 114.615 24.6553C114.615 24.4383 114.665 24.3121 114.922 24.3121C115.363 24.3155 115.801 24.3143 116.24 24.3132C116.46 24.3127 116.68 24.3121 116.901 24.3121C116.911 24.3121 116.923 24.3118 116.935 24.3115C116.991 24.31 117.057 24.3082 117.077 24.3373C117.143 24.4231 117.214 24.5291 117.224 24.63C117.229 24.6704 117.093 24.7764 117.017 24.7764C116.702 24.7885 116.391 24.7877 116.077 24.7869L115.954 24.7866L115.841 24.7865H115.346C115.19 24.7814 115.119 24.8622 115.119 25.0085V25.1297C115.123 25.3165 115.122 25.4686 115.12 25.5923C115.118 25.8735 115.116 26.0079 115.183 26.0706C115.244 26.128 115.361 26.1252 115.586 26.12C115.711 26.1171 115.869 26.1134 116.068 26.1188C116.164 26.1205 116.26 26.1205 116.356 26.1205C116.547 26.1205 116.739 26.1205 116.931 26.134C116.987 26.139 117.082 26.2399 117.077 26.2854C117.062 26.3661 116.997 26.5074 116.941 26.5074C116.618 26.5326 116.285 26.5326 115.957 26.5326C115.399 26.5326 115.119 26.8169 115.119 27.3855V27.6328L115.119 27.634C115.134 27.9912 115.135 28.0012 115.508 28.0012ZM157.316 24.8925V24.5241C157.306 24.3828 157.235 24.2717 157.084 24.3121C156.983 24.3424 156.867 24.4282 156.826 24.519C156.794 24.5946 156.8 24.6856 156.806 24.7774C156.809 24.8141 156.811 24.8515 156.811 24.8874V26.7396C156.811 26.7662 156.811 26.7929 156.811 26.8195C156.812 26.9795 156.813 27.139 156.791 27.2947C156.72 27.7489 156.367 28.0769 155.918 28.1173C155.322 28.1728 154.979 27.9811 154.818 27.4612C154.742 27.2089 154.702 26.9414 154.697 26.679C154.684 26.0949 154.689 25.5143 154.694 24.9314C154.695 24.8142 154.696 24.697 154.697 24.5796C154.697 24.413 154.656 24.3071 154.459 24.302C154.278 24.302 154.197 24.3727 154.197 24.5543C154.197 24.8053 154.194 25.057 154.19 25.309V25.3104V25.3118V25.3135C154.182 25.9467 154.174 26.5819 154.217 27.2089C154.278 28.1224 154.989 28.6472 155.852 28.6119C156.715 28.5766 157.26 28.0618 157.306 27.1837C157.319 26.9248 157.315 26.6637 157.31 26.4018C157.308 26.2706 157.306 26.1392 157.306 26.0078H157.321V24.8975L157.316 24.8925ZM85.5287 26.1058C85.6868 26.1614 85.8453 26.2171 85.9994 26.2804L85.9943 26.2905C86.3426 26.4369 86.6554 26.6135 86.7715 27.0223C86.9179 27.5269 86.7766 28.0316 86.3577 28.3294C85.7874 28.7382 84.9042 28.723 84.334 28.294C84.3204 28.2834 84.3065 28.2731 84.2927 28.2629C84.1883 28.1852 84.089 28.1114 84.1826 27.9509C84.2886 27.7692 84.4904 27.7036 84.6418 27.8348C84.8941 28.0518 85.1667 28.1729 85.4897 28.1225C85.6663 28.0922 85.853 28.0316 86.0044 27.9408C86.393 27.6985 86.3627 27.0929 85.9994 26.9062C85.8177 26.8103 85.6259 26.7296 85.4392 26.6539C85.3564 26.6195 85.272 26.5885 85.1877 26.5574C85.0611 26.5107 84.9345 26.4641 84.8134 26.4066C84.3844 26.1997 84.1372 25.8565 84.1725 25.3771C84.2078 24.8926 84.4551 24.5292 84.9295 24.3475C85.5401 24.1154 86.282 24.2668 86.7311 24.721C86.4435 24.9987 86.4434 24.9986 86.1227 24.8453L86.1054 24.8371C85.8228 24.7008 85.5351 24.6352 85.2171 24.7614C84.9396 24.8724 84.768 25.0288 84.7478 25.3367C84.7276 25.6445 84.8588 25.8514 85.1364 25.9625C85.265 26.013 85.3967 26.0593 85.5287 26.1058ZM164.434 24.4029C164.098 24.3592 163.757 24.3424 163.416 24.3256C163.245 24.3172 163.075 24.3087 162.905 24.297C162.688 24.2818 162.617 24.3828 162.617 24.5897C162.621 24.9867 162.62 25.3837 162.618 25.7807C162.618 25.9792 162.617 26.1777 162.617 26.3762V28.2233C162.617 28.3999 162.673 28.4857 162.865 28.4857C163.046 28.4857 163.122 28.4151 163.122 28.2334C163.117 27.8246 163.117 27.4108 163.122 27.002C163.127 26.6439 163.132 26.6436 163.485 26.6244L163.501 26.6235C163.606 26.6176 163.712 26.6194 163.818 26.6212C164.077 26.6256 164.338 26.63 164.596 26.5226C165.146 26.2955 165.393 25.927 165.343 25.3315C165.302 24.8269 164.994 24.4786 164.439 24.4029H164.434ZM164.232 26.1239C164.124 26.1407 164.014 26.1351 163.905 26.1294C163.851 26.1267 163.796 26.1239 163.743 26.1239C163.668 26.1239 163.601 26.1248 163.543 26.1256C163.322 26.1286 163.212 26.1301 163.158 26.0758C163.105 26.0215 163.108 25.9114 163.113 25.6911L163.115 25.6201C163.116 25.5882 163.116 25.5543 163.117 25.5183C163.119 25.385 163.116 25.275 163.113 25.1844C163.108 24.9878 163.105 24.8821 163.156 24.8267C163.216 24.7623 163.35 24.7662 163.638 24.7747C163.719 24.7771 163.812 24.7798 163.919 24.7814C164.258 24.7814 164.621 24.8269 164.742 25.2609C164.858 25.6697 164.646 26.0633 164.232 26.1239ZM106.712 24.302H109.437H109.443C109.619 24.302 109.715 24.3626 109.715 24.5493C109.715 24.7512 109.594 24.7814 109.432 24.7814C109.341 24.7814 109.251 24.7826 109.16 24.7837C108.981 24.7859 108.803 24.7882 108.625 24.7814C108.413 24.7714 108.332 24.8571 108.332 25.0691V27.2341C108.332 27.3433 108.332 27.453 108.331 27.5629V27.5641C108.33 27.7841 108.329 28.0048 108.332 28.2233C108.337 28.3999 108.282 28.4908 108.09 28.4908C107.908 28.4908 107.833 28.4252 107.833 28.2384V26.6285C107.833 26.4704 107.833 26.3123 107.834 26.1542V26.1525C107.835 25.8368 107.836 25.5211 107.833 25.2054C107.833 24.7866 107.828 24.7865 107.379 24.7814H106.697C106.551 24.7814 106.465 24.731 106.465 24.5695C106.465 24.3929 106.521 24.302 106.712 24.302ZM94.4494 24.302C94.2575 24.3054 94.0633 24.3043 93.8698 24.3031C93.7734 24.3026 93.6771 24.302 93.5814 24.302H91.7242C91.5425 24.302 91.4668 24.3727 91.4668 24.5543C91.4668 24.7613 91.5829 24.7865 91.7444 24.7814C91.8334 24.7814 91.9224 24.7826 92.0114 24.7837C92.1897 24.7859 92.3685 24.7882 92.5468 24.7814C92.7689 24.7714 92.8446 24.8672 92.8294 25.0742C92.8261 25.1715 92.8272 25.2667 92.8283 25.3626C92.8289 25.4108 92.8294 25.4592 92.8294 25.5082V28.2283C92.8294 28.405 92.8799 28.4958 93.0717 28.4958C93.2534 28.4958 93.3291 28.4302 93.3291 28.2435C93.3257 27.8875 93.3268 27.5314 93.3279 27.1754V27.1736C93.3285 26.9953 93.3291 26.8169 93.3291 26.6386V25.5284C93.3303 25.4216 93.3296 25.3303 93.329 25.2522C93.3271 25.0174 93.3262 24.9021 93.3834 24.8457C93.4386 24.7912 93.5481 24.7917 93.7635 24.7927C93.84 24.7931 93.93 24.7935 94.0356 24.7915H94.4696C94.616 24.7915 94.7018 24.736 94.7018 24.5745C94.7018 24.3979 94.6362 24.3071 94.4494 24.3121V24.302ZM65.0955 28.0001C65.2334 28.0007 65.3716 28.0012 65.5097 28.0012V27.9962C65.6964 27.9962 65.8327 28.0214 65.8327 28.2586C65.8327 28.4655 65.7065 28.4807 65.5501 28.4807C65.343 28.4807 65.1364 28.4801 64.9301 28.4796C64.5179 28.4784 64.1065 28.4773 63.6929 28.4807C63.5011 28.4857 63.4506 28.3949 63.4506 28.2183V26.3661C63.4506 26.2324 63.449 26.0978 63.4474 25.9629C63.4432 25.6243 63.4391 25.2836 63.4607 24.948C63.4647 24.8904 63.4536 24.8246 63.4424 24.7575C63.4103 24.5659 63.3763 24.3631 63.6828 24.3071C63.925 24.2616 63.9452 24.3273 63.9452 24.9177V27.325C63.9452 27.3652 63.9469 27.4059 63.9486 27.4469C63.9519 27.5293 63.9553 27.6125 63.9452 27.6934C63.9149 27.9558 64.0512 28.0012 64.2733 28.0012C64.5456 27.9979 64.8202 27.999 65.0955 28.0001Z" fill="#BEA36D"/>
</svg>
