<svg width="33" height="30" viewBox="0 0 33 30" fill="none" xmlns="http://www.w3.org/2000/svg">
<path fill-rule="evenodd" clip-rule="evenodd" d="M0.556793 2.58913C5.65629 0.869629 11.0028 -0.00363915 16.3844 0.00395536C21.766 -0.00359962 27.1125 0.869668 32.2121 2.58913C30.0609 13.2066 24.5037 22.8321 16.3844 30.0039C8.26525 22.832 2.70811 13.2065 0.556793 2.58913ZM25.3864 15.7371L25.4435 15.7876V15.7854C27.5134 12.0315 29.0634 8.0136 30.0511 3.84215C21.1231 1.19091 11.6171 1.19091 2.68913 3.84215C3.28868 6.36782 4.09751 8.83916 5.10724 11.2306L9.03776 11.9186C8.9947 12.0204 8.97086 12.1292 8.96742 12.2396C8.96509 12.4131 9.00112 12.585 9.07294 12.743C9.16588 12.9497 9.28884 13.1416 9.43785 13.3124C9.63701 13.5393 9.85789 13.7462 10.0973 13.9301L6.73397 14.6907C6.8644 14.9427 6.99776 15.1948 7.13406 15.4469L10.9107 14.4906C11.2664 14.7069 11.6333 14.9043 12.0098 15.082C12.4495 15.2886 12.9177 15.4843 13.4255 15.6667C13.9333 15.8492 14.4807 16.0162 15.0149 16.1569C15.5491 16.2976 16.1008 16.4141 16.6482 16.5043L17.954 20.4612C16.7131 20.3249 15.4829 20.1046 14.2719 19.8017C13.0844 19.5038 11.9188 19.1248 10.7832 18.6674C9.92889 18.3227 9.09704 17.9247 8.29255 17.4759C10.5178 21.1821 13.2404 24.566 16.3844 27.533C18.6784 25.3661 20.7479 22.9732 22.5616 20.3908C21.5869 20.5438 20.5997 20.6027 19.6137 20.5667L17.8924 16.6471C18.3667 16.6895 18.8431 16.7042 19.3191 16.6911C19.7025 16.6814 20.0846 16.6432 20.4622 16.5768C20.7518 16.5269 21.0354 16.4474 21.3086 16.3394C21.4898 16.2671 21.6605 16.171 21.8164 16.0536L24.5049 17.4078C24.5676 17.2922 24.6378 17.1758 24.7081 17.059L24.7082 17.059L24.7082 17.0589L24.7082 17.0589L24.7082 17.0589L24.7082 17.0589L24.7082 17.0588C24.7463 16.9957 24.7844 16.9324 24.8214 16.8692L22.2033 15.5766C22.24 15.4876 22.2623 15.3934 22.2692 15.2974C22.2781 15.148 22.2564 14.9984 22.2055 14.8577C22.1521 14.702 22.0782 14.5542 21.9856 14.4181C21.9143 14.3151 21.8364 14.2167 21.7526 14.1235L24.1993 14.5566C24.4323 14.75 24.65 14.9435 24.8456 15.1369C25.0376 15.3261 25.2182 15.5265 25.3864 15.7371ZM18.1472 13.6377C18.172 13.598 18.1864 13.5526 18.1889 13.5058L20.4773 13.9103C20.5929 14.068 20.6601 14.2559 20.6708 14.451C20.6687 14.5685 20.6375 14.6836 20.5799 14.7861C20.5224 14.8885 20.4403 14.9751 20.3411 15.038C20.0137 15.2474 19.6417 15.3769 19.2551 15.4161C18.6286 15.4973 17.9945 15.5024 17.3668 15.4315L16.7073 13.9345C16.9391 13.9547 17.1723 13.9547 17.4042 13.9345C17.5703 13.923 17.734 13.8874 17.89 13.8289C17.9934 13.7933 18.0832 13.7265 18.1472 13.6377ZM17.1225 13.2442C17.1371 13.2156 17.1438 13.1836 17.1419 13.1515C17.14 13.1194 17.1295 13.0884 17.1115 13.0618C17.0596 12.9806 16.9915 12.911 16.9115 12.8573C16.8079 12.7832 16.6975 12.7192 16.5818 12.6661C16.5203 12.6375 16.4523 12.609 16.3842 12.5805L16.3839 12.5803V12.266L16.5378 12.3144C16.7378 12.3825 16.9269 12.4572 17.1028 12.5342C17.27 12.6094 17.4323 12.6953 17.5886 12.7914C17.6839 12.851 17.775 12.9171 17.8612 12.9892L19.9715 13.3673C19.7259 13.1629 19.4634 12.9798 19.1867 12.82C18.8406 12.6192 18.4823 12.44 18.114 12.2836C17.7403 12.1231 17.338 11.9736 16.9225 11.8439C16.7466 11.789 16.5664 11.7362 16.3839 11.6856V11.4021C16.5818 11.4548 16.7796 11.5098 16.9709 11.5669C17.2083 11.6387 17.4428 11.712 17.6743 11.7868C17.9059 11.8615 18.1338 11.9465 18.358 12.0418L19.2637 11.8373C18.9457 11.7157 18.6225 11.5984 18.2942 11.4856C17.9659 11.3728 17.6384 11.268 17.3116 11.1712C17.006 11.0811 16.6961 10.9932 16.3839 10.9119V6.76589C16.9497 6.46258 17.5394 6.44295 18.1133 6.42385C19.0825 6.39159 20.0063 6.36085 20.6926 4.9677C19.8994 5.21265 19.2735 4.97134 18.5577 4.69536C17.9503 4.46115 17.278 4.20197 16.3839 4.1939H15.4804V12.3473C15.4346 12.3473 15.39 12.342 15.3468 12.3369L15.3468 12.3369C15.3113 12.3327 15.2767 12.3285 15.243 12.3275C15.1224 12.3219 15.0015 12.3293 14.8825 12.3495C14.7972 12.3613 14.7159 12.3929 14.6451 12.4419C14.6191 12.4599 14.5989 12.485 14.5868 12.5143C14.5747 12.5435 14.5713 12.5756 14.5769 12.6067C14.5993 12.6936 14.6495 12.7708 14.7198 12.8266C14.82 12.9135 14.9308 12.9874 15.0496 13.0464C15.2017 13.1234 15.3597 13.1881 15.5222 13.2398C15.7025 13.2987 15.887 13.3442 16.074 13.3761C16.2416 13.4057 16.4115 13.4204 16.5818 13.4201C16.7037 13.4217 16.8251 13.4054 16.9423 13.3717C17.0159 13.3526 17.08 13.3073 17.1225 13.2442ZM20.7196 12.4529C21.045 12.6023 21.3659 12.7584 21.6781 12.9233C22.0034 13.0926 22.3552 13.286 22.6322 13.4531C22.9091 13.6201 23.1773 13.796 23.4389 13.9785L21.1593 13.5696C21.0252 13.4641 20.8867 13.3585 20.7372 13.2574C20.5548 13.1343 20.3547 13.0068 20.1569 12.8947C19.959 12.7826 19.759 12.6705 19.5392 12.5628C19.4366 12.5105 19.3288 12.4616 19.222 12.4132L19.222 12.4132L19.1786 12.3935L20.0799 12.1737C20.282 12.2602 20.4743 12.3449 20.6787 12.4349L20.7196 12.4529ZM11.4559 10.8261L9.95232 10.0699C9.59839 10.0699 9.24886 10.0919 8.90813 10.1205C8.5674 10.149 8.1805 10.1952 7.83537 10.2546C7.47998 10.3137 7.12838 10.3937 6.7824 10.4942C6.48117 10.5847 6.18723 10.6978 5.90308 10.8327L9.40274 11.4592C9.51165 11.3734 9.62959 11.2997 9.75447 11.2394C9.92197 11.1576 10.0963 11.0907 10.2755 11.0393C10.4697 10.9829 10.6672 10.9382 10.8668 10.9052C11.0223 10.8806 11.1924 10.8592 11.3703 10.8369L11.3703 10.8369L11.3703 10.8369L11.3704 10.8369L11.4559 10.8261ZM13.3689 10.8507H13.3689H13.3689C13.1501 10.8306 12.9336 10.8107 12.7243 10.8107L12.5924 10.8041L11.1635 10.0963C11.2115 10.0985 11.2592 10.1014 11.3068 10.1044H11.3068H11.3068L11.3068 10.1044C11.4011 10.1102 11.495 10.116 11.59 10.116C11.9373 10.1402 12.2978 10.171 12.6429 10.2106C12.9881 10.2501 13.3618 10.3007 13.6937 10.3513C14.0257 10.4018 14.351 10.4612 14.6851 10.5271L14.8566 11.0503C14.6236 11.0085 14.417 10.9734 14.1686 10.9404C13.9202 10.9074 13.6783 10.8788 13.4365 10.8569L13.3689 10.8507ZM12.5888 11.2218C12.2566 11.2434 11.9282 11.3046 11.6105 11.4042C11.3828 11.4719 11.1747 11.5933 11.0038 11.7582L13.567 12.2176C13.6156 12.1617 13.6755 12.1167 13.7428 12.0857C13.8662 12.0324 13.9964 11.9969 14.1297 11.9802C14.2965 11.9572 14.4649 11.9477 14.6332 11.9516C14.811 11.9555 14.9886 11.9687 15.1651 11.9912L14.9585 11.3647C14.5568 11.2956 14.1517 11.2472 13.745 11.2196C13.36 11.1931 12.9736 11.1938 12.5888 11.2218ZM14.2844 13.2244C14.5077 13.344 14.7391 13.4475 14.9769 13.5344C15.2308 13.627 15.4899 13.7048 15.7529 13.7674L16.2453 15.2644C15.467 15.1182 14.7023 14.9071 13.9591 14.6335C13.3194 14.4026 12.7044 14.108 12.1235 13.7542C11.7198 13.5198 11.3604 13.2162 11.0618 12.8573C10.9066 12.6764 10.8161 12.449 10.8046 12.211L13.6052 12.7012C13.6586 12.7703 13.719 12.8336 13.7854 12.8903C13.9396 13.0189 14.1068 13.1309 14.2844 13.2244Z" fill="#006BA6"/>
</svg>
