<svg width="48" height="30" viewBox="0 0 48 30" fill="none" xmlns="http://www.w3.org/2000/svg">
<path fill-rule="evenodd" clip-rule="evenodd" d="M1.32616 29.9903C0.603475 29.9323 0.231824 29.4728 0.218506 28.9122V23.418H1.32616V29.9903ZM3.91661 28.9122C3.90329 29.4728 3.53164 29.9323 2.80895 29.9903V23.418H3.91661V28.9122ZM11.5673 23.418C10.8443 23.476 10.4742 23.9355 10.4606 24.4961V26.0293C10.4742 26.5909 10.8443 27.0504 11.5673 27.1075V23.418ZM10.4595 28.9112C10.4732 29.4728 10.8445 29.9323 11.5672 29.9894V28.1356H10.4595V28.9112ZM12.8651 23.4189C13.5878 23.476 13.9594 23.9355 13.9727 24.4971V25.3501H12.8651V23.4189ZM12.8651 26.2994C13.5878 26.3574 13.9579 26.8169 13.9714 27.3776V28.9111C13.9579 29.4727 13.5878 29.9322 12.8651 29.9893V26.2994ZM34.3357 28.9122C34.3494 29.4729 34.7207 29.9324 35.4434 29.9904V28.1081H34.3357V28.9122ZM36.6481 29.9903C37.3708 29.9323 37.7424 29.4728 37.7557 28.9122V23.418H36.6481V29.9903ZM23.1554 24.4961C23.1418 23.9355 22.7704 23.476 22.0474 23.418V29.9903L23.1554 29.9903V24.4971V24.4961ZM25.5862 24.4961C25.5729 23.9355 25.2015 23.476 24.4786 23.418V29.9903H25.5862V24.4961ZM26.9091 23.418C27.6318 23.476 28.0035 23.9355 28.0169 24.4961V29.9903H26.9091V23.418ZM15.3971 24.4961C15.4106 23.9355 15.782 23.476 16.5047 23.418V29.9903H15.3971V24.4961ZM17.9867 23.418C18.7094 23.476 19.0808 23.9355 19.0944 24.4961V29.9903H17.9867V23.418ZM39.1804 24.4961C39.1941 23.9355 39.5655 23.476 40.2885 23.418V29.9894C39.5655 29.9323 39.1941 29.4728 39.1804 28.9112V24.4961ZM41.7701 23.418C42.4928 23.476 42.8644 23.9355 42.8778 24.4961V28.9112C42.8644 29.4728 42.4928 29.9323 41.7701 29.9894V23.418ZM29.5502 24.4961C29.5639 23.9355 29.9353 23.476 30.6583 23.418V29.9903H29.5502V24.4961ZM32.1413 23.418C32.864 23.476 33.2357 23.9355 33.249 24.4961V29.9903H32.1413V23.418ZM46.8919 23.4189C47.6149 23.476 47.9849 23.9355 47.9986 24.4971V25.2724C47.985 25.8311 47.6175 26.2894 46.8994 26.35C47.6174 26.4095 47.985 26.8678 47.9987 27.4276L48 29.9904H46.8923V26.3505L46.8919 26.3506V23.4189ZM44.3595 23.418H45.4671V29.9903H44.3595V23.418ZM9.03632 24.5078C9.02268 23.9462 8.65262 23.4868 7.92961 23.4297V26.3601V26.361V30.0012H9.03759L9.03632 27.4383C9.02271 26.8781 8.65444 26.4195 7.93497 26.3606C8.65444 26.3007 9.02271 25.8424 9.03632 25.2829V24.5078ZM6.50483 23.4289H5.39717V30.0012H6.50483V23.4289Z" fill="#171717"/>
<path d="M36.7349 5.36708L37.0074 4.84159L35.5801 2.77858L35.5736 2.76561L34.6654 1.52002L33.3874 2.27905L30.0269 2.01955L27.62 0.598799L24.6942 1.44866L18.9333 0.00195312L17.1687 0.994534L12.3161 6.04177L11.6933 9.89532L9.76005 13.7294L9.56543 15.4032L10.7007 17.1613L12.9843 17.2067V16.3568L11.8425 15.8897L14.5867 12.8277L15.5015 11.7183L19.1669 17.2716V18.4977L22.8842 18.7053L23.1047 17.6932L21.3466 17.1872L21.4894 14.7025L20.8925 13.9824L20.9639 12.9444L22.1251 12.6071L22.6441 12.7693L22.482 13.7035L23.5913 17.7711L25.6608 19.088L27.5097 19.1594L27.6979 18.608L25.9398 17.4078L26.7896 14.0473L27.4384 15.0788L29.8776 15.7081L29.949 16.5644L29.417 16.8369L30.3966 18.2252L31.6617 16.266L32.038 14.1511L30.0982 13.0352L29.8322 11.4912L30.8573 8.64973L30.8637 8.64324L33.6209 8.12425L34.9249 8.98708L37.2993 8.88328L38.6552 7.11869L36.7349 5.36708Z" fill="#FF4A17"/>
</svg>
